<svg xmlns="http://www.w3.org/2000/svg" xmlns:xlink="http://www.w3.org/1999/xlink" viewBox="0 0 307.82 306.6"><defs><style>.cls-1{fill:#171a22;}.cls-2{fill:#2d2b2a;}.cls-3{fill:#313440;}.cls-4{isolation:isolate;}.cls-5{fill:#8195a5;}.cls-20,.cls-32,.cls-5{opacity:0.6;}.cls-14,.cls-15,.cls-20,.cls-32,.cls-5{mix-blend-mode:multiply;}.cls-6{fill:url(#Áåçûìÿííûé_ãðàäèåíò_1832);}.cls-7{fill:#8b3dce;}.cls-8{fill:url(#Áåçûìÿííûé_ãðàäèåíò_1832-2);}.cls-9{fill:#252734;}.cls-10,.cls-42{fill:#3d72e8;}.cls-11{fill:url(#Áåçûìÿííûé_ãðàäèåíò_1832-3);}.cls-12{fill:url(#Áåçûìÿííûé_ãðàäèåíò_1821);}.cls-13{fill:#35384a;}.cls-14{fill:#e9eaeb;}.cls-14,.cls-28,.cls-40,.cls-57,.cls-58{opacity:0.2;}.cls-15,.cls-51{fill:#cb89f0;}.cls-15,.cls-46{opacity:0.4;}.cls-16{fill:#cccdce;opacity:0.5;}.cls-17{clip-path:url(#clip-path);}.cls-18{fill:#ad852c;}.cls-19{fill:#95e5ff;}.cls-20{fill:#50197c;}.cls-21{fill:url(#Áåçûìÿííûé_ãðàäèåíò_108);}.cls-22{fill:#282a35;}.cls-23{fill:url(#Áåçûìÿííûé_ãðàäèåíò_1847);}.cls-24{fill:url(#Áåçûìÿííûé_ãðàäèåíò_1847-2);}.cls-25{fill:#1e1f27;}.cls-26{fill:#191414;}.cls-27,.cls-28{fill:#d0d6d6;}.cls-27,.cls-39{opacity:0.1;}.cls-28,.cls-40,.cls-42,.cls-63{mix-blend-mode:screen;}.cls-29{clip-path:url(#clip-path-2);}.cls-30{fill:#7c633c;}.cls-31{fill:#c0f3ff;}.cls-32{fill:#55128a;}.cls-33{fill:url(#Áåçûìÿííûé_ãðàäèåíò_1832-4);}.cls-34{fill:#181a23;}.cls-35{opacity:0.9;}.cls-36{fill:#120c0c;}.cls-37{fill:url(#Áåçûìÿííûé_ãðàäèåíò_1847-3);}.cls-38{fill:url(#Áåçûìÿííûé_ãðàäèåíò_1847-4);}.cls-39,.cls-40{fill:#eff6f6;}.cls-41{clip-path:url(#clip-path-3);}.cls-43{fill:#4b45c4;}.cls-44{fill:#4888f9;}.cls-45{fill:#fffff7;}.cls-46,.cls-78{fill:#3d3292;}.cls-47{fill:#b879d9;}.cls-48{fill:url(#Áåçûìÿííûé_ãðàäèåíò_101);}.cls-49{fill:#ffc9ff;}.cls-50{fill:#f9b6ff;}.cls-52{fill:url(#Áåçûìÿííûé_ãðàäèåíò_1821-2);}.cls-53{fill:url(#Áåçûìÿííûé_ãðàäèåíò_1821-3);}.cls-54{fill:url(#Áåçûìÿííûé_ãðàäèåíò_1837);}.cls-55{fill:#3a1147;}.cls-56{fill:url(#Áåçûìÿííûé_ãðàäèåíò_3);}.cls-57{fill:url(#Áåçûìÿííûé_ãðàäèåíò_24);}.cls-58{fill:url(#Áåçûìÿííûé_ãðàäèåíò_24-2);}.cls-59{fill:#a35dd4;}.cls-60{fill:url(#Áåçûìÿííûé_ãðàäèåíò_3-2);}.cls-61{fill:url(#Áåçûìÿííûé_ãðàäèåíò_8);}.cls-62{fill:url(#Áåçûìÿííûé_ãðàäèåíò_48);}.cls-63,.cls-81{fill:#ffffd7;}.cls-64{fill:#9f52d8;}.cls-65{fill:url(#Áåçûìÿííûé_ãðàäèåíò_208);}.cls-66{fill:url(#Áåçûìÿííûé_ãðàäèåíò_208-2);}.cls-67{fill:url(#Áåçûìÿííûé_ãðàäèåíò_208-3);}.cls-68{fill:url(#Áåçûìÿííûé_ãðàäèåíò_222);}.cls-69{fill:url(#Áåçûìÿííûé_ãðàäèåíò_208-4);}.cls-70{fill:url(#Áåçûìÿííûé_ãðàäèåíò_222-2);}.cls-71{fill:url(#Áåçûìÿííûé_ãðàäèåíò_208-5);}.cls-72{fill:url(#Áåçûìÿííûé_ãðàäèåíò_222-3);}.cls-73{fill:url(#Áåçûìÿííûé_ãðàäèåíò_118);}.cls-74{fill:url(#Áåçûìÿííûé_ãðàäèåíò_222-4);}.cls-75{fill:#a85bdb;}.cls-76{fill:url(#Áåçûìÿííûé_ãðàäèåíò_118-2);}.cls-77{fill:#fff;}.cls-79{fill:#8e8e8e;}.cls-80{fill:#f7f7f7;}</style><linearGradient id="Áåçûìÿííûé_ãðàäèåíò_1832" x1="65.12" y1="127.61" x2="157.91" y2="127.61" gradientTransform="matrix(-1, 0, 0, 1, 307.82, 0)" gradientUnits="userSpaceOnUse"><stop offset="0" stop-color="#8b3dce"/><stop offset="1" stop-color="#cb89f0"/></linearGradient><linearGradient id="Áåçûìÿííûé_ãðàäèåíò_1832-2" x1="63.64" y1="155.84" x2="65.79" y2="155.84" xlink:href="#Áåçûìÿííûé_ãðàäèåíò_1832"/><linearGradient id="Áåçûìÿííûé_ãðàäèåíò_1832-3" x1="150.1" y1="251.99" x2="156.54" y2="251.99" xlink:href="#Áåçûìÿííûé_ãðàäèåíò_1832"/><linearGradient id="Áåçûìÿííûé_ãðàäèåíò_1821" x1="86.1" y1="231.47" x2="245.95" y2="231.47" gradientTransform="matrix(-1, 0, 0, 1, 307.82, 0)" gradientUnits="userSpaceOnUse"><stop offset="0" stop-color="#f5abff"/><stop offset="0.46" stop-color="#ffc5ff"/><stop offset="1" stop-color="#ffdeff"/></linearGradient><clipPath id="clip-path"><path class="cls-1" d="M175.54,268.7l-3.66,2.11c-.42.25-.77.1-.77-.33a1.59,1.59,0,0,1,.78-1.21l3.65-2.11c.43-.24.77-.1.77.33A1.6,1.6,0,0,1,175.54,268.7Z"/></clipPath><linearGradient id="Áåçûìÿííûé_ãðàäèåíò_108" x1="268.3" y1="207.26" x2="260.05" y2="207.26" gradientTransform="matrix(-1, 0, 0, 1, 307.82, 0)" gradientUnits="userSpaceOnUse"><stop offset="0" stop-color="#cb89f0"/><stop offset="1" stop-color="#8b3dce"/></linearGradient><linearGradient id="Áåçûìÿííûé_ãðàäèåíò_1847" x1="208.65" y1="192.44" x2="211.44" y2="197.28" gradientTransform="matrix(-1, 0, 0, 1, 307.82, 0)" gradientUnits="userSpaceOnUse"><stop offset="0.62" stop-color="#ffbfff"/><stop offset="0.86" stop-color="#e09cff"/><stop offset="1" stop-color="#cb89f0"/></linearGradient><linearGradient id="Áåçûìÿííûé_ãðàäèåíò_1847-2" x1="214.81" y1="196.66" x2="216.44" y2="199.49" xlink:href="#Áåçûìÿííûé_ãðàäèåíò_1847"/><clipPath id="clip-path-2"><path class="cls-2" d="M20.43,213.08l1.51.87c.18.1.32,0,.32-.13a.66.66,0,0,0-.32-.51l-1.51-.87c-.18-.1-.32,0-.32.14A.65.65,0,0,0,20.43,213.08Z"/></clipPath><linearGradient id="Áåçûìÿííûé_ãðàäèåíò_1832-4" x1="88.06" y1="276.12" x2="95.48" y2="276.12" xlink:href="#Áåçûìÿííûé_ãðàäèåíò_1832"/><linearGradient id="Áåçûìÿííûé_ãðàäèåíò_1847-3" x1="49.9" y1="265.87" x2="52.36" y2="270.13" xlink:href="#Áåçûìÿííûé_ãðàäèåíò_1847"/><linearGradient id="Áåçûìÿííûé_ãðàäèåíò_1847-4" x1="55.18" y1="268.92" x2="57.63" y2="273.18" xlink:href="#Áåçûìÿííûé_ãðàäèåíò_1847"/><clipPath id="clip-path-3"><path class="cls-3" d="M201.65,282.85l2.45,1.42c.29.16.52.06.52-.22a1.07,1.07,0,0,0-.52-.82l-2.45-1.41c-.29-.17-.52-.07-.52.22A1.06,1.06,0,0,0,201.65,282.85Z"/></clipPath><linearGradient id="Áåçûìÿííûé_ãðàäèåíò_101" x1="-1117.96" y1="280.3" x2="-1115.51" y2="284.53" gradientTransform="translate(1364.53)" gradientUnits="userSpaceOnUse"><stop offset="0" stop-color="#1c1e29"/><stop offset="0.52" stop-color="#252734"/><stop offset="0.76" stop-color="#1c1e29"/><stop offset="0.85" stop-color="#181a23"/></linearGradient><linearGradient id="Áåçûìÿííûé_ãðàäèåíò_1821-2" x1="-400.69" y1="273.29" x2="-387.62" y2="273.29" gradientTransform="translate(653.8)" xlink:href="#Áåçûìÿííûé_ãðàäèåíò_1821"/><linearGradient id="Áåçûìÿííûé_ãðàäèåíò_1821-3" x1="145.21" y1="272.58" x2="173.67" y2="272.58" xlink:href="#Áåçûìÿííûé_ãðàäèåíò_1821"/><linearGradient id="Áåçûìÿííûé_ãðàäèåíò_1837" x1="146.71" y1="272.58" x2="172.17" y2="272.58" gradientTransform="matrix(-1, 0, 0, 1, 307.82, 0)" gradientUnits="userSpaceOnUse"><stop offset="0" stop-color="#b879d9"/><stop offset="1" stop-color="#8b3dce"/></linearGradient><linearGradient id="Áåçûìÿííûé_ãðàäèåíò_3" x1="145.21" y1="288.52" x2="173.67" y2="288.52" gradientTransform="matrix(-1, 0, 0, 1, 307.82, 0)" gradientUnits="userSpaceOnUse"><stop offset="0" stop-color="#8b3dce"/><stop offset="1" stop-color="#b879d9"/></linearGradient><linearGradient id="Áåçûìÿííûé_ãðàäèåíò_24" x1="155.72" y1="288.49" x2="172.64" y2="288.49" gradientTransform="matrix(-1, 0, 0, 1, 307.82, 0)" gradientUnits="userSpaceOnUse"><stop offset="0" stop-color="#9246d0"/><stop offset="0.31" stop-color="#bd78e3"/><stop offset="0.62" stop-color="#e1a2f2"/><stop offset="0.86" stop-color="#f7bcfb"/><stop offset="1" stop-color="#ffc5ff"/></linearGradient><linearGradient id="Áåçûìÿííûé_ãðàäèåíò_24-2" x1="160.58" y1="286.68" x2="173.71" y2="286.68" xlink:href="#Áåçûìÿííûé_ãðàäèåíò_24"/><linearGradient id="Áåçûìÿííûé_ãðàäèåíò_3-2" x1="144.8" y1="299.9" x2="150.94" y2="271.39" xlink:href="#Áåçûìÿííûé_ãðàäèåíò_3"/><linearGradient id="Áåçûìÿííûé_ãðàäèåíò_8" x1="148.3" y1="279.31" x2="141.9" y2="293.26" gradientTransform="matrix(-1, 0, 0, 1, 307.82, 0)" gradientUnits="userSpaceOnUse"><stop offset="0" stop-color="#f6afff"/><stop offset="1" stop-color="#b879d9"/></linearGradient><linearGradient id="Áåçûìÿííûé_ãðàäèåíò_48" x1="146.94" y1="299.25" x2="150.17" y2="283.59" gradientTransform="matrix(-1, 0, 0, 1, 307.82, 0)" gradientUnits="userSpaceOnUse"><stop offset="0" stop-color="#b26ddb"/><stop offset="1" stop-color="#d490eb"/></linearGradient><linearGradient id="Áåçûìÿííûé_ãðàäèåíò_208" x1="214.86" y1="6.11" x2="206.31" y2="20.92" gradientTransform="matrix(-1, 0, 0, 1, 341.63, 0)" gradientUnits="userSpaceOnUse"><stop offset="0" stop-color="#ffd2ff"/><stop offset="0.2" stop-color="#ffcaff"/><stop offset="0.48" stop-color="#ffc5ff"/><stop offset="1" stop-color="#f5abff"/></linearGradient><linearGradient id="Áåçûìÿííûé_ãðàäèåíò_208-2" x1="193.85" y1="12.23" x2="190.4" y2="18.21" xlink:href="#Áåçûìÿííûé_ãðàäèåíò_208"/><linearGradient id="Áåçûìÿííûé_ãðàäèåíò_208-3" x1="176.46" y1="3.43" x2="158.41" y2="34.7" xlink:href="#Áåçûìÿííûé_ãðàäèåíò_208"/><linearGradient id="Áåçûìÿííûé_ãðàäèåíò_222" x1="127.55" y1="19.34" x2="120.16" y2="32.14" gradientTransform="matrix(-1, 0, 0, 1, 307.82, 0)" gradientUnits="userSpaceOnUse"><stop offset="0" stop-color="#c579e9"/><stop offset="1" stop-color="#8b3dce"/></linearGradient><linearGradient id="Áåçûìÿííûé_ãðàäèåíò_208-4" x1="151.49" y1="30.63" x2="132.44" y2="63.61" xlink:href="#Áåçûìÿííûé_ãðàäèåíò_208"/><linearGradient id="Áåçûìÿííûé_ãðàäèåíò_222-2" x1="104.87" y1="47.93" x2="96.52" y2="62.4" xlink:href="#Áåçûìÿííûé_ãðàäèåíò_222"/><linearGradient id="Áåçûìÿííûé_ãðàäèåíò_208-5" x1="131.1" y1="62.76" x2="109.01" y2="101.01" xlink:href="#Áåçûìÿííûé_ãðàäèåíò_208"/><linearGradient id="Áåçûìÿííûé_ãðàäèåíò_222-3" x1="83.77" y1="86.84" x2="75.49" y2="101.18" xlink:href="#Áåçûìÿííûé_ãðàäèåíò_222"/><linearGradient id="Áåçûìÿííûé_ãðàäèåíò_118" x1="-559.93" y1="26.81" x2="-590.25" y2="79.32" gradientTransform="translate(744.5)" gradientUnits="userSpaceOnUse"><stop offset="0" stop-color="#cb89f0"/><stop offset="1" stop-color="#b973e6"/></linearGradient><linearGradient id="Áåçûìÿííûé_ãðàäèåíò_222-4" x1="126.6" y1="122.87" x2="146.34" y2="65.78" xlink:href="#Áåçûìÿííûé_ãðàäèåíò_222"/><linearGradient id="Áåçûìÿííûé_ãðàäèåíò_118-2" x1="157.72" y1="33.48" x2="150.75" y2="93.03" gradientTransform="matrix(-1, 0, 0, 1, 307.82, 0)" xlink:href="#Áåçûìÿííûé_ãðàäèåíò_118"/></defs><title>Asset 3</title><g class="cls-4"><g id="Layer_2" data-name="Layer 2"><g id="_0" data-name="0"><g id="_1" data-name="1"><path class="cls-5" d="M62,225.65l75.31-41.11L197.06,219l19.52-22.9,91.24,51.46-2.65,1.53h-89l-55.05,31.79c-.87.5-6,.5-6.92,0L62,227.66A1.16,1.16,0,0,1,62,225.65Z"/><g class="cls-4"><path class="cls-6" d="M150.59,101.2a1.69,1.69,0,0,1,1.19.22l90.92,52.5-.67.13-90.93-52.5a1.73,1.73,0,0,0-1.19-.22Z"/><path class="cls-7" d="M223.45,239l20-81.2.68-.14-20,81.2a2,2,0,0,1-1.45,1.62l-.67.14A2,2,0,0,0,223.45,239Z"/><path class="cls-8" d="M242,154.05l.67-.13a3.51,3.51,0,0,1,1.39,3.71l-.68.14A3.51,3.51,0,0,0,242,154.05Z"/><path class="cls-9" d="M128.5,184.15l20-81.2c.35-1.41,1.53-2,2.64-1.4L242,154.05a3.51,3.51,0,0,1,1.38,3.72l-20,81.2c-.35,1.41-1.53,2-2.64,1.4l-90.93-52.5A3.5,3.5,0,0,1,128.5,184.15Z"/><polygon class="cls-10" points="132.42 177.94 150.61 103.95 241.4 156.37 223.18 230.34 132.42 177.94"/></g><g class="cls-4"><path class="cls-11" d="M221.72,239.28v2.53a1.42,1.42,0,0,1-.83,1.16l-63.85,36.87a4.45,4.45,0,0,1-4,0L62.7,227.34a1.39,1.39,0,0,1-.82-1.15v-2.52Z"/><path class="cls-12" d="M62.71,222.5l63.85-36.87a4.41,4.41,0,0,1,4,0l90.34,52.5a1.23,1.23,0,0,1,0,2.32L157,277.32a4.45,4.45,0,0,1-4,0l-90.33-52.5A1.23,1.23,0,0,1,62.71,222.5Z"/></g><path class="cls-1" d="M136.23,197.34l-3.55,2.06a1.7,1.7,0,0,1-1.49,0L127,197a.47.47,0,0,1-.28-.51.33.33,0,0,1,0-.14.33.33,0,0,1,0-.14.47.47,0,0,1,.28-.51l3.56-2a1.61,1.61,0,0,1,1.48,0l4.23,2.44a.49.49,0,0,1,.29.5.38.38,0,0,1,0,.15.33.33,0,0,1,0,.14A.47.47,0,0,1,136.23,197.34Zm-6.54-4.44a.33.33,0,0,0,0-.14.38.38,0,0,0,0-.15.47.47,0,0,0-.28-.5l-4.23-2.44a1.63,1.63,0,0,0-1.49,0l-3.55,2.05a.47.47,0,0,0-.29.5.38.38,0,0,0,0,.15.33.33,0,0,0,0,.14.48.48,0,0,0,.29.51l4.22,2.44a1.7,1.7,0,0,0,1.49,0l3.56-2.06A.47.47,0,0,0,129.69,192.9Zm13.65,7.88a.33.33,0,0,0,0-.14.33.33,0,0,0,0-.14.47.47,0,0,0-.28-.51l-4.23-2.44a1.7,1.7,0,0,0-1.49,0l-3.55,2.06a.47.47,0,0,0-.29.5.33.33,0,0,0,0,.14.38.38,0,0,0,0,.15.49.49,0,0,0,.29.5l4.22,2.44a1.63,1.63,0,0,0,1.49,0l3.56-2.05A.47.47,0,0,0,143.34,200.78Zm51.36,43.94a.38.38,0,0,0,0-.15.33.33,0,0,0,0-.14.47.47,0,0,0-.28-.5l-4.23-2.44a1.63,1.63,0,0,0-1.49,0l-3.56,2a.47.47,0,0,0-.28.5.33.33,0,0,0,0,.14.38.38,0,0,0,0,.15.47.47,0,0,0,.28.5l4.23,2.44a1.63,1.63,0,0,0,1.49,0l3.56-2.05A.47.47,0,0,0,194.7,244.72Zm-14.9-22.93a.33.33,0,0,0,0-.14.38.38,0,0,0,0-.15.47.47,0,0,0-.28-.5l-4.23-2.44a1.63,1.63,0,0,0-1.49,0l-3.56,2.05a.48.48,0,0,0-.28.51.33.33,0,0,0,0,.14.33.33,0,0,0,0,.14.48.48,0,0,0,.28.51l4.23,2.44a1.7,1.7,0,0,0,1.49,0l3.56-2.06A.47.47,0,0,0,179.8,221.79Zm-13.65-7.88a.33.33,0,0,0,0-.14.38.38,0,0,0,0-.15c0-.18-.05-.36-.29-.5l-4.22-2.44a1.63,1.63,0,0,0-1.49,0l-3.56,2a.47.47,0,0,0-.28.5.38.38,0,0,0,0,.15.33.33,0,0,0,0,.14.47.47,0,0,0,.28.5l4.23,2.44a1.63,1.63,0,0,0,1.49,0l3.55-2.05C166.1,214.27,166.19,214.09,166.15,213.91ZM152.5,206a.38.38,0,0,0,0-.15.33.33,0,0,0,0-.14.48.48,0,0,0-.29-.5l-6.43-3.71a1.61,1.61,0,0,0-1.48,0l-3.56,2.05a.46.46,0,0,0-.28.5.38.38,0,0,0,0,.15.33.33,0,0,0,0,.14.46.46,0,0,0,.28.5l6.43,3.71a1.63,1.63,0,0,0,1.49,0l3.55-2.05A.48.48,0,0,0,152.5,206Zm6.82,3.94a.38.38,0,0,0,0-.15.33.33,0,0,0,0-.14.46.46,0,0,0-.28-.5l-4.23-2.44a1.63,1.63,0,0,0-1.49,0l-3.55,2a.48.48,0,0,0-.29.5.38.38,0,0,0,0,.15.33.33,0,0,0,0,.14.47.47,0,0,0,.29.5l4.23,2.44a1.61,1.61,0,0,0,1.48,0l3.56-2.05A.46.46,0,0,0,159.32,210ZM173,217.85a.33.33,0,0,0,0-.14.38.38,0,0,0,0-.15.46.46,0,0,0-.28-.5l-4.23-2.44a1.63,1.63,0,0,0-1.49,0l-3.55,2a.46.46,0,0,0-.28.5.38.38,0,0,0,0,.15.33.33,0,0,0,0,.14.45.45,0,0,0,.28.5l4.23,2.45a1.67,1.67,0,0,0,1.48,0l3.56-2.06A.45.45,0,0,0,173,217.85Zm-29-9.53a.33.33,0,0,0,0-.14.38.38,0,0,0,0-.15c0-.18-.05-.36-.29-.5l-4.22-2.44a1.63,1.63,0,0,0-1.49,0l-3.56,2a.48.48,0,0,0-.28.51.33.33,0,0,0,0,.14.33.33,0,0,0,0,.14.48.48,0,0,0,.28.51l4.23,2.44a1.7,1.7,0,0,0,1.49,0l3.55-2.06A.46.46,0,0,0,143.94,208.32Zm54.61,31.53a.33.33,0,0,0,0-.14.38.38,0,0,0,0-.15.48.48,0,0,0-.29-.5L194,236.62a1.61,1.61,0,0,0-1.48,0l-3.56,2a.46.46,0,0,0-.28.5.38.38,0,0,0,0,.15.33.33,0,0,0,0,.14.45.45,0,0,0,.28.5l4.23,2.44a1.63,1.63,0,0,0,1.49,0l3.55-2.05A.48.48,0,0,0,198.55,239.85Zm-47.79-27.59a.33.33,0,0,0,0-.14.38.38,0,0,0,0-.15.46.46,0,0,0-.28-.5L146.25,209a1.61,1.61,0,0,0-1.48,0l-3.56,2.05a.47.47,0,0,0-.28.51.33.33,0,0,0,0,.14.33.33,0,0,0,0,.14.47.47,0,0,0,.28.51l4.23,2.44a1.67,1.67,0,0,0,1.48,0l3.56-2.06A.45.45,0,0,0,150.76,212.26Zm6.83,3.94a.33.33,0,0,0,0-.14.33.33,0,0,0,0-.14.48.48,0,0,0-.28-.51L153.08,213a1.7,1.7,0,0,0-1.49,0L148,215a.46.46,0,0,0-.29.5.33.33,0,0,0,0,.14.38.38,0,0,0,0,.15.47.47,0,0,0,.29.5l4.22,2.44a1.63,1.63,0,0,0,1.49,0l3.56-2A.48.48,0,0,0,157.59,216.2Zm6.83,4a.38.38,0,0,0,0-.15.33.33,0,0,0,0-.14.49.49,0,0,0-.29-.51l-4.23-2.44a1.67,1.67,0,0,0-1.48,0L154.86,219a.45.45,0,0,0-.28.5.33.33,0,0,0,0,.14.38.38,0,0,0,0,.15.46.46,0,0,0,.28.5l4.23,2.44a1.63,1.63,0,0,0,1.49,0l3.55-2A.49.49,0,0,0,164.42,220.15Zm27.3,15.76a.38.38,0,0,0,0-.15.33.33,0,0,0,0-.14.47.47,0,0,0-.28-.5l-4.23-2.44a1.63,1.63,0,0,0-1.49,0l-3.56,2a.47.47,0,0,0-.28.5.38.38,0,0,0,0,.15.33.33,0,0,0,0,.14.47.47,0,0,0,.28.5l4.23,2.44a1.63,1.63,0,0,0,1.49,0l3.56-2.05A.47.47,0,0,0,191.72,235.91ZM184.89,232a.38.38,0,0,0,0-.15.33.33,0,0,0,0-.14.45.45,0,0,0-.28-.5c-5.81-3.36-4-3.41-9.27-.39a.46.46,0,0,0-.28.5.19.19,0,0,0,0,.15.17.17,0,0,0,0,.14.46.46,0,0,0,.28.5l4.23,2.44a1.61,1.61,0,0,0,1.48,0l3.56-2.05A.46.46,0,0,0,184.89,232ZM178.07,228a.38.38,0,0,0,0-.15.33.33,0,0,0,0-.14.46.46,0,0,0-.29-.5l-4.22-2.44a1.63,1.63,0,0,0-1.49,0l-3.56,2a.47.47,0,0,0-.28.5.33.33,0,0,0,0,.14.38.38,0,0,0,0,.15.47.47,0,0,0,.28.5l4.23,2.44a1.63,1.63,0,0,0,1.49,0l3.55-2.05C178,228.39,178.11,228.21,178.07,228Zm-6.83-3.94a.38.38,0,0,0,0-.15.33.33,0,0,0,0-.14.45.45,0,0,0-.28-.5l-4.23-2.45a1.7,1.7,0,0,0-1.49,0l-3.55,2.06a.47.47,0,0,0-.29.5.33.33,0,0,0,0,.14.38.38,0,0,0,0,.15.48.48,0,0,0,.29.5l4.23,2.44c.94.55,1.55,0,5-2A.46.46,0,0,0,171.24,224.09Zm12.17,27,6.43,3.71a1.7,1.7,0,0,0,1.49,0l3.55-2.06a.46.46,0,0,0,.29-.5.33.33,0,0,0,0-.14.38.38,0,0,0,0-.15.47.47,0,0,0-.29-.5l-6.42-3.71a1.63,1.63,0,0,0-1.49,0l-3.56,2.05a.47.47,0,0,0-.28.51.33.33,0,0,0,0,.14.33.33,0,0,0,0,.14A.47.47,0,0,0,183.41,251.07Zm8.56-2.3,4.23,2.44a1.63,1.63,0,0,0,1.49,0l3.55-2.05a.48.48,0,0,0,.29-.5.38.38,0,0,0,0-.15.33.33,0,0,0,0-.14.48.48,0,0,0-.29-.5L197,245.43a1.61,1.61,0,0,0-1.48,0l-3.56,2a.46.46,0,0,0-.28.5.38.38,0,0,0,0,.15.33.33,0,0,0,0,.14A.46.46,0,0,0,192,248.77Zm-5.34-23a.33.33,0,0,0,0-.14.38.38,0,0,0,0-.15.49.49,0,0,0-.29-.5l-4.23-2.44a1.61,1.61,0,0,0-1.48,0l-3.56,2.05a.47.47,0,0,0-.28.51.33.33,0,0,0,0,.14.33.33,0,0,0,0,.14.47.47,0,0,0,.28.51c5.92,3.41,4.15,3.34,9.27.38A.47.47,0,0,0,186.63,225.73Zm-71.53-14,4.23,2.44a1.7,1.7,0,0,0,1.49,0l3.55-2.06a.47.47,0,0,0,.29-.5.33.33,0,0,0,0-.14.38.38,0,0,0,0-.15.48.48,0,0,0-.29-.5l-4.22-2.44a1.63,1.63,0,0,0-1.49,0l-3.56,2a.46.46,0,0,0-.28.5.38.38,0,0,0,0,.15.33.33,0,0,0,0,.14A.47.47,0,0,0,115.1,211.69Zm80.72,32.21,6.43,3.72a1.67,1.67,0,0,0,1.48,0l3.56-2.06a.45.45,0,0,0,.28-.5.33.33,0,0,0,0-.14.38.38,0,0,0,0-.15.46.46,0,0,0-.28-.5l-6.43-3.71a1.63,1.63,0,0,0-1.49,0l-3.55,2.05a.49.49,0,0,0-.29.5.38.38,0,0,0,0,.15.33.33,0,0,0,0,.14A.47.47,0,0,0,195.82,243.9Zm-2.37-14.23a.33.33,0,0,0,0-.14.33.33,0,0,0,0-.14.47.47,0,0,0-.28-.51l-4.23-2.44a1.7,1.7,0,0,0-1.49,0l-3.55,2.06a.47.47,0,0,0-.29.5.33.33,0,0,0,0,.14.38.38,0,0,0,0,.15.49.49,0,0,0,.29.5l4.22,2.44a1.63,1.63,0,0,0,1.49,0l3.56-2A.47.47,0,0,0,193.45,229.67Zm6.83,4a.38.38,0,0,0,0-.15.33.33,0,0,0,0-.14.49.49,0,0,0-.29-.51l-4.22-2.44a1.69,1.69,0,0,0-1.49,0l-3.56,2.06a.45.45,0,0,0-.28.5.33.33,0,0,0,0,.14.38.38,0,0,0,0,.15.46.46,0,0,0,.28.5l4.23,2.44a1.63,1.63,0,0,0,1.49,0l3.55-2A.49.49,0,0,0,200.28,233.62Zm4.09,8,4.23,2.44a1.63,1.63,0,0,0,1.49,0l3.56-2.05a.47.47,0,0,0,.28-.5.38.38,0,0,0,0-.15.33.33,0,0,0,0-.14.47.47,0,0,0-.28-.5l-4.23-2.44a1.63,1.63,0,0,0-1.49,0l-3.56,2a.47.47,0,0,0-.28.5.33.33,0,0,0,0,.14.38.38,0,0,0,0,.15A.47.47,0,0,0,204.37,241.61Zm2.73-4.05a.38.38,0,0,0,0-.15.33.33,0,0,0,0-.14.45.45,0,0,0-.28-.5l-4.23-2.45a1.7,1.7,0,0,0-1.49,0l-3.55,2.06a.47.47,0,0,0-.29.5.33.33,0,0,0,0,.14.38.38,0,0,0,0,.15.48.48,0,0,0,.29.5l4.23,2.44a1.61,1.61,0,0,0,1.48,0l3.56-2.05A.46.46,0,0,0,207.1,237.56ZM94.93,206.76a.33.33,0,0,0,0,.14.47.47,0,0,0,.28.51l4.23,2.44a1.7,1.7,0,0,0,1.49,0l3.55-2.06a.47.47,0,0,0,.29-.5.33.33,0,0,0,0-.14.38.38,0,0,0,0-.15.48.48,0,0,0-.29-.5l-4.23-2.44a1.61,1.61,0,0,0-1.48,0l-3.56,2.05a.47.47,0,0,0-.28.51A.33.33,0,0,0,94.93,206.76Zm26.77,8.05a.33.33,0,0,0,0,.14.38.38,0,0,0,0,.15.46.46,0,0,0,.28.5l4.23,2.44a1.63,1.63,0,0,0,1.49,0l3.55-2a.47.47,0,0,0,.28-.51.33.33,0,0,0,0-.14.38.38,0,0,0,0-.15.46.46,0,0,0-.28-.5L127,212.25a1.61,1.61,0,0,0-1.48,0L122,214.3A.47.47,0,0,0,121.7,214.81ZM108,207a.38.38,0,0,0,0,.15.33.33,0,0,0,0,.14.47.47,0,0,0,.29.5l4.22,2.45a1.69,1.69,0,0,0,1.49,0l3.56-2.06a.46.46,0,0,0,.28-.5.33.33,0,0,0,0-.14.38.38,0,0,0,0-.15.46.46,0,0,0-.28-.5l-4.23-2.44a1.63,1.63,0,0,0-1.49,0l-3.55,2A.48.48,0,0,0,108,207Zm27.36,15.74a.33.33,0,0,0,0,.14.38.38,0,0,0,0,.15.46.46,0,0,0,.28.5l4.23,2.44a1.63,1.63,0,0,0,1.49,0l3.55-2a.49.49,0,0,0,.29-.5.38.38,0,0,0,0-.15.33.33,0,0,0,0-.14.47.47,0,0,0-.29-.5l-4.23-2.45a1.67,1.67,0,0,0-1.48,0l-3.56,2.06A.45.45,0,0,0,135.35,222.69ZM110.72,202.9l-4.23-2.44a1.61,1.61,0,0,0-1.48,0l-3.56,2a.46.46,0,0,0-.28.5.38.38,0,0,0,0,.15.33.33,0,0,0,0,.14.45.45,0,0,0,.28.5l4.23,2.44a1.63,1.63,0,0,0,1.49,0l3.55-2.05a.48.48,0,0,0,.29-.5.33.33,0,0,0,0-.14.38.38,0,0,0,0-.15A.48.48,0,0,0,110.72,202.9Zm51.93,35.55a.38.38,0,0,0,0,.15.33.33,0,0,0,0,.14.46.46,0,0,0,.29.5l4.22,2.44a1.63,1.63,0,0,0,1.49,0l3.56-2.05a.47.47,0,0,0,.28-.5.33.33,0,0,0,0-.14.38.38,0,0,0,0-.15.47.47,0,0,0-.28-.5L168,235.9a1.63,1.63,0,0,0-1.49,0l-3.55,2C162.7,238.09,162.61,238.27,162.65,238.45ZM149,230.57a.33.33,0,0,0,0,.14.38.38,0,0,0,0,.15.47.47,0,0,0,.28.5l4.23,2.44a1.63,1.63,0,0,0,1.49,0l3.55-2.05c.24-.14.33-.32.29-.5a.38.38,0,0,0,0-.15.33.33,0,0,0,0-.14.46.46,0,0,0-.29-.5L154.33,228a1.63,1.63,0,0,0-1.49,0l-3.56,2A.47.47,0,0,0,149,230.57Zm6.83,3.94a.38.38,0,0,0,0,.15.33.33,0,0,0,0,.14.46.46,0,0,0,.28.5l4.23,2.44a1.61,1.61,0,0,0,1.48,0l3.56-2.05a.46.46,0,0,0,.28-.5.38.38,0,0,0,0-.15.33.33,0,0,0,0-.14.46.46,0,0,0-.28-.5L161.15,232a1.63,1.63,0,0,0-1.49,0l-3.55,2A.46.46,0,0,0,155.83,234.51Zm13.65,7.88a.38.38,0,0,0,0,.15.33.33,0,0,0,0,.14.45.45,0,0,0,.28.5l4.23,2.44a1.63,1.63,0,0,0,1.49,0l3.55-2.05a.48.48,0,0,0,.29-.5.33.33,0,0,0,0-.14.38.38,0,0,0,0-.15.48.48,0,0,0-.29-.5l-4.23-2.44a1.61,1.61,0,0,0-1.48,0l-3.56,2A.46.46,0,0,0,169.48,242.39Zm6.82,3.94a.38.38,0,0,0,0,.15.33.33,0,0,0,0,.14.47.47,0,0,0,.29.5l4.22,2.45a1.69,1.69,0,0,0,1.49,0l3.56-2.06a.45.45,0,0,0,.28-.5.33.33,0,0,0,0-.14.38.38,0,0,0,0-.15.46.46,0,0,0-.28-.5l-4.23-2.44a1.63,1.63,0,0,0-1.49,0l-3.55,2.05A.49.49,0,0,0,176.3,246.33Zm-34.13-19.7a.33.33,0,0,0,0,.14.38.38,0,0,0,0,.15.48.48,0,0,0,.29.5l4.23,2.44a1.61,1.61,0,0,0,1.48,0l3.56-2.05a.46.46,0,0,0,.28-.5.38.38,0,0,0,0-.15.33.33,0,0,0,0-.14.45.45,0,0,0-.28-.5l-4.23-2.44a1.63,1.63,0,0,0-1.49,0l-3.55,2A.48.48,0,0,0,142.17,226.63Zm-13.65-7.88a.33.33,0,0,0,0,.14.38.38,0,0,0,0,.15c0,.18,0,.36.29.5L133,222a1.63,1.63,0,0,0,1.49,0l3.56-2a.48.48,0,0,0,.28-.51.33.33,0,0,0,0-.14.33.33,0,0,0,0-.14.48.48,0,0,0-.28-.51l-4.23-2.44a1.7,1.7,0,0,0-1.49,0l-3.55,2.06A.46.46,0,0,0,128.52,218.75Zm37.14,28.5a.33.33,0,0,0,0,.14.33.33,0,0,0,0,.14.47.47,0,0,0,.28.51l4.23,2.44a1.7,1.7,0,0,0,1.49,0l3.55-2.06a.47.47,0,0,0,.29-.5.33.33,0,0,0,0-.14.38.38,0,0,0,0-.15.49.49,0,0,0-.29-.5L171,244.69a1.61,1.61,0,0,0-1.48,0l-3.56,2.05A.47.47,0,0,0,165.66,247.25Zm-6.83-3.94a.33.33,0,0,0,0,.14.33.33,0,0,0,0,.14.48.48,0,0,0,.28.51l4.23,2.44a1.7,1.7,0,0,0,1.49,0l3.56-2.06a.47.47,0,0,0,.28-.5.33.33,0,0,0,0-.14.38.38,0,0,0,0-.15.47.47,0,0,0-.28-.5l-4.23-2.44a1.63,1.63,0,0,0-1.49,0l-3.56,2.05A.48.48,0,0,0,158.83,243.31Zm13.65,7.88a.33.33,0,0,0,0,.14.38.38,0,0,0,0,.15.49.49,0,0,0,.29.5l4.22,2.44a1.63,1.63,0,0,0,1.49,0l3.56-2a.47.47,0,0,0,.28-.51.33.33,0,0,0,0-.14.33.33,0,0,0,0-.14.47.47,0,0,0-.28-.51l-4.23-2.44a1.7,1.7,0,0,0-1.49,0l-3.55,2.06A.47.47,0,0,0,172.48,251.19Zm6.83,3.94a.33.33,0,0,0,0,.14.38.38,0,0,0,0,.15.46.46,0,0,0,.28.5l4.23,2.44a1.63,1.63,0,0,0,1.49,0l3.55-2.05a.49.49,0,0,0,.29-.5.38.38,0,0,0,0-.15.33.33,0,0,0,0-.14.49.49,0,0,0-.29-.51l-4.22-2.44a1.69,1.69,0,0,0-1.49,0l-3.56,2.06A.45.45,0,0,0,179.31,255.13Zm-51.26-43.89a.38.38,0,0,0,0,.15.33.33,0,0,0,0,.14.47.47,0,0,0,.29.5l6.43,3.71a1.61,1.61,0,0,0,1.48,0l3.56-2.05a.46.46,0,0,0,.28-.5.33.33,0,0,0,0-.14.38.38,0,0,0,0-.15.46.46,0,0,0-.28-.5l-6.43-3.71a1.63,1.63,0,0,0-1.49,0l-3.55,2.05A.48.48,0,0,0,128.05,211.24Zm-12.33,7.17a.38.38,0,0,0,0,.15.33.33,0,0,0,0,.14.45.45,0,0,0,.28.5l6.43,3.71a1.63,1.63,0,0,0,1.49,0l3.55-2a.46.46,0,0,0,.28-.5.17.17,0,0,0,0-.14.2.2,0,0,0,0-.15.46.46,0,0,0-.28-.5L121,215.86a1.61,1.61,0,0,0-1.48,0l-3.56,2A.46.46,0,0,0,115.72,218.41Zm-14-7.85a.33.33,0,0,0,0,.14.38.38,0,0,0,0,.15.49.49,0,0,0,.29.5l4.22,2.44a1.69,1.69,0,0,0,1.49,0l3.56-2a.47.47,0,0,0,.28-.51.33.33,0,0,0,0-.14.38.38,0,0,0,0-.15.46.46,0,0,0-.28-.5L107.08,208a1.63,1.63,0,0,0-1.49,0L102,210.05A.49.49,0,0,0,101.75,210.56Zm6.83,3.94a.33.33,0,0,0,0,.14.38.38,0,0,0,0,.15.46.46,0,0,0,.28.5l4.23,2.44a1.63,1.63,0,0,0,1.49,0l3.55-2a.49.49,0,0,0,.29-.51.33.33,0,0,0,0-.14.33.33,0,0,0,0-.14.49.49,0,0,0-.29-.51l-4.22-2.44a1.69,1.69,0,0,0-1.49,0L108.86,214A.45.45,0,0,0,108.58,214.5Zm16,9.11a.33.33,0,0,0,0,.14.33.33,0,0,0,0,.14.48.48,0,0,0,.28.51l31.62,18.25a1.61,1.61,0,0,0,1.48,0l3.56-2.05a.47.47,0,0,0,.28-.51.33.33,0,0,0,0-.14.33.33,0,0,0,0-.14.47.47,0,0,0-.28-.51l-31.61-18.25a1.63,1.63,0,0,0-1.49,0l-3.56,2A.48.48,0,0,0,124.59,223.61Zm26.14.73a.33.33,0,0,0,0,.14.33.33,0,0,0,0,.14.48.48,0,0,0,.29.51l4.22,2.44a1.7,1.7,0,0,0,1.49,0l3.56-2.06a.47.47,0,0,0,.28-.5.33.33,0,0,0,0-.14.38.38,0,0,0,0-.15.47.47,0,0,0-.28-.5l-4.23-2.44a1.63,1.63,0,0,0-1.49,0L151,223.83A.48.48,0,0,0,150.73,224.34Zm6.83,3.94a.33.33,0,0,0,0,.14.38.38,0,0,0,0,.15.46.46,0,0,0,.28.5l4.23,2.44a1.63,1.63,0,0,0,1.49,0l3.55-2a.49.49,0,0,0,.29-.51.33.33,0,0,0,0-.14.38.38,0,0,0,0-.15.49.49,0,0,0-.29-.5l-4.23-2.44a1.61,1.61,0,0,0-1.48,0l-3.56,2.05A.47.47,0,0,0,157.56,228.28Zm-13.65-7.89a.38.38,0,0,0,0,.15.33.33,0,0,0,0,.14.45.45,0,0,0,.28.5l4.23,2.45a1.67,1.67,0,0,0,1.48,0l3.56-2.06a.45.45,0,0,0,.28-.5.33.33,0,0,0,0-.14.38.38,0,0,0,0-.15.46.46,0,0,0-.28-.5l-4.23-2.44a1.61,1.61,0,0,0-1.48,0l-3.56,2A.46.46,0,0,0,143.91,220.39Zm-20.73-24.68L119,193.26a1.67,1.67,0,0,0-1.48,0l-3.56,2.06a.45.45,0,0,0-.28.5.33.33,0,0,0,0,.14.38.38,0,0,0,0,.15.46.46,0,0,0,.28.5l4.23,2.44a1.63,1.63,0,0,0,1.49,0l3.55-2.05a.49.49,0,0,0,.29-.5.38.38,0,0,0,0-.15.33.33,0,0,0,0-.14A.47.47,0,0,0,123.18,195.71Zm13.9,20.74a.38.38,0,0,0,0,.15.33.33,0,0,0,0,.14.47.47,0,0,0,.28.5l4.23,2.44a1.63,1.63,0,0,0,1.49,0l3.55-2.05c.24-.14.33-.32.29-.5a.33.33,0,0,0,0-.14.38.38,0,0,0,0-.15c0-.18,0-.36-.29-.5l-4.22-2.44a1.63,1.63,0,0,0-1.49,0l-3.56,2A.47.47,0,0,0,137.08,216.45Zm27.3,15.77a.33.33,0,0,0,0,.14.38.38,0,0,0,0,.15.48.48,0,0,0,.29.5l4.23,2.44a1.61,1.61,0,0,0,1.48,0l3.56-2a.47.47,0,0,0,.28-.51.33.33,0,0,0,0-.14.33.33,0,0,0,0-.14.47.47,0,0,0-.28-.51l-4.23-2.44a1.7,1.7,0,0,0-1.49,0l-3.55,2.06A.47.47,0,0,0,164.38,232.22ZM178,240.1a.17.17,0,0,0,0,.14.19.19,0,0,0,0,.15.46.46,0,0,0,.28.5l4.23,2.44a1.61,1.61,0,0,0,1.48,0l3.56-2.05a.46.46,0,0,0,.28-.5.38.38,0,0,0,0-.15.33.33,0,0,0,0-.14.45.45,0,0,0-.28-.5l-4.23-2.45a1.69,1.69,0,0,0-1.49,0l-3.55,2.06A.46.46,0,0,0,178,240.1Zm-6.83-3.94a.33.33,0,0,0,0,.14.38.38,0,0,0,0,.15.47.47,0,0,0,.28.5l4.23,2.44a1.63,1.63,0,0,0,1.49,0l3.55-2a.47.47,0,0,0,.29-.5.38.38,0,0,0,0-.15.33.33,0,0,0,0-.14.46.46,0,0,0-.29-.5l-4.22-2.45a1.7,1.7,0,0,0-1.49,0l-3.56,2.06A.47.47,0,0,0,171.21,236.16Z"/><path class="cls-13" d="M204.37,240.13l3.56-2a1.63,1.63,0,0,1,1.49,0l4.23,2.44a.45.45,0,0,1,0,.86l-3.56,2.05a1.63,1.63,0,0,1-1.49,0L204.37,241A.45.45,0,0,1,204.37,240.13Zm-6.82-3.08,4.23,2.44a1.61,1.61,0,0,0,1.48,0l3.56-2.05a.45.45,0,0,0,0-.86l-4.23-2.44a1.63,1.63,0,0,0-1.49,0l-3.55,2.05A.45.45,0,0,0,197.55,237.05Zm-6.83-3.94,4.23,2.44a1.63,1.63,0,0,0,1.49,0L200,233.5a.45.45,0,0,0,0-.86l-4.22-2.44a1.63,1.63,0,0,0-1.49,0l-3.56,2.05A.45.45,0,0,0,190.72,233.11Zm-6.82-3.94,4.22,2.44a1.69,1.69,0,0,0,1.49,0l3.56-2.06a.45.45,0,0,0,0-.85l-4.23-2.45a1.7,1.7,0,0,0-1.49,0l-3.55,2.06A.45.45,0,0,0,183.9,229.17Zm-6.83-3.94,4.23,2.44a1.7,1.7,0,0,0,1.49,0l3.55-2.06a.45.45,0,0,0,0-.86l-4.23-2.44a1.67,1.67,0,0,0-1.48,0l-3.56,2.06A.45.45,0,0,0,177.07,225.23Zm-6.83-3.95,4.23,2.45a1.7,1.7,0,0,0,1.49,0l3.56-2.06a.45.45,0,0,0,0-.86l-4.23-2.44a1.7,1.7,0,0,0-1.49,0l-3.56,2.06A.45.45,0,0,0,170.24,221.28Zm-6.82-3.94,4.23,2.44a1.61,1.61,0,0,0,1.48,0l3.56-2.05a.45.45,0,0,0,0-.86l-4.23-2.44a1.63,1.63,0,0,0-1.49,0l-3.55,2A.45.45,0,0,0,163.42,217.34Zm-6.83-3.94,4.23,2.44a1.63,1.63,0,0,0,1.49,0l3.55-2.05a.45.45,0,0,0,0-.86l-4.22-2.44a1.63,1.63,0,0,0-1.49,0l-3.56,2A.45.45,0,0,0,156.59,213.4Zm-6.82-3.94L154,211.9a1.61,1.61,0,0,0,1.48,0l3.56-2.05a.45.45,0,0,0,0-.86l-4.23-2.44a1.63,1.63,0,0,0-1.49,0l-3.55,2A.45.45,0,0,0,149.77,209.46Zm-9-5.21,6.43,3.71a1.63,1.63,0,0,0,1.49,0l3.55-2.05a.45.45,0,0,0,0-.86l-6.43-3.71a1.61,1.61,0,0,0-1.48,0l-3.56,2A.45.45,0,0,0,140.74,204.25Zm-25.64,6.81,4.23,2.45a1.7,1.7,0,0,0,1.49,0l3.55-2.06a.45.45,0,0,0,0-.86l-4.22-2.44a1.69,1.69,0,0,0-1.49,0l-3.56,2.06A.45.45,0,0,0,115.1,211.06Zm-6.82-3.94,4.22,2.44a1.63,1.63,0,0,0,1.49,0l3.56-2.05a.45.45,0,0,0,0-.86l-4.23-2.44a1.63,1.63,0,0,0-1.49,0l-3.55,2A.45.45,0,0,0,108.28,207.12Zm-6.83-3.94,4.23,2.44a1.63,1.63,0,0,0,1.49,0l3.55-2.05a.45.45,0,0,0,0-.86l-4.23-2.44a1.61,1.61,0,0,0-1.48,0l-3.56,2A.45.45,0,0,0,101.45,203.18Zm7.41,11.49,4.23,2.44a1.63,1.63,0,0,0,1.49,0l3.55-2.05a.45.45,0,0,0,0-.86l-4.22-2.44a1.63,1.63,0,0,0-1.49,0l-3.56,2.05A.45.45,0,0,0,108.86,214.67ZM102,210.73l4.22,2.44a1.69,1.69,0,0,0,1.49,0l3.56-2.06a.45.45,0,0,0,0-.85l-4.23-2.45a1.7,1.7,0,0,0-1.49,0L102,209.87A.45.45,0,0,0,102,210.73Zm-6.83-3.95,4.23,2.45a1.7,1.7,0,0,0,1.49,0l3.55-2.06a.45.45,0,0,0,0-.86l-4.23-2.44a1.67,1.67,0,0,0-1.48,0l-3.56,2.06A.45.45,0,0,0,95.21,206.78Zm100.61,36.5,6.43,3.71a1.61,1.61,0,0,0,1.48,0l3.56-2.05a.45.45,0,0,0,0-.86l-6.43-3.71a1.63,1.63,0,0,0-1.49,0l-3.55,2A.45.45,0,0,0,195.82,243.28ZM189,239.34l4.23,2.44a1.63,1.63,0,0,0,1.49,0l3.55-2.05a.45.45,0,0,0,0-.86L194,236.43a1.61,1.61,0,0,0-1.48,0l-3.56,2A.45.45,0,0,0,189,239.34Zm-6.83-3.94,4.23,2.44a1.63,1.63,0,0,0,1.49,0l3.56-2.05a.45.45,0,0,0,0-.86l-4.23-2.44a1.63,1.63,0,0,0-1.49,0l-3.56,2A.45.45,0,0,0,182.16,235.4Zm-6.82-3.94,4.23,2.44a1.61,1.61,0,0,0,1.48,0l3.56-2.05a.45.45,0,0,0,0-.86l-4.23-2.44a1.63,1.63,0,0,0-1.49,0l-3.55,2A.45.45,0,0,0,175.34,231.46Zm-6.83-3.94,4.23,2.44a1.63,1.63,0,0,0,1.49,0l3.55-2.05a.45.45,0,0,0,0-.86l-4.22-2.44a1.63,1.63,0,0,0-1.49,0l-3.56,2A.45.45,0,0,0,168.51,227.52Zm-6.82-3.94,4.23,2.44a1.61,1.61,0,0,0,1.48,0L171,224a.45.45,0,0,0,0-.86l-4.23-2.44a1.63,1.63,0,0,0-1.49,0l-3.55,2.05A.45.45,0,0,0,161.69,223.58Zm-6.83-3.94,4.23,2.44a1.63,1.63,0,0,0,1.49,0l3.55-2.05a.45.45,0,0,0,0-.86l-4.23-2.44a1.61,1.61,0,0,0-1.48,0l-3.56,2.05A.45.45,0,0,0,154.86,219.64ZM148,215.7l4.22,2.44a1.7,1.7,0,0,0,1.49,0l3.56-2.06a.45.45,0,0,0,0-.85l-4.23-2.45a1.7,1.7,0,0,0-1.49,0L148,214.84C147.62,215.07,147.62,215.46,148,215.7Zm-6.83-3.94,4.23,2.44a1.67,1.67,0,0,0,1.48,0l3.56-2.06a.45.45,0,0,0,0-.85l-4.23-2.45a1.67,1.67,0,0,0-1.48,0l-3.56,2.06A.45.45,0,0,0,141.21,211.76Zm-6.83-3.95,4.23,2.45a1.7,1.7,0,0,0,1.49,0l3.55-2.06c.42-.23.42-.62,0-.86l-4.22-2.44a1.7,1.7,0,0,0-1.49,0L134.38,207A.45.45,0,0,0,134.38,207.81ZM192,248.15l4.23,2.44a1.63,1.63,0,0,0,1.49,0l3.55-2.05a.45.45,0,0,0,0-.86L197,245.24a1.61,1.61,0,0,0-1.48,0l-3.56,2A.45.45,0,0,0,192,248.15Zm-6.83-3.94,4.23,2.44a1.63,1.63,0,0,0,1.49,0l3.56-2.05a.45.45,0,0,0,0-.86l-4.23-2.44a1.63,1.63,0,0,0-1.49,0l-3.56,2A.45.45,0,0,0,185.14,244.21Zm-6.82-3.94,4.23,2.44a1.61,1.61,0,0,0,1.48,0l3.56-2.05a.45.45,0,0,0,0-.86l-4.23-2.44a1.63,1.63,0,0,0-1.49,0l-3.55,2A.45.45,0,0,0,178.32,240.27Zm-6.83-3.94,4.23,2.44a1.63,1.63,0,0,0,1.49,0l3.55-2.05a.45.45,0,0,0,0-.86l-4.22-2.44a1.63,1.63,0,0,0-1.49,0l-3.56,2.05A.45.45,0,0,0,171.49,236.33Zm8.1,19,4.23,2.44a1.63,1.63,0,0,0,1.49,0l3.55-2.05a.45.45,0,0,0,0-.86l-4.22-2.44a1.63,1.63,0,0,0-1.49,0l-3.56,2.05A.45.45,0,0,0,179.59,255.3Zm-6.82-3.94L177,253.8a1.69,1.69,0,0,0,1.49,0l3.56-2.06a.45.45,0,0,0,0-.85l-4.23-2.45a1.7,1.7,0,0,0-1.49,0l-3.55,2.06A.45.45,0,0,0,172.77,251.36Zm-6.83-3.94,4.23,2.44a1.7,1.7,0,0,0,1.49,0l3.55-2.06a.45.45,0,0,0,0-.86L171,244.5a1.67,1.67,0,0,0-1.48,0l-3.56,2.06A.45.45,0,0,0,165.94,247.42Zm-6.83-3.95,4.23,2.45a1.7,1.7,0,0,0,1.49,0l3.56-2.06a.45.45,0,0,0,0-.86l-4.23-2.44a1.7,1.7,0,0,0-1.49,0l-3.56,2.06A.45.45,0,0,0,159.11,243.47ZM116,218.58l6.43,3.71a1.63,1.63,0,0,0,1.49,0l3.55-2a.45.45,0,0,0,0-.86L121,215.67a1.61,1.61,0,0,0-1.48,0L116,217.72A.45.45,0,0,0,116,218.58Zm48.67,13.81,4.23,2.44a1.61,1.61,0,0,0,1.48,0l3.56-2.05a.45.45,0,0,0,0-.86l-4.23-2.44a1.63,1.63,0,0,0-1.49,0l-3.55,2.05A.45.45,0,0,0,164.67,232.39Zm-6.83-3.94,4.23,2.44a1.7,1.7,0,0,0,1.49,0l3.55-2.06a.45.45,0,0,0,0-.85l-4.23-2.45a1.67,1.67,0,0,0-1.48,0l-3.56,2.06A.45.45,0,0,0,157.84,228.45ZM151,224.5l4.22,2.45a1.7,1.7,0,0,0,1.49,0l3.56-2.06a.45.45,0,0,0,0-.86l-4.23-2.44a1.7,1.7,0,0,0-1.49,0L151,223.65C150.6,223.88,150.6,224.27,151,224.5Zm-6.83-3.94,4.23,2.44a1.61,1.61,0,0,0,1.48,0l3.56-2.05a.45.45,0,0,0,0-.86l-4.23-2.44a1.67,1.67,0,0,0-1.48,0l-3.56,2.06A.45.45,0,0,0,144.19,220.56Zm-6.83-3.94,4.23,2.44a1.63,1.63,0,0,0,1.49,0l3.55-2.05c.42-.24.42-.62,0-.86l-4.22-2.44a1.63,1.63,0,0,0-1.49,0l-3.56,2A.45.45,0,0,0,137.36,216.62Zm-9-5.21,6.43,3.71a1.61,1.61,0,0,0,1.48,0l3.56-2.05a.45.45,0,0,0,0-.86l-6.43-3.71a1.63,1.63,0,0,0-1.49,0l-3.55,2.05A.45.45,0,0,0,128.34,211.41Zm55.07,39,6.43,3.72a1.7,1.7,0,0,0,1.49,0l3.55-2.06c.42-.23.42-.62,0-.86l-6.42-3.71a1.7,1.7,0,0,0-1.49,0l-3.56,2.06A.45.45,0,0,0,183.41,250.44Zm-6.82-3.94,4.22,2.44a1.63,1.63,0,0,0,1.49,0l3.56-2.05a.45.45,0,0,0,0-.86l-4.23-2.44a1.7,1.7,0,0,0-1.49,0l-3.55,2.06A.45.45,0,0,0,176.59,246.5Zm-6.83-3.94L174,245a1.63,1.63,0,0,0,1.49,0L179,243a.45.45,0,0,0,0-.86l-4.23-2.44a1.61,1.61,0,0,0-1.48,0l-3.56,2A.45.45,0,0,0,169.76,242.56Zm-6.82-3.94,4.22,2.44a1.63,1.63,0,0,0,1.49,0l3.56-2.05a.45.45,0,0,0,0-.86L168,235.71a1.63,1.63,0,0,0-1.49,0l-3.55,2C162.52,238,162.52,238.38,162.94,238.62Zm-6.83-3.94,4.23,2.44a1.61,1.61,0,0,0,1.48,0l3.56-2.05a.45.45,0,0,0,0-.86l-4.23-2.44a1.63,1.63,0,0,0-1.49,0l-3.55,2A.45.45,0,0,0,156.11,234.68Zm-31.24-10.9L156.49,242a1.67,1.67,0,0,0,1.48,0l3.56-2.06a.45.45,0,0,0,0-.85l-31.61-18.26a1.7,1.7,0,0,0-1.49,0l-3.56,2.06A.45.45,0,0,0,124.87,223.78Zm24.41,7,4.23,2.44a1.63,1.63,0,0,0,1.49,0l3.55-2.05c.42-.24.42-.62,0-.86l-4.22-2.44a1.63,1.63,0,0,0-1.49,0l-3.56,2A.45.45,0,0,0,149.28,230.74Zm-6.82-3.94,4.23,2.44a1.61,1.61,0,0,0,1.48,0l3.56-2.05a.45.45,0,0,0,0-.86l-4.23-2.44a1.63,1.63,0,0,0-1.49,0l-3.55,2.05A.45.45,0,0,0,142.46,226.8Zm-6.83-3.94,4.23,2.44a1.63,1.63,0,0,0,1.49,0l3.55-2.05a.45.45,0,0,0,0-.86L140.67,220a1.61,1.61,0,0,0-1.48,0L135.63,222A.45.45,0,0,0,135.63,222.86Zm-6.82-3.94,4.22,2.44a1.63,1.63,0,0,0,1.49,0l3.56-2.05a.45.45,0,0,0,0-.86L133.85,216a1.63,1.63,0,0,0-1.49,0l-3.55,2.05A.45.45,0,0,0,128.81,218.92ZM122,215l4.23,2.44a1.69,1.69,0,0,0,1.49,0l3.55-2.06a.45.45,0,0,0,0-.85L127,212.06a1.67,1.67,0,0,0-1.48,0L122,214.12A.45.45,0,0,0,122,215Zm11.81-14.7,4.23,2.44a1.67,1.67,0,0,0,1.48,0l3.56-2.06a.45.45,0,0,0,0-.85l-4.23-2.45a1.7,1.7,0,0,0-1.49,0l-3.55,2.06A.45.45,0,0,0,133.79,200.28ZM127,196.34l4.23,2.44a1.7,1.7,0,0,0,1.49,0l3.55-2.06a.45.45,0,0,0,0-.86L132,193.42a1.67,1.67,0,0,0-1.48,0L127,195.48A.45.45,0,0,0,127,196.34Zm-6.82-4,4.22,2.45a1.7,1.7,0,0,0,1.49,0l3.56-2.06a.45.45,0,0,0,0-.86l-4.23-2.44a1.7,1.7,0,0,0-1.49,0l-3.55,2.06C119.72,191.77,119.72,192.16,120.14,192.39Zm-6.23,3.6,4.23,2.44a1.63,1.63,0,0,0,1.49,0l3.55-2.05a.45.45,0,0,0,0-.86L119,193.08a1.61,1.61,0,0,0-1.48,0l-3.56,2A.45.45,0,0,0,113.91,196Z"/><path class="cls-14" d="M95.66,239.09,127,257.2a2.86,2.86,0,0,0,2.55,0l20.79-12a.78.78,0,0,0,0-1.47L119,225.61a2.8,2.8,0,0,0-2.55,0l-20.79,12A.78.78,0,0,0,95.66,239.09Z"/><path class="cls-15" d="M150.37,244.1,119,226a2.8,2.8,0,0,0-2.55,0L95.66,238a1.07,1.07,0,0,0-.5.55c-.1-.33.07-.68.5-.93l20.79-12a2.8,2.8,0,0,1,2.55,0l31.37,18.11c.43.25.6.6.49.93A1,1,0,0,0,150.37,244.1Z"/><path class="cls-16" d="M126.56,188.49l.14.08,88.84,51.29,3-1.75-.14-.09-88.84-51.29Zm.38,0,2.65-1.53,88.59,51.15-2.64,1.53Z"/><path class="cls-1" d="M119.58,200l4.68-2.7a2,2,0,0,1,1.85,0l10.71,6.18a.59.59,0,0,1,.36.61.33.33,0,0,1,0,.14.38.38,0,0,1,0,.15.57.57,0,0,1-.36.6l-9.34,5.4a2.08,2.08,0,0,1-1.85,0l-17.77-10.26a.6.6,0,0,1-.35-.61.33.33,0,0,1,0-.14.38.38,0,0,1,0-.15.6.6,0,0,1,.35-.61l3.48-2a1.34,1.34,0,0,1,1.23,0l6,3.39A1.12,1.12,0,0,0,119.58,200Z"/><path class="cls-13" d="M107.86,198.45l3.48-2a1.34,1.34,0,0,1,1.23,0l6,3.4a1.15,1.15,0,0,0,1,0l4.68-2.7a2.08,2.08,0,0,1,1.85,0l10.71,6.19a.56.56,0,0,1,0,1.06l-9.34,5.39a2,2,0,0,1-1.85,0l-17.77-10.26A.56.56,0,0,1,107.86,198.45Z"/><path class="cls-1" d="M175.54,268.7l-3.66,2.11c-.42.25-.77.1-.77-.33a1.59,1.59,0,0,1,.78-1.21l3.65-2.11c.43-.24.77-.1.77.33A1.6,1.6,0,0,1,175.54,268.7Z"/><g class="cls-17"><path class="cls-18" d="M170.49,269.28l-.51.3,1.81,1,.51-.29Zm1.12-.64-.51.29,1.81,1,.51-.29Zm1.12-.65-.51.3,1.81,1,.51-.3Zm1.12-.64-.51.29,1.81,1,.5-.29Z"/></g><polygon class="cls-1" points="213.6 246.43 218.15 243.81 218.15 242.84 213.6 245.47 213.6 246.43"/><path class="cls-19" d="M171.49,152a10.05,10.05,0,0,1,2.8,2.46,4,4,0,0,1,5.35-.81,4.81,4.81,0,0,1,.6.4c1.17-3.66,4.59-5.1,7.88-3.21,3.1,1.79,5,5.93,4.64,9.69a6.39,6.39,0,0,1,2.68.87c3.46,2,5.52,6.78,4.79,10.92a6,6,0,0,1,2.42.81c3.45,2,5.43,6.87,4.44,10.92s-4.6,5.71-8,3.73L167.2,169.44c-4.09-2.36-6.45-8.17-5.27-13S167.39,149.64,171.49,152Z"/><path class="cls-10" d="M175,162.21l-1.38,5.62,20.4,11.77,1.38-5.61Zm.3.73,19.57,11.3-1.14,4.63-19.57-11.29Zm18.82,11.66-.77,3.15-14.09-8.12.77-3.15Zm1.54-8.13.34.2L195,171l-1.91-1.1.09-.36,1.57.9Zm-3.26-.35a1.76,1.76,0,0,1,.7,2.07l0,.14c-.21.82-.68,1.29-1.42.86a1.77,1.77,0,0,1-.7-2.08l0-.13C191.22,166.16,191.69,165.69,192.43,166.12Zm-1.11,1.18a1.28,1.28,0,0,0,.44,1.54c.5.29.83,0,1-.71l0-.13a1.27,1.27,0,0,0-.44-1.53c-.5-.29-.83,0-1,.7Zm-2.57-2.05c.16-.66.48-1,1.18-.58a1.28,1.28,0,0,1,.66,1.51v0l-.32-.18a.84.84,0,0,0-.41-1.05c-.44-.25-.64-.07-.77.44l0,.07.73.58a1.3,1.3,0,0,1,.6,1.37l0,.06a.56.56,0,0,1-.92.39,1.67,1.67,0,0,1-.77-1l-.15.38-.28-.15.24-.82Zm.05,1.36a1.31,1.31,0,0,0,.65.91c.33.19.54,0,.6-.23v0a.87.87,0,0,0-.37-.88l-.7-.56Zm-2-5.37.34.19-.46,1.84a.7.7,0,0,1,.81,0,1.7,1.7,0,0,1,.6,2l0,.14c-.2.82-.64,1.31-1.32.91a1.26,1.26,0,0,1-.63-.88l-.15.37-.28-.16.24-.82Zm-.58,3.9a1.23,1.23,0,0,0,.53.82c.48.28.81,0,1-.72l0-.13a1.27,1.27,0,0,0-.42-1.52.6.6,0,0,0-.76.09Zm-.1-3.95-.43-.25-.12.5.42.25Zm-.35,1.17-.33-.19-.72,3,.33.19Zm-3.1-.78-.51,2.07.33.19.49-2c.11-.45.38-.53.71-.34a1.26,1.26,0,0,1,.58.85l-.54,2.21.33.19.52-2.12.23-.82-.27-.15-.15.39a1.5,1.5,0,0,0-.73-1C183.18,160.78,182.82,161,182.69,161.58Zm-2.12-1.78a.68.68,0,0,1,.86,0,1.63,1.63,0,0,1,.63,1.92l0,.12c-.18.76-.62,1.21-1.3.82a1.27,1.27,0,0,1-.61-.8l-.14.55a1,1,0,0,0,.46,1.21c.47.27.72.09.85-.47l.32.19,0,.07c-.15.61-.52,1-1.24.54a1.41,1.41,0,0,1-.7-1.71l.52-2.15.18-.85.27.16Zm-.35,1.63a1.22,1.22,0,0,0,.53.82c.47.27.79,0,.94-.62l0-.12a1.19,1.19,0,0,0-.44-1.42.6.6,0,0,0-.75.08Zm-1.05-.09-.43-.25-.12.5.42.25Zm-1-.59-.42-.25-.13.5.43.25Zm-1.45-.84-.12.5.43.25.12-.5Z"/><path class="cls-20" d="M1.34,199.14l56.55-32.73a5.54,5.54,0,0,1,2.77-.67h3.62a5.63,5.63,0,0,1,2.76.66l39.61,22.82c1.54.89,1.55,2.34,0,3.23L50.13,225.18a5.63,5.63,0,0,1-2.6.67H43.77a5.71,5.71,0,0,1-2.8-.67L1.36,202.37C-.18,201.48-.19,200,1.34,199.14Z"/><path class="cls-10" d="M104.24,190,45.17,224.26,3.13,200c-1.08-.63-3-1.42-2-2L59.87,164a10.14,10.14,0,0,1,3.88.09l40.94,23.66C105.54,188.62,104.79,189.69,104.24,190Z"/><path class="cls-21" d="M0,199.37A2,2,0,0,0,1.17,201l39.61,22.82a6.14,6.14,0,0,0,5.57,0l57.88-33.5a2,2,0,0,0,1.15-1.61v1.36a2,2,0,0,1-1.15,1.61l-57.88,33.5a6.14,6.14,0,0,1-5.57,0L1.16,202.35A2,2,0,0,1,0,200.72Z"/><path class="cls-22" d="M1.17,201l39.61,22.82a6.14,6.14,0,0,0,5.57,0l57.88-33.5c1.54-.9,1.53-2.34,0-3.23L64.6,164.25a6.14,6.14,0,0,0-5.57,0L1.15,197.76C-.39,198.65-.38,200.1,1.17,201Zm44.74,21.79L2.84,198a.33.33,0,0,1,0-.57L59.1,164.84a5.36,5.36,0,0,1,5.34,0l39.81,22.93a1.07,1.07,0,0,1,0,1.86L47,222.78A1,1,0,0,1,45.91,222.78Z"/><path class="cls-7" d="M95.87,195.81l4.41-2.55c.21-.12.37,0,.37.22v.12a.82.82,0,0,1-.37.65l-4.41,2.55c-.2.12-.37,0-.37-.22v-.12A.84.84,0,0,1,95.87,195.81Z"/><path class="cls-23" d="M95.26,196.09a.9.9,0,0,1,.34-.44l4.4-2.55a.27.27,0,0,1,.27,0l.27.15a.28.28,0,0,0-.26,0l-4.41,2.55a.66.66,0,0,0-.21.2,1.12,1.12,0,0,0-.13.24.76.76,0,0,0,0,.21v.12a.27.27,0,0,0,.11.25l-.28-.16a.28.28,0,0,1-.11-.24v-.12A.85.85,0,0,1,95.26,196.09Z"/><path class="cls-24" d="M90.83,198.64a.92.92,0,0,1,.13-.24.57.57,0,0,1,.21-.2L93.26,197a.27.27,0,0,1,.27,0l.27.16a.25.25,0,0,0-.26,0l-2.09,1.21a.63.63,0,0,0-.21.19.85.85,0,0,0-.13.25.78.78,0,0,0,0,.21v.12a.26.26,0,0,0,.11.24l-.27-.15a.27.27,0,0,1-.11-.25v-.12A.76.76,0,0,1,90.83,198.64Z"/><path class="cls-7" d="M91.45,198.36l2.09-1.21c.21-.12.37,0,.37.22v.12a.82.82,0,0,1-.37.65l-2.09,1.21c-.21.12-.38,0-.38-.22V199A.81.81,0,0,1,91.45,198.36Z"/><polygon class="cls-22" points="74.7 172.06 89.05 180.35 91.26 180.14 75.06 170.78 74.7 172.06"/><path class="cls-25" d="M20.12,210.39l.75-.43a1.56,1.56,0,0,1,1.41,0L25,211.55a.8.8,0,0,1,.31.29.48.48,0,0,1-.22.69l-.74.43a1.58,1.58,0,0,1-1.42-.05l-2.67-1.54a.8.8,0,0,1-.31-.29A.48.48,0,0,1,20.12,210.39Z"/><path class="cls-22" d="M20.12,210.64l.75-.43a1.54,1.54,0,0,1,1.41.06L25,211.8a.8.8,0,0,1,.31.29.43.43,0,0,1,0,.13.57.57,0,0,1-.27.31l-.74.43a1.58,1.58,0,0,1-1.42-.05l-2.67-1.54a.8.8,0,0,1-.31-.29.69.69,0,0,1,0-.13A.57.57,0,0,1,20.12,210.64Z"/><path class="cls-26" d="M82.05,175.71a.93.93,0,0,0,.86,0,.26.26,0,0,0,0-.5.93.93,0,0,0-.86,0A.26.26,0,0,0,82.05,175.71Z"/><path class="cls-27" d="M82.79,175.65a.69.69,0,0,1-.64,0,.19.19,0,0,1,0-.36.72.72,0,0,1,.64,0C83,175.39,83,175.55,82.79,175.65Z"/><path class="cls-27" d="M82.66,175.55a.39.39,0,0,1-.35,0c-.09-.06-.09-.15,0-.2a.37.37,0,0,1,.34,0C82.76,175.41,82.75,175.5,82.66,175.55Z"/><path class="cls-28" d="M82.55,175.48a.15.15,0,0,1-.13,0,0,0,0,0,1,0-.07.15.15,0,0,1,.13,0S82.58,175.46,82.55,175.48Z"/><path class="cls-26" d="M76.46,171.79l2.76,1.6c.17.1.19.24,0,.33a.64.64,0,0,1-.57,0l-2.76-1.6c-.17-.1-.19-.25,0-.33A.64.64,0,0,1,76.46,171.79Z"/><path class="cls-26" d="M86.43,177.55l2.76,1.59c.17.1.19.25,0,.34a.64.64,0,0,1-.57,0l-2.76-1.59c-.17-.1-.19-.25-.05-.33A.63.63,0,0,1,86.43,177.55Z"/><path class="cls-2" d="M20.43,213.08l1.51.87c.18.1.32,0,.32-.13a.66.66,0,0,0-.32-.51l-1.51-.87c-.18-.1-.32,0-.32.14A.65.65,0,0,0,20.43,213.08Z"/><g class="cls-29"><path class="cls-30" d="M21.77,213.75l.21.12.75-.43-.21-.12Zm-.46-.27.21.12.74-.43-.21-.12Zm-.47-.26.21.12.75-.43-.21-.12Zm-.46-.27.21.12.75-.43-.21-.12Z"/></g><path class="cls-31" d="M48.42,183.12a4.9,4.9,0,0,1,1.66,1.5,7.88,7.88,0,0,1,5.38.62,4.15,4.15,0,0,1,.41.27,10.09,10.09,0,0,1,8.72.1c2.21,1.27,2.36,3.29.51,4.76a7.76,7.76,0,0,1,2.18.82c2.48,1.43,2.51,3.74.16,5.29a7.55,7.55,0,0,1,2,.76c2.46,1.42,2.38,3.76-.18,5.22a10,10,0,0,1-9.07.09L37.41,189.44c-2.93-1.68-2.83-4.47.21-6.21A12,12,0,0,1,48.42,183.12Z"/><path class="cls-10" d="M47.69,187.9l-3.54,2,14.56,8.41,3.54-2Zm0,.35,14,8.06L58.72,198l-14-8.06Z"/><polygon class="cls-10" points="50.73 190.53 48.75 191.66 58.81 197.47 60.8 196.33 50.73 190.53"/><path class="cls-10" d="M65.49,193.3l.25.14L63,195l-1.37-.78.23-.13,1.12.64Zm-2.93-.72c.53.3.35.67-.17,1l-.08.05a1.71,1.71,0,0,1-1.69.1c-.52-.3-.34-.67.18-1l.08-.05A1.69,1.69,0,0,1,62.56,192.58Zm-1.52.28c-.43.24-.55.5-.2.7a1.21,1.21,0,0,0,1.23-.11l.08,0c.43-.24.55-.49.19-.7a1.24,1.24,0,0,0-1.22.11Zm-1.61-1.29a1.26,1.26,0,0,1,1.35,0c.52.31.3.57,0,.75l-.23-.13c.24-.14.37-.3,0-.49a.8.8,0,0,0-.9,0l-.05,0,.46.37c.24.19.42.43,0,.68a1.05,1.05,0,0,1-1,0c-.31-.18-.38-.37-.33-.53l-.3.12-.2-.11.55-.29Zm-.5.56c0,.1-.08.29.26.48a.68.68,0,0,0,.69,0c.21-.12.18-.27,0-.42l-.44-.35Zm.29-2.53.23.13-1.16.67a1.24,1.24,0,0,1,.76.15c.49.28.27.63-.24.93l-.09.05a1.62,1.62,0,0,1-1.61.13c-.27-.15-.31-.33-.24-.47l-.29.13-.2-.12.55-.29Zm-2.11,1.48a.31.31,0,0,0,.17.43,1.2,1.2,0,0,0,1.2-.12l.09,0c.43-.25.54-.5.21-.69a1.2,1.2,0,0,0-.75-.1Zm1.47-1.62-.3-.18-.32.18.31.18Zm-.79.41-.23-.14-1.87,1.07.24.14ZM55.17,189l-1.3.75.23.14,1.27-.73a.77.77,0,0,1,.8,0c.28.16.26.33.21.45l-1.39.8.23.13,1.34-.77.55-.29-.2-.11-.3.13c.06-.15,0-.34-.3-.52A1.16,1.16,0,0,0,55.17,189Zm-1.29-1.1a1.32,1.32,0,0,1,.83.15c.48.28.29.62-.18.89l-.08,0a1.54,1.54,0,0,1-1.55.1c-.25-.14-.3-.29-.26-.43l-.35.2c-.34.19-.39.37,0,.57a.89.89,0,0,0,1,0l.23.14-.05,0a1.33,1.33,0,0,1-1.39,0c-.51-.29-.4-.58,0-.82l1.36-.78.5-.31.2.11Zm-1,.6c0,.11-.08.28.17.43a1.13,1.13,0,0,0,1.14-.09l.08,0c.38-.22.48-.46.14-.66a1.16,1.16,0,0,0-.74-.09Zm-1-.22-.3-.18-.32.18.31.18Zm-.73-.42-.3-.18-.32.18.3.18Zm-1-.6-.32.18.3.18.32-.19Z"/><path class="cls-32" d="M192.1,273.62,231.42,251a7.68,7.68,0,0,1,3.73-.91h4.7a7.83,7.83,0,0,1,3.94.91L264.73,263c2.09,1.21,2.1,3.18,0,4.39L225.44,290.1a7.77,7.77,0,0,1-3.87.91h-4.76a7.7,7.7,0,0,1-3.74-.91L192.13,278C190,276.8,190,274.84,192.1,273.62Z"/><path class="cls-32" d="M267.49,269.35c-1.4.35-28.83,17.21-34.83,21.14A76.18,76.18,0,0,0,225,295.9l-.16.15-1.13.9.11,0-.11,0a.54.54,0,0,0-.18.33c-.3.29-.88.83-1,1s-.21.18-.23.27a.22.22,0,0,0,.09.24c.11.06.23,0,.41,0l1.35-.42a.5.5,0,0,0,.34,0c.13-.05.13-.05,0,0l1.35-.56.2-.06.8-.31c1.08-.43,2.82-1.21,6.26-3,3.24-1.68,8-4.26,15.05-8.27.68-.39,23-13.6,23.65-14C273.33,271.25,269.1,268.42,267.49,269.35Z"/><path class="cls-10" d="M195.14,274.74l23,13.25a1.18,1.18,0,0,0,1.18,0l43-24.81a1.75,1.75,0,0,0,.57-2.9l-21.32-12.45a8.65,8.65,0,0,0-5.08-1.17,6.88,6.88,0,0,0-2,.51L194.1,270.36C192.4,271.34,193.45,273.76,195.14,274.74Z"/><path class="cls-33" d="M190.33,273.51a2.7,2.7,0,0,0,1.58,2.21l20.94,12.09a8.32,8.32,0,0,0,7.57,0l41.61-24a2.64,2.64,0,0,0,1.55-2.17v1.89A2.69,2.69,0,0,1,262,265.7l-41.61,24a8.32,8.32,0,0,1-7.57,0l-20.93-12.09a2.66,2.66,0,0,1-1.58-2.21Z"/><path class="cls-9" d="M191.91,275.72l20.94,12.09a8.32,8.32,0,0,0,7.57,0l41.61-24c2.08-1.21,2.07-3.17,0-4.38l-20.93-12.09a8.35,8.35,0,0,0-7.57,0l-41.61,24C189.8,272.55,189.82,274.51,191.91,275.72Zm28.15,11L194,271.6a.51.51,0,0,1,0-.88l39.85-23a6.84,6.84,0,0,1,6.81,0l2.95,1.71L245,252l8.71,5,3.83.45,4.78,2.76a1.48,1.48,0,0,1,0,2.57l-41.29,23.83A1,1,0,0,1,220.06,286.68Z"/><path class="cls-34" d="M201.24,279.9a1,1,0,0,0,.41.39l3.44,2a2,2,0,0,0,1.83.07l1-.55a.64.64,0,0,0,.29-.89,1.16,1.16,0,0,0-.41-.38l-3.44-2a2,2,0,0,0-1.84-.07l-1,.56A.62.62,0,0,0,201.24,279.9Z"/><g class="cls-35"><path class="cls-9" d="M201.53,279.37l1-.55a2,2,0,0,1,1.84.07l3.44,2a1.08,1.08,0,0,1,.41.38s0,.09,0,.14a.79.79,0,0,1-.34.39l-1,.55a2,2,0,0,1-1.83-.07l-3.44-2a1,1,0,0,1-.41-.39.58.58,0,0,1-.05-.14A.74.74,0,0,1,201.53,279.37Z"/></g><path class="cls-36" d="M248.35,252.38l4.26,2.46c.2.12.23.3,0,.4a.76.76,0,0,1-.7,0l-4.26-2.45c-.2-.12-.23-.3,0-.41A.79.79,0,0,1,248.35,252.38Z"/><path class="cls-37" d="M254.57,269a1.05,1.05,0,0,1,.15-.3.79.79,0,0,1,.27-.25l3.46-2a.33.33,0,0,1,.33,0l.34.19a.34.34,0,0,0-.33,0l-3.46,2a.88.88,0,0,0-.26.25,1.24,1.24,0,0,0-.16.3.86.86,0,0,0,0,.27v.15a.32.32,0,0,0,.14.3l-.34-.19a.33.33,0,0,1-.14-.31v-.15A.85.85,0,0,1,254.57,269Z"/><path class="cls-7" d="M255.33,268.59l3.46-2c.26-.15.47,0,.47.27V267a1,1,0,0,1-.47.82l-3.46,2c-.26.15-.47,0-.47-.27v-.15A1,1,0,0,1,255.33,268.59Z"/><path class="cls-38" d="M249.29,272a1.24,1.24,0,0,1,.16-.3.92.92,0,0,1,.27-.25l3.45-2a.34.34,0,0,1,.33,0l.35.2a.33.33,0,0,0-.33,0l-3.46,2a.91.91,0,0,0-.27.25,1.08,1.08,0,0,0-.16.3.82.82,0,0,0,0,.26v.15a.33.33,0,0,0,.14.31l-.35-.2a.34.34,0,0,1-.14-.3v-.15A.86.86,0,0,1,249.29,272Z"/><path class="cls-7" d="M250.06,271.64l3.46-2c.26-.15.47,0,.47.28v.15a1,1,0,0,1-.47.81l-3.46,2c-.26.15-.47,0-.47-.28v-.15A1,1,0,0,1,250.06,271.64Z"/><path class="cls-36" d="M254.24,256.58a.91.91,0,0,0,.85,0c.23-.14.23-.36,0-.49a.91.91,0,0,0-.85,0C254,256.22,254,256.44,254.24,256.58Z"/><path class="cls-39" d="M255,256.52a.67.67,0,0,1-.63,0c-.17-.1-.16-.26,0-.36a.67.67,0,0,1,.63,0C255.15,256.26,255.14,256.42,255,256.52Z"/><path class="cls-39" d="M254.83,256.42a.37.37,0,0,1-.34,0c-.09-.05-.09-.14,0-.2a.4.4,0,0,1,.34,0C254.93,256.28,254.93,256.37,254.83,256.42Z"/><path class="cls-40" d="M254.73,256.36a.15.15,0,0,1-.13,0,0,0,0,0,1,0-.07.15.15,0,0,1,.13,0A0,0,0,0,1,254.73,256.36Z"/><path class="cls-3" d="M201.65,282.85l2.45,1.42c.29.16.52.06.52-.22a1.07,1.07,0,0,0-.52-.82l-2.45-1.41c-.29-.17-.52-.07-.52.22A1.06,1.06,0,0,0,201.65,282.85Z"/><g class="cls-41"><path class="cls-18" d="M203.83,283.94l.34.2,1.21-.7-.34-.2Zm-.76-.43.35.2,1.21-.7-.34-.2Zm-.75-.43.35.19,1.21-.7-.34-.19Zm-.75-.44.34.2,1.22-.7-.35-.2Z"/></g><polygon class="cls-42" points="197.88 270.33 221.78 284.13 254.16 265.44 230.26 251.64 197.88 270.33"/><polygon class="cls-43" points="230.13 251.72 254.03 265.51 256.58 264.04 232.69 250.24 230.13 251.72"/><polygon class="cls-42" points="197.88 264.96 221.78 278.76 254.16 260.07 230.26 246.27 197.88 264.96"/><polygon class="cls-43" points="230.13 246.35 254.03 260.15 256.58 258.67 232.69 244.87 230.13 246.35"/><polygon class="cls-42" points="197.88 259.64 221.78 273.44 254.16 254.75 230.26 240.95 197.88 259.64"/><polygon class="cls-44" points="230.13 241.02 254.03 254.82 256.58 253.34 232.69 239.54 230.13 241.02"/><path class="cls-45" d="M217.61,252.46l2.14,1.24-.29.16-2.14-1.23Zm-.65,1.28,2.37,1.37.29-.17-2.37-1.37Zm.37,1.53,1.85,1.07.29-.17-1.85-1.07Zm5.76.36L220,253.86l-.29.17,3.05,1.76Zm-3.47-.36,1.58.92.29-.17-1.58-.91ZM227,257.9l-3.65-2.11-.29.17,3.65,2.11Zm-5.54-1.55,3.61,2.09.28-.17-3.61-2.08Zm-2,.15,2,1.18.29-.17-2-1.17Zm4.2-1.85L220,252.52l-.29.17,3.68,2.12Zm-5.35-2.76,1.1.63.29-.16-1.1-.64Zm1.36,6.49,1.63.94.29-.17-1.63-.94Zm-7.19-2.84,2.32,1.34.28-.16-2.32-1.34Zm.9-.79,2,1.17.29-.16-2-1.18Zm3.62,3.41,3.06,1.76.28-.17-3-1.76Zm3.54,3-1.63-.95-.29.17,1.63.94Zm-5.46-4.14,1.64.94.28-.16-1.63-.95Zm-.43,1.07,3.68,2.12.29-.16L215,258Zm1.05-2,3.68,2.12.29-.16L216,255.92Zm8-1.11,1.64.94.28-.16-1.63-.95Zm0,5.68.29-.17-2-1.17-.29.17Zm-1.84-2.82,4.67,2.7.29-.16-4.68-2.7Zm3.59.76,4.62,2.67.29-.17-4.62-2.66Zm2.3,2.65.29-.17-.93-.54-.29.17Zm-11,2.68,4.68,2.7.29-.17-4.68-2.7Zm2.73,2.89.29-.17-3.61-2.08-.29.16Zm8.59-5.41,4.15,2.4.29-.16-4.15-2.4Zm-6.06,5.22-.29.16,2.64,1.53.29-.17Zm1.51,2.19-3.46-2-.29.16,3.46,2Zm11.26-6.5-3.46-2-.29.16,3.46,2Zm-4.09,2.36.29-.17-1.71-1-.29.17Zm0-4.36.29-.17-3.61-2.08-.29.16Zm2.91,2.66-3-1.71-.28.16,3,1.72Zm-5.64-5.89-2-1.17-.29.17,2,1.17Zm7.9,4.56-2.65-1.52-.28.16,2.64,1.53ZM232.88,260l-4.68-2.7-.29.17,4.68,2.7Zm-10,2.9,5.49,3.17.29-.17-5.49-3.17ZM211,256l3.39,2,.29-.16-3.4-2Zm.84,6.14-3.05-1.77-.29.17,3,1.76Zm-3.34-1.93L206.35,259l-.28.17,2.13,1.23Zm0-1.34-1.1-.64-.29.17,1.1.63ZM222,263.67l5.22,3,.28-.17-5.21-3Zm-13.11-5.88-1.39-.8-.28.16,1.38.8Zm9.2,5.64,7.37,4.26.29-.17-7.37-4.26Zm4.21,6.05-3-1.71-.29.16,3,1.72ZM219,267.6l-4.62-2.66-.29.16,4.62,2.67Zm-4.9-2.83-3.62-2.08-.28.16,3.61,2.09Zm-3.9-2.25-1.58-.91-.29.16,1.58.92Zm10.12-2.44L224,262.2l.29-.17-3.66-2.11Zm-8.52,2.38,3.66,2.11.28-.17-3.65-2.11Zm.59-1,1.63.94.29-.16-1.64-.95Zm4,2.28.28-.17-2-1.17-.28.17Zm-7.92-4.57,3.68,2.12.29-.16L208.74,259Zm2.35,0,3,1.76.29-.17-3-1.76Zm7.25,2.16,3.65,2.11.29-.17-3.66-2.11Zm-9.17-3.27,1.63.94.29-.17-1.63-.94Zm15,2.7,4.67,2.7.29-.16-4.68-2.7Zm-9.78.33,3.65,2.11.29-.16L214.42,261Zm10.16,1.21,5.18,3,.28-.16-5.18-3Zm-1.72.33.29-.17-2-1.17-.29.17Z"/><polygon class="cls-46" points="234.77 243.04 236.2 243.86 237.63 243.04 236.2 242.21 234.77 243.04"/><polygon class="cls-46" points="233 242.01 234.43 242.84 235.86 242.01 234.43 241.19 233 242.01"/><path class="cls-45" d="M234.43,241.45l-1,.56,1,.57,1-.57Zm0,.19.64.37-.64.37-.64-.37Z"/><polygon class="cls-46" points="231.22 240.99 232.65 241.81 234.09 240.99 232.65 240.16 231.22 240.99"/><polygon class="cls-45" points="233.5 241.06 232.73 241.06 232.73 241.5 232.49 241.5 232.49 241.06 231.72 241.06 231.72 240.91 232.49 240.91 232.49 240.47 232.73 240.47 232.73 240.91 233.5 240.91 233.5 241.06"/><polygon class="cls-45" points="235.25 243.05 236.16 243.58 236.34 243.48 235.42 242.95 235.25 243.05"/><path class="cls-45" d="M229.89,247.85a2.37,2.37,0,0,1,.85.76,4.09,4.09,0,0,1,2.74.32,1.53,1.53,0,0,1,.21.14,5.15,5.15,0,0,1,4.44.05c1.13.65,1.21,1.68.26,2.42a4.42,4.42,0,0,1,1.11.42,1.45,1.45,0,0,1,.09,2.7,3.53,3.53,0,0,1,1,.39c1.25.72,1.22,1.91-.09,2.66a5.15,5.15,0,0,1-4.62,0l-11.6-6.68c-1.49-.86-1.44-2.28.11-3.16A6.09,6.09,0,0,1,229.89,247.85Z"/><path class="cls-10" d="M229.52,250.28l-1.81,1,7.43,4.28,1.8-1Zm0,.18,7.12,4.11-1.49.86L228,251.32Zm6.69,4.12-1,.58-5.13-3,1-.58Zm2.39-1.54.13.07-1.4.8-.69-.4.11-.07.57.33Zm-1.49-.37c.27.15.17.34-.13.52a.88.88,0,0,1-.86.05c-.27-.16-.17-.35.13-.52A.86.86,0,0,1,237.1,252.67Zm-.78.14c-.21.13-.28.26-.1.36a.65.65,0,0,0,.67-.08c.22-.12.28-.25.1-.36a.63.63,0,0,0-.63.06Zm-.82-.66a.66.66,0,0,1,.69,0c.27.16.15.29,0,.38l-.11-.06c.12-.07.19-.16,0-.26a.43.43,0,0,0-.48,0l.23.18c.13.1.22.22,0,.35a.53.53,0,0,1-.52,0c-.16-.09-.19-.19-.17-.28l-.15.07-.1-.06.28-.15Zm-.25.29c0,.05,0,.15.13.25a.36.36,0,0,0,.35,0c.11-.07.1-.14,0-.22l-.22-.18Zm.14-1.29.12.07-.59.34a.63.63,0,0,1,.39.08c.25.14.14.32-.17.49a.81.81,0,0,1-.82.07c-.14-.08-.16-.16-.12-.24l-.15.07L234,252l.28-.15Zm-1.07.76c0,.05,0,.14.09.21a.64.64,0,0,0,.65-.08c.22-.13.28-.26.11-.35a.52.52,0,0,0-.38-.05Zm.75-.83-.15-.09-.16.09.15.09Zm-.4.21-.12-.07-1,.55.12.06Zm-1.34-.44-.66.38.12.07.64-.37a.38.38,0,0,1,.41,0c.15.08.13.17.11.23l-.71.41.12.07.68-.39.28-.15-.1-.06-.15.07c0-.08,0-.18-.16-.27A.57.57,0,0,0,233.33,250.85Zm-.65-.56a.64.64,0,0,1,.42.07c.24.14.14.32-.13.48a.8.8,0,0,1-.79,0c-.13-.07-.16-.15-.14-.22l-.17.1c-.18.1-.21.19,0,.29a.44.44,0,0,0,.5,0s.12.07.1.08a.69.69,0,0,1-.71,0c-.26-.15-.2-.29,0-.42l.69-.39.26-.16.1,0Zm-.51.3a.17.17,0,0,0,.09.22.6.6,0,0,0,.62-.07c.2-.11.25-.23.08-.33a.66.66,0,0,0-.38,0Zm-.48-.11-.16-.09-.16.09.16.09Zm-.38-.22-.15-.09-.16.1.15.09Zm-.52-.3-.16.09.15.09.16-.09Z"/><path class="cls-47" d="M223.57,296.18a.38.38,0,0,0-.42,0c-.4.34-.08,1.08.34,1.3a.52.52,0,0,0,.44,0,.36.36,0,0,0,.2-.39A1.21,1.21,0,0,0,223.57,296.18Z"/><path class="cls-48" d="M271.85,270.25c0-.07,0-.1,0-.13a3,3,0,0,0-.12-.62l0-.1a3.52,3.52,0,0,0-.21-.52l-.06-.12a4.64,4.64,0,0,0-.26-.4l-.09-.11a3,3,0,0,0-.34-.36l-.1-.08a2.81,2.81,0,0,0-.38-.26,1.49,1.49,0,0,0-1.42-.1c-.29.15-23.55,13.59-36.76,22.26a76.18,76.18,0,0,0-7.63,5.41l-.17.16a.57.57,0,0,0-.14.42,1.54,1.54,0,0,0,.72,1.2.56.56,0,0,0,.44.05s.06,0,.11,0l.09,0,.8-.31c1.08-.43,2.82-1.21,6.26-3,3.24-1.68,8-4.26,15-8.28,10.27-5.82,23.38-13.58,23.61-13.72l.06,0a1.15,1.15,0,0,0,.39-.47,1.63,1.63,0,0,0,.09-.19l0-.08a1.27,1.27,0,0,0,.06-.28.76.76,0,0,0,0-.15c0-.05,0-.09,0-.15Z"/><path class="cls-49" d="M224.82,295.27a.46.46,0,0,0-.53,0l-1.14.91a.38.38,0,0,1,.42,0,1.21,1.21,0,0,1,.56.95.37.37,0,0,1-.19.39l1.35-.56c.16-.06.25-.23.25-.49A1.54,1.54,0,0,0,224.82,295.27Z"/><path class="cls-49" d="M223.44,296.39c-.15-.08-.27-.08-.35,0L222,297.45a.13.13,0,0,1,.15,0,.42.42,0,0,1,.2.34.14.14,0,0,1-.08.14l1.48-.47c.11,0,.17-.14.17-.31A1,1,0,0,0,223.44,296.39Z"/><path class="cls-47" d="M222.12,297.45a.13.13,0,0,0-.15,0c-.12.11-.21.19-.23.28a.22.22,0,0,0,.09.24c.11.06.23,0,.41-.05s.08-.06.08-.13A.42.42,0,0,0,222.12,297.45Z"/><polygon class="cls-34" points="269.23 269.52 254.22 278.19 252.97 277.47 267.98 268.81 269.23 269.52"/><g class="cls-4"><polygon class="cls-50" points="266.18 270.09 265.19 269.51 268.01 268.91 268.99 269.49 266.18 270.09"/><polygon class="cls-51" points="254.1 277.35 253.11 276.78 253.11 276.49 254.1 277.06 254.1 277.35"/><polygon class="cls-52" points="254.1 277.06 253.11 276.49 265.19 269.51 266.18 270.09 254.1 277.06"/><polygon class="cls-7" points="266.18 270.09 268.99 269.49 265.54 271.48 264.9 271.11 254.1 277.35 254.1 277.06 266.18 270.09"/></g><path class="cls-32" d="M146.78,287.86h18.35c6,0,20,13.63,14.8,16.2v.09a2.14,2.14,0,0,1-2.12,2.45h-10a12.16,12.16,0,0,1-6.09-1.63l-.86-.5H146.78Z"/><g id="Axonometric_Cylinder" data-name="Axonometric Cylinder"><ellipse id="Cylinder_face" data-name="Cylinder face" class="cls-53" cx="148.38" cy="272.58" rx="14.23" ry="8.21"/><ellipse id="Cylinder_face-2" data-name="Cylinder face" class="cls-54" cx="148.38" cy="272.58" rx="12.73" ry="7.35"/><path class="cls-55" d="M139.38,271.17c5-2.87,13-2.87,18,0a7.63,7.63,0,0,1,3.29,3.3,7.6,7.6,0,0,1-3.29,3.31c-5,2.87-13,2.87-18,0a7.71,7.71,0,0,1-3.29-3.31A7.75,7.75,0,0,1,139.38,271.17Z"/><path id="Cylinder_body" data-name="Cylinder body" class="cls-56" d="M134.16,272.51v23.73c0,2.12,1.35,4.26,4.16,5.88,5.56,3.21,14.57,3.21,20.12,0,2.75-1.58,4.14-3.65,4.17-5.73V272.66c0,2.08-1.42,4.15-4.17,5.73-5.55,3.21-14.56,3.21-20.12,0C135.51,276.77,134.12,274.64,134.16,272.51Z"/><path class="cls-57" d="M138.32,278.39a19.7,19.7,0,0,0,8.46,2.35v23.73a19.7,19.7,0,0,1-8.46-2.35c-2.81-1.62-4.2-3.76-4.16-5.88V272.51C134.12,274.64,135.51,276.77,138.32,278.39Z"/><path class="cls-58" d="M136.53,277.13v23.73a6.07,6.07,0,0,1-2.37-4.62V272.51A6.05,6.05,0,0,0,136.53,277.13Z"/></g><g class="cls-4"><path class="cls-59" d="M156.71,297.24A2.81,2.81,0,0,1,158,296l.4-.23a2.29,2.29,0,0,1,1.84-.42l.08.05.09,0,.08,0,.09.06.1.05.09.06.1.05.11.06.1.06.11.07.11.06.11.06.11.07.12.06.11.07.12.07.12.07.12.07.23.13-.08,0,.08,0a2.07,2.07,0,0,0,1.13.34c-.16,0-2.84,3.52-4.1,2.8l-2.61-2.14a.23.23,0,0,1,0-.11A.42.42,0,0,1,156.71,297.24Z"/><path class="cls-60" d="M156.71,299.42l2,1.17c2.42,1.4,4.41.27,4.41-2.52l0-7.61a3.87,3.87,0,0,0,2-.72l.4-.23c.76-.45,1.28-.89,1.28-1.07v7.61c0,1.63-.5,2.82-2.68,4.12l-.39.23c-2.41,1.39-3.72.92-4.95.26l-.12-.07-.12-.07-.12-.07-.12-.07-.11-.06-.12-.07-.12-.07-.11-.06-.11-.07-.11-.06-.11-.06-.1-.06-.1-.06-.1-.06-.1-.05-.1-.06-.09-.05-.08,0-.09-.05-.07,0Z"/><path class="cls-61" d="M156.72,281.59a.42.42,0,0,0,0,.1s6.41,6,6.41,8.77a3.87,3.87,0,0,0,2-.72l.4-.23c.76-.45,1.28-.89,1.28-1.07a9.89,9.89,0,0,0-4.46-7.74c-.17-.09-.17-.09,0,0l-.12-.07-.12-.07-.12-.07-.11-.07-.12-.06-.12-.07-.11-.07-.12-.06-.11-.07-.11-.06-.1-.06-.11-.06-.1-.06-.1-.06-.1-.06-.09-.05-.09-.05-.09-.05-.08-.05-.08,0a2.33,2.33,0,0,0-1.84.42l-.4.24a2.88,2.88,0,0,0-1.25,1.2A.55.55,0,0,0,156.72,281.59Z"/><path class="cls-62" d="M158.77,284.69l-2.06-1.19v-2a.29.29,0,0,0,0,.16l2,1.17a9.72,9.72,0,0,1,4.39,7.6l0,7.61c0,2.79-2,3.92-4.41,2.52l-2-1.17s0-.06,0-.06v-1.94a.33.33,0,0,0,0,.17l2,1.16c1.55.9,2.81.18,2.82-1.6l0-7.61A6.2,6.2,0,0,0,158.77,284.69Z"/></g><polygon class="cls-42" points="89.01 94.86 138.49 123.43 138.49 176.81 88.97 148.22 89.01 94.86"/><path class="cls-45" d="M109.22,116.9v.59l4.32,2.5v-.6Zm-4.08-2.36v.59l3.47,2v-.59Zm-3.24.48v.6l6.49,3.75v-.6Zm9.95,8.11v.59l4.32,2.5v-.6ZM109,119.72l7.78,4.49v-.59L109,119.13Zm-1.23,1.64,3.47,2v-.59l-3.47-2ZM96.7,110.26l7.83,4.52v-.59l-7.83-4.52Zm36.37,23.36V133L117.39,124v.59Zm0-2.36v-.6l-8.36-4.82v.6ZM99.33,115.9v.59l7.83,4.52v-.59Zm-1.52-3.23v.59l3.47,2v-.6ZM133,135.92v-.6l-5.63-3.25v.6Zm-16.19-9.35,10,5.74v-.59l-10-5.74Zm7.32-.49v-.59l-9.95-5.74v.59Zm-12.25.58v.59l4.32,2.5v-.6ZM125,137.21v-.6l-7.68-4.43v.59Zm-17.25-12.32,3.47,2v-.59l-3.47-2Zm.2,4.24v.59l7.68,4.44v-.6Zm-8.64-9.7V120l7.83,4.52V124Zm1.9,3.45-4.54-2.62v.59l4.54,2.63Zm2.76,4v.6l3.37,1.94v-.6Zm29,12.62v-.6l-5.63-3.25v.6Zm-16.19-9.35,10,5.74v-.59l-10-5.75ZM109,127.34v.59l7.77,4.49v-.59Zm-7.11-3.51,6.5,3.75V127l-6.5-3.74ZM106.1,131l4.32,2.5v-.6l-4.32-2.49Zm-9.72-12.68,2.34,1.35v-.6l-2.34-1.34Zm9.11,11.73-3.93-2.27v.6l3.93,2.27Zm-2.11-3.57-5-2.91v.59l5,2.91Zm7.65,7.37,10,5.74V139l-10-5.75Zm13.16,7.59,8.84,5.11V146l-8.84-5.1Zm2.5-.91,6.32,3.65v-.59l-6.32-3.65Zm-3.11.56v-.59l-2-1.15v.6Zm9.42.73v-.6L125.63,137v.59Zm-6.92-1.64v-.59l-9.82-5.68v.6Zm-14.28,1.95L104,137.61V137l7.83,4.52Zm9.57,7.88v-.59l-7.78-4.49v.59Zm-5.49-6.11-3.47-2v.59l3.47,2Zm4.93,3.44v-.6l-4.32-2.49v.59Zm-14.88-11.55-3.48-2v.59l3.48,2Zm-9.79-3.29v.59l7.22,4.17v-.59Zm36.94,24.28v-.6L122,149.77v.6Zm-11.66-12-7.78-4.49v.59l7.78,4.49ZM113,139.89l-6.49-3.74v.59l6.49,3.75Zm20,12.16v-.6l-11-6.36v.59Zm-31.21-18.62-4.93-2.84v.59l4.93,2.85Zm19.58,14.26,11.69,6.74v-.59l-11.69-6.74ZM133,149.06l-3.63-2.1v.6l3.63,2.1ZM96.4,127.94v.59l4.33,2.5v-.59Zm12.77,7.37-7.83-4.52v.59l7.83,4.52Zm4.08,2.36-3.47-2v.59l3.47,2Zm4.93,2.84L113.86,138v.59l4.32,2.5Zm10.56,6.1-9.94-5.74v.59l9.94,5.74Zm-26.84-4.82v.59l6.49,3.75v-.59Zm9.95,8.1v.6l4.32,2.49v-.59Zm-2.85-3.4,7.78,4.49v-.6L109,145.89Zm16,14v-.6l-7.68-4.43V156Zm-17.25-12.32,3.47,2v-.6l-3.47-2Zm25.3,12.25v-.59l-15.68-9v.59Zm-25.1-8v.6l7.68,4.43v-.59Zm-8.64-9.7v.6l7.83,4.52v-.6Zm-1.52-3.23v.6l3.47,2v-.59Zm3.42,6.69-4.54-2.62v.59l4.54,2.62Zm2.76,3.95v.59l3.37,1.94V152Zm29,12.61v-.59l-5.63-3.25v.59Zm-16.19-9.34,10,5.74v-.59l-10-5.75ZM109,150.57v.6l7.77,4.49v-.6Zm-7.11-3.5,6.5,3.74v-.59l-6.5-3.75Zm-7.59-9.69V138l3,1.7v-.59Zm2.13,4.18,2.34,1.34v-.59L96.38,141Zm30.31,22.21,6.32,3.65v-.6l-6.32-3.64Zm6.31,1.28v-.59l-7.37-4.26v.6Zm-6.92-1.63v-.6l-9.82-5.67v.59Z"/><polygon class="cls-44" points="89.01 94.86 138.49 123.43 138.49 128.21 89.01 99.64 89.01 94.86"/><polygon class="cls-46" points="97.64 103.74 100.83 105.58 100.83 102.4 97.64 100.55 97.64 103.74"/><polygon class="cls-46" points="93.69 101.46 96.88 103.3 96.88 100.11 93.69 98.27 93.69 101.46"/><path class="cls-45" d="M94.19,99.07v2.18l2.18,1.26v-2.18Zm.38.59,1.43.83v1.43l-1.43-.83Z"/><polygon class="cls-46" points="89.73 99.18 92.92 101.02 92.92 97.83 89.73 95.99 89.73 99.18"/><polygon class="cls-45" points="92.4 98.32 91.55 98.68 92.4 100.02 92.13 100.14 91.28 98.79 90.42 99.15 90.15 98.72 91 98.36 90.15 97.02 90.42 96.9 91.28 98.25 92.13 97.89 92.4 98.32"/><polygon class="cls-45" points="98.19 103.56 100.24 104.74 100.24 104.35 98.19 103.17 98.19 103.56"/><polygon class="cls-42" points="218.62 120.44 268.11 149.01 268.11 181.1 218.58 152.51 218.62 120.44"/><path class="cls-45" d="M241.41,145.63l-7.83-4.52v-.6l7.83,4.52Zm-5.31-1.31v.6l6.49,3.75v-.6Zm11.07,7v-.59l-4-2.3v.6Zm0-2.95-5.16-3V146l5.16,3Zm-11.64-9.07-3.47-2v.6l3.47,2Zm-9.79-3.3v.6l7.22,4.17v-.6Zm2.61,4.46,7.13,4.11V144l-7.13-4.12ZM247.17,146l-3.91-2.26v.6l3.91,2.26Zm-4.53-2.61-6.49-3.75v.6l6.49,3.74Zm-11.18-6.46-4.94-2.85v.6l4.94,2.84Zm4.64,11.2v.59l6.49,3.75v-.6Zm11,7v-.6l-3.93-2.26v.59Zm-8.29-3v.6l8.27,4.77v-.59Zm-4.09-2.36v.6l3.48,2v-.59Zm-3.24.49v.59l6.49,3.75v-.59Zm10,8.1v.6l5.6,3.23v-.59Zm-2.86-3.41,8.49,4.9v-.59l-8.49-4.9Zm-1.23,1.65,3.47,2v-.59l-3.47-2Zm-11.07-11.11,7.83,4.52v-.59l-7.83-4.52Zm2.05-1.17,7.13,4.12v-.6l-7.13-4.12Zm.58,6.81v.59l7.83,4.52v-.59Zm-1.51-3.23v.59l3.47,2v-.59Zm-3.85-6.93v.59l4.16,2.41v-.6Zm1.09,5.34v.59l2.14,1.24v-.59ZM226,150l2.33,1.35v-.59L226,149.36Z"/><path class="cls-63" d="M249.76,156.08v6.43a4,4,0,0,0,1.91,3l9.08,5.24c1.05.6,1.91.24,1.91-.81v-6.43a3.92,3.92,0,0,0-1.63-2.82v-2.64c0-2.71-2.2-6.18-4.9-7.74s-4.91-.63-4.91,2.07v2.67C250.38,154.79,249.76,155.18,249.76,156.08Zm10.13,1.33V160l-7.52-4.34v-2.61c0-2.08,1.68-2.79,3.76-1.59A7.79,7.79,0,0,1,259.89,157.41Zm-4.73,3.48c0-.57.47-.77,1-.44a2.16,2.16,0,0,1,1,1.65c0,.43-.26.65-.63.59v3.13l-.82-.47v-3.13A2.06,2.06,0,0,1,255.16,160.89Z"/><polygon class="cls-44" points="218.62 120.44 268.11 149.01 268.11 153.79 218.62 125.22 218.62 120.44"/><polygon class="cls-46" points="227.26 129.36 230.45 131.2 230.45 128.01 227.26 126.17 227.26 129.36"/><polygon class="cls-46" points="223.31 127.08 226.5 128.92 226.5 125.73 223.31 123.89 223.31 127.08"/><path class="cls-45" d="M223.82,124.68v2.18l2.18,1.26v-2.18Zm.37.59,1.43.83v1.43l-1.43-.83Z"/><polygon class="cls-46" points="219.36 124.79 222.55 126.64 222.55 123.45 219.36 121.61 219.36 124.79"/><polygon class="cls-45" points="222.03 123.93 221.17 124.29 222.03 125.64 221.75 125.75 220.9 124.41 220.05 124.77 219.77 124.34 220.63 123.98 219.77 122.63 220.05 122.52 220.9 123.86 221.75 123.5 222.03 123.93"/><polygon class="cls-45" points="227.82 129.18 229.86 130.36 229.86 129.97 227.82 128.79 227.82 129.18"/><path class="cls-31" d="M73,180.59a.25.25,0,0,0,.25-.24V79.87a.82.82,0,0,1,.41-.72.84.84,0,0,1,.84,0l82.61,47.7a.25.25,0,0,0,.24,0,.26.26,0,0,0,.13-.21V79.22a.25.25,0,0,0-.49,0v47L74.76,78.73a1.33,1.33,0,0,0-2,1.14V180.35A.25.25,0,0,0,73,180.59Z"/><path class="cls-31" d="M227.57,245.31a.25.25,0,0,0,.25-.25V169.68a4.51,4.51,0,0,0-2.24-3.88l-56.39-32.55-.05-63a.25.25,0,0,0-.49,0l0,63.11a.24.24,0,0,0,.12.21l56.51,32.62a4,4,0,0,1,2,3.46v75.38A.25.25,0,0,0,227.57,245.31Z"/><path class="cls-31" d="M141.15,230.43a.24.24,0,0,0,.24-.24V144a2.55,2.55,0,0,1,1.28-2.22l20.23-11.68a.24.24,0,0,0,.12-.21V88.37a.24.24,0,0,0-.25-.24.24.24,0,0,0-.24.24v41.36l-20.1,11.6A3.08,3.08,0,0,0,140.9,144v86.21A.25.25,0,0,0,141.15,230.43Z"/><ellipse class="cls-31" cx="73.02" cy="180.35" rx="2.14" ry="1.24"/><path class="cls-31" d="M139.63,229.44a.92.92,0,0,0,0,1.74,3.37,3.37,0,0,0,3,0,.92.92,0,0,0,0-1.74A3.31,3.31,0,0,0,139.63,229.44Z"/><path class="cls-31" d="M226.06,244.23a.92.92,0,0,0,0,1.74,3.35,3.35,0,0,0,3,0,.92.92,0,0,0,0-1.74A3.29,3.29,0,0,0,226.06,244.23Z"/><g class="cls-4"><path class="cls-7" d="M152.24,81l5.68-3.28,18.85,11L171.1,92a3.23,3.23,0,0,1-3.26.32L149,81.31A3.22,3.22,0,0,0,152.24,81Z"/><path class="cls-64" d="M166.49,86.36v3c0,2.9,2.07,4.08,4.6,2.62l5.67-3.27,2.47,3.59L171.11,97c-4.93,2.85-9,.56-9-5.11v-3Z"/></g><g class="cls-4"><path class="cls-65" d="M130.18,4.14c3.45-2,8.15-1.75,13.32,1.23a32.07,32.07,0,0,1,7.66,6.34L131.92,22.89a32.51,32.51,0,0,0-7.66-6.34c-5.17-3-9.87-3.23-13.32-1.22Z"/><path class="cls-66" d="M153.89,8.7c2.3-1.34,5.45-1.18,8.92.83.52.3,1.05.65,1.57,1L145.13,21.74a16.92,16.92,0,0,0-1.57-1c-3.47-2-6.61-2.17-8.92-.83Z"/><path class="cls-67" d="M169.23,1.09c2.9-1.68,6.85-1.47,11.19,1,8,4.59,14.51,15.3,15.7,25.06L176.88,38.36c-1.19-9.76-7.75-20.47-15.71-25.06-4.34-2.5-8.29-2.71-11.19-1Z"/><path class="cls-68" d="M191.05,13.11a36.4,36.4,0,0,1,5.07,14.07L176.88,38.36a36.38,36.38,0,0,0-5.11-14.12Z"/><path class="cls-69" d="M196.12,27.18a15.63,15.63,0,0,1,6.52,2.21c8.89,5.12,16.13,17.53,16.71,28.28L200.11,68.86c-.58-10.76-7.82-23.16-16.72-28.29a15.88,15.88,0,0,0-6.51-2.21Z"/><path class="cls-70" d="M214.14,41.47a36.91,36.91,0,0,1,5.21,16.2L200.11,68.86a37,37,0,0,0-5.24-16.26Z"/><path class="cls-71" d="M219.35,57.67a15.21,15.21,0,0,1,5.91,2c8.84,5.1,16,17.75,15.91,28.27,0,5.34-1.9,9.1-4.9,10.84L217,110c3-1.74,4.87-5.5,4.9-10.83C222,88.65,214.86,76,206,70.91a15,15,0,0,0-5.9-2Z"/><path class="cls-72" d="M221.93,99.18a30.18,30.18,0,0,0-1.84-10.05L239.35,78a29.9,29.9,0,0,1,1.82,10c0,5.34-1.9,9.1-4.9,10.84L217,110C220,108.27,221.9,104.51,221.93,99.18Z"/><path class="cls-73" d="M124.26,16.55a32.51,32.51,0,0,1,7.66,6.34c2-4.07,6.48-5.16,11.64-2.18a16.92,16.92,0,0,1,1.57,1c.66-9.51,7.61-13.3,16-8.44,8,4.59,14.52,15.3,15.71,25.06a15.88,15.88,0,0,1,6.51,2.21c8.9,5.13,16.14,17.53,16.72,28.29a15,15,0,0,1,5.9,2c8.85,5.09,16,17.74,15.92,28.27s-7.27,14.9-16.12,9.8L124,61.88c-10.53-6.07-19-21.12-18.93-33.63S113.75,10.49,124.26,16.55Z"/></g><g class="cls-4"><polygon class="cls-74" points="162.12 88.96 166.5 86.41 166.58 59.19 162.19 61.74 162.12 88.96"/><polygon class="cls-75" points="168.66 65.47 173.05 62.92 157.23 30.02 152.84 32.56 168.66 65.47"/><path class="cls-76" d="M143.35,50.86l-6.47-3.74,16-14.56,15.82,32.91-6.47-3.73-.06,30.12c0,2.81,1,4.79,2.61,5.73l-18.86-11c-1.6-.93-2.6-2.91-2.61-5.73Z"/></g><path class="cls-77" d="M36.12,194.81l16,9.25a3.28,3.28,0,0,0,3,0,.91.91,0,0,0,0-1.72l-16-9.25a3.28,3.28,0,0,0-3,0A.91.91,0,0,0,36.12,194.81Z"/><path class="cls-77" d="M30.91,197.82l16,9.25a3.28,3.28,0,0,0,3,0,.91.91,0,0,0,0-1.72l-16-9.25a3.28,3.28,0,0,0-3,0A.91.91,0,0,0,30.91,197.82Z"/><path class="cls-78" d="M31.82,204.3l4.54,2.62a3.28,3.28,0,0,0,3,0,.91.91,0,0,0,0-1.72l-4.55-2.63a3.33,3.33,0,0,0-3,0A.91.91,0,0,0,31.82,204.3Z"/><path class="cls-79" d="M48.09,206c-.2.11-.2.3,0,.42a.85.85,0,0,0,.73,0c.2-.12.2-.31,0-.42A.79.79,0,0,0,48.09,206Z"/><ellipse class="cls-79" cx="46.94" cy="205.36" rx="0.52" ry="0.3"/><ellipse class="cls-79" cx="45.44" cy="204.48" rx="0.52" ry="0.3"/><path class="cls-79" d="M43.56,203.4c-.2.12-.2.31,0,.42a.79.79,0,0,0,.73,0c.2-.11.2-.3,0-.42A.85.85,0,0,0,43.56,203.4Z"/><ellipse class="cls-79" cx="42.42" cy="202.74" rx="0.52" ry="0.3"/><ellipse class="cls-79" cx="40.91" cy="201.87" rx="0.52" ry="0.3"/><ellipse class="cls-79" cx="39.4" cy="201" rx="0.52" ry="0.3"/><path class="cls-79" d="M37.53,199.92c-.21.11-.21.3,0,.42a.79.79,0,0,0,.73,0c.2-.12.2-.31,0-.42A.79.79,0,0,0,37.53,199.92Z"/><polygon class="cls-80" points="33.73 204.19 36.59 205.84 37.46 205.33 34.61 203.68 33.73 204.19"/><path class="cls-79" d="M54.67,203.18l-.9.52a.8.8,0,0,1-.82,0c-.23-.13-.28-.26-.24-.37l-.21.08-.14-.08.38-.2.92-.53.18.1-1,.55c0,.08-.05.21.17.33a.53.53,0,0,0,.57,0l.88-.5Z"/><path class="cls-79" d="M51.67,202.8a.59.59,0,0,0,.61,0s.18.1.17.11a1,1,0,0,1-.93-.06c-.33-.19-.36-.39-.12-.52s.47-.11.83.07.45.15.59.07.1-.2-.1-.31a.56.56,0,0,0-.62,0l-.17-.1a.87.87,0,0,1,.93,0c.32.18.36.37.12.51s-.42.12-.81-.07-.43-.17-.6-.07S51.45,202.67,51.67,202.8Z"/><path class="cls-79" d="M50.22,201.43l.1-.05a1.17,1.17,0,0,1,1.2,0c.39.22.28.49-.08.7l0,0a1.25,1.25,0,0,1-1.23,0c-.37-.22-.31-.45-.1-.57l.17.09c-.14.08-.19.24.08.39a.82.82,0,0,0,.85,0Zm1.16,0a.85.85,0,0,0-.84.05l.76.44C51.58,201.73,51.63,201.56,51.38,201.41Z"/><path class="cls-79" d="M50.14,200.53c.18.11.21.23.18.33l.19-.08.15.08-.38.2-.92.54-.18-.1,1-.56c0-.08,0-.2-.19-.33l.16-.1Z"/><path class="cls-79" d="M47.51,200.53l.9-.52a.83.83,0,0,1,.82,0c.23.14.27.27.24.38l.2-.09.15.09-.38.2-.92.53-.18-.1,1-.55c0-.09,0-.21-.17-.33a.53.53,0,0,0-.57,0l-.88.5Z"/><path class="cls-79" d="M46.36,199.87l-.15-.09.38-.2.47-.27a.88.88,0,0,1,1,0c.4.23.25.41,0,.54l-.17-.1c.17-.1.25-.21,0-.36a.61.61,0,0,0-.68,0l.35.27c.18.14.32.31,0,.49a.75.75,0,0,1-.74,0c-.23-.13-.29-.28-.27-.39Zm.57.19a.5.5,0,0,0,.5,0c.14-.08.12-.19,0-.3l-.33-.26-.35.2C46.7,199.77,46.68,199.91,46.93,200.06Z"/><path class="cls-79" d="M44.19,198.62l.93-.54a.74.74,0,0,1,.76,0c.21.13.25.26.21.37a.71.71,0,0,1,.55.07c.21.12.25.25.21.36l.2-.09.15.09-.38.2-.92.53-.18-.1,1-.56c0-.08.05-.2-.14-.3a.47.47,0,0,0-.51,0l-.91.53-.17-.1,1-.56c0-.08,0-.2-.13-.31a.49.49,0,0,0-.51,0l-.91.53Z"/><path class="cls-79" d="M43.36,197.48l.1-.06a1.2,1.2,0,0,1,1.2,0c.39.23.28.49-.08.7l0,0a1.23,1.23,0,0,1-1.22,0c-.37-.22-.31-.45-.11-.57l.17.1c-.14.08-.18.23.08.38a.83.83,0,0,0,.86,0Zm1.16,0a.85.85,0,0,0-.84.05l.77.44C44.72,197.77,44.78,197.6,44.52,197.45Z"/><polygon class="cls-42" points="30.65 119.53 66.32 140.12 66.32 177.73 30.62 157.12 30.65 119.53"/><path class="cls-45" d="M38.59,140.79v.44L43.45,144v-.45Zm7.46,6.07v.44l3.23,1.87v-.44Zm-2.14-2.56,5.83,3.37v-.45l-5.83-3.36ZM43,145.54l2.6,1.5v-.45l-2.6-1.5Zm19,9.18v-.45L50.2,147.49v.44ZM36.66,141.44v.44l5.87,3.39v-.44ZM35.53,139v.44l2.6,1.51v-.45Zm26.34,17.42V156l-4.21-2.44V154Zm-12.13-7,7.46,4.3v-.44L49.74,149Zm-3.69.06V150l3.23,1.87v-.45Zm9.86,7.91V157l-5.75-3.32v.45ZM43,148.18l2.6,1.5v-.44l-2.6-1.5Zm.15,3.17v.45l5.75,3.32v-.44Zm-6.48-7.27v.45l5.87,3.39v-.45Zm1.43,2.59-3.41-2v.44l3.41,2Zm2.07,3v.45l2.52,1.45v-.44Zm21.71,9.46v-.45l-4.21-2.44v.45Zm-12.13-7,7.46,4.31v-.45l-7.46-4.3ZM43.87,150v.45l5.83,3.36v-.44Zm-5.32-2.63,4.86,2.81v-.44l-4.86-2.81Zm3.19,5.38L45,154.63v-.45l-3.24-1.87Zm-7.29-9.51,1.75,1v-.44l-1.75-1Zm6.83,8.8-3-1.7v.44l3,1.7Zm-1.58-2.68-3.78-2.18v.44l3.78,2.18Zm5.74,5.52,7.45,4.31v-.45l-7.45-4.3Zm9.86,5.69,6.62,3.83V164l-6.62-3.82Zm1.87-.68,4.73,2.73v-.44l-4.73-2.74Zm-2.33.42v-.45L53.35,159v.45Zm7,.54v-.44l-5.52-3.19v.44Zm-5.18-1.23v-.44l-7.36-4.25v.44Zm-7.64,2.79-2.6-1.5v.44l2.6,1.51ZM52.76,165v-.45l-3.23-1.87v.45Zm-11.15-8.65L39,154.84v.45l2.6,1.5Zm11.61,6.7-5.83-3.36v.44l5.83,3.36Zm-6.29-3.63-4.86-2.81v.45l4.86,2.81Zm15,9.11v-.45l-8.27-4.77v.45ZM38.55,154.58l-3.7-2.13v.44l3.7,2.14Zm14.67,10.68L62,170.32v-.45l-8.76-5.05Zm8.67,1-2.73-1.57v.44l2.73,1.58ZM34.47,150.46v.45l3.24,1.87v-.45ZM44,156l-5.87-3.38V153L44,156.43Zm3.06,1.77-2.6-1.5v.44l2.6,1.51Zm3.69,2.14L47.56,158v.44l3.23,1.87Zm7.92,4.56-7.46-4.3v.44l7.46,4.31Z"/><polygon class="cls-44" points="30.65 119.53 66.32 140.12 66.32 143.64 30.65 123.04 30.65 119.53"/><g id="_2" data-name="2"><path class="cls-63" d="M40.18,135.26l1.57,1.68a.55.55,0,0,0,.17.14.32.32,0,0,0,.18.06l.47,0,.27,0,.23,0a.54.54,0,0,1,.27.14c.1.1.26.23.41.38l.16.14.47.42a.77.77,0,0,0,.2.09l.44.15a.84.84,0,0,1,.33.16l.31.32a.22.22,0,0,0,.09.07l.09,0,.78.17a.71.71,0,0,1,.33.19c.22.2.61.58.71.64s.29.18.54.32l.53.29.49.27.18.1a.71.71,0,0,1,.27.25l.56.84a.47.47,0,0,0,.14.14l1,.56a7.67,7.67,0,0,0,3,3.54c1.92,1.1,3.47.45,3.47-1.47a7.2,7.2,0,0,0-3.48-5.47c-1.22-.7-2.29-.69-2.91-.09l-.82-.47a.51.51,0,0,0-.45-.07l-.1,0a.83.83,0,0,1-.74-.12l-7.69-4.43a.51.51,0,0,0-.38-.08l-1.17.24a.13.13,0,0,0-.1.07C39.91,134.73,40,135,40.18,135.26ZM55,143.35c0-.58.46-.78,1-.44a2.19,2.19,0,0,1,1,1.64c0,.58-.47.78-1,.45A2.19,2.19,0,0,1,55,143.35Z"/></g><polygon class="cls-46" points="36.8 125.89 39.07 127.2 39.07 124.93 36.8 123.62 36.8 125.89"/><polygon class="cls-46" points="33.98 124.27 36.26 125.58 36.26 123.31 33.98 122 33.98 124.27"/><path class="cls-81" d="M34.34,122.56v1.55l1.55.9v-1.55Zm.27.42,1,.59v1l-1-.59Z"/><polygon class="cls-46" points="31.17 122.64 33.44 123.95 33.44 121.68 31.17 120.37 31.17 122.64"/><polygon class="cls-81" points="33.07 122.03 32.46 122.28 33.07 123.24 32.87 123.32 32.27 122.37 31.66 122.62 31.46 122.32 32.07 122.06 31.46 121.1 31.66 121.02 32.27 121.98 32.87 121.72 33.07 122.03"/><polygon class="cls-81" points="37.19 125.76 38.65 126.6 38.65 126.33 37.19 125.49 37.19 125.76"/><path class="cls-77" d="M171.26,178.92l17.07,9.91a1.27,1.27,0,0,0,2-.78,2.53,2.53,0,0,0-1.17-2.62L172.1,175.5a1.28,1.28,0,0,0-2,.78A2.56,2.56,0,0,0,171.26,178.92Z"/><path class="cls-77" d="M169.79,184.89l17.08,9.89a1.27,1.27,0,0,0,2-.78,2.55,2.55,0,0,0-1.17-2.63l-17.08-9.9a1.27,1.27,0,0,0-2,.78A2.54,2.54,0,0,0,169.79,184.89Z"/><path class="cls-78" d="M174.57,194.49l4.85,2.8a1.28,1.28,0,0,0,2-.79,2.55,2.55,0,0,0-1.17-2.63l-4.85-2.8a1.28,1.28,0,0,0-2,.79A2.53,2.53,0,0,0,174.57,194.49Z"/><path class="cls-79" d="M186.93,192.87a.6.6,0,0,0,.29.64.31.31,0,0,0,.49-.19.6.6,0,0,0-.29-.64A.31.31,0,0,0,186.93,192.87Z"/><path class="cls-79" d="M185.32,191.94a.63.63,0,0,0,.29.64.31.31,0,0,0,.49-.19.61.61,0,0,0-.28-.64A.32.32,0,0,0,185.32,191.94Z"/><path class="cls-79" d="M183.71,191a.66.66,0,0,0,.29.65.31.31,0,0,0,.49-.19.63.63,0,0,0-.28-.65A.32.32,0,0,0,183.71,191Z"/><path class="cls-79" d="M182.11,190.07a.61.61,0,0,0,.28.64.31.31,0,0,0,.49-.19.61.61,0,0,0-.28-.64A.31.31,0,0,0,182.11,190.07Z"/><path class="cls-79" d="M180.5,189.14a.61.61,0,0,0,.28.64.32.32,0,0,0,.5-.19A.64.64,0,0,0,181,189,.31.31,0,0,0,180.5,189.14Z"/><path class="cls-79" d="M178.89,188.21a.6.6,0,0,0,.29.64.31.31,0,0,0,.49-.19.62.62,0,0,0-.29-.64A.31.31,0,0,0,178.89,188.21Z"/><path class="cls-79" d="M177.28,187.27a.62.62,0,0,0,.29.65.31.31,0,0,0,.49-.19.62.62,0,0,0-.29-.65A.31.31,0,0,0,177.28,187.27Z"/><path class="cls-79" d="M175.67,186.34a.62.62,0,0,0,.29.65.31.31,0,0,0,.49-.2.61.61,0,0,0-.29-.64A.31.31,0,0,0,175.67,186.34Z"/><polygon class="cls-80" points="175.79 193.81 178.83 195.57 179.08 194.57 176.03 192.81 175.79 193.81"/><path class="cls-79" d="M189.43,186.83l-.25,1c-.07.28-.26.39-.55.23a.83.83,0,0,1-.41-.52l-.08.19-.16-.09.12-.4.26-1.06.19.11-.27,1.1a.69.69,0,0,0,.33.45c.19.11.34.08.39-.14l.25-1Z"/><path class="cls-79" d="M187.15,187c.28.16.4.05.44-.11a1.13,1.13,0,0,1,.18.12c-.05.23-.26.38-.66.15a.72.72,0,0,1-.44-.76c.07-.27.25-.29.61-.11s.41.11.45,0-.07-.33-.28-.46-.38-.07-.43.14a1.86,1.86,0,0,1-.19-.11c.08-.29.27-.42.66-.19a.69.69,0,0,1,.42.74c-.06.22-.2.3-.59.11s-.41-.16-.46,0S186.92,186.89,187.15,187Z"/><path class="cls-79" d="M185.25,185.33l0-.11c.1-.41.36-.63.77-.39a.92.92,0,0,1,.42,1.08V186c-.1.41-.37.63-.8.38a.8.8,0,0,1-.45-.84l.17.11a.58.58,0,0,0,.32.57c.29.16.47,0,.56-.28ZM186,185c-.27-.15-.45,0-.54.29l.82.47A.67.67,0,0,0,186,185Z"/><path class="cls-79" d="M184.59,184a.79.79,0,0,1,.34.46l.07-.18.16.09-.12.41-.26,1.05-.19-.11.27-1.09a.75.75,0,0,0-.36-.46l.05-.19S184.57,184,184.59,184Z"/><path class="cls-79" d="M182.81,184.66l.25-1c.07-.28.27-.38.55-.22a.85.85,0,0,1,.42.52l.08-.2.15.09-.11.41-.26,1.05-.19-.11.27-1.09a.7.7,0,0,0-.34-.46c-.19-.11-.33-.08-.39.15l-.24,1Z"/><path class="cls-79" d="M181.58,184l-.15-.09.12-.41.13-.54c.08-.32.25-.48.65-.25a.69.69,0,0,1,.38.82l-.18-.11a.43.43,0,0,0-.24-.54c-.25-.15-.36-.06-.43.23l.41.32a.71.71,0,0,1,.35.74c-.06.24-.25.32-.51.17a1,1,0,0,1-.45-.53Zm.52.14c.19.11.3,0,.34-.12a.46.46,0,0,0-.22-.46l-.4-.31-.1.4A.79.79,0,0,0,182.1,184.09Z"/><path class="cls-79" d="M179.28,182.61l.26-1.07c.07-.28.25-.35.5-.21a.81.81,0,0,1,.39.51c.09-.13.24-.14.43,0a.81.81,0,0,1,.38.48l.08-.18.15.09-.12.41-.26,1-.18-.11.27-1.1a.69.69,0,0,0-.3-.43c-.16-.09-.29-.09-.35.13l-.25,1-.19-.11.27-1.11a.63.63,0,0,0-.3-.42c-.16-.1-.29-.1-.34.13l-.26,1Z"/><path class="cls-79" d="M177.94,181.08l0-.11c.1-.41.36-.63.78-.39a1,1,0,0,1,.42,1.09l0,.06c-.1.41-.36.63-.79.38a.81.81,0,0,1-.46-.84l.18.1a.54.54,0,0,0,.32.57c.28.17.46.05.55-.27Zm.77-.33c-.27-.16-.45,0-.54.28l.82.48A.64.64,0,0,0,178.71,180.75Z"/></g></g></g></g></svg>