<svg xmlns="http://www.w3.org/2000/svg" xmlns:xlink="http://www.w3.org/1999/xlink" viewBox="0 0 307.82 307.99"><defs><style>.cls-1{mask:url(#mask);filter:url(#luminosity-noclip-7);}.cls-10,.cls-12,.cls-17,.cls-2,.cls-26,.cls-27,.cls-32,.cls-4,.cls-44,.cls-6,.cls-8{mix-blend-mode:multiply;}.cls-2{fill:url(#Áåçûìÿííûé_ãðàäèåíò_5);}.cls-3{mask:url(#mask-2);filter:url(#luminosity-noclip-12);}.cls-4{fill:url(#Áåçûìÿííûé_ãðàäèåíò_5-2);}.cls-5{mask:url(#mask-3);filter:url(#luminosity-noclip-8);}.cls-6{fill:url(#Áåçûìÿííûé_ãðàäèåíò_5-3);}.cls-7{mask:url(#mask-4);filter:url(#luminosity-noclip-9);}.cls-8{fill:url(#Áåçûìÿííûé_ãðàäèåíò_5-4);}.cls-9{mask:url(#mask-5);filter:url(#luminosity-noclip-10);}.cls-10{fill:url(#Áåçûìÿííûé_ãðàäèåíò_5-5);}.cls-11{mask:url(#mask-6);filter:url(#luminosity-noclip-11);}.cls-12{fill:url(#Áåçûìÿííûé_ãðàäèåíò_5-6);}.cls-13{fill:#171a22;}.cls-14{fill:#2d2b2a;}.cls-15{fill:#313440;}.cls-16{isolation:isolate;}.cls-17{fill:#8195a5;}.cls-17,.cls-32,.cls-44{opacity:0.6;}.cls-18{fill:url(#Áåçûìÿííûé_ãðàäèåíò_1832);}.cls-19{fill:#8b3dce;}.cls-20{fill:url(#Áåçûìÿííûé_ãðàäèåíò_1832-2);}.cls-21{fill:#252734;}.cls-22,.cls-54{fill:#3d72e8;}.cls-23{fill:url(#Áåçûìÿííûé_ãðàäèåíò_1832-3);}.cls-24{fill:url(#Áåçûìÿííûé_ãðàäèåíò_1821);}.cls-25{fill:#35384a;}.cls-26{fill:#e9eaeb;}.cls-26,.cls-40,.cls-52,.cls-69,.cls-70{opacity:0.2;}.cls-27,.cls-63{fill:#cb89f0;}.cls-27,.cls-58{opacity:0.4;}.cls-28{fill:#cccdce;opacity:0.5;}.cls-29{clip-path:url(#clip-path);}.cls-30{fill:#ad852c;}.cls-31{fill:#95e5ff;}.cls-32{fill:#50197c;}.cls-33{fill:url(#Áåçûìÿííûé_ãðàäèåíò_108);}.cls-34{fill:#282a35;}.cls-35{fill:url(#Áåçûìÿííûé_ãðàäèåíò_1847);}.cls-36{fill:url(#Áåçûìÿííûé_ãðàäèåíò_1847-2);}.cls-37{fill:#1e1f27;}.cls-38{fill:#191414;}.cls-39,.cls-40{fill:#d0d6d6;}.cls-39,.cls-51{opacity:0.1;}.cls-103,.cls-105,.cls-107,.cls-40,.cls-52,.cls-54,.cls-75,.cls-92,.cls-94,.cls-96{mix-blend-mode:screen;}.cls-41{clip-path:url(#clip-path-2);}.cls-42{fill:#7c633c;}.cls-43{fill:#c0f3ff;}.cls-44{fill:#55128a;}.cls-45{fill:url(#Áåçûìÿííûé_ãðàäèåíò_1832-4);}.cls-46{fill:#181a23;}.cls-47{opacity:0.9;}.cls-48{fill:#120c0c;}.cls-49{fill:url(#Áåçûìÿííûé_ãðàäèåíò_1847-3);}.cls-50{fill:url(#Áåçûìÿííûé_ãðàäèåíò_1847-4);}.cls-51,.cls-52{fill:#eff6f6;}.cls-53{clip-path:url(#clip-path-3);}.cls-55{fill:#4b45c4;}.cls-56{fill:#4888f9;}.cls-57{fill:#fffff7;}.cls-58,.cls-98{fill:#3d3292;}.cls-59{fill:#b879d9;}.cls-60{fill:url(#Áåçûìÿííûé_ãðàäèåíò_101);}.cls-61{fill:#ffc9ff;}.cls-62{fill:#f9b6ff;}.cls-64{fill:url(#Áåçûìÿííûé_ãðàäèåíò_1821-2);}.cls-65{fill:url(#Áåçûìÿííûé_ãðàäèåíò_1821-3);}.cls-66{fill:url(#Áåçûìÿííûé_ãðàäèåíò_1837);}.cls-67{fill:#3a1147;}.cls-68{fill:url(#Áåçûìÿííûé_ãðàäèåíò_3);}.cls-69{fill:url(#Áåçûìÿííûé_ãðàäèåíò_24);}.cls-70{fill:url(#Áåçûìÿííûé_ãðàäèåíò_24-2);}.cls-71{fill:#a35dd4;}.cls-72{fill:url(#Áåçûìÿííûé_ãðàäèåíò_3-2);}.cls-73{fill:url(#Áåçûìÿííûé_ãðàäèåíò_8);}.cls-74{fill:url(#Áåçûìÿííûé_ãðàäèåíò_48);}.cls-101,.cls-75{fill:#ffffd7;}.cls-76{fill:#9f52d8;}.cls-77{fill:url(#Áåçûìÿííûé_ãðàäèåíò_208);}.cls-78{fill:url(#Áåçûìÿííûé_ãðàäèåíò_208-2);}.cls-79{fill:url(#Áåçûìÿííûé_ãðàäèåíò_208-3);}.cls-80{fill:url(#Áåçûìÿííûé_ãðàäèåíò_222);}.cls-81{fill:url(#Áåçûìÿííûé_ãðàäèåíò_208-4);}.cls-82{fill:url(#Áåçûìÿííûé_ãðàäèåíò_222-2);}.cls-83{fill:url(#Áåçûìÿííûé_ãðàäèåíò_208-5);}.cls-84{fill:url(#Áåçûìÿííûé_ãðàäèåíò_222-3);}.cls-85{fill:url(#Áåçûìÿííûé_ãðàäèåíò_118);}.cls-86{fill:url(#Áåçûìÿííûé_ãðàäèåíò_222-4);}.cls-87{fill:#a85bdb;}.cls-88{fill:url(#Áåçûìÿííûé_ãðàäèåíò_118-2);}.cls-89{fill:#2d2987;}.cls-90{fill:#44e0f0;}.cls-91{mask:url(#mask-7);}.cls-92{fill:url(#Áåçûìÿííûé_ãðàäèåíò_143);}.cls-93{mask:url(#mask-8);}.cls-94{fill:url(#Áåçûìÿííûé_ãðàäèåíò_143-2);}.cls-95{mask:url(#mask-9);}.cls-96{fill:url(#Áåçûìÿííûé_ãðàäèåíò_143-3);}.cls-97{fill:#fff;}.cls-99{fill:#8e8e8e;}.cls-100{fill:#f7f7f7;}.cls-102{mask:url(#mask-10);}.cls-103{fill:url(#Áåçûìÿííûé_ãðàäèåíò_143-4);}.cls-104{mask:url(#mask-11);}.cls-105{fill:url(#Áåçûìÿííûé_ãðàäèåíò_143-5);}.cls-106{mask:url(#mask-12);}.cls-107{fill:url(#Áåçûìÿííûé_ãðàäèåíò_143-6);}.cls-108{filter:url(#luminosity-noclip-6);}.cls-109{filter:url(#luminosity-noclip-5);}.cls-110{filter:url(#luminosity-noclip-4);}.cls-111{filter:url(#luminosity-noclip-3);}.cls-112{filter:url(#luminosity-noclip-2);}.cls-113{filter:url(#luminosity-noclip);}</style><filter id="luminosity-noclip" x="155.93" y="-8208.35" width="59" height="32766" filterUnits="userSpaceOnUse" color-interpolation-filters="sRGB"><feFlood flood-color="#fff" result="bg"/><feBlend in="SourceGraphic" in2="bg"/></filter><mask id="mask" x="155.93" y="-8208.35" width="59" height="32766" maskUnits="userSpaceOnUse"><g class="cls-113"/></mask><radialGradient id="Áåçûìÿííûé_ãðàäèåíò_5" cx="-273.59" cy="230.63" r="29.49" gradientTransform="translate(176.83 -328.22) rotate(-51.25)" gradientUnits="userSpaceOnUse"><stop offset="0" stop-color="#fff"/><stop offset="0.14" stop-color="#fff"/><stop offset="0.27" stop-color="#fff"/><stop offset="1" stop-color="#fff"/></radialGradient><filter id="luminosity-noclip-2" x="50.75" y="-8208.35" width="59" height="32766" filterUnits="userSpaceOnUse" color-interpolation-filters="sRGB"><feFlood flood-color="#fff" result="bg"/><feBlend in="SourceGraphic" in2="bg"/></filter><mask id="mask-2" x="50.75" y="-8208.35" width="59" height="32766" maskUnits="userSpaceOnUse"><g class="cls-112"/></mask><radialGradient id="Áåçûìÿííûé_ãðàäèåíò_5-2" cx="-513.94" cy="247.95" r="29.49" gradientTransform="matrix(0.71, -0.7, 0.7, 0.71, 270.16, -291.78)" xlink:href="#Áåçûìÿííûé_ãðàäèåíò_5"/><filter id="luminosity-noclip-3" x="152.21" y="-8208.35" width="59" height="32766" filterUnits="userSpaceOnUse" color-interpolation-filters="sRGB"><feFlood flood-color="#fff" result="bg"/><feBlend in="SourceGraphic" in2="bg"/></filter><mask id="mask-3" x="152.21" y="-8208.35" width="59" height="32766" maskUnits="userSpaceOnUse"><g class="cls-111"/></mask><radialGradient id="Áåçûìÿííûé_ãðàäèåíò_5-3" cx="-278.92" cy="229.41" r="29.49" gradientTransform="translate(517.07 -100.47) rotate(17.66)" xlink:href="#Áåçûìÿííûé_ãðàäèåíò_5"/><filter id="luminosity-noclip-4" x="146.83" y="-8208.35" width="59" height="32766" filterUnits="userSpaceOnUse" color-interpolation-filters="sRGB"><feFlood flood-color="#fff" result="bg"/><feBlend in="SourceGraphic" in2="bg"/></filter><mask id="mask-4" x="146.83" y="-8208.35" width="59" height="32766" maskUnits="userSpaceOnUse"><g class="cls-110"/></mask><radialGradient id="Áåçûìÿííûé_ãðàäèåíò_5-4" cx="-282.68" cy="225.38" r="29.49" gradientTransform="translate(323.96 -295.26) rotate(-27.33)" xlink:href="#Áåçûìÿííûé_ãðàäèåíò_5"/><filter id="luminosity-noclip-5" x="137.18" y="-8208.35" width="59" height="32766" filterUnits="userSpaceOnUse" color-interpolation-filters="sRGB"><feFlood flood-color="#fff" result="bg"/><feBlend in="SourceGraphic" in2="bg"/></filter><mask id="mask-5" x="137.18" y="-8208.35" width="59" height="32766" maskUnits="userSpaceOnUse"><g class="cls-109"/></mask><radialGradient id="Áåçûìÿííûé_ãðàäèåíò_5-5" cx="-457.82" cy="315.35" r="29.49" gradientTransform="matrix(0.71, -0.71, 0.71, 0.71, 266.31, -315.5)" xlink:href="#Áåçûìÿííûé_ãðàäèåíò_5"/><filter id="luminosity-noclip-6" x="205.3" y="-8208.35" width="59" height="32766" filterUnits="userSpaceOnUse" color-interpolation-filters="sRGB"><feFlood flood-color="#fff" result="bg"/><feBlend in="SourceGraphic" in2="bg"/></filter><mask id="mask-6" x="205.3" y="-8208.35" width="59" height="32766" maskUnits="userSpaceOnUse"><g class="cls-108"/></mask><radialGradient id="Áåçûìÿííûé_ãðàäèåíò_5-6" cx="-380.43" cy="349.34" r="29.49" gradientTransform="matrix(0.71, -0.7, 0.7, 0.71, 258.94, -334.54)" xlink:href="#Áåçûìÿííûé_ãðàäèåíò_5"/><linearGradient id="Áåçûìÿííûé_ãðàäèåíò_1832" x1="65.12" y1="129" x2="157.91" y2="129" gradientUnits="userSpaceOnUse"><stop offset="0" stop-color="#8b3dce"/><stop offset="1" stop-color="#cb89f0"/></linearGradient><linearGradient id="Áåçûìÿííûé_ãðàäèåíò_1832-2" x1="63.64" y1="157.23" x2="65.79" y2="157.23" xlink:href="#Áåçûìÿííûé_ãðàäèåíò_1832"/><linearGradient id="Áåçûìÿííûé_ãðàäèåíò_1832-3" x1="150.1" y1="253.38" x2="156.54" y2="253.38" xlink:href="#Áåçûìÿííûé_ãðàäèåíò_1832"/><linearGradient id="Áåçûìÿííûé_ãðàäèåíò_1821" x1="86.1" y1="232.86" x2="245.95" y2="232.86" gradientUnits="userSpaceOnUse"><stop offset="0" stop-color="#f5abff"/><stop offset="0.46" stop-color="#ffc5ff"/><stop offset="1" stop-color="#ffdeff"/></linearGradient><clipPath id="clip-path"><path class="cls-13" d="M132.28,270.09l3.66,2.11c.42.24.77.1.77-.33a1.6,1.6,0,0,0-.77-1.21l-3.66-2.11c-.43-.24-.77-.1-.77.33A1.6,1.6,0,0,0,132.28,270.09Z"/></clipPath><linearGradient id="Áåçûìÿííûé_ãðàäèåíò_108" x1="268.3" y1="208.65" x2="260.05" y2="208.65" gradientUnits="userSpaceOnUse"><stop offset="0" stop-color="#cb89f0"/><stop offset="1" stop-color="#8b3dce"/></linearGradient><linearGradient id="Áåçûìÿííûé_ãðàäèåíò_1847" x1="208.65" y1="193.83" x2="211.44" y2="198.66" gradientUnits="userSpaceOnUse"><stop offset="0.62" stop-color="#ffbfff"/><stop offset="0.86" stop-color="#e09cff"/><stop offset="1" stop-color="#cb89f0"/></linearGradient><linearGradient id="Áåçûìÿííûé_ãðàäèåíò_1847-2" x1="214.81" y1="198.05" x2="216.44" y2="200.88" xlink:href="#Áåçûìÿííûé_ãðàäèåíò_1847"/><clipPath id="clip-path-2"><path class="cls-14" d="M287.39,214.47l-1.51.87c-.18.1-.32,0-.32-.14a.65.65,0,0,1,.32-.5l1.51-.87c.18-.1.32,0,.32.13A.66.66,0,0,1,287.39,214.47Z"/></clipPath><linearGradient id="Áåçûìÿííûé_ãðàäèåíò_1832-4" x1="88.06" y1="277.51" x2="95.48" y2="277.51" xlink:href="#Áåçûìÿííûé_ãðàäèåíò_1832"/><linearGradient id="Áåçûìÿííûé_ãðàäèåíò_1847-3" x1="49.9" y1="267.26" x2="52.36" y2="271.52" xlink:href="#Áåçûìÿííûé_ãðàäèåíò_1847"/><linearGradient id="Áåçûìÿííûé_ãðàäèåíò_1847-4" x1="55.18" y1="270.3" x2="57.63" y2="274.56" xlink:href="#Áåçûìÿííûé_ãðàäèåíò_1847"/><clipPath id="clip-path-3"><path class="cls-15" d="M106.17,284.24l-2.45,1.41c-.29.17-.52.07-.52-.21a1.06,1.06,0,0,1,.52-.82l2.45-1.41c.29-.17.52-.07.52.22A1.06,1.06,0,0,1,106.17,284.24Z"/></clipPath><linearGradient id="Áåçûìÿííûé_ãðàäèåíò_101" x1="-1117.96" y1="281.69" x2="-1115.51" y2="285.92" gradientTransform="matrix(-1, 0, 0, 1, -1056.71, 0)" gradientUnits="userSpaceOnUse"><stop offset="0" stop-color="#1c1e29"/><stop offset="0.52" stop-color="#252734"/><stop offset="0.76" stop-color="#1c1e29"/><stop offset="0.85" stop-color="#181a23"/></linearGradient><linearGradient id="Áåçûìÿííûé_ãðàäèåíò_1821-2" x1="-400.69" y1="274.68" x2="-387.62" y2="274.68" gradientTransform="matrix(-1, 0, 0, 1, -345.98, 0)" xlink:href="#Áåçûìÿííûé_ãðàäèåíò_1821"/><linearGradient id="Áåçûìÿííûé_ãðàäèåíò_1821-3" x1="145.21" y1="273.97" x2="173.67" y2="273.97" xlink:href="#Áåçûìÿííûé_ãðàäèåíò_1821"/><linearGradient id="Áåçûìÿííûé_ãðàäèåíò_1837" x1="146.71" y1="273.97" x2="172.17" y2="273.97" gradientUnits="userSpaceOnUse"><stop offset="0" stop-color="#b879d9"/><stop offset="1" stop-color="#8b3dce"/></linearGradient><linearGradient id="Áåçûìÿííûé_ãðàäèåíò_3" x1="145.21" y1="289.91" x2="173.67" y2="289.91" gradientUnits="userSpaceOnUse"><stop offset="0" stop-color="#8b3dce"/><stop offset="1" stop-color="#b879d9"/></linearGradient><linearGradient id="Áåçûìÿííûé_ãðàäèåíò_24" x1="155.72" y1="289.88" x2="172.64" y2="289.88" gradientUnits="userSpaceOnUse"><stop offset="0" stop-color="#9246d0"/><stop offset="0.31" stop-color="#bd78e3"/><stop offset="0.62" stop-color="#e1a2f2"/><stop offset="0.86" stop-color="#f7bcfb"/><stop offset="1" stop-color="#ffc5ff"/></linearGradient><linearGradient id="Áåçûìÿííûé_ãðàäèåíò_24-2" x1="160.58" y1="288.07" x2="173.71" y2="288.07" xlink:href="#Áåçûìÿííûé_ãðàäèåíò_24"/><linearGradient id="Áåçûìÿííûé_ãðàäèåíò_3-2" x1="144.8" y1="301.29" x2="150.94" y2="272.77" xlink:href="#Áåçûìÿííûé_ãðàäèåíò_3"/><linearGradient id="Áåçûìÿííûé_ãðàäèåíò_8" x1="148.3" y1="280.7" x2="141.9" y2="294.65" gradientUnits="userSpaceOnUse"><stop offset="0" stop-color="#f6afff"/><stop offset="1" stop-color="#b879d9"/></linearGradient><linearGradient id="Áåçûìÿííûé_ãðàäèåíò_48" x1="146.94" y1="300.64" x2="150.17" y2="284.98" gradientUnits="userSpaceOnUse"><stop offset="0" stop-color="#b26ddb"/><stop offset="1" stop-color="#d490eb"/></linearGradient><linearGradient id="Áåçûìÿííûé_ãðàäèåíò_208" x1="214.86" y1="7.5" x2="206.31" y2="22.31" gradientTransform="translate(-33.81)" gradientUnits="userSpaceOnUse"><stop offset="0" stop-color="#ffd2ff"/><stop offset="0.2" stop-color="#ffcaff"/><stop offset="0.48" stop-color="#ffc5ff"/><stop offset="1" stop-color="#f5abff"/></linearGradient><linearGradient id="Áåçûìÿííûé_ãðàäèåíò_208-2" x1="193.85" y1="13.61" x2="190.4" y2="19.6" xlink:href="#Áåçûìÿííûé_ãðàäèåíò_208"/><linearGradient id="Áåçûìÿííûé_ãðàäèåíò_208-3" x1="176.46" y1="4.82" x2="158.41" y2="36.08" xlink:href="#Áåçûìÿííûé_ãðàäèåíò_208"/><linearGradient id="Áåçûìÿííûé_ãðàäèåíò_222" x1="127.55" y1="20.72" x2="120.16" y2="33.53" gradientUnits="userSpaceOnUse"><stop offset="0" stop-color="#c579e9"/><stop offset="1" stop-color="#8b3dce"/></linearGradient><linearGradient id="Áåçûìÿííûé_ãðàäèåíò_208-4" x1="151.49" y1="32.02" x2="132.44" y2="65" xlink:href="#Áåçûìÿííûé_ãðàäèåíò_208"/><linearGradient id="Áåçûìÿííûé_ãðàäèåíò_222-2" x1="104.87" y1="49.32" x2="96.52" y2="63.78" xlink:href="#Áåçûìÿííûé_ãðàäèåíò_222"/><linearGradient id="Áåçûìÿííûé_ãðàäèåíò_208-5" x1="131.1" y1="64.15" x2="109.01" y2="102.4" xlink:href="#Áåçûìÿííûé_ãðàäèåíò_208"/><linearGradient id="Áåçûìÿííûé_ãðàäèåíò_222-3" x1="83.77" y1="88.23" x2="75.49" y2="102.56" xlink:href="#Áåçûìÿííûé_ãðàäèåíò_222"/><linearGradient id="Áåçûìÿííûé_ãðàäèåíò_118" x1="-559.93" y1="28.19" x2="-590.25" y2="80.71" gradientTransform="matrix(-1, 0, 0, 1, -436.68, 0)" gradientUnits="userSpaceOnUse"><stop offset="0" stop-color="#cb89f0"/><stop offset="1" stop-color="#b973e6"/></linearGradient><linearGradient id="Áåçûìÿííûé_ãðàäèåíò_222-4" x1="126.6" y1="124.26" x2="146.34" y2="67.17" xlink:href="#Áåçûìÿííûé_ãðàäèåíò_222"/><linearGradient id="Áåçûìÿííûé_ãðàäèåíò_118-2" x1="157.72" y1="34.86" x2="150.75" y2="94.42" gradientTransform="matrix(1, 0, 0, 1, 0, 0)" xlink:href="#Áåçûìÿííûé_ãðàäèåíò_118"/><filter id="luminosity-noclip-7" x="155.93" y="0" width="59" height="59" filterUnits="userSpaceOnUse" color-interpolation-filters="sRGB"><feFlood flood-color="#fff" result="bg"/><feBlend in="SourceGraphic" in2="bg"/></filter><mask id="mask-7" x="155.93" y="0" width="59" height="59" maskUnits="userSpaceOnUse"><g class="cls-1"><circle class="cls-2" cx="185.42" cy="29.5" r="29.49" transform="translate(-2.33 28.56) rotate(-8.75)"/></g></mask><radialGradient id="Áåçûìÿííûé_ãðàäèåíò_143" cx="-273.59" cy="230.63" r="29.49" gradientTransform="translate(176.83 -328.22) rotate(-51.25)" gradientUnits="userSpaceOnUse"><stop offset="0" stop-color="#00faff"/><stop offset="0.03" stop-color="#00d9e2"/><stop offset="0.08" stop-color="#00a0b1"/><stop offset="0.12" stop-color="#007d93"/><stop offset="0.14" stop-color="#007087"/><stop offset="0.16" stop-color="#00687d"/><stop offset="0.22" stop-color="#004c5c"/><stop offset="0.29" stop-color="#00343f"/><stop offset="0.36" stop-color="#002128"/><stop offset="0.45" stop-color="#001216"/><stop offset="0.55" stop-color="#000809"/><stop offset="0.69" stop-color="#000202"/><stop offset="1"/></radialGradient><filter id="luminosity-noclip-8" x="152.21" y="4.01" width="59" height="59" filterUnits="userSpaceOnUse" color-interpolation-filters="sRGB"><feFlood flood-color="#fff" result="bg"/><feBlend in="SourceGraphic" in2="bg"/></filter><mask id="mask-8" x="152.21" y="4.01" width="59" height="59" maskUnits="userSpaceOnUse"><g class="cls-5"><circle class="cls-6" cx="181.7" cy="33.51" r="29.49" transform="translate(110.14 203.85) rotate(-77.66)"/></g></mask><radialGradient id="Áåçûìÿííûé_ãðàäèåíò_143-2" cx="-278.92" cy="229.41" r="29.49" gradientTransform="translate(517.07 -100.47) rotate(17.66)" xlink:href="#Áåçûìÿííûé_ãðàäèåíò_143"/><filter id="luminosity-noclip-9" x="146.83" y="5.25" width="59" height="59" filterUnits="userSpaceOnUse" color-interpolation-filters="sRGB"><feFlood flood-color="#fff" result="bg"/><feBlend in="SourceGraphic" in2="bg"/></filter><mask id="mask-9" x="146.83" y="5.25" width="59" height="59" maskUnits="userSpaceOnUse"><g class="cls-7"><circle class="cls-8" cx="176.33" cy="34.75" r="29.49" transform="translate(9.14 100.67) rotate(-32.67)"/></g></mask><radialGradient id="Áåçûìÿííûé_ãðàäèåíò_143-3" cx="-282.68" cy="225.38" r="29.49" gradientTransform="translate(323.96 -295.26) rotate(-27.33)" xlink:href="#Áåçûìÿííûé_ãðàäèåíò_143"/><filter id="luminosity-noclip-10" x="137.18" y="201.91" width="59" height="59" filterUnits="userSpaceOnUse" color-interpolation-filters="sRGB"><feFlood flood-color="#fff" result="bg"/><feBlend in="SourceGraphic" in2="bg"/></filter><mask id="mask-10" x="137.18" y="201.91" width="59" height="59" maskUnits="userSpaceOnUse"><g class="cls-9"><circle class="cls-10" cx="166.67" cy="231.41" r="29.49" transform="translate(-53.85 50.58) rotate(-14.88)"/></g></mask><radialGradient id="Áåçûìÿííûé_ãðàäèåíò_143-4" cx="-457.82" cy="315.35" r="29.49" gradientTransform="matrix(0.71, -0.71, 0.71, 0.71, 266.31, -315.5)" xlink:href="#Áåçûìÿííûé_ãðàäèåíò_143"/><filter id="luminosity-noclip-11" x="205.3" y="151.88" width="59" height="59" filterUnits="userSpaceOnUse" color-interpolation-filters="sRGB"><feFlood flood-color="#fff" result="bg"/><feBlend in="SourceGraphic" in2="bg"/></filter><mask id="mask-11" x="205.3" y="151.88" width="59" height="59" maskUnits="userSpaceOnUse"><g class="cls-11"><circle class="cls-12" cx="234.8" cy="181.38" r="29.49" transform="translate(-39.42 68.09) rotate(-15.24)"/></g></mask><radialGradient id="Áåçûìÿííûé_ãðàäèåíò_143-5" cx="-380.43" cy="349.34" r="29.49" gradientTransform="matrix(0.71, -0.7, 0.7, 0.71, 258.94, -334.54)" xlink:href="#Áåçûìÿííûé_ãðàäèåíò_143"/><filter id="luminosity-noclip-12" x="50.75" y="216.8" width="59" height="59" filterUnits="userSpaceOnUse" color-interpolation-filters="sRGB"><feFlood flood-color="#fff" result="bg"/><feBlend in="SourceGraphic" in2="bg"/></filter><mask id="mask-12" x="50.75" y="216.8" width="59" height="59" maskUnits="userSpaceOnUse"><g class="cls-3"><circle class="cls-4" cx="80.25" cy="246.3" r="29.49" transform="translate(-61.75 29.64) rotate(-15.19)"/></g></mask><radialGradient id="Áåçûìÿííûé_ãðàäèåíò_143-6" cx="-513.94" cy="247.95" r="29.49" gradientTransform="matrix(0.71, -0.7, 0.7, 0.71, 270.16, -291.78)" xlink:href="#Áåçûìÿííûé_ãðàäèåíò_143"/></defs><title>Asset 1</title><g class="cls-16"><g id="Layer_2" data-name="Layer 2"><g id="_0" data-name="0"><g id="_1" data-name="1"><path class="cls-17" d="M245.81,227,170.5,185.93l-59.74,34.49L91.24,197.51,0,249l2.65,1.53h89l55.05,31.78c.87.51,6.05.51,6.92,0l92.23-53.24A1.16,1.16,0,0,0,245.81,227Z"/><g class="cls-16"><path class="cls-18" d="M157.23,102.58a1.7,1.7,0,0,0-1.19.23L65.12,155.3l.67.14,90.93-52.5a1.67,1.67,0,0,1,1.19-.22Z"/><path class="cls-19" d="M84.37,240.36l-20-81.2-.67-.14,20,81.2a2,2,0,0,0,1.45,1.62l.67.14A2,2,0,0,1,84.37,240.36Z"/><path class="cls-20" d="M65.79,155.44l-.67-.14A3.52,3.52,0,0,0,63.74,159l.67.14A3.5,3.5,0,0,1,65.79,155.44Z"/><path class="cls-21" d="M179.32,185.54l-20-81.2c-.35-1.41-1.53-2-2.64-1.4l-90.93,52.5a3.5,3.5,0,0,0-1.38,3.72l20,81.2c.35,1.41,1.53,2,2.64,1.39l90.93-52.49A3.51,3.51,0,0,0,179.32,185.54Z"/><polygon class="cls-22" points="175.4 179.32 157.21 105.34 66.42 157.75 84.64 231.73 175.4 179.32"/></g><g class="cls-16"><path class="cls-23" d="M86.1,240.67v2.53a1.41,1.41,0,0,0,.84,1.16l63.84,36.87a4.45,4.45,0,0,0,4,0l90.33-52.5a1.43,1.43,0,0,0,.83-1.15v-2.52Z"/><path class="cls-24" d="M245.11,223.88,181.26,187a4.41,4.41,0,0,0-4,0l-90.34,52.5a1.23,1.23,0,0,0,0,2.32l63.85,36.86a4.45,4.45,0,0,0,4,0l90.33-52.49C246.23,225.57,246.22,224.53,245.11,223.88Z"/></g><path class="cls-13" d="M171.3,198.23a.33.33,0,0,1,0-.14.38.38,0,0,1,0-.15.48.48,0,0,1,.29-.5l4.23-2.44a1.61,1.61,0,0,1,1.48,0l3.56,2.05a.46.46,0,0,1,.28.5.38.38,0,0,1,0,.15.33.33,0,0,1,0,.14.45.45,0,0,1-.28.5l-4.23,2.45a1.7,1.7,0,0,1-1.49,0l-3.55-2.06A.47.47,0,0,1,171.3,198.23Zm7.11-3.44,3.56,2.05a1.63,1.63,0,0,0,1.49,0l4.23-2.44a.47.47,0,0,0,.28-.5.33.33,0,0,0,0-.14.38.38,0,0,0,0-.15.47.47,0,0,0-.28-.5l-3.56-2.05a1.63,1.63,0,0,0-1.49,0l-4.23,2.44a.47.47,0,0,0-.28.5.38.38,0,0,0,0,.15.33.33,0,0,0,0,.14A.47.47,0,0,0,178.41,194.79Zm-13.65,7.88,3.56,2.06a1.69,1.69,0,0,0,1.49,0l4.22-2.44a.49.49,0,0,0,.29-.51.33.33,0,0,0,0-.14.38.38,0,0,0,0-.15.49.49,0,0,0-.29-.5l-3.55-2.05a1.63,1.63,0,0,0-1.49,0l-4.23,2.44a.46.46,0,0,0-.28.5.38.38,0,0,0,0,.15.33.33,0,0,0,0,.14A.45.45,0,0,0,164.76,202.67ZM113.4,246.61l3.56,2a1.63,1.63,0,0,0,1.49,0l4.23-2.44a.47.47,0,0,0,.28-.5.38.38,0,0,0,0-.15.33.33,0,0,0,0-.14.47.47,0,0,0-.28-.5l-3.56-2.06a1.7,1.7,0,0,0-1.49,0l-4.23,2.44a.48.48,0,0,0-.28.51.33.33,0,0,0,0,.14.38.38,0,0,0,0,.15A.48.48,0,0,0,113.4,246.61Zm14.9-22.93,3.56,2a1.63,1.63,0,0,0,1.49,0l4.23-2.44a.47.47,0,0,0,.28-.5.33.33,0,0,0,0-.14.38.38,0,0,0,0-.15.47.47,0,0,0-.28-.5L134,220a1.63,1.63,0,0,0-1.49,0l-4.23,2.44a.47.47,0,0,0-.28.5.38.38,0,0,0,0,.15.33.33,0,0,0,0,.14A.47.47,0,0,0,128.3,223.68ZM142,215.8l3.55,2a1.63,1.63,0,0,0,1.49,0l4.23-2.44a.46.46,0,0,0,.28-.5.33.33,0,0,0,0-.14.38.38,0,0,0,0-.15.46.46,0,0,0-.28-.5l-3.56-2.05a1.63,1.63,0,0,0-1.49,0L142,214.51a.47.47,0,0,0-.29.5.33.33,0,0,0,0,.14.38.38,0,0,0,0,.15A.48.48,0,0,0,142,215.8Zm13.65-7.88,3.55,2.05a1.63,1.63,0,0,0,1.49,0l6.43-3.71a.46.46,0,0,0,.28-.5.38.38,0,0,0,0-.15.33.33,0,0,0,0-.14.45.45,0,0,0-.28-.5l-3.56-2.06a1.67,1.67,0,0,0-1.48,0l-6.43,3.72a.47.47,0,0,0-.29.5.33.33,0,0,0,0,.14.38.38,0,0,0,0,.15A.49.49,0,0,0,155.61,207.92Zm-6.83,3.94,3.56,2a1.63,1.63,0,0,0,1.49,0l4.22-2.44a.48.48,0,0,0,.29-.5.38.38,0,0,0,0-.15.33.33,0,0,0,0-.14.48.48,0,0,0-.29-.5l-3.55-2.05a1.63,1.63,0,0,0-1.49,0l-4.23,2.44a.45.45,0,0,0-.28.5.33.33,0,0,0,0,.14.38.38,0,0,0,0,.15A.46.46,0,0,0,148.78,211.86Zm-13.65,7.88,3.56,2a1.61,1.61,0,0,0,1.48,0l4.23-2.44a.47.47,0,0,0,.29-.5.33.33,0,0,0,0-.14.38.38,0,0,0,0-.15.48.48,0,0,0-.29-.5L140.85,216a1.63,1.63,0,0,0-1.49,0l-4.23,2.44a.46.46,0,0,0-.28.5.33.33,0,0,0,0,.14.38.38,0,0,0,0,.15A.46.46,0,0,0,135.13,219.74Zm29-9.53,3.55,2a1.63,1.63,0,0,0,1.49,0l4.23-2.44a.47.47,0,0,0,.28-.5.33.33,0,0,0,0-.14.38.38,0,0,0,0-.15.47.47,0,0,0-.28-.5l-3.56-2.05a1.63,1.63,0,0,0-1.49,0l-4.22,2.44c-.24.14-.33.32-.29.5a.38.38,0,0,0,0,.15.33.33,0,0,0,0,.14C163.84,209.89,163.93,210.07,164.17,210.21Zm-54.61,31.53,3.55,2a1.63,1.63,0,0,0,1.49,0l4.23-2.44a.46.46,0,0,0,.28-.5.33.33,0,0,0,0-.14.38.38,0,0,0,0-.15.46.46,0,0,0-.28-.5L115.27,238a1.61,1.61,0,0,0-1.48,0l-4.23,2.44a.45.45,0,0,0-.28.5.17.17,0,0,0,0,.14.2.2,0,0,0,0,.15A.46.46,0,0,0,109.56,241.74Zm47.78-27.59,3.56,2.06a1.67,1.67,0,0,0,1.48,0l4.23-2.45a.45.45,0,0,0,.28-.5.33.33,0,0,0,0-.14.38.38,0,0,0,0-.15.46.46,0,0,0-.28-.5l-3.55-2.05a1.63,1.63,0,0,0-1.49,0l-4.23,2.44a.46.46,0,0,0-.28.5.38.38,0,0,0,0,.15.33.33,0,0,0,0,.14A.45.45,0,0,0,157.34,214.15Zm-6.83,3.94,3.56,2.06a1.7,1.7,0,0,0,1.49,0l4.23-2.44a.48.48,0,0,0,.28-.51.33.33,0,0,0,0-.14.33.33,0,0,0,0-.14.48.48,0,0,0-.28-.51l-3.56-2a1.63,1.63,0,0,0-1.49,0l-4.23,2.44a.47.47,0,0,0-.28.5.38.38,0,0,0,0,.15.33.33,0,0,0,0,.14A.47.47,0,0,0,150.51,218.09ZM143.69,222l3.55,2.06a1.7,1.7,0,0,0,1.49,0l4.23-2.44a.47.47,0,0,0,.28-.51.33.33,0,0,0,0-.14.33.33,0,0,0,0-.14.47.47,0,0,0-.28-.51l-3.56-2a1.61,1.61,0,0,0-1.48,0l-4.23,2.44a.49.49,0,0,0-.29.5.38.38,0,0,0,0,.15.33.33,0,0,0,0,.14A.47.47,0,0,0,143.69,222ZM116.38,237.8l3.56,2a1.63,1.63,0,0,0,1.49,0l4.23-2.44a.47.47,0,0,0,.28-.5.38.38,0,0,0,0-.15.33.33,0,0,0,0-.14.47.47,0,0,0-.28-.5l-3.56-2.05a1.63,1.63,0,0,0-1.49,0l-4.23,2.44a.47.47,0,0,0-.28.5.33.33,0,0,0,0,.14.38.38,0,0,0,0,.15A.47.47,0,0,0,116.38,237.8Zm6.83-3.94,3.56,2a1.61,1.61,0,0,0,1.48,0l4.23-2.44a.48.48,0,0,0,.29-.5.38.38,0,0,0,0-.15.33.33,0,0,0,0-.14.47.47,0,0,0-.29-.5c-5.23-3-3.46-3-9.27.39a.45.45,0,0,0-.28.5.33.33,0,0,0,0,.14.38.38,0,0,0,0,.15A.46.46,0,0,0,123.21,233.86Zm6.83-3.94,3.55,2.05a1.63,1.63,0,0,0,1.49,0l4.23-2.44a.46.46,0,0,0,.28-.5.38.38,0,0,0,0-.15.33.33,0,0,0,0-.14.45.45,0,0,0-.28-.5l-3.56-2.06a1.69,1.69,0,0,0-1.49,0L130,228.62a.49.49,0,0,0-.29.51.33.33,0,0,0,0,.14.33.33,0,0,0,0,.14A.49.49,0,0,0,130,229.92Zm6.82-3.94c3.49,2,4.1,2.6,5,2.05l4.22-2.44a.49.49,0,0,0,.29-.5.38.38,0,0,0,0-.15.33.33,0,0,0,0-.14.47.47,0,0,0-.29-.5l-3.55-2.06a1.7,1.7,0,0,0-1.49,0l-4.23,2.44a.47.47,0,0,0-.28.51.33.33,0,0,0,0,.14.33.33,0,0,0,0,.14A.47.47,0,0,0,136.86,226Zm-12.17,26a.33.33,0,0,0,0-.14.38.38,0,0,0,0-.15.46.46,0,0,0-.28-.5l-3.56-2a1.63,1.63,0,0,0-1.49,0l-6.42,3.71c-.24.14-.33.32-.29.5a.38.38,0,0,0,0,.15.33.33,0,0,0,0,.14.46.46,0,0,0,.29.5l3.55,2.06a1.7,1.7,0,0,0,1.49,0l6.43-3.72A.45.45,0,0,0,124.69,252Zm-8.56-2.29a.38.38,0,0,0,0-.15.33.33,0,0,0,0-.14.45.45,0,0,0-.28-.5l-3.56-2.06a1.67,1.67,0,0,0-1.48,0l-4.23,2.45a.45.45,0,0,0-.28.5.33.33,0,0,0,0,.14.38.38,0,0,0,0,.15.46.46,0,0,0,.28.5l3.55,2a1.63,1.63,0,0,0,1.49,0l4.23-2.44A.46.46,0,0,0,116.13,249.66Zm5.35-22c5.12,3,3.35,3,9.27-.39a.45.45,0,0,0,.28-.5.33.33,0,0,0,0-.14.38.38,0,0,0,0-.15.46.46,0,0,0-.28-.5l-3.56-2.05a1.61,1.61,0,0,0-1.48,0l-4.23,2.44a.46.46,0,0,0-.28.5.19.19,0,0,0,0,.15.17.17,0,0,0,0,.14A.45.45,0,0,0,121.48,227.62ZM193,212.57a.33.33,0,0,0,0-.14.38.38,0,0,0,0-.15.46.46,0,0,0-.28-.5l-3.56-2.05a1.63,1.63,0,0,0-1.49,0l-4.22,2.44a.48.48,0,0,0-.29.5.38.38,0,0,0,0,.15.33.33,0,0,0,0,.14.48.48,0,0,0,.29.5l3.55,2a1.63,1.63,0,0,0,1.49,0l4.23-2.44A.45.45,0,0,0,193,212.57Zm-80.71,32.22a.33.33,0,0,0,0-.14.38.38,0,0,0,0-.15c0-.18-.05-.36-.29-.5L108.45,242a1.63,1.63,0,0,0-1.49,0l-6.43,3.71a.46.46,0,0,0-.28.5.33.33,0,0,0,0,.14.38.38,0,0,0,0,.15.46.46,0,0,0,.28.5l3.56,2.05a1.63,1.63,0,0,0,1.49,0l6.42-3.71C112.24,245.15,112.33,245,112.29,244.79Zm2.36-13.23,3.56,2.06a1.7,1.7,0,0,0,1.49,0l4.22-2.44a.48.48,0,0,0,.29-.51.33.33,0,0,0,0-.14.38.38,0,0,0,0-.15.47.47,0,0,0-.29-.5l-3.55-2a1.63,1.63,0,0,0-1.49,0l-4.23,2.44a.47.47,0,0,0-.28.5.38.38,0,0,0,0,.15.33.33,0,0,0,0,.14A.47.47,0,0,0,114.65,231.56Zm-6.82,3.94,3.55,2.06a1.7,1.7,0,0,0,1.49,0l4.23-2.44a.47.47,0,0,0,.28-.51.33.33,0,0,0,0-.14.33.33,0,0,0,0-.14.47.47,0,0,0-.28-.51l-3.56-2a1.63,1.63,0,0,0-1.49,0l-4.22,2.44a.49.49,0,0,0-.29.5.38.38,0,0,0,0,.15.33.33,0,0,0,0,.14A.47.47,0,0,0,107.83,235.5Zm-4.1,7a.38.38,0,0,0,0-.15.33.33,0,0,0,0-.14.47.47,0,0,0-.28-.5l-3.56-2.06a1.7,1.7,0,0,0-1.49,0l-4.22,2.44a.48.48,0,0,0-.29.51.33.33,0,0,0,0,.14.33.33,0,0,0,0,.14.48.48,0,0,0,.29.51l3.55,2.05a1.63,1.63,0,0,0,1.49,0l4.23-2.44A.47.47,0,0,0,103.73,242.5ZM101,239.45l3.56,2.05a1.61,1.61,0,0,0,1.48,0l4.23-2.44a.49.49,0,0,0,.29-.5.38.38,0,0,0,0-.15.33.33,0,0,0,0-.14.47.47,0,0,0-.29-.5l-3.55-2.06a1.7,1.7,0,0,0-1.49,0L101,238.15a.47.47,0,0,0-.28.51.33.33,0,0,0,0,.14.33.33,0,0,0,0,.14A.47.47,0,0,0,101,239.45ZM212.89,208a.46.46,0,0,0-.28-.5l-3.56-2.05a1.61,1.61,0,0,0-1.48,0l-4.23,2.44a.46.46,0,0,0-.28.5.2.2,0,0,0,0,.15.17.17,0,0,0,0,.14.46.46,0,0,0,.28.5l3.55,2a1.63,1.63,0,0,0,1.49,0l4.23-2.44a.45.45,0,0,0,.28-.5.33.33,0,0,0,0-.14A.38.38,0,0,0,212.89,208Zm-27,7.69-3.55-2.05a1.63,1.63,0,0,0-1.49,0l-4.23,2.44a.46.46,0,0,0-.28.5.38.38,0,0,0,0,.15.33.33,0,0,0,0,.14.45.45,0,0,0,.28.5l3.56,2.06a1.67,1.67,0,0,0,1.48,0l4.23-2.45a.45.45,0,0,0,.28-.5.33.33,0,0,0,0-.14.38.38,0,0,0,0-.15A.46.46,0,0,0,185.84,215.69Zm13.7-7.85L196,205.79a1.63,1.63,0,0,0-1.49,0l-4.23,2.44a.47.47,0,0,0-.28.5.33.33,0,0,0,0,.14.38.38,0,0,0,0,.15.47.47,0,0,0,.28.5l3.56,2a1.63,1.63,0,0,0,1.49,0l4.22-2.44c.24-.14.33-.32.29-.5a.33.33,0,0,0,0-.14.38.38,0,0,0,0-.15C199.87,208.16,199.78,208,199.54,207.84Zm-27.35,15.73-3.56-2a1.61,1.61,0,0,0-1.48,0L162.92,224a.49.49,0,0,0-.29.5.38.38,0,0,0,0,.15.33.33,0,0,0,0,.14.49.49,0,0,0,.29.51l3.55,2.05a1.7,1.7,0,0,0,1.49,0l4.23-2.44a.46.46,0,0,0,.28-.5.38.38,0,0,0,0-.15.33.33,0,0,0,0-.14A.47.47,0,0,0,172.19,223.57Zm24.63-18.78a.17.17,0,0,0,0,.14.2.2,0,0,0,0,.15.46.46,0,0,0,.28.5l3.55,2a1.63,1.63,0,0,0,1.49,0l4.23-2.44a.46.46,0,0,0,.28-.5.38.38,0,0,0,0-.15.33.33,0,0,0,0-.14.46.46,0,0,0-.28-.5l-3.56-2.05a1.61,1.61,0,0,0-1.48,0l-4.23,2.44A.45.45,0,0,0,196.82,204.79Zm-51.93,34.55-3.56-2.05a1.63,1.63,0,0,0-1.49,0l-4.23,2.44a.47.47,0,0,0-.28.5.33.33,0,0,0,0,.14.38.38,0,0,0,0,.15.47.47,0,0,0,.28.5l3.56,2a1.63,1.63,0,0,0,1.49,0l4.23-2.44a.47.47,0,0,0,.28-.5.38.38,0,0,0,0-.15.33.33,0,0,0,0-.14A.47.47,0,0,0,144.89,239.34Zm13.65-7.88L155,229.4a1.7,1.7,0,0,0-1.49,0l-4.22,2.44a.48.48,0,0,0-.29.51.33.33,0,0,0,0,.14.38.38,0,0,0,0,.15.47.47,0,0,0,.29.5l3.55,2.05a1.63,1.63,0,0,0,1.49,0l4.23-2.44a.47.47,0,0,0,.28-.5.38.38,0,0,0,0-.15.33.33,0,0,0,0-.14A.47.47,0,0,0,158.54,231.46Zm-6.83,3.94-3.55-2.06a1.69,1.69,0,0,0-1.49,0l-4.23,2.45a.45.45,0,0,0-.28.5.33.33,0,0,0,0,.14.38.38,0,0,0,0,.15.46.46,0,0,0,.28.5l3.56,2a1.61,1.61,0,0,0,1.48,0l4.23-2.44a.48.48,0,0,0,.29-.5.38.38,0,0,0,0-.15.33.33,0,0,0,0-.14A.48.48,0,0,0,151.71,235.4Zm-13.65,7.88-3.56-2.05a1.61,1.61,0,0,0-1.48,0l-4.23,2.44a.48.48,0,0,0-.29.5.33.33,0,0,0,0,.14.38.38,0,0,0,0,.15.48.48,0,0,0,.29.5l3.55,2a1.63,1.63,0,0,0,1.49,0l4.23-2.44a.46.46,0,0,0,.28-.5.33.33,0,0,0,0-.14.38.38,0,0,0,0-.15A.46.46,0,0,0,138.06,243.28Zm-6.83,3.94-3.55-2.05a1.63,1.63,0,0,0-1.49,0L122,247.61a.46.46,0,0,0-.28.5.33.33,0,0,0,0,.14.38.38,0,0,0,0,.15.46.46,0,0,0,.28.5l3.56,2a1.63,1.63,0,0,0,1.49,0l4.22-2.44a.47.47,0,0,0,.29-.5.33.33,0,0,0,0-.14.38.38,0,0,0,0-.15A.48.48,0,0,0,131.23,247.22Zm34.13-19.7-3.55-2.06a1.7,1.7,0,0,0-1.49,0l-4.23,2.44a.47.47,0,0,0-.28.51.33.33,0,0,0,0,.14.33.33,0,0,0,0,.14.47.47,0,0,0,.28.51l3.56,2.05a1.63,1.63,0,0,0,1.49,0l4.22-2.44a.48.48,0,0,0,.29-.5.38.38,0,0,0,0-.15.33.33,0,0,0,0-.14A.47.47,0,0,0,165.36,227.52ZM179,219.63l-3.55-2a1.63,1.63,0,0,0-1.49,0L169.74,220a.47.47,0,0,0-.28.5.38.38,0,0,0,0,.15.33.33,0,0,0,0,.14.47.47,0,0,0,.28.5l3.56,2.06a1.7,1.7,0,0,0,1.49,0l4.22-2.44a.48.48,0,0,0,.29-.51.33.33,0,0,0,0-.14.33.33,0,0,0,0-.14A.48.48,0,0,0,179,219.63Zm-37.13,28.5-3.56-2a1.61,1.61,0,0,0-1.48,0l-4.23,2.44a.46.46,0,0,0-.28.5.38.38,0,0,0,0,.15.33.33,0,0,0,0,.14.45.45,0,0,0,.28.5l3.55,2.06a1.69,1.69,0,0,0,1.49,0l4.23-2.45a.45.45,0,0,0,.28-.5.33.33,0,0,0,0-.14.38.38,0,0,0,0-.15A.46.46,0,0,0,141.88,248.13Zm6.83-3.94-3.56-2.05a1.63,1.63,0,0,0-1.49,0l-4.23,2.44a.47.47,0,0,0-.28.5.38.38,0,0,0,0,.15.33.33,0,0,0,0,.14.47.47,0,0,0,.28.5l3.56,2a1.63,1.63,0,0,0,1.49,0l4.23-2.44a.47.47,0,0,0,.28-.5.33.33,0,0,0,0-.14.38.38,0,0,0,0-.15A.47.47,0,0,0,148.71,244.19Zm-13.66,7.88-3.55-2a1.63,1.63,0,0,0-1.49,0l-4.23,2.44a.47.47,0,0,0-.28.5.38.38,0,0,0,0,.15.33.33,0,0,0,0,.14.47.47,0,0,0,.28.5l3.56,2.06a1.7,1.7,0,0,0,1.49,0l4.22-2.44a.48.48,0,0,0,.29-.51.33.33,0,0,0,0-.14.38.38,0,0,0,0-.15A.47.47,0,0,0,135.05,252.07ZM128.23,256l-3.56-2a1.61,1.61,0,0,0-1.48,0L119,256.4a.49.49,0,0,0-.29.5.38.38,0,0,0,0,.15.33.33,0,0,0,0,.14.47.47,0,0,0,.29.5l3.55,2.06a1.7,1.7,0,0,0,1.49,0l4.23-2.44a.47.47,0,0,0,.28-.51.33.33,0,0,0,0-.14.33.33,0,0,0,0-.14A.47.47,0,0,0,128.23,256Zm51.25-43.88-3.55-2a1.63,1.63,0,0,0-1.49,0L168,213.79a.45.45,0,0,0-.28.5.33.33,0,0,0,0,.14.38.38,0,0,0,0,.15.46.46,0,0,0,.28.5l3.56,2a1.61,1.61,0,0,0,1.48,0l6.43-3.71a.48.48,0,0,0,.29-.5.38.38,0,0,0,0-.15.33.33,0,0,0,0-.14A.48.48,0,0,0,179.48,212.13Zm12.34,7.17-3.55-2.05a1.63,1.63,0,0,0-1.49,0L180.35,221a.45.45,0,0,0-.28.5.33.33,0,0,0,0,.14.38.38,0,0,0,0,.15.46.46,0,0,0,.28.5l3.55,2.05a1.63,1.63,0,0,0,1.49,0l6.43-3.71a.46.46,0,0,0,.28-.5.38.38,0,0,0,0-.15.33.33,0,0,0,0-.14A.46.46,0,0,0,191.82,219.3Zm14-7.86-3.55-2.05a1.63,1.63,0,0,0-1.49,0l-4.23,2.44a.47.47,0,0,0-.28.5.38.38,0,0,0,0,.15.33.33,0,0,0,0,.14.47.47,0,0,0,.28.5l3.56,2.06a1.7,1.7,0,0,0,1.49,0l4.22-2.45a.46.46,0,0,0,.29-.5.33.33,0,0,0,0-.14.38.38,0,0,0,0-.15A.47.47,0,0,0,205.78,211.44ZM199,215.38l-3.56-2a1.61,1.61,0,0,0-1.48,0l-4.23,2.44a.48.48,0,0,0-.29.5.38.38,0,0,0,0,.15.33.33,0,0,0,0,.14.47.47,0,0,0,.29.5l3.55,2.06a1.7,1.7,0,0,0,1.49,0l4.23-2.44a.47.47,0,0,0,.28-.51.33.33,0,0,0,0-.14.33.33,0,0,0,0-.14A.47.47,0,0,0,199,215.38Zm-16,9.11-3.56-2.05a1.63,1.63,0,0,0-1.49,0l-31.61,18.25a.46.46,0,0,0-.28.5.38.38,0,0,0,0,.15.33.33,0,0,0,0,.14.45.45,0,0,0,.28.5l3.56,2.06a1.67,1.67,0,0,0,1.48,0L183,225.78a.45.45,0,0,0,.28-.5.33.33,0,0,0,0-.14.38.38,0,0,0,0-.15A.46.46,0,0,0,183,224.49Zm-26.14.73-3.56-2.05a1.63,1.63,0,0,0-1.49,0l-4.23,2.44a.47.47,0,0,0-.28.5.38.38,0,0,0,0,.15.33.33,0,0,0,0,.14.47.47,0,0,0,.28.5l3.56,2a1.63,1.63,0,0,0,1.49,0l4.23-2.44a.47.47,0,0,0,.28-.5.33.33,0,0,0,0-.14.38.38,0,0,0,0-.15A.47.47,0,0,0,156.81,225.22ZM150,229.16l-3.56-2a1.61,1.61,0,0,0-1.48,0l-4.23,2.44a.48.48,0,0,0-.29.5.38.38,0,0,0,0,.15.33.33,0,0,0,0,.14.47.47,0,0,0,.29.5l3.55,2.06a1.7,1.7,0,0,0,1.49,0l4.23-2.45a.45.45,0,0,0,.28-.5.33.33,0,0,0,0-.14.38.38,0,0,0,0-.15A.46.46,0,0,0,150,229.16Zm13.65-7.88-3.55-2.05a1.63,1.63,0,0,0-1.49,0l-4.23,2.44a.46.46,0,0,0-.28.5.38.38,0,0,0,0,.15.33.33,0,0,0,0,.14.46.46,0,0,0,.28.5l3.56,2a1.61,1.61,0,0,0,1.48,0l4.23-2.44a.45.45,0,0,0,.28-.5.17.17,0,0,0,0-.14.19.19,0,0,0,0-.15A.46.46,0,0,0,163.63,221.28Zm20.73-23.68a.33.33,0,0,0,0,.14.33.33,0,0,0,0,.14.47.47,0,0,0,.28.51l3.55,2.05a1.63,1.63,0,0,0,1.49,0l4.23-2.44a.46.46,0,0,0,.28-.5.38.38,0,0,0,0-.15.33.33,0,0,0,0-.14.45.45,0,0,0-.28-.5l-3.56-2.06a1.67,1.67,0,0,0-1.48,0l-4.23,2.44A.47.47,0,0,0,184.36,197.6Zm-13.9,19.74-3.56-2.05a1.63,1.63,0,0,0-1.49,0l-4.22,2.44c-.24.14-.33.32-.29.5a.33.33,0,0,0,0,.14.38.38,0,0,0,0,.15c0,.18,0,.36.29.5l3.55,2a1.63,1.63,0,0,0,1.49,0l4.23-2.44a.47.47,0,0,0,.28-.5.33.33,0,0,0,0-.14.38.38,0,0,0,0-.15A.47.47,0,0,0,170.46,217.34ZM143.15,233.1l-3.55-2a1.63,1.63,0,0,0-1.49,0l-4.23,2.44a.46.46,0,0,0-.28.5.38.38,0,0,0,0,.15.33.33,0,0,0,0,.14.45.45,0,0,0,.28.5l3.56,2.06a1.69,1.69,0,0,0,1.49,0l4.22-2.44a.49.49,0,0,0,.29-.51.33.33,0,0,0,0-.14.33.33,0,0,0,0-.14A.49.49,0,0,0,143.15,233.1ZM129.5,241,126,238.93a1.7,1.7,0,0,0-1.49,0l-4.23,2.44a.47.47,0,0,0-.28.51.33.33,0,0,0,0,.14.33.33,0,0,0,0,.14.47.47,0,0,0,.28.51l3.56,2.05a1.61,1.61,0,0,0,1.48,0l4.23-2.44a.49.49,0,0,0,.29-.5.38.38,0,0,0,0-.15.33.33,0,0,0,0-.14A.47.47,0,0,0,129.5,241Zm6.83-4-3.56-2a1.63,1.63,0,0,0-1.49,0l-4.22,2.44a.49.49,0,0,0-.29.5.38.38,0,0,0,0,.15.33.33,0,0,0,0,.14.47.47,0,0,0,.29.5l3.55,2.06a1.7,1.7,0,0,0,1.49,0l4.23-2.44a.46.46,0,0,0,.28-.5.38.38,0,0,0,0-.15.33.33,0,0,0,0-.14A.47.47,0,0,0,136.33,237Z"/><path class="cls-25" d="M103.45,242.38l-4.23,2.44a1.63,1.63,0,0,1-1.49,0l-3.55-2c-.42-.24-.42-.63,0-.86l4.22-2.44a1.63,1.63,0,0,1,1.49,0l3.56,2.05A.45.45,0,0,1,103.45,242.38Zm6.82-4.8-3.55-2.06a1.7,1.7,0,0,0-1.49,0L101,238a.45.45,0,0,0,0,.85l3.56,2.06a1.67,1.67,0,0,0,1.48,0l4.23-2.44A.45.45,0,0,0,110.27,237.58Zm6.83-3.94-3.56-2.06a1.69,1.69,0,0,0-1.49,0L107.83,234a.45.45,0,0,0,0,.86l3.55,2.06a1.7,1.7,0,0,0,1.49,0l4.23-2.44A.45.45,0,0,0,117.1,233.64Zm6.82-3.94-3.55-2.06a1.7,1.7,0,0,0-1.49,0l-4.23,2.44a.45.45,0,0,0,0,.86l3.56,2.06a1.7,1.7,0,0,0,1.49,0l4.22-2.45A.45.45,0,0,0,123.92,229.7Zm6.83-3.95-3.56-2.05a1.61,1.61,0,0,0-1.48,0l-4.23,2.44a.45.45,0,0,0,0,.86l3.55,2.05a1.63,1.63,0,0,0,1.49,0l4.23-2.44A.45.45,0,0,0,130.75,225.75Zm6.83-3.94L134,219.76a1.63,1.63,0,0,0-1.49,0l-4.23,2.44a.45.45,0,0,0,0,.86l3.56,2.05a1.63,1.63,0,0,0,1.49,0l4.23-2.44A.45.45,0,0,0,137.58,221.81Zm6.82-3.94-3.55-2.05a1.63,1.63,0,0,0-1.49,0l-4.23,2.44a.45.45,0,0,0,0,.86l3.56,2a1.61,1.61,0,0,0,1.48,0l4.23-2.44A.45.45,0,0,0,144.4,217.87Zm6.83-3.94-3.56-2.05a1.63,1.63,0,0,0-1.49,0L142,214.32a.45.45,0,0,0,0,.86l3.55,2a1.63,1.63,0,0,0,1.49,0l4.23-2.44A.45.45,0,0,0,151.23,213.93Zm6.82-3.94-3.55-2.05a1.63,1.63,0,0,0-1.49,0l-4.23,2.44a.45.45,0,0,0,0,.86l3.56,2a1.63,1.63,0,0,0,1.49,0l4.22-2.44A.45.45,0,0,0,158.05,210Zm9-5.21-3.56-2.05a1.61,1.61,0,0,0-1.48,0l-6.43,3.71a.45.45,0,0,0,0,.86l3.55,2a1.63,1.63,0,0,0,1.49,0l6.43-3.71A.45.45,0,0,0,167.08,204.78Zm25.64,6.81-3.56-2.05a1.61,1.61,0,0,0-1.48,0L183.45,212a.45.45,0,0,0,0,.86l3.55,2a1.63,1.63,0,0,0,1.49,0l4.23-2.44A.45.45,0,0,0,192.72,211.59Zm6.82-3.94L196,205.6a1.63,1.63,0,0,0-1.49,0L190.27,208a.45.45,0,0,0,0,.86l3.56,2a1.63,1.63,0,0,0,1.49,0l4.22-2.44A.45.45,0,0,0,199.54,207.65Zm6.83-3.94-3.56-2.05a1.61,1.61,0,0,0-1.48,0l-4.23,2.44a.45.45,0,0,0,0,.86l3.55,2a1.63,1.63,0,0,0,1.49,0l4.23-2.44A.45.45,0,0,0,206.37,203.71ZM199,215.2l-3.56-2.06a1.67,1.67,0,0,0-1.48,0l-4.23,2.44a.45.45,0,0,0,0,.86l3.55,2.06a1.7,1.7,0,0,0,1.49,0l4.23-2.45A.45.45,0,0,0,199,215.2Zm6.82-3.95-3.55-2.05a1.63,1.63,0,0,0-1.49,0l-4.23,2.44a.45.45,0,0,0,0,.86l3.56,2.05a1.63,1.63,0,0,0,1.49,0l4.22-2.44A.45.45,0,0,0,205.78,211.25Zm6.83-3.94-3.56-2.05a1.61,1.61,0,0,0-1.48,0l-4.23,2.44a.45.45,0,0,0,0,.86l3.55,2.05a1.63,1.63,0,0,0,1.49,0l4.23-2.44A.45.45,0,0,0,212.61,207.31ZM112,243.81l-3.55-2.05a1.63,1.63,0,0,0-1.49,0l-6.43,3.71a.45.45,0,0,0,0,.86l3.56,2a1.63,1.63,0,0,0,1.49,0l6.42-3.71A.45.45,0,0,0,112,243.81Zm6.83-3.94-3.56-2.05a1.61,1.61,0,0,0-1.48,0l-4.23,2.44a.45.45,0,0,0,0,.86l3.55,2a1.63,1.63,0,0,0,1.49,0l4.23-2.44A.45.45,0,0,0,118.83,239.87Zm6.83-3.94-3.56-2.05a1.63,1.63,0,0,0-1.49,0l-4.23,2.44a.45.45,0,0,0,0,.86l3.56,2a1.63,1.63,0,0,0,1.49,0l4.23-2.44A.45.45,0,0,0,125.66,235.93Zm6.82-3.94-3.55-2.05a1.63,1.63,0,0,0-1.49,0l-4.23,2.44a.45.45,0,0,0,0,.86l3.56,2a1.61,1.61,0,0,0,1.48,0l4.23-2.44A.45.45,0,0,0,132.48,232Zm6.83-3.94L135.75,226a1.63,1.63,0,0,0-1.49,0L130,228.44a.45.45,0,0,0,0,.86l3.55,2a1.63,1.63,0,0,0,1.49,0l4.23-2.44A.45.45,0,0,0,139.31,228.05Zm6.82-3.94-3.55-2.06a1.7,1.7,0,0,0-1.49,0l-4.23,2.45a.45.45,0,0,0,0,.85l3.56,2.06a1.69,1.69,0,0,0,1.49,0l4.22-2.44A.45.45,0,0,0,146.13,224.11Zm6.83-3.94-3.56-2.06a1.67,1.67,0,0,0-1.48,0l-4.23,2.44a.45.45,0,0,0,0,.86l3.55,2.06a1.7,1.7,0,0,0,1.49,0L153,221A.45.45,0,0,0,153,220.17Zm6.83-3.94-3.56-2.06a1.7,1.7,0,0,0-1.49,0l-4.23,2.44a.45.45,0,0,0,0,.86l3.56,2.06a1.7,1.7,0,0,0,1.49,0l4.23-2.45A.45.45,0,0,0,159.79,216.23Zm6.82-3.95-3.55-2.05a1.63,1.63,0,0,0-1.49,0l-4.23,2.44a.45.45,0,0,0,0,.86l3.56,2.05a1.61,1.61,0,0,0,1.48,0l4.23-2.44A.45.45,0,0,0,166.61,212.28Zm6.83-3.94-3.56-2.05a1.63,1.63,0,0,0-1.49,0l-4.22,2.44a.45.45,0,0,0,0,.86l3.55,2a1.63,1.63,0,0,0,1.49,0l4.23-2.44A.45.45,0,0,0,173.44,208.34Zm-57.59,40.34-3.56-2.05a1.61,1.61,0,0,0-1.48,0l-4.23,2.44a.45.45,0,0,0,0,.86l3.55,2a1.63,1.63,0,0,0,1.49,0l4.23-2.44A.45.45,0,0,0,115.85,248.68Zm6.83-3.94-3.56-2.05a1.63,1.63,0,0,0-1.49,0l-4.23,2.44a.45.45,0,0,0,0,.86l3.56,2a1.63,1.63,0,0,0,1.49,0l4.23-2.44A.45.45,0,0,0,122.68,244.74Zm6.82-3.94L126,238.75a1.63,1.63,0,0,0-1.49,0l-4.23,2.44a.45.45,0,0,0,0,.85l3.56,2.06a1.67,1.67,0,0,0,1.48,0l4.23-2.44A.45.45,0,0,0,129.5,240.8Zm6.83-3.94-3.56-2.06a1.69,1.69,0,0,0-1.49,0l-4.22,2.45a.45.45,0,0,0,0,.85l3.55,2.06a1.7,1.7,0,0,0,1.49,0l4.23-2.44A.45.45,0,0,0,136.33,236.86Zm-8.1,19-3.56-2.06a1.67,1.67,0,0,0-1.48,0L119,256.21a.45.45,0,0,0,0,.86l3.55,2.06a1.7,1.7,0,0,0,1.49,0l4.23-2.44A.45.45,0,0,0,128.23,255.83Zm6.82-3.94-3.55-2.06a1.7,1.7,0,0,0-1.49,0l-4.23,2.44a.45.45,0,0,0,0,.86l3.56,2.06a1.7,1.7,0,0,0,1.49,0l4.22-2.45A.45.45,0,0,0,135.05,251.89Zm6.83-3.95-3.56-2.05a1.61,1.61,0,0,0-1.48,0l-4.23,2.44a.45.45,0,0,0,0,.86l3.55,2.05a1.63,1.63,0,0,0,1.49,0l4.23-2.44A.45.45,0,0,0,141.88,247.94Zm6.83-3.94L145.15,242a1.63,1.63,0,0,0-1.49,0l-4.23,2.44a.45.45,0,0,0,0,.86L143,247.3a1.63,1.63,0,0,0,1.49,0l4.23-2.44A.45.45,0,0,0,148.71,244Zm43.11-24.89-3.55-2.05a1.63,1.63,0,0,0-1.49,0l-6.43,3.71a.45.45,0,0,0,0,.86l3.55,2.05a1.63,1.63,0,0,0,1.49,0l6.43-3.71A.45.45,0,0,0,191.82,219.11Zm-48.67,13.81-3.55-2.06a1.7,1.7,0,0,0-1.49,0l-4.23,2.44a.45.45,0,0,0,0,.86l3.56,2.06a1.69,1.69,0,0,0,1.49,0l4.22-2.45A.45.45,0,0,0,143.15,232.92ZM150,229l-3.56-2.06a1.67,1.67,0,0,0-1.48,0l-4.23,2.44a.45.45,0,0,0,0,.86l3.55,2.05a1.63,1.63,0,0,0,1.49,0l4.23-2.44A.45.45,0,0,0,150,229Zm6.83-3.95L153.25,223a1.63,1.63,0,0,0-1.49,0l-4.23,2.44a.45.45,0,0,0,0,.86l3.56,2.05a1.63,1.63,0,0,0,1.49,0l4.23-2.44A.45.45,0,0,0,156.81,225Zm6.82-3.94L160.08,219a1.63,1.63,0,0,0-1.49,0l-4.23,2.44a.45.45,0,0,0,0,.86l3.56,2a1.61,1.61,0,0,0,1.48,0l4.23-2.44A.45.45,0,0,0,163.63,221.09Zm6.83-3.94-3.56-2.05a1.63,1.63,0,0,0-1.49,0l-4.22,2.44a.45.45,0,0,0,0,.86l3.55,2a1.63,1.63,0,0,0,1.49,0l4.23-2.44A.45.45,0,0,0,170.46,217.15Zm9-5.21-3.55-2.05a1.63,1.63,0,0,0-1.49,0L168,213.6a.45.45,0,0,0,0,.86l3.56,2a1.61,1.61,0,0,0,1.48,0l6.43-3.71A.45.45,0,0,0,179.48,211.94Zm-55.07,39-3.56-2.05a1.63,1.63,0,0,0-1.49,0l-6.42,3.71a.45.45,0,0,0,0,.86l3.55,2a1.63,1.63,0,0,0,1.49,0l6.43-3.71A.45.45,0,0,0,124.41,251Zm6.82-3.94L127.68,245a1.63,1.63,0,0,0-1.49,0L122,247.42a.45.45,0,0,0,0,.86l3.56,2.05a1.63,1.63,0,0,0,1.49,0l4.22-2.44A.45.45,0,0,0,131.23,247Zm6.83-3.94L134.5,241a1.61,1.61,0,0,0-1.48,0l-4.23,2.44a.45.45,0,0,0,0,.86l3.55,2a1.63,1.63,0,0,0,1.49,0l4.23-2.44A.45.45,0,0,0,138.06,243.09Zm6.83-3.94-3.56-2.05a1.63,1.63,0,0,0-1.49,0l-4.23,2.44a.45.45,0,0,0,0,.86l3.56,2a1.63,1.63,0,0,0,1.49,0l4.23-2.44A.45.45,0,0,0,144.89,239.15Zm6.82-3.94-3.55-2.05a1.63,1.63,0,0,0-1.49,0l-4.23,2.44a.45.45,0,0,0,0,.86l3.56,2a1.61,1.61,0,0,0,1.48,0l4.23-2.44A.45.45,0,0,0,151.71,235.21ZM183,224.3l-3.56-2.05a1.63,1.63,0,0,0-1.49,0L146.29,240.5a.45.45,0,0,0,0,.86l3.56,2.06a1.67,1.67,0,0,0,1.48,0L183,225.16A.45.45,0,0,0,183,224.3Zm-24.41,7L155,229.22a1.63,1.63,0,0,0-1.49,0l-4.22,2.44a.45.45,0,0,0,0,.86l3.55,2a1.63,1.63,0,0,0,1.49,0l4.23-2.44A.45.45,0,0,0,158.54,231.27Zm6.82-3.94-3.55-2.05a1.63,1.63,0,0,0-1.49,0l-4.23,2.44a.45.45,0,0,0,0,.86l3.56,2a1.63,1.63,0,0,0,1.49,0l4.22-2.44A.45.45,0,0,0,165.36,227.33Zm6.83-3.94-3.56-2.06a1.67,1.67,0,0,0-1.48,0l-4.23,2.45a.45.45,0,0,0,0,.85l3.55,2.06a1.7,1.7,0,0,0,1.49,0l4.23-2.44A.45.45,0,0,0,172.19,223.39Zm6.82-3.94-3.55-2.06a1.7,1.7,0,0,0-1.49,0l-4.23,2.44a.45.45,0,0,0,0,.86l3.56,2.06a1.7,1.7,0,0,0,1.49,0L179,220.3C179.43,220.07,179.43,219.68,179,219.45Zm6.83-3.94-3.55-2.06a1.69,1.69,0,0,0-1.49,0l-4.23,2.44a.45.45,0,0,0,0,.86l3.56,2.05a1.61,1.61,0,0,0,1.48,0l4.23-2.44A.45.45,0,0,0,185.84,215.51ZM174,200.81l-3.55-2.06a1.7,1.7,0,0,0-1.49,0l-4.23,2.44a.45.45,0,0,0,0,.86l3.56,2.06a1.69,1.69,0,0,0,1.49,0l4.22-2.45A.45.45,0,0,0,174,200.81Zm6.83-3.95-3.56-2.05a1.61,1.61,0,0,0-1.48,0l-4.23,2.44a.45.45,0,0,0,0,.86l3.55,2a1.63,1.63,0,0,0,1.49,0l4.23-2.44A.45.45,0,0,0,180.86,196.86Zm6.83-3.94-3.56-2a1.63,1.63,0,0,0-1.49,0l-4.23,2.44a.45.45,0,0,0,0,.86l3.56,2.05a1.63,1.63,0,0,0,1.49,0l4.23-2.44A.45.45,0,0,0,187.69,192.92Zm6.22,3.6-3.56-2.06a1.67,1.67,0,0,0-1.48,0l-4.23,2.45a.45.45,0,0,0,0,.85l3.55,2.06a1.69,1.69,0,0,0,1.49,0l4.23-2.44A.45.45,0,0,0,193.91,196.52Z"/><path class="cls-26" d="M212.16,240.48l-31.37,18.1a2.8,2.8,0,0,1-2.55,0l-20.79-12a.78.78,0,0,1,0-1.47L188.82,227a2.8,2.8,0,0,1,2.55,0l20.79,12A.78.78,0,0,1,212.16,240.48Z"/><path class="cls-27" d="M157.45,245.48l31.37-18.1a2.8,2.8,0,0,1,2.55,0l20.79,12a1,1,0,0,1,.5.55c.1-.33-.06-.68-.5-.93l-20.79-12a2.8,2.8,0,0,0-2.55,0l-31.37,18.11c-.43.25-.6.6-.49.92A1,1,0,0,1,157.45,245.48Z"/><path class="cls-28" d="M178.23,188.12,89.39,239.41l-.14.09,3,1.75L181.12,190l.14-.09ZM92.28,241l-2.64-1.52,88.59-51.15,2.65,1.52Z"/><path class="cls-13" d="M188.24,201.41l-4.68-2.7a2,2,0,0,0-1.85,0L171,204.89a.59.59,0,0,0-.36.61.33.33,0,0,0,0,.14.38.38,0,0,0,0,.15.58.58,0,0,0,.36.6l9.34,5.39a2,2,0,0,0,1.85,0L200,201.52a.61.61,0,0,0,.36-.6v-.29A.62.62,0,0,0,200,200l-3.48-2a1.37,1.37,0,0,0-1.23,0l-6,3.4A1.15,1.15,0,0,1,188.24,201.41Z"/><path class="cls-25" d="M200,199.83l-3.48-2a1.34,1.34,0,0,0-1.23,0l-6,3.39a1.12,1.12,0,0,1-1,0l-4.68-2.7a2,2,0,0,0-1.85,0L171,204.7a.57.57,0,0,0,0,1.07l9.34,5.39a2,2,0,0,0,1.85,0L200,200.9A.57.57,0,0,0,200,199.83Z"/><path class="cls-13" d="M132.28,270.09l3.66,2.11c.42.24.77.1.77-.33a1.6,1.6,0,0,0-.77-1.21l-3.66-2.11c-.43-.24-.77-.1-.77.33A1.6,1.6,0,0,0,132.28,270.09Z"/><g class="cls-29"><path class="cls-30" d="M135.52,271.71l.51.3,1.81-1-.51-.3Zm-1.12-.64.51.29,1.81-1-.51-.29Zm-1.11-.65.5.3,1.81-1.05-.51-.29Zm-1.12-.64.51.29,1.8-1-.51-.3Z"/></g><polygon class="cls-13" points="94.22 247.82 89.67 245.19 89.67 244.22 94.22 246.85 94.22 247.82"/><path class="cls-31" d="M136.33,153.39a10.05,10.05,0,0,0-2.8,2.46,4,4,0,0,0-5.35-.82,4.89,4.89,0,0,0-.6.41c-1.17-3.66-4.59-5.1-7.88-3.21-3.1,1.79-5,5.93-4.64,9.69a6.51,6.51,0,0,0-2.68.86c-3.46,2-5.52,6.79-4.79,10.93a6,6,0,0,0-2.42.81c-3.45,2-5.43,6.87-4.44,10.92s4.6,5.71,8,3.73l31.85-18.34c4.09-2.36,6.45-8.17,5.27-13S140.43,151,136.33,153.39Z"/><path class="cls-22" d="M112.39,175.38l1.38,5.61,20.4-11.78-1.38-5.61ZM133.63,169l-19.57,11.29-1.14-4.63,19.57-11.3Zm-5.87-1.1.77,3.15-14.09,8.11-.77-3.14Zm-14.65,4,1.57-.9.09.36-1.91,1.1-1.07-4.35.34-.19Zm3.69-3.48,0,.14a1.77,1.77,0,0,1-.7,2.08c-.74.42-1.21-.05-1.42-.86l0-.14a1.77,1.77,0,0,1,.7-2.08C116.13,167.08,116.6,167.55,116.8,168.36Zm-.33.2c-.17-.68-.5-1-1-.71a1.28,1.28,0,0,0-.44,1.54l0,.13c.17.68.5,1,1,.71a1.28,1.28,0,0,0,.44-1.54Zm2.86-.85.24.82-.28.16-.15-.38a1.63,1.63,0,0,1-.77,1,.56.56,0,0,1-.92-.39l0-.05a1.3,1.3,0,0,1,.6-1.37l.73-.58,0-.08c-.13-.5-.33-.69-.77-.43a.82.82,0,0,0-.41,1l-.32.19v-.05a1.28,1.28,0,0,1,.66-1.51c.7-.4,1-.08,1.18.57Zm-.5-.52-.7.56a.86.86,0,0,0-.37.88v.05c.07.26.27.42.6.22A1.28,1.28,0,0,0,119,168Zm3.06-.95.23.82-.28.16-.15-.36a1.28,1.28,0,0,1-.63.88c-.68.4-1.12-.1-1.32-.91l0-.14a1.7,1.7,0,0,1,.6-2,.67.67,0,0,1,.81,0l-.46-1.85.34-.19Zm-.67-1.18a.6.6,0,0,0-.75-.08c-.48.27-.59.83-.43,1.52l0,.13c.16.69.49,1,1,.72a1.25,1.25,0,0,0,.53-.83Zm.59-2,.42-.25-.12-.5-.43.25Zm.94,3.62.33-.19-.72-2.95-.33.19Zm1.39-4.24a1.54,1.54,0,0,0-.73,1l-.15-.39-.27.16.23.82.52,2.12.33-.19-.54-2.21a1.26,1.26,0,0,1,.58-.85c.33-.2.6-.11.71.33l.49,2,.33-.19-.51-2.06C125,162.42,124.64,162.17,124.14,162.46Zm3.06-1.69.27-.16.18.85.53,2.15a1.43,1.43,0,0,1-.71,1.71c-.72.42-1.09.06-1.24-.54l0-.07.32-.19c.14.56.38.73.85.46a1,1,0,0,0,.46-1.21l-.14-.54a1.27,1.27,0,0,1-.61.8c-.68.39-1.11-.07-1.3-.82l0-.12a1.65,1.65,0,0,1,.63-1.93.69.69,0,0,1,.86,0Zm.09.79a.6.6,0,0,0-.75-.09,1.2,1.2,0,0,0-.44,1.43l0,.12c.15.62.47.89.94.62a1.22,1.22,0,0,0,.53-.82Zm1.49,1.67.42-.25-.12-.5-.43.25Zm1-.59.43-.25-.13-.5-.42.25Zm.9-1.09.12.5.43-.25-.12-.5Z"/><path class="cls-32" d="M306.48,200.53,249.93,167.8a5.54,5.54,0,0,0-2.77-.67h-3.62a5.66,5.66,0,0,0-2.76.66l-39.61,22.82c-1.54.89-1.55,2.33,0,3.23l56.54,32.73a5.51,5.51,0,0,0,2.6.66h3.76a5.71,5.71,0,0,0,2.8-.67l39.61-22.82C308,202.87,308,201.42,306.48,200.53Z"/><path class="cls-22" d="M203.58,191.4l59.08,34.25,42-24.27c1.08-.62,3-1.41,2-2L248,165.43a10.18,10.18,0,0,0-3.89.08l-40.94,23.66A1.44,1.44,0,0,0,203.58,191.4Z"/><path class="cls-33" d="M307.82,200.75a2,2,0,0,1-1.17,1.63L267,225.19a6.14,6.14,0,0,1-5.57,0l-57.88-33.5a2,2,0,0,1-1.15-1.61v1.36a1.94,1.94,0,0,0,1.14,1.6l57.88,33.51a6.16,6.16,0,0,0,5.58,0l39.61-22.81a2,2,0,0,0,1.16-1.63Z"/><path class="cls-34" d="M306.67,199.15l-57.88-33.5a6.11,6.11,0,0,0-5.57,0l-39.61,22.82c-1.55.89-1.56,2.33,0,3.23l57.88,33.5a6.14,6.14,0,0,0,5.57,0l39.61-22.81C308.2,201.49,308.21,200,306.67,199.15Zm-45.8,25L203.57,191a1.07,1.07,0,0,1,0-1.85l39.81-22.93a5.36,5.36,0,0,1,5.34,0L305,198.79a.34.34,0,0,1,0,.57l-43.08,24.81A1,1,0,0,1,260.87,224.17Z"/><path class="cls-19" d="M212,197.2l-4.41-2.55c-.21-.12-.37,0-.37.22V195a.82.82,0,0,0,.37.65l4.41,2.55c.2.12.37,0,.37-.22v-.12A.84.84,0,0,0,212,197.2Z"/><path class="cls-35" d="M212.56,197.48a.9.9,0,0,0-.34-.44l-4.4-2.55a.3.3,0,0,0-.27,0l-.27.16a.25.25,0,0,1,.26,0L212,197.2a.57.57,0,0,1,.21.2.92.92,0,0,1,.13.24.76.76,0,0,1,0,.21V198a.27.27,0,0,1-.11.25l.28-.16a.27.27,0,0,0,.11-.25v-.12A.86.86,0,0,0,212.56,197.48Z"/><path class="cls-36" d="M217,200a.92.92,0,0,0-.13-.24.57.57,0,0,0-.21-.2l-2.09-1.21a.27.27,0,0,0-.27,0l-.27.16a.25.25,0,0,1,.26,0l2.09,1.2a1,1,0,0,1,.22.2,1.34,1.34,0,0,1,.12.24.6.6,0,0,1,0,.22v.12a.25.25,0,0,1-.11.24l.27-.15a.27.27,0,0,0,.11-.25v-.12A.76.76,0,0,0,217,200Z"/><path class="cls-19" d="M216.37,199.74l-2.09-1.2c-.2-.13-.37,0-.37.22v.12a.82.82,0,0,0,.37.65l2.09,1.21c.21.12.38,0,.38-.22v-.12A.83.83,0,0,0,216.37,199.74Z"/><polygon class="cls-34" points="233.13 173.45 218.77 181.73 216.56 181.53 232.77 172.17 233.13 173.45"/><path class="cls-37" d="M287.7,211.78l-.74-.43a1.55,1.55,0,0,0-1.42.05l-2.67,1.54a.8.8,0,0,0-.31.29.48.48,0,0,0,.22.69l.74.43a1.58,1.58,0,0,0,1.42,0l2.67-1.54a.8.8,0,0,0,.31-.29A.48.48,0,0,0,287.7,211.78Z"/><path class="cls-34" d="M287.7,212l-.74-.43a1.58,1.58,0,0,0-1.42.05l-2.67,1.54a.8.8,0,0,0-.31.29.35.35,0,0,0-.05.13.57.57,0,0,0,.27.31l.74.43a1.58,1.58,0,0,0,1.42,0l2.67-1.54a.8.8,0,0,0,.31-.29.43.43,0,0,0,.05-.13A.57.57,0,0,0,287.7,212Z"/><path class="cls-38" d="M225.77,177.1a.93.93,0,0,1-.86,0,.26.26,0,0,1,0-.5.93.93,0,0,1,.86,0A.26.26,0,0,1,225.77,177.1Z"/><path class="cls-39" d="M225,177a.69.69,0,0,0,.64,0,.2.2,0,0,0,0-.37.72.72,0,0,0-.64,0C224.85,176.78,224.85,176.94,225,177Z"/><path class="cls-39" d="M225.17,176.94a.37.37,0,0,0,.34,0c.1-.06.09-.15,0-.2a.39.39,0,0,0-.35,0C225.07,176.8,225.07,176.89,225.17,176.94Z"/><path class="cls-40" d="M225.27,176.87a.15.15,0,0,0,.13,0,0,0,0,0,0,0-.08.19.19,0,0,0-.13,0A0,0,0,0,0,225.27,176.87Z"/><path class="cls-38" d="M231.36,173.18l-2.76,1.6c-.17.09-.19.24,0,.33a.64.64,0,0,0,.57,0l2.76-1.59c.17-.1.19-.25.05-.33A.63.63,0,0,0,231.36,173.18Z"/><path class="cls-38" d="M221.39,178.94l-2.76,1.59c-.17.1-.19.25,0,.33a.61.61,0,0,0,.57,0l2.77-1.59c.17-.1.18-.25,0-.34A.66.66,0,0,0,221.39,178.94Z"/><path class="cls-14" d="M287.39,214.47l-1.51.87c-.18.1-.32,0-.32-.14a.65.65,0,0,1,.32-.5l1.51-.87c.18-.1.32,0,.32.13A.66.66,0,0,1,287.39,214.47Z"/><g class="cls-41"><path class="cls-42" d="M285.31,214.71l-.22.12.75.43.21-.12Zm.46-.27-.21.12.74.43.21-.12Zm.46-.27-.21.12.75.44.21-.13Zm.46-.26-.21.12.75.43.21-.12Z"/></g><path class="cls-43" d="M259.41,184.51a4.93,4.93,0,0,0-1.67,1.49,7.94,7.94,0,0,0-5.38.63,2.9,2.9,0,0,0-.41.27,10.09,10.09,0,0,0-8.72.1c-2.21,1.27-2.36,3.29-.51,4.75a8.09,8.09,0,0,0-2.18.83c-2.48,1.43-2.51,3.74-.16,5.29a7.34,7.34,0,0,0-2,.76c-2.46,1.42-2.38,3.75.18,5.22a10.09,10.09,0,0,0,9.08.09l22.75-13.11c2.93-1.69,2.83-4.47-.2-6.21A12,12,0,0,0,259.41,184.51Z"/><path class="cls-22" d="M245.57,197.69l3.54,2,14.56-8.41-3.54-2Zm17.5-6.38-14,8.07-2.93-1.68,14-8.07Z"/><polygon class="cls-22" points="257.09 191.91 259.07 193.05 249.01 198.85 247.02 197.71 257.09 191.91"/><path class="cls-22" d="M244.84,196.13l1.12-.65.23.14-1.36.78-2.75-1.57.25-.14Zm2.1-2.07.08.05c.52.3.7.66.18,1a1.71,1.71,0,0,1-1.69-.1l-.08,0c-.52-.3-.7-.66-.17-1A1.69,1.69,0,0,1,246.94,194.06Zm-.24.14a1.24,1.24,0,0,0-1.22-.11c-.36.21-.24.46.19.7l.08.05A1.21,1.21,0,0,0,247,195c.35-.2.23-.46-.2-.7Zm2.37-.85.55.29-.2.11-.3-.13c0,.16,0,.36-.33.54a1.05,1.05,0,0,1-1,0c-.44-.26-.26-.49,0-.69l.45-.36,0,0a.82.82,0,0,0-.9,0c-.34.2-.21.36,0,.5l-.23.13c-.31-.18-.53-.44,0-.75a1.26,1.26,0,0,1,1.35,0Zm-.69-.13-.43.35c-.19.16-.22.31,0,.43a.68.68,0,0,0,.69,0c.33-.19.29-.38.25-.48Zm2.51-.92.55.29-.2.11-.28-.12c.06.14,0,.32-.25.47a1.62,1.62,0,0,1-1.61-.14l-.09,0c-.51-.3-.73-.65-.24-.93a1.24,1.24,0,0,1,.76-.15l-1.16-.67.24-.14Zm-1.1-.36a1.19,1.19,0,0,0-.75.09c-.33.2-.22.45.21.7l.09.05a1.2,1.2,0,0,0,1.2.11c.25-.14.22-.31.17-.42Zm-.24-.91.31-.18-.32-.18-.3.17Zm2.34,1.3.24-.14-1.87-1.07-.23.14Zm-.38-2c-.31.18-.36.37-.3.52l-.3-.13-.2.11.55.29,1.34.77.23-.14-1.39-.8c-.05-.11-.07-.28.21-.45a.77.77,0,0,1,.8,0l1.27.72.23-.13-1.3-.75A1.13,1.13,0,0,0,251.51,190.36Zm2.21-1.23.2-.11.5.31,1.36.78c.42.24.53.52,0,.82a1.33,1.33,0,0,1-1.39,0l0,0,.23-.13a.91.91,0,0,0,1,0c.35-.2.29-.38-.05-.57l-.35-.2c0,.14,0,.29-.26.43a1.56,1.56,0,0,1-1.55-.1l-.08,0c-.47-.27-.66-.61-.18-.9a1.39,1.39,0,0,1,.83-.14Zm.41.3a1.24,1.24,0,0,0-.74.1c-.34.2-.24.44.14.66l.08,0a1.13,1.13,0,0,0,1.14.09c.25-.15.22-.32.17-.43Zm2.06.42.31-.18-.32-.18-.3.18Zm.74-.42.3-.18-.32-.18-.3.17Zm.41-.61.32.18.3-.17-.31-.18Z"/><path class="cls-44" d="M115.72,275,76.4,252.34a7.68,7.68,0,0,0-3.73-.91H68a7.83,7.83,0,0,0-3.94.91L43.09,264.43c-2.09,1.21-2.1,3.17,0,4.38l39.32,22.68a7.71,7.71,0,0,0,3.86.91H91a7.7,7.7,0,0,0,3.74-.91l20.94-12.09C117.79,278.19,117.8,276.22,115.72,275Z"/><path class="cls-44" d="M40.33,270.73c1.4.35,28.83,17.21,34.83,21.15a76.18,76.18,0,0,1,7.63,5.41l.16.15,1.13.9a.21.21,0,0,0-.11,0,.21.21,0,0,1,.11,0,.5.5,0,0,1,.18.33l1,.95c.11.11.2.19.22.28a.22.22,0,0,1-.09.24c-.11.06-.23,0-.41,0l-1.35-.43a.51.51,0,0,1-.34,0c-.13-.05-.13-.05,0,0l-1.35-.56-.2-.06-.8-.31c-1.08-.43-2.82-1.21-6.26-3-3.24-1.68-8-4.26-15.05-8.27-.68-.39-23-13.6-23.65-14C34.49,272.63,38.72,269.8,40.33,270.73Z"/><path class="cls-22" d="M112.68,276.13l-23,13.25a1.18,1.18,0,0,1-1.18,0l-43-24.81a1.76,1.76,0,0,1-.57-2.9l21.32-12.45a8.57,8.57,0,0,1,5.08-1.17,6.59,6.59,0,0,1,2,.51l40.27,23.19C115.42,272.73,114.37,275.15,112.68,276.13Z"/><path class="cls-45" d="M117.49,274.9a2.7,2.7,0,0,1-1.58,2.21L95,289.2a8.35,8.35,0,0,1-7.57,0l-41.61-24A2.66,2.66,0,0,1,44.24,263v1.89a2.66,2.66,0,0,0,1.55,2.18l41.61,24a8.35,8.35,0,0,0,7.57,0L115.92,279a2.66,2.66,0,0,0,1.57-2.21Z"/><path class="cls-21" d="M115.93,272.72l-41.61-24a8.35,8.35,0,0,0-7.57,0l-20.93,12.1c-2.1,1.21-2.11,3.17,0,4.38l41.61,24a8.35,8.35,0,0,0,7.57,0l20.94-12.09C118,275.9,118,273.94,115.93,272.72ZM86.75,288.06,45.46,264.23a1.47,1.47,0,0,1,0-2.56l4.78-2.76,3.83-.45,8.71-5,1.47-2.61,3-1.71a6.84,6.84,0,0,1,6.81,0l39.85,23a.51.51,0,0,1,0,.88l-26.1,15.07A1,1,0,0,1,86.75,288.06Z"/><path class="cls-46" d="M106.29,280.4l-1-.55a2,2,0,0,0-1.84.07l-3.44,2a1.08,1.08,0,0,0-.41.38.62.62,0,0,0,.29.88l1,.56a2,2,0,0,0,1.83-.07l3.44-2a1,1,0,0,0,.41-.38A.63.63,0,0,0,106.29,280.4Z"/><g class="cls-47"><path class="cls-21" d="M106.29,280.76l-1-.55a2,2,0,0,0-1.84.07l-3.44,2a1.26,1.26,0,0,0-.41.38l0,.15a.77.77,0,0,0,.34.38l1,.56a2,2,0,0,0,1.83-.07l3.44-2a1,1,0,0,0,.41-.38.88.88,0,0,0,0-.15A.76.76,0,0,0,106.29,280.76Z"/></g><path class="cls-48" d="M59.47,253.77l-4.26,2.46c-.2.12-.23.3-.05.4a.79.79,0,0,0,.7,0l4.26-2.45c.2-.12.23-.3.05-.41A.79.79,0,0,0,59.47,253.77Z"/><path class="cls-49" d="M53.25,270.33a1.2,1.2,0,0,0-.15-.3.87.87,0,0,0-.27-.24l-3.46-2a.31.31,0,0,0-.33,0l-.34.19a.32.32,0,0,1,.33,0l3.46,2a.88.88,0,0,1,.26.25,1.24,1.24,0,0,1,.16.3.86.86,0,0,1,.05.27V271a.34.34,0,0,1-.14.3l.34-.19a.33.33,0,0,0,.14-.31v-.15A.86.86,0,0,0,53.25,270.33Z"/><path class="cls-19" d="M52.49,270,49,268c-.26-.15-.47,0-.47.27v.15a1,1,0,0,0,.47.82l3.46,2c.26.15.47,0,.47-.27v-.15A1,1,0,0,0,52.49,270Z"/><path class="cls-50" d="M58.53,273.38a1.08,1.08,0,0,0-.16-.3,1,1,0,0,0-.26-.25l-3.46-2a.33.33,0,0,0-.33,0L54,271a.33.33,0,0,1,.33,0l3.46,2a.79.79,0,0,1,.27.25,1.08,1.08,0,0,1,.16.3.82.82,0,0,1,0,.26V274a.33.33,0,0,1-.14.31l.35-.2a.34.34,0,0,0,.14-.3v-.15A.86.86,0,0,0,58.53,273.38Z"/><path class="cls-19" d="M57.76,273l-3.46-2c-.26-.15-.47,0-.47.28v.15a1,1,0,0,0,.48.81l3.45,2c.26.15.47,0,.47-.28v-.15A1,1,0,0,0,57.76,273Z"/><path class="cls-48" d="M53.58,258a1,1,0,0,1-.85,0c-.23-.14-.23-.36,0-.5a1,1,0,0,1,.85,0C53.82,257.61,53.82,257.83,53.58,258Z"/><path class="cls-51" d="M52.86,257.91a.7.7,0,0,0,.63,0c.17-.1.16-.27,0-.36a.68.68,0,0,0-.62,0C52.67,257.65,52.68,257.81,52.86,257.91Z"/><path class="cls-51" d="M53,257.81a.37.37,0,0,0,.34,0c.09-.06.09-.15,0-.2a.37.37,0,0,0-.34,0C52.89,257.67,52.89,257.76,53,257.81Z"/><path class="cls-52" d="M53.09,257.74a.15.15,0,0,0,.13,0s0-.05,0-.07a.15.15,0,0,0-.13,0S53.06,257.73,53.09,257.74Z"/><path class="cls-15" d="M106.17,284.24l-2.45,1.41c-.29.17-.52.07-.52-.21a1.06,1.06,0,0,1,.52-.82l2.45-1.41c.29-.17.52-.07.52.22A1.06,1.06,0,0,1,106.17,284.24Z"/><g class="cls-53"><path class="cls-30" d="M102.78,284.63l-.34.2,1.21.7.34-.2Zm.75-.43-.34.19,1.21.7.35-.19Zm.76-.44-.35.2,1.22.7.34-.2Zm.75-.43-.35.2,1.22.7.34-.2Z"/></g><polygon class="cls-54" points="109.94 271.72 86.04 285.52 53.66 266.83 77.56 253.03 109.94 271.72"/><polygon class="cls-55" points="77.7 253.1 53.8 266.9 51.23 265.43 75.14 251.63 77.7 253.1"/><polygon class="cls-54" points="109.94 266.35 86.04 280.15 53.66 261.46 77.56 247.66 109.94 266.35"/><polygon class="cls-55" points="77.7 247.74 53.8 261.53 51.23 260.06 75.14 246.26 77.7 247.74"/><polygon class="cls-54" points="109.94 261.02 86.04 274.82 53.66 256.13 77.56 242.33 109.94 261.02"/><polygon class="cls-56" points="77.7 242.41 53.8 256.21 51.23 254.73 75.14 240.93 77.7 242.41"/><path class="cls-57" d="M90.5,254l-2.14,1.23-.29-.16,2.14-1.24Zm.07.94-2.37,1.37.29.16,2.37-1.36Zm-.37,1.53-1.85,1.07.29.17,1.85-1.07Zm-5.18.69,3-1.76-.29-.17-3,1.76Zm2.9-.69-1.59.92.29.16,1.58-.91Zm-6.84,3,3.65-2.11-.28-.17-3.66,2.11Zm5-1.89-3.61,2.09.28.16,3.61-2.08Zm2,.16-2,1.17.29.16,2-1.17Zm-3.63-1.53,3.68-2.12-.28-.17L84.15,256Zm4.78-3.09-1.1.63.29.17,1.1-.63Zm-1.36,6.49-1.63.94.29.17,1.63-.94Zm7.2-2.83-2.32,1.33.28.17,2.32-1.34Zm-.91-.8-2,1.17.29.17,2-1.17Zm-3.62,3.41-3,1.76.29.17,3-1.76Zm-3,3.36,1.63-.94-.29-.17-1.63.94Zm4.88-4.47-1.63.94.28.17,1.64-.94Zm.43,1.07-3.68,2.13.29.16,3.68-2.12Zm-1.05-2-3.68,2.12.29.17,3.68-2.12Zm-8-1.11-1.63.94.28.17,1.64-.94Zm2.36,4.67-.29-.16-2,1.17.29.17Zm-.47-1.81-4.68,2.7.29.17,4.67-2.7Zm-3.6.76-4.62,2.67.29.16L82.44,260Zm-1.08,2.28-.29-.17-.93.54.29.17Zm9.81,3-4.68,2.7.29.16,4.68-2.7Zm1.17,1-.29-.16L88.15,268l.29.17Zm-12.49-3.48L75.41,265l.29.17,4.15-2.4Zm3.71,6.9.29.17,2.64-1.53-.28-.17Zm1.42.83,3.46-2-.29-.16-3.46,2Zm-11.26-6.5,3.46-2-.29-.16-3.46,2Zm5.51,1.21-.29-.17-1.71,1,.29.17Zm1.85-5.46-.29-.16-3.61,2.08.29.17Zm-6.23,4.92,3-1.72-.28-.17-3,1.72Zm5.64-5.89,2-1.17-.29-.17-2,1.17Zm-7.9,4.56,2.64-1.53-.28-.17L72,263Zm2.93-1.7,4.68-2.7-.29-.16-4.68,2.7Zm9.43,2.57-5.49,3.17.29.16L85,264.24Zm11.89-6.86-3.4,2,.29.16,3.4-2Zm-.27,6.46,3-1.76-.29-.17L96,263.51Zm3.34-1.93,2.13-1.23-.28-.17-2.14,1.24Zm0-1.34,1.1-.63-.29-.17-1.1.63Zm-14.12,4.48-5.21,3,.28.17,5.22-3Zm13.69-5.55,1.38-.8-.28-.17-1.39.8Zm-9.78,5.31-7.37,4.26.29.17,7.37-4.26ZM85.82,271l3-1.72-.29-.17-3,1.72Zm3.26-1.89,4.62-2.66-.29-.17L88.79,269Zm4.9-2.83,3.61-2.08-.28-.17-3.61,2.09Zm3.9-2.25,1.58-.91-.29-.17-1.58.92Zm-10.7-2.76-3.66,2.11.29.16,3.66-2.11Zm8.52,2.37-3.65,2.11.29.17L96,263.85Zm-.58-1-1.64.94.29.17,1.63-.94ZM93.48,264l-.28-.17-2,1.17.28.17Zm5.6-3.57-3.68,2.12.29.17,3.68-2.12Zm-2.34,0-3.06,1.76.29.17,3-1.77Zm-7.25,2.16-3.66,2.11.29.17,3.66-2.11Zm9.16-3.27-1.63.94.29.17,1.63-.94Zm-15,2.71-4.68,2.7.29.16,4.67-2.7Zm9.78.33-3.66,2.11.29.16,3.65-2.11Zm-10.16,1.2-5.18,3,.28.16,5.19-3Zm4-.67-.29-.17-2,1.17.29.17Z"/><polygon class="cls-58" points="73.05 244.43 71.62 245.25 70.19 244.43 71.62 243.6 73.05 244.43"/><polygon class="cls-58" points="74.82 243.4 73.39 244.23 71.96 243.4 73.39 242.57 74.82 243.4"/><path class="cls-57" d="M72.41,243.4l1,.57,1-.57-1-.56Zm1.62,0-.64.37-.64-.37.64-.37Z"/><polygon class="cls-58" points="76.6 242.38 75.17 243.2 73.73 242.38 75.17 241.55 76.6 242.38"/><polygon class="cls-57" points="74.32 242.44 75.09 242.44 75.09 242.89 75.33 242.89 75.33 242.44 76.1 242.44 76.1 242.3 75.33 242.3 75.33 241.86 75.09 241.86 75.09 242.3 74.32 242.3 74.32 242.44"/><polygon class="cls-57" points="72.58 244.44 71.66 244.97 71.48 244.87 72.4 244.34 72.58 244.44"/><path class="cls-57" d="M77.93,249.24a2.37,2.37,0,0,0-.85.76,4,4,0,0,0-2.74.32,1.53,1.53,0,0,0-.21.14,5.12,5.12,0,0,0-4.44,0,1.34,1.34,0,0,0-.26,2.42,3.76,3.76,0,0,0-1.11.42,1.45,1.45,0,0,0-.09,2.7,3.64,3.64,0,0,0-1,.38c-1.25.73-1.22,1.92.09,2.66a5.12,5.12,0,0,0,4.62.05l11.6-6.68c1.49-.86,1.44-2.28-.11-3.17A6.09,6.09,0,0,0,77.93,249.24Z"/><path class="cls-22" d="M70.88,256l1.8,1,7.43-4.28-1.81-1Zm8.92-3.25-7.12,4.11L71.19,256l7.12-4.11Zm-3,.3,1,.58-5.13,3-1-.58Zm-6.24,2.15.57-.33.11.07-.69.4-1.4-.8.13-.08Zm1.07-1c.3.17.4.36.13.51a.83.83,0,0,1-.86-.05c-.3-.17-.4-.36-.13-.51A.83.83,0,0,1,71.58,254.11Zm-.12.07a.63.63,0,0,0-.63-.06c-.18.11-.12.23.1.36a.67.67,0,0,0,.67.08c.18-.11.12-.23-.1-.36Zm1.2-.44.28.15-.1.06-.15-.07c0,.08,0,.18-.17.28a.53.53,0,0,1-.52,0c-.23-.13-.14-.25,0-.35l.23-.18a.43.43,0,0,0-.48,0c-.18.1-.11.18,0,.26l-.11.06c-.16-.09-.28-.22,0-.38a.64.64,0,0,1,.69,0Zm-.35-.06-.22.18c-.09.08-.11.15,0,.21a.34.34,0,0,0,.35,0c.17-.1.15-.2.13-.25Zm1.28-.47.28.15-.1,0-.15-.06c0,.07,0,.16-.12.24a.81.81,0,0,1-.82-.07c-.31-.17-.42-.35-.17-.5a.69.69,0,0,1,.39-.07l-.59-.34.12-.07ZM73,253a.65.65,0,0,0-.38,0c-.17.1-.11.23.11.36a.64.64,0,0,0,.65.08.16.16,0,0,0,.09-.22Zm-.12-.46.16-.09-.17-.09-.15.09Zm1.19.66.12-.07-1-.54-.12.07Zm-.19-1c-.16.09-.19.19-.16.27l-.15-.07-.1.06.28.14.68.39.12-.06-.71-.41c0-.06,0-.15.11-.23a.4.4,0,0,1,.41,0l.64.38.12-.07-.66-.39A.6.6,0,0,0,73.91,252.22Zm1.12-.63.1-.06.26.17.69.39c.22.12.27.27,0,.42a.69.69,0,0,1-.71,0s.1-.08.1-.08a.46.46,0,0,0,.5,0c.18-.1.15-.19,0-.29l-.17-.1c0,.07,0,.14-.13.22a.85.85,0,0,1-.8-.05c-.27-.16-.37-.34-.13-.48a.64.64,0,0,1,.42-.07Zm.21.16a.59.59,0,0,0-.38.05c-.17.1-.12.22.08.33a.6.6,0,0,0,.62.07.17.17,0,0,0,.09-.22Zm1.05.21.16-.09-.16-.09-.16.09Zm.38-.22.15-.09-.16-.09-.15.09Zm.21-.3.16.09.16-.09-.17-.09Z"/><path class="cls-59" d="M83.69,298.52a.37.37,0,0,0,.2.39.54.54,0,0,0,.45-.05c.41-.22.73-1,.33-1.3a.36.36,0,0,0-.42,0A1.21,1.21,0,0,0,83.69,298.52Z"/><path class="cls-60" d="M36,271.64c0-.07,0-.1,0-.13a3.79,3.79,0,0,1,.12-.62l0-.1a3.52,3.52,0,0,1,.21-.52l.06-.12a4.64,4.64,0,0,1,.26-.4l.09-.12a3.83,3.83,0,0,1,.34-.35l.1-.09.38-.26a1.52,1.52,0,0,1,1.42-.09c.29.15,23.55,13.59,36.76,22.25a75.6,75.6,0,0,1,7.63,5.42l.17.16a.53.53,0,0,1,.14.41,1.57,1.57,0,0,1-.72,1.21.59.59,0,0,1-.43,0l-.12,0-.09,0c-.22-.09-.48-.18-.8-.32-1.08-.42-2.82-1.21-6.26-3-3.24-1.68-8-4.26-15-8.28C50,280.88,36.84,273.12,36.61,273l-.06,0a1.06,1.06,0,0,1-.39-.46c0-.07-.07-.13-.09-.19l0-.08a2.3,2.3,0,0,1-.06-.28.76.76,0,0,1,0-.15s0-.1,0-.15Z"/><path class="cls-61" d="M83,296.66a.45.45,0,0,1,.53,0l1.14.91a.36.36,0,0,0-.42,0,1.21,1.21,0,0,0-.56.95.36.36,0,0,0,.19.38l-1.35-.55a.49.49,0,0,1-.25-.49A1.54,1.54,0,0,1,83,296.66Z"/><path class="cls-61" d="M84.38,297.77a.28.28,0,0,1,.35,0l1.13,1.06a.13.13,0,0,0-.16,0,.42.42,0,0,0-.2.33c0,.08,0,.13.08.14-.2-.05-1.14-.35-1.48-.46-.11,0-.17-.15-.17-.32A1,1,0,0,1,84.38,297.77Z"/><path class="cls-59" d="M85.7,298.84a.13.13,0,0,1,.15,0c.12.11.21.19.23.28a.22.22,0,0,1-.09.24c-.11.05-.23,0-.41-.05s-.08-.06-.08-.14A.42.42,0,0,1,85.7,298.84Z"/><polygon class="cls-46" points="38.6 270.91 53.6 279.58 54.85 278.86 39.84 270.2 38.6 270.91"/><g class="cls-16"><polygon class="cls-62" points="41.64 271.48 42.63 270.9 39.81 270.3 38.83 270.87 41.64 271.48"/><polygon class="cls-63" points="53.72 278.74 54.71 278.16 54.71 277.88 53.72 278.45 53.72 278.74"/><polygon class="cls-64" points="53.72 278.45 54.71 277.88 42.63 270.9 41.64 271.48 53.72 278.45"/><polygon class="cls-19" points="41.64 271.48 38.83 270.87 42.28 272.87 42.92 272.5 53.72 278.74 53.72 278.45 41.64 271.48"/></g><path class="cls-44" d="M161,289.25H142.69c-6,0-20,13.63-14.8,16.19v.1A2.14,2.14,0,0,0,130,308h10a12.17,12.17,0,0,0,6.09-1.64l.86-.49H161Z"/><g id="Axonometric_Cylinder" data-name="Axonometric Cylinder"><ellipse id="Cylinder_face" data-name="Cylinder face" class="cls-65" cx="159.44" cy="273.97" rx="14.23" ry="8.21"/><ellipse id="Cylinder_face-2" data-name="Cylinder face" class="cls-66" cx="159.44" cy="273.97" rx="12.73" ry="7.35"/><path class="cls-67" d="M168.44,272.55c-5-2.87-13-2.87-18,0a7.65,7.65,0,0,0-3.29,3.31,7.65,7.65,0,0,0,3.29,3.31c5,2.87,13,2.87,18,0a7.76,7.76,0,0,0,3.29-3.31A7.76,7.76,0,0,0,168.44,272.55Z"/><path id="Cylinder_body" data-name="Cylinder body" class="cls-68" d="M173.66,273.9v23.73c0,2.12-1.35,4.26-4.16,5.88-5.56,3.21-14.57,3.21-20.12,0-2.75-1.59-4.14-3.66-4.17-5.73V274.05c0,2.08,1.42,4.15,4.17,5.73,5.55,3.21,14.56,3.21,20.12,0C172.31,278.16,173.7,276,173.66,273.9Z"/><path class="cls-69" d="M169.5,279.78a19.7,19.7,0,0,1-8.46,2.35v23.73a19.7,19.7,0,0,0,8.46-2.35c2.81-1.62,4.2-3.76,4.16-5.88V273.9C173.7,276,172.31,278.16,169.5,279.78Z"/><path class="cls-70" d="M171.29,278.52v23.73a6,6,0,0,0,2.37-4.62V273.9A6,6,0,0,1,171.29,278.52Z"/></g><g class="cls-16"><path class="cls-71" d="M151.11,298.62a2.85,2.85,0,0,0-1.24-1.2l-.4-.23a2.25,2.25,0,0,0-1.84-.42l-.08,0-.08.05-.09.05-.09,0-.1.06-.09.05-.1.06-.1.06-.11.06-.11.06-.11.07-.11.06-.11.07-.12.06-.11.07-.12.07-.12.07-.12.06-.23.14a.15.15,0,0,1,.08,0,.15.15,0,0,0-.08,0,2.16,2.16,0,0,1-1.13.34c.16,0,2.84,3.52,4.1,2.8l2.61-2.14a.23.23,0,0,0,0-.11A.45.45,0,0,0,151.11,298.62Z"/><path class="cls-72" d="M151.11,300.81l-2,1.17c-2.42,1.4-4.41.27-4.41-2.52l0-7.61a3.9,3.9,0,0,1-2-.72l-.4-.24c-.76-.44-1.28-.88-1.28-1.07v7.62c0,1.63.49,2.82,2.67,4.12l.4.23c2.4,1.39,3.71.91,4.94.26l.12-.07.12-.07.12-.07.12-.07.11-.07.12-.06.12-.07.11-.06.11-.07.11-.06.11-.06.1-.06.11-.06.1-.06.09-.06.1-.05.09,0,.08-.05.09-.05.07-.05Z"/><path class="cls-73" d="M151.07,282.73a3,3,0,0,0-1.25-1.21l-.4-.23a2.33,2.33,0,0,0-1.84-.42l-.08.05-.08.05-.09,0-.09.05-.09.05-.1.06-.1.06-.1.06-.11.06-.1.06-.11.06-.11.07-.12.06-.11.07-.12.06-.11.07-.12.07-.12.07-.12.07-.12.07c.16-.1.16-.1,0,0a9.88,9.88,0,0,0-4.46,7.73c0,.19.52.63,1.28,1.07l.4.24a3.9,3.9,0,0,0,2,.72c0-2.79,6.41-8.77,6.41-8.77a.36.36,0,0,0,0-.11A.53.53,0,0,0,151.07,282.73Z"/><path class="cls-74" d="M149.05,286.08l2.06-1.19v-2a.29.29,0,0,1,0,.16l-2,1.17a9.72,9.72,0,0,0-4.39,7.6l0,7.61c0,2.79,2,3.92,4.41,2.52l2-1.17s0-.06,0-.06v-1.94a.33.33,0,0,1,0,.17l-2,1.16c-1.55.9-2.81.18-2.82-1.6l0-7.62A6.2,6.2,0,0,1,149.05,286.08Z"/></g><polygon class="cls-54" points="218.81 96.25 169.33 124.82 169.33 178.2 218.85 149.61 218.81 96.25"/><path class="cls-57" d="M194.28,120.78v.59l4.32-2.49v-.59Zm4.93-2.85v.6l3.47-2v-.59Zm.22,2.23v.59l6.5-3.74v-.6ZM191.65,127v.59l4.32-2.49v-.59Zm7.17-6.5L191,125v.6l7.78-4.49Zm1.23,1.65-3.47,2v.6l3.47-2Zm11.07-11.1-7.83,4.52v.59l7.83-4.52ZM190.43,126v-.59l-15.68,9v.6Zm-7.32,1.87v-.59l-8.35,4.82v.6Zm17.55-6v.59l7.83-4.52v-.59Zm5.88-5.75v.59l3.47-2v-.6Zm-26.06,18v-.59l-5.63,3.25v.59ZM191,127.36l-9.95,5.75v.59L191,128Zm2.63-5.63v-.6l-9.95,5.75v.59Zm-2,8.81v.59l4.32-2.49v-.59Zm-1.16,3.62v-.59L182.8,138v.6Zm9.56-8.47-3.47,2v.6l3.47-2ZM192.17,135v.59l7.68-4.43v-.6Zm8.49-9.62v.6l7.83-4.52v-.6Zm5.93-.47,4.54-2.62v-.59l-4.54,2.62Zm-6.13,5.3v.6l3.37-1.95v-.59Zm-20,7.42V137l-5.63,3.25v.59ZM191,130.89l-9.95,5.75v.59l9.95-5.74Zm.06,2.33v.59l7.77-4.49v-.6Zm14.88-8.6-6.5,3.75v.6l6.5-3.75Zm-4.26,7.18-4.32,2.49v.59l4.32-2.49Zm9.72-12.69-2.34,1.35v.6l2.34-1.35ZM202.33,132l3.93-2.28v-.59l-3.93,2.27Zm2.11-3.58,5-2.91V125l-5,2.91Zm-7.65,6.18-9.95,5.75V141l9.95-5.74Zm-13.16,7.6-8.84,5.1v.6l8.84-5.11Zm-2.5-.91L174.81,145v.59l6.32-3.65Zm5.09,0v-.59l-2,1.15v.59Zm-4-2.38v-.59l-7.37,4.25v.59Zm9.37-3v-.6L181.74,141v.6Zm4.46,7,7.83-4.52V139L196,143.52Zm-1.79,4v-.59l-7.78,4.49v.59Zm-2.29-1,3.47-2v-.59l-3.47,2Zm-.61.35v-.59L187,148.13v.6Zm10.56-8.46,3.48-2v-.59l-3.48,2Zm2.57.28v.6l7.22-4.17v-.59Zm-18.62,13.7v-.59l-11.1,6.41v.59Zm.56-5,7.78-4.49v-.6l-7.78,4.49Zm8.39-4.84,6.49-3.75v-.6l-6.49,3.75Zm-9,5.19v-.59l-11,6.36v.6ZM206,135.42l4.93-2.85V132L206,134.82ZM186.4,148.48l-11.69,6.75v.59l11.69-6.74Zm-11.57,2.57,3.63-2.1v-.6l-3.63,2.1Zm32.26-19.23v.6l4.33-2.5v-.59Zm-8.44,5.47,7.83-4.52v-.59l-7.83,4.52Zm-4.08,2.36,3.47-2v-.59l-3.47,2Zm-4.93,2.85L194,140v-.59l-4.32,2.49Zm-10.56,6.09,9.95-5.74v-.6L179.08,148Zm20.35-1.66v.59l6.5-3.75v-.59Zm-7.78,6.85v.59l4.32-2.49v-.6Zm7.17-6.5L191,151.77v.59l7.78-4.49Zm-8.33,10.12v-.59l-7.69,4.43v.59Zm9.56-8.48-3.47,2v.59l3.47-2Zm-9.62,3.8v-.6l-15.68,9.06v.59Zm1.74,5.47v.59l7.68-4.43v-.6Zm8.49-9.62v.6l7.83-4.52v-.6Zm5.88-5.74v.59l3.47-2v-.59Zm.05,5.27,4.54-2.62v-.6l-4.54,2.63Zm-6.13,5.3V154l3.37-1.94v-.59Zm-20,7.42v-.59l-5.63,3.25v.59ZM191,154.13l-9.95,5.74v.6l9.95-5.75Zm.06,2.32v.6l7.77-4.49V152ZM206,147.86l-6.5,3.75v.59l6.5-3.75Zm4.64-7.39v.59l2.95-1.7v-.59Zm.82,1.88-2.34,1.35v.59l2.34-1.35Zm-30.31,22.21-6.32,3.65v.6l6.32-3.65Zm1.06-2.37v-.6l-7.37,4.26v.59Zm9.37-3.06v-.59l-9.82,5.67v.59Z"/><polygon class="cls-56" points="218.81 96.25 169.33 124.82 169.33 129.6 218.81 101.03 218.81 96.25"/><polygon class="cls-58" points="210.18 105.13 206.99 106.97 206.99 103.78 210.18 101.94 210.18 105.13"/><polygon class="cls-58" points="214.13 102.85 210.94 104.69 210.94 101.5 214.13 99.66 214.13 102.85"/><path class="cls-57" d="M211.45,101.72v2.17l2.18-1.25v-2.18Zm1.8.76-1.43.82v-1.43l1.43-.82Z"/><polygon class="cls-58" points="218.09 100.57 214.9 102.41 214.9 99.22 218.09 97.38 218.09 100.57"/><polygon class="cls-57" points="215.42 99.71 216.27 100.07 215.42 101.41 215.69 101.53 216.54 100.18 217.4 100.54 217.67 100.11 216.82 99.75 217.67 98.41 217.4 98.29 216.54 99.63 215.69 99.27 215.42 99.71"/><polygon class="cls-57" points="209.63 104.95 207.58 106.13 207.58 105.74 209.63 104.56 209.63 104.95"/><polygon class="cls-54" points="89.2 121.83 39.72 150.39 39.72 182.49 89.24 153.9 89.2 121.83"/><path class="cls-57" d="M66.41,146.42l7.83-4.52v.6L66.41,147Zm-1.18,3v.59l6.49-3.74v-.6Zm-.61.95v-.6l-4,2.29v.6Zm-4-.07,5.16-3v-.59l-5.16,3Zm11.64-9.07,3.47-2v-.6l-3.47,2Zm2.57.28v.59L82.07,138v-.6Zm4.62-.31-7.14,4.12V146l7.14-4.12ZM60.65,148l3.92-2.26v-.59l-3.92,2.26Zm4.53-2.61,6.49-3.75V141l-6.49,3.75Zm11.18-6.46,4.94-2.85v-.59l-4.94,2.85ZM65.23,153.26v.6l6.49-3.75v-.6Zm-.61,1v-.59l-3.93,2.26v.59Zm-3.91,4v.59L69,154v-.59Zm8.89-5.13v.59l3.47-2v-.6Zm.22,2.22v.6l6.49-3.75v-.59Zm-9.07,7.6v.59l5.6-3.24v-.59Zm8.46-7.24-8.49,4.9v.59l8.49-4.9Zm1.23,1.64-3.47,2v.59l3.47-2Zm11.07-11.1-7.83,4.52v.59l7.83-4.52Zm-2-1.18-7.14,4.12v.6l7.14-4.12ZM71.05,157v.59L78.88,153v-.59Zm5.87-5.75v.6l3.48-2v-.59Zm3.16-6.53v.59l4.16-2.4v-.6Zm.93,4.18v.59l2.14-1.24v-.59Zm.82,1.88-2.34,1.35v.59l2.34-1.35Z"/><path class="cls-75" d="M56.6,156.46v-2.67c0-2.7-2.2-3.63-4.91-2.07s-4.9,5-4.9,7.74v2.64a3.92,3.92,0,0,0-1.63,2.82v6.43c0,1.05.86,1.41,1.91.8l9.08-5.24a4,4,0,0,0,1.91-3v-6.43C58.06,156.57,57.44,156.18,56.6,156.46Zm-4.91-3.59c2.08-1.2,3.76-.49,3.76,1.58v2.61l-7.52,4.35v-2.62A7.79,7.79,0,0,1,51.69,152.87ZM52,163.61v3.13l-.82.47v-3.13c-.37.06-.63-.16-.63-.59a2.15,2.15,0,0,1,1-1.65c.58-.33,1-.14,1,.44A2.11,2.11,0,0,1,52,163.61Z"/><polygon class="cls-56" points="89.2 121.83 39.72 150.39 39.72 155.17 89.2 126.61 89.2 121.83"/><polygon class="cls-58" points="80.56 130.75 77.37 132.59 77.37 129.4 80.56 127.56 80.56 130.75"/><polygon class="cls-58" points="84.51 128.46 81.32 130.31 81.32 127.12 84.51 125.28 84.51 128.46"/><path class="cls-57" d="M81.82,127.33v2.18L84,128.25v-2.18Zm1.81.76-1.43.83v-1.43l1.43-.83Z"/><polygon class="cls-58" points="88.46 126.18 85.27 128.02 85.27 124.83 88.46 122.99 88.46 126.18"/><polygon class="cls-57" points="85.8 125.32 86.65 125.68 85.8 127.02 86.07 127.14 86.92 125.8 87.77 126.16 88.05 125.72 87.19 125.36 88.05 124.02 87.77 123.91 86.92 125.25 86.07 124.89 85.8 125.32"/><polygon class="cls-57" points="80 130.57 77.96 131.75 77.96 131.36 80 130.18 80 130.57"/><path class="cls-43" d="M234.8,182a.25.25,0,0,1-.24-.25V81.26a.83.83,0,0,0-.42-.72.84.84,0,0,0-.84,0l-82.61,47.7a.25.25,0,0,1-.24,0,.26.26,0,0,1-.13-.22V80.61a.25.25,0,0,1,.49,0v47l82.25-47.48a1.33,1.33,0,0,1,2,1.14V181.73A.25.25,0,0,1,234.8,182Z"/><path class="cls-43" d="M80.25,246.69a.25.25,0,0,1-.25-.24V171.07a4.48,4.48,0,0,1,2.25-3.88l56.38-32.56.05-63a.25.25,0,0,1,.49,0l0,63.11a.27.27,0,0,1-.12.21L82.49,167.61a4,4,0,0,0-2,3.46v75.38A.24.24,0,0,1,80.25,246.69Z"/><path class="cls-43" d="M166.67,231.82a.25.25,0,0,1-.24-.25v-86.2a2.58,2.58,0,0,0-1.28-2.23l-20.23-11.67a.24.24,0,0,1-.12-.21V89.76a.25.25,0,1,1,.49,0v41.36l20.1,11.6a3.07,3.07,0,0,1,1.53,2.65v86.2A.25.25,0,0,1,166.67,231.82Z"/><ellipse class="cls-43" cx="234.8" cy="181.73" rx="2.14" ry="1.24"/><path class="cls-43" d="M168.19,230.82a.93.93,0,0,1,0,1.75,3.37,3.37,0,0,1-3,0c-.84-.48-.84-1.26,0-1.75A3.37,3.37,0,0,1,168.19,230.82Z"/><path class="cls-43" d="M81.76,245.61c.84.49.84,1.27,0,1.75a3.35,3.35,0,0,1-3,0c-.84-.48-.84-1.26,0-1.75A3.35,3.35,0,0,1,81.76,245.61Z"/><g class="cls-16"><path class="cls-19" d="M155.58,82.38l-5.67-3.27-18.86,11,5.67,3.28a3.25,3.25,0,0,0,3.26.32l18.86-11A3.23,3.23,0,0,1,155.58,82.38Z"/><path class="cls-76" d="M141.33,87.75v3c0,2.9-2.07,4.08-4.6,2.62l-5.67-3.28-2.47,3.6,8.13,4.7c4.93,2.85,9,.55,9-5.12v-3Z"/></g><g class="cls-16"><path class="cls-77" d="M177.64,5.53c-3.45-2-8.15-1.75-13.32,1.22a32.56,32.56,0,0,0-7.66,6.34L175.9,24.28a32.51,32.51,0,0,1,7.66-6.34c5.17-3,9.87-3.23,13.32-1.23Z"/><path class="cls-78" d="M153.93,10.09c-2.3-1.34-5.45-1.18-8.92.82-.52.31-1,.66-1.57,1l19.25,11.19a15.11,15.11,0,0,1,1.57-1c3.47-2,6.61-2.17,8.92-.83Z"/><path class="cls-79" d="M138.59,2.48c-2.9-1.69-6.84-1.48-11.19,1-8,4.6-14.51,15.31-15.7,25.07l19.24,11.18c1.19-9.76,7.75-20.47,15.71-25.06,4.34-2.5,8.29-2.71,11.19-1Z"/><path class="cls-80" d="M116.78,14.5a36.26,36.26,0,0,0-5.08,14.07l19.24,11.18a36.38,36.38,0,0,1,5.11-14.12Z"/><path class="cls-81" d="M111.7,28.57a15.63,15.63,0,0,0-6.52,2.21C96.29,35.9,89.05,48.3,88.47,59.06l19.24,11.19c.58-10.76,7.82-23.17,16.72-28.29a15.59,15.59,0,0,1,6.51-2.21Z"/><path class="cls-82" d="M93.68,42.86a36.91,36.91,0,0,0-5.21,16.2l19.24,11.19A37,37,0,0,1,113,54Z"/><path class="cls-83" d="M88.47,59.06a15.21,15.21,0,0,0-5.91,2c-8.84,5.09-16,17.75-15.91,28.27,0,5.34,1.9,9.09,4.9,10.84L90.79,111.4c-3-1.74-4.87-5.5-4.9-10.83C85.84,90,93,77.39,101.81,72.29a15,15,0,0,1,5.9-2Z"/><path class="cls-84" d="M85.89,100.57a30.54,30.54,0,0,1,1.84-10.06L68.47,79.39a29.9,29.9,0,0,0-1.82,10c0,5.34,1.9,9.09,4.9,10.84L90.79,111.4C87.8,109.66,85.92,105.9,85.89,100.57Z"/><path class="cls-85" d="M183.56,17.94a32.51,32.51,0,0,0-7.66,6.34c-2-4.07-6.48-5.16-11.64-2.18a15.11,15.11,0,0,0-1.57,1c-.66-9.51-7.61-13.3-16-8.44-8,4.59-14.52,15.3-15.71,25.06A15.59,15.59,0,0,0,124.43,42c-8.9,5.12-16.14,17.53-16.72,28.29a15,15,0,0,0-5.9,2C93,77.39,85.84,90,85.89,100.57s7.27,14.89,16.12,9.8l81.78-47.11c10.52-6.06,19-21.11,18.92-33.62S194.07,11.88,183.56,17.94Z"/></g><g class="cls-16"><polygon class="cls-86" points="145.71 90.34 141.32 87.8 141.24 60.58 145.63 63.13 145.71 90.34"/><polygon class="cls-87" points="139.16 66.86 134.77 64.31 150.59 31.4 154.98 33.95 139.16 66.86"/><path class="cls-88" d="M164.47,52.25l6.47-3.74L155,34,139.16,66.86l6.47-3.73.06,30.11c0,2.82-1,4.8-2.61,5.74l18.86-11c1.6-.93,2.6-2.92,2.61-5.73Z"/></g><path class="cls-89" d="M192.54,30.7,172.72,42.14c-.3.18-.49.12-.49-.14V36.11a1.53,1.53,0,0,1,.63-.91l19.82-11.44c.3-.18.49-.13.49.14v5.88A1.52,1.52,0,0,1,192.54,30.7Z"/><path class="cls-90" d="M178.87,33.72l-5.08,2.93v-.88l5.08-2.93Zm8.4-5.73-3.69,2.13V31l3.69-2.13Zm-10.09,7.53-3.39,2v.87l3.39-2Zm7.15-4.13-5.81,3.35v.88l5.81-3.35Zm-2.1-.49-2,1.17V33l2-1.17Z"/><g class="cls-91"><circle class="cls-92" cx="185.42" cy="29.5" r="29.49" transform="translate(-2.33 28.56) rotate(-8.75)"/></g><g class="cls-93"><circle class="cls-94" cx="181.7" cy="33.51" r="29.49" transform="translate(110.14 203.85) rotate(-77.66)"/></g><g class="cls-95"><circle class="cls-96" cx="176.33" cy="34.75" r="29.49" transform="translate(9.14 100.67) rotate(-32.67)"/></g><path class="cls-97" d="M271.7,196.2l-16,9.25a3.28,3.28,0,0,1-3,0,.92.92,0,0,1,0-1.73l16-9.24a3.28,3.28,0,0,1,3,0A.91.91,0,0,1,271.7,196.2Z"/><path class="cls-97" d="M276.91,199.21l-16,9.25a3.28,3.28,0,0,1-3,0,.92.92,0,0,1,0-1.73l16-9.24a3.28,3.28,0,0,1,3,0C277.74,198,277.74,198.73,276.91,199.21Z"/><path class="cls-98" d="M276,205.69l-4.54,2.62a3.28,3.28,0,0,1-3,0,.91.91,0,0,1,0-1.72L273,204a3.33,3.33,0,0,1,3,0A.91.91,0,0,1,276,205.69Z"/><path class="cls-99" d="M259.73,207.4a.23.23,0,0,1,0,.43.85.85,0,0,1-.73,0,.23.23,0,0,1,0-.43A.85.85,0,0,1,259.73,207.4Z"/><ellipse class="cls-99" cx="260.88" cy="206.74" rx="0.52" ry="0.3"/><ellipse class="cls-99" cx="262.38" cy="205.87" rx="0.52" ry="0.3"/><path class="cls-99" d="M264.26,204.79c.2.12.2.31,0,.42a.79.79,0,0,1-.73,0c-.2-.11-.2-.3,0-.42A.79.79,0,0,1,264.26,204.79Z"/><ellipse class="cls-99" cx="265.4" cy="204.13" rx="0.52" ry="0.3"/><ellipse class="cls-99" cx="266.91" cy="203.26" rx="0.52" ry="0.3"/><ellipse class="cls-99" cx="268.42" cy="202.39" rx="0.52" ry="0.3"/><path class="cls-99" d="M270.29,201.31c.21.11.21.3,0,.42a.85.85,0,0,1-.73,0c-.2-.12-.2-.31,0-.42A.79.79,0,0,1,270.29,201.31Z"/><polygon class="cls-100" points="274.09 205.57 271.23 207.22 270.36 206.72 273.21 205.07 274.09 205.57"/><path class="cls-99" d="M253.32,204.47l.88.5a.55.55,0,0,0,.57,0c.22-.12.21-.25.18-.33l-1-.55.18-.11.92.54.38.2-.14.08-.21-.09c0,.11,0,.25-.24.38a.8.8,0,0,1-.82,0l-.9-.52Z"/><path class="cls-99" d="M256.25,203.86c-.17-.11-.32-.07-.6.07s-.62.18-.81.07-.2-.33.12-.51a.89.89,0,0,1,.93,0s-.17.11-.17.11a.56.56,0,0,0-.62,0c-.2.12-.24.24-.1.32s.28.08.59-.07a.82.82,0,0,1,.83-.08c.24.14.21.34-.12.53a1,1,0,0,1-.93.06s.17-.11.17-.11a.57.57,0,0,0,.61,0C256.37,204.06,256.39,203.94,256.25,203.86Z"/><path class="cls-99" d="M256.66,203.37a.86.86,0,0,0,.85,0c.27-.15.22-.31.08-.39l.17-.1c.21.12.27.36-.1.57a1.18,1.18,0,0,1-1.22,0l-.06,0c-.36-.2-.47-.47-.08-.69a1.17,1.17,0,0,1,1.2.05l.1,0Zm-.14-.09.76-.44a.85.85,0,0,0-.84,0C256.19,203,256.24,203.12,256.52,203.28Z"/><path class="cls-99" d="M257.72,201.9l.16.09c-.23.14-.22.26-.19.34l.95.55-.18.1-.92-.53-.38-.2.15-.08.19.08c0-.1,0-.23.18-.33Z"/><path class="cls-99" d="M260.14,202l-.88-.51a.53.53,0,0,0-.57,0c-.21.12-.2.24-.17.32l1,.56-.18.1-.92-.53-.38-.2.15-.09.2.09c0-.11,0-.25.24-.38a.83.83,0,0,1,.82,0l.9.52Z"/><path class="cls-99" d="M261.26,201.17c0,.11,0,.25-.27.39a.78.78,0,0,1-.74,0c-.3-.18-.16-.35,0-.5l.34-.26a.61.61,0,0,0-.68,0c-.25.15-.17.26,0,.36l-.17.1c-.22-.13-.37-.32,0-.54a.86.86,0,0,1,1,0l.47.27.38.2-.15.08Zm-.17-.08-.35-.2-.33.26c-.14.11-.16.22,0,.3a.46.46,0,0,0,.49,0C261.14,201.3,261.12,201.16,261.09,201.09Z"/><path class="cls-99" d="M263.45,200.11l-.91-.53a.47.47,0,0,0-.5,0c-.19.11-.17.23-.14.31l1,.56-.17.1-.91-.53a.49.49,0,0,0-.51,0c-.19.11-.17.23-.14.31l1,.56-.18.1-.92-.53-.38-.21.15-.08.2.09c0-.11,0-.24.21-.36a.69.69,0,0,1,.56-.07c-.05-.11,0-.25.2-.37a.74.74,0,0,1,.76,0l.93.54Z"/><path class="cls-99" d="M263.51,199.41a.83.83,0,0,0,.86,0c.26-.15.22-.31.08-.39l.17-.09c.21.12.27.35-.11.57a1.23,1.23,0,0,1-1.22,0l-.05,0c-.36-.21-.47-.48-.08-.7a1.17,1.17,0,0,1,1.2.05l.1.05Zm-.14-.08.77-.44a.85.85,0,0,0-.84,0C263.05,199,263.1,199.16,263.37,199.33Z"/><polygon class="cls-54" points="277.17 120.92 241.5 141.51 241.5 179.12 277.2 158.51 277.17 120.92"/><path class="cls-57" d="M264.37,145v.45l4.86-2.81v-.45Zm-5.83,5.13v.45l3.23-1.87v-.44Zm5.37-4.86-5.83,3.36v.45l5.83-3.37Zm.92,1.23-2.6,1.5v.45l2.6-1.51Zm-7.21,2.84v-.44l-11.75,6.78v.45Zm7.67-3.11v.45l5.87-3.39v-.44Zm4.4-4.3v.44l2.6-1.5v-.44Zm-19.53,13.48V155L246,157.38v.45Zm7.92-5-7.46,4.3v.45l7.46-4.31Zm.46,2.38v.44l3.23-1.86v-.45Zm-.88,2.71V155l-5.75,3.32v.45Zm7.17-6.35-2.6,1.51v.44l2.6-1.5Zm-5.9,6.94v.45l5.75-3.32v-.45Zm6.36-7.2v.44l5.87-3.38v-.45Zm4.44-.35,3.41-2v-.45l-3.41,2Zm-4.59,4v.44l2.52-1.45V151Zm-15,5.56v-.45L246,160v.44Zm7.92-5-7.46,4.31v.44l7.46-4.3Zm0,1.74v.45l5.83-3.37v-.44Zm11.15-6.43-4.86,2.8v.45l4.86-2.81Zm-3.19,5.37-3.24,1.87V156l3.24-1.86Zm7.29-9.5-1.75,1v.44l1.75-1Zm-6.83,9.68,2.95-1.7v-.45l-2.95,1.71Zm1.58-2.68L271.9,149v-.44l-3.78,2.18Zm-5.74,4.63-7.45,4.31v.44l7.45-4.3Zm-9.85,5.7-6.63,3.82v.44l6.63-3.82Zm-1.88-.69-4.73,2.74V164l4.73-2.73Zm3.82,0v-.45l-1.49.86v.45Zm-3-1.79v-.44l-5.52,3.18v.45Zm7-2.29v-.44l-7.36,4.25V161Zm.28,7.48,2.6-1.5v-.44l-2.6,1.5Zm-.46.27v-.45l-3.23,1.87v.45Zm7.92-6.34,2.61-1.5v-.45l-2.61,1.51Zm-11.61,6.7,5.83-3.36v-.45l-5.83,3.37Zm6.29-3.63,4.86-2.81V158l-4.86,2.81Zm-6.74,3.9v-.45l-8.27,4.77v.45Zm15.12-8.74,3.7-2.13v-.45l-3.7,2.14Zm-14.67,9.8-8.75,5v.44l8.75-5Zm-8.67,1.92,2.73-1.58v-.44l-2.73,1.57Zm24.18-14.41v.45l3.24-1.87v-.45Zm-6.33,4.1,5.87-3.39V154l-5.87,3.38Zm-3.06,1.76,2.61-1.5v-.44l-2.61,1.5ZM257,161.72l3.23-1.87v-.45L257,161.27Zm-7.92,4.57,7.46-4.31v-.44l-7.46,4.3Z"/><polygon class="cls-56" points="277.17 120.92 241.5 141.51 241.5 145.02 277.17 124.43 277.17 120.92"/><g id="_2" data-name="2"><path class="cls-75" d="M267.81,136a.13.13,0,0,0-.1-.07l-1.17-.25a.57.57,0,0,0-.38.09l-7.69,4.43a.86.86,0,0,1-.74.12l-.1,0a.51.51,0,0,0-.45.07l-.82.47c-.62-.6-1.69-.62-2.91.09a7.2,7.2,0,0,0-3.48,5.47c0,1.91,1.55,2.57,3.47,1.47a7.67,7.67,0,0,0,3-3.54l1-.57a.34.34,0,0,0,.14-.13l.56-.84a.71.71,0,0,1,.27-.25l.18-.1.49-.27.53-.3c.25-.14.46-.25.54-.31s.49-.44.71-.65a.77.77,0,0,1,.33-.18l.78-.18.1,0,.09-.08.3-.31a.84.84,0,0,1,.33-.16l.44-.15a1.37,1.37,0,0,0,.2-.09l.47-.42.16-.14.41-.38a.54.54,0,0,1,.27-.14l.23,0,.27,0,.47,0a.32.32,0,0,0,.18-.06.55.55,0,0,0,.17-.14l1.57-1.68C267.86,136.39,267.91,136.11,267.81,136Zm-16.05,10.39c-.58.34-1,.14-1-.44a2.16,2.16,0,0,1,1-1.65c.58-.33,1-.13,1,.45A2.17,2.17,0,0,1,251.76,146.38Z"/></g><polygon class="cls-58" points="271.02 127.28 268.75 128.59 268.75 126.32 271.02 125.01 271.02 127.28"/><polygon class="cls-58" points="273.84 125.66 271.57 126.97 271.57 124.69 273.84 123.38 273.84 125.66"/><path class="cls-101" d="M271.93,124.85v1.55l1.55-.9V124Zm1.28.54-1,.59v-1l1-.59Z"/><polygon class="cls-58" points="276.65 124.03 274.38 125.34 274.38 123.07 276.65 121.76 276.65 124.03"/><polygon class="cls-101" points="274.75 123.42 275.36 123.67 274.75 124.63 274.95 124.71 275.55 123.75 276.16 124.01 276.36 123.7 275.75 123.45 276.36 122.49 276.16 122.41 275.55 123.36 274.95 123.11 274.75 123.42"/><polygon class="cls-101" points="270.63 127.15 269.17 127.99 269.17 127.71 270.63 126.87 270.63 127.15"/><path class="cls-97" d="M136.56,180.31l-17.07,9.91a1.27,1.27,0,0,1-2-.78,2.55,2.55,0,0,1,1.17-2.63l17.07-9.92a1.28,1.28,0,0,1,2,.78A2.56,2.56,0,0,1,136.56,180.31Z"/><path class="cls-97" d="M138,186.28,121,196.17a1.27,1.27,0,0,1-2-.78,2.54,2.54,0,0,1,1.17-2.63l17.08-9.9a1.27,1.27,0,0,1,2,.78A2.54,2.54,0,0,1,138,186.28Z"/><path class="cls-98" d="M133.25,195.88l-4.85,2.79a1.27,1.27,0,0,1-2-.78,2.55,2.55,0,0,1,1.17-2.63l4.85-2.8a1.27,1.27,0,0,1,2,.79A2.53,2.53,0,0,1,133.25,195.88Z"/><path class="cls-99" d="M120.89,194.26a.61.61,0,0,1-.29.64.31.31,0,0,1-.49-.19.6.6,0,0,1,.29-.64A.31.31,0,0,1,120.89,194.26Z"/><path class="cls-99" d="M122.5,193.32a.64.64,0,0,1-.29.65.31.31,0,0,1-.49-.19.62.62,0,0,1,.29-.65A.31.31,0,0,1,122.5,193.32Z"/><path class="cls-99" d="M124.11,192.39a.64.64,0,0,1-.29.64.31.31,0,0,1-.49-.19.62.62,0,0,1,.28-.64A.32.32,0,0,1,124.11,192.39Z"/><path class="cls-99" d="M125.72,191.46a.64.64,0,0,1-.29.64.31.31,0,0,1-.49-.19.61.61,0,0,1,.28-.64A.32.32,0,0,1,125.72,191.46Z"/><path class="cls-99" d="M127.32,190.53a.61.61,0,0,1-.28.64.32.32,0,0,1-.5-.19.64.64,0,0,1,.29-.64A.31.31,0,0,1,127.32,190.53Z"/><path class="cls-99" d="M128.93,189.6a.62.62,0,0,1-.28.64.32.32,0,0,1-.5-.19.64.64,0,0,1,.29-.65A.31.31,0,0,1,128.93,189.6Z"/><path class="cls-99" d="M130.54,188.66a.62.62,0,0,1-.29.65.31.31,0,0,1-.49-.2.63.63,0,0,1,.29-.64A.31.31,0,0,1,130.54,188.66Z"/><path class="cls-99" d="M132.15,187.73a.6.6,0,0,1-.29.64.31.31,0,0,1-.49-.19.6.6,0,0,1,.29-.64A.31.31,0,0,1,132.15,187.73Z"/><polygon class="cls-100" points="132.03 195.2 128.99 196.96 128.74 195.96 131.79 194.2 132.03 195.2"/><path class="cls-99" d="M118.57,188.11l.25,1c.05.22.2.25.39.14a.69.69,0,0,0,.33-.45l-.27-1.1.19-.11.26,1,.12.41-.16.09-.08-.19a.81.81,0,0,1-.41.51c-.29.17-.48.06-.55-.22l-.25-1Z"/><path class="cls-99" d="M121,187.94c0-.2-.18-.18-.46,0s-.53.11-.59-.11a.7.7,0,0,1,.42-.74c.39-.23.58-.1.66.18a1,1,0,0,1-.19.12c0-.21-.16-.29-.43-.14s-.31.29-.27.46.12.19.44,0,.54-.16.61.11a.73.73,0,0,1-.44.76c-.4.23-.61.07-.66-.15a1.13,1.13,0,0,1,.18-.12c0,.16.16.27.44.11S121,188.1,121,187.94Z"/><path class="cls-99" d="M121.56,187.3c.09.32.27.44.56.27a.56.56,0,0,0,.32-.57l.18-.1a.82.82,0,0,1-.46.84c-.43.25-.7,0-.8-.38v-.06a.92.92,0,0,1,.42-1.08c.41-.25.67,0,.77.38l0,.12Zm0-.16.82-.47c-.09-.32-.27-.45-.54-.29A.67.67,0,0,0,121.52,187.14Z"/><path class="cls-99" d="M123.28,185.34l0,.19a.72.72,0,0,0-.36.46l.27,1.09-.19.11-.26-1.05-.12-.41.16-.09.07.18a.76.76,0,0,1,.34-.46Z"/><path class="cls-99" d="M124.82,186.16l-.24-1c-.06-.22-.2-.25-.39-.14a.75.75,0,0,0-.34.45l.27,1.1-.19.11-.26-1-.11-.41.15-.09.08.19a.87.87,0,0,1,.42-.51.33.33,0,0,1,.55.22l.25,1Z"/><path class="cls-99" d="M126.16,185.15a1,1,0,0,1-.45.52c-.26.15-.45.08-.51-.16a.71.71,0,0,1,.35-.74l.41-.32c-.07-.3-.18-.38-.43-.23a.43.43,0,0,0-.24.54l-.18.1a.68.68,0,0,1,.38-.81c.4-.23.57-.08.65.25l.13.54.12.4-.15.09Zm-.06-.16-.1-.4-.4.31a.46.46,0,0,0-.22.46c0,.15.15.23.34.12A.81.81,0,0,0,126.1,185Z"/><path class="cls-99" d="M128.36,184.1l-.26-1c0-.22-.18-.22-.34-.12a.61.61,0,0,0-.3.42l.27,1.11-.19.11-.25-1c-.06-.23-.19-.22-.35-.13a.66.66,0,0,0-.3.43l.27,1.1-.18.11-.26-1.05-.12-.41.15-.09.08.18a.81.81,0,0,1,.38-.48c.19-.11.34-.1.43,0a.81.81,0,0,1,.39-.51c.25-.15.43-.07.5.21l.26,1.06Z"/><path class="cls-99" d="M128.87,183.06c.09.31.27.44.55.27a.54.54,0,0,0,.32-.57l.18-.11a.83.83,0,0,1-.46.85c-.43.24-.69,0-.79-.38l0-.06a1,1,0,0,1,.42-1.09c.42-.24.68,0,.78.39l0,.11Zm0-.17.82-.47c-.09-.31-.27-.44-.54-.28A.64.64,0,0,0,128.83,182.89Z"/><g class="cls-102"><circle class="cls-103" cx="166.67" cy="231.41" r="29.49" transform="translate(-53.85 50.58) rotate(-14.88)"/></g><g class="cls-104"><circle class="cls-105" cx="234.8" cy="181.38" r="29.49" transform="translate(-39.42 68.09) rotate(-15.24)"/></g><g class="cls-106"><circle class="cls-107" cx="80.25" cy="246.3" r="29.49" transform="translate(-61.75 29.64) rotate(-15.19)"/></g></g></g></g></g></svg>