<svg xmlns="http://www.w3.org/2000/svg" xmlns:xlink="http://www.w3.org/1999/xlink" viewBox="0 0 1167.18 753.96"><defs><style>.cls-1{opacity:0.2;}.cls-2{fill:#3f3d56;}.cls-3{fill:#6c63ff;}.cls-15,.cls-4{opacity:0.1;}.cls-10,.cls-11,.cls-4,.cls-9{isolation:isolate;}.cls-5{fill:url(#linear-gradient);}.cls-6{fill:#fff;}.cls-7{fill:#d7d9e1;}.cls-8{fill:#ededf4;}.cls-9{fill:#fa5959;}.cls-10,.cls-11,.cls-9{opacity:0.8;}.cls-10{fill:#fed253;}.cls-11{fill:#8ccf4d;}.cls-12{fill:url(#linear-gradient-2);}.cls-13{fill:url(#linear-gradient-3);}.cls-14{fill:#fbbebe;}.cls-16{fill:#65617d;}.cls-17{fill:#ff6a5c;}.cls-18{fill:#0098ed;}.cls-19{fill:#ffbc00;}.cls-20{fill:url(#linear-gradient-4);}.cls-21{opacity:0.05;}.cls-22{fill:#ffcdd3;}.cls-23{fill:#dce6f2;}.cls-24{fill:#2d293d;}.cls-25{fill:url(#linear-gradient-5);}.cls-26{fill:#a1616a;}</style><linearGradient id="linear-gradient" x1="588.07" y1="-52.51" x2="588.07" y2="566.49" gradientTransform="matrix(1, 0, 0, -1, -16.24, 680.11)" gradientUnits="userSpaceOnUse"><stop offset="0" stop-color="gray" stop-opacity="0.25"/><stop offset="0.54" stop-color="gray" stop-opacity="0.12"/><stop offset="1" stop-color="gray" stop-opacity="0.1"/></linearGradient><linearGradient id="linear-gradient-2" x1="652.59" y1="-668.65" x2="652.59" y2="-662.65" gradientTransform="matrix(0, 1, 1, 0, 1291.48, -551.96)" xlink:href="#linear-gradient"/><linearGradient id="linear-gradient-3" x1="995.56" y1="-69.18" x2="995.56" y2="130.94" xlink:href="#linear-gradient"/><linearGradient id="linear-gradient-4" x1="681.25" y1="-71.23" x2="681.25" y2="149.55" gradientTransform="translate(1274.55 680.11) rotate(180)" xlink:href="#linear-gradient"/><linearGradient id="linear-gradient-5" x1="763.4" y1="18.49" x2="763.4" y2="214.15" gradientTransform="matrix(-0.98, 0.22, -0.22, -0.98, 986.91, 585.26)" xlink:href="#linear-gradient"/></defs><title>data-analysts3Asset 1</title><g id="Layer_2" data-name="Layer 2"><g id="a26a8f0d-4f9c-4927-88fb-2c6a33da07b1"><g class="cls-1"><path class="cls-2" d="M1007.16,726.33a18.75,18.75,0,0,1-1.73,2.67q-8.64-6.09-17.57-11.93c.12-.25.25-.51.39-.77a16.63,16.63,0,0,1,6-6.51c3.29-2,7-2.48,10-.86s4.76,4.93,4.94,8.77A16.94,16.94,0,0,1,1007.16,726.33Z"/><ellipse class="cls-2" cx="1005.75" cy="706.25" rx="14.01" ry="10.7" transform="translate(-89.13 1264.43) rotate(-62.09)"/><ellipse class="cls-2" cx="1013.77" cy="691.12" rx="14.01" ry="10.7" transform="translate(-71.5 1263.47) rotate(-62.09)"/><ellipse class="cls-2" cx="1021.78" cy="675.98" rx="14.01" ry="10.7" transform="translate(-53.85 1262.5) rotate(-62.09)"/><ellipse class="cls-2" cx="1029.81" cy="660.84" rx="14.01" ry="10.7" transform="translate(-36.2 1261.53) rotate(-62.09)"/><path class="cls-3" d="M1049.21,538.43a51.34,51.34,0,0,1-.78-7l27,9.08-27-14a51.39,51.39,0,0,1,18.23-36.45l26.16,37.81-20.31-42.07a51.28,51.28,0,1,1,48,90.35,51.37,51.37,0,0,1,.8,11l-41.15-.33,40.52,6.67a51.33,51.33,0,0,1-29.84,38.69,51.28,51.28,0,1,1-71.23-37.73,51.27,51.27,0,0,1,29.67-56Z"/><path class="cls-4" d="M1115.3,609.31a51.19,51.19,0,0,1-24.53,22.88,51.28,51.28,0,1,1-71.23-37.73C1017.55,583.54,1118,604.22,1115.3,609.31Z"/></g><g class="cls-1"><path class="cls-2" d="M975,423.86a32.44,32.44,0,0,1-2.25,4.63q-15.12-8-30.61-15.66c.14-.43.3-.87.47-1.31a27.29,27.29,0,0,1,8.3-11.66c4.87-3.9,10.74-5.37,16-3.38s8.62,7,9.67,13.12A27.32,27.32,0,0,1,975,423.86Z"/><ellipse class="cls-2" cx="968.72" cy="391.81" rx="22.69" ry="17.33" transform="translate(257.91 1157.76) rotate(-69.16)"/><ellipse class="cls-2" cx="978.58" cy="365.89" rx="22.69" ry="17.33" transform="translate(288.49 1150.28) rotate(-69.16)"/><ellipse class="cls-2" cx="988.45" cy="339.97" rx="22.69" ry="17.33" transform="translate(319.07 1142.8) rotate(-69.16)"/><ellipse class="cls-2" cx="998.31" cy="314.05" rx="22.69" ry="17.33" transform="translate(349.65 1135.33) rotate(-69.16)"/><path class="cls-3" d="M1005.15,113.6a82.42,82.42,0,0,1-2.65-11.17l45.22,9.21-46.16-17.18a83.06,83.06,0,0,1,21.91-62L1073,87.93l-41-63.54A83,83,0,1,1,1127.12,160a84.41,84.41,0,0,1,3.46,17.52l-66.17,7.67,66.43,2.65a83.09,83.09,0,0,1-40.24,68.1,83,83,0,1,1-122-46.42,83,83,0,0,1,36.52-95.94Z"/><path class="cls-4" d="M1125.45,214.31a82.67,82.67,0,0,1-34.86,41.62,83,83,0,1,1-122-46.42C963.26,192.38,1128.77,205.6,1125.45,214.31Z"/></g><g class="cls-1"><path class="cls-2" d="M178.28,510.07a35.8,35.8,0,0,0,2,5.8q19-7.29,38.43-14c-.11-.53-.22-1.07-.36-1.62a32.59,32.59,0,0,0-8.07-15c-5.18-5.32-11.89-7.92-18.34-6.34s-11.2,7-13.35,14A32.37,32.37,0,0,0,178.28,510.07Z"/><ellipse class="cls-2" cx="190.52" cy="473.12" rx="20.61" ry="26.98" transform="translate(-106.78 58.69) rotate(-13.72)"/><ellipse class="cls-2" cx="182.7" cy="441.08" rx="20.61" ry="26.98" transform="translate(-99.4 55.92) rotate(-13.72)"/><ellipse class="cls-2" cx="174.89" cy="409.05" rx="20.61" ry="26.98" transform="translate(-92.03 53.15) rotate(-13.72)"/><ellipse class="cls-2" cx="167.07" cy="377.02" rx="20.61" ry="26.98" transform="translate(-84.65 50.38) rotate(-13.72)"/><path class="cls-3" d="M188.48,139.53a98.26,98.26,0,0,0,4.78-12.79l-54.71,4.19,57-13.47A98.86,98.86,0,0,0,178.84,41L112.16,99.27l57.77-68.93a98.72,98.72,0,1,0-132.2,146,98.81,98.81,0,0,0-6.67,20.15l77,18.82-78.78-6.68a98.74,98.74,0,0,0,37.43,86.3,98.72,98.72,0,1,0,150.76-36.79,98.74,98.74,0,0,0-29-118.59Z"/><path class="cls-4" d="M31.66,240.63a98.21,98.21,0,0,0,35,54.3,98.72,98.72,0,1,0,150.76-36.79C226.3,238.66,29.05,229.86,31.66,240.63Z"/></g><path class="cls-5" d="M1056.2,113.62H87.46a8.64,8.64,0,0,0-8.63,8.65h0V715.16a17.42,17.42,0,0,0,17.4,17.46h951.2a17.43,17.43,0,0,0,17.4-17.46h0V122.27a8.65,8.65,0,0,0-8.63-8.65Z"/><path class="cls-6" d="M1060.91,150.43V711.67a17.26,17.26,0,0,1-17.25,17.26H100.17a17.25,17.25,0,0,1-17.26-17.26h0V150.43Z"/><path class="cls-7" d="M211.83,143.62V728.93H100.17a17.25,17.25,0,0,1-17.26-17.26h0v-568Z"/><path class="cls-8" d="M1060.91,125.49v24.94h-978V125.49a8.56,8.56,0,0,1,8.56-8.56h960.88a8.56,8.56,0,0,1,8.56,8.56Z"/><circle class="cls-9" cx="98.41" cy="133.42" r="4"/><circle class="cls-10" cx="109.41" cy="133.42" r="4"/><circle class="cls-11" cx="120.41" cy="133.42" r="4"/><rect class="cls-8" x="371.83" y="199.61" width="94" height="10"/><rect class="cls-8" x="371.83" y="228.61" width="528" height="10"/><rect class="cls-8" x="371.83" y="257.61" width="528" height="10"/><rect class="cls-8" x="371.83" y="286.61" width="528" height="10"/><rect class="cls-8" x="371.83" y="315.61" width="528" height="10"/><rect class="cls-8" x="95.83" y="199.61" width="94" height="10"/><rect class="cls-8" x="95.83" y="228.61" width="94" height="10"/><rect class="cls-8" x="95.83" y="257.61" width="94" height="10"/><rect class="cls-8" x="95.83" y="286.61" width="94" height="10"/><rect class="cls-8" x="95.83" y="315.61" width="94" height="10"/><rect class="cls-12" x="622.82" y="98.62" width="6" height="4"/><path class="cls-2" d="M912.9,628.08a1.82,1.82,0,0,0-3.53-.47.14.14,0,0,0,0,.06L900.14,647l-2.07,76.25h3.32l1.24-76.08,10.12-17.93A2,2,0,0,0,912.9,628.08Z"/><path class="cls-13" d="M1052.66,746.85c-.05.07-.11.13-.16.19a2.62,2.62,0,0,1-1.14.57h0a10.71,10.71,0,0,1-2.57.43h-.26a9.27,9.27,0,0,1-1.49,0A8.08,8.08,0,0,0,1046,748h0a7.47,7.47,0,0,0-1.55.38,13,13,0,0,1-3.44.49h-5c-2.24,0-4.46.42-6.7.45h-.72a10.52,10.52,0,0,1-6.18-1.85,2.28,2.28,0,0,1-.81-.93,2.57,2.57,0,0,1-.15-1.23,2.89,2.89,0,0,1,.75-2.06,3.26,3.26,0,0,1,1.18-.58l2.28-.72,2.44-.73.16-.05.46-.13.29-.1a4,4,0,0,0,1-.47,3.18,3.18,0,0,0,1-1c0-.08.1-.16.14-.24V739c-.06-.52-.13-1-.21-1.56a6.13,6.13,0,0,1-3.07-1.73,10.14,10.14,0,0,1-1.79-2.41,53.21,53.21,0,0,1-2.33-6.17,55.59,55.59,0,0,0-4.63-8.89c-1.59-2.65-3.18-5.3-5-7.8-1.2-1.65-2.49-3.24-3.68-4.9a43.48,43.48,0,0,1-7.07-15.46,20.59,20.59,0,0,0-.86-3.14,32.94,32.94,0,0,0-3-4.75,15.77,15.77,0,0,1-2.19-5.62c-.21-1.14-.56-2.36-1.69-2.48h0l-.12.24c-2.34,4.57-4.75,9.2-8.29,12.92a15.44,15.44,0,0,0-1.55,1.78,20.42,20.42,0,0,0-1,1.91,12.43,12.43,0,0,1-2.2,3.22,6.81,6.81,0,0,1-.87.74,4.62,4.62,0,0,1-1.37.68h0a3.9,3.9,0,0,1-.59.14.33.33,0,0,1,0,.14V696a19.44,19.44,0,0,1-.76,9.92,1,1,0,0,1-.1.29c-.17.47-.36.92-.56,1.37-.51,1.1-1.11,2.15-1.58,3.27-.08.19-.16.38-.23.57-1.67,4.44-1.26,9.39-1.46,14.16a14.68,14.68,0,0,1-.37,3.1c-.28,1.15-.73,2.34-1,3.52a6.24,6.24,0,0,0,0,2.72h-.1c-.45.17-.9.32-1.35.46v.06c.17.93.32,1.86.48,2.78a4.17,4.17,0,0,0,.86,2.22,4.08,4.08,0,0,1,.4.44c.33.51,0,1.19.1,1.8.09.86.89,1.59.76,2.45a1.57,1.57,0,0,1-1,1.15,2.29,2.29,0,0,1-.64.21h-.13l-.75.09a34.25,34.25,0,0,1-9.27.09c-.61-.1-1.21-.24-1.82-.29a13.86,13.86,0,0,0-2.32.1,113.09,113.09,0,0,1-17.07.33c-1.48-.08-3.18-.32-4-1.59a4.73,4.73,0,0,1-.08-3.6,3.91,3.91,0,0,1,.5-1.26l.09-.12c.76-.94,2.2-1,3.43-1l4,.12a3.59,3.59,0,0,0,1.18-.1,11.84,11.84,0,0,0,1.77-1c.77-.37,1.74-.4,2.29-1l.07-.09a2.44,2.44,0,0,0,.28-.43l.06-.08h0a.11.11,0,0,0,0-.08c.51-.67,1.41-.89,2.13-1.32a1.16,1.16,0,0,0,.31-.22l.08-.07a8.63,8.63,0,0,1-2-2,2.36,2.36,0,0,1-.46-.8,1.32,1.32,0,0,1,0-.68l.07-.15h0c.28-.56.86-1.06,1.18-1.63v0a2.57,2.57,0,0,0-.13-2.79c.33-5.45,1.83-10.78,2.17-16.24.13-2.17.07-4.35.17-6.52s.34-4.29.58-6.42c.55-4.88,1.87-9.66,1.69-14.56a10.44,10.44,0,0,1,0-1.37v-.09a8.34,8.34,0,0,1,.93-2.87,22.66,22.66,0,0,1,2-2.87c2.55-3.31,5.61-6.62,6.52-10.71a23.74,23.74,0,0,1,2.54-5.93,10.5,10.5,0,0,1,2.21-3.11A8.89,8.89,0,0,0,972.8,655c.68-.88.7-2.09,1.1-3.14a14.54,14.54,0,0,0,.69-1.6V650a9.71,9.71,0,0,0,.14-1.71v-.48h0a17.87,17.87,0,0,1,1.42-4.74l.25-.57a17.7,17.7,0,0,1-5-4.32,10.61,10.61,0,0,1-1.2-1.82,22.5,22.5,0,0,1-1.45-5.48c-1-4.43-3.17-8.6-3.47-13.12a14.28,14.28,0,0,0-.48-4.11,8.23,8.23,0,0,0-.47-1c-.08-.14-.15-.28-.22-.42l-.08-.16-.22-.41-.34.26a246,246,0,0,1-26.61,18.19l-.8.47a3.06,3.06,0,0,0-1,.86l-.09.16h0c-.19.39-.24.84-.4,1.25a3.32,3.32,0,0,1-2.31,1.84,7.1,7.1,0,0,1-5.24-.68c-.2-.1-.4-.21-.59-.33a5,5,0,0,1-.66.32,6.49,6.49,0,0,1-.87.33,17.91,17.91,0,0,1-5.11.46,15.93,15.93,0,0,0-5.09.56,12.5,12.5,0,0,1-3.27,1H911a5.8,5.8,0,0,1-1.85-.55l-.34-.15c-.17-.09-.34-.17-.51-.28a3.07,3.07,0,0,1-.5-.39,1.87,1.87,0,0,1-.47-.79,1.47,1.47,0,0,1,0-.66.48.48,0,0,1,.14-.25.53.53,0,0,1,.24-.06,8.33,8.33,0,0,1,1.42.12,3.84,3.84,0,0,0,.83,0h.15a1.74,1.74,0,0,0,1.26-.7.49.49,0,0,0,.11-.2h0a.67.67,0,0,0,.08-.37.14.14,0,0,0,0-.09c-.17-.08-.35-.16-.51-.25l-.25-.15h-.05a2.36,2.36,0,0,1-.43-.35,1.09,1.09,0,0,1-.21-.26,1.8,1.8,0,0,1-.25-.5h0a2.41,2.41,0,0,0-1,0c-.45.12-.91.39-1.36.48a1.13,1.13,0,0,1-.68,0c-.65-.23-.87-1-1-1.69a.74.74,0,0,0-.08-.4h0a2.55,2.55,0,0,1,0-.78,3,3,0,0,1,1.09-1.42l1.36-1.14.1-.08-.06-.34a2.49,2.49,0,0,1,0-.77,3,3,0,0,1,1.09-1.42l3-2.53a3.62,3.62,0,0,1,1.91-1c1.09-.07,2,.83,2.78,1.55a6.13,6.13,0,0,0,3.64,1.75,5,5,0,0,0,1.93-.26l.35-.12c-.07-.15-.15-.3-.22-.46s-.24-.51-.35-.76a8.21,8.21,0,0,0,4.7-2.25c1.34-1.16,2.49-2.53,3.84-3.67s3.13-2.17,4.61-3.36c3.44-2.79,5.73-6.89,9.41-9.35,1.27-.86,2.75-1.54,3.62-2.82.27-.39.47-.84.75-1.23.88-1.24,2.39-1.81,3.64-2.67a17.66,17.66,0,0,0,3.35-3.34c.72-.87,1.45-1.74,2.13-2.63.64-1.18,1.17-2.41,1.84-3.58a18.74,18.74,0,0,1,2-2.77c.17-.33.34-.66.53-1s.32-.55.49-.81.25-.37.38-.55c-.38-.67-.74-1.25-.9-1.49l-.09-.12a13.34,13.34,0,0,0-1.16-1.09q-.66-.1-1.29-.27a12.08,12.08,0,0,1-8.89-11.68h0a11.92,11.92,0,0,1,1.32-5.46c.17-.34.36-.66.56-1a3.35,3.35,0,0,1-.55-.23,2,2,0,0,1-.77-.63,1.84,1.84,0,0,1-.32-.81,4.14,4.14,0,0,1,.29-2c.12-.3.24-.6.38-.9v0a11.56,11.56,0,0,1,9.75-6.18c4.27-.17,8.41,1.82,11.77,4.68a16.5,16.5,0,0,1,2.87,2.67,17.15,17.15,0,0,1,2.77,8.64,13.77,13.77,0,0,1,0,2.87,8.43,8.43,0,0,1-.2,1c-.06.2-.13.39-.2.58a4.08,4.08,0,0,1-.19.42h0a3.58,3.58,0,0,1-.21.39v.05l-.06.09.11.24a.91.91,0,0,0,.11.22h0c.84.07,1.6.18,2.44.25a6,6,0,0,1,1.18.18,8.42,8.42,0,0,1,2.15,1.34c1.73,1.22,3.85,1.79,5.54,3.05,2.51,1.86,3.75,4.92,5.24,7.67,2,3.68,5.23,6.81,6.66,10.75l2,5.35a79.79,79.79,0,0,0,4.27,10.3c2.4,4.59,5.66,8.72,7.59,13.52a2.11,2.11,0,0,0,1,1.12,88.46,88.46,0,0,1,7,11.68,23,23,0,0,1,2.38,6.77,16.25,16.25,0,0,1-.52,6.32,30.29,30.29,0,0,1-1.21,3.59,5.31,5.31,0,0,0-.41,1.28.33.33,0,0,0,0,.14,11.93,11.93,0,0,0,.3,2.38,4.53,4.53,0,0,1-.21,1.9.82.82,0,0,1-.11.28,9.55,9.55,0,0,0-.65,1.51v.19a7.36,7.36,0,0,0,.42,2.71,36.41,36.41,0,0,1,.41,9.94c-.1,1.65,1.24,3,2.36,4.21a44.83,44.83,0,0,1,5.25,7.64,25.67,25.67,0,0,1,2.15,4.29,39.75,39.75,0,0,1,1.15,5.28c1.06,5.47,4.51,10.3,5.45,15.79a14.07,14.07,0,0,0,3.2,6.79,14.74,14.74,0,0,1,1.38,1.67,6.94,6.94,0,0,1,.69,1.49,11.29,11.29,0,0,1,.56,3.78,5.68,5.68,0,0,0,.11,1.84c.39,1.27,1.78,2,2.36,3.17s.17,2.73.39,4.09a4.43,4.43,0,0,0,1.64,2.76c-.33.29-.68.56-1,.82a4.31,4.31,0,0,1,.86.9,4,4,0,0,1,.39.74c.55,1.27.57,2.78,1,4.12a3,3,0,0,1,.29,1.73,1.94,1.94,0,0,0-.14.51c0,.38.39.62.54,1A1,1,0,0,1,1052.66,746.85Z"/><path class="cls-14" d="M964.91,585.23a26.47,26.47,0,0,0,7-3.53l7.71-4.91a6.68,6.68,0,0,1-5-3.46,17.58,17.58,0,0,1-1.88-6,31.28,31.28,0,0,0-8.86,5.8c-1.07.92-3.32,2.3-3.65,3.73s1.76,2.59,2.57,3.55C963.11,580.76,965.73,585,964.91,585.23Z"/><path class="cls-4" d="M964.91,585.23a26.47,26.47,0,0,0,7-3.53l7.71-4.91a6.68,6.68,0,0,1-5-3.46,17.58,17.58,0,0,1-1.88-6,31.28,31.28,0,0,0-8.86,5.8c-1.07.92-3.32,2.3-3.65,3.73s1.76,2.59,2.57,3.55C963.11,580.76,965.73,585,964.91,585.23Z"/><path class="cls-14" d="M922.76,625.8a8.54,8.54,0,0,1-4.33,1.31,6.26,6.26,0,0,1-3.64-1.74c-.81-.72-1.68-1.62-2.77-1.54a3.55,3.55,0,0,0-1.91,1l-3,2.52a2.09,2.09,0,0,0-1,2.57c.14.67.36,1.46,1,1.69s1.35-.27,2-.45a2.4,2.4,0,0,1,2.35.69,1.49,1.49,0,0,1,.4.9c0,.75-.84,1.24-1.59,1.28s-1.5-.21-2.25-.16a.48.48,0,0,0-.24.06.35.35,0,0,0-.14.24,1.52,1.52,0,0,0,.48,1.45,4,4,0,0,0,1.35.81,5.37,5.37,0,0,0,1.84.55c1.27.08,2.44-.63,3.66-1a16.39,16.39,0,0,1,5.08-.56,17.42,17.42,0,0,0,5.09-.45,5.7,5.7,0,0,0,3.86-3.13.72.72,0,0,0,.07-.48.85.85,0,0,0-.34-.41c-2.31-1.71-3.25-3.79-5.85-5Z"/><path class="cls-4" d="M922.76,625.8a8.54,8.54,0,0,1-4.33,1.31,6.26,6.26,0,0,1-3.64-1.74c-.81-.72-1.68-1.62-2.77-1.54a3.55,3.55,0,0,0-1.91,1l-3,2.52a2.09,2.09,0,0,0-1,2.57c.14.67.36,1.46,1,1.69s1.35-.27,2-.45a2.4,2.4,0,0,1,2.35.69,1.49,1.49,0,0,1,.4.9c0,.75-.84,1.24-1.59,1.28s-1.5-.21-2.25-.16a.48.48,0,0,0-.24.06.35.35,0,0,0-.14.24,1.52,1.52,0,0,0,.48,1.45,4,4,0,0,0,1.35.81,5.37,5.37,0,0,0,1.84.55c1.27.08,2.44-.63,3.66-1a16.39,16.39,0,0,1,5.08-.56,17.42,17.42,0,0,0,5.09-.45,5.7,5.7,0,0,0,3.86-3.13.72.72,0,0,0,.07-.48.85.85,0,0,0-.34-.41c-2.31-1.71-3.25-3.79-5.85-5Z"/><path class="cls-3" d="M971.29,581.6a5,5,0,0,0-4.38-.53,9.43,9.43,0,0,0-3.78,2.52,17.15,17.15,0,0,0-2.66,3.52c-.71,1.23-1.26,2.54-2,3.78A39.11,39.11,0,0,1,954,597a17.85,17.85,0,0,1-3.35,3.32c-1.24.86-2.75,1.43-3.63,2.66-.28.39-.48.83-.76,1.23-.86,1.26-2.33,1.94-3.61,2.79-3.68,2.45-6,6.52-9.39,9.29-1.48,1.19-3.15,2.13-4.61,3.35s-2.5,2.49-3.83,3.64a8.18,8.18,0,0,1-4.7,2.23,23.83,23.83,0,0,0,4.6,7.24c2,2,5,3.35,7.8,2.55a3.41,3.41,0,0,0,2.31-1.83,7.33,7.33,0,0,1,.48-1.41,3,3,0,0,1,1-.85,247.55,247.55,0,0,0,31.54-21.86c2.66-2.17,5.31-4.11,8-6.2a17.44,17.44,0,0,0,2.71-2.37,9,9,0,0,0,1.09-9.92,24.75,24.75,0,0,0-2.51-3.41A30.66,30.66,0,0,0,971.29,581.6Z"/><path class="cls-4" d="M971.29,581.6a5,5,0,0,0-4.38-.53,9.43,9.43,0,0,0-3.78,2.52,17.15,17.15,0,0,0-2.66,3.52c-.71,1.23-1.26,2.54-2,3.78A39.11,39.11,0,0,1,954,597a17.85,17.85,0,0,1-3.35,3.32c-1.24.86-2.75,1.43-3.63,2.66-.28.39-.48.83-.76,1.23-.86,1.26-2.33,1.94-3.61,2.79-3.68,2.45-6,6.52-9.39,9.29-1.48,1.19-3.15,2.13-4.61,3.35s-2.5,2.49-3.83,3.64a8.18,8.18,0,0,1-4.7,2.23,23.83,23.83,0,0,0,4.6,7.24c2,2,5,3.35,7.8,2.55a3.41,3.41,0,0,0,2.31-1.83,7.33,7.33,0,0,1,.48-1.41,3,3,0,0,1,1-.85,247.55,247.55,0,0,0,31.54-21.86c2.66-2.17,5.31-4.11,8-6.2a17.44,17.44,0,0,0,2.71-2.37,9,9,0,0,0,1.09-9.92,24.75,24.75,0,0,0-2.51-3.41A30.66,30.66,0,0,0,971.29,581.6Z"/><path class="cls-2" d="M953.48,735.34a6.47,6.47,0,0,0-2.12,1.32c-.17.21-.28.47-.46.67-.55.65-1.53.68-2.29,1a14.07,14.07,0,0,1-1.77,1,4,4,0,0,1-1.19.09l-4-.12c-1.28,0-2.78,0-3.52,1.07a3.5,3.5,0,0,0-.5,1.26,4.59,4.59,0,0,0,.08,3.58c.78,1.25,2.48,1.49,4,1.57a112.24,112.24,0,0,0,17-.33,14.78,14.78,0,0,1,2.31-.09c.61.07,1.21.17,1.82.29a35,35,0,0,0,9.26-.09,4.51,4.51,0,0,0,1.53-.33,1.58,1.58,0,0,0,1-1.14c.13-.86-.67-1.58-.76-2.44-.06-.61.23-1.28-.1-1.79a4.07,4.07,0,0,0-.4-.43,4,4,0,0,1-.85-2.21l-.75-4.28a1.32,1.32,0,0,0-.34-.8,1.3,1.3,0,0,0-.52-.21c-3.15-.72-6.39-.06-9.54.34a26.57,26.57,0,0,1-4.88.24c-.7,0-1-.13-1.5.33A10,10,0,0,1,953.48,735.34Z"/><path class="cls-2" d="M1029.74,740.46a6.38,6.38,0,0,1-1.77.69q-2.45.72-4.87,1.49a3.22,3.22,0,0,0-1.19.58,2.8,2.8,0,0,0-.75,2,2.53,2.53,0,0,0,.15,1.22,2.32,2.32,0,0,0,.81.92,10.83,10.83,0,0,0,6.61,1.84c2.33,0,4.64-.39,7-.45,2.82-.08,5.71.32,8.41-.47a8.5,8.5,0,0,1,1.6-.39,8.08,8.08,0,0,1,1.09.07,11.23,11.23,0,0,0,4.31-.39,2.71,2.71,0,0,0,1.15-.57,1.09,1.09,0,0,0,.31-1.17c-.15-.33-.53-.58-.54-1a1.94,1.94,0,0,1,.14-.51,2.92,2.92,0,0,0-.29-1.72c-.54-1.6-.45-3.44-1.41-4.83a6.18,6.18,0,0,0-4.38-2.18,12.2,12.2,0,0,0-4.09.12c-1.51.32-2.92,1-4.41,1.43a14.61,14.61,0,0,1-5.3.5c-1.19-.1-.78.09-1.18,1.08A3.57,3.57,0,0,1,1029.74,740.46Z"/><circle class="cls-14" cx="963.52" cy="567.47" r="12.02"/><path class="cls-3" d="M1050.66,736.16c-3.73,3.21-8.77,4.61-13.68,4.66a11.15,11.15,0,0,1-6-1.28c-.12-.68-.17-1.41-.3-2.09a7.65,7.65,0,0,1-4.84-4.12,49.84,49.84,0,0,1-2.33-6.13,56.32,56.32,0,0,0-4.63-8.84c-1.58-2.63-3.17-5.26-5-7.74-1.2-1.65-2.49-3.22-3.67-4.87a42.85,42.85,0,0,1-7.07-15.36,20,20,0,0,0-.86-3.12,31.39,31.39,0,0,0-3-4.72,15.27,15.27,0,0,1-2.19-5.59c-.21-1.13-.55-2.35-1.69-2.47h0c-2.38,4.63-4.81,9.32-8.4,13.08a12.93,12.93,0,0,0-1.55,1.76,16.56,16.56,0,0,0-1,1.91,12.36,12.36,0,0,1-2.19,3.2,5.09,5.09,0,0,1-2.83,1.54,19.34,19.34,0,0,1-1.36,11.81c-.5,1.1-1.1,2.14-1.57,3.25-1.93,4.55-1.49,9.7-1.69,14.64a15.9,15.9,0,0,1-.36,3.08c-.51,2-1.54,4.18-1,6.2-5.2,2-11,1.86-16.47,1a7.67,7.67,0,0,1-3.07-.93,8.26,8.26,0,0,1-2-2,2.07,2.07,0,0,1-.46-.8c-.21-1,.84-1.64,1.32-2.48a2.56,2.56,0,0,0-.11-2.82c.33-5.43,1.83-10.73,2.16-16.15.14-2.16.08-4.32.18-6.48s.33-4.26.57-6.38c.55-4.84,1.88-9.59,1.69-14.46a8.3,8.3,0,0,1,1-4.31,20.59,20.59,0,0,1,2-2.85c2.54-3.29,5.6-6.58,6.51-10.64a22.74,22.74,0,0,1,2.53-5.89,10.26,10.26,0,0,1,2.22-3.09,10.23,10.23,0,0,0,1.46-1.26c.68-.87.7-2.08,1.11-3.12.24-.52.47-1,.67-1.59a9.62,9.62,0,0,0,.19-1.86,16.79,16.79,0,0,1,1.72-5.78,17.46,17.46,0,0,1-5-4.29,9.53,9.53,0,0,1-1.21-1.81,22.19,22.19,0,0,1-1.45-5.44c-1-4.41-3.15-8.55-3.46-13a14.87,14.87,0,0,0-.48-4.09,16.6,16.6,0,0,0-.77-1.59,6.49,6.49,0,0,1-.66-1.61c-.27-1.22.1-2.5,0-3.74a27.17,27.17,0,0,0-.79-3.2,15,15,0,0,1-.12-4.23,36.3,36.3,0,0,0,.32-5,19.34,19.34,0,0,1,5.26-14.89l.1-.1c.78-.81,1.65-1.56,2.36-2.44,1-1.17,1.67-2.56,2.68-3.7.46-.51,1-1,1.41-1.48A12,12,0,0,1,976.2,571a2.08,2.08,0,0,1,1.88-.5,4.73,4.73,0,0,0,.57,1.76c.86.07,1.63.19,2.48.26a6,6,0,0,1,1.18.18,8,8,0,0,1,2.15,1.33c1.72,1.21,3.84,1.78,5.53,3,2.51,1.84,3.75,4.89,5.23,7.62,2,3.66,5.23,6.77,6.66,10.68.66,1.78,1.31,3.56,1.94,5.32a80.43,80.43,0,0,0,4.27,10.24c2.4,4.55,5.65,8.66,7.57,13.43a2.09,2.09,0,0,0,1,1.11,89.44,89.44,0,0,1,7,11.61,22.12,22.12,0,0,1,2.36,6.73,19.57,19.57,0,0,1-1.71,9.85,5,5,0,0,0-.44,1.41,11,11,0,0,0,.31,2.36,4.58,4.58,0,0,1-.32,2.17,9.44,9.44,0,0,0-.65,1.5,6.29,6.29,0,0,0,.39,2.88,36,36,0,0,1,.4,9.88c-.09,1.64,1.25,3,2.36,4.18a45.6,45.6,0,0,1,5.25,7.59,26.12,26.12,0,0,1,2.14,4.26,38,38,0,0,1,1.16,5.26c1,5.43,4.5,10.23,5.43,15.68a13.86,13.86,0,0,0,3.2,6.74,14.74,14.74,0,0,1,1.38,1.67,6.62,6.62,0,0,1,.68,1.48,11.19,11.19,0,0,1,.57,3.76,5.13,5.13,0,0,0,.11,1.83c.38,1.26,1.78,2,2.35,3.15s.18,2.71.4,4.06A4.24,4.24,0,0,0,1050.66,736.16Z"/><path class="cls-14" d="M925.25,622.07a8.54,8.54,0,0,1-4.33,1.31,6.18,6.18,0,0,1-3.64-1.74c-.82-.72-1.69-1.62-2.77-1.54a3.55,3.55,0,0,0-1.91,1l-3,2.52a2.74,2.74,0,0,0-1.08,1.41,2.52,2.52,0,0,0,.07,1.16c.13.67.36,1.46,1,1.69s1.35-.27,2-.45a2.38,2.38,0,0,1,2.35.69,1.38,1.38,0,0,1,.4.9c0,.75-.83,1.25-1.59,1.28s-1.49-.21-2.24-.16a.51.51,0,0,0-.25.06.43.43,0,0,0-.14.24,1.56,1.56,0,0,0,.54,1.49,4.49,4.49,0,0,0,1.36.82,5.58,5.58,0,0,0,1.84.54c1.28.08,2.45-.63,3.65-1a16.16,16.16,0,0,1,5.09-.57,17.51,17.51,0,0,0,5.1-.45,5.78,5.78,0,0,0,3.85-3.13.71.71,0,0,0,.07-.48.91.91,0,0,0-.34-.41c-2.32-1.71-3.26-3.79-5.86-5Z"/><path class="cls-2" d="M957.66,560.09a10.17,10.17,0,0,0-2,.87,3.41,3.41,0,0,1-2.83-.16,2,2,0,0,1-.77-.63,3,3,0,0,1,0-2.79,11.39,11.39,0,0,1,10.15-7.08c4.25-.17,8.39,1.81,11.74,4.65a16.8,16.8,0,0,1,2.67,2.79,17,17,0,0,1,2.77,8.59,11.52,11.52,0,0,1-.26,3.84,4.67,4.67,0,0,1-2.17,2.94,4.29,4.29,0,0,1-3.81-.17,14.89,14.89,0,0,1-3.25-2.37,5.34,5.34,0,0,0-1.62-1,1.69,1.69,0,0,0-1.76.42c-.55.67-.42,1.76-.92,2.48a3.94,3.94,0,0,1-4.76,0,2.86,2.86,0,0,1-.23-2.37,8,8,0,0,0,.41-2.43c-.17-1.64-1.62-2.68-2.07-4.2-.29-1,.36-1.42.29-2.32a1.31,1.31,0,0,0-1.46-1.12Z"/><path class="cls-4" d="M995.43,674.39v.1h0c-2.38,4.63-4.81,9.32-8.4,13.08a12.93,12.93,0,0,0-1.55,1.76,16.56,16.56,0,0,0-1,1.91,12.36,12.36,0,0,1-2.19,3.2l-3,1.5,9.53-49.73Z"/><path class="cls-4" d="M981.58,599.12a17.44,17.44,0,0,1-2.71,2.37c-2.74,2.09-5.38,4-8,6.2q-3.24,2.64-6.52,5.13a6.11,6.11,0,0,1-.65-1.61c-.27-1.22.1-2.5,0-3.74a29.34,29.34,0,0,0-.8-3.2,15,15,0,0,1-.12-4.23,36.3,36.3,0,0,0,.32-5,19.34,19.34,0,0,1,5.26-14.89l.1-.1a8.53,8.53,0,0,1,1.41-.63,5,5,0,0,1,4.38.53,30.29,30.29,0,0,1,6,5.86,25.27,25.27,0,0,1,2.51,3.4A9,9,0,0,1,981.58,599.12Z"/><path class="cls-3" d="M973.78,577.87a5,5,0,0,0-4.39-.53,9.39,9.39,0,0,0-3.77,2.52,17.2,17.2,0,0,0-2.67,3.52c-.7,1.23-1.26,2.54-1.94,3.78a39.82,39.82,0,0,1-4.51,6.11,17.22,17.22,0,0,1-3.34,3.32c-1.25.86-2.76,1.43-3.64,2.66-.28.39-.48.83-.75,1.23-.87,1.26-2.34,1.94-3.62,2.79-3.67,2.45-6,6.52-9.38,9.29-1.48,1.19-3.15,2.13-4.61,3.35s-2.5,2.49-3.84,3.64a8.12,8.12,0,0,1-4.69,2.23,23.8,23.8,0,0,0,4.59,7.24c2,2,5,3.35,7.81,2.55a3.37,3.37,0,0,0,2.3-1.83,8.13,8.13,0,0,1,.49-1.41,2.9,2.9,0,0,1,1-.85,248.58,248.58,0,0,0,31.54-21.86c2.66-2.17,5.31-4.11,8-6.2a16.93,16.93,0,0,0,2.71-2.37,9,9,0,0,0,1.1-9.92,22.73,22.73,0,0,0-2.53-3.4A29.83,29.83,0,0,0,973.78,577.87Z"/><g class="cls-15"><path d="M964,571.6a2.72,2.72,0,0,1-2.32-.78,2.86,2.86,0,0,1-.23-2.37,7.93,7.93,0,0,0,.41-2.42c-.17-1.65-1.62-2.68-2.07-4.21-.29-1,.36-1.42.29-2.32a1.33,1.33,0,0,0-1.51-1.08h0a10.17,10.17,0,0,0-2,.87,3.45,3.45,0,0,1-2.83-.15,2.14,2.14,0,0,1-.77-.63,3,3,0,0,1,0-2.8v-.09a9.79,9.79,0,0,0-.86,1.75,3,3,0,0,0,0,2.79,2,2,0,0,0,.77.63,3.46,3.46,0,0,0,2.85.13,10.17,10.17,0,0,1,2-.87,1.3,1.3,0,0,1,1.53,1l0,.06c.07.9-.58,1.32-.29,2.32.45,1.52,1.9,2.56,2.07,4.2a8,8,0,0,1-.41,2.43,2.86,2.86,0,0,0,.23,2.37,3.94,3.94,0,0,0,4.76,0,3.57,3.57,0,0,0,.45-1.27A3.52,3.52,0,0,1,964,571.6Z"/><path d="M977.76,571.45a4.3,4.3,0,0,1-3.8-.16,16.12,16.12,0,0,1-3.3-2.36,4.83,4.83,0,0,0-1.61-1,1.69,1.69,0,0,0-1.76.42,3.22,3.22,0,0,0-.52,1.4,1.75,1.75,0,0,1,1.45-.16,5.34,5.34,0,0,1,1.62,1,14.89,14.89,0,0,0,3.25,2.37,4.29,4.29,0,0,0,3.81.17,4.63,4.63,0,0,0,2.13-2.8A3.78,3.78,0,0,1,977.76,571.45Z"/></g><circle class="cls-2" cx="874.63" cy="737.18" r="12.43"/><circle class="cls-4" cx="874.63" cy="737.18" r="12.43"/><circle class="cls-16" cx="874.63" cy="737.18" r="7.87"/><circle class="cls-4" cx="874.63" cy="737.18" r="7.87"/><path class="cls-2" d="M865.09,717.7l8.16,18.44a1.57,1.57,0,0,0,2.07.82,1.6,1.6,0,0,0,.8-.76l9.7-19.75Z"/><path class="cls-4" d="M865.09,717.7l8.16,18.44a1.57,1.57,0,0,0,2.07.82,1.6,1.6,0,0,0,.8-.76l9.7-19.75Z"/><circle class="cls-2" cx="797.13" cy="737.18" r="12.43"/><circle class="cls-4" cx="797.13" cy="737.18" r="12.43"/><circle class="cls-16" cx="797.13" cy="737.18" r="7.87"/><circle class="cls-4" cx="797.13" cy="737.18" r="7.87"/><path class="cls-2" d="M787.6,717.7l8.16,18.44a1.57,1.57,0,0,0,2.07.82,1.6,1.6,0,0,0,.8-.76l9.69-19.75Z"/><path class="cls-4" d="M787.6,717.7l8.16,18.44a1.57,1.57,0,0,0,2.07.82,1.6,1.6,0,0,0,.8-.76l9.69-19.75Z"/><path class="cls-2" d="M915,628.93a1.87,1.87,0,0,0-1-1.48,1.92,1.92,0,0,0-2.53,1,.14.14,0,0,0,0,.06l-7.13,17.71-2.07,79.57h3.31l1.24-79.4,8.06-16.27A2,2,0,0,0,915,628.93Z"/><polygon class="cls-3" points="768.33 719.56 779.51 712.52 900.32 711.48 903.42 719.56 768.33 719.56"/><polygon class="cls-2" points="768.33 727.02 768.33 719.56 905.62 718.24 905.49 723.29 770.8 723.29 770.8 727.02 768.33 727.02"/><circle class="cls-2" cx="785.73" cy="741.53" r="12.43"/><circle class="cls-16" cx="785.73" cy="741.53" r="7.87"/><path class="cls-2" d="M776.2,722.05l8.16,18.44a1.57,1.57,0,0,0,2.07.82,1.6,1.6,0,0,0,.8-.76l9.69-19.74Z"/><circle class="cls-2" cx="882.29" cy="741.53" r="12.43"/><circle class="cls-16" cx="882.29" cy="741.53" r="7.87"/><path class="cls-2" d="M872.76,722.05l8.16,18.44a1.57,1.57,0,0,0,2.07.82,1.6,1.6,0,0,0,.8-.76l9.69-19.74Z"/><rect class="cls-8" x="787.83" y="633.61" width="82" height="82"/><path class="cls-3" d="M804.51,669.41h13.9v20.84h-13.9ZM821.88,659h13.89v31.26H821.88Zm17.37,17.36h13.89v13.9H839.25Z"/><rect class="cls-7" x="801.83" y="551.61" width="82" height="82"/><path class="cls-3" d="M828.93,610h27.79v5.21H828.93Zm13.9-13.89a3.48,3.48,0,0,0,0-7,4.15,4.15,0,0,0-1,.13L834.66,584l-.43.38,5.31,7.24a3.12,3.12,0,0,0-.16,1,3.46,3.46,0,0,0,3.45,3.48Z"/><path class="cls-3" d="M842.83,570A22.57,22.57,0,0,0,825,606.51h6.38l.43-.44,2.4-2.39-2.48-2.49-2.4,2.39a17.16,17.16,0,0,1-3.82-9.23h3.38v-3.42h-3.38a17.22,17.22,0,0,1,3.82-9.23l2.4,2.39,2.48-2.49-2.39-2.39a17.31,17.31,0,0,1,9.23-3.82v3.38h3.47v-3.38a17.38,17.38,0,0,1,9.23,3.82l-2.39,2.39,2.49,2.49,2.4-2.39a17.38,17.38,0,0,1,3.82,9.23h-3.39v3.47h3.39a17.31,17.31,0,0,1-3.82,9.23l-2.4-2.39-2.49,2.49,2.4,2.39.44.44h6.42a22.59,22.59,0,0,0-17.79-36.47Z"/><rect class="cls-4" x="373.83" y="362.61" width="82" height="82"/><rect class="cls-8" x="371.83" y="360.61" width="82" height="82"/><path class="cls-17" d="M404.14,380.78h6.95v41.68h-6.95ZM393.72,410.3h6.94v12.16h-7Zm20.84-6.95h7v19.11h-7ZM425,392.93h6.95v29.53H425Z"/><rect class="cls-4" x="817.83" y="361.61" width="82" height="82"/><rect class="cls-8" x="815.83" y="359.61" width="82" height="82"/><path class="cls-17" d="M870.22,392.18l-9.47,14.48a5.2,5.2,0,1,1-9.25,3.28,5.63,5.63,0,0,1,.09-1l-6.25-3.64a5.17,5.17,0,0,1-6.18.78l-6.65,6.23v6.21a4.64,4.64,0,0,0,4.63,4.64h39.37a4.67,4.67,0,0,0,4.64-4.64v-23l-6.36-4.23a5.21,5.21,0,0,1-4.57.92Z"/><path class="cls-17" d="M841.73,396.38a5.22,5.22,0,0,1,5.21,5.21h0v.67l6.52,3.65a5.21,5.21,0,0,1,3.3-1.18,7.35,7.35,0,0,1,1.13.12l9.49-14.69a5.14,5.14,0,0,1-1-3,5.21,5.21,0,0,1,10.42,0,6.26,6.26,0,0,1-.14,1.23l4.49,3V382.7a4.67,4.67,0,0,0-4.64-4.64H837.14a4.65,4.65,0,0,0-4.63,4.64v24.89l4.34-4.16a5.2,5.2,0,0,1,3.07-6.68,5.31,5.31,0,0,1,1.81-.32Z"/><rect class="cls-4" x="595.83" y="365.61" width="82" height="82"/><rect class="cls-8" x="593.83" y="363.61" width="82" height="82"/><path class="cls-18" d="M620.93,422h27.79v5.21H620.93Zm13.9-13.89a3.5,3.5,0,0,0,0-7,4.15,4.15,0,0,0-1,.13L626.66,396l-.43.38,5.31,7.24a3.12,3.12,0,0,0-.16,1,3.46,3.46,0,0,0,3.45,3.48Z"/><path class="cls-18" d="M634.83,382A22.57,22.57,0,0,0,617,418.51h6.38l.43-.44,2.4-2.39-2.48-2.49-2.4,2.39a17.16,17.16,0,0,1-3.82-9.23h3.38v-3.42h-3.38a17.22,17.22,0,0,1,3.82-9.23l2.4,2.39,2.48-2.49-2.39-2.39a17.31,17.31,0,0,1,9.23-3.82v3.38h3.47v-3.38a17.38,17.38,0,0,1,9.23,3.82l-2.39,2.39,2.49,2.49,2.4-2.39a17.38,17.38,0,0,1,3.82,9.23h-3.39v3.47h3.39a17.31,17.31,0,0,1-3.82,9.23l-2.4-2.39-2.49,2.49,2.4,2.39.44.44h6.42a22.59,22.59,0,0,0-17.79-36.47Z"/><rect class="cls-4" x="561.83" y="494.61" width="82" height="82"/><rect class="cls-8" x="554.83" y="488.61" width="82" height="82"/><path class="cls-19" d="M605.55,515l5.57,5.56-11.86,11.88-9.73-9.73-18,18,3.43,3.43,14.59-14.59,9.73,9.73,15.31-15.3,5.57,5.57V515Z"/><path class="cls-20" d="M541.37,746.93c.59-2.52,1-4.73,1-4.73a9.67,9.67,0,0,1,1.09-4.8v-.68h0v-5.07a18.42,18.42,0,0,0-1.27-2.65c-.92-1.59,0-7.43,0-7.43s3.38-8.22,2.55-13.43,6.92-23.21,6.92-23.21a22.76,22.76,0,0,0-.74-5.12,3.91,3.91,0,0,1-.09-1.08v-.13h0c.11-3.44,2.83-9.88,2.83-9.88l-.36-12.29s-1.74-7.25,1.1-17a79.48,79.48,0,0,0,2-8.2,3.83,3.83,0,0,1,.13-.69c-5.83-.89-10.28-1.63-10.28-1.63s3.38-14.14,5.66-16.62S556,602,556,602s1.19-10-.73-12.91-2.19-8-2.19-8-4.39-3.18-4.94-4.59a23.34,23.34,0,0,1-1.46-6.28c0-1.68.55-3.18.37-4.07s1.28-4.24.55-5.83a4.06,4.06,0,0,1-.3-1.54v.11a20.69,20.69,0,0,1,.39-4.15,11.65,11.65,0,0,1,4.33-2.32l.1-.38.25-1a4.45,4.45,0,0,1,.43-.26V549l-.69-3.23c-1.34-5.61,6.14-6.45,6.14-6.45a3.93,3.93,0,0,1,2.13-1.86c1.51-.53.25,8.44-.46,9a33.2,33.2,0,0,0-3,4.62h0l-.13.23c.12.11.23.23.34.35l-.28,2v.3a9,9,0,0,1,1.19,2,4.33,4.33,0,0,0-1.1,3.18,10.22,10.22,0,0,1-.45,3.89c.08-.09,1-1.14,2-.88s3.65,1.06,3.65,1.06,2,.35,1.83.8,1.37,2.38,1.37,2.38l5.4-5.11c0-.16.11-.31.15-.47a13.12,13.12,0,0,0,.47-2.24,11.12,11.12,0,0,1-1.72-.55,3.49,3.49,0,0,1-1.5-1,5.69,5.69,0,0,1-.87-2.32,34.42,34.42,0,0,0-2-4.47,14.44,14.44,0,0,1-1.08-8,5.11,5.11,0,0,1,.83-2.35c.88-1.22,2.48-1.71,3.64-2.68s1.92-2.44,3.27-3.17a6.55,6.55,0,0,1,4.1-.35,22.08,22.08,0,0,1,7.65,2.78,3.82,3.82,0,0,0,2.56.84,3.43,3.43,0,0,0,1.85-1.35v-.08l.06-.07a9.67,9.67,0,0,1,.84,4v.65a.88.88,0,0,0,0,.23.54.54,0,0,0,0,.18h0a.66.66,0,0,0,0,.28,1.86,1.86,0,0,0,.51.73,5.13,5.13,0,0,1,.44.6.65.65,0,0,0-.08-.22,3.22,3.22,0,0,1,.56,1.7,1.73,1.73,0,0,1-.4,1.22,7.39,7.39,0,0,1-.88.71,12.16,12.16,0,0,1,.16,1.8,10.49,10.49,0,0,1-5.09,8.91l-.18.46a12.68,12.68,0,0,0-1,5.89,1.09,1.09,0,0,0,.06.43l.2.22h0s8.91.09,11-1.81,5.3,4.64,5.3,4.64,3.19.62,3.83,0,4.39-.09,4.39-.09a8,8,0,0,1,5.57-2,16.2,16.2,0,0,1,4.09-2.27h.1a4.51,4.51,0,0,1,2-.25s4.38-3.63,5.66-5.57,7.37-9.16,7.4-9.2v-.34l.07-1.06a2.53,2.53,0,0,0,.55,0,1.26,1.26,0,0,1,.12-.36,19.8,19.8,0,0,1,1.29-3s0-1.33-.38-1.66.16-5.2.16-5.2,4-9.23,7.49-2.34c0,0,6.69,4.46,1.07,9.66,0,0-2.24,1.08-2.56,1.94-.2.56-1,2.12-1.48,3.16l-.22.46h.06l-.08.87v.34c1.06.6,1.78,1.19,1.6,1.65a10,10,0,0,0-.64,2.38s-7.76,9.73-8.76,13.88c0,0-20.83,12.38-27.68,13.26l1.19,6.19s.36,3.71.27,5,.82,7.34.82,7.34,1.19,8.84,2.2,10.08.82,6.54.82,6.54a42.59,42.59,0,0,0,1.37,7.51,19.43,19.43,0,0,1,.27,7.52s3.47,8-4.84,2.56c0,0-4.08-.25-8.78-.41v2.42c.06,4.55.09,10.83-.12,15.58-.36,8.4-2.92,25-2.92,25v8.35a12,12,0,0,1,.24,2.39,15.63,15.63,0,0,1-2.25,8.36l-.64,5.57a21.75,21.75,0,0,0-1.53,5.86,1.88,1.88,0,0,0,.07.53,4.88,4.88,0,0,1,.07.85c.08,2.53-1.44,8.58-1.44,8.58s-.09,6.1-1,6.46,1,3.51,1.59,4.43v-.17l.11.18A4.57,4.57,0,0,1,589,729a2.24,2.24,0,0,1-1,2.14c-1.74,1.06-2.67,1.94-1.2,2.3a14.86,14.86,0,0,1,1.61.34l.08-.21a1,1,0,0,1,.6,1.07,4.62,4.62,0,0,1-.54,2.07,22,22,0,0,1-2.48,4.51l-.7-.08a3,3,0,0,0,.41.75,2.76,2.76,0,0,0,1,.92,3.21,3.21,0,0,0,1.25.43,3.53,3.53,0,0,1,2.59,1.26c.91,1.17,1.48,2.78-.32,4.19l-6.53,2.25s-11.24,1.46-10.64-1.06,1-4.73,1-4.73a10,10,0,0,1,.9-4.47,5.93,5.93,0,0,1,.41-.66h-.41s-.82-5.57-1.91-6.63c-.25-.25-.31-.43-.25-.58-.11-.3.16-.48.53-.58a1,1,0,0,1,.08.22,6.73,6.73,0,0,1,1.1-.12s.37-2.92-.82-4a1.09,1.09,0,0,1-.23-.87,4.73,4.73,0,0,1,.12-1.18l0,.06a42.4,42.4,0,0,1,2.62-6.85s.09-2.65-.64-3.71.09-14.41.09-14.41-.27-6.46.55-9.46-1-6.54-1-6.54v-.2h0a6.14,6.14,0,0,1,.11-1v.06c.17-1.71.53-4.8.78-6.23.36-2-.09-11.76-.09-11.76l-1.5-4.06-2.92,7.16-3.08,9.54a8.11,8.11,0,0,0-1.6,4.07v.94a5.79,5.79,0,0,1-1,3.4s-.82,4.51-2.1,5.66a5,5,0,0,0-1.28,3.36s-1.55,6.54-2.29,7.69-.64,3.63-.64,4.45h0v.24s-.22,2.34-.21,4.3v.65a6.53,6.53,0,0,0,.19,1.59V715a17,17,0,0,1,.47,4.08c0,2.35-.32,5.13-1.74,6.77-2.47,2.83-4,2.47-4,2.47s1.19,3.54,2.65,4.25l.15.1v-.21a1.76,1.76,0,0,1,.43,1.32,9.49,9.49,0,0,1-1.81,5.24,2.94,2.94,0,0,1-1.24.72l.23.14a4,4,0,0,0,.51.24,2.61,2.61,0,0,0,.74.2,3.52,3.52,0,0,1,2.59,1.25c.91,1.18,1.48,2.78-.32,4.19L551.86,748S540.78,749.44,541.37,746.93Z"/><path class="cls-2" d="M584.28,751.09l6.32-2.25c1.75-1.41,1.19-3,.31-4.19a3.4,3.4,0,0,0-2.5-1.26,2.88,2.88,0,0,1-1.21-.43,2.68,2.68,0,0,1-1-.92,4.59,4.59,0,0,1-.73-2.44s-6.94-2-8.84,0a5.36,5.36,0,0,0-.84,1.23,10.15,10.15,0,0,0-.88,4.47s-.35,2.21-.93,4.73S584.28,751.09,584.28,751.09Z"/><path class="cls-2" d="M553.34,748l6.32-2.26c1.74-1.41,1.19-3,.31-4.19a3.4,3.4,0,0,0-2.5-1.25,2.55,2.55,0,0,1-.73-.2,3.58,3.58,0,0,1-.48-.24,4,4,0,0,1-1.73-3.36s-6.94-2-8.84,0a4.79,4.79,0,0,0-.66.91,9.89,9.89,0,0,0-1.06,4.8s-.36,2.21-.93,4.73S553.34,748,553.34,748Z"/><path class="cls-16" d="M543.79,729a20,20,0,0,1,1.24,2.65v7c1.77,2.91,11,1.94,12.2.35s2.56-5.75,1.15-6.45-2.57-4.25-2.57-4.25,1.51.36,3.89-2.47,1.68-9.11,1.24-10.61,0-6.54,0-6.54-.09-3.54.62-4.69,2.21-7.69,2.21-7.69a5.18,5.18,0,0,1,1.24-3.36c1.24-1.15,2-5.66,2-5.66a5.83,5.83,0,0,0,.88-3.8c-.26-2.21,1.51-4.59,1.51-4.59l3-9.55,2.83-7.16,1.59,4.15s.45,9.73.09,11.76-.88,7.43-.88,7.43,1.77,3.53,1,6.54-.53,9.46-.53,9.46-.8,13.35-.09,14.41.62,3.71.62,3.71-3.62,7.78-2.47,8.84.79,4,.79,4-2.47,0-1.41,1.06,1.85,6.63,1.85,6.63l10.69,1.24a22.93,22.93,0,0,0,2.4-4.51c1.41-3.27-.27-2.92-1.69-3.27s-.52-1.24,1.16-2.3.7-3.45.7-3.45-2.56-4.33-1.68-4.68,1-6.46,1-6.46,1.76-7.25,1.32-9.19,1.42-6.63,1.42-6.63l.62-5.57a15.38,15.38,0,0,0,1.93-10.55v-8.58s2.48-16.62,2.83-25c.23-5.38.16-12.72.09-17.3,0-2.57-.09-4.27-.09-4.27l-38.19-4a31.72,31.72,0,0,1-.69,5.67,82.27,82.27,0,0,1-2,8.21,37.06,37.06,0,0,0-1.06,17l.35,12.29s-3.36,8.22-2.65,11a24.65,24.65,0,0,1,.7,5.13s-7.51,17.94-6.71,23.16-2.48,13.44-2.48,13.44S542.91,727.4,543.79,729Z"/><g class="cls-21"><path d="M588,728.93a2.11,2.11,0,0,0,1-1.51l.11.18s1,2.39-.71,3.45l-.54.36c-.31-.06-.65-.1-1-.18C585.41,730.93,586.31,730,588,728.93Z"/><path d="M574.55,728.22c-.28-.26-.27-.94-.1-1.81A4.86,4.86,0,0,1,575,729,2.32,2.32,0,0,0,574.55,728.22Z"/><path d="M576.16,684.24a12.5,12.5,0,0,1,.7,3.25,13,13,0,0,0-.81-2.23S576.09,684.86,576.16,684.24Z"/><path d="M552.27,679.6a4.19,4.19,0,0,1-.09-1c.13.66.22,1.28.29,1.81Z"/><path d="M576.41,715.67a5.21,5.21,0,0,1-.27-2,6.84,6.84,0,0,1,.52,2.48A2.73,2.73,0,0,0,576.41,715.67Z"/><path d="M588.34,716.47s-.09,6.1-1,6.45h0c-.45-1-.75-2-.35-2.12.88-.36,1-6.46,1-6.46s1.77-7.25,1.33-9.19,1.41-6.63,1.41-6.63l.62-5.57a15.42,15.42,0,0,0,1.94-10.52v-8.58s2.48-16.62,2.83-25c.23-5.38.17-12.72.09-17.3v-2.18h.31s0,1.7.08,4.27c.08,4.58.14,11.92-.08,17.3-.36,8.4-2.83,25-2.83,25v8.57a15.43,15.43,0,0,1-2,10.52l-.62,5.57s-1.85,4.69-1.41,6.63S588.34,716.47,588.34,716.47Z"/><path d="M543.43,726.63a18.77,18.77,0,0,1,1.24,2.65v1.24c-.2-.45-.49-1-.88-1.77a5.13,5.13,0,0,1-.39-2.19Z"/><path d="M556.33,728a13.67,13.67,0,0,1-.87-2.1s1.5.36,3.89-2.47c1.73-2.06,1.83-6,1.58-8.49.45,1.51,1.16,7.78-1.23,10.61C558.14,727.42,557,727.93,556.33,728Z"/><path d="M560.94,708.42a45.8,45.8,0,0,0-.18,5.24c0-.27-.11-.55-.18-.82-.44-1.5,0-6.54,0-6.54s-.08-3.54.62-4.69,2.21-7.69,2.21-7.69a5.18,5.18,0,0,1,1.24-3.36c1.24-1.15,2-5.65,2-5.65a5.93,5.93,0,0,0,.89-3.81c-.27-2.21,1.5-4.59,1.5-4.59l3-9.55,2.83-7.16,1.59,4.15v1.35l-1.2-3.37-2.83,7.16-3,9.55s-1.76,2.39-1.5,4.6a5.83,5.83,0,0,1-.88,3.8s-.8,4.51-2,5.65a5.17,5.17,0,0,0-1.23,3.36s-1.51,6.55-2.21,7.7S560.94,708.42,560.94,708.42Z"/></g><path class="cls-22" d="M553.52,545.77l.66,3.23v2.5l3.69.38.41-.77h0a34,34,0,0,1,2.87-4.63c.68-.57,1.89-9.55.43-9a3.89,3.89,0,0,0-2.05,1.86S552.21,540.16,553.52,545.77Z"/><path class="cls-4" d="M554.11,551.5l3.69.38.41-.77h0a3.24,3.24,0,0,0-4.07-.67Z"/><path class="cls-23" d="M553.18,553.24l4.86,1.13.11-.72.27-2a3.35,3.35,0,0,0-4.68-.66l0,0-.24,1Z"/><path class="cls-22" d="M632,546.13l5.19,2.78.47-1c.49-1,1.23-2.59,1.43-3.15.31-.86,2.47-2,2.47-2,5.44-5.19-1-9.65-1-9.65-3.42-6.9-7.24,2.34-7.24,2.34s-.54,4.86-.16,5.19.37,1.66.37,1.66a19.59,19.59,0,0,0-1.25,3A8.49,8.49,0,0,0,632,546.13Z"/><path class="cls-4" d="M632,546.13l5.19,2.78.47-1c-.74-.61-3.33-2.72-4.19-2.62a6.32,6.32,0,0,1-1.23,0C632.06,545.82,632,546.13,632,546.13Z"/><path class="cls-23" d="M631.44,547.7l5.84,2.87.12-1.25.08-.87s-3.38-2.9-4.38-2.79a5.53,5.53,0,0,1-1.52,0l-.07,1Z"/><path class="cls-22" d="M567.66,567.21s25.44,2.87,20.69,1.33c-3.31-1.08-4.63-3.18-4.9-5.52a13.19,13.19,0,0,1,.94-5.89,24.85,24.85,0,0,1,2.28-4.59s-19.45-10.7-15.56-1a15.54,15.54,0,0,1,1.1,4.6,12.91,12.91,0,0,1-.5,4.67A14,14,0,0,1,567.66,567.21Z"/><path class="cls-4" d="M571.11,551.57a15.54,15.54,0,0,1,1.1,4.6c1.83,1.54,3.84,1.44,6.42,1.44,2,0,4.18.48,5.76-.48a24.85,24.85,0,0,1,2.28-4.59S567.22,541.84,571.11,551.57Z"/><circle class="cls-22" cx="578.98" cy="547.76" r="10.52"/><path class="cls-4" d="M567.66,567.21s25.44,2.87,20.69,1.33c-3.31-1.08-4.63-3.18-4.9-5.52-1.27-1.37-3.82-2.36-5.45-2.89a7.72,7.72,0,0,0-4.61-.07,6.43,6.43,0,0,0-1.68.78A13.93,13.93,0,0,1,567.66,567.21Z"/><path class="cls-4" d="M553.18,553.24l4.86,1.13.11-.72a4.29,4.29,0,0,0-4.68-1.6Z"/><path class="cls-4" d="M631.44,547.7l5.84,2.87.12-1.25a45.48,45.48,0,0,0-5.89-2.61Z"/><path class="cls-4" d="M557.6,631.32c9.85,1.56,23.87,3.58,26.1,2.9,1.84-.56,7.74-.5,12.87-.32,0-2.57-.09-4.27-.09-4.27l-38.19-4A31.94,31.94,0,0,1,557.6,631.32Z"/><path class="cls-2" d="M547.77,629s32.44,5.57,35.93,4.51,21.35.08,21.35.08c8.05,5.4,4.69-2.56,4.69-2.56a19.79,19.79,0,0,0-.27-7.51,45.53,45.53,0,0,1-1.32-7.52s.18-5.3-.8-6.54-2.12-10.08-2.12-10.08-.88-6-.79-7.34a49.53,49.53,0,0,0-.27-5L603,580.86c6.63-.89,26.79-13.26,26.79-13.26,1-4.16,8.48-13.88,8.48-13.88a9.46,9.46,0,0,1,.62-2.39c.53-1.41-7.42-4.24-7.42-4.24s-5.93,7.25-7.16,9.19-5.48,5.57-5.48,5.57a4.37,4.37,0,0,0-2,.25h-.1a15.66,15.66,0,0,0-4,2.27,7.75,7.75,0,0,0-5.39,2s-3.62-.53-4.24.09-3.71,0-3.71,0-3.1-6.55-5.13-4.65-10.62,1.87-10.62,1.87c-1.15-1.53-3.95-2.63-5.7-3.19a7.64,7.64,0,0,0-4.61-.08,6,6,0,0,0-1.82.88l-5.24,5.13s-1.5-2-1.32-2.39-1.77-.8-1.77-.8-2.56-.79-3.54-1.06-1.86.79-1.94.88a10.39,10.39,0,0,0,.44-3.88,4.4,4.4,0,0,1,1.06-3.18c-3.09-7.61-10.08-1.24-10.08-1.24s-.79,4.15-.09,5.74-.7,5-.53,5.84-.35,2.39-.35,4.07a23.2,23.2,0,0,0,1.42,6.27c.53,1.42,4.77,4.6,4.77,4.6s.26,5,2.12,8,.71,12.9.71,12.9-1.77,7.78-4,10.26S547.77,629,547.77,629Z"/><path class="cls-24" d="M581.82,557.3a2.27,2.27,0,0,1-.82,1.42,2.08,2.08,0,0,1-1,.22c-3.21.2-6.55.34-9.52-.89a3.54,3.54,0,0,1-1.44-1,5.55,5.55,0,0,1-.84-2.33,36.13,36.13,0,0,0-1.94-4.47,14.91,14.91,0,0,1-1-8,5.37,5.37,0,0,1,.81-2.35c.85-1.21,2.4-1.7,3.52-2.67s1.85-2.45,3.17-3.17a6,6,0,0,1,4-.35,21,21,0,0,1,7.41,2.78,3.7,3.7,0,0,0,2.48.84,3.47,3.47,0,0,0,1.82-1.4,9.91,9.91,0,0,1,.78,4.59,2,2,0,0,0,0,.69,1.81,1.81,0,0,0,.49.73c.79.92,1.28,2.37.5,3.3-.34.4-.86.62-1.19,1-.6.74-.4,1.81-.38,2.75a1.45,1.45,0,0,1-.24.93,1.31,1.31,0,0,1-1.29.31,3.87,3.87,0,0,0-1.39-.13,2.32,2.32,0,0,0-1.2.93A16.26,16.26,0,0,0,581.82,557.3Z"/><path class="cls-4" d="M583.66,563.68s-13.15,1.74-14.33-.24"/><path class="cls-2" d="M409.83,667.62h-10a1,1,0,0,0,0,2h2V683H367.58a1,1,0,0,0-.75-.36h-10a1,1,0,0,0,0,2h2v13.72H325.77a1,1,0,0,0-.94-.72h-10a1,1,0,0,0,0,2h1v14.09H282.24a1,1,0,0,0-.41-.09h-10a1,1,0,0,0,0,2h1v13.45H239.66a1,1,0,0,0-.81-.45h-10a1,1,0,0,0,0,2h1v15h226v-78Z"/><path class="cls-25" d="M174.19,729.08a7.94,7.94,0,0,0,3.41,3.72,30.81,30.81,0,0,1,4.26,2.91c1.54,1.46,2.54,3.48,4.35,4.6a8.51,8.51,0,0,0,2.2.91,13.16,13.16,0,0,0,2.71.55,19,19,0,0,0,7-1.2,6.56,6.56,0,0,0,2.1-.92,6.46,6.46,0,0,0,.8-.77,4.53,4.53,0,0,0,1.1-1.74,1.47,1.47,0,0,0-.1-1,2.5,2.5,0,0,0-.89-.85,15.63,15.63,0,0,0-2-1.11,10,10,0,0,1-2.62-1.39,5.73,5.73,0,0,1-1.27-1.71,16,16,0,0,1-1.44-3.45,11.43,11.43,0,0,0-.8-2.35c-.43-.79-1.12-1.47-1.58-2.24a1.84,1.84,0,0,0,.73-.1,6.92,6.92,0,0,0-.8-3.54c1,.08,1.47-1.23,1.31-2.2s-.63-2-.21-2.88a5.19,5.19,0,0,1,1.13-1.3c1.59-1.68,1.54-4.24,2.2-6.44a18.14,18.14,0,0,1,1.65-3.58c1.91-3.45,2.79-7.77,5.87-10.26l2.77-2.24a1.27,1.27,0,0,0,.43-.51c.16-.43-.18-.88-.16-1.34,0-.81,1.15-1.14,1.52-1.87a5.14,5.14,0,0,0,.27-1.11c.29-1.27,1.53-2.06,2.42-3a6.82,6.82,0,0,0,1.77-5.44,4.32,4.32,0,0,1-.08-1.48,6.46,6.46,0,0,1,.39-1,9.32,9.32,0,0,0,.33-3.24,28,28,0,0,1,.63-5.15l13.66-3.1c.09.1.17.2.27.3,1.21,1.23,1.81,3,3,4.28l1.56,1.72c.3.33.61.77.43,1.17s-.41.41-.6.63a1.07,1.07,0,0,0,.92,1.69,2.06,2.06,0,0,0,.58,2.86,1.69,1.69,0,0,0,.49.23,8.42,8.42,0,0,1-1.14,1.74,1.46,1.46,0,0,1,.3.88,5.31,5.31,0,0,1-.2.56,2.26,2.26,0,0,0,.11,1.26,18.93,18.93,0,0,1,0,9.8,5.2,5.2,0,0,0-.26,1.35,3.56,3.56,0,0,0,.17,1.13c.46,1.65,1.38,3.38.74,5a8.82,8.82,0,0,0-.54,1.17c-.36,1.2.47,2.38.92,3.55a12.25,12.25,0,0,1,.44,5c-.11,2.32-.23,4.63-.34,6.94a2.66,2.66,0,0,0,.13,1.25,2.08,2.08,0,0,0,1.4,1.08c-.14.47-.28.94-.44,1.4a.84.84,0,0,0-1.14-.3.75.75,0,0,0-.26.24,1.31,1.31,0,0,0-.18.66,16.35,16.35,0,0,0,.81,4.91,2.58,2.58,0,0,1,.07.78,5.25,5.25,0,0,1-.27.79.76.76,0,0,0-.06.2,4.81,4.81,0,0,0,.22,2.38,2.06,2.06,0,0,0,.69,1.27,1.9,1.9,0,0,0,.9.28c4.78.55,9.44-2.56,14.22-2,1,.11,1.94.37,2.92.47a14.77,14.77,0,0,0,3.45-.17c1.6-.21,3.19-.48,4.76-.79a11.92,11.92,0,0,0,3.47-1.11,4.36,4.36,0,0,0,2.23-2.73,2.12,2.12,0,0,0-.2-1.54,2,2,0,0,0-.4-.42,4.42,4.42,0,0,0-1.24-.59l-1.85-.67a11.58,11.58,0,0,0-2.76-.72c-.69-.06-1.4,0-2.09,0-2.44-.13-4.59-1.53-6.6-2.87l-2.74-1.82a1.8,1.8,0,0,0-1.87-.31l-.38.14,1.69-.94q.12-12.36-.06-24.71a26.54,26.54,0,0,0-.58-6.09c-.3-1.14-.62-2.63.38-3.27.26-.89-.27-1.78-.51-2.66s.1-2.15,1-2.16c-.92-1.62-.89-3.58-.93-5.44a39.53,39.53,0,0,0-.3-4.57,13.08,13.08,0,0,0-1.58-5.38L259.48,656l-.44-2,2-.45-10.86-47.81a1.27,1.27,0,0,0,.83-1.14c0-.47-.51-.9-.36-1.35.09-.27.36-.42.53-.65a1.57,1.57,0,0,0-.17-1.78.57.57,0,0,1-.09-.75,2.36,2.36,0,0,0-.67-2.78,1.2,1.2,0,0,0-.39-.2,2.84,2.84,0,0,1-.92,0c-.32-.1-.33-.28-.69-.31h-.11L244,578.74a20.35,20.35,0,0,0,.72-2.68,8.55,8.55,0,0,0-.43-4.85,9.85,9.85,0,0,0,2.38-1.79,1.35,1.35,0,0,0,.32-1.7,12.25,12.25,0,0,0-4-5.47c-.57-.43-1.92-1.57-2.75-1.32a9.05,9.05,0,0,1,.66-.87,8.66,8.66,0,0,0,1.31-1.64,11.43,11.43,0,0,0,6.81-13c0-.15-.08-.31-.13-.46a1.82,1.82,0,0,0,1.54-.56,2,2,0,0,0,.18-2,17.55,17.55,0,0,0-1-1.8c-.75-1.36-.57-3.12-1.34-4.39a15,15,0,0,0-2.73-3,8.77,8.77,0,0,0-7.28-1.66,15.77,15.77,0,0,0-6.85,3.44,9,9,0,0,1-1.92,1.33c-1.14.52-2.54.5-3.49,1.31-1.26,1.07-1.1,3-.62,4.6s1.19,3.23.64,4.79a9.35,9.35,0,0,0-.55,1.41,4,4,0,0,0,.67,2.59,4,4,0,0,0,.32-.57v.06c.07.26.15.52.22.78a.88.88,0,0,0-.33.07c-.47.21-.68.76-1.07,1.1s-1.36.56-1.55,1.19c-.09.3,0,.63-.11.92-.24.57-1.08.57-1.52,1a1.27,1.27,0,0,0-.25,1.3,2.55,2.55,0,0,0,.34.68,1.37,1.37,0,0,0,.09.87l-5.58,1.35a12.09,12.09,0,0,0-2.59.85,4,4,0,0,0-1.91,1.87.34.34,0,0,1-.21.27.45.45,0,0,1-.28,0,5,5,0,0,0-2.89.14,15.6,15.6,0,0,0-7.39,5.4,2.72,2.72,0,0,0-.71,1.4c-.05.6.28,1.27,0,1.79l-.29.12a14.15,14.15,0,0,0-2.37,1c-.81.48-1.52,1.11-2.28,1.67-3.11,2.28-7.22,3.41-9.42,6.56-.72,1-1.24,2.29-2.34,2.93a15.11,15.11,0,0,0-1.5.77c-.92.71-1,1.94-1.21,3.11l-19.65,4.47.44,1.94-2,.45,18.16,79.91,16.76-3.8a4.34,4.34,0,0,0,.16,1.13,9.38,9.38,0,0,0,1.15,3.32,1.9,1.9,0,0,0-1.32,1.77c-.09.77.05,1.57-.11,2.33-.3,1.36-1.48,2.33-2.46,3.34-4.46,4.58-5.4,11.34-7.68,17.26-1.07,2.76-2.46,5.41-3.16,8.27-.8,3.25-.85,7-3.41,9.25a1.81,1.81,0,0,0-.58.68,1.09,1.09,0,0,0,0,.62,3,3,0,0,0,1,1.52l-.12.23h-.3c-.52,0-.81.66-1,1.06a11.36,11.36,0,0,0-1.32,4.51,1.62,1.62,0,0,0-.44,0,1.86,1.86,0,0,0-1.35,1.11A2.93,2.93,0,0,0,174.19,729.08ZM239.32,563.2h-.2a7.77,7.77,0,0,1,.59-1.36A8.11,8.11,0,0,0,239.32,563.2Zm-53.5,159.73a1.73,1.73,0,0,1-.57.87h-.05a1.31,1.31,0,0,1,.1-.32l.22-.63Z"/><path class="cls-2" d="M244.32,718.93c-3,1.11-6.2,2.1-9.4,1.81-.49,0-1.09-.24-1.14-.73a1,1,0,0,1,.11-.5,30.38,30.38,0,0,0,1.61-6,.44.44,0,0,1,.12-.28.44.44,0,0,1,.3-.07c1.46,0,2.85.66,4.31.73a5.56,5.56,0,0,0,2.17-.32c.61-.21,1.34-.92,1.91-1C244.43,714.66,244.09,716.76,244.32,718.93Z"/><path class="cls-2" d="M184.2,727.09c-2.37-.94-4.83-1.94-6.54-3.84a.69.69,0,0,1-.24-.4.83.83,0,0,1,.07-.46,17.77,17.77,0,0,1,3.31-5.73,13.26,13.26,0,0,1,3,1.7c.64.43,2.27,1,2.46,1.8.12.48-.31,1.14-.48,1.57-.22.59-.43,1.18-.62,1.78A22.25,22.25,0,0,0,184.2,727.09Z"/><path class="cls-16" d="M233.54,727.93a2.1,2.1,0,0,0,.68,1.27,1.77,1.77,0,0,0,.9.28c4.71.57,9.29-2.52,14-2,1,.11,1.92.38,2.88.47a14.45,14.45,0,0,0,3.41-.16c1.57-.2,3.14-.46,4.69-.77a11.51,11.51,0,0,0,3.41-1.09,4.36,4.36,0,0,0,2.2-2.73,2.23,2.23,0,0,0-.21-1.54,2,2,0,0,0-.4-.42,4.77,4.77,0,0,0-1.22-.6l-1.83-.67a11.29,11.29,0,0,0-2.72-.73,20.22,20.22,0,0,0-2.06,0c-2.41-.15-4.53-1.55-6.52-2.9l-2.7-1.83a2.41,2.41,0,0,0-.9-.43,2.17,2.17,0,0,0-1,.12,12.79,12.79,0,0,0-5.49,3.35,8.91,8.91,0,0,1-1.27,1.19,5.32,5.32,0,0,1-4.22.42c-.63-.17-.54-.37-.9-.85s-1-.69-1.39-.09a1.28,1.28,0,0,0-.18.66,16.4,16.4,0,0,0,.81,4.91,2.59,2.59,0,0,1,.08.78,5.25,5.25,0,0,1-.27.79.73.73,0,0,0-.05.2A4.77,4.77,0,0,0,233.54,727.93Z"/><path class="cls-2" d="M233.54,727.93a2.1,2.1,0,0,0,.68,1.27,1.77,1.77,0,0,0,.9.28c4.71.57,9.29-2.52,14-2,1,.11,1.92.38,2.88.47a14.45,14.45,0,0,0,3.41-.16c1.57-.2,3.14-.46,4.69-.77a11.51,11.51,0,0,0,3.41-1.09,4.36,4.36,0,0,0,2.2-2.73,2.23,2.23,0,0,0-.21-1.54,2,2,0,0,0-.4-.42c-.14.59-.16,1.34-.26,1.63a3.15,3.15,0,0,1-1.71,1.93,5.14,5.14,0,0,1-1.91.18c-4.17-.08-8.37.86-12.49.24a30.78,30.78,0,0,0-4.26-.61,30.93,30.93,0,0,0-4.3.62c-2.26.32-4.57.14-6.85.29A4.71,4.71,0,0,0,233.54,727.93Z"/><path class="cls-16" d="M174.18,729.07a8,8,0,0,0,3.38,3.73,29.62,29.62,0,0,1,4.21,2.93c1.52,1.46,2.51,3.49,4.31,4.61a8,8,0,0,0,2.17.92,14.24,14.24,0,0,0,2.67.56,18.6,18.6,0,0,0,6.92-1.18,6.25,6.25,0,0,0,2.08-.92,6.17,6.17,0,0,0,.74-.79,4.54,4.54,0,0,0,1.07-1.74,1.57,1.57,0,0,0-.09-1,2.56,2.56,0,0,0-.88-.85,15.63,15.63,0,0,0-2-1.11,9.87,9.87,0,0,1-2.59-1.41,5.88,5.88,0,0,1-1.26-1.71,15.84,15.84,0,0,1-1.42-3.46,12.06,12.06,0,0,0-.8-2.35c-.63-1.15-1.8-2.06-2-3.36a1,1,0,0,0-.17-.54.81.81,0,0,0-.49-.17,8.55,8.55,0,0,0-2.37,0,2.66,2.66,0,0,0-1.9,1.29c-.23.46-.32,1-.75,1.32a1.64,1.64,0,0,1-.71.19,5.86,5.86,0,0,1-3.49-.27,4.15,4.15,0,0,1-2.05-2.68c-.08-.43,0-.92-.67-.86s-.79.66-1,1.06a11.36,11.36,0,0,0-1.29,4.51,1.62,1.62,0,0,0-.44,0A1.84,1.84,0,0,0,174,726.9,3.07,3.07,0,0,0,174.18,729.07Z"/><path class="cls-2" d="M174.18,729.07a8,8,0,0,0,3.38,3.73,29.62,29.62,0,0,1,4.21,2.93c1.52,1.46,2.51,3.49,4.31,4.61a8,8,0,0,0,2.17.92,14.24,14.24,0,0,0,2.67.56,18.6,18.6,0,0,0,6.92-1.18,6.25,6.25,0,0,0,2.08-.92,6.17,6.17,0,0,0,.74-.79,4.54,4.54,0,0,0,1.07-1.74,3.4,3.4,0,0,0-1.49,0c-1,.28-1.52,1.41-2.43,1.92-1.29.74-2.89.07-4.37.06-1,0-1.93.27-2.89.18a7.14,7.14,0,0,1-2.35-.77,10.86,10.86,0,0,1-2.69-1.63,13.27,13.27,0,0,1-1.87-2.29,39.41,39.41,0,0,0-3.75-4.4,4.24,4.24,0,0,0-.69-.58c-.28-.13-.56-.25-.84-.35a5.58,5.58,0,0,1-2.34-2.65,5.73,5.73,0,0,0-.61-.93,1.84,1.84,0,0,0-1.32,1.11A3,3,0,0,0,174.18,729.07Z"/><path class="cls-26" d="M239.41,560.16a10.2,10.2,0,0,0-2.06,3.92c-.36,1.44-1.88,12.31-1.33,13.69-1.52-1-6.46-.06-8-1-.64-.4-4-2.37-4.6-2.88s-4-1.09-4.48-1.63c-1.81-2,6.59-13.07,4.75-15a.42.42,0,0,1-.13-.59l.05-.06a16.42,16.42,0,0,1,2.54-2.73,5,5,0,0,0,1.67-3.25,10.32,10.32,0,0,1,3.06,1.2q3.41,1.78,6.75,3.72c.87.5,2.46,1.07,3,1.94S240,559.47,239.41,560.16Z"/><path class="cls-7" d="M221.78,560.31a31.55,31.55,0,0,1,5.27,2.62,9.23,9.23,0,0,1,3.86,3.89c.29.67.44,1.39.7,2.07,1.16,3,4.34,4.62,6.17,7.23a16,16,0,0,1,1.38,2.58,36.21,36.21,0,0,1,1.76,5.27c.43,1.75-1,3.35-1.28,5.13a28.66,28.66,0,0,0,0,5.24,63,63,0,0,1-.7,9.9c-.86,6.92-4.35,26.32-5.21,33.25-7.51-.17-27.33,0-34.47-2.29-2.39-.77,11-18.66,8.59-19.12a.86.86,0,0,1-.92-.8.68.68,0,0,1,0-.2c0-10.32,5.19-20,6.2-30.23.36-3.56,1.7-6.84,2.49-10.33.71-3.16.72-6.48,1.74-9.56a5.47,5.47,0,0,1,.85-1.75,6.87,6.87,0,0,1,1.13-1.09C220.18,561.43,221,560.93,221.78,560.31Z"/><circle class="cls-26" cx="236.26" cy="548.05" r="11.39"/><path class="cls-2" d="M226.15,555.84a3.84,3.84,0,0,0-4.32.34,2.07,2.07,0,0,0-.78,2.29l-5.49,1.34a11.27,11.27,0,0,0-2.56.83,4,4,0,0,0-1.87,1.86c0,.11-.1.23-.21.27s-.18,0-.27,0a5,5,0,0,0-2.86.13,15.26,15.26,0,0,0-7.26,5.37,2.67,2.67,0,0,0-.7,1.39c0,.67.37,1.42,0,2,1.18,5.17.5,10.4.46,15.71a6.93,6.93,0,0,1-1.12,2.77,9.49,9.49,0,0,0-1.18,3.07c-.41,2.84,1.67,5.59,1.29,8.44a14.23,14.23,0,0,1-1.22,3.42,7.75,7.75,0,0,0-.73,4.21c.1.64.33,1.26.45,1.9a12.56,12.56,0,0,1,.11,2.6c0,1.61-.13,3.22-.23,4.83-.15,2.6-.49,5.45-2.38,7.25,5.49-.3,11.26-.69,15.88-3.68a8.66,8.66,0,0,0,1.76-1.44c1.53-1.71,1.9-4.13,2.2-6.4a27.46,27.46,0,0,0,.3-7.68,8,8,0,0,1-.2-2.44c.2-1.48,1.37-2.61,2.45-3.65a15.65,15.65,0,0,0,3.09-3.78,6.06,6.06,0,0,0,.52-4.73c-.27-.76-.74-1.43-1-2.21a1.88,1.88,0,0,1,.63-2.14c3.59-2,4.39-7,4.35-11.14a32.25,32.25,0,0,0-.9-6.26l-.85-4a5.5,5.5,0,0,0,.86-4.19,4.22,4.22,0,0,1-.26-1.27,3.33,3.33,0,0,1,.58-1.54A12.35,12.35,0,0,0,226.15,555.84Z"/><path class="cls-2" d="M240.87,565.85a27.67,27.67,0,0,0,1,3.7c.21.45.5.85.74,1.28a8.37,8.37,0,0,1,.68,5.35,29.87,29.87,0,0,1-1.62,5.23,6.68,6.68,0,0,0-.49,1.8,8,8,0,0,0,.08,1.9,57.86,57.86,0,0,1,.37,7.67,14.93,14.93,0,0,1-1.25,6.5,1.82,1.82,0,0,1-.91,1,1.91,1.91,0,0,1-.95,0l-3.08-.44a1.74,1.74,0,0,1-.74-.2,1.7,1.7,0,0,1-.65-1,16.53,16.53,0,0,1-.28-7c.81-7.07,2.44-14.07,2.41-21.18,0-2-.45-4.92.59-6.73.42-.75.29-.44,1-.27a9.08,9.08,0,0,1,1.11.29A3.42,3.42,0,0,1,240.87,565.85Z"/><path class="cls-3" d="M235.13,580.21q.21,6.27.41,12.51l-11.69-.39a7.77,7.77,0,0,1,.21-3.52c.44-2.75-.18-5.56,0-8.34.17-2.12.83-4.17,1-6.29.07-1.23,0-2.47,0-3.71a25.29,25.29,0,0,1,.53-3.65,21.86,21.86,0,0,1,1.39-5c1.53.21,3.18.47,4.27,1.57a5.53,5.53,0,0,1,1.22,2.21c.76,2.44.43,5.13,1.28,7.52A22.59,22.59,0,0,1,235.13,580.21Z"/><path class="cls-16" d="M233.66,636.47c-.08,2.5,1.38,4.75,2.64,6.91A57.83,57.83,0,0,1,241,653.63a9,9,0,0,0,1.17,2.6,23.45,23.45,0,0,0,1.84,1.89c1.56,1.71,2.07,4.11,2.34,6.41a45.73,45.73,0,0,1,.31,4.57c0,1.86,0,3.83.94,5.45-.92,0-1.26,1.26-1,2.15s.77,1.78.52,2.67c-1,.63-.66,2.12-.37,3.27a27.12,27.12,0,0,1,.6,6.09q.21,12.36.14,24.7c-3.7,2.13-8,4.47-12.22,3.63a2.49,2.49,0,0,1-1.92-1.23,2.62,2.62,0,0,1-.13-1.24l.31-6.94a12.43,12.43,0,0,0-.45-5c-.45-1.17-1.27-2.35-.92-3.55.12-.41.37-.77.53-1.17.63-1.59-.29-3.32-.74-5a3.67,3.67,0,0,1-.18-1.14,5.64,5.64,0,0,1,.25-1.35,19.26,19.26,0,0,0,0-9.8,2.32,2.32,0,0,1-.11-1.25,3.47,3.47,0,0,0,.19-.57,1.46,1.46,0,0,0-.3-.88,8.73,8.73,0,0,0,1.13-1.73,2.07,2.07,0,0,1-1.29-2.64,1.88,1.88,0,0,1,.22-.45,1.09,1.09,0,0,1-1.11-1.07,1.11,1.11,0,0,1,.19-.63c.2-.22.48-.36.6-.63s-.14-.84-.43-1.16l-1.54-1.7c-1.15-1.29-1.75-3.06-2.95-4.3a35,35,0,0,1-4.4-5.94l-5.1-8L215.35,652a6.72,6.72,0,0,0-1.3,2.39,8.8,8.8,0,0,0,0,2.51c.3,4.91-1.75,9.7-1.8,14.61a9.11,9.11,0,0,1-.31,3.25,5.27,5.27,0,0,0-.38,1,4.32,4.32,0,0,0,.08,1.48,6.83,6.83,0,0,1-1.72,5.43c-.88,1-2.1,1.75-2.38,3a6,6,0,0,1-.26,1.11c-.37.73-1.44,1.05-1.49,1.86,0,.46.32.92.16,1.35a1.24,1.24,0,0,1-.43.5l-2.71,2.23c-3,2.49-3.89,6.8-5.76,10.25a17.52,17.52,0,0,0-1.61,3.56c-.65,2.2-.59,4.76-2.15,6.44a5.06,5.06,0,0,0-1.11,1.29c-.41.89,0,1.91.21,2.88s-.3,2.28-1.28,2.2a6.92,6.92,0,0,1,.8,3.54A18.26,18.26,0,0,1,180.08,721a4.37,4.37,0,0,1-2.44-2.56,1.09,1.09,0,0,1,0-.62,1.7,1.7,0,0,1,.57-.68c2.51-2.2,2.56-6,3.33-9.23a62.77,62.77,0,0,1,3.08-8.26c2.24-5.92,3.14-12.67,7.52-17.23,1-1,2.12-2,2.41-3.33.16-.77,0-1.56.11-2.34A1.87,1.87,0,0,1,196,675a9.79,9.79,0,0,1-1.15-3.32,4.33,4.33,0,0,1-.16-1.52,7.73,7.73,0,0,1,.42-1.62,14.42,14.42,0,0,0,.23-8,12.32,12.32,0,0,1-.79-4.08c.06-.71.28-1.38.39-2.08a12.25,12.25,0,0,0-.22-3.67l-.74-4.58a21.47,21.47,0,0,1-.43-4.6c.15-3.72-2.27-18.61.59-21s10.93,7.66,14.61,7.06a16.56,16.56,0,0,1,4.92-.16,23.21,23.21,0,0,1,7.36,2.78l7.94,4.09A24,24,0,0,0,233.66,636.47Z"/><path class="cls-2" d="M243.89,533.34a8.63,8.63,0,0,0-7.18-1.69,15.49,15.49,0,0,0-6.74,3.42,9.49,9.49,0,0,1-1.89,1.33c-1.13.51-2.5.49-3.44,1.29-1.24,1.07-1.08,3-.59,4.6s1.17,3.24.64,4.79a12,12,0,0,0-.54,1.41,4.06,4.06,0,0,0,.67,2.6,19.63,19.63,0,0,0,1-2,1.74,1.74,0,0,1,1.83-1c.7.22.86,1,1,1.68s.54,1.42,1.22,1.49a1.38,1.38,0,0,0,1.27-.87c.78-1.55-.13-3.56.63-5.12.44-.9,1.36-1.49,1.75-2.41.3-.72.23-1.54.46-2.29s1-1.45,1.73-1.12a2.88,2.88,0,0,1,.65.56,3,3,0,0,0,3.67.25,5.78,5.78,0,0,1,1.34-1,1.86,1.86,0,0,1,1.9.54,3.84,3.84,0,0,1,.89,1.86,4.51,4.51,0,0,0,1,2.61,2.81,2.81,0,0,0,1,.52,2.41,2.41,0,0,0,2.66-.33,2,2,0,0,0,.17-2,17.55,17.55,0,0,0-1-1.8c-.75-1.37-.58-3.13-1.34-4.4A15.59,15.59,0,0,0,243.89,533.34Z"/><path class="cls-3" d="M245.47,567.84a1.81,1.81,0,0,1,.12,1,1.72,1.72,0,0,1-.43.66,11.69,11.69,0,0,1-4.85,2.89,1.53,1.53,0,0,0-.68.35,1.31,1.31,0,0,0,0,1.53,3.87,3.87,0,0,1,.68,1.47c.09,1-1,1.72-1.93,2.07a5.43,5.43,0,0,1-4.15.13,6,6,0,0,1-2.19-2.09c-4.11-5.58-6.61-12.21-10.75-17.77a4,4,0,0,1-.7-1.2,1.31,1.31,0,0,1,.24-1.3c.44-.43,1.27-.43,1.5-1,.11-.28,0-.62.1-.91.19-.64,1-.76,1.53-1.19s.59-.89,1-1.09a1.62,1.62,0,0,1,1.41.26c2,1.13,3.27,3.06,4.61,4.86a67.61,67.61,0,0,0,6.79,7.76c-.28-.28.37-3.06.83-3.26.8-.37,2.22.87,2.8,1.32A12.28,12.28,0,0,1,245.47,567.84Z"/><rect class="cls-4" x="168.04" y="584.22" width="82" height="82" transform="translate(-133.32 61.85) rotate(-12.8)"/><rect class="cls-8" x="169.53" y="581.84" width="82" height="82" transform="translate(-132.76 62.12) rotate(-12.8)"/><path class="cls-3" d="M233.84,615.76a22.59,22.59,0,0,0-27-17c-.57.13-1.16.29-1.68.45l5.38,23.64,23.64-5.37C234.08,616.93,234,616.33,233.84,615.76Z"/><path class="cls-3" d="M231.55,621.63,207.9,627l-5.37-23.64a22.57,22.57,0,1,0,29,18.27Z"/><path class="cls-26" d="M195.5,619.42a23.39,23.39,0,0,1,3.14,2.08,5.56,5.56,0,0,1,1.94,3.15,1.9,1.9,0,0,1-.1,1.08.88.88,0,0,1-.89.5,1.35,1.35,0,0,1-.56-.31,20.56,20.56,0,0,0-2-1.35c-.25-.15-.56-.31-.81-.17a.71.71,0,0,0-.28.29,2.23,2.23,0,0,0-.43,1.18,2.46,2.46,0,0,0,1.19,1.83,5.44,5.44,0,0,1,1.63,1.54.82.82,0,0,1,.11.59.87.87,0,0,1-.29.39,5.38,5.38,0,0,1-4.37,1.3c-1-.16-2-.63-3.06-.75a6.26,6.26,0,0,1-1.31-.17,2.5,2.5,0,0,1-1.44-1.36,6.29,6.29,0,0,1-.52-2,23,23,0,0,1-.06-7.85,1,1,0,0,1,.18-.46.94.94,0,0,1,.43-.23c1.17-.4,3-1.46,4.27-1.28a3.46,3.46,0,0,1,1.23.68C193.83,618.33,195.43,619.11,195.5,619.42Z"/><path class="cls-2" d="M195.66,618.27c-.24-1.15.54-4.24-1.76-3.91-.27-1.23,1.28-2.38.67-3.61-.2-.4-.64-.68-.79-1.11-.43-1.22,1.68-2.41,1-3.53-.25-.43-.81-.6-1-1-.5-1,1.33-2,1.12-3.08-.08-.37-.38-.68-.45-1.06a3,3,0,0,1,.36-1.37c.35-1.18-.31-2.74.64-3.53-.7.23-1.18-.77-1-1.48s.62-1.41.46-2.12a3,3,0,0,1-.19-.78c0-.73,1.15-1,1.18-1.77a5.36,5.36,0,0,0-.15-.78,1.49,1.49,0,0,1,.9-1.28A4.43,4.43,0,0,0,198,587c.27-.32.56-.83,1-.69.15,0,.25.19.38.28.53.39,1.29,0,1.74-.49a7.42,7.42,0,0,0,1.58-5.45c-.08-2-.53-3.87-.54-5.81a12.23,12.23,0,0,1,.12-1.81,9,9,0,0,0,.41-1.86c-.16-1.1-2.23.15-3,.45a12.78,12.78,0,0,0-2.34,1,24.47,24.47,0,0,0-2.24,1.66c-3.06,2.27-7.11,3.39-9.26,6.52-.71,1-1.22,2.29-2.3,2.93a14.78,14.78,0,0,0-1.48.77c-1.16.9-1,2.66-1.39,4.06a7,7,0,0,0-.35,1.16,4.13,4.13,0,0,0,.11,1.36l.65,3.28a122.91,122.91,0,0,0,4,16.29,14.19,14.19,0,0,1,1.16,5.37c0,.49-.13,1-.14,1.48a7.25,7.25,0,0,0,.21,1.73l.4,2.13a.58.58,0,0,0,.22.46.7.7,0,0,0,.6,0c2.87-.93,5.46-3.26,8.46-2.89"/><path class="cls-26" d="M248.37,597.25a1.2,1.2,0,0,1,.39.2,2.41,2.41,0,0,1,.67,2.78.57.57,0,0,0,.09.75,1.63,1.63,0,0,1,.17,1.79c-.16.22-.43.37-.52.64-.15.45.31.88.36,1.35.06.63-.59,1.09-1.18,1.31a1.55,1.55,0,0,1-1.42,0,1.13,1.13,0,0,1-.28-1.22,3.17,3.17,0,0,1,.7-1.11,1.4,1.4,0,0,1-1.59-.93,2,2,0,0,1,.39-1.88.78.78,0,0,0,.23-.44c0-.22-.22-.37-.41-.49-.81-.53-1.75-2.09-.54-2.75a3.41,3.41,0,0,1,1.35-.25c.36,0,.4.23.69.31S248.06,597.2,248.37,597.25Z"/><path class="cls-4" d="M224.13,552.93a2.35,2.35,0,0,1,1.94.47,5.28,5.28,0,0,1,1.26,2.17,20.54,20.54,0,0,0,4.47,6.82"/><path class="cls-4" d="M222.16,555.37a2.77,2.77,0,0,1,2.59.85,8.49,8.49,0,0,1,1.1,2.19,12.89,12.89,0,0,0,3.39,4.36"/></g></g></svg>