<svg xmlns="http://www.w3.org/2000/svg" viewBox="0 0 643.42 396.62"><defs><style>.cls-1{fill:#ebebeb;}.cls-2{fill:#e0e0e0;}.cls-3{fill:#f5f5f5;}.cls-4{fill:#fafafa;}.cls-5{fill:#263238;}.cls-6{fill:#ff6a5c;}.cls-7{fill:#e8505b;}.cls-8{opacity:0.3;}.cls-9{fill:#455a64;}.cls-10,.cls-12{fill:#fff;}.cls-11,.cls-12{opacity:0.5;}.cls-13{fill:#b7765c;}.cls-14{fill:#9b5e49;}.cls-15{opacity:0.2;}</style></defs><title>data-serversAsset 2</title><g id="Layer_2" data-name="Layer 2"><g id="Wifi"><path class="cls-1" d="M544.82,379.85c-17.55-15.38-19.15-40.53-16-62.61.54-3.69.56-7.64,2.68-10.69s6.47-4.82,9.61-2.89c2.61,1.59,3.45,4.92,4.7,7.73a21.72,21.72,0,0,0,7.76,9.25c2.23,1.49,5.06,2.55,7.53,1.53,3.38-1.41,4.25-5.78,4.63-9.46q1.07-10.31,2.14-20.6c.38-3.68.79-7.44,2.32-10.81s4.42-6.33,8-6.93,7.71,1.9,8.05,5.59c.15,1.53-.33,3.06-.4,4.59s.46,3.31,1.87,3.9,3-.29,4.23-1.25c4.21-3.29,7.31-7.8,10.25-12.29s5.81-9.11,9.7-12.79,9-6.36,14.32-6.07,10.56,4.15,11.33,9.47-2.85,10.27-6.61,14.11a82.55,82.55,0,0,1-18.9,14.42,6.78,6.78,0,0,0-3.2,2.76c-1.07,2.37,1,5.06,3.32,6.13,2.64,1.22,5.65,1.26,8.48,1.92s5.8,2.26,6.59,5.09c1.09,3.93-2.49,7.53-5.87,9.77a70.93,70.93,0,0,1-22.16,9.73c-2.81.69-5.76,1.24-8.15,2.91s-4.08,4.82-3,7.56,4.33,3.94,7.23,3.73,5.6-1.47,8.42-2.2c5.26-1.35,11.76-.28,14.52,4.45,1.81,3.11,1.55,7.13.1,10.44a26.84,26.84,0,0,1-6.58,8.48c-9.16,8.62-20.38,15.13-32.57,17.91s-23.17,2.67-34.37-2.88"/><path class="cls-2" d="M542.72,396.26a162.24,162.24,0,0,1,9.36-29.68,331.07,331.07,0,0,1,17-34.06l4.92-8.7c1.62-2.86,3.22-5.68,5-8.35a165.69,165.69,0,0,1,10.89-14.77c3.69-4.53,7.36-8.69,10.82-12.56s6.77-7.4,9.91-10.49a132,132,0,0,1,15.92-13.5c2-1.44,3.58-2.5,4.66-3.21l1.24-.8a2.06,2.06,0,0,1,.44-.25l-.4.31-1.2.85c-1.06.75-2.62,1.85-4.59,3.32A138.64,138.64,0,0,0,610.94,278c-3.12,3.1-6.39,6.65-9.83,10.53s-7.09,8.05-10.76,12.58a167.52,167.52,0,0,0-10.82,14.73c-1.72,2.65-3.31,5.46-4.94,8.32l-4.91,8.7a338.56,338.56,0,0,0-17,34,165.41,165.41,0,0,0-9.47,29.53"/><path class="cls-2" d="M579.17,315.46a7.88,7.88,0,0,1-.18-1.61c-.08-1-.15-2.54-.21-4.4-.11-3.73-.1-8.87-.06-14.55s0-10.8-.19-14.51c-.09-1.86-.17-3.36-.24-4.4a7,7,0,0,1,0-1.62,8.79,8.79,0,0,1,.29,1.6c.15,1,.3,2.53.44,4.39.3,3.71.44,8.86.4,14.55s-.1,10.66-.14,14.53c0,1.75,0,3.22,0,4.4A6.7,6.7,0,0,1,579.17,315.46Z"/><path class="cls-2" d="M627.47,311.84a11.28,11.28,0,0,1-1.91,0c-1.23,0-3-.08-5.19-.07-4.39,0-10.45.19-17.12.7s-12.7,1.26-17,1.91c-2.18.31-3.93.61-5.14.81a9.35,9.35,0,0,1-1.9.25A10.49,10.49,0,0,1,581,315c1.2-.28,2.94-.65,5.11-1,4.34-.78,10.37-1.59,17.07-2.11a164.33,164.33,0,0,1,17.17-.5c2.2.05,4,.17,5.21.28A9.16,9.16,0,0,1,627.47,311.84Z"/><path class="cls-2" d="M552.76,365.78a3,3,0,0,1-.26-.62c-.17-.48-.38-1.08-.62-1.8-.53-1.56-1.25-3.85-2.09-6.69-1.68-5.67-3.76-13.58-5.94-22.34s-4.19-16.68-5.75-22.38l-1.87-6.75c-.2-.73-.37-1.34-.5-1.84a2,2,0,0,1-.13-.65,2.47,2.47,0,0,1,.26.61l.62,1.8c.53,1.57,1.24,3.85,2.08,6.69,1.69,5.68,3.77,13.59,6,22.35s4.18,16.68,5.75,22.38l1.87,6.74c.2.74.36,1.34.5,1.84A2.43,2.43,0,0,1,552.76,365.78Z"/><path class="cls-2" d="M617.88,352.45a3.09,3.09,0,0,1-.65.18l-1.9.41c-1.74.37-4.1.85-7,1.44-5.89,1.22-14,3-23,5s-17.1,3.67-23,4.77c-3,.55-5.36,1-7,1.22l-1.92.29a3.06,3.06,0,0,1-.67,0,2.08,2.08,0,0,1,.65-.19l1.89-.41,7-1.44c5.89-1.22,14-3,23-5s17.1-3.67,23-4.76c3-.55,5.35-1,7-1.23l1.91-.28A2.07,2.07,0,0,1,617.88,352.45Z"/><rect class="cls-3" x="458.59" y="136.53" width="84.76" height="259.65" transform="translate(1001.95 532.72) rotate(-180)"/><rect class="cls-4" x="391.86" y="136.53" width="66.99" height="259.65" transform="translate(850.72 532.72) rotate(-180)"/><rect class="cls-2" x="466.9" y="178.09" width="71.9" height="20.24" transform="translate(1005.71 376.42) rotate(-180)"/><rect class="cls-3" x="532.77" y="180.63" width="4.03" height="15.49" transform="translate(1069.57 376.76) rotate(-180)"/><path class="cls-4" d="M528,183.89a1.28,1.28,0,0,0,2.56,0,1.28,1.28,0,1,0-2.56,0Z"/><circle class="cls-4" cx="529.31" cy="189.37" r="1.28"/><rect class="cls-3" x="518.96" y="182.61" width="3.96" height="11.9" transform="translate(1041.87 377.13) rotate(-180)"/><rect class="cls-3" x="513.24" y="182.61" width="3.96" height="11.9" transform="translate(1030.44 377.13) rotate(-180)"/><rect class="cls-3" x="507.53" y="182.61" width="3.96" height="11.9" transform="translate(1019.01 377.13) rotate(-180)"/><rect class="cls-3" x="501.81" y="182.61" width="3.96" height="11.9" transform="translate(1007.58 377.13) rotate(-180)"/><rect class="cls-3" x="496.1" y="182.61" width="3.96" height="11.9" transform="translate(996.15 377.13) rotate(-180)"/><rect class="cls-3" x="490.38" y="182.61" width="3.96" height="11.9" transform="translate(984.72 377.13) rotate(-180)"/><rect class="cls-3" x="484.67" y="182.61" width="3.96" height="11.9" transform="translate(973.29 377.13) rotate(-180)"/><rect class="cls-3" x="478.95" y="182.61" width="3.96" height="11.9" transform="translate(961.86 377.13) rotate(-180)"/><rect class="cls-3" x="473.24" y="182.61" width="3.96" height="11.9" transform="translate(950.43 377.13) rotate(-180)"/><rect class="cls-3" x="467.52" y="182.61" width="3.96" height="11.9" transform="translate(939 377.13) rotate(-180)"/><rect class="cls-2" x="466.9" y="210.51" width="71.9" height="20.24" transform="translate(1005.71 441.27) rotate(-180)"/><rect class="cls-3" x="532.77" y="213.06" width="4.03" height="15.49" transform="translate(1069.57 441.61) rotate(-180)"/><path class="cls-4" d="M528,216.32a1.28,1.28,0,1,0,1.28-1.28A1.28,1.28,0,0,0,528,216.32Z"/><circle class="cls-4" cx="529.31" cy="221.79" r="1.28"/><rect class="cls-3" x="518.96" y="215.04" width="3.96" height="11.9" transform="translate(1041.87 441.97) rotate(-180)"/><rect class="cls-3" x="513.24" y="215.04" width="3.96" height="11.9" transform="translate(1030.44 441.97) rotate(-180)"/><rect class="cls-3" x="507.53" y="215.04" width="3.96" height="11.9" transform="translate(1019.01 441.97) rotate(-180)"/><rect class="cls-3" x="501.81" y="215.04" width="3.96" height="11.9" transform="translate(1007.58 441.97) rotate(-180)"/><rect class="cls-3" x="496.1" y="215.04" width="3.96" height="11.9" transform="translate(996.15 441.97) rotate(-180)"/><rect class="cls-3" x="490.38" y="215.04" width="3.96" height="11.9" transform="translate(984.72 441.97) rotate(-180)"/><rect class="cls-3" x="484.67" y="215.04" width="3.96" height="11.9" transform="translate(973.29 441.97) rotate(-180)"/><rect class="cls-3" x="478.95" y="215.04" width="3.96" height="11.9" transform="translate(961.86 441.97) rotate(-180)"/><rect class="cls-3" x="473.24" y="215.04" width="3.96" height="11.9" transform="translate(950.43 441.97) rotate(-180)"/><rect class="cls-3" x="467.52" y="215.04" width="3.96" height="11.9" transform="translate(939 441.97) rotate(-180)"/><rect class="cls-2" x="466.9" y="242.94" width="71.9" height="20.24" transform="translate(1005.71 506.11) rotate(-180)"/><rect class="cls-3" x="532.77" y="245.48" width="4.03" height="15.49" transform="translate(1069.57 506.45) rotate(-180)"/><path class="cls-4" d="M528,248.74a1.28,1.28,0,1,0,1.28-1.28A1.28,1.28,0,0,0,528,248.74Z"/><circle class="cls-4" cx="529.31" cy="254.21" r="1.28"/><rect class="cls-3" x="518.96" y="247.46" width="3.96" height="11.9" transform="translate(1041.87 506.82) rotate(-180)"/><rect class="cls-3" x="513.24" y="247.46" width="3.96" height="11.9" transform="translate(1030.44 506.82) rotate(-180)"/><rect class="cls-3" x="507.53" y="247.46" width="3.96" height="11.9" transform="translate(1019.01 506.82) rotate(-180)"/><rect class="cls-3" x="501.81" y="247.46" width="3.96" height="11.9" transform="translate(1007.58 506.82) rotate(-180)"/><rect class="cls-3" x="496.1" y="247.46" width="3.96" height="11.9" transform="translate(996.15 506.82) rotate(-180)"/><rect class="cls-3" x="490.38" y="247.46" width="3.96" height="11.9" transform="translate(984.72 506.82) rotate(-180)"/><rect class="cls-3" x="484.67" y="247.46" width="3.96" height="11.9" transform="translate(973.29 506.82) rotate(-180)"/><rect class="cls-3" x="478.95" y="247.46" width="3.96" height="11.9" transform="translate(961.86 506.82) rotate(-180)"/><rect class="cls-3" x="473.24" y="247.46" width="3.96" height="11.9" transform="translate(950.43 506.82) rotate(-180)"/><rect class="cls-3" x="467.52" y="247.46" width="3.96" height="11.9" transform="translate(939 506.82) rotate(-180)"/><rect class="cls-2" x="466.9" y="275.36" width="71.9" height="20.24" transform="translate(1005.71 570.96) rotate(-180)"/><rect class="cls-3" x="532.77" y="277.9" width="4.03" height="15.49" transform="translate(1069.57 571.3) rotate(-180)"/><path class="cls-4" d="M528,281.16a1.28,1.28,0,0,0,2.56,0,1.28,1.28,0,0,0-2.56,0Z"/><circle class="cls-4" cx="529.31" cy="286.64" r="1.28"/><rect class="cls-3" x="518.96" y="279.88" width="3.96" height="11.9" transform="translate(1041.87 571.67) rotate(-180)"/><rect class="cls-3" x="513.24" y="279.88" width="3.96" height="11.9" transform="translate(1030.44 571.67) rotate(-180)"/><rect class="cls-3" x="507.53" y="279.88" width="3.96" height="11.9" transform="translate(1019.01 571.67) rotate(-180)"/><rect class="cls-3" x="501.81" y="279.88" width="3.96" height="11.9" transform="translate(1007.58 571.67) rotate(-180)"/><rect class="cls-3" x="496.1" y="279.88" width="3.96" height="11.9" transform="translate(996.15 571.67) rotate(-180)"/><rect class="cls-3" x="490.38" y="279.88" width="3.96" height="11.9" transform="translate(984.72 571.67) rotate(-180)"/><rect class="cls-3" x="484.67" y="279.88" width="3.96" height="11.9" transform="translate(973.29 571.67) rotate(-180)"/><rect class="cls-3" x="478.95" y="279.88" width="3.96" height="11.9" transform="translate(961.86 571.67) rotate(-180)"/><rect class="cls-3" x="473.24" y="279.88" width="3.96" height="11.9" transform="translate(950.43 571.67) rotate(-180)"/><rect class="cls-3" x="467.52" y="279.88" width="3.96" height="11.9" transform="translate(939 571.67) rotate(-180)"/><rect class="cls-2" x="466.9" y="307.78" width="71.9" height="20.24" transform="translate(1005.71 635.81) rotate(-180)"/><rect class="cls-3" x="532.77" y="310.33" width="4.03" height="15.49" transform="translate(1069.57 636.15) rotate(-180)"/><path class="cls-4" d="M528,313.59a1.28,1.28,0,1,0,1.28-1.28A1.28,1.28,0,0,0,528,313.59Z"/><circle class="cls-4" cx="529.31" cy="319.06" r="1.28"/><rect class="cls-3" x="518.96" y="312.31" width="3.96" height="11.9" transform="translate(1041.87 636.51) rotate(-180)"/><rect class="cls-3" x="513.24" y="312.31" width="3.96" height="11.9" transform="translate(1030.44 636.51) rotate(-180)"/><rect class="cls-3" x="507.53" y="312.31" width="3.96" height="11.9" transform="translate(1019.01 636.51) rotate(-180)"/><rect class="cls-3" x="501.81" y="312.31" width="3.96" height="11.9" transform="translate(1007.58 636.51) rotate(-180)"/><rect class="cls-3" x="496.1" y="312.31" width="3.96" height="11.9" transform="translate(996.15 636.51) rotate(-180)"/><rect class="cls-3" x="490.38" y="312.31" width="3.96" height="11.9" transform="translate(984.72 636.51) rotate(-180)"/><rect class="cls-3" x="484.67" y="312.31" width="3.96" height="11.9" transform="translate(973.29 636.51) rotate(-180)"/><rect class="cls-3" x="478.95" y="312.31" width="3.96" height="11.9" transform="translate(961.86 636.51) rotate(-180)"/><rect class="cls-3" x="473.24" y="312.31" width="3.96" height="11.9" transform="translate(950.43 636.51) rotate(-180)"/><rect class="cls-3" x="467.52" y="312.31" width="3.96" height="11.9" transform="translate(939 636.51) rotate(-180)"/><rect class="cls-2" x="466.9" y="340.21" width="71.9" height="20.24" transform="translate(1005.71 700.66) rotate(-180)"/><rect class="cls-3" x="532.77" y="342.75" width="4.03" height="15.49" transform="translate(1069.57 701) rotate(-180)"/><path class="cls-4" d="M528,346a1.28,1.28,0,1,0,1.28-1.28A1.28,1.28,0,0,0,528,346Z"/><circle class="cls-4" cx="529.31" cy="351.48" r="1.28"/><rect class="cls-3" x="518.96" y="344.73" width="3.96" height="11.9" transform="translate(1041.87 701.36) rotate(-180)"/><rect class="cls-3" x="513.24" y="344.73" width="3.96" height="11.9" transform="translate(1030.44 701.36) rotate(-180)"/><rect class="cls-3" x="507.53" y="344.73" width="3.96" height="11.9" transform="translate(1019.01 701.36) rotate(-180)"/><rect class="cls-3" x="501.81" y="344.73" width="3.96" height="11.9" transform="translate(1007.58 701.36) rotate(-180)"/><rect class="cls-3" x="496.1" y="344.73" width="3.96" height="11.9" transform="translate(996.15 701.36) rotate(-180)"/><rect class="cls-3" x="490.38" y="344.73" width="3.96" height="11.9" transform="translate(984.72 701.36) rotate(-180)"/><rect class="cls-3" x="484.67" y="344.73" width="3.96" height="11.9" transform="translate(973.29 701.36) rotate(-180)"/><rect class="cls-3" x="478.95" y="344.73" width="3.96" height="11.9" transform="translate(961.86 701.36) rotate(-180)"/><rect class="cls-3" x="473.24" y="344.73" width="3.96" height="11.9" transform="translate(950.43 701.36) rotate(-180)"/><rect class="cls-3" x="467.52" y="344.73" width="3.96" height="11.9" transform="translate(939 701.36) rotate(-180)"/><rect class="cls-2" x="466.9" y="372.63" width="71.9" height="20.24" transform="translate(1005.71 765.5) rotate(-180)"/><rect class="cls-3" x="532.77" y="375.17" width="4.03" height="15.49" transform="translate(1069.57 765.84) rotate(-180)"/><circle class="cls-4" cx="529.31" cy="378.43" r="1.28"/><circle class="cls-4" cx="529.31" cy="383.91" r="1.28"/><rect class="cls-3" x="518.96" y="377.15" width="3.96" height="11.9" transform="translate(1041.87 766.21) rotate(-180)"/><rect class="cls-3" x="513.24" y="377.15" width="3.96" height="11.9" transform="translate(1030.44 766.21) rotate(-180)"/><rect class="cls-3" x="507.53" y="377.15" width="3.96" height="11.9" transform="translate(1019.01 766.21) rotate(-180)"/><rect class="cls-3" x="501.81" y="377.15" width="3.96" height="11.9" transform="translate(1007.58 766.21) rotate(-180)"/><rect class="cls-3" x="496.1" y="377.15" width="3.96" height="11.9" transform="translate(996.15 766.21) rotate(-180)"/><rect class="cls-3" x="490.38" y="377.15" width="3.96" height="11.9" transform="translate(984.72 766.21) rotate(-180)"/><rect class="cls-3" x="484.67" y="377.15" width="3.96" height="11.9" transform="translate(973.29 766.21) rotate(-180)"/><rect class="cls-3" x="478.95" y="377.15" width="3.96" height="11.9" transform="translate(961.86 766.21) rotate(-180)"/><rect class="cls-3" x="473.24" y="377.15" width="3.96" height="11.9" transform="translate(950.43 766.21) rotate(-180)"/><rect class="cls-3" x="467.52" y="377.15" width="3.96" height="11.9" transform="translate(939 766.21) rotate(-180)"/><path class="cls-2" d="M494.34,178.09a2.49,2.49,0,0,0,.08-.63c0-.41.05-1,.07-1.79s0-1.74.1-2.84a17.87,17.87,0,0,1,.49-3.69,13.15,13.15,0,0,1,1.92-4,8.86,8.86,0,0,1,3.93-3.16,18.63,18.63,0,0,1,5.58-1.13l6.2-.54c8.48-.74,16.18-1.21,21.76-1.32,2.78-.06,5,0,6.6,0l1.8,0a3.44,3.44,0,0,0,.63,0,2.49,2.49,0,0,0-.63-.08l-1.79-.11c-1.56-.07-3.82-.14-6.62-.12-5.59,0-13.31.43-21.8,1.16l-6.19.55a19.35,19.35,0,0,0-5.72,1.2,9.19,9.19,0,0,0-4.1,3.35,13.38,13.38,0,0,0-1.92,4.19,17.42,17.42,0,0,0-.44,3.77c0,1.12,0,2.07,0,2.85s0,1.33,0,1.8A2.58,2.58,0,0,0,494.34,178.09Z"/><path class="cls-2" d="M516.15,178.09a2.7,2.7,0,0,0,.05-.59c0-.45,0-1,0-1.69s0-1.64.09-2.67a8.13,8.13,0,0,1,.89-3.32,6.3,6.3,0,0,1,3.24-2.49,8.85,8.85,0,0,1,4.72-.48,8.1,8.1,0,0,1,2.44.83,4.57,4.57,0,0,1,1.88,1.79,2.53,2.53,0,0,1,0,2.51,3.35,3.35,0,0,1-2.14,1.6,2.69,2.69,0,0,1-2.49-.72,3.71,3.71,0,0,1-1.13-2.38,3.64,3.64,0,0,1,.75-2.44,5.38,5.38,0,0,1,1.89-1.67,6.85,6.85,0,0,1,2.37-.61c.81-.12,1.6-.23,2.36-.32,1.53-.17,3-.27,4.27-.32,2.62-.11,4.74-.07,6.21-.07h1.69a2.67,2.67,0,0,0,.6,0,2.62,2.62,0,0,0-.59-.07l-1.69-.09c-1.47-.06-3.6-.15-6.23-.09-1.32,0-2.76.11-4.3.26-.77.08-1.57.18-2.39.29l-1.25.2a5,5,0,0,0-1.27.44,5.81,5.81,0,0,0-2.08,1.81,4.14,4.14,0,0,0-.85,2.77,4.26,4.26,0,0,0,1.28,2.72,3.22,3.22,0,0,0,3,.85,3.93,3.93,0,0,0,2.47-1.86,3,3,0,0,0,0-3,5.06,5.06,0,0,0-2.09-2,8.74,8.74,0,0,0-2.6-.86,9.31,9.31,0,0,0-5,.55,6.74,6.74,0,0,0-3.4,2.7,8.46,8.46,0,0,0-.86,3.49c0,1,0,1.95,0,2.69s.05,1.25.07,1.69A2.27,2.27,0,0,0,516.15,178.09Z"/><path class="cls-2" d="M488.47,178.09a3.22,3.22,0,0,0,.15-.67c.08-.44.21-1.09.38-1.92a37.69,37.69,0,0,1,2.13-6.85,20,20,0,0,1,6.25-8.39,11.84,11.84,0,0,1,5.73-2.18,60.82,60.82,0,0,1,6.74-.36c9.29-.17,17.71-.14,23.8-.38,3.05-.11,5.51-.26,7.21-.38l2-.17a3.2,3.2,0,0,0,.68-.09,3.32,3.32,0,0,0-.69,0l-2,.07c-1.7.06-4.16.15-7.21.21-6.09.15-14.5.06-23.81.23a60.5,60.5,0,0,0-6.8.38,12.19,12.19,0,0,0-5.93,2.3,18.38,18.38,0,0,0-4,4.19,24.76,24.76,0,0,0-2.34,4.43,33.84,33.84,0,0,0-2,7c-.15.84-.25,1.5-.29,1.94A3.25,3.25,0,0,0,488.47,178.09Z"/><rect class="cls-2" x="467.89" y="139.76" width="69.92" height="10.15" transform="translate(1005.71 289.67) rotate(-180)"/><rect class="cls-3" x="484.37" y="144.84" width="38.07" height="5.08" transform="translate(1006.8 294.75) rotate(-180)"/><path class="cls-5" d="M0,396.36c0,.14,144.05.26,321.69.26s321.73-.12,321.73-.26-144-.26-321.73-.26S0,396.21,0,396.36Z"/><path class="cls-6" d="M52.82,271.38s5.77-3.74,12.64,10,9.46,21.7,9.46,21.7,1.82,2.89,3.81,1S83.47,297,86.82,298s4.58,4.91,3.87,10.61S88.88,326.82,88.78,328s.53,2.77,2.09,1.71,10.56-10.9,15-6.35-.17,20.1-.64,21.81-.14,2.45.67,2.88,3.52-3.17,6.19-5.87,6.25-5.35,8.58-2.51,3,14.54-8.3,33.45l-5.81,8.42-10.25-.66c-21.85-2.73-30.68-10.45-31.48-14s3.49-4.76,7.26-5.21,8.28-.37,8.44-1.27-.22-1.62-1.86-2.3-16.72-6.64-17.58-12.92,12.44-7.31,14.22-7.89.88-2.09-.06-2.7S63.71,327,58.78,324.07s-7.31-6.22-6-9.59,7.15-2.14,9.84-2.56,1.54-3.64,1.54-3.64-4.66-6.92-11.28-20.81.05-16.16.05-16.16"/><path class="cls-5" d="M59,283.7l.12.3.4.86c.35.77.87,1.88,1.54,3.3,1.33,2.86,3.3,7,5.76,12.09,4.9,10.18,11.79,24.19,19.45,39.64s14.59,29.46,19.55,39.61l5.86,12,1.6,3.27.42.84.16.29s0-.11-.13-.3l-.39-.86c-.36-.77-.87-1.88-1.54-3.3-1.34-2.86-3.31-7-5.76-12.08-4.9-10.19-11.79-24.2-19.46-39.66S72,310.3,67,300.14l-5.86-12-1.6-3.27-.42-.84Z"/><path class="cls-5" d="M83.27,305.53a3.33,3.33,0,0,0-.27.69c-.15.45-.35,1.11-.6,1.93-.47,1.63-1.08,3.9-1.7,6.41s-1.13,4.72-1.55,6.45L78.67,323a2.73,2.73,0,0,0-.14.73,4.22,4.22,0,0,0,.27-.69c.15-.45.35-1.11.59-1.93.46-1.63,1-3.91,1.65-6.42s1.17-4.71,1.6-6.44c.19-.77.36-1.42.49-1.95A3.35,3.35,0,0,0,83.27,305.53Z"/><path class="cls-5" d="M77.58,323.86c0-.09-4.59-1.54-10.32-3.24s-10.4-3-10.42-2.91,4.59,1.54,10.32,3.24S77.56,324,77.58,323.86Z"/><path class="cls-5" d="M90.42,347.06a3.48,3.48,0,0,0-.75-.05h-2c-1.74,0-4.13,0-6.77-.16s-5-.31-6.75-.46l-2-.17a3.66,3.66,0,0,0-.76,0,2.83,2.83,0,0,0,.74.16c.48.08,1.18.18,2,.28,1.72.21,4.11.44,6.76.56s5,.11,6.78.07c.87,0,1.57-.06,2-.1A2.52,2.52,0,0,0,90.42,347.06Z"/><path class="cls-5" d="M99.22,331.62s-.17.19-.41.56-.59.93-1,1.61c-.84,1.37-2,3.27-3.21,5.37s-2.34,4-3.12,5.43c-.39.7-.71,1.27-.91,1.66a3,3,0,0,0-.3.64,2.6,2.6,0,0,0,.41-.57c.25-.37.59-.92,1-1.61.84-1.36,2-3.26,3.21-5.37s2.34-4,3.12-5.43c.39-.69.7-1.26.91-1.66A3.12,3.12,0,0,0,99.22,331.62Z"/><path class="cls-5" d="M113.15,350.66a3.7,3.7,0,0,0-.51.73c-.35.54-.78,1.23-1.3,2.05-1.08,1.75-2.56,4.17-4.17,6.86s-3,5.13-4.08,6.91l-1.2,2.11a4.19,4.19,0,0,0-.4.8,5.17,5.17,0,0,0,.52-.73l1.29-2.06c1.08-1.74,2.56-4.16,4.17-6.85s3-5.13,4.08-6.91c.48-.85.88-1.56,1.2-2.11A4.56,4.56,0,0,0,113.15,350.66Z"/><path class="cls-5" d="M101.64,369.58a4.63,4.63,0,0,0-1-.08l-2.6-.12c-2.19-.09-5.23-.23-8.57-.48s-6.37-.54-8.55-.77l-2.59-.27a5.73,5.73,0,0,0-1-.06,4.54,4.54,0,0,0,.94.19c.61.11,1.49.24,2.58.38,2.18.29,5.2.63,8.55.88s6.39.35,8.59.38h2.61A5.61,5.61,0,0,0,101.64,369.58Z"/><path class="cls-7" d="M547.88,368.77a16.52,16.52,0,0,1,10.27-1.32,8.48,8.48,0,0,1,5.09,2.23c1.28,1.39,1.54,3.86.09,5.07a4.9,4.9,0,0,1-3.19.84c-2.72,0-5.74-.47-7.9,1.18-1.23.94-2,2.49-3.53,3a3.5,3.5,0,0,1-3.86-1.68,6,6,0,0,1-.47-4.42A6.76,6.76,0,0,1,547.88,368.77Z"/><g class="cls-8"><path class="cls-6" d="M547.88,368.77a16.52,16.52,0,0,1,10.27-1.32,8.48,8.48,0,0,1,5.09,2.23c1.28,1.39,1.54,3.86.09,5.07a4.9,4.9,0,0,1-3.19.84c-2.72,0-5.74-.47-7.9,1.18-1.23.94-2,2.49-3.53,3a3.5,3.5,0,0,1-3.86-1.68,6,6,0,0,1-.47-4.42A6.76,6.76,0,0,1,547.88,368.77Z"/></g><path class="cls-7" d="M540.61,355c1.94,2.72,5.65,1.79,7.36.11s2.42-4.1,3.07-6.41c1.48-5.28,3-10.81,1.8-16.16a9,9,0,0,0-2.09-4.38,4.69,4.69,0,0,0-4.45-1.45c-1.87.51-3,2.36-3.86,4.11a38.62,38.62,0,0,0-3.68,16.54c0,2.66.34,5.45,1.85,7.64"/><g class="cls-8"><path class="cls-6" d="M540.61,355c1.94,2.72,5.65,1.79,7.36.11s2.42-4.1,3.07-6.41c1.48-5.28,3-10.81,1.8-16.16a9,9,0,0,0-2.09-4.38,4.69,4.69,0,0,0-4.45-1.45c-1.87.51-3,2.36-3.86,4.11a38.62,38.62,0,0,0-3.68,16.54c0,2.66.34,5.45,1.85,7.64"/></g><path class="cls-6" d="M535.39,358.94a9.91,9.91,0,0,0,1.48-9.15A17.6,17.6,0,0,0,531.4,342a29.15,29.15,0,0,0-9.74-5.66,10.41,10.41,0,0,0-4.37-.71,4.58,4.58,0,0,0-3.64,2.24c-1,2,0,4.31,1.06,6.23a74.08,74.08,0,0,0,6.44,9.66c1.92,2.45,4.13,4.86,7.05,5.95s5.94.94,7.47-1.09"/><path class="cls-5" d="M540.77,396.19a5.86,5.86,0,0,0,.17-1.24l.3-3.39c.15-1.43.35-3.13.73-5a38.2,38.2,0,0,1,1.77-5.87,21.36,21.36,0,0,1,3-5.33,11.08,11.08,0,0,1,3.77-3.17,10.45,10.45,0,0,1,3.18-1,6.16,6.16,0,0,0,1.23-.18,5.3,5.3,0,0,0-1.26,0,9.76,9.76,0,0,0-3.31.88,11.24,11.24,0,0,0-4,3.21,21.33,21.33,0,0,0-3.06,5.43,35.94,35.94,0,0,0-1.75,6,44.27,44.27,0,0,0-.63,5c-.09,1.44-.13,2.6-.14,3.41A6.8,6.8,0,0,0,540.77,396.19Z"/><path class="cls-5" d="M541,393.58a2.12,2.12,0,0,0,0-.57c0-.44,0-1,0-1.65,0-1.43,0-3.5,0-6.05.09-5.11.48-12.16,1.28-19.92s1.89-14.74,2.88-19.75c.24-1.26.48-2.39.7-3.38s.4-1.84.58-2.54.27-1.18.37-1.6a3.26,3.26,0,0,0,.1-.57,2.1,2.1,0,0,0-.2.54c-.12.42-.28.94-.47,1.59s-.41,1.53-.66,2.52-.51,2.11-.77,3.37a186.27,186.27,0,0,0-3,19.77c-.8,7.77-1.13,14.84-1.13,20,0,2.56.06,4.64.13,6.07.05.66.09,1.21.12,1.64A2.29,2.29,0,0,0,541,393.58Z"/><path class="cls-5" d="M540.93,379.94a12.47,12.47,0,0,0,0-1.72,45.83,45.83,0,0,0-.56-4.65,64.7,64.7,0,0,0-4.45-14.8,43,43,0,0,0-8.43-12.92,19.54,19.54,0,0,0-2-1.81c-.3-.26-.57-.51-.84-.71l-.77-.52a10.37,10.37,0,0,0-1.45-.91,50.63,50.63,0,0,1,4.78,4.2A45.18,45.18,0,0,1,535.42,359a64.75,64.75,0,0,1,2.91,7.94c.76,2.49,1.27,4.78,1.66,6.71s.58,3.52.71,4.61A9.47,9.47,0,0,0,540.93,379.94Z"/><path class="cls-5" d="M376.81,98.5c.14,0,.26-11,.26-24.65s-.12-24.64-.26-24.64-.26,11-.26,24.64S376.66,98.5,376.81,98.5Z"/><rect class="cls-5" x="123.7" y="265.61" width="112.71" height="123.66" transform="translate(360.11 654.88) rotate(-180)"/><rect class="cls-9" x="129.65" y="290.34" width="123.21" height="30.57" transform="translate(382.52 611.25) rotate(-180)"/><rect class="cls-5" x="223.13" y="296.64" width="24.26" height="3.73" transform="translate(470.53 597.01) rotate(-180)"/><rect class="cls-5" x="223.13" y="303.06" width="24.26" height="3.73" transform="translate(470.53 609.86) rotate(-180)"/><rect class="cls-5" x="223.13" y="309.7" width="24.26" height="3.73" transform="translate(470.53 623.14) rotate(-180)"/><path class="cls-5" d="M213.54,298.89a1.39,1.39,0,1,0,1.39-1.39A1.4,1.4,0,0,0,213.54,298.89Z"/><path class="cls-5" d="M207.4,298.89a1.39,1.39,0,1,0,1.39-1.39A1.4,1.4,0,0,0,207.4,298.89Z"/><path class="cls-5" d="M201.26,298.89a1.39,1.39,0,1,0,1.39-1.39A1.4,1.4,0,0,0,201.26,298.89Z"/><path class="cls-5" d="M195.12,298.89a1.39,1.39,0,1,0,1.39-1.39A1.4,1.4,0,0,0,195.12,298.89Z"/><path class="cls-5" d="M147.53,298.89a1.39,1.39,0,1,0,1.39-1.39A1.4,1.4,0,0,0,147.53,298.89Z"/><path class="cls-5" d="M141.26,298.89a1.4,1.4,0,1,0,1.4-1.39A1.4,1.4,0,0,0,141.26,298.89Z"/><path class="cls-5" d="M189,298.89a1.39,1.39,0,1,0,1.39-1.39A1.4,1.4,0,0,0,189,298.89Z"/><path class="cls-5" d="M158.82,298.89a1.39,1.39,0,1,0,1.39-1.39A1.4,1.4,0,0,0,158.82,298.89Z"/><path class="cls-3" d="M182.83,298.89a1.4,1.4,0,1,0,1.4-1.39A1.4,1.4,0,0,0,182.83,298.89Z"/><path class="cls-3" d="M176.69,298.89a1.4,1.4,0,1,0,1.39-1.39A1.4,1.4,0,0,0,176.69,298.89Z"/><path class="cls-3" d="M164.23,298.89a1.4,1.4,0,1,0,1.39-1.39A1.4,1.4,0,0,0,164.23,298.89Z"/><path class="cls-3" d="M136.17,298.89a1.39,1.39,0,1,0,1.39-1.39A1.4,1.4,0,0,0,136.17,298.89Z"/><path class="cls-7" d="M170.55,298.89a1.39,1.39,0,1,0,1.39-1.39A1.4,1.4,0,0,0,170.55,298.89Z"/><path class="cls-7" d="M153,298.89a1.39,1.39,0,1,0,1.39-1.39A1.4,1.4,0,0,0,153,298.89Z"/><path class="cls-5" d="M139,305.6a1.39,1.39,0,1,0-1.39,1.39A1.39,1.39,0,0,0,139,305.6Z"/><path class="cls-5" d="M145.09,305.6A1.39,1.39,0,1,0,143.7,307,1.39,1.39,0,0,0,145.09,305.6Z"/><path class="cls-5" d="M151.24,305.6a1.4,1.4,0,1,0-1.4,1.39A1.4,1.4,0,0,0,151.24,305.6Z"/><path class="cls-5" d="M157.38,305.6A1.4,1.4,0,1,0,156,307,1.4,1.4,0,0,0,157.38,305.6Z"/><path class="cls-5" d="M205,305.6a1.4,1.4,0,1,0-1.4,1.39A1.4,1.4,0,0,0,205,305.6Z"/><path class="cls-5" d="M211.23,305.6a1.4,1.4,0,1,0-1.39,1.39A1.39,1.39,0,0,0,211.23,305.6Z"/><path class="cls-5" d="M163.52,305.6a1.4,1.4,0,1,0-1.39,1.39A1.39,1.39,0,0,0,163.52,305.6Z"/><path class="cls-5" d="M193.68,305.6a1.4,1.4,0,1,0-1.39,1.39A1.39,1.39,0,0,0,193.68,305.6Z"/><path class="cls-3" d="M169.66,305.6a1.39,1.39,0,1,0-1.39,1.39A1.39,1.39,0,0,0,169.66,305.6Z"/><path class="cls-3" d="M175.8,305.6a1.39,1.39,0,1,0-1.39,1.39A1.39,1.39,0,0,0,175.8,305.6Z"/><path class="cls-3" d="M188.26,305.6a1.39,1.39,0,1,0-1.39,1.39A1.39,1.39,0,0,0,188.26,305.6Z"/><path class="cls-3" d="M216.32,305.6a1.39,1.39,0,1,0-1.39,1.39A1.39,1.39,0,0,0,216.32,305.6Z"/><path class="cls-7" d="M181.94,305.6a1.39,1.39,0,1,0-1.39,1.39A1.39,1.39,0,0,0,181.94,305.6Z"/><path class="cls-7" d="M199.52,305.6a1.39,1.39,0,1,0-1.39,1.39A1.39,1.39,0,0,0,199.52,305.6Z"/><circle class="cls-5" cx="214.93" cy="311.57" r="1.39"/><circle class="cls-5" cx="208.79" cy="311.57" r="1.39"/><circle class="cls-5" cx="202.65" cy="311.57" r="1.39"/><circle class="cls-5" cx="196.51" cy="311.57" r="1.39"/><circle class="cls-5" cx="148.92" cy="311.57" r="1.39"/><circle class="cls-5" cx="142.66" cy="311.57" r="1.39"/><circle class="cls-5" cx="190.37" cy="311.57" r="1.39"/><path class="cls-5" d="M158.82,311.57a1.39,1.39,0,1,0,1.39-1.39A1.39,1.39,0,0,0,158.82,311.57Z"/><circle class="cls-3" cx="184.23" cy="311.57" r="1.39"/><path class="cls-3" d="M176.69,311.57a1.4,1.4,0,1,0,1.39-1.39A1.39,1.39,0,0,0,176.69,311.57Z"/><circle class="cls-3" cx="165.62" cy="311.57" r="1.39"/><path class="cls-3" d="M136.17,311.57a1.39,1.39,0,1,0,1.39-1.39A1.39,1.39,0,0,0,136.17,311.57Z"/><circle class="cls-7" cx="171.94" cy="311.57" r="1.39"/><circle class="cls-7" cx="154.36" cy="311.57" r="1.39"/><rect class="cls-9" x="129.65" y="328.07" width="123.21" height="30.57" transform="translate(382.52 686.7) rotate(-180)"/><path class="cls-5" d="M213.84,336.31a1.4,1.4,0,1,0,1.4-1.39A1.4,1.4,0,0,0,213.84,336.31Z"/><path class="cls-5" d="M207.7,336.31a1.4,1.4,0,1,0,1.4-1.39A1.4,1.4,0,0,0,207.7,336.31Z"/><path class="cls-5" d="M201.56,336.31a1.4,1.4,0,1,0,1.39-1.39A1.39,1.39,0,0,0,201.56,336.31Z"/><path class="cls-5" d="M195.42,336.31a1.39,1.39,0,1,0,1.39-1.39A1.39,1.39,0,0,0,195.42,336.31Z"/><path class="cls-5" d="M147.83,336.31a1.4,1.4,0,1,0,1.39-1.39A1.39,1.39,0,0,0,147.83,336.31Z"/><path class="cls-5" d="M141.57,336.31a1.39,1.39,0,1,0,1.39-1.39A1.39,1.39,0,0,0,141.57,336.31Z"/><path class="cls-5" d="M189.28,336.31a1.39,1.39,0,1,0,1.39-1.39A1.39,1.39,0,0,0,189.28,336.31Z"/><path class="cls-5" d="M159.12,336.31a1.39,1.39,0,1,0,1.39-1.39A1.39,1.39,0,0,0,159.12,336.31Z"/><path class="cls-3" d="M183.14,336.31a1.39,1.39,0,1,0,1.39-1.39A1.39,1.39,0,0,0,183.14,336.31Z"/><path class="cls-3" d="M177,336.31a1.39,1.39,0,1,0,1.39-1.39A1.39,1.39,0,0,0,177,336.31Z"/><path class="cls-3" d="M164.54,336.31a1.39,1.39,0,1,0,1.39-1.39A1.39,1.39,0,0,0,164.54,336.31Z"/><path class="cls-3" d="M136.47,336.31a1.4,1.4,0,1,0,1.4-1.39A1.4,1.4,0,0,0,136.47,336.31Z"/><path class="cls-7" d="M170.86,336.31a1.39,1.39,0,1,0,1.39-1.39A1.39,1.39,0,0,0,170.86,336.31Z"/><path class="cls-7" d="M153.27,336.31a1.4,1.4,0,1,0,1.39-1.39A1.39,1.39,0,0,0,153.27,336.31Z"/><path class="cls-5" d="M139.26,343a1.4,1.4,0,1,0-1.39,1.39A1.39,1.39,0,0,0,139.26,343Z"/><path class="cls-5" d="M145.4,343a1.39,1.39,0,1,0-1.39,1.39A1.39,1.39,0,0,0,145.4,343Z"/><path class="cls-5" d="M151.54,343a1.39,1.39,0,1,0-1.39,1.39A1.39,1.39,0,0,0,151.54,343Z"/><path class="cls-5" d="M157.68,343a1.39,1.39,0,1,0-1.39,1.39A1.39,1.39,0,0,0,157.68,343Z"/><path class="cls-5" d="M205.27,343a1.39,1.39,0,1,0-1.39,1.39A1.39,1.39,0,0,0,205.27,343Z"/><path class="cls-5" d="M211.53,343a1.39,1.39,0,1,0-1.39,1.39A1.39,1.39,0,0,0,211.53,343Z"/><path class="cls-5" d="M163.82,343a1.39,1.39,0,1,0-1.39,1.39A1.39,1.39,0,0,0,163.82,343Z"/><path class="cls-5" d="M194,343a1.39,1.39,0,1,0-1.39,1.39A1.39,1.39,0,0,0,194,343Z"/><path class="cls-3" d="M170,343a1.39,1.39,0,1,0-1.39,1.39A1.39,1.39,0,0,0,170,343Z"/><path class="cls-3" d="M176.11,343a1.4,1.4,0,1,0-1.4,1.39A1.4,1.4,0,0,0,176.11,343Z"/><path class="cls-3" d="M188.56,343a1.39,1.39,0,1,0-1.39,1.39A1.39,1.39,0,0,0,188.56,343Z"/><path class="cls-3" d="M216.63,343a1.4,1.4,0,1,0-1.39,1.39A1.39,1.39,0,0,0,216.63,343Z"/><path class="cls-7" d="M182.25,343a1.4,1.4,0,1,0-1.4,1.39A1.4,1.4,0,0,0,182.25,343Z"/><path class="cls-7" d="M199.83,343a1.39,1.39,0,1,0-1.39,1.39A1.39,1.39,0,0,0,199.83,343Z"/><circle class="cls-5" cx="215.24" cy="348.99" r="1.39"/><circle class="cls-5" cx="209.1" cy="348.99" r="1.39"/><circle class="cls-5" cx="202.95" cy="348.99" r="1.39"/><circle class="cls-5" cx="196.81" cy="348.99" r="1.39"/><circle class="cls-5" cx="149.22" cy="348.99" r="1.39"/><circle class="cls-5" cx="142.96" cy="348.99" r="1.39"/><circle class="cls-5" cx="190.67" cy="348.99" r="1.39"/><circle class="cls-5" cx="160.51" cy="348.99" r="1.39"/><circle class="cls-3" cx="184.53" cy="348.99" r="1.39"/><circle class="cls-3" cx="178.39" cy="348.99" r="1.39"/><circle class="cls-3" cx="165.93" cy="348.99" r="1.39"/><path class="cls-3" d="M136.47,349a1.4,1.4,0,1,0,1.4-1.39A1.4,1.4,0,0,0,136.47,349Z"/><circle class="cls-7" cx="172.25" cy="348.99" r="1.39"/><circle class="cls-7" cx="154.66" cy="348.99" r="1.39"/><rect class="cls-5" x="223.13" y="334.36" width="24.26" height="3.73" transform="translate(470.53 672.46) rotate(-180)"/><rect class="cls-5" x="223.13" y="340.78" width="24.26" height="3.73" transform="translate(470.53 685.3) rotate(-180)"/><rect class="cls-5" x="223.13" y="347.42" width="24.26" height="3.73" transform="translate(470.53 698.58) rotate(-180)"/><rect class="cls-9" x="129.65" y="365.79" width="123.21" height="30.57" transform="translate(382.52 762.14) rotate(-180)"/><rect class="cls-5" x="223.13" y="372.08" width="24.26" height="3.73" transform="translate(470.53 747.9) rotate(-180)"/><rect class="cls-5" x="223.13" y="378.51" width="24.26" height="3.73" transform="translate(470.53 760.75) rotate(-180)"/><rect class="cls-5" x="223.13" y="385.15" width="24.26" height="3.73" transform="translate(470.53 774.03) rotate(-180)"/><path class="cls-5" d="M214.29,374a1.39,1.39,0,1,0,1.39-1.4A1.39,1.39,0,0,0,214.29,374Z"/><path class="cls-5" d="M208.15,374a1.39,1.39,0,1,0,1.39-1.4A1.39,1.39,0,0,0,208.15,374Z"/><path class="cls-5" d="M202,374a1.39,1.39,0,1,0,1.39-1.4A1.39,1.39,0,0,0,202,374Z"/><path class="cls-5" d="M195.87,374a1.39,1.39,0,1,0,1.39-1.4A1.39,1.39,0,0,0,195.87,374Z"/><path class="cls-5" d="M148.28,374a1.39,1.39,0,1,0,1.39-1.4A1.39,1.39,0,0,0,148.28,374Z"/><path class="cls-5" d="M142,374a1.39,1.39,0,1,0,1.39-1.4A1.39,1.39,0,0,0,142,374Z"/><path class="cls-5" d="M189.73,374a1.39,1.39,0,1,0,1.39-1.4A1.39,1.39,0,0,0,189.73,374Z"/><path class="cls-5" d="M159.57,374a1.39,1.39,0,1,0,1.39-1.4A1.39,1.39,0,0,0,159.57,374Z"/><path class="cls-3" d="M183.59,374a1.39,1.39,0,1,0,1.39-1.4A1.39,1.39,0,0,0,183.59,374Z"/><path class="cls-3" d="M177.44,374a1.4,1.4,0,1,0,1.4-1.4A1.4,1.4,0,0,0,177.44,374Z"/><path class="cls-3" d="M165,374a1.4,1.4,0,1,0,1.4-1.4A1.4,1.4,0,0,0,165,374Z"/><path class="cls-3" d="M136.92,374a1.39,1.39,0,1,0,1.39-1.4A1.39,1.39,0,0,0,136.92,374Z"/><path class="cls-7" d="M171.3,374a1.4,1.4,0,1,0,1.39-1.4A1.4,1.4,0,0,0,171.3,374Z"/><path class="cls-7" d="M153.72,374a1.39,1.39,0,1,0,1.39-1.4A1.39,1.39,0,0,0,153.72,374Z"/><path class="cls-5" d="M139.7,380.74a1.39,1.39,0,1,0-1.39,1.4A1.39,1.39,0,0,0,139.7,380.74Z"/><path class="cls-5" d="M145.85,380.74a1.4,1.4,0,1,0-1.4,1.4A1.4,1.4,0,0,0,145.85,380.74Z"/><path class="cls-5" d="M152,380.74a1.4,1.4,0,1,0-1.4,1.4A1.4,1.4,0,0,0,152,380.74Z"/><path class="cls-5" d="M158.13,380.74a1.4,1.4,0,1,0-1.39,1.4A1.4,1.4,0,0,0,158.13,380.74Z"/><path class="cls-5" d="M205.72,380.74a1.4,1.4,0,1,0-1.39,1.4A1.4,1.4,0,0,0,205.72,380.74Z"/><path class="cls-5" d="M212,380.74a1.39,1.39,0,1,0-1.39,1.4A1.39,1.39,0,0,0,212,380.74Z"/><path class="cls-5" d="M164.27,380.74a1.39,1.39,0,1,0-1.39,1.4A1.39,1.39,0,0,0,164.27,380.74Z"/><path class="cls-5" d="M194.43,380.74a1.39,1.39,0,1,0-1.39,1.4A1.39,1.39,0,0,0,194.43,380.74Z"/><path class="cls-3" d="M170.41,380.74a1.39,1.39,0,1,0-1.39,1.4A1.39,1.39,0,0,0,170.41,380.74Z"/><path class="cls-3" d="M176.55,380.74a1.39,1.39,0,1,0-1.39,1.4A1.39,1.39,0,0,0,176.55,380.74Z"/><path class="cls-3" d="M189,380.74a1.39,1.39,0,1,0-1.39,1.4A1.39,1.39,0,0,0,189,380.74Z"/><path class="cls-3" d="M217.07,380.74a1.39,1.39,0,1,0-1.39,1.4A1.39,1.39,0,0,0,217.07,380.74Z"/><path class="cls-7" d="M182.69,380.74a1.39,1.39,0,1,0-1.39,1.4A1.39,1.39,0,0,0,182.69,380.74Z"/><path class="cls-7" d="M200.28,380.74a1.4,1.4,0,1,0-1.4,1.4A1.4,1.4,0,0,0,200.28,380.74Z"/><path class="cls-5" d="M214.29,386.71a1.39,1.39,0,1,0,1.39-1.39A1.39,1.39,0,0,0,214.29,386.71Z"/><path class="cls-5" d="M208.15,386.71a1.39,1.39,0,1,0,1.39-1.39A1.39,1.39,0,0,0,208.15,386.71Z"/><path class="cls-5" d="M202,386.71a1.39,1.39,0,1,0,1.39-1.39A1.39,1.39,0,0,0,202,386.71Z"/><path class="cls-5" d="M195.87,386.71a1.39,1.39,0,1,0,1.39-1.39A1.39,1.39,0,0,0,195.87,386.71Z"/><path class="cls-5" d="M148.28,386.71a1.39,1.39,0,1,0,1.39-1.39A1.39,1.39,0,0,0,148.28,386.71Z"/><path class="cls-5" d="M142,386.71a1.39,1.39,0,1,0,1.39-1.39A1.39,1.39,0,0,0,142,386.71Z"/><path class="cls-5" d="M189.73,386.71a1.39,1.39,0,1,0,1.39-1.39A1.39,1.39,0,0,0,189.73,386.71Z"/><path class="cls-5" d="M159.57,386.71a1.39,1.39,0,1,0,1.39-1.39A1.39,1.39,0,0,0,159.57,386.71Z"/><path class="cls-3" d="M183.59,386.71a1.39,1.39,0,1,0,1.39-1.39A1.39,1.39,0,0,0,183.59,386.71Z"/><path class="cls-3" d="M177.44,386.71a1.4,1.4,0,1,0,1.4-1.39A1.4,1.4,0,0,0,177.44,386.71Z"/><path class="cls-3" d="M165,386.71a1.4,1.4,0,1,0,1.4-1.39A1.4,1.4,0,0,0,165,386.71Z"/><path class="cls-3" d="M136.92,386.71a1.39,1.39,0,1,0,1.39-1.39A1.39,1.39,0,0,0,136.92,386.71Z"/><path class="cls-7" d="M171.3,386.71a1.4,1.4,0,1,0,1.39-1.39A1.39,1.39,0,0,0,171.3,386.71Z"/><path class="cls-7" d="M153.72,386.71a1.39,1.39,0,1,0,1.39-1.39A1.39,1.39,0,0,0,153.72,386.71Z"/><polygon class="cls-5" points="111.13 320.86 129.65 320.91 129.65 290.34 111.13 290.29 111.13 320.86"/><polygon class="cls-5" points="111.13 283.69 129.65 283.74 129.65 253.18 111.13 253.13 111.13 283.69"/><polygon class="cls-5" points="111.13 358.35 129.65 358.4 129.65 327.83 111.13 327.78 111.13 358.35"/><polygon class="cls-5" points="111.13 396.31 129.65 396.36 129.65 365.79 111.13 365.74 111.13 396.31"/><rect class="cls-9" x="128.76" y="252.89" width="123.21" height="30.57" transform="translate(380.73 536.35) rotate(-180)"/><rect class="cls-5" x="222.24" y="259.19" width="24.26" height="3.73" transform="translate(468.74 522.11) rotate(-180)"/><rect class="cls-5" x="222.24" y="265.61" width="24.26" height="3.73" transform="translate(468.74 534.95) rotate(-180)"/><rect class="cls-5" x="222.24" y="272.25" width="24.26" height="3.73" transform="translate(468.74 548.24) rotate(-180)"/><path class="cls-5" d="M212.65,261.44a1.39,1.39,0,1,0,1.39-1.39A1.4,1.4,0,0,0,212.65,261.44Z"/><path class="cls-5" d="M206.51,261.44a1.39,1.39,0,1,0,1.39-1.39A1.4,1.4,0,0,0,206.51,261.44Z"/><path class="cls-5" d="M200.37,261.44a1.39,1.39,0,1,0,1.39-1.39A1.4,1.4,0,0,0,200.37,261.44Z"/><path class="cls-5" d="M194.22,261.44a1.4,1.4,0,1,0,1.4-1.39A1.4,1.4,0,0,0,194.22,261.44Z"/><path class="cls-5" d="M146.64,261.44a1.39,1.39,0,1,0,1.39-1.39A1.4,1.4,0,0,0,146.64,261.44Z"/><path class="cls-5" d="M140.37,261.44a1.4,1.4,0,1,0,1.39-1.39A1.4,1.4,0,0,0,140.37,261.44Z"/><path class="cls-5" d="M188.08,261.44a1.4,1.4,0,1,0,1.39-1.39A1.4,1.4,0,0,0,188.08,261.44Z"/><path class="cls-5" d="M157.92,261.44a1.4,1.4,0,1,0,1.4-1.39A1.4,1.4,0,0,0,157.92,261.44Z"/><path class="cls-3" d="M181.94,261.44a1.39,1.39,0,1,0,1.39-1.39A1.4,1.4,0,0,0,181.94,261.44Z"/><path class="cls-3" d="M175.8,261.44a1.39,1.39,0,1,0,1.39-1.39A1.4,1.4,0,0,0,175.8,261.44Z"/><path class="cls-3" d="M163.34,261.44a1.39,1.39,0,1,0,1.39-1.39A1.4,1.4,0,0,0,163.34,261.44Z"/><path class="cls-3" d="M135.28,261.44a1.39,1.39,0,1,0,1.39-1.39A1.4,1.4,0,0,0,135.28,261.44Z"/><path class="cls-7" d="M169.66,261.44a1.39,1.39,0,1,0,1.39-1.39A1.4,1.4,0,0,0,169.66,261.44Z"/><path class="cls-7" d="M152.08,261.44a1.39,1.39,0,1,0,1.39-1.39A1.4,1.4,0,0,0,152.08,261.44Z"/><path class="cls-5" d="M138.06,268.15a1.39,1.39,0,1,0-1.39,1.39A1.39,1.39,0,0,0,138.06,268.15Z"/><path class="cls-5" d="M144.2,268.15a1.39,1.39,0,1,0-1.39,1.39A1.39,1.39,0,0,0,144.2,268.15Z"/><path class="cls-5" d="M150.34,268.15a1.39,1.39,0,1,0-1.39,1.39A1.39,1.39,0,0,0,150.34,268.15Z"/><path class="cls-5" d="M156.48,268.15a1.39,1.39,0,1,0-1.39,1.39A1.39,1.39,0,0,0,156.48,268.15Z"/><path class="cls-5" d="M204.07,268.15a1.39,1.39,0,1,0-1.39,1.39A1.39,1.39,0,0,0,204.07,268.15Z"/><path class="cls-5" d="M210.34,268.15a1.4,1.4,0,1,0-1.4,1.39A1.4,1.4,0,0,0,210.34,268.15Z"/><path class="cls-5" d="M162.63,268.15a1.4,1.4,0,1,0-1.4,1.39A1.4,1.4,0,0,0,162.63,268.15Z"/><path class="cls-5" d="M192.78,268.15a1.39,1.39,0,1,0-1.39,1.39A1.39,1.39,0,0,0,192.78,268.15Z"/><path class="cls-3" d="M168.77,268.15a1.4,1.4,0,1,0-1.39,1.39A1.39,1.39,0,0,0,168.77,268.15Z"/><path class="cls-3" d="M174.91,268.15a1.4,1.4,0,1,0-1.39,1.39A1.39,1.39,0,0,0,174.91,268.15Z"/><path class="cls-3" d="M187.37,268.15a1.4,1.4,0,1,0-1.39,1.39A1.39,1.39,0,0,0,187.37,268.15Z"/><path class="cls-3" d="M215.43,268.15a1.39,1.39,0,1,0-1.39,1.39A1.39,1.39,0,0,0,215.43,268.15Z"/><path class="cls-7" d="M181.05,268.15a1.39,1.39,0,1,0-1.39,1.39A1.39,1.39,0,0,0,181.05,268.15Z"/><path class="cls-7" d="M198.63,268.15a1.39,1.39,0,1,0-1.39,1.39A1.39,1.39,0,0,0,198.63,268.15Z"/><path class="cls-5" d="M212.65,274.12a1.39,1.39,0,1,0,1.39-1.39A1.39,1.39,0,0,0,212.65,274.12Z"/><path class="cls-5" d="M206.51,274.12a1.39,1.39,0,1,0,1.39-1.39A1.39,1.39,0,0,0,206.51,274.12Z"/><path class="cls-5" d="M200.37,274.12a1.39,1.39,0,1,0,1.39-1.39A1.39,1.39,0,0,0,200.37,274.12Z"/><path class="cls-5" d="M194.22,274.12a1.4,1.4,0,1,0,1.4-1.39A1.4,1.4,0,0,0,194.22,274.12Z"/><path class="cls-5" d="M146.64,274.12a1.39,1.39,0,1,0,1.39-1.39A1.39,1.39,0,0,0,146.64,274.12Z"/><path class="cls-5" d="M140.37,274.12a1.4,1.4,0,1,0,1.39-1.39A1.39,1.39,0,0,0,140.37,274.12Z"/><path class="cls-5" d="M188.08,274.12a1.4,1.4,0,1,0,1.39-1.39A1.39,1.39,0,0,0,188.08,274.12Z"/><path class="cls-5" d="M157.92,274.12a1.4,1.4,0,1,0,1.4-1.39A1.4,1.4,0,0,0,157.92,274.12Z"/><path class="cls-3" d="M181.94,274.12a1.39,1.39,0,1,0,1.39-1.39A1.39,1.39,0,0,0,181.94,274.12Z"/><path class="cls-3" d="M175.8,274.12a1.39,1.39,0,1,0,1.39-1.39A1.39,1.39,0,0,0,175.8,274.12Z"/><path class="cls-3" d="M163.34,274.12a1.39,1.39,0,1,0,1.39-1.39A1.39,1.39,0,0,0,163.34,274.12Z"/><path class="cls-3" d="M135.28,274.12a1.39,1.39,0,1,0,1.39-1.39A1.39,1.39,0,0,0,135.28,274.12Z"/><path class="cls-7" d="M169.66,274.12a1.39,1.39,0,1,0,1.39-1.39A1.39,1.39,0,0,0,169.66,274.12Z"/><path class="cls-7" d="M152.08,274.12a1.39,1.39,0,1,0,1.39-1.39A1.39,1.39,0,0,0,152.08,274.12Z"/><path class="cls-5" d="M331.6,33.74l-1,0-3,0-11.61,0-42.72-.09L132.3,33.48A31,31,0,0,0,122.13,35a28,28,0,0,0-8.9,4.9,29.39,29.39,0,0,0-10.15,16.73,48.53,48.53,0,0,0-.57,9.66v9.46q0,9.36,0,18.31c0,23.85,0,45.32.06,63.36q0,6.76,0,12.86c0,2,0,4,0,5.92a11.66,11.66,0,0,0,1.07,5.46,11.31,11.31,0,0,0,7.54,6.2,17.22,17.22,0,0,0,4.41.33h4l11.61-.05,3,0,1,0-1,0-3,0-11.61,0h-4a17.08,17.08,0,0,1-4.35-.35,11.06,11.06,0,0,1-7.34-6.08,11.46,11.46,0,0,1-1-5.34c0-1.92,0-3.89,0-5.92q0-6.09,0-12.86c0-18,0-39.51,0-63.36q0-8.94,0-18.31,0-4.68,0-9.46a47.69,47.69,0,0,1,.56-9.55,28.88,28.88,0,0,1,10-16.44,27.64,27.64,0,0,1,8.74-4.81,30.35,30.35,0,0,1,10-1.53l140.92-.08,42.72-.08,11.61-.05,3,0Z"/><rect class="cls-1" x="335.84" y="99.86" width="96.61" height="295.95" transform="translate(768.29 495.66) rotate(-180)"/><polygon class="cls-2" points="259.62 395.81 335.84 395.81 335.98 99.86 259.62 99.86 259.62 395.81"/><rect class="cls-5" x="345.15" y="147.22" width="81.95" height="23.07" transform="translate(772.25 317.52) rotate(-180)"/><rect class="cls-9" x="420.23" y="150.12" width="4.59" height="17.66" transform="translate(845.04 317.9) rotate(-180)"/><path class="cls-10" d="M414.82,153.84a1.46,1.46,0,1,0,1.46-1.46A1.46,1.46,0,0,0,414.82,153.84Z"/><path class="cls-10" d="M414.82,160.08a1.46,1.46,0,1,0,1.46-1.46A1.46,1.46,0,0,0,414.82,160.08Z"/><rect class="cls-9" x="404.48" y="152.38" width="4.51" height="13.56" transform="translate(813.47 318.32) rotate(-180)"/><rect class="cls-9" x="397.97" y="152.38" width="4.51" height="13.56" transform="translate(800.44 318.32) rotate(-180)"/><rect class="cls-9" x="391.45" y="152.38" width="4.51" height="13.56" transform="translate(787.42 318.32) rotate(-180)"/><rect class="cls-9" x="384.94" y="152.38" width="4.51" height="13.56" transform="translate(774.39 318.32) rotate(-180)"/><rect class="cls-9" x="378.43" y="152.38" width="4.51" height="13.56" transform="translate(761.36 318.32) rotate(-180)"/><rect class="cls-9" x="371.91" y="152.38" width="4.51" height="13.56" transform="translate(748.33 318.32) rotate(-180)"/><rect class="cls-9" x="365.4" y="152.38" width="4.51" height="13.56" transform="translate(735.31 318.32) rotate(-180)"/><rect class="cls-9" x="358.88" y="152.38" width="4.51" height="13.56" transform="translate(722.28 318.32) rotate(-180)"/><rect class="cls-9" x="352.37" y="152.38" width="4.51" height="13.56" transform="translate(709.25 318.32) rotate(-180)"/><rect class="cls-9" x="345.86" y="152.38" width="4.51" height="13.56" transform="translate(696.22 318.32) rotate(-180)"/><rect class="cls-5" x="345.15" y="180.37" width="81.95" height="23.07" transform="translate(772.25 383.81) rotate(-180)"/><rect class="cls-9" x="420.23" y="183.27" width="4.59" height="17.66" transform="translate(845.04 384.2) rotate(-180)"/><path class="cls-10" d="M414.82,187a1.46,1.46,0,1,0,1.46-1.46A1.46,1.46,0,0,0,414.82,187Z"/><path class="cls-10" d="M414.82,193.22a1.46,1.46,0,1,0,1.46-1.46A1.46,1.46,0,0,0,414.82,193.22Z"/><rect class="cls-9" x="404.48" y="185.52" width="4.51" height="13.56" transform="translate(813.47 384.61) rotate(-180)"/><rect class="cls-9" x="397.97" y="185.52" width="4.51" height="13.56" transform="translate(800.44 384.61) rotate(-180)"/><rect class="cls-9" x="391.45" y="185.52" width="4.51" height="13.56" transform="translate(787.42 384.61) rotate(-180)"/><rect class="cls-9" x="384.94" y="185.52" width="4.51" height="13.56" transform="translate(774.39 384.61) rotate(-180)"/><rect class="cls-9" x="378.43" y="185.52" width="4.51" height="13.56" transform="translate(761.36 384.61) rotate(-180)"/><rect class="cls-9" x="371.91" y="185.52" width="4.51" height="13.56" transform="translate(748.33 384.61) rotate(-180)"/><rect class="cls-9" x="365.4" y="185.52" width="4.51" height="13.56" transform="translate(735.31 384.61) rotate(-180)"/><rect class="cls-9" x="358.88" y="185.52" width="4.51" height="13.56" transform="translate(722.28 384.61) rotate(-180)"/><rect class="cls-9" x="352.37" y="185.52" width="4.51" height="13.56" transform="translate(709.25 384.61) rotate(-180)"/><rect class="cls-9" x="345.86" y="185.52" width="4.51" height="13.56" transform="translate(696.22 384.61) rotate(-180)"/><rect class="cls-5" x="345.15" y="213.78" width="81.95" height="23.07" transform="translate(772.25 450.63) rotate(-180)"/><rect class="cls-9" x="420.23" y="216.68" width="4.59" height="17.66" transform="translate(845.04 451.02) rotate(-180)"/><path class="cls-10" d="M414.82,220.39a1.46,1.46,0,1,0,1.46-1.45A1.46,1.46,0,0,0,414.82,220.39Z"/><path class="cls-10" d="M414.82,226.63a1.46,1.46,0,1,0,1.46-1.45A1.46,1.46,0,0,0,414.82,226.63Z"/><rect class="cls-9" x="404.48" y="218.94" width="4.51" height="13.56" transform="translate(813.47 451.44) rotate(-180)"/><rect class="cls-9" x="397.97" y="218.94" width="4.51" height="13.56" transform="translate(800.44 451.44) rotate(-180)"/><rect class="cls-9" x="391.45" y="218.94" width="4.51" height="13.56" transform="translate(787.42 451.44) rotate(-180)"/><rect class="cls-9" x="384.94" y="218.94" width="4.51" height="13.56" transform="translate(774.39 451.44) rotate(-180)"/><rect class="cls-9" x="378.43" y="218.94" width="4.51" height="13.56" transform="translate(761.36 451.44) rotate(-180)"/><rect class="cls-9" x="371.91" y="218.94" width="4.51" height="13.56" transform="translate(748.33 451.44) rotate(-180)"/><rect class="cls-9" x="365.4" y="218.94" width="4.51" height="13.56" transform="translate(735.31 451.44) rotate(-180)"/><rect class="cls-9" x="358.88" y="218.94" width="4.51" height="13.56" transform="translate(722.28 451.44) rotate(-180)"/><rect class="cls-9" x="352.37" y="218.94" width="4.51" height="13.56" transform="translate(709.25 451.44) rotate(-180)"/><rect class="cls-9" x="345.86" y="218.94" width="4.51" height="13.56" transform="translate(696.22 451.44) rotate(-180)"/><rect class="cls-5" x="345.15" y="249.87" width="81.95" height="23.07" transform="translate(772.25 522.82) rotate(-180)"/><rect class="cls-9" x="420.23" y="252.77" width="4.59" height="17.66" transform="translate(845.04 523.2) rotate(-180)"/><path class="cls-10" d="M414.82,256.49a1.46,1.46,0,1,0,1.46-1.46A1.46,1.46,0,0,0,414.82,256.49Z"/><path class="cls-10" d="M414.82,262.73a1.46,1.46,0,1,0,1.46-1.46A1.45,1.45,0,0,0,414.82,262.73Z"/><rect class="cls-9" x="404.48" y="255.03" width="4.51" height="13.56" transform="translate(813.47 523.62) rotate(-180)"/><rect class="cls-9" x="397.97" y="255.03" width="4.51" height="13.56" transform="translate(800.44 523.62) rotate(-180)"/><rect class="cls-9" x="391.45" y="255.03" width="4.51" height="13.56" transform="translate(787.42 523.62) rotate(-180)"/><rect class="cls-9" x="384.94" y="255.03" width="4.51" height="13.56" transform="translate(774.39 523.62) rotate(-180)"/><rect class="cls-9" x="378.43" y="255.03" width="4.51" height="13.56" transform="translate(761.36 523.62) rotate(-180)"/><rect class="cls-9" x="371.91" y="255.03" width="4.51" height="13.56" transform="translate(748.33 523.62) rotate(-180)"/><rect class="cls-9" x="365.4" y="255.03" width="4.51" height="13.56" transform="translate(735.31 523.62) rotate(-180)"/><rect class="cls-9" x="358.88" y="255.03" width="4.51" height="13.56" transform="translate(722.28 523.62) rotate(-180)"/><rect class="cls-9" x="352.37" y="255.03" width="4.51" height="13.56" transform="translate(709.25 523.62) rotate(-180)"/><rect class="cls-9" x="345.86" y="255.03" width="4.51" height="13.56" transform="translate(696.22 523.62) rotate(-180)"/><rect class="cls-5" x="345.15" y="286.32" width="81.95" height="23.07" transform="translate(772.25 595.71) rotate(-180)"/><rect class="cls-9" x="420.23" y="289.22" width="4.59" height="17.66" transform="translate(845.04 596.1) rotate(-180)"/><path class="cls-10" d="M414.82,292.94a1.46,1.46,0,1,0,1.46-1.46A1.45,1.45,0,0,0,414.82,292.94Z"/><path class="cls-10" d="M414.82,299.18a1.46,1.46,0,1,0,1.46-1.46A1.45,1.45,0,0,0,414.82,299.18Z"/><rect class="cls-9" x="404.48" y="291.48" width="4.51" height="13.56" transform="translate(813.47 596.52) rotate(-180)"/><rect class="cls-9" x="397.97" y="291.48" width="4.51" height="13.56" transform="translate(800.44 596.52) rotate(-180)"/><rect class="cls-9" x="391.45" y="291.48" width="4.51" height="13.56" transform="translate(787.42 596.52) rotate(-180)"/><rect class="cls-9" x="384.94" y="291.48" width="4.51" height="13.56" transform="translate(774.39 596.52) rotate(-180)"/><rect class="cls-9" x="378.43" y="291.48" width="4.51" height="13.56" transform="translate(761.36 596.52) rotate(-180)"/><rect class="cls-9" x="371.91" y="291.48" width="4.51" height="13.56" transform="translate(748.33 596.52) rotate(-180)"/><rect class="cls-9" x="365.4" y="291.48" width="4.51" height="13.56" transform="translate(735.31 596.52) rotate(-180)"/><rect class="cls-9" x="358.88" y="291.48" width="4.51" height="13.56" transform="translate(722.28 596.52) rotate(-180)"/><rect class="cls-9" x="352.37" y="291.48" width="4.51" height="13.56" transform="translate(709.25 596.52) rotate(-180)"/><rect class="cls-9" x="345.86" y="291.48" width="4.51" height="13.56" transform="translate(696.22 596.52) rotate(-180)"/><rect class="cls-5" x="345.15" y="358.86" width="81.95" height="23.07" transform="translate(772.25 740.8) rotate(-180)"/><rect class="cls-9" x="420.23" y="361.76" width="4.59" height="17.66" transform="translate(845.04 741.18) rotate(-180)"/><path class="cls-10" d="M414.82,365.48a1.46,1.46,0,1,0,1.46-1.46A1.46,1.46,0,0,0,414.82,365.48Z"/><path class="cls-10" d="M414.82,371.72a1.46,1.46,0,1,0,1.46-1.46A1.46,1.46,0,0,0,414.82,371.72Z"/><rect class="cls-9" x="404.48" y="364.02" width="4.51" height="13.56" transform="translate(813.47 741.6) rotate(-180)"/><rect class="cls-9" x="397.97" y="364.02" width="4.51" height="13.56" transform="translate(800.44 741.6) rotate(-180)"/><rect class="cls-9" x="391.45" y="364.02" width="4.51" height="13.56" transform="translate(787.42 741.6) rotate(-180)"/><rect class="cls-9" x="384.94" y="364.02" width="4.51" height="13.56" transform="translate(774.39 741.6) rotate(-180)"/><rect class="cls-9" x="378.43" y="364.02" width="4.51" height="13.56" transform="translate(761.36 741.6) rotate(-180)"/><rect class="cls-9" x="371.91" y="364.02" width="4.51" height="13.56" transform="translate(748.33 741.6) rotate(-180)"/><rect class="cls-9" x="365.4" y="364.02" width="4.51" height="13.56" transform="translate(735.31 741.6) rotate(-180)"/><rect class="cls-9" x="358.88" y="364.02" width="4.51" height="13.56" transform="translate(722.28 741.6) rotate(-180)"/><rect class="cls-9" x="352.37" y="364.02" width="4.51" height="13.56" transform="translate(709.25 741.6) rotate(-180)"/><rect class="cls-9" x="345.86" y="364.02" width="4.51" height="13.56" transform="translate(696.22 741.6) rotate(-180)"/><rect class="cls-5" x="345.15" y="322.62" width="81.95" height="23.07" transform="translate(772.25 668.32) rotate(-180)"/><rect class="cls-9" x="420.23" y="325.52" width="4.59" height="17.66" transform="translate(845.04 668.71) rotate(-180)"/><path class="cls-10" d="M414.82,329.24a1.46,1.46,0,1,0,1.46-1.46A1.46,1.46,0,0,0,414.82,329.24Z"/><path class="cls-10" d="M414.82,335.48a1.46,1.46,0,1,0,1.46-1.46A1.46,1.46,0,0,0,414.82,335.48Z"/><rect class="cls-9" x="404.48" y="327.78" width="4.51" height="13.56" transform="translate(813.47 669.12) rotate(-180)"/><rect class="cls-9" x="397.97" y="327.78" width="4.51" height="13.56" transform="translate(800.44 669.12) rotate(-180)"/><rect class="cls-9" x="391.45" y="327.78" width="4.51" height="13.56" transform="translate(787.42 669.12) rotate(-180)"/><rect class="cls-9" x="384.94" y="327.78" width="4.51" height="13.56" transform="translate(774.39 669.12) rotate(-180)"/><rect class="cls-9" x="378.43" y="327.78" width="4.51" height="13.56" transform="translate(761.36 669.12) rotate(-180)"/><rect class="cls-9" x="371.91" y="327.78" width="4.51" height="13.56" transform="translate(748.33 669.12) rotate(-180)"/><rect class="cls-9" x="365.4" y="327.78" width="4.51" height="13.56" transform="translate(735.31 669.12) rotate(-180)"/><rect class="cls-9" x="358.88" y="327.78" width="4.51" height="13.56" transform="translate(722.28 669.12) rotate(-180)"/><rect class="cls-9" x="352.37" y="327.78" width="4.51" height="13.56" transform="translate(709.25 669.12) rotate(-180)"/><rect class="cls-9" x="345.86" y="327.78" width="4.51" height="13.56" transform="translate(696.22 669.12) rotate(-180)"/><path class="cls-5" d="M376.42,147.22a3,3,0,0,0,.08-.71c0-.47.06-1.16.08-2s0-2,.1-3.24a21.25,21.25,0,0,1,.56-4.21,15.23,15.23,0,0,1,2.19-4.61,10.33,10.33,0,0,1,4.49-3.62,21.91,21.91,0,0,1,6.37-1.29l7.06-.61c9.68-.84,18.45-1.38,24.81-1.49,3.18-.07,5.75,0,7.53,0l2.05,0a3.91,3.91,0,0,0,.71,0,3,3,0,0,0-.71-.08l-2.05-.12c-1.78-.07-4.35-.15-7.54-.13-6.37,0-15.16.5-24.84,1.34l-7.06.62a21.93,21.93,0,0,0-6.51,1.36,10.66,10.66,0,0,0-4.66,3.81,15.17,15.17,0,0,0-2.19,4.77,19.93,19.93,0,0,0-.5,4.29c0,1.27,0,2.36,0,3.25s0,1.53,0,2A3.91,3.91,0,0,0,376.42,147.22Z"/><path class="cls-5" d="M401.28,147.22a2.69,2.69,0,0,0,.05-.67c0-.49,0-1.13,0-1.93s0-1.86.1-3a9.4,9.4,0,0,1,1-3.8,7.32,7.32,0,0,1,3.71-2.85,10.13,10.13,0,0,1,5.4-.55,9.16,9.16,0,0,1,2.78,1,5.23,5.23,0,0,1,2.17,2,2.9,2.9,0,0,1,0,2.89,3.84,3.84,0,0,1-2.45,1.85,3.12,3.12,0,0,1-2.88-.83,4.23,4.23,0,0,1-1.29-2.74,4.12,4.12,0,0,1,.86-2.8,6.09,6.09,0,0,1,2.16-1.92,8.14,8.14,0,0,1,2.71-.69q1.39-.21,2.7-.36c1.74-.2,3.38-.31,4.87-.37,3-.11,5.41-.07,7.08-.07h1.93a3.84,3.84,0,0,0,.67,0,2.54,2.54,0,0,0-.67-.07l-1.93-.1c-1.67-.06-4.09-.17-7.09-.1-1.5,0-3.15.13-4.91.31-.87.09-1.78.2-2.71.33l-1.42.22a5.38,5.38,0,0,0-1.44.51,6.62,6.62,0,0,0-2.36,2.05,4.66,4.66,0,0,0-1,3.13,4.73,4.73,0,0,0,1.44,3.08,3.66,3.66,0,0,0,3.35,1,4.43,4.43,0,0,0,2.8-2.1,3.47,3.47,0,0,0,0-3.39,5.78,5.78,0,0,0-2.38-2.25,9.7,9.7,0,0,0-2.94-1,10.58,10.58,0,0,0-5.64.62,7.62,7.62,0,0,0-3.87,3.07,9.38,9.38,0,0,0-1,4c-.07,1.2,0,2.23,0,3.06s.06,1.44.08,1.93A3.5,3.5,0,0,0,401.28,147.22Z"/><path class="cls-5" d="M369.73,147.22a3.8,3.8,0,0,0,.17-.76c.09-.5.23-1.24.43-2.19a42.33,42.33,0,0,1,2.41-7.82,22.79,22.79,0,0,1,7.13-9.57,13.44,13.44,0,0,1,6.54-2.49,68.09,68.09,0,0,1,7.69-.42c10.59-.2,20.19-.15,27.13-.42,3.47-.12,6.28-.29,8.22-.42l2.23-.19a4.25,4.25,0,0,0,.77-.1,3.86,3.86,0,0,0-.78,0l-2.23.08c-1.94.08-4.75.19-8.22.26-6.94.17-16.53.07-27.13.27a67.47,67.47,0,0,0-7.75.43,14,14,0,0,0-6.76,2.61,20.83,20.83,0,0,0-4.51,4.77,28.17,28.17,0,0,0-2.67,5.05,39.29,39.29,0,0,0-2.27,7.92c-.17,1-.28,1.7-.34,2.21A5,5,0,0,0,369.73,147.22Z"/><rect class="cls-5" x="346.28" y="103.54" width="79.7" height="11.57" transform="translate(772.25 218.64) rotate(-180)"/><rect class="cls-9" x="365.06" y="109.32" width="43.39" height="5.78" transform="translate(773.5 224.43) rotate(-180)"/><path class="cls-5" d="M313.76,343.49c0,.06.88.14,2.41.59a20.64,20.64,0,0,1,6,2.95,16.71,16.71,0,0,1,3.38,3.14,11.75,11.75,0,0,1,1.39,2.14,14.37,14.37,0,0,1,.87,2.57c.91,3.66.63,7.84.45,12.2s.11,8.7,1.83,12.19a13.48,13.48,0,0,0,3.25,4.34,15.87,15.87,0,0,0,4,2.54,15.41,15.41,0,0,0,3.74,1.11,13.36,13.36,0,0,0,2.94.13,10.14,10.14,0,0,0,1.83-.29,2.62,2.62,0,0,0,.61-.19c0-.06-.87.21-2.46.28a14.76,14.76,0,0,1-2.87-.21,15.21,15.21,0,0,1-3.63-1.17,15.37,15.37,0,0,1-3.86-2.52,13.28,13.28,0,0,1-3.11-4.23c-1.64-3.39-1.92-7.63-1.74-12s.45-8.59-.5-12.33a14.68,14.68,0,0,0-.93-2.66,11.92,11.92,0,0,0-1.46-2.21,16.52,16.52,0,0,0-3.51-3.17,19.66,19.66,0,0,0-6.17-2.85,12.48,12.48,0,0,0-1.82-.34A2.9,2.9,0,0,0,313.76,343.49Z"/><rect class="cls-5" x="343.95" y="383.33" width="6.54" height="7.96" transform="translate(694.45 774.63) rotate(-180)"/><rect class="cls-9" x="277.07" y="323.39" width="36.69" height="40.2" transform="translate(590.83 686.98) rotate(-180)"/><circle class="cls-5" cx="295.42" cy="343.65" r="12.08" transform="translate(-67.21 71.86) rotate(-12.46)"/><path class="cls-9" d="M289.38,343.65a6,6,0,1,0,6-6A6,6,0,0,0,289.38,343.65Z"/><circle class="cls-5" cx="308.8" cy="329.63" r="1.12"/><circle class="cls-5" cx="282.68" cy="329.63" r="1.12"/><path class="cls-5" d="M281.32,359.31a1.13,1.13,0,1,0,1.12-1.12A1.13,1.13,0,0,0,281.32,359.31Z"/><circle class="cls-5" cx="308.8" cy="359.77" r="1.12"/><rect class="cls-5" x="274.11" y="323.39" width="2.96" height="40.2" transform="translate(551.19 686.98) rotate(-180)"/><path class="cls-6" d="M321.73,55.29C318.11,46.84,320.31,38,326.26,31a25.46,25.46,0,0,1,24.93-8.08,27.87,27.87,0,0,1,55.28,3.59A20.87,20.87,0,0,1,422.4,54.82Z"/><path class="cls-5" d="M113.31,271.13l-.36,0-1,0-4-.05a22,22,0,0,1-6.27-.73,19.23,19.23,0,0,1-13.06-12.06,21.4,21.4,0,0,1-.77-2.66,20.4,20.4,0,0,1-.34-2.84c-.11-1.93,0-4,0-6,0-8.27,0-17.35,0-26.89v-7.06a27.48,27.48,0,0,1,.13-3.42,15.48,15.48,0,0,1,9.25-12.3c3.77-1.72,7.83-1.13,11.48-1.29l10.22-.1,14.81-.19,4-.08,1.05,0,.35,0a1.35,1.35,0,0,0-.35,0l-1.05,0-4,0-14.81,0-10.22,0-5.7,0a15.69,15.69,0,0,0-6,1.25A15.94,15.94,0,0,0,87,209.29a28.93,28.93,0,0,0-.14,3.48v7.06c0,9.54,0,18.62,0,26.89,0,2.07,0,4.07.07,6.05a21.28,21.28,0,0,0,.37,2.9,20.79,20.79,0,0,0,.8,2.71,19.49,19.49,0,0,0,13.38,12.2,22,22,0,0,0,6.35.66l4-.05,1,0Z"/><polygon class="cls-10" points="380.01 55 380.01 40.83 387.11 40.83 376.42 25.74 365.73 40.72 372.69 40.72 372.69 55 380.01 55"/><polygon class="cls-2" points="136.87 238.74 129.32 248.59 114.95 242.24 124.14 227.48 136.87 238.74"/><polygon class="cls-9" points="132.39 239.9 132.16 244.78 127.41 247.01 127.65 242.01 132.39 239.9"/><polygon class="cls-9" points="127.88 237.17 127.65 242.05 122.9 244.28 123.14 239.28 127.88 237.17"/><polygon class="cls-9" points="123.3 234.44 123.07 239.32 118.31 241.55 118.56 236.55 123.3 234.44"/><path class="cls-7" d="M114.38,242l1.64-2.51,14.08,8.91L126.78,254l-.92-.46c-4.1-2.09-20.68-10.9-22.86-13.24C100.56,237.69,114.38,242,114.38,242Z"/><g class="cls-11"><path class="cls-10" d="M121.63,250.87a5.87,5.87,0,0,1,3.58-2.15,4.83,4.83,0,0,1,4.08,1.08l-2.4,4Z"/></g><path class="cls-12" d="M107.5,240.13s-5-1.26-4.87-.24,16.54,10.55,24.15,14.12l.16-.34L107.7,242.72S108.32,240.65,107.5,240.13Z"/><path class="cls-5" d="M127.18,253.8l-.27-.12-.73-.37-2.68-1.41c-2.25-1.2-5.35-2.9-8.72-4.85s-6.39-3.8-8.55-5.15l-2.55-1.63-.69-.45-.23-.17a1.21,1.21,0,0,1,.26.13l.7.42,2.59,1.57c2.18,1.33,5.2,3.15,8.57,5.1s6.45,3.68,8.69,4.91l2.65,1.46.71.4A1.42,1.42,0,0,1,127.18,253.8Z"/><path class="cls-5" d="M107.57,242.94a6.09,6.09,0,0,0,.24-1.53,7,7,0,0,0-.31-1.52,2.35,2.35,0,0,1,.51,1.52A2.17,2.17,0,0,1,107.57,242.94Z"/><path class="cls-5" d="M113.07,243.25c-.06,0-.12-.36-.14-.81a2,2,0,0,1,.07-.82c.06,0,.12.36.13.81A1.86,1.86,0,0,1,113.07,243.25Z"/><path class="cls-5" d="M114.59,243.31c-.06,0-.19-.26-.31-.63s-.17-.68-.12-.69.19.26.31.63S114.64,243.3,114.59,243.31Z"/><path class="cls-5" d="M116.11,242.38c0,.05-.39-.1-.8-.34s-.74-.46-.71-.51.39.1.81.34S116.14,242.34,116.11,242.38Z"/><path class="cls-5" d="M116.92,241.57a1.59,1.59,0,0,1-1-.24,1.69,1.69,0,0,1-.8-.62,5.94,5.94,0,0,1,.89.44A7.28,7.28,0,0,1,116.92,241.57Z"/><path class="cls-5" d="M113.31,241.72a3.24,3.24,0,0,1-.92-.55,6,6,0,0,1-.86-.78,3.18,3.18,0,0,1-.43-.56.54.54,0,0,1-.06-.42.41.41,0,0,1,.35-.29,2,2,0,0,1,1.81,1.71,1.71,1.71,0,0,1-.06.79.64.64,0,0,1-.12.27,3.08,3.08,0,0,0,0-1,2,2,0,0,0-.49-1,1.67,1.67,0,0,0-1.15-.56c-.21,0-.25.23-.14.42a2.44,2.44,0,0,0,.39.52,6.7,6.7,0,0,0,.81.8C113,241.48,113.32,241.69,113.31,241.72Z"/><path class="cls-5" d="M113,241.62a1,1,0,0,1,.27-.7,1.73,1.73,0,0,1,.64-.53,1.06,1.06,0,0,1,1,0,.43.43,0,0,1,0,.59,1.09,1.09,0,0,1-.4.32,3.29,3.29,0,0,1-.76.31,1.43,1.43,0,0,1-.74.06s.28-.06.7-.2a3.66,3.66,0,0,0,.71-.33c.24-.12.53-.42.32-.6s-.58-.06-.83,0a1.73,1.73,0,0,0-.61.45A4.3,4.3,0,0,0,113,241.62Z"/><path class="cls-5" d="M129.17,249.69s-.39-.28-1.09-.58a5.2,5.2,0,0,0-5.51.82c-.57.49-.84.89-.87.87a1,1,0,0,1,.17-.29,4.69,4.69,0,0,1,.61-.69,5.14,5.14,0,0,1,2.7-1.3,5.21,5.21,0,0,1,3,.46,4.56,4.56,0,0,1,.78.48A1.55,1.55,0,0,1,129.17,249.69Z"/><path class="cls-5" d="M120.64,248.41a13.73,13.73,0,0,1-4.23-2.4s.94.56,2.11,1.22S120.66,248.36,120.64,248.41Z"/><path class="cls-5" d="M123.46,250c0,.06-.19.16-.41.32s-.39.32-.44.29.06-.27.32-.46S123.45,250,123.46,250Z"/><path class="cls-5" d="M125.29,249.34s-.17.15-.4.21-.44.08-.46,0,.17-.15.41-.21S125.27,249.29,125.29,249.34Z"/><path class="cls-5" d="M127.16,249.62s-.23-.07-.48-.12-.47,0-.49-.08.21-.18.53-.12S127.2,249.58,127.16,249.62Z"/><path class="cls-5" d="M128.41,250c0,.06-.14.08-.28.06s-.26-.09-.25-.14.13-.08.28-.06S128.42,249.91,128.41,250Z"/><path class="cls-5" d="M232.26,231.44l-56.24-53a18.48,18.48,0,0,0-13.22-5.57h0a18.52,18.52,0,0,0-16.05,9.31L118,231.59l18.26,10.53L164,206.89,191.71,232Z"/><path class="cls-5" d="M248.81,234.1c.24.71,1.91,18.83-22.4,18.83h-65A14.89,14.89,0,0,1,146.55,238h0a14.89,14.89,0,0,1,14.89-14.89h60.49a14.88,14.88,0,0,1,6.26,1.38Z"/><path class="cls-9" d="M155.69,223.15c0,.14,13.42.26,30,.26s30-.12,30-.26-13.42-.26-30-.26S155.69,223,155.69,223.15Z"/><path class="cls-9" d="M165.72,194.49c-.16,0-.16,2.81-.67,6.22s-1.3,6.1-1.15,6.15a26.13,26.13,0,0,0,1.82-12.37Z"/><path class="cls-9" d="M163,194.09a26.12,26.12,0,0,0,0,6.39,26.4,26.4,0,0,0,1.06,6.31c.15,0-.25-2.85-.54-6.35S163.11,194.09,163,194.09Z"/><path class="cls-5" d="M213.33,114.33a1.9,1.9,0,0,0,3.06,1.69c1.11-.86.93-2.59.43-3.9s-1.26-2.66-.93-4a9.35,9.35,0,0,1,1.66-2.74,6.1,6.1,0,0,0,.67-5.37A5.1,5.1,0,0,0,214,96.72c-1.9-.15-4,.84-5.62-.21-1.16-.76-1.52-2.3-2.5-3.28-1.51-1.53-4-1.33-6.08-.63s-4,1.78-6.18,1.67c-1.79-.1-3.43-1-5.18-1.44a9.41,9.41,0,0,0-9.55,15c.87,1.09,2.84,4.36,6.75,3.55"/><path class="cls-13" d="M211.1,99.53l.53,2.82,8.16,42.12c1,4.89-2.5,9.6-7.75,10.57h0c-5.29,1-10.42-2.21-11.46-7.13-1.09-5.17-2.33-10.59-2.33-10.59s-6.89.28-10.08-8.13c-1.58-4.18-2.84-11.31-3.68-17.18a9.38,9.38,0,0,1,8.35-10.66Z"/><path class="cls-5" d="M188.44,116.19a1.14,1.14,0,0,0,1.31.9,1.09,1.09,0,0,0,.94-1.24,1.14,1.14,0,0,0-1.31-.9A1.09,1.09,0,0,0,188.44,116.19Z"/><path class="cls-5" d="M186.8,115.38c.16.11.88-.69,2.08-.93s2.2.17,2.3,0-.14-.32-.58-.52a3.2,3.2,0,0,0-1.88-.17,3,3,0,0,0-1.62.92C186.78,115,186.71,115.33,186.8,115.38Z"/><path class="cls-5" d="M199.91,113.86a1.14,1.14,0,0,0,1.31.9,1.09,1.09,0,0,0,.94-1.24,1.14,1.14,0,0,0-1.31-.91A1.1,1.1,0,0,0,199.91,113.86Z"/><path class="cls-5" d="M198.63,113.15c.17.12.89-.68,2.09-.93s2.2.17,2.3,0-.14-.31-.58-.51a3.14,3.14,0,0,0-1.89-.18,3.1,3.1,0,0,0-1.62.92C198.62,112.81,198.55,113.1,198.63,113.15Z"/><path class="cls-5" d="M196.13,123a8.1,8.1,0,0,0-2,.06c-.32,0-.62,0-.71-.17a1.6,1.6,0,0,1,0-1q.21-1.2.42-2.52a40.06,40.06,0,0,0,.77-6.53,42.18,42.18,0,0,0-1.29,6.45c-.13.88-.26,1.72-.38,2.53a1.83,1.83,0,0,0,.09,1.23.79.79,0,0,0,.6.35,2.12,2.12,0,0,0,.53,0A8.07,8.07,0,0,0,196.13,123Z"/><path class="cls-14" d="M198.25,137.32a22.61,22.61,0,0,0,11-5.52s-1.58,6.56-10.45,7.55Z"/><path class="cls-5" d="M199.83,123.05c-.2,0,.07,1.33-.85,2.49s-2.34,1.3-2.31,1.48.36.19,1,.09a3.28,3.28,0,0,0,1.94-1.17,2.84,2.84,0,0,0,.63-2.07C200.13,123.32,199.92,123,199.83,123.05Z"/><path class="cls-5" d="M197.35,108.52c.18.3,1.35-.11,2.79-.23s2.66,0,2.79-.3c0-.16-.21-.43-.73-.65a4.71,4.71,0,0,0-2.18-.29,4.62,4.62,0,0,0-2.07.7C197.47,108.06,197.27,108.37,197.35,108.52Z"/><path class="cls-5" d="M186.52,111.81c.26.23,1-.22,2-.44s1.88-.2,2-.52c.06-.16-.13-.41-.55-.59a2.93,2.93,0,0,0-1.75-.1,2.79,2.79,0,0,0-1.5.88C186.45,111.4,186.4,111.7,186.52,111.81Z"/><path class="cls-5" d="M183.4,108.21s4.93,1.41,10.31-2.57c3.54-2.62,7.89-4.35,9-3.75s2,4.57,6.08,5.06c0,0,1.07,7.66,4.06,6.86s-.62-15.88-.62-15.88l-8.42,1.28-8.38-.11L188,101.51l-5.63,2.65Z"/><path class="cls-5" d="M212,95.73c0-.13-.75-.25-1.53.23s-1,1.21-.9,1.25.49-.47,1.15-.85S212,95.86,212,95.73Z"/><path class="cls-5" d="M209,93.69c-.14,0,.09.92.15,2s-.23,1.9-.11,2a2.4,2.4,0,0,0,.57-2A3.07,3.07,0,0,0,209,93.69Z"/><path class="cls-13" d="M212.05,110.73c.12-.09,4.67-2.76,5.78,2.3s-4.2,5.12-4.24,5S212.05,110.73,212.05,110.73Z"/><path class="cls-14" d="M214.71,115.75s.1,0,.27.08a.86.86,0,0,0,.66-.13,2.22,2.22,0,0,0,.58-2.18,3,3,0,0,0-.52-1.2,1.05,1.05,0,0,0-.81-.54.47.47,0,0,0-.47.36c0,.16,0,.25,0,.26s-.12-.06-.13-.27a.55.55,0,0,1,.13-.36.67.67,0,0,1,.46-.24,1.24,1.24,0,0,1,1.09.58,3.11,3.11,0,0,1,.62,1.35,2.35,2.35,0,0,1-.81,2.46,1,1,0,0,1-.84,0C214.75,115.87,214.7,115.77,214.71,115.75Z"/><path class="cls-9" d="M195.29,113.69c.05,0,0-.48.26-1.29a5.48,5.48,0,0,1,2-2.84,5.24,5.24,0,0,1,4.9-.7,5.16,5.16,0,1,1-4.9,9,5.42,5.42,0,0,1-2-2.84c-.22-.81-.21-1.29-.26-1.29s0,.12,0,.34a4.26,4.26,0,0,0,.11,1,5.38,5.38,0,0,0,1.94,3.08,5.57,5.57,0,0,0,7.9-1.09,5.58,5.58,0,0,0-7.9-7.75,5.35,5.35,0,0,0-1.94,3.08,4.19,4.19,0,0,0-.11,1C195.26,113.57,195.27,113.69,195.29,113.69Z"/><path class="cls-9" d="M182.38,116c.05,0,0-.48.27-1.29a5.36,5.36,0,0,1,2-2.84,5.16,5.16,0,1,1,0,8.26,5.36,5.36,0,0,1-2-2.84c-.23-.81-.22-1.29-.27-1.29s0,.12,0,.35a4.11,4.11,0,0,0,.1,1,5.35,5.35,0,0,0,1.94,3.08,5.57,5.57,0,0,0,7.91-1.09,5.59,5.59,0,0,0,0-6.66,5.57,5.57,0,0,0-7.91-1.09,5.35,5.35,0,0,0-1.94,3.08,4.11,4.11,0,0,0-.1,1C182.35,115.9,182.36,116,182.38,116Z"/><path class="cls-9" d="M205.43,110.71a10.62,10.62,0,0,0,3.24.27,10.24,10.24,0,0,0,3.23-.25,10.53,10.53,0,0,0-3.23-.27A10.28,10.28,0,0,0,205.43,110.71Z"/><path class="cls-9" d="M193.14,115c.13.06.45-.43,1-.6s1.12.07,1.2,0,0-.21-.29-.35a1.46,1.46,0,0,0-1.06-.1,1.41,1.41,0,0,0-.83.66C193.07,114.79,193.08,115,193.14,115Z"/><polygon class="cls-2" points="205.03 222.72 205.03 219.38 157.53 220.36 130.18 176.66 127.67 178.47 155.69 223.15 205.03 222.72"/><path class="cls-13" d="M172.17,208.16l-2.39,3.54V219a1.58,1.58,0,0,0,1.73-.7,28.8,28.8,0,0,0,1.16-4.37l1.15,3a2.59,2.59,0,0,0,3,1.57l8.81-2.21L182.06,206Z"/><path class="cls-6" d="M220.81,137.66S234,141,237.9,146.86s8.43,15.74,13.27,34.78c4.23,16.62,7.48,43.16,2.91,49.39-3.15,4.28-5.15,5.37-5.15,5.37l-10.15-3.63a78.42,78.42,0,0,1-26.42-15.9l-15.57-14.2,8.24-6.5s-6.27-33.87-4.6-45.7C201.89,140.13,220.81,137.66,220.81,137.66Z"/><path class="cls-6" d="M217.41,147.87c5.06,1.25,9.93,3.31,16.84,3.88a7.68,7.68,0,0,0,4.67-1c4.36-2.7,2.85-7.69.47-11.05-2.53-3.56-6.51-6.62-10.86-6.18a5,5,0,0,0-2.48-5.86,8.22,8.22,0,0,0-6.73-.15,24.39,24.39,0,0,0-5.89,3.62L206,136.73a14.28,14.28,0,0,0-4.35,4.44c-1,1.85-4.52,9.12-2.94,10.49,0,0,2,.59,3,0a1.62,1.62,0,0,0,.19-.13A18.16,18.16,0,0,1,217.41,147.87Z"/><path class="cls-6" d="M224.88,154l8.69,40.62a14.53,14.53,0,0,1-9.24,16.71l-37.77,7.25-4.71-14.08h0L212.5,195l-9-39.25Z"/><path class="cls-5" d="M233.9,202.38a.81.81,0,0,0-.06.24l-.15.7c0,.16-.06.33-.1.52s-.14.39-.22.6l-.26.71-.41.76a10.1,10.1,0,0,1-3,3.22,16.91,16.91,0,0,1-5.55,2.42l-37.36,6.84.25.14c-1.56-4.46-3.2-9.17-4.91-14.08l-.16.31,30.65-9.54.24-.08-.06-.24c-.54-2.09-1.11-4.33-1.68-6.59-1.78-7.11-3.45-14.07-4.91-20.83-.71-3.38-1.38-6.71-1.85-10-.13-.82-.13-1.63-.2-2.44a11.05,11.05,0,0,1,.26-2.38,9.89,9.89,0,0,1,2.1-4.16,10.24,10.24,0,0,1,8-3.59,10.5,10.5,0,0,1,7.44,3.77,19.68,19.68,0,0,1,3.83,7.06,64.21,64.21,0,0,1,1.74,7.31c1.85,9.42,3.36,17,4.4,22.34.53,2.61.94,4.66,1.23,6.06l.33,1.58c.08.35.13.53.13.53s0-.18-.08-.54-.16-.91-.28-1.59c-.26-1.41-.64-3.46-1.13-6.08-1-5.3-2.45-12.94-4.24-22.37a60.79,60.79,0,0,0-1.72-7.37,20.05,20.05,0,0,0-3.89-7.22,10.88,10.88,0,0,0-7.74-3.93,10.66,10.66,0,0,0-8.39,3.73,10.36,10.36,0,0,0-2.2,4.36,11.53,11.53,0,0,0-.29,2.49c.08.83.07,1.68.21,2.5.46,3.31,1.14,6.65,1.85,10,1.44,6.76,3.11,13.73,4.89,20.85.58,2.26,1.15,4.5,1.69,6.59l.17-.31-30.64,9.58-.24.07.08.24c1.72,4.9,3.38,9.62,4.95,14.07l.06.18.19,0c15.46-2.89,28.33-5.25,37.35-7a17.3,17.3,0,0,0,5.59-2.5,10,10,0,0,0,3.06-3.33l.4-.77c.09-.26.17-.5.25-.72s.14-.43.21-.62l.08-.53c.05-.3.08-.53.11-.71Z"/><path class="cls-5" d="M217.77,200.29a2.1,2.1,0,0,0-.08-1.22,5.62,5.62,0,0,0-1.52-2.51,5.54,5.54,0,0,0-2.58-1.42c-.75-.16-1.22-.09-1.22,0s.45.14,1.11.38a6.69,6.69,0,0,1,2.32,1.44,6.58,6.58,0,0,1,1.54,2.26C217.6,199.85,217.68,200.3,217.77,200.29Z"/><g class="cls-15"><path d="M225.77,153.49a233.92,233.92,0,0,1,9.09,43.39,34.57,34.57,0,0,1,.2,10.2,12.58,12.58,0,0,1-5.11,8.55,12.73,12.73,0,0,1-9.23,1.41c-3.13-.6-8.2-1.29-11.08-2.65l16.9-3.49s10.89-.68,6.21-21.54S225.77,153.49,225.77,153.49Z"/></g><g class="cls-15"><path d="M240.18,150c.06,1.67-.09,3.73-1.61,4.42s-3.24-.58-4.5-1.74a72.46,72.46,0,0,0-17.19-11.78,40.33,40.33,0,0,1,23.27,9.4"/></g><path class="cls-5" d="M207.08,144.93a28.09,28.09,0,0,1,4.65-2.49,20.11,20.11,0,0,1,5.55-1.26,18.55,18.55,0,0,1,6.89.75,34.7,34.7,0,0,1,6.42,2.81c1.9,1,3.6,2,5.06,2.79s2.67,1.32,3.52,1.67a7,7,0,0,0,1.36.45,8.46,8.46,0,0,0-1.27-.64c-.83-.4-2-1-3.44-1.81l-5-2.88a33.27,33.27,0,0,0-6.5-2.89,18.29,18.29,0,0,0-7.08-.72,19.24,19.24,0,0,0-5.64,1.39,16.15,16.15,0,0,0-3.42,1.91,8.27,8.27,0,0,0-.84.66C207.16,144.83,207.07,144.92,207.08,144.93Z"/><path class="cls-5" d="M201.79,147c.07.06,1.26-1.13,3.37-2.83a48.75,48.75,0,0,1,18.8-9.37c2.64-.66,4.31-.9,4.29-1a4.57,4.57,0,0,0-1.18.08,31.61,31.61,0,0,0-3.19.55,43.48,43.48,0,0,0-18.95,9.44,31.59,31.59,0,0,0-2.36,2.22A4.44,4.44,0,0,0,201.79,147Z"/><path class="cls-2" d="M199.27,179.91a4.49,4.49,0,0,0,.2-.84c.1-.56.23-1.37.33-2.4a12.21,12.21,0,0,0-.18-3.73,2.14,2.14,0,0,0-1.64-1.68,1.26,1.26,0,0,0-1.28.52,1.15,1.15,0,0,0,.07,1.46l0,0,.08,0a1.64,1.64,0,0,0,1.44-.57,2.67,2.67,0,0,0,.61-1.41c.12-1,.12-2,.19-3,.25-4.8.45-9.14.56-12.28.05-1.5.08-2.75.11-3.73a6.15,6.15,0,0,0,0-1.37,8.33,8.33,0,0,0-.17,1.36c-.07,1-.16,2.23-.28,3.72-.21,3.14-.46,7.47-.71,12.27-.06,1-.07,2-.18,2.92a2.15,2.15,0,0,1-.48,1.15,1.11,1.11,0,0,1-1,.42l.13.06a.67.67,0,0,1,0-.84.78.78,0,0,1,.81-.33,1.73,1.73,0,0,1,1.31,1.34,12.2,12.2,0,0,1,.27,3.6C199.38,178.7,199.19,179.9,199.27,179.91Z"/><path class="cls-5" d="M215.69,213a9.69,9.69,0,0,0,1.22,1.15c.8.72,2,1.72,3.51,2.92a109.89,109.89,0,0,0,12.45,8.51,104.46,104.46,0,0,0,13.52,6.69c1.79.73,3.25,1.28,4.27,1.62a10.88,10.88,0,0,0,1.61.49,9.31,9.31,0,0,0-1.54-.68c-1-.4-2.44-1-4.2-1.77a123.23,123.23,0,0,1-13.4-6.8,133.41,133.41,0,0,1-12.48-8.35c-1.54-1.16-2.77-2.12-3.61-2.79A11,11,0,0,0,215.69,213Z"/><path class="cls-5" d="M246.14,235.71c.12.09.72-.51,1.34-1.34s1-1.57.92-1.65-.72.51-1.34,1.34S246,235.62,246.14,235.71Z"/><path class="cls-5" d="M240.11,233.16c.08.11.9-.35,1.68-1.21s1.16-1.71,1-1.78-.69.63-1.43,1.43S240,233,240.11,233.16Z"/><path class="cls-5" d="M232.52,230.66c.11.09.95-.68,1.87-1.73s1.59-2,1.48-2.07-.94.68-1.87,1.73A6.6,6.6,0,0,0,232.52,230.66Z"/><path class="cls-5" d="M224.39,226.34c.11.09,1-.81,2-2A7.53,7.53,0,0,0,228,222c-.11-.09-1,.8-2,2A7.63,7.63,0,0,0,224.39,226.34Z"/><path class="cls-5" d="M216.83,220.68A6.91,6.91,0,0,0,219,219.1c1.08-1,1.88-1.85,1.79-2s-1.05.6-2.14,1.58S216.73,220.58,216.83,220.68Z"/><circle class="cls-9" cx="146.61" cy="139.53" r="2.32" transform="translate(-28.17 37.47) rotate(-13.3)"/><path class="cls-9" d="M151.24,136.56a6.43,6.43,0,0,0-9.3-.13,1.31,1.31,0,0,1-1.86-1.83,9.07,9.07,0,0,1,13,.1c1.16,1.22-.67,3.08-1.84,1.86Z"/><path class="cls-9" d="M159.13,125.75a19,19,0,0,0-12.46-5A18.54,18.54,0,0,0,134,125.63c-1.22,1.15-3.08-.68-1.85-1.83a21.12,21.12,0,0,1,14.55-5.64A21.81,21.81,0,0,1,161,123.9c1.27,1.1-.57,2.95-1.84,1.85Z"/><path class="cls-9" d="M156,131.74a12.78,12.78,0,0,0-18.77-.27c-1.17,1.21-3-.63-1.85-1.84a15.38,15.38,0,0,1,22.46.26c1.13,1.23-.7,3.09-1.84,1.85Z"/></g></g></svg>