<svg xmlns="http://www.w3.org/2000/svg" viewBox="0 0 1903 280"><defs><style>.cls-1{fill:#fafbff;}.cls-2{fill:#e1e1e1;}.cls-3{fill:#f5f5f5;}.cls-4{fill:#ff4f5b;}.cls-5{fill:#1a2e35;}.cls-6{fill:#375a64;}.cls-7{fill:#fafafa;}.cls-8{fill:#ffbf9d;}.cls-9{fill:#ff9a6c;}.cls-10{fill:#fff;}.cls-11{opacity:0.3;}</style></defs><title>trainingAsset 5</title><g id="Layer_2" data-name="Layer 2"><g id="Layer_1-2" data-name="Layer 1"><rect class="cls-1" width="1903" height="280"/><rect class="cls-2" x="425.68" y="212.3" width="11.69" height="46.69"/><rect class="cls-2" x="442.87" y="222.48" width="11.69" height="36.51"/><rect class="cls-2" x="460.33" y="230.82" width="11.69" height="28.17"/><rect class="cls-2" x="476.48" y="242.26" width="11.69" height="16.73"/><path class="cls-3" d="M633.75,79.08,668,80.8a34.27,34.27,0,1,1-23.71-34.34Z"/><path class="cls-2" d="M651.33,48,642,72.92l26.23.43S667.5,58.17,651.33,48Z"/><path class="cls-2" d="M336.69,175.42V150.11A25.31,25.31,0,1,1,311.39,176Z"/><path class="cls-3" d="M330.52,168.6l-25.31.57a26.71,26.71,0,0,1,7.17-18.23,26.05,26.05,0,0,1,17.75-7.65Z"/><path class="cls-4" d="M592.48,199.83a23.43,23.43,0,0,0-10.08-3.47,6.75,6.75,0,0,0-4.77.87,1,1,0,0,0-.49.87,1.07,1.07,0,0,0,.47.6,14.42,14.42,0,0,0,14.87,1.13"/><path class="cls-4" d="M592.22,199.54a48.64,48.64,0,0,1-6.51-5.73,16.48,16.48,0,0,1-4.08-7.55,3,3,0,0,1,.32-2.52c5.19,4,9.27,9.29,10.27,15.8"/><path class="cls-4" d="M592.43,199.79a23.4,23.4,0,0,1,.12-8.55,11.6,11.6,0,0,1,4.55-7.06c.9,2.1.51,4.52-.12,6.71a32.56,32.56,0,0,1-4.52,9.5"/><path class="cls-4" d="M597.51,208.9a15,15,0,0,0-8.08,4.1,15.17,15.17,0,0,0-4.62,7.93c3-.18,5.59-2.32,7.46-4.72s3.15-5,5.2-7.26"/><path class="cls-4" d="M598.62,210.36a19.93,19.93,0,0,1,2.3-18.86,24,24,0,0,1-2.3,18.86"/><path class="cls-4" d="M605.34,218.37a14.38,14.38,0,0,0-13.78,7.93c-.18.34-.33.78-.1,1.08a1,1,0,0,0,.92.27c2.71-.17,5.12-1.81,7.11-3.67s3.72-4,5.91-5.62"/><path class="cls-4" d="M605.13,217.93a25.63,25.63,0,0,1-.26-14.34c.51-1.85,1.35-3.79,3.06-4.66a.61.61,0,0,1,.47-.08.63.63,0,0,1,.3.34,8.77,8.77,0,0,1,.72,4.12,26.66,26.66,0,0,1-.65,4.16c-.54,2.55-.82,5.29-2.22,7.48a16.17,16.17,0,0,0-.89,1.64c-.26.56-.26.76-.5,1.2"/><path class="cls-4" d="M622.92,220.58a18.48,18.48,0,0,1,3.24-15.2c.23-.31.54-.63.92-.6.59.06.74.83.71,1.42a27.5,27.5,0,0,1-4.87,14.38"/><path class="cls-4" d="M624.53,221.68A22.13,22.13,0,0,0,642.67,218a14.64,14.64,0,0,0-9.82-1.21,14,14,0,0,0-8.32,4.9"/><path class="cls-4" d="M625.88,218.34a21,21,0,0,1,16.47-9.53,10.11,10.11,0,0,1-5.39,6,29.55,29.55,0,0,1-7.9,2.31c-1.06.21-2.5.43-3.18,1.26"/><path class="cls-4" d="M623.26,202.14a48.64,48.64,0,0,0,2.11-9.65,16.12,16.12,0,0,0-1.92-9.54,21,21,0,0,0-.29,19.52"/><path class="cls-4" d="M634,196.71c3.73-6.77,11.33-12.18,19-12.94-3,7.39-11.07,13.1-19,12.94"/><path class="cls-4" d="M631.65,198c5.55.85,10.29,4.4,15.49,6.55a6.9,6.9,0,0,0,3.5.67,2.74,2.74,0,0,0,1.71-4.85,7.4,7.4,0,0,0-2.54-1.54,28.24,28.24,0,0,0-17.69-1"/><path class="cls-4" d="M628.43,201.94c1.26.36,1.69,1,2.68,1.86a29,29,0,0,0,11.75,6c.45.12,1,.16,1.26-.25s0-.78-.3-1.09a16.23,16.23,0,0,0-7.1-4.82c-2.71-1-5.06-2.22-8.29-2"/><path class="cls-4" d="M624.8,178.39a22.22,22.22,0,0,0,17,5.8,1.18,1.18,0,0,0,.78-.28c.43-.46-.09-1.19-.59-1.57a19.63,19.63,0,0,0-17.23-4"/><path class="cls-4" d="M629.1,176.82a23.77,23.77,0,0,1,21.27-3.51,16.88,16.88,0,0,1-10.13,4.45,32.22,32.22,0,0,1-11.14-.94"/><path class="cls-4" d="M627.39,166c-.49-5-.17-8.95-.52-14,0-.4-.11-.88-.49-1s-1,.44-1.13,1a16,16,0,0,0,2.14,13.92"/><path class="cls-4" d="M627,166.55a29.55,29.55,0,0,0,8.29-8.05c1.63-2.24,3-4.92,2.64-7.67a7.88,7.88,0,0,0-6,3,16.47,16.47,0,0,0-3,6.12c-.66,2.21-1.13,4.47-1.91,6.63"/><path class="cls-4" d="M635.17,164.29a67,67,0,0,0,20.39-12c-2.44-1-5.22-.4-7.66.58a24.15,24.15,0,0,0-12.83,11.38"/><path class="cls-4" d="M629.32,169.28a41.27,41.27,0,0,0,11.32.06,48.06,48.06,0,0,0,10.57-3.51,1.25,1.25,0,0,0,.72-.55.83.83,0,0,0-.26-.9,2.13,2.13,0,0,0-.9-.42,19.48,19.48,0,0,0-11.42.68,53.67,53.67,0,0,0-10,4.64"/><path class="cls-4" d="M607.83,178.56a20,20,0,0,1-.18-16.57c1.56,2.38,1.75,5.41,1.46,8.24s-1.14,5.75-1.2,8.59"/><path class="cls-4" d="M597.57,173.39a23.1,23.1,0,0,0-17.17,7.32,16.07,16.07,0,0,0,9.4-1.75,47.6,47.6,0,0,0,8.06-5.39"/><path class="cls-4" d="M590.68,171.08c-3.14-.25-6.16-.64-9.17.28a11,11,0,0,0-7,5.93,16.52,16.52,0,0,0,8.59-1.62,49.56,49.56,0,0,0,7.57-4.59"/><path class="cls-4" d="M600.89,171.19c-2.82-1.85-5.72-3.73-9-4.5s-7.09-.2-9.38,2.28c2.66,1.56,5.89,1.74,9,1.74s6.86,0,9.77,1"/><path class="cls-4" d="M600.9,171.34c-4.82-4.74-6.65-13.25-4.71-19.72a30,30,0,0,1,4.71,19.72"/><path class="cls-4" d="M614.17,157.92c.91-2.12,1.55-4.34,2.36-6.49a18.62,18.62,0,0,1,3.38-6,8.89,8.89,0,0,1,6-3.1A24.08,24.08,0,0,1,614.29,158"/><path class="cls-4" d="M611.77,160.71c-1.51-2.07-3.25-4.88-5.29-6.43a8.88,8.88,0,0,0-7.19-1.89,16.72,16.72,0,0,0,12.48,8.32"/><path class="cls-4" d="M612.25,158.09a35.64,35.64,0,0,1-2.38-7.71,12,12,0,0,1,1.2-7.83c2.65,5,3.5,10.38,1.31,15.6"/><path class="cls-4" d="M614.19,142.55c1.5-5,6-8.62,10.95-10.29a4.1,4.1,0,0,1,1.92-.29,1.65,1.65,0,0,1,1.41,1.18c.18.84-.51,1.6-1.17,2.16a37.17,37.17,0,0,1-13.11,7.24"/><path class="cls-4" d="M614.25,138.49a35.61,35.61,0,0,1,1.43-9.48,12,12,0,0,1,6-7.2c.5,3.23-.93,6.45-2.65,9.23s-3.79,5.4-4.82,8.51"/><path class="cls-4" d="M614.17,140.69c-1.24-3.61-1.37-8.21-3.54-11.36-1.51-2.2-3.93-3.7-5.24-6a9.19,9.19,0,0,0,.31,6.85,19.73,19.73,0,0,0,4,5.73c1.61,1.71,3,3,4.47,4.81"/><path class="cls-5" d="M614.19,247.18c-.09,0-.18-24.12-.18-53.87s.06-53.88.16-53.88.18,24.12.18,53.88S614.29,247.18,614.19,247.18Z"/><path class="cls-5" d="M635.27,174.92a3.8,3.8,0,0,1-.91.34l-2.49.85c-2.11.71-5,1.75-8.13,3s-6,2.41-7.71,3.86a5.67,5.67,0,0,0-1.55,2.05c-.24.56-.28.91-.31.9a.69.69,0,0,1,0-.25,4.54,4.54,0,0,1,.17-.7,5.5,5.5,0,0,1,1.52-2.19,13.29,13.29,0,0,1,3.34-2.07c1.34-.63,2.82-1.28,4.39-1.93,3.15-1.29,6.06-2.29,8.19-2.95,1.07-.33,1.93-.58,2.54-.74A6.42,6.42,0,0,1,635.27,174.92Z"/><path class="cls-5" d="M642.18,158s-.08.1-.25.27l-.78.73-2.89,2.62-9.61,8.57c-3.76,3.34-7,6.53-9.25,8.94-1.13,1.2-2,2.19-2.62,2.89l-.7.8c-.16.18-.25.27-.26.26a1.37,1.37,0,0,1,.21-.31c.14-.19.36-.48.65-.84.57-.72,1.43-1.74,2.54-3a121.4,121.4,0,0,1,9.19-9c3.77-3.34,7.2-6.33,9.69-8.49l3-2.54.82-.68A1.57,1.57,0,0,1,642.18,158Z"/><path class="cls-5" d="M624.59,173.54c-.1,0,.69-1.86,1.47-4.15s1.16-4.22,1.26-4.21a14.14,14.14,0,0,1-.93,4.32,27.3,27.3,0,0,1-1.17,2.9A4.34,4.34,0,0,1,624.59,173.54Z"/><path class="cls-5" d="M614.21,188.14a4.77,4.77,0,0,1-.57-.68c-.4-.5-.89-1.14-1.49-1.9-1.24-1.6-3-3.83-4.89-6.26s-3.71-4.61-5-6.19l-1.51-1.87a4,4,0,0,1-.53-.72,4.84,4.84,0,0,1,.63.63c.39.42.93,1,1.6,1.8,1.33,1.54,3.14,3.7,5.07,6.14s3.62,4.68,4.82,6.33c.6.82,1.07,1.49,1.39,2A3.68,3.68,0,0,1,614.21,188.14Z"/><path class="cls-5" d="M609.59,182.2a8.41,8.41,0,0,1-1.93-3.62,10.27,10.27,0,0,1-.44-3.66l.15,0c-.07.27-.12.42-.15.42a1.07,1.07,0,0,1,0-.45h.15a17.17,17.17,0,0,0,.62,3.56A27.76,27.76,0,0,0,609.59,182.2Z"/><path class="cls-5" d="M603.62,174.7a5.45,5.45,0,0,0-1.35-.79,9.14,9.14,0,0,0-3.75-.3,23.69,23.69,0,0,0-3.78.61,13.16,13.16,0,0,1-1.56.38,5.2,5.2,0,0,1,1.49-.61,17.11,17.11,0,0,1,3.82-.72,8.14,8.14,0,0,1,3.88.41A2.32,2.32,0,0,1,603.62,174.7Z"/><path class="cls-5" d="M602.21,172.88c0,.05-.79-.32-2.07-.76a20.88,20.88,0,0,0-10.44-.79c-1.33.24-2.14.49-2.16.43a1.83,1.83,0,0,1,.55-.23,11.54,11.54,0,0,1,1.56-.44,18.61,18.61,0,0,1,5.35-.38,18.8,18.8,0,0,1,5.22,1.18,13.46,13.46,0,0,1,1.48.67A2.22,2.22,0,0,1,602.21,172.88Z"/><path class="cls-5" d="M614.17,165.18a40.73,40.73,0,0,1-1.51-5.24,44.91,44.91,0,0,1-1.18-5.33,41.65,41.65,0,0,1,1.52,5.24A43.6,43.6,0,0,1,614.17,165.18Z"/><path class="cls-5" d="M614.26,165.18a26.11,26.11,0,0,0-1.67-3.14,14.22,14.22,0,0,0-2.46-2.54,2.39,2.39,0,0,1,1,.49,7.75,7.75,0,0,1,1.79,1.85A6.9,6.9,0,0,1,614.26,165.18Z"/><path class="cls-5" d="M614.19,234.32s-.11-.58-.38-1.6a22.59,22.59,0,0,0-1.61-4.18,58.05,58.05,0,0,0-8.55-12c-1.91-2.18-3.77-4.24-5.34-6.21a43.57,43.57,0,0,1-3.81-5.5,26.55,26.55,0,0,1-1.93-4.08c-.17-.51-.3-.9-.38-1.17a1.43,1.43,0,0,1-.09-.42s.2.56.6,1.54a30.16,30.16,0,0,0,2,4,47.05,47.05,0,0,0,3.85,5.42c1.58,1.95,3.44,4,5.35,6.18a54.9,54.9,0,0,1,8.51,12.17,20.66,20.66,0,0,1,1.52,4.25c.11.53.19.93.22,1.21A2.31,2.31,0,0,1,614.19,234.32Z"/><path class="cls-5" d="M633.24,212.81a9.73,9.73,0,0,1-1,.56,21.48,21.48,0,0,0-2.59,1.71,29.36,29.36,0,0,0-3.4,3.1c-1.19,1.26-2.42,2.72-3.68,4.29-2.51,3.15-4.85,5.94-6.26,8.16-.71,1.1-1.23,2-1.57,2.69a7.22,7.22,0,0,1-.55,1,1,1,0,0,1,.09-.28c.08-.18.18-.45.34-.78a24.49,24.49,0,0,1,1.48-2.76,91,91,0,0,1,6.2-8.24c1.26-1.58,2.5-3,3.72-4.3a27.6,27.6,0,0,1,3.48-3.08,17.9,17.9,0,0,1,2.68-1.63c.33-.17.6-.27.78-.35S633.24,212.79,633.24,212.81Z"/><path class="cls-5" d="M633.61,219.79a15.45,15.45,0,0,1-2.11.3,28,28,0,0,0-5,1,14.86,14.86,0,0,0-4.48,2.35c-1,.8-1.52,1.46-1.57,1.42s.08-.19.31-.49a8.54,8.54,0,0,1,1.1-1.12,13.52,13.52,0,0,1,4.53-2.49,22,22,0,0,1,5.09-.9A10.56,10.56,0,0,1,633.61,219.79Z"/><path class="cls-5" d="M621.07,224.08c-.11-.06.84-1.51,1.57-3.47s.86-3.7,1-3.68a3.1,3.1,0,0,1,0,1.14,12.34,12.34,0,0,1-.62,2.66,13.23,13.23,0,0,1-1.22,2.45A3.53,3.53,0,0,1,621.07,224.08Z"/><path class="cls-5" d="M639.41,194.07a2,2,0,0,1-.34.18l-1,.45c-.43.18-1,.42-1.56.73s-1.29.63-2,1.06l-1.15.66c-.4.23-.8.5-1.22.76-.85.52-1.7,1.15-2.6,1.8a48.37,48.37,0,0,0-5.44,4.78,49.56,49.56,0,0,0-4.6,5.6c-.62.93-1.22,1.8-1.71,2.67-.24.43-.5.83-.72,1.24l-.61,1.17c-.41.74-.71,1.45-1,2.05s-.51,1.14-.69,1.58-.3.74-.41,1a1.35,1.35,0,0,1-.17.34,1.41,1.41,0,0,1,.1-.36c.1-.28.21-.62.36-1a15.77,15.77,0,0,1,.63-1.61c.27-.62.55-1.34,1-2.09l.59-1.19c.21-.41.47-.82.71-1.26.48-.87,1.08-1.76,1.7-2.7a43.06,43.06,0,0,1,10.11-10.46c.92-.64,1.78-1.27,2.64-1.78.42-.26.83-.53,1.23-.75l1.17-.64c.74-.43,1.44-.73,2.05-1s1.14-.52,1.59-.69l1-.39Z"/><path class="cls-5" d="M624.33,204.17a2.46,2.46,0,0,1,.83-1.24,5.31,5.31,0,0,1,3.34-1.28,9,9,0,0,1,3.52.69,5.18,5.18,0,0,1,1.33.64,7.83,7.83,0,0,1-1.41-.41,10.64,10.64,0,0,0-3.43-.57,5.43,5.43,0,0,0-3.19,1.12A10.36,10.36,0,0,0,624.33,204.17Z"/><path class="cls-5" d="M622.08,206.49a12.5,12.5,0,0,0,.95-3.08,13,13,0,0,0-.21-3.22,2.22,2.22,0,0,1,.39.89,6.62,6.62,0,0,1,.17,2.37,6.4,6.4,0,0,1-.71,2.26C622.37,206.24,622.11,206.52,622.08,206.49Z"/><path class="cls-6" d="M597.53,237.78c.52,9.22,3.3,18.59,7.57,28.07h18.58c4.08-9.38,6.66-18.75,7.12-28.07Z"/><path class="cls-7" d="M627.79,252.69c0,.1-6.12.18-13.66.18s-13.66-.08-13.66-.18,6.11-.17,13.66-.17S627.79,252.6,627.79,252.69Z"/><path class="cls-7" d="M627.38,256c0,.1-5.74.18-12.81.18s-12.81-.08-12.81-.18,5.73-.17,12.81-.17S627.38,255.94,627.38,256Z"/><path class="cls-5" d="M690.8,269.85c0,.08-82,.15-183.14.15s-183.15-.07-183.15-.15,82-.15,183.15-.15S690.8,269.77,690.8,269.85Z"/><rect class="cls-5" x="1283.18" y="53" width="199.25" height="173.23" rx="5.36"/><path class="cls-6" d="M1482.42,64.3c0,.07-44.6.12-99.62.12s-99.62,0-99.62-.12,44.59-.12,99.62-.12S1482.42,64.24,1482.42,64.3Z"/><ellipse class="cls-6" cx="1294.14" cy="58.48" rx="1.2" ry="1.23"/><ellipse class="cls-6" cx="1298.33" cy="58.48" rx="1.2" ry="1.23"/><path class="cls-6" d="M1303.73,58.48a1.21,1.21,0,1,1-1.21-1.23A1.22,1.22,0,0,1,1303.73,58.48Z"/><path class="cls-6" d="M1433,139.35c-2.75-.36-5.56.61-8.26,0-6-1.44-9.28-10.21-15.35-11.29-4.3-.77-8.25,2.63-11.6,5.86s-7.23,6.69-11.55,6.05c-6.93-1-10.49-11.91-17.45-12.63-1.83-.19-3.66.38-5.49.3-5.86-.24-10-6.78-12.43-13-1.2-3-2.25-6.23-4-8.9s-4.33-4.84-7.21-4.88c-2.49,0-4.85,1.53-6.55,3.66a28.47,28.47,0,0,0-3.9,7.39,374.72,374.72,0,0,0-12.52,37.78l122.92-.09C1438.88,145.54,1435.78,139.72,1433,139.35Z"/><path class="cls-4" d="M1308.22,209.75a.79.79,0,1,1-.79-.79A.79.79,0,0,1,1308.22,209.75Z"/><path class="cls-4" d="M1315.81,209.86a31,31,0,0,1-6.09,0,31,31,0,0,1,6.09,0Z"/><path class="cls-6" d="M1326.68,209.75a.79.79,0,1,1-.79-.79A.79.79,0,0,1,1326.68,209.75Z"/><path class="cls-6" d="M1334.27,209.86a31,31,0,0,1-6.09,0,31,31,0,0,1,6.09,0Z"/><circle class="cls-4" cx="1306.91" cy="94.2" r="1.02"/><path class="cls-4" d="M1317.75,94.34a51.82,51.82,0,0,1-7.88,0,51.82,51.82,0,0,1,7.88,0Z"/><circle class="cls-6" cx="1327.69" cy="94.2" r="1.02"/><path class="cls-6" d="M1338.53,94.34a51.82,51.82,0,0,1-7.88,0,51.82,51.82,0,0,1,7.88,0Z"/><path class="cls-2" d="M1308.36,85.54h-1.65l-.32.76h-.84l1.59-3.56h.81l1.6,3.56h-.87Zm-.25-.63-.57-1.36-.57,1.36Z"/><path class="cls-2" d="M1312.66,84.73V86.3h-.79V84.85c0-.44-.21-.64-.56-.64s-.66.23-.66.74V86.3h-.79V83.56h.76v.32a1.2,1.2,0,0,1,.91-.36A1.07,1.07,0,0,1,1312.66,84.73Z"/><path class="cls-2" d="M1315.8,84.74V86.3h-.74V86a.91.91,0,0,1-.84.38c-.64,0-1-.36-1-.83s.34-.82,1.18-.82h.63c0-.34-.21-.54-.63-.54a1.27,1.27,0,0,0-.79.26l-.29-.56a2.13,2.13,0,0,1,1.18-.33C1315.32,83.52,1315.8,83.91,1315.8,84.74Zm-.79.69v-.28h-.55c-.37,0-.49.14-.49.32s.17.34.45.34A.6.6,0,0,0,1315,85.43Z"/><path class="cls-2" d="M1316.52,82.52h.79V86.3h-.79Z"/><path class="cls-2" d="M1320.77,83.56l-1.24,2.91a1.13,1.13,0,0,1-1.13.86,1.23,1.23,0,0,1-.77-.25l.29-.57a.69.69,0,0,0,.45.18c.22,0,.34-.1.45-.34v0l-1.19-2.76h.82l.77,1.86.77-1.86Z"/><path class="cls-2" d="M1322.94,86.17a1.23,1.23,0,0,1-.65.17.9.9,0,0,1-1-1V84.23h-.43v-.61h.43V83h.79v.67h.68v.61h-.68v1.12a.32.32,0,0,0,.34.36.55.55,0,0,0,.32-.1Z"/><path class="cls-2" d="M1323.29,82.74a.46.46,0,0,1,.49-.45.44.44,0,0,1,.49.43.49.49,0,0,1-1,0Zm.09.82h.8V86.3h-.8Z"/><path class="cls-2" d="M1324.71,84.93a1.42,1.42,0,0,1,1.53-1.41,1.27,1.27,0,0,1,1.23.7l-.62.33a.73.73,0,1,0-.62,1.14.68.68,0,0,0,.62-.38l.62.34a1.28,1.28,0,0,1-1.23.69A1.42,1.42,0,0,1,1324.71,84.93Z"/><path class="cls-2" d="M1327.66,86.05l.26-.58a1.89,1.89,0,0,0,1,.27c.36,0,.5-.1.5-.25,0-.45-1.66,0-1.66-1.08,0-.52.47-.89,1.27-.89a2.3,2.3,0,0,1,1.06.24l-.27.56a1.6,1.6,0,0,0-.79-.2c-.35,0-.51.11-.51.26,0,.46,1.66,0,1.66,1.09,0,.51-.48.87-1.3.87A2.41,2.41,0,0,1,1327.66,86.05Z"/><path class="cls-6" d="M1307.38,106.52v.42h-1.68v-.33l.86-.81c.19-.19.23-.3.23-.41s-.12-.28-.36-.28a.54.54,0,0,0-.46.22l-.37-.24a1,1,0,0,1,.88-.41c.5,0,.83.25.83.66a.88.88,0,0,1-.38.7l-.51.48Z"/><path class="cls-6" d="M1307.58,105.83c0-.73.41-1.15,1-1.15s1,.42,1,1.15-.4,1.15-1,1.15S1307.58,106.56,1307.58,105.83Zm1.39,0c0-.51-.18-.72-.43-.72s-.43.21-.43.72.17.71.43.71S1309,106.33,1309,105.83Z"/><path class="cls-6" d="M1310.58,106.27l-.24.23v.44h-.5v-2.36h.5v1.34l.72-.69h.59l-.71.73.78,1h-.6Z"/><path class="cls-6" d="M1306.58,115.36v2.22h-.52v-1.81h-.44v-.41Z"/><path class="cls-6" d="M1308.64,116.88c0,.39-.29.74-.92.74a1.57,1.57,0,0,1-.85-.24l.2-.4a1.07,1.07,0,0,0,.64.21c.25,0,.41-.11.41-.29s-.11-.29-.52-.29H1307l.11-1.25h1.36v.41h-.93l0,.42h.18C1308.38,116.19,1308.64,116.49,1308.64,116.88Z"/><path class="cls-6" d="M1309.69,116.91l-.24.23v.44H1309v-2.36h.49v1.34l.72-.69h.59l-.71.72.78,1h-.6Z"/><path class="cls-6" d="M1306.58,126v2.22h-.52v-1.81h-.44V126Z"/><path class="cls-6" d="M1307,127.11c0-.74.41-1.15,1-1.15s1,.41,1,1.15-.41,1.15-1,1.15S1307,127.84,1307,127.11Zm1.39,0c0-.51-.18-.72-.44-.72s-.43.21-.43.72.18.71.43.71S1308.35,127.61,1308.35,127.11Z"/><path class="cls-6" d="M1310,127.55l-.24.23v.44h-.5v-2.36h.5v1.34l.72-.69h.59l-.71.72.77,1h-.6Z"/><path class="cls-6" d="M1307.4,138.16c0,.39-.29.73-.93.73a1.53,1.53,0,0,1-.84-.23l.2-.4a1.05,1.05,0,0,0,.63.2c.26,0,.42-.1.42-.29s-.12-.28-.52-.28h-.57l.12-1.25h1.35v.41h-.93l0,.42h.18C1307.14,137.47,1307.4,137.76,1307.4,138.16Z"/><path class="cls-6" d="M1308.44,138.19l-.23.23v.44h-.5V136.5h.5v1.33l.72-.68h.59l-.71.72.77,1h-.6Z"/><path class="cls-6" d="M1305.72,148.39c0-.74.41-1.15,1-1.15s.95.41.95,1.15-.4,1.14-.95,1.14S1305.72,149.12,1305.72,148.39Zm1.39,0c0-.51-.18-.72-.44-.72s-.43.21-.43.72.18.71.43.71S1307.11,148.89,1307.11,148.39Z"/><path class="cls-6" d="M1308.71,148.83l-.24.23v.44H1308v-2.36h.49v1.33l.73-.68h.59l-.71.72.77,1h-.6Z"/><path class="cls-6" d="M1463.75,106.25c0,.09-34,.15-76,.15s-76-.06-76-.15,34-.14,76-.14S1463.75,106.17,1463.75,106.25Z"/><path class="cls-6" d="M1463.75,117.11c0,.08-34,.14-76,.14s-76-.06-76-.14,34-.15,76-.15S1463.75,117,1463.75,117.11Z"/><path class="cls-6" d="M1463.75,128c0,.08-34,.15-76,.15s-76-.07-76-.15,34-.15,76-.15S1463.75,127.87,1463.75,128Z"/><path class="cls-6" d="M1463.75,138.81c0,.08-34,.15-76,.15s-76-.07-76-.15,34-.15,76-.15S1463.75,138.73,1463.75,138.81Z"/><path class="cls-6" d="M1463.75,149.66c0,.08-34,.15-76,.15s-76-.07-76-.15,34-.15,76-.15S1463.75,149.58,1463.75,149.66Z"/><path class="cls-4" d="M1312.58,149.66c7.77-1,14.51-4.16,20.36-7.47s10.86-7.11,16.36-10.63c2.15-1.38,4.74-2.8,7.85-2.75a10.15,10.15,0,0,1,7.23,3.31c1.54,1.68,2.48,3.58,4.4,5.11a7.17,7.17,0,0,0,4.48,1.63c2.64,0,4.68-1.69,7.32-1.67,3.41,0,5.05,2.72,8.21,3.5a11.89,11.89,0,0,0,7.68-1.2c2.17-1.06,4-2.41,6.46-3.19,3.89-1.23,8.72-.79,12.63.42s6.22,4.06,9.28,6c4,2.54,8.94,6.28,13.17,7Z"/><path class="cls-6" d="M1319,200.12A14.06,14.06,0,1,1,1333,186.06,14.08,14.08,0,0,1,1319,200.12Zm0-25.27a11.21,11.21,0,1,0,11.2,11.21A11.22,11.22,0,0,0,1319,174.85Z"/><path class="cls-4" d="M1318.93,200.69a15.1,15.1,0,0,1-4.42-.67,2.29,2.29,0,0,1,1.36-4.37A10.35,10.35,0,0,0,1328.1,181a10.24,10.24,0,0,0-6.08-5.07,2.28,2.28,0,1,1,1.35-4.36,14.91,14.91,0,0,1,9.82,18.67A15,15,0,0,1,1318.93,200.69Z"/><path class="cls-2" d="M1316.2,187.53h-.76v1h-1.06v-1h-2.52v-.73l2.21-3h1.13l-2,2.82h1.26v-.88h1v.88h.76Z"/><path class="cls-2" d="M1320.05,187c0,.83-.61,1.56-2,1.56a3.27,3.27,0,0,1-1.79-.5l.43-.84a2.27,2.27,0,0,0,1.33.43c.55,0,.88-.23.88-.61s-.24-.61-1.09-.61h-1.2l.24-2.64h2.86v.87h-2l-.08.89h.38C1319.5,185.59,1320.05,186.21,1320.05,187Z"/><path class="cls-2" d="M1320.34,185.07a1.17,1.17,0,1,1,1.17,1.29A1.16,1.16,0,0,1,1320.34,185.07Zm1.66,0c0-.5-.2-.74-.49-.74s-.49.24-.49.74.2.74.49.74S1322,185.57,1322,185.07Zm2.3-1.24h.8l-3.2,4.69h-.8Zm-.77,3.45a1.17,1.17,0,1,1,1.16,1.29A1.16,1.16,0,0,1,1323.53,187.28Zm1.65,0c0-.5-.2-.75-.49-.75s-.49.25-.49.75.2.74.49.74S1325.18,187.77,1325.18,187.28Z"/><path class="cls-6" d="M1361.82,173.73v.32h-1.3v-.26l.67-.62c.15-.14.18-.23.18-.32s-.1-.21-.28-.21a.41.41,0,0,0-.35.17l-.29-.18a.78.78,0,0,1,.68-.32c.38,0,.63.19.63.5a.69.69,0,0,1-.28.55l-.4.37Z"/><path class="cls-6" d="M1362,173.19c0-.56.31-.88.74-.88s.73.32.73.88-.31.89-.73.89S1362,173.76,1362,173.19Zm1.07,0c0-.39-.14-.55-.33-.55s-.34.16-.34.55.14.56.34.56S1363.05,173.58,1363.05,173.19Z"/><path class="cls-6" d="M1364.29,173.54l-.18.18v.33h-.38v-1.82h.38v1l.56-.53h.45l-.55.56.6.76h-.46Z"/><path class="cls-6" d="M1361.2,180.56v1.71h-.4v-1.39h-.34v-.32Z"/><path class="cls-6" d="M1362.8,181.73c0,.31-.23.57-.72.57a1.18,1.18,0,0,1-.65-.18l.16-.31a.81.81,0,0,0,.48.16c.2,0,.33-.08.33-.22s-.09-.23-.4-.23h-.44l.09-1h1v.32H1362l0,.32h.14C1362.6,181.2,1362.8,181.43,1362.8,181.73Z"/><path class="cls-6" d="M1363.61,181.76l-.19.18v.33H1363v-1.82h.38v1l.56-.53h.46l-.55.56.6.76H1364Z"/><path class="cls-6" d="M1361.2,188.78v1.71h-.4V189.1h-.34v-.32Z"/><path class="cls-6" d="M1361.5,189.63c0-.56.31-.88.74-.88s.73.32.73.88-.31.89-.73.89S1361.5,190.2,1361.5,189.63Zm1.07,0c0-.38-.14-.55-.33-.55s-.34.17-.34.55.14.56.34.56S1362.57,190,1362.57,189.63Z"/><path class="cls-6" d="M1363.81,190l-.18.18v.33h-.38v-1.82h.38v1l.56-.53h.45l-.55.56.6.76h-.46Z"/><path class="cls-6" d="M1361.84,198.17c0,.31-.23.57-.72.57a1.26,1.26,0,0,1-.65-.18l.16-.31a.79.79,0,0,0,.48.16c.2,0,.32-.09.32-.23s-.08-.22-.4-.22h-.43l.08-1h1v.31H1361l0,.33h.14C1361.63,197.64,1361.84,197.87,1361.84,198.17Z"/><path class="cls-6" d="M1362.64,198.19l-.18.19v.33h-.38v-1.82h.38v1l.56-.53h.46l-.55.56.59.76h-.46Z"/><path class="cls-6" d="M1360.54,206.07c0-.56.31-.88.73-.88s.74.32.74.88-.31.89-.74.89S1360.54,206.64,1360.54,206.07Zm1.07,0c0-.38-.14-.55-.34-.55s-.33.17-.33.55.14.56.33.56S1361.61,206.46,1361.61,206.07Z"/><path class="cls-6" d="M1362.85,206.42l-.18.18v.33h-.39v-1.82h.39v1l.56-.53h.45l-.55.56.6.76h-.46Z"/><path class="cls-6" d="M1464.57,173.52c0,.08-22.24.15-49.66.15s-49.66-.07-49.66-.15,22.23-.15,49.66-.15S1464.57,173.44,1464.57,173.52Z"/><path class="cls-6" d="M1464.57,181.91c0,.08-22.24.15-49.66.15s-49.66-.07-49.66-.15,22.23-.15,49.66-.15S1464.57,181.82,1464.57,181.91Z"/><path class="cls-6" d="M1464.57,190.29c0,.08-22.24.15-49.66.15s-49.66-.07-49.66-.15,22.23-.15,49.66-.15S1464.57,190.21,1464.57,190.29Z"/><path class="cls-6" d="M1464.57,198.67c0,.09-22.24.15-49.66.15s-49.66-.06-49.66-.15,22.23-.14,49.66-.14S1464.57,198.59,1464.57,198.67Z"/><path class="cls-6" d="M1464.57,207.06c0,.08-22.24.15-49.66.15s-49.66-.07-49.66-.15,22.23-.15,49.66-.15S1464.57,207,1464.57,207.06Z"/><path class="cls-4" d="M1369.55,202.89h0a.75.75,0,0,1-.75-.75V179a.74.74,0,0,1,.75-.75h0a.75.75,0,0,1,.75.75v23.13A.76.76,0,0,1,1369.55,202.89Z"/><path class="cls-2" d="M1374.16,199.61h0a.76.76,0,0,1-.76-.75V186.8a.76.76,0,0,1,.76-.75h0a.76.76,0,0,1,.75.75v12.06A.76.76,0,0,1,1374.16,199.61Z"/><path class="cls-2" d="M1383.92,199.61h0a.76.76,0,0,1-.76-.75V181.22a.75.75,0,0,1,.76-.75h0a.75.75,0,0,1,.75.75v17.64A.76.76,0,0,1,1383.92,199.61Z"/><path class="cls-2" d="M1393.81,202h0a.75.75,0,0,1-.76-.75V183.57a.76.76,0,0,1,.76-.75h0a.76.76,0,0,1,.75.75v17.64A.75.75,0,0,1,1393.81,202Z"/><path class="cls-2" d="M1403.83,202h0a.75.75,0,0,1-.76-.75V183.57a.76.76,0,0,1,.76-.75h0a.76.76,0,0,1,.75.75v17.64A.75.75,0,0,1,1403.83,202Z"/><path class="cls-2" d="M1413.19,204.92h0a.76.76,0,0,1-.76-.76V181.51a.76.76,0,0,1,.76-.76h0a.76.76,0,0,1,.75.76v22.65A.76.76,0,0,1,1413.19,204.92Z"/><path class="cls-4" d="M1437.33,201.21h0a.75.75,0,0,1-.76-.75V177.8a.76.76,0,0,1,.76-.75h0a.76.76,0,0,1,.75.75v22.66A.75.75,0,0,1,1437.33,201.21Z"/><path class="cls-2" d="M1442.8,203.17h0a.76.76,0,0,1-.76-.75V179.76a.76.76,0,0,1,.76-.76h0a.76.76,0,0,1,.75.76v22.66A.76.76,0,0,1,1442.8,203.17Z"/><path class="cls-4" d="M1427.52,201.21h0a.74.74,0,0,1-.75-.75V177.8a.75.75,0,0,1,.75-.75h0a.75.75,0,0,1,.75.75v22.66A.74.74,0,0,1,1427.52,201.21Z"/><path class="cls-4" d="M1388.82,197.72h0a.75.75,0,0,1-.75-.76V174.45a.75.75,0,0,1,.75-.76h0a.75.75,0,0,1,.75.76V197A.75.75,0,0,1,1388.82,197.72Z"/><path class="cls-4" d="M1379.22,202.12h0a.75.75,0,0,1-.75-.75V189.32a.76.76,0,0,1,.75-.76h0a.76.76,0,0,1,.76.76v12.05A.75.75,0,0,1,1379.22,202.12Z"/><path class="cls-4" d="M1398.71,199.3h0a.76.76,0,0,1-.76-.76v-9.38a.76.76,0,0,1,.76-.75h0a.76.76,0,0,1,.75.75v9.38A.76.76,0,0,1,1398.71,199.3Z"/><path class="cls-2" d="M1432,196.51h0a.75.75,0,0,1-.75-.76v-9.38a.75.75,0,0,1,.75-.75h0a.75.75,0,0,1,.75.75v9.38A.75.75,0,0,1,1432,196.51Z"/><path class="cls-4" d="M1447.79,199.18h0a.76.76,0,0,1-.75-.76V189a.76.76,0,0,1,.75-.75h0a.76.76,0,0,1,.76.75v9.38A.76.76,0,0,1,1447.79,199.18Z"/><path class="cls-2" d="M1452.32,202h0a.76.76,0,0,1-.75-.75v-9.38a.76.76,0,0,1,.75-.76h0a.75.75,0,0,1,.75.76v9.38A.75.75,0,0,1,1452.32,202Z"/><path class="cls-4" d="M1457.51,192.24h0a.75.75,0,0,1-.75-.76V182.1a.75.75,0,0,1,.75-.75h0a.75.75,0,0,1,.75.75v9.38A.75.75,0,0,1,1457.51,192.24Z"/><path class="cls-2" d="M1423.08,199.29h0a.75.75,0,0,1-.75-.75v-9.38a.75.75,0,0,1,.75-.75h0a.75.75,0,0,1,.76.75v9.38A.75.75,0,0,1,1423.08,199.29Z"/><path class="cls-4" d="M1408,197.13h0a.76.76,0,0,1-.76-.76V187a.76.76,0,0,1,.76-.75h0a.76.76,0,0,1,.75.75v9.38A.76.76,0,0,1,1408,197.13Z"/><path class="cls-4" d="M1418,199.43h0a.76.76,0,0,1-.76-.75V183.45a.76.76,0,0,1,.76-.75h0a.76.76,0,0,1,.75.75v15.23A.76.76,0,0,1,1418,199.43Z"/><path class="cls-6" d="M1470.38,217.52l.22,0a4.38,4.38,0,0,0,.66-.08,5.09,5.09,0,0,0,3.55-2.58,5.13,5.13,0,0,0,.59-2.21v-5.82c0-8.77,0-21.44-.05-37.1v-1.48a8,8,0,0,0-.08-1.47,5,5,0,0,0-4-4,8,8,0,0,0-1.56-.09H1454.8l-29.41,0H1358a4.9,4.9,0,0,0-4.77,3.69,8.13,8.13,0,0,0-.17,2.16v42.58a19,19,0,0,0,0,2,5,5,0,0,0,3.7,4.08,7.83,7.83,0,0,0,1.94.15h5.88l55,0,37.1.05,10.09,0h2.62l.9,0h-.9l-2.62,0-10.09,0-37.1,0-55,0h-5.88a8,8,0,0,1-2-.16,5.24,5.24,0,0,1-3.92-4.31,17.68,17.68,0,0,1-.06-2.05V168.56a8.16,8.16,0,0,1,.17-2.24,5.21,5.21,0,0,1,5.06-3.91h111.71a8.59,8.59,0,0,1,1.6.09,5.18,5.18,0,0,1,4.16,4.19,7.69,7.69,0,0,1,.08,1.51v1.48c0,15.66,0,28.33,0,37.1,0,2.19,0,4.13,0,5.82a5.07,5.07,0,0,1-4.22,4.82,4,4,0,0,1-.67.06Z"/><path class="cls-6" d="M1343.84,217.52s.19,0,.55-.06a4,4,0,0,0,3.11-2.52,4.21,4.21,0,0,0,.26-1.62c0-.6,0-1.24,0-1.91,0-5.4,0-13.19,0-22.83,0-4.82,0-10.09,0-15.76V168.5c0-.73,0-1.48,0-2.21a3.76,3.76,0,0,0-.73-2,3.71,3.71,0,0,0-1.72-1.33,3.6,3.6,0,0,0-1.08-.24c-.37,0-.77,0-1.15,0h-46.17a3.81,3.81,0,0,0-3.75,3.1,5.76,5.76,0,0,0-.07,1.32v4.05q0,5.37,0,10.58c0,6.93,0,13.62,0,20v11.55a4,4,0,0,0,.46,2.08,3.86,3.86,0,0,0,3.44,2l15.77,0,22.82.05,6.21,0h1.61l.55,0h-.55l-1.61,0-6.21,0-22.82,0-15.77,0a4.11,4.11,0,0,1-3.66-2.13,4.29,4.29,0,0,1-.5-2.2v-2.24c0-3,0-6.13,0-9.31,0-6.38,0-13.07,0-20V167.13a7.22,7.22,0,0,1,.07-1.38,4.13,4.13,0,0,1,4-3.34H1343c.39,0,.77,0,1.17,0a4,4,0,0,1,3,1.68,4,4,0,0,1,.77,2.16c0,.76,0,1.48,0,2.22v4.32c0,5.67,0,10.94,0,15.76,0,9.64,0,17.43-.05,22.83v1.91a4.37,4.37,0,0,1-.27,1.65,3.92,3.92,0,0,1-1.68,2,3.72,3.72,0,0,1-1.52.53A3.77,3.77,0,0,1,1343.84,217.52Z"/><path class="cls-6" d="M1467.17,72.42h.34a6.84,6.84,0,0,1,1,.1,7.92,7.92,0,0,1,3.61,1.57,8.36,8.36,0,0,1,1.95,2.18,8.26,8.26,0,0,1,1.14,3.33c0,.64,0,1.3,0,2v2.13c0,1.47,0,3,0,4.69,0,13.26,0,32.44,0,56.14v4.5c0,.76,0,1.52,0,2.3a8.24,8.24,0,0,1-3.44,6,8.08,8.08,0,0,1-4.56,1.48h-20.17l-44.5,0h-102a8.21,8.21,0,0,1-6.11-2.73,8.1,8.1,0,0,1-1.7-2.94c-.09-.27-.15-.55-.23-.82s-.08-.57-.13-.85l0-.85V136.52q0-13.22,0-26V82.32a24.19,24.19,0,0,1,.1-3.06,8.17,8.17,0,0,1,3-5.2,8,8,0,0,1,2.68-1.42,9.25,9.25,0,0,1,3-.35h5.91l83.28,0,56.14.05,15.26,0,4,0h1.35l-1.35,0h-4l-15.26,0-56.14,0-83.28,0h-5.91a8.91,8.91,0,0,0-2.91.35,8,8,0,0,0-2.59,1.36,7.93,7.93,0,0,0-2.91,5,25.12,25.12,0,0,0-.1,3v68.34l0,.82c0,.27.07.54.13.81s.12.54.21.8a7.91,7.91,0,0,0,7.53,5.46h102l44.5,0h20.17a8.3,8.3,0,0,0,2.33-.39,8,8,0,0,0,4.93-4.64,8.08,8.08,0,0,0,.52-2.21c.06-.75,0-1.52,0-2.28v-4.5c0-23.7,0-42.88,0-56.14,0-1.66,0-3.22,0-4.69,0-.74,0-1.45,0-2.13s0-1.35,0-2a8,8,0,0,0-6.61-7.06,7.17,7.17,0,0,0-1-.11Z"/><path class="cls-6" d="M1194.28,237.21l-3.17,12.57-5.37,9.22a1.33,1.33,0,0,0,.56,1.86h0a1.32,1.32,0,0,0,1.21,0l12.15-7.55,3.52-12.56Z"/><path class="cls-5" d="M1187.51,260.84l12.15-7.55.52-1.86-14,9.38A1.36,1.36,0,0,0,1187.51,260.84Z"/><path class="cls-6" d="M1233.59,240l-.65,9.83s9.79,3.24,9.84,5.07l-19.11.14.39-15.36Z"/><path class="cls-5" d="M1223.67,255l0-1.55,18.46.51a1.34,1.34,0,0,1,.71,1Z"/><polygon class="cls-5" points="1232.76 155.44 1202.77 153.89 1190.39 248.06 1202.25 249.57 1217.87 171.7 1222.42 246.56 1222.57 249.28 1234.96 249.57 1232.76 155.44"/><path class="cls-6" d="M1230.25,247.33c-.07,0-1.19-17.08-2.49-38.15s-2.31-38.16-2.24-38.16,1.19,17.07,2.49,38.15S1230.32,247.33,1230.25,247.33Z"/><path class="cls-6" d="M1209.69,170.35c.06,0-2.86,17.2-6.53,38.39s-6.7,38.37-6.77,38.36,2.85-17.2,6.52-38.4S1209.62,170.33,1209.69,170.35Z"/><path class="cls-8" d="M1177.91,120.65l-5.45-8c-1.08-1.8-1.41-2.62-1.06-2.8s.28-.17,2.72,2.82c0,0-3.44-4.3-2-4a6,6,0,0,1,1.53,1.36c-.83-1.15-1-1.83-.7-2.07.46-.41,2.61,2,3.59,3.2a29.82,29.82,0,0,1-2.52-3.37c-.3-.72.6-.44,1.27,0s4.78,4,6,4.93a.9.9,0,0,0,1.37-.12,5.7,5.7,0,0,1,3.51-3,.68.68,0,0,1,.34,1.25,8.28,8.28,0,0,0-1.39,1.78,5.06,5.06,0,0,0-.7,1.66c-.09.39-.17.75-.23,1.08l2.21,3.94-7.25,4.62Z"/><path class="cls-9" d="M1175.27,114.46a10.24,10.24,0,0,1-1.76-2,9.64,9.64,0,0,1-1.48-2.19,20,20,0,0,1,3.24,4.17Z"/><path class="cls-9" d="M1177,113.75a10.87,10.87,0,0,1-2-2,12.26,12.26,0,0,1-1.73-2.23,11.27,11.27,0,0,1,2,2A11.73,11.73,0,0,1,1177,113.75Z"/><path class="cls-9" d="M1178.36,113.1a20.22,20.22,0,0,1-3.58-4,10.3,10.3,0,0,1,1.92,1.86A10.05,10.05,0,0,1,1178.36,113.1Z"/><path class="cls-9" d="M1178.36,117.34a1.1,1.1,0,0,1,.63-.29,2,2,0,0,1,1.66.48l-.2.12a3.87,3.87,0,0,1-.12-.85,4.38,4.38,0,0,1,.51-2.23,2,2,0,0,1,.59-.75s-.19.31-.43.83a4.79,4.79,0,0,0-.42,2.14,4.06,4.06,0,0,0,.11.8l.08.4-.29-.29a1.91,1.91,0,0,0-1.47-.49C1178.6,117.25,1178.38,117.38,1178.36,117.34Z"/><path class="cls-8" d="M1208.77,83.85l1.93,22.32,5.24,3.1,5.84-2.83c.07-1.31.07-7.52.07-7.52s4.66-.72,4.71-5.37c0-2.26-.29-6.93-.63-11.13a8.61,8.61,0,0,0-9.08-7.91h0A8.62,8.62,0,0,0,1208.77,83.85Z"/><path class="cls-9" d="M1221.86,98.86a10.77,10.77,0,0,1-6.06-1.73s1.43,3.35,6.07,2.93Z"/><path class="cls-5" d="M1224.29,85.77a.67.67,0,0,1-.64.67.64.64,0,0,1-.69-.6.67.67,0,0,1,.64-.67A.64.64,0,0,1,1224.29,85.77Z"/><path class="cls-5" d="M1224.93,84.76c-.08.09-.58-.29-1.3-.28s-1.23.36-1.31.27,0-.2.27-.36a1.83,1.83,0,0,1,1.06-.33,1.7,1.7,0,0,1,1,.34C1224.9,84.56,1225,84.72,1224.93,84.76Z"/><path class="cls-5" d="M1217.3,85.77a.67.67,0,0,1-.64.67.64.64,0,0,1-.69-.6.67.67,0,0,1,.64-.67A.64.64,0,0,1,1217.3,85.77Z"/><path class="cls-5" d="M1217.91,84.89c-.08.09-.59-.28-1.3-.28s-1.24.36-1.32.27,0-.19.28-.36a1.83,1.83,0,0,1,2.08,0C1217.87,84.7,1218,84.85,1217.91,84.89Z"/><path class="cls-5" d="M1220.5,90.19a5,5,0,0,1,1.16-.2c.19,0,.36-.06.39-.18a1,1,0,0,0-.12-.55l-.54-1.39a23.34,23.34,0,0,1-1.21-3.63,24,24,0,0,1,1.5,3.53c.18.49.35,1,.51,1.4a1,1,0,0,1,.1.71.45.45,0,0,1-.3.27.91.91,0,0,1-.31,0A4.07,4.07,0,0,1,1220.5,90.19Z"/><path class="cls-5" d="M1218.4,90.69c.11,0,.12.77.78,1.32s1.49.46,1.5.57-.19.15-.54.16a1.93,1.93,0,0,1-1.25-.43,1.67,1.67,0,0,1-.6-1.11C1218.26,90.88,1218.35,90.68,1218.4,90.69Z"/><path class="cls-5" d="M1218.09,82.09c-.07.2-.78.1-1.62.21s-1.52.33-1.63.15.07-.27.34-.45a2.77,2.77,0,0,1,1.21-.43,2.86,2.86,0,0,1,1.27.15C1218,81.85,1218.12,82,1218.09,82.09Z"/><path class="cls-5" d="M1224.67,82.69c-.12.16-.62,0-1.21,0s-1.09.11-1.21-.06,0-.25.25-.4a1.74,1.74,0,0,1,2,.06C1224.66,82.45,1224.73,82.61,1224.67,82.69Z"/><path class="cls-5" d="M1205.49,77.89a1.76,1.76,0,0,1,1.45-1.85,2.15,2.15,0,0,1,3.08-2.7,2.85,2.85,0,0,1,2.14-2,2.88,2.88,0,0,1,2.77,1,3,3,0,0,1,5,.79,3.33,3.33,0,0,1,3.14-.58,3.24,3.24,0,0,1,1.65,1.27,4.35,4.35,0,0,1,1.59-.26,1.94,1.94,0,0,1,1.68,1.06,1.27,1.27,0,0,1-.48,1.5,1.54,1.54,0,1,1,.7,3,.89.89,0,0,1,.48.81,1.65,1.65,0,0,1-1.09,1.2,5.91,5.91,0,0,1-4.24-.06c-1.38-.46-2.65-1.18-4-1.68s-3.64-1.39-5-.9a2,2,0,0,0-.54.29,3.57,3.57,0,0,0-1.35,2.35l0,.1c-.18,1.32-.15,2.67-.34,4a6.09,6.09,0,0,1-1.63,3.58c-.41.38-1.12.64-1.45.2a1.17,1.17,0,0,1-.17-.61c-.18-2.31-.68-4.44-.94-6.7a6.76,6.76,0,0,0-1.27-1.53A3.61,3.61,0,0,1,1205.49,77.89Z"/><path class="cls-6" d="M1219.35,75.55s.1-.21.07-.62a2.35,2.35,0,0,0-.75-1.52,2.44,2.44,0,0,0-2.44-.49,1.93,1.93,0,0,0-1.15,1,1.33,1.33,0,0,0,0,.86,1,1,0,0,0,.6.67,1,1,0,0,0,.9-.1.88.88,0,0,0,.33-.82,1.12,1.12,0,0,0-.38-.75,1.78,1.78,0,0,0-.67-.37,2.83,2.83,0,0,0-2.48.41,1.6,1.6,0,0,0-.6.79,1.31,1.31,0,0,0,0,.75c.11.41.34.53.34.52a1.46,1.46,0,0,1-.23-.55,1.27,1.27,0,0,1,.08-.67,1.7,1.7,0,0,1,.57-.68,2.67,2.67,0,0,1,2.27-.31,1.11,1.11,0,0,1,.86.88.63.63,0,0,1-.22.56.7.7,0,0,1-.63.06.87.87,0,0,1-.4-1.14,1.59,1.59,0,0,1,1-.88,2.24,2.24,0,0,1,2.21.38,2.34,2.34,0,0,1,.77,1.39C1219.36,75.33,1219.33,75.55,1219.35,75.55Z"/><path class="cls-6" d="M1213.7,72.59a1,1,0,0,0-.42-.08,4.31,4.31,0,0,0-1.17,0,2.71,2.71,0,0,0-1.56.79,1.74,1.74,0,0,0-.25,2.11,1.41,1.41,0,0,0,.25.29l.15-.25a1.23,1.23,0,0,0-1.11.15,1.39,1.39,0,0,0-.59.83,2,2,0,0,0,.36,1.61,3.11,3.11,0,0,0,.8.75c.21.14.34.2.35.18a2.33,2.33,0,0,0-.28-.27,3.42,3.42,0,0,1-.7-.77,1.85,1.85,0,0,1-.27-1.43,1.11,1.11,0,0,1,.49-.66.93.93,0,0,1,.84-.12l.77.31-.62-.56a.82.82,0,0,1-.19-.22,1.37,1.37,0,0,1-.19-.94,1.5,1.5,0,0,1,.39-.82,2.55,2.55,0,0,1,1.4-.78C1213.08,72.56,1213.7,72.65,1213.7,72.59Z"/><path class="cls-6" d="M1207,77.51s-.12.15-.12.44a1.61,1.61,0,0,0,.4,1,1.66,1.66,0,0,0,1,.51c.28,0,.45,0,.45-.07a2.93,2.93,0,0,1-1.22-.64A2.89,2.89,0,0,1,1207,77.51Z"/><path class="cls-6" d="M1226.84,75.08a1.4,1.4,0,0,0-.44-.35,2.87,2.87,0,0,0-1.48-.38,3,3,0,0,0-2.11.85,1.8,1.8,0,0,0-.55,1.28,1.07,1.07,0,0,0,1.1,1,.79.79,0,0,0,.66-.5,1.17,1.17,0,0,0,0-.78,1.53,1.53,0,0,0-1-1,1.93,1.93,0,0,0-1.26,0,2.7,2.7,0,0,0-.92.56A4.7,4.7,0,0,0,1220,77a1.54,1.54,0,0,0-.22.51,2.37,2.37,0,0,0,.32-.45,5,5,0,0,1,1-1.12,2.06,2.06,0,0,1,2-.49,1.22,1.22,0,0,1,.81.8c.11.37-.06.88-.46.91a.79.79,0,0,1-.78-.74,1.46,1.46,0,0,1,.46-1.07,2.8,2.8,0,0,1,1.91-.83,3.15,3.15,0,0,1,1.43.27A4.07,4.07,0,0,0,1226.84,75.08Z"/><path class="cls-8" d="M1210.34,86c-.08,0-3.2-.94-3.1,2.24s3.28,2.42,3.28,2.33S1210.34,86,1210.34,86Z"/><path class="cls-9" d="M1209.51,89.34s0,0-.15.09a.51.51,0,0,1-.41,0,1.35,1.35,0,0,1-.67-1.21,1.75,1.75,0,0,1,.13-.8.62.62,0,0,1,.4-.43.27.27,0,0,1,.33.14c0,.09,0,.15,0,.15s.06,0,0-.18a.33.33,0,0,0-.13-.2.45.45,0,0,0-.31-.07.79.79,0,0,0-.56.51,1.88,1.88,0,0,0-.16.9,1.41,1.41,0,0,0,.85,1.34.58.58,0,0,0,.5-.1C1209.51,89.42,1209.52,89.35,1209.51,89.34Z"/><path class="cls-4" d="M1200.89,126.7c0,.77,2.3,16.17,2.3,16.17l-4.58,25,17.74.94,2.12-15.36,2.31,15.36,15.36-1.49-3.49-19.47,0-22.27-.2-17.91-6.55-2.24-3.39-4-5.48,3.41-6.76-4-2.14,2.91-9.55,5C1197.74,110.34,1200.89,126.7,1200.89,126.7Z"/><path class="cls-10" d="M1210.3,100.86l-.22,4.84,9.33,24.83,3.77-24.39-1.22-4.68h0l-4.89,3.44Z"/><path class="cls-5" d="M1219.2,131.47a1.85,1.85,0,0,1-.23-.27l-.6-.8-2.16-3-7.07-9.87c-.4-.55-.79-1.1-1.17-1.64l-.06-.08.06-.08,1.85-2.67,0,.17-4.12-3.07-.06,0,0-.07c.73-1.91,1.33-3.48,1.77-4.6.2-.53.37-1,.5-1.26a4.19,4.19,0,0,1,.19-.44,2.17,2.17,0,0,1-.13.46c-.12.32-.26.75-.45,1.28l-1.68,4.63,0-.12,4.14,3,.1.07-.07.1-1.84,2.69v-.16c.38.54.77,1.09,1.17,1.64l7,9.92,2.1,3,.56.83A1.68,1.68,0,0,1,1219.2,131.47Z"/><path class="cls-5" d="M1218.39,157.35a1.1,1.1,0,0,1,0-.27v-.77c0-.71,0-1.67.08-2.84.08-2.43.19-5.73.31-9.36s.21-6.93.29-9.37c0-1.16,0-2.12.07-2.84,0-.3,0-.56,0-.77a.14.14,0,1,1,.06,0c0,.21,0,.47,0,.78,0,.67,0,1.64,0,2.84,0,2.39-.09,5.71-.21,9.37s-.27,7-.39,9.36c-.07,1.16-.13,2.12-.17,2.83l-.06.77A1.14,1.14,0,0,1,1218.39,157.35Z"/><path class="cls-5" d="M1219.59,130.74a1,1,0,0,1,.09-.28l.31-.79c.29-.72.69-1.7,1.18-2.89,1-2.47,2.43-5.81,4-9.51l.95-2.24,0,.14-2.17-2.6-.07-.09.07-.07,3.15-3.26,0,.1-1-2.93c-.1-.32-.19-.59-.26-.8a.87.87,0,0,1-.07-.28,1.23,1.23,0,0,1,.12.27l.31.78,1.09,2.89,0,.06,0,0-3.11,3.3v-.17l2.18,2.58.06.07,0,.07-1,2.25c-1.57,3.68-3,7-4.06,9.47-.52,1.18-.94,2.15-1.26,2.86l-.35.77C1219.64,130.66,1219.6,130.75,1219.59,130.74Z"/><g class="cls-11"><polygon points="1205.8 110.11 1208.55 113.18 1206.65 116.59 1218.39 130.53 1208.08 115.84 1209.92 113.16 1205.8 110.11"/></g><g class="cls-11"><polygon points="1219.86 130.09 1226.4 117.25 1226.23 115.08 1219.86 130.09"/></g><path class="cls-5" d="M1199.28,110.39a1.58,1.58,0,0,1,.36.23,8.72,8.72,0,0,1,.87.76,10.69,10.69,0,0,1,2.14,3.16,10.37,10.37,0,0,1,.87,3.71,8.08,8.08,0,0,1,0,1.15,1.18,1.18,0,0,1-.08.42s0-.6-.09-1.56a11.59,11.59,0,0,0-3-6.74C1199.72,110.8,1199.25,110.43,1199.28,110.39Z"/><path class="cls-5" d="M1233.56,122.91c-.08,0-.33-2.82-.57-6.31s-.36-6.33-.29-6.34.33,2.82.56,6.32S1233.63,122.91,1233.56,122.91Z"/><path class="cls-5" d="M1223.15,106.23a3,3,0,0,1-.28.31c-.18.19-.47.47-.83.82a23.69,23.69,0,0,1-3.26,2.65l-.17.12v-.21a8.78,8.78,0,0,0-.42-2.76,8,8,0,0,0-.67-1.38,7.66,7.66,0,0,0-.45-.66L1217,105l0,0h0l.16,0h0a.68.68,0,0,0-.12.12,1.81,1.81,0,0,0-.2.33,9.6,9.6,0,0,0-.65,2.37c-.15.79-.27,1.55-.38,2.27l0,.22-.17-.14-4-3.15-1.11-.92a1.91,1.91,0,0,1-.38-.35,2.41,2.41,0,0,1,.43.29l1.16.86,4,3.08-.19.08c.1-.73.21-1.49.36-2.29a9.09,9.09,0,0,1,.67-2.44,1.62,1.62,0,0,1,.23-.37.86.86,0,0,1,.16-.18l0,0h0l.17,0h0l0,0,.06.08c.17.22.32.45.47.68a7.47,7.47,0,0,1,.68,1.43,8.38,8.38,0,0,1,.41,2.84l-.18-.09a27.33,27.33,0,0,0,3.3-2.56l.88-.78A1.71,1.71,0,0,1,1223.15,106.23Z"/><path class="cls-5" d="M1219.18,130.3c-.07,0-.61-5.64-1.19-12.61s-1-12.62-.93-12.63.61,5.64,1.2,12.61S1219.26,130.29,1219.18,130.3Z"/><g class="cls-11"><path d="M1202.77,124.74s-.45,12.22-.45,12.25-1.08-7.22-1.08-7.22Z"/></g><path class="cls-8" d="M1253.25,125.87l-5.59-4.18,1.44-2.71,3.26-4.73a1.67,1.67,0,0,1,1.1-.69l2.88-.46.15.89s1.08-.72,1.45.19S1257,116,1257,116a1,1,0,0,1,1.32.85,1,1,0,0,1-.84,1.29c.84,1.11,0,1.78,0,1.78,1,1.11-.36,2.17-.36,2.17l-3.69,3.75Z"/><polygon class="cls-4" points="1266.45 84.61 1266.81 84.95 1253.57 123.9 1252.22 123.28 1266.45 84.61"/><path class="cls-8" d="M1257.77,121.27a5.74,5.74,0,0,1-1.85,1.85,2,2,0,0,1-.67.33.73.73,0,0,1-.69-.22.78.78,0,0,1-.13-.52,1.7,1.7,0,0,1,.47-1,5.47,5.47,0,0,1,.88-.71"/><path class="cls-9" d="M1255.78,121s-.31.26-.73.7a1.72,1.72,0,0,0-.49.9.76.76,0,0,0,.08.54.57.57,0,0,0,.51.2,2.59,2.59,0,0,0,1.11-.61,6.46,6.46,0,0,0,.84-.7c.44-.43.63-.77.67-.75a2.13,2.13,0,0,1-.54.88,6.21,6.21,0,0,1-.82.76c-.17.13-.34.26-.54.39a1.42,1.42,0,0,1-.7.28.77.77,0,0,1-.73-.31,1,1,0,0,1-.11-.72,1.83,1.83,0,0,1,.59-1A2.54,2.54,0,0,1,1255.78,121Z"/><path class="cls-4" d="M1232.48,107.69c1.47.49,3.73,4.75,3.73,4.75l6,17.65s5.33-8.68,5.33-8.82,6.89,5.06,6.89,5.06l-4.54,8.87-.24,2.29-4.38,7.12c-1.11,1.2-3.08,1.46-4.71,1.36h0a5.43,5.43,0,0,1-4.69-3.32l-3.22-8.94Z"/><path class="cls-4" d="M1196.11,112.28l-4.95,15.87-5.26-10.43-7.89,5,7.39,16.32c1.09,2.47,4.17,5,6.41,5h0a7.85,7.85,0,0,0,7.37-5.14l5.27-12.81-5.84-17.37h0A7,7,0,0,0,1196.11,112.28Z"/><path class="cls-5" d="M1191.15,137.38a44.59,44.59,0,0,1-.09-4.74,46.46,46.46,0,0,1,.17-4.74,44.46,44.46,0,0,1,.09,4.74A46.46,46.46,0,0,1,1191.15,137.38Z"/><path class="cls-5" d="M1193.53,134.6a5.76,5.76,0,0,1-.32-1c-.18-.66-.42-1.56-.7-2.55s-.55-1.89-.76-2.51a.56.56,0,0,0-.52-.43c-.17,0-.24.11-.25.09s0-.14.24-.18a.57.57,0,0,1,.37.06.86.86,0,0,1,.32.38,25.43,25.43,0,0,1,.84,2.52c.29,1,.5,1.91.63,2.58A4.6,4.6,0,0,1,1193.53,134.6Z"/><path class="cls-5" d="M1185.19,138.45l.14.27c.1.18.24.44.43.77a12,12,0,0,0,2,2.55,8.34,8.34,0,0,0,1.79,1.3,6.06,6.06,0,0,0,2.44.61,6.34,6.34,0,0,0,2.74-.48,7.55,7.55,0,0,0,2.48-1.69,8.13,8.13,0,0,0,1.15-1.45h0c1.41-3.49,2.75-6.54,3.73-8.72.49-1.09.89-2,1.17-2.56l.33-.68c.08-.16.12-.24.13-.23a1,1,0,0,1-.08.25l-.3.7-1.1,2.59c-.94,2.2-2.25,5.25-3.64,8.74h0a8.07,8.07,0,0,1-1.19,1.51,7.85,7.85,0,0,1-2.57,1.74,6.64,6.64,0,0,1-2.84.49,6.07,6.07,0,0,1-2.52-.67,8,8,0,0,1-1.83-1.35,11.14,11.14,0,0,1-1.94-2.63,7.78,7.78,0,0,1-.39-.8A.91.91,0,0,1,1185.19,138.45Z"/><path class="cls-8" d="M1253.46,113.56l2.88-.46s.53.83-1.6,2l-1.34.81s1,1.85-.53,4.57"/><path class="cls-9" d="M1252.87,120.47s.22-.47.47-1.27a5.4,5.4,0,0,0,.25-1.46,4.12,4.12,0,0,0-.3-1.79l0-.1.09-.06,1.07-.64a8.66,8.66,0,0,0,1.34-.89,1.91,1.91,0,0,0,.45-.54.67.67,0,0,0,.06-.56l.11,0c-.87.13-1.59.23-2.1.29a3.61,3.61,0,0,1-.8.07,4.13,4.13,0,0,1,.78-.19l2.09-.38h.07l0,.06a.86.86,0,0,1,0,.78,2,2,0,0,1-.49.62,8.12,8.12,0,0,1-1.38.93l-1.06.63,0-.16a4.15,4.15,0,0,1,.3,1.91,5.06,5.06,0,0,1-.32,1.5,2.92,2.92,0,0,1-.22.53,2.23,2.23,0,0,1-.19.38C1253,120.37,1252.89,120.48,1252.87,120.47Z"/><path class="cls-5" d="M1254,126.07a3.08,3.08,0,0,1-.49-.32l-1.34-1-4.68-3.43.17,0c-.94,1.55-2,3.32-3.12,5.18q-.76,1.24-1.47,2.43a20.56,20.56,0,0,0-1.3,2.28,12.89,12.89,0,0,0-1.09,7.26c.09.71.19,1.09.16,1.09s0-.09-.09-.27-.11-.45-.17-.8a12.19,12.19,0,0,1-.15-3,12.66,12.66,0,0,1,1.12-4.35,22.41,22.41,0,0,1,1.3-2.31l1.47-2.43,3.14-5.17.07-.11.1.08,4.62,3.5,1.3,1A5,5,0,0,1,1254,126.07Z"/><path class="cls-5" d="M1242.23,130.16a9,9,0,0,0-3.71,5.61,2.72,2.72,0,0,1,.11-1,7.15,7.15,0,0,1,1-2.28,7.28,7.28,0,0,1,1.71-1.8A2.92,2.92,0,0,1,1242.23,130.16Z"/><path class="cls-5" d="M1232.68,115.12a1.39,1.39,0,0,1,0,.33l0,1c0,.82.06,2,.08,3.5,0,3,.05,7.06,0,11.59s0,8.61-.1,11.58c0,1.46,0,2.65-.06,3.51,0,.39,0,.71,0,.95s0,.33,0,.33a1.39,1.39,0,0,1,0-.33c0-.24,0-.56,0-1,0-.85,0-2.05,0-3.5,0-3,0-7.08,0-11.59s0-8.58,0-11.57v-4.47A1.19,1.19,0,0,1,1232.68,115.12Z"/><path class="cls-8" d="M1257.12,113.75a13.65,13.65,0,0,0-3.3,2.42,1.1,1.1,0,0,0-.14.55.6.6,0,0,0,.25.5.86.86,0,0,0,.81,0,10.13,10.13,0,0,0,2.92-1.8,1.34,1.34,0,0,0,.4-.87.76.76,0,0,0-.46-.77"/><path class="cls-9" d="M1257.6,113.75s.2,0,.38.25a1.13,1.13,0,0,1-.08,1.24,3.37,3.37,0,0,1-.63.62,8.66,8.66,0,0,1-.8.57,10.72,10.72,0,0,1-1,.54l-.52.24a2,2,0,0,1-.59.21.72.72,0,0,1-.65-.18.8.8,0,0,1-.2-.63,1.19,1.19,0,0,1,.2-.57,2.09,2.09,0,0,1,.38-.4,15.64,15.64,0,0,1,1.49-1.09,6.19,6.19,0,0,1,1.49-.8s-.13.1-.37.26l-1,.69a17.19,17.19,0,0,0-1.43,1.11,2.85,2.85,0,0,0-.34.36,1.26,1.26,0,0,0-.16.46.54.54,0,0,0,.14.43.5.5,0,0,0,.44.11,9.07,9.07,0,0,0,3.37-2,1,1,0,0,0,.15-1.08C1257.76,113.81,1257.58,113.77,1257.6,113.75Z"/><path class="cls-8" d="M1255.64,118.93a8.31,8.31,0,0,0-1.05.59,2.24,2.24,0,0,0-.75.92.77.77,0,0,0,.05.78.65.65,0,0,0,.49.21,1.49,1.49,0,0,0,.55-.1,7.47,7.47,0,0,0,1.94-.91,2.89,2.89,0,0,0,.7-.6,1.32,1.32,0,0,0,.28-.85c0-.31-.06-.65-.34-.75"/><path class="cls-9" d="M1257.51,118.22s.17,0,.29.22a1.29,1.29,0,0,1,.11.43,1.22,1.22,0,0,1,0,.59,2.32,2.32,0,0,1-1,1.11,7.36,7.36,0,0,1-1.64.8,2.35,2.35,0,0,1-1,.18.82.82,0,0,1-.46-.24.72.72,0,0,1-.16-.47,1.88,1.88,0,0,1,.78-1.3,3.9,3.9,0,0,1,.88-.49,1.37,1.37,0,0,1,.34-.12s-.1.09-.3.21a5.61,5.61,0,0,0-.8.54,2.07,2.07,0,0,0-.43.49,1.12,1.12,0,0,0-.23.66.45.45,0,0,0,.42.47,1.94,1.94,0,0,0,.84-.17,8.09,8.09,0,0,0,1.59-.76,2.15,2.15,0,0,0,1-1,1.06,1.06,0,0,0,.07-.52,1.12,1.12,0,0,0-.06-.4C1257.64,118.28,1257.49,118.24,1257.51,118.22Z"/><path class="cls-8" d="M1258.33,116.78c-.29-1.08-1.43-.68-1.43-.68a15.08,15.08,0,0,0-2.21,1.27,1.57,1.57,0,0,0-.48.68.83.83,0,0,0,.1.79.86.86,0,0,0,.75.28,2.6,2.6,0,0,0,.81-.24l1.75-.75a1.21,1.21,0,0,0,.74-1.27v0"/><path class="cls-9" d="M1258.35,116.84s.09.15,0,.45a1.3,1.3,0,0,1-.77.94L1256,119a2.52,2.52,0,0,1-1.06.3,1,1,0,0,1-.59-.2.86.86,0,0,1-.31-.58,1.2,1.2,0,0,1,.12-.6,1.51,1.51,0,0,1,.32-.47,5.23,5.23,0,0,1,.85-.59c.56-.33,1.09-.57,1.54-.79h0a1.52,1.52,0,0,1,.79,0,.94.94,0,0,1,.5.33.88.88,0,0,1,.16.33c0,.09,0,.13,0,.13a3,3,0,0,0-.25-.39.82.82,0,0,0-.46-.26,1.4,1.4,0,0,0-.69.06h0c-.43.24-1,.5-1.5.83a7.48,7.48,0,0,0-.79.56,1.22,1.22,0,0,0-.36.87.61.61,0,0,0,.65.56,2.38,2.38,0,0,0,1-.26l1.65-.68a1.23,1.23,0,0,0,.75-.8A2.47,2.47,0,0,0,1258.35,116.84Z"/><path class="cls-10" d="M343.31,71.19a15.52,15.52,0,1,0-3.85,3.66L345,77Z"/><path class="cls-5" d="M335,62.05a1.33,1.33,0,1,0,1.33-1.32A1.33,1.33,0,0,0,335,62.05Z"/><path class="cls-5" d="M329.71,62.05A1.33,1.33,0,1,0,331,60.73,1.33,1.33,0,0,0,329.71,62.05Z"/><path class="cls-5" d="M324.42,61.39a1.32,1.32,0,1,0,1.81-.49A1.32,1.32,0,0,0,324.42,61.39Z"/><path class="cls-5" d="M331,46.57h-.27l-.78,0-.58,0-.7.1-.81.11-.9.23A14.27,14.27,0,0,0,322.52,49,15.64,15.64,0,0,0,318,53.39a15.86,15.86,0,0,0-2.58,7.22,15.09,15.09,0,0,0,0,2.13c0,.35,0,.72.07,1.08s.11.73.16,1.09a15.58,15.58,0,0,0,1.48,4.32,16.69,16.69,0,0,0,2.82,3.89A16.35,16.35,0,0,0,324,76a15,15,0,0,0,5,1.52,11.55,11.55,0,0,0,1.32.11,12,12,0,0,0,1.34,0,15.11,15.11,0,0,0,2.67-.33,15.59,15.59,0,0,0,5.33-2.25l-.16,0,5.42,2.18.32.13-.09-.34q-.82-3-1.59-5.8l0,.15a15.63,15.63,0,0,0,2.89-6.63,14,14,0,0,0,.22-3.4,11,11,0,0,0-.16-1.63l-.12-.79c0-.26-.13-.52-.19-.77a15.47,15.47,0,0,0-9.66-10.73l-.81-.29-.77-.19-.7-.18-.65-.1c-.41-.05-.77-.12-1.09-.13l-.8,0H331l.17,0,.48,0,.79,0c.32,0,.67.1,1.08.16A15.43,15.43,0,0,1,345.81,58.3c.06.25.13.5.18.75l.12.78a10.57,10.57,0,0,1,.14,1.6,13.93,13.93,0,0,1-.22,3.33,15.23,15.23,0,0,1-2.86,6.49l0,.06,0,.08,1.58,5.8L345,77l-5.42-2.18-.09,0-.08,0a15.11,15.11,0,0,1-5.2,2.19,14.56,14.56,0,0,1-2.62.33,18.87,18.87,0,0,1-2.6-.13,14.28,14.28,0,0,1-4.84-1.48,15.13,15.13,0,0,1-6.75-6.64,15.08,15.08,0,0,1-1.46-4.23c-.06-.36-.11-.72-.17-1.07s-.05-.72-.07-1.07a16,16,0,0,1,0-2.08,15.3,15.3,0,0,1,6.93-11.5,14.8,14.8,0,0,1,4.32-2l.89-.24.81-.13.68-.11c.22,0,.41,0,.58-.05l.78,0Z"/></g></g></svg>