<svg xmlns="http://www.w3.org/2000/svg" viewBox="0 0 82.12 76.4"><defs><style>.cls-1{fill:#0083eb;}</style></defs><title>ai-icon</title><g id="Layer_2" data-name="Layer 2"><g id="OBJECTS"><path class="cls-1" d="M26.47,44.23H17.76a1,1,0,0,1-1-1V38.88A17.47,17.47,0,0,1,14,37.76L11,40.83a1,1,0,0,1-1.41,0L3.4,34.67a1,1,0,0,1,0-1.41l3.07-3.07a17.47,17.47,0,0,1-1.12-2.72H1a1,1,0,0,1-1-1V17.76a1,1,0,0,1,1-1H5.35A17.47,17.47,0,0,1,6.47,14L3.4,11a1,1,0,0,1,0-1.41L9.56,3.4A1,1,0,0,1,11,3.4L14,6.47a17.47,17.47,0,0,1,2.72-1.12V1a1,1,0,0,1,1-1h8.71a1,1,0,0,1,1,1V5.35a17.47,17.47,0,0,1,2.72,1.12L33.26,3.4a1,1,0,0,1,1.41,0l6.16,6.16a1,1,0,0,1,.3.71,1,1,0,0,1-.3.7L37.76,14a17.47,17.47,0,0,1,1.12,2.72h4.35a1,1,0,0,1,1,1v8.71a1,1,0,0,1-1,1H38.88a17.47,17.47,0,0,1-1.12,2.72l3.07,3.07a1,1,0,0,1,.3.7,1,1,0,0,1-.3.71l-6.16,6.16a1,1,0,0,1-1.41,0l-3.07-3.07a17.47,17.47,0,0,1-2.72,1.12v4.35A1,1,0,0,1,26.47,44.23Zm-7.71-2h6.71v-4.1a1,1,0,0,1,.74-1,15.68,15.68,0,0,0,3.66-1.51,1,1,0,0,1,1.2.16L34,38.71,38.71,34l-2.89-2.89a1,1,0,0,1-.16-1.2,15.68,15.68,0,0,0,1.51-3.66,1,1,0,0,1,1-.74h4.1V18.76h-4.1a1,1,0,0,1-1-.74,15.68,15.68,0,0,0-1.51-3.66,1,1,0,0,1,.16-1.2l2.89-2.89L34,5.52,31.07,8.41a1,1,0,0,1-1.2.16,15.68,15.68,0,0,0-3.66-1.51,1,1,0,0,1-.74-1V2H18.76V6.1a1,1,0,0,1-.74,1,15.68,15.68,0,0,0-3.66,1.51,1,1,0,0,1-1.2-.16L10.27,5.52,5.52,10.27l2.89,2.89a1,1,0,0,1,.16,1.2A15.68,15.68,0,0,0,7.06,18a1,1,0,0,1-1,.74H2v6.71H6.09a1,1,0,0,1,1,.74,15.68,15.68,0,0,0,1.51,3.66,1,1,0,0,1-.16,1.2L5.52,34l4.75,4.75,2.89-2.89a1,1,0,0,1,1.2-.16A15.68,15.68,0,0,0,18,37.17a1,1,0,0,1,.74,1Z"/><circle class="cls-1" cx="22.11" cy="22.11" r="3.9"/><path class="cls-1" d="M39.25,66h-.12A31.06,31.06,0,0,1,15.64,49.84a1,1,0,0,1,1.77-.94,29,29,0,0,0,22,15.15,1,1,0,0,1-.12,2Z"/><path class="cls-1" d="M67.76,76.4H43.47a5.22,5.22,0,0,1-5.22-5.22V54.6a5.22,5.22,0,0,1,5.22-5.22h7.39a1,1,0,0,1,0,2H43.47a3.22,3.22,0,0,0-3.22,3.22V71.18a3.22,3.22,0,0,0,3.22,3.22H67.76A3.22,3.22,0,0,0,71,71.18V56.35a1,1,0,0,1,1-1h7.69L72.1,35.59a1,1,0,0,1-.06-.35,29,29,0,0,0-29-29,1,1,0,0,1,0-2,31,31,0,0,1,31,30.8l8,20.94a1,1,0,0,1-.94,1.36H73V71.18A5.22,5.22,0,0,1,67.76,76.4Z"/><path class="cls-1" d="M70.89,65.74h-11a1,1,0,0,1,0-2h11a1,1,0,1,1,0,2Z"/><path class="cls-1" d="M58.77,44.22a8.59,8.59,0,1,1,8.45-8.58A8.53,8.53,0,0,1,58.77,44.22Zm0-15.17a6.59,6.59,0,1,0,6.45,6.59A6.54,6.54,0,0,0,58.77,29.05Z"/><path class="cls-1" d="M61.21,35.64a2.44,2.44,0,1,1-2.44-2.44A2.44,2.44,0,0,1,61.21,35.64Z"/><path class="cls-1" d="M72.54,36.39H66.73a.75.75,0,0,1,0-1.5h5.81a.75.75,0,0,1,0,1.5Z"/><path class="cls-1" d="M22.11,22.48a1,1,0,0,1-1-1V12.22a1,1,0,1,1,2,0v9.26A1,1,0,0,1,22.11,22.48Z"/><path class="cls-1" d="M22.11,33.39a11.27,11.27,0,0,1-5.24-21.25,1,1,0,1,1,.93,1.77,9.28,9.28,0,1,0,8.63,0,1,1,0,0,1,.93-1.77,11.27,11.27,0,0,1-5.25,21.25Z"/><path class="cls-1" d="M22.45,57.11a.74.74,0,0,1-.53-.22.75.75,0,0,1,0-1.06l6-6A.75.75,0,1,1,29,50.91l-6,6A.74.74,0,0,1,22.45,57.11Z"/><path class="cls-1" d="M27.73,61a.74.74,0,0,1-.53-.22.75.75,0,0,1,0-1.06l6-6a.75.75,0,0,1,1.06,1.06l-6,6A.71.71,0,0,1,27.73,61Z"/><path class="cls-1" d="M69,22H48.28a.75.75,0,0,1,0-1.5H69A.75.75,0,0,1,69,22Z"/><path class="cls-1" d="M51.84,22a.75.75,0,0,1-.75-.75V14.33a.75.75,0,1,1,1.5,0v6.89A.75.75,0,0,1,51.84,22Z"/><path class="cls-1" d="M57.72,22a.75.75,0,0,1-.75-.75V14.33a.75.75,0,1,1,1.5,0v6.89A.74.74,0,0,1,57.72,22Z"/></g></g></svg>