<svg xmlns="http://www.w3.org/2000/svg" viewBox="0 0 427.13 238.82"><defs><style>.cls-1{fill:#ebf2f9;}.cls-2{fill:#aed3ff;}.cls-3{fill:#d2e4ff;}.cls-4{fill:#f3f9ff;}.cls-5{fill:#ee9849;}.cls-6{fill:#a6c7f9;}.cls-7{fill:#c65447;}.cls-8{fill:#e57970;}.cls-9{fill:#dd7c2c;}.cls-10{fill:#a8d29f;}.cls-11{fill:#f1a34f;}.cls-12{fill:#82b378;}.cls-13{fill:#dd8936;}</style></defs><title>Asset 12</title><g id="Layer_2" data-name="Layer 2"><g id="Layer_1-2" data-name="Layer 1"><path class="cls-1" d="M379,81.59c-17.54-15-38.68-105.19-111.11-58.2C230.44,47.67,167.34,2.55,115.11,18.14,67.15,32.45,62.52,79.6,67.16,95c9.38,31-19.8,35.66-46.86,49-42.45,20.92-11.24,94.44,28.87,94.79s283.08-.7,283.08-.7,58.26.14,82.49-32C440.81,171.43,424.28,120.23,379,81.59Z"/><rect class="cls-2" x="305.07" y="26.08" width="99.85" height="167.76" transform="translate(710 219.92) rotate(180)"/><rect class="cls-3" x="301.94" y="26.08" width="99.85" height="167.76"/><rect class="cls-4" x="308.74" y="35.45" width="86.49" height="58.43"/><rect class="cls-4" x="347.32" y="148.72" width="46.42" height="31.2"/><path class="cls-5" d="M312.31,65.27s14.77-1.84,23.79,6.48,25.83.73,32.6,0c11.77-1.28,21,2.57,23.73,6.8V91.24H312.31Z"/><rect class="cls-6" x="323.76" y="44.84" width="0.62" height="19.82"/><rect class="cls-6" x="348.04" y="53.35" width="0.62" height="19.82"/><rect class="cls-6" x="373.1" y="48.86" width="0.62" height="19.82"/><path class="cls-6" d="M331.28,47.88h-4.74a.52.52,0,0,1-.52-.51h0a.52.52,0,0,1,.52-.52h4.74a.52.52,0,0,1,.52.52h0A.51.51,0,0,1,331.28,47.88Z"/><path class="cls-6" d="M331.28,49.74h-4.74a.52.52,0,0,1-.52-.52h0a.52.52,0,0,1,.52-.51h4.74a.51.51,0,0,1,.52.51h0A.52.52,0,0,1,331.28,49.74Z"/><path class="cls-6" d="M355.21,58h-4.75a.51.51,0,0,1-.51-.52h0a.51.51,0,0,1,.51-.51h4.75a.51.51,0,0,1,.51.51h0A.51.51,0,0,1,355.21,58Z"/><path class="cls-6" d="M355.21,59.81h-4.75a.52.52,0,0,1-.51-.52h0a.52.52,0,0,1,.51-.52h4.75a.52.52,0,0,1,.51.52h0A.52.52,0,0,1,355.21,59.81Z"/><path class="cls-6" d="M380.67,50.51h-4.74a.51.51,0,0,1-.51-.51h0a.51.51,0,0,1,.51-.52h4.74a.52.52,0,0,1,.52.52h0A.51.51,0,0,1,380.67,50.51Z"/><path class="cls-6" d="M380.67,52.33h-4.74a.51.51,0,0,1-.51-.52h0a.51.51,0,0,1,.51-.51h4.74a.51.51,0,0,1,.52.51h0A.52.52,0,0,1,380.67,52.33Z"/><path class="cls-4" d="M378.15,108.83a8.54,8.54,0,1,1,8.54,8.54A8.54,8.54,0,0,1,378.15,108.83Z"/><path class="cls-7" d="M394.51,108.83a7.81,7.81,0,0,1-13.1,5.76l5.28-5.76V101A7.82,7.82,0,0,1,394.51,108.83Z"/><path class="cls-6" d="M383.71,107.45h-2.8a.23.23,0,0,1-.24-.23h0a.24.24,0,0,1,.24-.24h2.8a.24.24,0,0,1,.24.24h0A.23.23,0,0,1,383.71,107.45Z"/><circle class="cls-4" cx="365.49" cy="108.83" r="8.54"/><path class="cls-8" d="M365.49,108.83l4.8,6.17a7.82,7.82,0,1,1,3-6.88Z"/><path class="cls-6" d="M371.51,110.76h-2a.23.23,0,0,1-.23-.23h0a.23.23,0,0,1,.23-.24h2a.23.23,0,0,1,.23.24h0A.23.23,0,0,1,371.51,110.76Z"/><path class="cls-4" d="M378.15,132.35a8.54,8.54,0,1,1,8.54,8.54A8.54,8.54,0,0,1,378.15,132.35Z"/><path class="cls-5" d="M394.51,132.35a7.81,7.81,0,0,1-13.1,5.76l5.28-5.76v-7.82A7.82,7.82,0,0,1,394.51,132.35Z"/><path class="cls-6" d="M383.71,131h-2.8a.23.23,0,0,1-.24-.23h0a.24.24,0,0,1,.24-.24h2.8a.24.24,0,0,1,.24.24h0A.23.23,0,0,1,383.71,131Z"/><path class="cls-4" d="M357,132.35a8.54,8.54,0,1,1,8.54,8.54A8.54,8.54,0,0,1,357,132.35Z"/><path class="cls-7" d="M373.27,131.64a7.82,7.82,0,1,0-3,6.88l-4.8-6.17Z"/><path class="cls-6" d="M371.51,134.28h-2a.23.23,0,0,1-.23-.23h0a.23.23,0,0,1,.23-.24h2a.23.23,0,0,1,.23.24h0A.23.23,0,0,1,371.51,134.28Z"/><polygon class="cls-6" points="391.74 177.74 349.13 177.74 349.13 152.56 349.66 152.56 349.66 177.21 391.74 177.21 391.74 177.74"/><path class="cls-6" d="M362.45,168.63c-5.21-4.15-10.76,0-10.76,0v7.1h39V157.39C380.08,157.65,367.67,172.79,362.45,168.63Z"/><path class="cls-6" d="M352.14,154.48H370.3a.45.45,0,1,0,0-.89H352.14a.45.45,0,1,0,0,.89Z"/><path class="cls-6" d="M352.14,156.67H370.3a.45.45,0,0,0,.45-.45.45.45,0,0,0-.45-.45H352.14a.45.45,0,0,0-.45.45A.45.45,0,0,0,352.14,156.67Z"/><rect class="cls-6" x="351.69" y="157.83" width="12.76" height="0.89" rx="0.37"/><rect class="cls-3" x="148.8" width="136.62" height="206.04"/><rect class="cls-4" x="162" y="11.52" width="110" height="122.6"/><circle class="cls-4" cx="184.12" cy="173.3" r="19.78" transform="translate(-45.43 279.32) rotate(-68.06)"/><path class="cls-5" d="M200.84,173.3a16.71,16.71,0,1,0-6.57,13.29L184.12,173.3l15.63,6A16.6,16.6,0,0,0,200.84,173.3Z"/><circle class="cls-4" cx="251.52" cy="173.3" r="19.78" transform="translate(25.07 378.28) rotate(-76.72)"/><path class="cls-5" d="M251.52,156.58A16.72,16.72,0,0,0,239.61,185l11.91-11.73,15.63,6a16.74,16.74,0,0,0-15.63-22.68Z"/><path class="cls-9" d="M249.08,164.81H242a.51.51,0,0,0-.51.51h0a.51.51,0,0,0,.51.51h7.12a.51.51,0,0,0,.51-.51h0A.51.51,0,0,0,249.08,164.81Z"/><path class="cls-9" d="M249.08,166.42H242a.51.51,0,1,0,0,1h7.12a.51.51,0,1,0,0-1Z"/><path class="cls-9" d="M244.9,168H242a.51.51,0,1,0,0,1h2.94a.51.51,0,1,0,0-1Z"/><path class="cls-9" d="M181.54,164.81h-7.12a.5.5,0,0,0-.5.51h0a.5.5,0,0,0,.5.51h7.12a.51.51,0,0,0,.51-.51h0A.51.51,0,0,0,181.54,164.81Z"/><path class="cls-9" d="M181.54,166.42h-7.12a.51.51,0,0,0,0,1h7.12a.51.51,0,1,0,0-1Z"/><path class="cls-9" d="M177.36,168h-2.94a.51.51,0,0,0,0,1h2.94a.51.51,0,0,0,0-1Z"/><rect class="cls-6" x="171.8" y="55.34" width="11.61" height="72.31"/><rect class="cls-6" x="190.81" y="35.19" width="11.61" height="92.46"/><rect class="cls-6" x="211.56" y="72.83" width="11.61" height="54.82"/><rect class="cls-6" x="231.75" y="47.53" width="11.61" height="80.12"/><rect class="cls-6" x="252.05" y="83.56" width="11.61" height="44.09"/><path class="cls-6" d="M242.81,37.11H233a1,1,0,1,0,0,2h9.83a1,1,0,1,0,0-2Z"/><path class="cls-6" d="M235.22,40.81H233a1,1,0,1,0,0,2h2.24a1,1,0,0,0,0-2Z"/><path class="cls-6" d="M202.3,21.36h-9.83a1,1,0,0,0,0,2h9.83a1,1,0,1,0,0-2Z"/><path class="cls-6" d="M194.71,25.06h-2.24a1,1,0,0,0-1,1h0a1,1,0,0,0,1,1h2.24a1,1,0,0,0,1-1h0A1,1,0,0,0,194.71,25.06Z"/><path class="cls-6" d="M222.28,62h-9.83a1,1,0,1,0,0,2h9.83a1,1,0,1,0,0-2Z"/><path class="cls-6" d="M214.69,65.73h-2.24a1,1,0,0,0-1,1h0a1,1,0,0,0,1,1h2.24a1,1,0,0,0,1-1h0A1,1,0,0,0,214.69,65.73Z"/><path class="cls-6" d="M262.77,72.83h-9.83a1,1,0,1,0,0,2h9.83a1,1,0,0,0,0-2Z"/><path class="cls-6" d="M255.18,76.53h-2.24a1,1,0,1,0,0,2h2.24a1,1,0,0,0,0-2Z"/><rect class="cls-2" x="30.52" y="78.1" width="99.85" height="56.21"/><rect class="cls-3" x="33.76" y="78.1" width="99.85" height="56.21"/><circle class="cls-4" cx="61.07" cy="104.94" r="18.05" transform="translate(-58.17 127.78) rotate(-70.64)"/><path class="cls-4" d="M122.39,94.85H92.48a2,2,0,0,0-2,2h0a2,2,0,0,0,2,2h29.91a2,2,0,0,0,2-2h0A2,2,0,0,0,122.39,94.85Z"/><path class="cls-4" d="M122.39,103H92.48a2,2,0,0,0-2,2h0a2,2,0,0,0,2,2h29.91a2,2,0,0,0,2-2h0A2,2,0,0,0,122.39,103Z"/><path class="cls-4" d="M122.39,111.08H92.48a2,2,0,0,0,0,3.94h29.91a2,2,0,0,0,0-3.94Z"/><path class="cls-10" d="M44.54,104.67H61.07V88.14A16.54,16.54,0,0,0,44.54,104.67Z"/><path class="cls-11" d="M77.6,105.21H44.54a16.54,16.54,0,0,0,16.53,16.53h0A16.54,16.54,0,0,0,77.6,105.21Z"/><path class="cls-12" d="M58.22,96.18h-9a.93.93,0,1,0,0,1.85h9a.93.93,0,0,0,0-1.85Z"/><path class="cls-12" d="M51.29,99.55h-2a.93.93,0,0,0,0,1.86h2a.93.93,0,0,0,0-1.86Z"/><path class="cls-13" d="M71.54,109.25h-9a.93.93,0,0,0,0,1.85h9a.93.93,0,0,0,0-1.85Z"/><path class="cls-13" d="M64.61,112.62h-2a.93.93,0,0,0-.92.93h0a.93.93,0,0,0,.92.93h2a.93.93,0,0,0,.93-.93h0A.93.93,0,0,0,64.61,112.62Z"/><path class="cls-2" d="M23.48,144.38v57.49h99.85V144.38Z"/><path class="cls-3" d="M26.73,144.38v57.49h99.85V144.38Z"/><circle class="cls-4" cx="54.04" cy="171.35" r="18.05"/><path class="cls-4" d="M85.45,165.2h29.9a2,2,0,1,0,0-3.94H85.45a2,2,0,1,0,0,3.94Z"/><path class="cls-4" d="M115.35,169.38H85.45a2,2,0,1,0,0,3.94h29.9a2,2,0,1,0,0-3.94Z"/><path class="cls-4" d="M115.35,177.49H85.45a2,2,0,0,0-2,2h0a2,2,0,0,0,2,2h29.9a2,2,0,0,0,2-2h0A2,2,0,0,0,115.35,177.49Z"/><path class="cls-11" d="M54,171.64l-16.53-.21v.21a16.53,16.53,0,0,0,25.4,14Z"/><rect class="cls-13" x="44.75" y="176.85" width="10.83" height="1.86" rx="0.93"/><path class="cls-13" d="M47.72,180.22h-2a.93.93,0,1,0,0,1.86h2a.93.93,0,0,0,0-1.86Z"/><rect class="cls-2" x="23.48" y="16.79" width="99.85" height="52.09"/><rect class="cls-3" x="26.73" y="16.79" width="99.85" height="52.09"/><circle class="cls-4" cx="54.04" cy="43.61" r="18.05"/><path class="cls-10" d="M54,27.08a16.53,16.53,0,0,0-7.94,31c2.65-4.9,7.94-14.5,7.94-14.5l7.82,14.56A16.53,16.53,0,0,0,54,27.08Z"/><rect class="cls-4" x="83.48" y="33.52" width="33.85" height="3.94" rx="1.97"/><path class="cls-4" d="M115.36,41.64H85.45a2,2,0,0,0,0,3.94h29.91a2,2,0,0,0,0-3.94Z"/><path class="cls-4" d="M115.36,49.75H85.45a2,2,0,0,0,0,3.94h29.91a2,2,0,0,0,0-3.94Z"/><path class="cls-12" d="M54.65,35.71h-9a.93.93,0,0,0,0,1.86h9a.93.93,0,0,0,0-1.86Z"/><path class="cls-12" d="M47.72,39.09h-2a.93.93,0,0,0-.93.93h0a.93.93,0,0,0,.93.93h2a.93.93,0,0,0,.93-.93h0A.93.93,0,0,0,47.72,39.09Z"/></g></g></svg>