<svg xmlns="http://www.w3.org/2000/svg" viewBox="0 0 85.09 77.04"><defs><style>.cls-1{fill:#0083eb;}</style></defs><title>cloud-icon</title><g id="Layer_2" data-name="Layer 2"><g id="OBJECTS"><path class="cls-1" d="M65.64,51H58.85a1,1,0,0,1,0-2h6.79a17.45,17.45,0,1,0,0-34.9,17,17,0,0,0-1.86.1,1,1,0,0,1-1.07-.7A16.17,16.17,0,0,0,47.19,2,16.34,16.34,0,0,0,32,12.42,1,1,0,0,1,30.7,13a10,10,0,0,0-13.95,8.37,1,1,0,0,1-1,.93h-.38a13.35,13.35,0,0,0,0,26.7H32.72a1,1,0,0,1,0,2H15.35a15.35,15.35,0,0,1-.49-30.69A12,12,0,0,1,26.69,10.13a11.86,11.86,0,0,1,3.87.65A18.35,18.35,0,0,1,47.19,0,18.14,18.14,0,0,1,64.37,12.1c.43,0,.85,0,1.27,0a19.45,19.45,0,1,1,0,38.9Z"/><path class="cls-1" d="M45.81,47.14A17.27,17.27,0,1,1,63.08,29.87,17.28,17.28,0,0,1,45.81,47.14Zm0-33A15.77,15.77,0,1,0,61.58,29.87,15.78,15.78,0,0,0,45.81,14.11Z"/><path class="cls-1" d="M45.81,47.14c-4.75,0-8.47-7.59-8.47-17.27s3.72-17.26,8.47-17.26,8.48,7.58,8.48,17.26S50.56,47.14,45.81,47.14Zm0-33c-3.78,0-7,7.22-7,15.76s3.19,15.77,7,15.77,7-7.22,7-15.77S49.59,14.11,45.81,14.11Z"/><path class="cls-1" d="M62.26,30.62H29.37a.75.75,0,0,1,0-1.5H62.26a.75.75,0,0,1,0,1.5Z"/><path class="cls-1" d="M45.81,47.07a.76.76,0,0,1-.75-.75V13.43a.75.75,0,0,1,1.5,0V46.32A.75.75,0,0,1,45.81,47.07Z"/><path class="cls-1" d="M45.81,25.14A33.48,33.48,0,0,1,31.45,22a.75.75,0,1,1,.64-1.35,32.06,32.06,0,0,0,13.72,2.95,32,32,0,0,0,13.72-2.95A.75.75,0,1,1,60.18,22,33.52,33.52,0,0,1,45.81,25.14Z"/><path class="cls-1" d="M59.85,39.13a.79.79,0,0,1-.32-.08,32,32,0,0,0-13.72-2.94,32.05,32.05,0,0,0-13.72,2.94.75.75,0,1,1-.64-1.35,33.47,33.47,0,0,1,14.36-3.09A33.52,33.52,0,0,1,60.18,37.7a.75.75,0,0,1-.33,1.43Z"/><path class="cls-1" d="M26.23,70.94a.76.76,0,0,1-.57-.26.75.75,0,0,1,.09-1.06l11.66-9.85V44.93a.75.75,0,0,1,1.5,0V60.12a.77.77,0,0,1-.26.57L26.71,70.77A.78.78,0,0,1,26.23,70.94Z"/><path class="cls-1" d="M62.35,68.17a.78.78,0,0,1-.47-.17L53,60.7a.79.79,0,0,1-.28-.58V44.93a.75.75,0,0,1,1.5,0V59.76l8.62,7.08a.74.74,0,0,1,.1,1A.75.75,0,0,1,62.35,68.17Z"/><path class="cls-1" d="M48.77,75a.75.75,0,0,1-.75-.75V46.57a.75.75,0,0,1,1.5,0V74.26A.75.75,0,0,1,48.77,75Z"/><path class="cls-1" d="M38.16,68.36A.75.75,0,0,1,37.67,67l5-4.26V46.54a.75.75,0,1,1,1.5,0V63.13a.77.77,0,0,1-.27.57l-5.24,4.48A.76.76,0,0,1,38.16,68.36Z"/><path class="cls-1" d="M28.44,70.84a2.78,2.78,0,1,1-2.77-2.77A2.77,2.77,0,0,1,28.44,70.84Z"/><circle class="cls-1" cx="38.01" cy="68.07" r="2.78"/><circle class="cls-1" cx="62.35" cy="67.61" r="2.78"/><path class="cls-1" d="M51.55,74.26a2.78,2.78,0,1,1-2.78-2.77A2.78,2.78,0,0,1,51.55,74.26Z"/></g></g></svg>