<svg id="Layer_1" data-name="Layer 1" xmlns="http://www.w3.org/2000/svg" viewBox="0 0 1902 280"><defs><style>.cls-1{fill:#f9faff;}.cls-2{fill:#1a2e35;}.cls-3{fill:#375a64;}.cls-4{fill:#fafafa;}.cls-5{fill:#ff4f5b;}.cls-6{opacity:0.79;}.cls-7{fill:#fff;}.cls-8{fill:#e1e1e1;}.cls-9{opacity:0.3;}.cls-10{opacity:0.6;}.cls-11{opacity:0.4;}.cls-12{opacity:0.2;}</style></defs><title>custom_data</title><rect class="cls-1" x="-0.5" width="1903" height="280"/><path class="cls-2" d="M1386.28,270.22c0,.08-78.65.14-175.65.14S1035,270.3,1035,270.22s78.64-.13,175.67-.13S1386.28,270.15,1386.28,270.22Z"/><path class="cls-2" d="M1300.46,68.51H1079.74a6.89,6.89,0,0,0-6.89,6.89V231.3a6.88,6.88,0,0,0,6.89,6.89h84.71s5.39,20.85-11.32,29.47h79.21s-18.86-10.65-14-29.47h82.13a6.89,6.89,0,0,0,6.89-6.89V75.4A6.9,6.9,0,0,0,1300.46,68.51Z"/><path class="cls-3" d="M1193.05,221.79c3,4.29-1.7,9-6,6a1.62,1.62,0,0,1-.37-.37c-3-4.29,1.7-9,6-6A1.62,1.62,0,0,1,1193.05,221.79Z"/><rect class="cls-4" x="1076.65" y="71.38" width="227.68" height="138.29"/><rect class="cls-5" x="1271.01" y="177.86" width="6.68" height="9.21"/><g class="cls-6"><rect class="cls-7" x="1271.01" y="177.86" width="6.68" height="9.21"/></g><rect class="cls-5" x="1256.89" y="172.44" width="6.68" height="14.63"/><g class="cls-6"><rect class="cls-7" x="1256.89" y="172.44" width="6.68" height="14.63"/></g><rect class="cls-5" x="1241.66" y="168.04" width="6.68" height="18.79"/><g class="cls-6"><rect class="cls-7" x="1241.66" y="168.04" width="6.68" height="18.79"/></g><rect class="cls-5" x="1100.41" y="174.13" width="6.68" height="12.7"/><g class="cls-6"><rect class="cls-7" x="1100.41" y="174.13" width="6.68" height="12.7"/></g><rect class="cls-5" x="1114.92" y="179.32" width="6.68" height="7.5"/><g class="cls-6"><rect class="cls-7" x="1114.92" y="179.32" width="6.68" height="7.5"/></g><rect class="cls-5" x="1128.41" y="169.85" width="6.68" height="17.22"/><g class="cls-6"><rect class="cls-7" x="1128.41" y="169.85" width="6.68" height="17.22"/></g><rect class="cls-5" x="1142.53" y="177.86" width="6.68" height="8.96"/><g class="cls-6"><rect class="cls-7" x="1142.53" y="177.86" width="6.68" height="8.96"/></g><rect class="cls-5" x="1156.41" y="169.85" width="6.68" height="16.98"/><rect class="cls-5" x="1170.16" y="148.14" width="6.68" height="38.69"/><rect class="cls-5" x="1184.49" y="132.26" width="6.68" height="54.56"/><rect class="cls-5" x="1198.76" y="154.65" width="6.68" height="32.18"/><g class="cls-6"><rect class="cls-7" x="1170.16" y="148.14" width="6.68" height="38.69"/></g><g class="cls-6"><rect class="cls-7" x="1198.76" y="154.65" width="6.68" height="32.18"/></g><rect class="cls-3" x="1226.73" y="149.35" width="6.68" height="37.48"/><rect class="cls-5" x="1213" y="137.94" width="6.68" height="48.88"/><path class="cls-2" d="M1095.88,125.64h-1v-.5h2.67v.5h-1v2.64h-.58Z"/><path class="cls-2" d="M1097.45,127.09a1.28,1.28,0,1,1,1.27,1.23A1.21,1.21,0,0,1,1097.45,127.09Zm2,0a.72.72,0,1,0-.72.75A.7.7,0,0,0,1099.44,127.09Z"/><path class="cls-2" d="M1102.89,125v3.32h-.54V128a1,1,0,0,1-.79.35,1.23,1.23,0,0,1,0-2.46,1,1,0,0,1,.77.32V125Zm-.55,2.13a.72.72,0,1,0-.72.75A.7.7,0,0,0,1102.34,127.09Z"/><path class="cls-2" d="M1105.63,126.88v1.4h-.53V128a.83.83,0,0,1-.75.33c-.55,0-.89-.3-.89-.72s.26-.72,1-.72h.62v0c0-.33-.2-.52-.6-.52a1.15,1.15,0,0,0-.72.24l-.22-.41a1.66,1.66,0,0,1,1-.3C1105.23,125.86,1105.63,126.19,1105.63,126.88Zm-.56.66v-.28h-.58c-.38,0-.48.14-.48.32s.17.33.46.33A.61.61,0,0,0,1105.07,127.54Z"/><path class="cls-2" d="M1108.55,125.89l-1.12,2.59a.94.94,0,0,1-.93.71,1,1,0,0,1-.64-.22l.23-.42a.57.57,0,0,0,.41.17c.2,0,.31-.09.42-.33l0-.1-1-2.4h.58l.75,1.77.76-1.77Z"/><path class="cls-8" d="M1095.38,197.64v1.6h-.16v-1.45h-.38v-.15Z"/><path class="cls-8" d="M1104,199.1v.14h-1.12v-.11l.67-.65a.53.53,0,0,0,.21-.4c0-.19-.13-.3-.37-.3a.54.54,0,0,0-.44.18l-.12-.1a.72.72,0,0,1,.57-.23c.32,0,.53.16.53.43a.67.67,0,0,1-.26.5l-.55.54Z"/><path class="cls-8" d="M1112.24,198.78c0,.27-.2.48-.58.48a.82.82,0,0,1-.58-.21l.08-.13a.69.69,0,0,0,.5.19c.26,0,.41-.13.41-.33s-.14-.31-.43-.31h-.12v-.13l.45-.55h-.82v-.15h1v.12l-.46.57C1112.07,198.35,1112.24,198.53,1112.24,198.78Z"/><path class="cls-8" d="M1120.6,198.82h-.29v.42h-.15v-.42h-.83v-.12l.78-1.06h.16l-.74,1h.63v-.37h.15v.37h.29Z"/><path class="cls-8" d="M1128.73,198.77c0,.27-.19.49-.58.49a.8.8,0,0,1-.57-.21l.08-.13a.67.67,0,0,0,.49.19c.27,0,.42-.14.42-.33s-.13-.33-.54-.33h-.34l.08-.81h.88v.15h-.73l-.06.51h.21C1128.55,198.3,1128.73,198.49,1128.73,198.77Z"/><path class="cls-8" d="M1137,198.77a.5.5,0,0,1-.55.49c-.43,0-.66-.3-.66-.8s.3-.83.73-.83a.65.65,0,0,1,.38.09l-.06.13a.51.51,0,0,0-.31-.08c-.35,0-.57.23-.57.66a.62.62,0,0,0,0,.13.5.5,0,0,1,.49-.27A.48.48,0,0,1,1137,198.77Zm-.17,0c0-.21-.15-.34-.4-.34a.37.37,0,0,0-.41.34.38.38,0,0,0,.42.35A.35.35,0,0,0,1136.87,198.77Z"/><path class="cls-8" d="M1145.22,197.64v.12l-.67,1.48h-.18l.66-1.45h-.82v.3h-.16v-.45Z"/><path class="cls-2" d="M1095.38,134.87v1.6h-.16V135h-.38v-.15Z"/><path class="cls-2" d="M1095.77,135.67c0-.51.26-.81.63-.81s.64.3.64.81-.27.81-.64.81S1095.77,136.18,1095.77,135.67Zm1.11,0c0-.43-.2-.66-.48-.66s-.47.23-.47.66.2.66.47.66S1096.88,136.1,1096.88,135.67Z"/><path class="cls-2" d="M1097.26,136.36a.12.12,0,0,1,.12-.13.13.13,0,0,1,.12.13.12.12,0,0,1-.12.12A.12.12,0,0,1,1097.26,136.36Z"/><path class="cls-2" d="M1097.71,135.67c0-.51.27-.81.64-.81s.64.3.64.81-.27.81-.64.81S1097.71,136.18,1097.71,135.67Zm1.11,0c0-.43-.19-.66-.47-.66s-.47.23-.47.66.19.66.47.66S1098.82,136.1,1098.82,135.67Z"/><path class="cls-2" d="M1099.23,135.67c0-.51.27-.81.64-.81s.64.3.64.81-.27.81-.64.81S1099.23,136.18,1099.23,135.67Zm1.11,0c0-.43-.19-.66-.47-.66s-.47.23-.47.66.19.66.47.66S1100.34,136.1,1100.34,135.67Z"/><path class="cls-2" d="M1100.74,135.67c0-.51.27-.81.64-.81s.64.3.64.81-.27.81-.64.81S1100.74,136.18,1100.74,135.67Zm1.11,0c0-.43-.19-.66-.47-.66s-.47.23-.47.66.19.66.47.66S1101.85,136.1,1101.85,135.67Z"/><path class="cls-8" d="M1153.5,198.8c0,.28-.24.46-.62.46s-.62-.18-.62-.46a.41.41,0,0,1,.31-.4.35.35,0,0,1-.25-.35c0-.26.22-.42.56-.42s.56.16.56.42a.35.35,0,0,1-.25.35A.41.41,0,0,1,1153.5,198.8Zm-.17,0c0-.2-.17-.32-.45-.32s-.45.12-.45.32.16.32.45.32S1153.33,199,1153.33,198.8Zm-.45-.46c.25,0,.4-.11.4-.28s-.16-.29-.4-.29-.4.11-.4.29S1152.63,198.34,1152.88,198.34Z"/><path class="cls-8" d="M1161.69,198.43c0,.54-.29.83-.73.83a.76.76,0,0,1-.38-.09l.07-.13a.59.59,0,0,0,.31.07c.34,0,.57-.22.57-.65,0,0,0-.09,0-.13a.52.52,0,0,1-.49.27.49.49,0,0,1-.54-.48.5.5,0,0,1,.55-.49C1161.46,197.63,1161.69,197.92,1161.69,198.43Zm-.22-.32c0-.17-.15-.34-.43-.34a.35.35,0,0,0-.39.35c0,.21.16.34.41.34A.37.37,0,0,0,1161.47,198.11Z"/><path class="cls-8" d="M1169.17,197.64v1.6H1169v-1.45h-.37v-.15Z"/><path class="cls-8" d="M1169.55,198.44c0-.51.27-.81.64-.81s.64.3.64.81-.27.82-.64.82S1169.55,199,1169.55,198.44Zm1.11,0c0-.42-.19-.66-.47-.66s-.47.24-.47.66.19.67.47.67S1170.66,198.87,1170.66,198.44Z"/><path class="cls-8" d="M1177.17,197.64v1.6H1177v-1.45h-.37v-.15Z"/><path class="cls-8" d="M1178,197.64v1.6h-.16v-1.45h-.38v-.15Z"/><path class="cls-8" d="M1185.41,197.64v1.6h-.17v-1.45h-.37v-.15Z"/><path class="cls-8" d="M1186.88,199.1v.14h-1.12v-.11l.67-.65a.53.53,0,0,0,.21-.4c0-.19-.13-.3-.37-.3a.54.54,0,0,0-.44.18l-.12-.1a.72.72,0,0,1,.57-.23c.32,0,.53.16.53.43a.67.67,0,0,1-.26.5l-.55.54Z"/><path class="cls-8" d="M1193.55,197.64v1.6h-.15v-1.45h-.35v-.15Z"/><path class="cls-8" d="M1194.86,198.78a.47.47,0,0,1-.53.48.69.69,0,0,1-.52-.21l.07-.13a.59.59,0,0,0,.45.19c.24,0,.38-.13.38-.33s-.13-.31-.4-.31h-.1v-.13l.4-.55h-.74v-.15h.94v.12l-.42.57A.44.44,0,0,1,1194.86,198.78Z"/><path class="cls-8" d="M1201.88,197.64v1.6h-.17v-1.45h-.38v-.15Z"/><path class="cls-8" d="M1203.62,198.82h-.32v.42h-.17v-.42h-.9v-.12l.85-1.06h.18l-.82,1h.7v-.37h.16v.37h.32Z"/><path class="cls-8" d="M1210.06,197.64v1.6h-.16v-1.45h-.38v-.15Z"/><path class="cls-8" d="M1211.53,198.77c0,.27-.19.49-.58.49a.84.84,0,0,1-.58-.21l.08-.13a.71.71,0,0,0,.5.19c.27,0,.41-.14.41-.33s-.13-.33-.53-.33h-.34l.08-.81h.87v.15h-.73l0,.51h.2C1211.35,198.3,1211.53,198.49,1211.53,198.77Z"/><path class="cls-8" d="M1218.32,197.64v1.6h-.17v-1.45h-.37v-.15Z"/><path class="cls-8" d="M1219.9,198.77a.49.49,0,0,1-.54.49c-.43,0-.66-.3-.66-.8s.3-.83.73-.83a.65.65,0,0,1,.38.09l-.06.13a.55.55,0,0,0-.31-.08c-.35,0-.57.23-.57.66a.62.62,0,0,0,0,.13.49.49,0,0,1,.48-.27A.48.48,0,0,1,1219.9,198.77Zm-.16,0c0-.21-.15-.34-.4-.34a.36.36,0,0,0-.41.34c0,.18.14.35.42.35A.35.35,0,0,0,1219.74,198.77Z"/><path class="cls-8" d="M1226.5,197.64v1.6h-.17v-1.45H1226v-.15Z"/><path class="cls-8" d="M1228,197.64v.12l-.67,1.48h-.18l.66-1.45H1227v.3h-.17v-.45Z"/><path class="cls-8" d="M1234.77,197.64v1.6h-.17v-1.45h-.38v-.15Z"/><path class="cls-8" d="M1236.38,198.8c0,.28-.24.46-.62.46s-.62-.18-.62-.46a.41.41,0,0,1,.31-.4.35.35,0,0,1-.25-.35c0-.26.22-.42.56-.42s.56.16.56.42a.35.35,0,0,1-.25.35A.41.41,0,0,1,1236.38,198.8Zm-.17,0c0-.2-.17-.32-.45-.32s-.45.12-.45.32.16.32.45.32S1236.21,199,1236.21,198.8Zm-.45-.46c.25,0,.39-.11.39-.28s-.15-.29-.39-.29-.4.11-.4.29S1235.51,198.34,1235.76,198.34Z"/><path class="cls-8" d="M1242.48,197.64v1.6h-.16v-1.45h-.38v-.15Z"/><path class="cls-8" d="M1244,198.43c0,.54-.3.83-.73.83a.76.76,0,0,1-.38-.09l.07-.13a.59.59,0,0,0,.31.07c.34,0,.56-.22.56-.65v-.13a.52.52,0,0,1-.49.27.49.49,0,0,1-.54-.48.49.49,0,0,1,.54-.49C1243.79,197.63,1244,197.92,1244,198.43Zm-.23-.32c0-.17-.14-.34-.42-.34a.35.35,0,0,0-.39.35c0,.21.16.34.4.34A.37.37,0,0,0,1243.79,198.11Z"/><path class="cls-8" d="M1250.85,199.1v.14h-1.12v-.11l.67-.65a.53.53,0,0,0,.21-.4c0-.19-.13-.3-.37-.3a.54.54,0,0,0-.44.18l-.12-.1a.72.72,0,0,1,.57-.23c.32,0,.53.16.53.43a.67.67,0,0,1-.26.5l-.55.54Z"/><path class="cls-8" d="M1251.05,198.44c0-.51.27-.81.64-.81s.64.3.64.81-.27.82-.64.82S1251.05,199,1251.05,198.44Zm1.11,0c0-.42-.19-.66-.47-.66s-.47.24-.47.66.19.67.47.67S1252.16,198.87,1252.16,198.44Z"/><path class="cls-8" d="M1258.57,199.1v.14h-1.12v-.11l.66-.65c.18-.18.22-.29.22-.4s-.13-.3-.38-.3a.54.54,0,0,0-.43.18l-.12-.1a.7.7,0,0,1,.57-.23c.32,0,.53.16.53.43a.66.66,0,0,1-.27.5l-.54.54Z"/><path class="cls-8" d="M1259.22,197.64v1.6h-.16v-1.45h-.38v-.15Z"/><path class="cls-8" d="M1266.29,199.1v.14h-1.12v-.11l.66-.65c.18-.18.22-.29.22-.4s-.13-.3-.38-.3a.56.56,0,0,0-.44.18l-.11-.1a.7.7,0,0,1,.57-.23c.32,0,.53.16.53.43a.66.66,0,0,1-.27.5l-.54.54Z"/><path class="cls-8" d="M1267.59,199.1v.14h-1.13v-.11l.67-.65a.53.53,0,0,0,.21-.4c0-.19-.13-.3-.37-.3a.56.56,0,0,0-.44.18l-.11-.1a.69.69,0,0,1,.56-.23c.33,0,.53.16.53.43a.64.64,0,0,1-.26.5l-.54.54Z"/><path class="cls-8" d="M1274,199.1v.14h-1.13v-.11l.67-.65a.53.53,0,0,0,.21-.4c0-.19-.13-.3-.37-.3a.56.56,0,0,0-.44.18l-.11-.1a.69.69,0,0,1,.56-.23c.33,0,.53.16.53.43a.64.64,0,0,1-.26.5l-.54.54Z"/><path class="cls-8" d="M1275.27,198.78c0,.27-.19.48-.58.48a.84.84,0,0,1-.58-.21l.08-.13a.71.71,0,0,0,.5.19c.27,0,.41-.13.41-.33s-.13-.31-.43-.31h-.11v-.13l.44-.55h-.82v-.15h1v.12l-.45.57C1275.1,198.35,1275.27,198.53,1275.27,198.78Z"/><path class="cls-8" d="M1278.36,195.08c0,.08-41.09.14-91.76.14s-91.78-.06-91.78-.14,41.08-.13,91.78-.13S1278.36,195,1278.36,195.08Z"/><g class="cls-9"><rect class="cls-7" x="1213" y="137.94" width="6.68" height="48.88"/></g><g class="cls-6"><rect class="cls-7" x="1156.41" y="169.85" width="6.68" height="16.98"/></g><path class="cls-2" d="M1108.08,136a9.19,9.19,0,0,1-3.08,0,8.54,8.54,0,0,1,3.08,0Z"/><path class="cls-2" d="M1120.34,136a36.2,36.2,0,0,1-6.13,0,33.62,33.62,0,0,1,6.13,0Z"/><path class="cls-2" d="M1132.6,136a36.2,36.2,0,0,1-6.13,0,33.62,33.62,0,0,1,6.13,0Z"/><path class="cls-2" d="M1144.87,136a36.31,36.31,0,0,1-6.14,0,33.73,33.73,0,0,1,6.14,0Z"/><path class="cls-2" d="M1157.13,136a36.2,36.2,0,0,1-6.13,0,33.62,33.62,0,0,1,6.13,0Z"/><path class="cls-2" d="M1169.39,136a36.2,36.2,0,0,1-6.13,0,33.62,33.62,0,0,1,6.13,0Z"/><path class="cls-2" d="M1181.66,136a36.2,36.2,0,0,1-6.13,0,33.62,33.62,0,0,1,6.13,0Z"/><path class="cls-2" d="M1193.92,136a36.2,36.2,0,0,1-6.13,0,33.62,33.62,0,0,1,6.13,0Z"/><path class="cls-2" d="M1206.18,136a36.2,36.2,0,0,1-6.13,0,33.62,33.62,0,0,1,6.13,0Z"/><path class="cls-2" d="M1218.45,136a36.31,36.31,0,0,1-6.14,0,33.73,33.73,0,0,1,6.14,0Z"/><path class="cls-2" d="M1230.71,136a36.2,36.2,0,0,1-6.13,0,33.62,33.62,0,0,1,6.13,0Z"/><path class="cls-2" d="M1243,136a36.2,36.2,0,0,1-6.13,0,33.62,33.62,0,0,1,6.13,0Z"/><path class="cls-2" d="M1255.24,136a36.2,36.2,0,0,1-6.13,0,33.62,33.62,0,0,1,6.13,0Z"/><path class="cls-2" d="M1267.51,136a36.31,36.31,0,0,1-6.14,0,33.73,33.73,0,0,1,6.14,0Z"/><path class="cls-2" d="M1276.71,136a9.19,9.19,0,0,1-3.08,0,8.54,8.54,0,0,1,3.08,0Z"/><path class="cls-5" d="M1107.1,180.17a42.55,42.55,0,0,1-3.24,3.43,44.45,44.45,0,0,1-3.42,3.23,42.18,42.18,0,0,1,3.23-3.42A40.67,40.67,0,0,1,1107.1,180.17Z"/><path class="cls-5" d="M1121.57,180.28a40.67,40.67,0,0,1-3.24,3.43,42.18,42.18,0,0,1-3.42,3.23,42.18,42.18,0,0,1,3.23-3.42A40.67,40.67,0,0,1,1121.57,180.28Z"/><path class="cls-5" d="M1149.2,180.17a44.45,44.45,0,0,1-3.23,3.42,39.3,39.3,0,0,1-3.43,3.23,43.52,43.52,0,0,1,3.24-3.42A42.18,42.18,0,0,1,1149.2,180.17Z"/><path class="cls-5" d="M1107,174.26a43.52,43.52,0,0,1-3.24,3.42,43.52,43.52,0,0,1-3.42,3.24,39.49,39.49,0,0,1,3.23-3.43A41.47,41.47,0,0,1,1107,174.26Z"/><path class="cls-5" d="M1135.2,180.27a43.52,43.52,0,0,1-3.24,3.42,43.52,43.52,0,0,1-3.42,3.24,41.47,41.47,0,0,1,3.23-3.43A43.42,43.42,0,0,1,1135.2,180.27Z"/><path class="cls-5" d="M1135.11,174.36a43.52,43.52,0,0,1-3.24,3.42,40.12,40.12,0,0,1-3.42,3.23,44.45,44.45,0,0,1,3.23-3.42A39.3,39.3,0,0,1,1135.11,174.36Z"/><path class="cls-5" d="M1133,169.85a19,19,0,0,1-2.19,2.38,20,20,0,0,1-2.38,2.19,20,20,0,0,1,2.19-2.38A21,21,0,0,1,1133,169.85Z"/><g class="cls-10"><path class="cls-7" d="M1191.21,180.17a43.52,43.52,0,0,1-3.24,3.42,40.12,40.12,0,0,1-3.42,3.23,42.18,42.18,0,0,1,3.23-3.42A39.49,39.49,0,0,1,1191.21,180.17Z"/></g><g class="cls-10"><path class="cls-7" d="M1191.12,174.25a40.67,40.67,0,0,1-3.24,3.43,42.18,42.18,0,0,1-3.42,3.23,42.18,42.18,0,0,1,3.23-3.42A40.67,40.67,0,0,1,1191.12,174.25Z"/></g><g class="cls-10"><path class="cls-7" d="M1191.12,167.66a40.67,40.67,0,0,1-3.24,3.43,42.18,42.18,0,0,1-3.42,3.23,42.18,42.18,0,0,1,3.23-3.42A40.67,40.67,0,0,1,1191.12,167.66Z"/></g><g class="cls-10"><path class="cls-7" d="M1191.21,161.29a43.52,43.52,0,0,1-3.24,3.42,43.52,43.52,0,0,1-3.42,3.24,39.49,39.49,0,0,1,3.23-3.43A41.47,41.47,0,0,1,1191.21,161.29Z"/></g><g class="cls-10"><path class="cls-7" d="M1191.12,155.38a43.52,43.52,0,0,1-3.24,3.42,40.12,40.12,0,0,1-3.42,3.23,42.18,42.18,0,0,1,3.23-3.42A37.69,37.69,0,0,1,1191.12,155.38Z"/></g><g class="cls-10"><path class="cls-7" d="M1191.12,148.79a43.52,43.52,0,0,1-3.24,3.42,40.12,40.12,0,0,1-3.42,3.23,42.18,42.18,0,0,1,3.23-3.42A37.69,37.69,0,0,1,1191.12,148.79Z"/></g><path class="cls-5" d="M1205.33,180.17a43.52,43.52,0,0,1-3.24,3.42,40.12,40.12,0,0,1-3.42,3.23,42.18,42.18,0,0,1,3.23-3.42A39.49,39.49,0,0,1,1205.33,180.17Z"/><path class="cls-5" d="M1205.24,174.25a40.67,40.67,0,0,1-3.24,3.43,42.18,42.18,0,0,1-3.42,3.23,42.18,42.18,0,0,1,3.23-3.42A40.67,40.67,0,0,1,1205.24,174.25Z"/><path class="cls-5" d="M1205.24,167.66a40.67,40.67,0,0,1-3.24,3.43,42.18,42.18,0,0,1-3.42,3.23,42.18,42.18,0,0,1,3.23-3.42A40.67,40.67,0,0,1,1205.24,167.66Z"/><path class="cls-5" d="M1205.33,161.29a43.52,43.52,0,0,1-3.24,3.42,43.52,43.52,0,0,1-3.42,3.24,39.49,39.49,0,0,1,3.23-3.43A41.47,41.47,0,0,1,1205.33,161.29Z"/><path class="cls-5" d="M1205.24,155.38a43.52,43.52,0,0,1-3.24,3.42,40.12,40.12,0,0,1-3.42,3.23,42.18,42.18,0,0,1,3.23-3.42A37.69,37.69,0,0,1,1205.24,155.38Z"/><path class="cls-2" d="M1233.36,180.17a43.52,43.52,0,0,1-3.24,3.42,38.44,38.44,0,0,1-3.42,3.23,43.52,43.52,0,0,1,3.24-3.42A40.32,40.32,0,0,1,1233.36,180.17Z"/><path class="cls-2" d="M1233.27,174.25a40.67,40.67,0,0,1-3.24,3.43,40.32,40.32,0,0,1-3.42,3.23,43.52,43.52,0,0,1,3.24-3.42A41.55,41.55,0,0,1,1233.27,174.25Z"/><path class="cls-2" d="M1233.27,167.66a40.67,40.67,0,0,1-3.24,3.43,40.32,40.32,0,0,1-3.42,3.23,43.52,43.52,0,0,1,3.24-3.42A41.55,41.55,0,0,1,1233.27,167.66Z"/><path class="cls-2" d="M1233.36,161.29a43.52,43.52,0,0,1-3.24,3.42,41.55,41.55,0,0,1-3.42,3.24,40.67,40.67,0,0,1,3.24-3.43A42.39,42.39,0,0,1,1233.36,161.29Z"/><path class="cls-2" d="M1233.27,155.38a43.52,43.52,0,0,1-3.24,3.42,38.44,38.44,0,0,1-3.42,3.23,43.52,43.52,0,0,1,3.24-3.42A38.44,38.44,0,0,1,1233.27,155.38Z"/><path class="cls-2" d="M1233.27,149.73a40.67,40.67,0,0,1-3.24,3.43,40.32,40.32,0,0,1-3.42,3.23,43.52,43.52,0,0,1,3.24-3.42A41.55,41.55,0,0,1,1233.27,149.73Z"/><path class="cls-5" d="M1176.81,180.17a43.52,43.52,0,0,1-3.24,3.42,40.12,40.12,0,0,1-3.42,3.23,42.18,42.18,0,0,1,3.23-3.42A39.49,39.49,0,0,1,1176.81,180.17Z"/><path class="cls-5" d="M1176.72,174.25a40.67,40.67,0,0,1-3.24,3.43,42.18,42.18,0,0,1-3.42,3.23,42.18,42.18,0,0,1,3.23-3.42A40.67,40.67,0,0,1,1176.72,174.25Z"/><path class="cls-5" d="M1176.72,167.66a40.67,40.67,0,0,1-3.24,3.43,42.18,42.18,0,0,1-3.42,3.23,42.18,42.18,0,0,1,3.23-3.42A40.67,40.67,0,0,1,1176.72,167.66Z"/><path class="cls-5" d="M1163.26,180.17a43.52,43.52,0,0,1-3.24,3.42,40.12,40.12,0,0,1-3.42,3.23,42.18,42.18,0,0,1,3.23-3.42A39.49,39.49,0,0,1,1163.26,180.17Z"/><path class="cls-5" d="M1163.17,174.25a40.67,40.67,0,0,1-3.24,3.43,42.18,42.18,0,0,1-3.42,3.23,42.18,42.18,0,0,1,3.23-3.42A40.67,40.67,0,0,1,1163.17,174.25Z"/><path class="cls-5" d="M1161,169.79a38.25,38.25,0,0,1-4.53,4.53,38.25,38.25,0,0,1,4.53-4.53Z"/><path class="cls-5" d="M1176.81,161.29a43.52,43.52,0,0,1-3.24,3.42,43.52,43.52,0,0,1-3.42,3.24,39.49,39.49,0,0,1,3.23-3.43A41.47,41.47,0,0,1,1176.81,161.29Z"/><path class="cls-5" d="M1176.81,149.44a43.52,43.52,0,0,1-3.24,3.42,43.52,43.52,0,0,1-3.42,3.24,78.48,78.48,0,0,1,6.66-6.66Z"/><path class="cls-5" d="M1176.72,155.38a43.52,43.52,0,0,1-3.24,3.42,40.12,40.12,0,0,1-3.42,3.23,42.18,42.18,0,0,1,3.23-3.42A37.69,37.69,0,0,1,1176.72,155.38Z"/><path class="cls-5" d="M1219.77,180.17a43.52,43.52,0,0,1-3.24,3.42,40.12,40.12,0,0,1-3.42,3.23,42.18,42.18,0,0,1,3.23-3.42A39.49,39.49,0,0,1,1219.77,180.17Z"/><path class="cls-5" d="M1219.68,174.25a40.67,40.67,0,0,1-3.24,3.43,42.18,42.18,0,0,1-3.42,3.23,42.18,42.18,0,0,1,3.23-3.42A40.67,40.67,0,0,1,1219.68,174.25Z"/><path class="cls-5" d="M1219.68,167.66a40.67,40.67,0,0,1-3.24,3.43,42.18,42.18,0,0,1-3.42,3.23,42.18,42.18,0,0,1,3.23-3.42A40.67,40.67,0,0,1,1219.68,167.66Z"/><path class="cls-5" d="M1219.77,161.29a43.52,43.52,0,0,1-3.24,3.42,43.52,43.52,0,0,1-3.42,3.24,39.49,39.49,0,0,1,3.23-3.43A41.47,41.47,0,0,1,1219.77,161.29Z"/><path class="cls-5" d="M1219.68,155.38a43.52,43.52,0,0,1-3.24,3.42A40.12,40.12,0,0,1,1213,162a42.18,42.18,0,0,1,3.23-3.42A37.69,37.69,0,0,1,1219.68,155.38Z"/><path class="cls-5" d="M1219.68,148.79a43.52,43.52,0,0,1-3.24,3.42,40.12,40.12,0,0,1-3.42,3.23,42.18,42.18,0,0,1,3.23-3.42A37.69,37.69,0,0,1,1219.68,148.79Z"/><path class="cls-5" d="M1219.68,142.8a43.52,43.52,0,0,1-3.24,3.42,40.12,40.12,0,0,1-3.42,3.23,42.18,42.18,0,0,1,3.23-3.42A37.69,37.69,0,0,1,1219.68,142.8Z"/><path class="cls-5" d="M1218.54,137.94a27.93,27.93,0,0,1-2.67,2.86,27.64,27.64,0,0,1-2.85,2.66,29.07,29.07,0,0,1,2.66-2.85A30.79,30.79,0,0,1,1218.54,137.94Z"/><g class="cls-10"><path class="cls-7" d="M1191.21,142.09a41.55,41.55,0,0,1-3.24,3.42,43.52,43.52,0,0,1-3.42,3.24,78.48,78.48,0,0,1,6.66-6.66Z"/></g><g class="cls-10"><path class="cls-7" d="M1191.12,136.18a43.52,43.52,0,0,1-3.24,3.42,40.12,40.12,0,0,1-3.42,3.23,42.18,42.18,0,0,1,3.23-3.42A37.69,37.69,0,0,1,1191.12,136.18Z"/></g><g class="cls-10"><path class="cls-7" d="M1188.44,132.26a15.31,15.31,0,0,1-1.9,2.09,14.33,14.33,0,0,1-2.08,1.89,15.09,15.09,0,0,1,1.89-2.08A15.31,15.31,0,0,1,1188.44,132.26Z"/></g><path class="cls-5" d="M1248.37,180.41a42.18,42.18,0,0,1-3.23,3.42,40.67,40.67,0,0,1-3.43,3.24,40.67,40.67,0,0,1,3.24-3.43A44.45,44.45,0,0,1,1248.37,180.41Z"/><path class="cls-5" d="M1248.28,174.5a42.18,42.18,0,0,1-3.23,3.42,37.69,37.69,0,0,1-3.43,3.23,43.52,43.52,0,0,1,3.24-3.42A40.12,40.12,0,0,1,1248.28,174.5Z"/><path class="cls-5" d="M1248.24,167.94a38.81,38.81,0,0,1-3.21,3.41,37.22,37.22,0,0,1-3.41,3.21,86.14,86.14,0,0,1,6.62-6.62Z"/><path class="cls-5" d="M1263.59,180.41a43.52,43.52,0,0,1-3.24,3.42,43.52,43.52,0,0,1-3.42,3.24,39.49,39.49,0,0,1,3.23-3.43A41.47,41.47,0,0,1,1263.59,180.41Z"/><path class="cls-5" d="M1263.5,174.5a43.52,43.52,0,0,1-3.24,3.42,40.12,40.12,0,0,1-3.42,3.23,42.18,42.18,0,0,1,3.23-3.42A37.69,37.69,0,0,1,1263.5,174.5Z"/><path class="cls-5" d="M1259,172.45s-.07.17-.25.38a4.34,4.34,0,0,1-.31.36l-.2.2-.1.11-.06.06,0,0,0,0h0c-.09-.08.18.19-.19-.18h0l.19.19h0l0,0,0,0-.11.11-.21.19-.35.32c-.21.17-.36.27-.38.24s.07-.17.24-.37l.32-.36.19-.21.11-.1,0-.06,0,0h0l.19.19h0l-.19-.18h0l0,0,0,0,.05-.06.11-.1.2-.19c.13-.13.26-.23.36-.32S1258.92,172.43,1259,172.45Z"/><path class="cls-5" d="M1277.68,180.41a43.52,43.52,0,0,1-3.24,3.42,43.52,43.52,0,0,1-3.42,3.24,39.49,39.49,0,0,1,3.23-3.43A41.47,41.47,0,0,1,1277.68,180.41Z"/><path class="cls-5" d="M1274.14,177.94a19.24,19.24,0,0,1-3.21,3.21,9.9,9.9,0,0,1,1.51-1.7A9.4,9.4,0,0,1,1274.14,177.94Z"/><path class="cls-2" d="M1304.33,84c0,.07-51,.13-113.83.13s-113.85-.06-113.85-.13,51-.14,113.85-.14S1304.33,83.92,1304.33,84Z"/><rect class="cls-5" x="1109.98" y="99.52" width="47.76" height="15.98" rx="4.64"/><path class="cls-7" d="M1120.24,110.72l-1.34-2.27-.54.62a.52.52,0,0,1-.55.16.54.54,0,0,1-.36-.46l-.32-4.15a.51.51,0,0,1,.24-.49.52.52,0,0,1,.54,0l3.47,2.13a.53.53,0,0,1,.25.51.52.52,0,0,1-.37.43l-.73.23,1.59,2.14Zm-1.26-3.14,1.43,2.43,1-.58-1.68-2.28,1.42-.44-3.46-2.14-.27,0,.26,0,.32,4.15Z"/><g class="cls-11"><path class="cls-7" d="M1127.8,114.33c-.07,0-.13-3.13-.13-7s.06-7,.13-7,.14,3.13.14,7S1127.88,114.33,1127.8,114.33Z"/></g><path class="cls-7" d="M1130.46,104.33a.89.89,0,0,1,.93-.9.84.84,0,0,1,.64.25l-.12.12a.72.72,0,0,0-.52-.21.73.73,0,0,0-.75.74.72.72,0,0,0,.75.73.68.68,0,0,0,.52-.21l.12.12a.86.86,0,0,1-.65.26A.89.89,0,0,1,1130.46,104.33Z"/><path class="cls-7" d="M1132.4,103.33h.18v1.88h-.18Z"/><path class="cls-7" d="M1133,103.46a.13.13,0,1,1,.13.13A.13.13,0,0,1,1133,103.46Zm0,.42h.18v1.33h-.18Z"/><path class="cls-7" d="M1133.62,104.55a.66.66,0,0,1,.69-.68.6.6,0,0,1,.52.26l-.13.09a.47.47,0,0,0-.39-.19.52.52,0,0,0,0,1,.47.47,0,0,0,.39-.19l.13.09a.6.6,0,0,1-.52.26A.66.66,0,0,1,1133.62,104.55Z"/><path class="cls-7" d="M1135.66,104.54l-.32.29v.38h-.18v-1.88h.18v1.28l.8-.73h.22l-.57.54.62.79h-.22Z"/><path class="cls-7" d="M1136.46,105.06l.08-.14a.85.85,0,0,0,.47.15c.26,0,.36-.09.36-.22,0-.35-.86-.07-.86-.6,0-.22.19-.38.52-.38a.93.93,0,0,1,.47.12l-.07.15a.72.72,0,0,0-.4-.12c-.24,0-.34.1-.34.22,0,.36.86.09.86.6,0,.23-.2.38-.55.38A.91.91,0,0,1,1136.46,105.06Z"/><path class="cls-7" d="M1131.91,107.66v3.88h-.72v-3.27h-.82v-.61Z"/><path class="cls-7" d="M1132.68,109.6c0-1.27.69-2,1.61-2s1.63.72,1.63,2-.7,2-1.63,2S1132.68,110.87,1132.68,109.6Zm2.51,0c0-.94-.36-1.37-.9-1.37s-.89.43-.89,1.37.37,1.37.89,1.37S1135.19,110.54,1135.19,109.6Z"/><path class="cls-7" d="M1136.31,111.12a.45.45,0,0,1,.46-.46.44.44,0,0,1,.45.46.45.45,0,0,1-.45.46A.46.46,0,0,1,1136.31,111.12Z"/><path class="cls-7" d="M1140.5,110.35c0,.68-.49,1.24-1.53,1.24a2.39,2.39,0,0,1-1.46-.45l.31-.55a1.84,1.84,0,0,0,1.14.38c.51,0,.82-.23.82-.59s-.24-.61-1-.61h-.94l.2-2.11h2.28v.61h-1.67l-.08.89h.37C1140,109.16,1140.5,109.66,1140.5,110.35Z"/><path class="cls-7" d="M1140.92,109.6c0-1.27.69-2,1.61-2s1.62.72,1.62,2-.69,2-1.62,2S1140.92,110.87,1140.92,109.6Zm2.51,0c0-.94-.37-1.37-.9-1.37s-.89.43-.89,1.37.37,1.37.89,1.37S1143.43,110.54,1143.43,109.6Z"/><path class="cls-7" d="M1144.64,109.6c0-1.27.7-2,1.62-2s1.62.72,1.62,2-.7,2-1.62,2S1144.64,110.87,1144.64,109.6Zm2.51,0c0-.94-.36-1.37-.89-1.37s-.9.43-.9,1.37.37,1.37.9,1.37S1147.15,110.54,1147.15,109.6Z"/><rect class="cls-5" x="1166.44" y="99.52" width="47.76" height="15.98" rx="2.78"/><g class="cls-9"><rect class="cls-7" x="1166.44" y="99.52" width="47.76" height="15.98" rx="3.41"/></g><path class="cls-7" d="M1188.45,104.05c0,.37-.27.6-.72.6h-.47v.56h-.19v-1.77h.66C1188.18,103.44,1188.45,103.67,1188.45,104.05Zm-.18,0c0-.29-.19-.45-.54-.45h-.47v.89h.47C1188.08,104.49,1188.27,104.33,1188.27,104.05Z"/><path class="cls-7" d="M1190,104.6h-1.11a.49.49,0,0,0,.52.46.5.5,0,0,0,.41-.17l.1.12a.69.69,0,1,1-.56-1.14.64.64,0,0,1,.65.68A.43.43,0,0,0,1190,104.6Zm-1.11-.13h.94a.47.47,0,0,0-.94,0Z"/><path class="cls-7" d="M1191,103.87v.18h0a.43.43,0,0,0-.45.49v.68h-.17v-1.33h.17v.26A.49.49,0,0,1,1191,103.87Z"/><path class="cls-7" d="M1191.56,103.72v.16h.41V104h-.4v1.18h-.18V104h-.24v-.15h.24v-.16a.37.37,0,0,1,.4-.4.42.42,0,0,1,.27.09l-.06.13a.32.32,0,0,0-.2-.07A.22.22,0,0,0,1191.56,103.72Z"/><path class="cls-7" d="M1192.06,104.55a.66.66,0,0,1,.68-.68.68.68,0,1,1-.68.68Zm1.17,0a.48.48,0,0,0-.49-.52.52.52,0,0,0,0,1A.48.48,0,0,0,1193.23,104.55Z"/><path class="cls-7" d="M1194.45,103.87v.18h0a.43.43,0,0,0-.45.49v.68h-.18v-1.33h.18v.26A.49.49,0,0,1,1194.45,103.87Z"/><path class="cls-7" d="M1197,104.44v.77h-.18v-.75c0-.28-.14-.43-.38-.43a.43.43,0,0,0-.44.48v.7h-.18v-.75c0-.28-.14-.43-.39-.43a.43.43,0,0,0-.44.48v.7h-.18v-1.33h.17v.24a.54.54,0,0,1,.49-.25.47.47,0,0,1,.47.28.59.59,0,0,1,.53-.28A.5.5,0,0,1,1197,104.44Z"/><path class="cls-7" d="M1198.47,104.39v.82h-.17V105a.5.5,0,0,1-.46.22c-.3,0-.49-.15-.49-.38s.13-.38.52-.38h.42v-.08c0-.23-.13-.35-.38-.35a.71.71,0,0,0-.44.15l-.08-.13a.85.85,0,0,1,.54-.18A.48.48,0,0,1,1198.47,104.39Zm-.18.42v-.22h-.42c-.26,0-.34.11-.34.24s.12.25.34.25A.42.42,0,0,0,1198.29,104.81Z"/><path class="cls-7" d="M1200.18,104.44v.77H1200v-.75c0-.28-.14-.43-.4-.43a.44.44,0,0,0-.46.48v.7H1199v-1.33h.17v.25a.56.56,0,0,1,.51-.26A.51.51,0,0,1,1200.18,104.44Z"/><path class="cls-7" d="M1200.54,104.55a.66.66,0,0,1,.69-.68.6.6,0,0,1,.52.26l-.13.09a.48.48,0,0,0-.39-.19.52.52,0,0,0,0,1,.48.48,0,0,0,.39-.19l.13.09a.6.6,0,0,1-.52.26A.66.66,0,0,1,1200.54,104.55Z"/><path class="cls-7" d="M1203.24,104.6h-1.11a.49.49,0,0,0,.52.46.52.52,0,0,0,.41-.17l.1.12a.67.67,0,0,1-.52.21.65.65,0,0,1-.69-.67.65.65,0,1,1,1.29,0Zm-1.11-.13h.94a.47.47,0,0,0-.94,0Z"/><path class="cls-7" d="M1190.17,110.43c0,.71-.63,1.16-1.59,1.16s-1.58-.45-1.58-1.16a1,1,0,0,1,.62-.93.88.88,0,0,1-.48-.81c0-.67.58-1.08,1.44-1.08s1.45.41,1.45,1.08a.89.89,0,0,1-.49.81A1,1,0,0,1,1190.17,110.43Zm-.73,0c0-.38-.33-.62-.86-.62s-.85.24-.85.62.32.63.85.63S1189.44,110.8,1189.44,110.4Zm-1.59-1.68c0,.33.28.54.73.54s.74-.21.74-.54-.3-.55-.74-.55S1187.85,108.37,1187.85,108.72Z"/><path class="cls-7" d="M1190.66,111.12a.45.45,0,0,1,.46-.46.44.44,0,0,1,.45.46.45.45,0,0,1-.45.46A.46.46,0,0,1,1190.66,111.12Z"/><path class="cls-7" d="M1194.85,110.35c0,.68-.49,1.24-1.53,1.24a2.34,2.34,0,0,1-1.45-.45l.3-.55a1.84,1.84,0,0,0,1.14.38c.51,0,.82-.23.82-.59s-.24-.61-1-.61h-.94l.2-2.11h2.28v.61H1193l-.08.89h.37C1194.39,109.16,1194.85,109.66,1194.85,110.35Z"/><path class="cls-7" d="M1195.27,109.6c0-1.27.69-2,1.61-2s1.63.72,1.63,2-.7,2-1.63,2S1195.27,110.87,1195.27,109.6Zm2.51,0c0-.94-.36-1.37-.9-1.37s-.89.43-.89,1.37.37,1.37.89,1.37S1197.78,110.54,1197.78,109.6Z"/><path class="cls-7" d="M1199,109.6c0-1.27.7-2,1.62-2s1.62.72,1.62,2-.7,2-1.62,2S1199,110.87,1199,109.6Zm2.51,0c0-.94-.36-1.37-.89-1.37s-.89.43-.89,1.37.36,1.37.89,1.37S1201.5,110.54,1201.5,109.6Z"/><path class="cls-7" d="M1174.12,110.79a.65.65,0,0,1-.34-.11.6.6,0,0,1-.26-.58l.25-1.83a.08.08,0,0,0,0-.08l-1.36-1.24a.61.61,0,0,1-.18-.62.59.59,0,0,1,.48-.43l1.81-.33a.11.11,0,0,0,.07-.06l.76-1.68a.62.62,0,0,1,.53-.36.64.64,0,0,1,.56.32l.87,1.63a.1.1,0,0,0,.08,0l1.83.2a.62.62,0,0,1,.51.4.61.61,0,0,1-.13.63l-1.28,1.33a.11.11,0,0,0,0,.08l.38,1.81a.61.61,0,0,1-.86.67l-1.66-.8a.14.14,0,0,0-.09,0l-1.6.92A.68.68,0,0,1,1174.12,110.79Zm1.76-6.8h0a.09.09,0,0,0-.08.05l-.76,1.69a.59.59,0,0,1-.45.34l-1.81.33a.11.11,0,0,0-.08.07.11.11,0,0,0,0,.1l1.37,1.24a.61.61,0,0,1,.19.53l-.25,1.83a.08.08,0,0,0,0,.09.09.09,0,0,0,.1,0l1.6-.91a.61.61,0,0,1,.57,0l1.66.8a.11.11,0,0,0,.1,0,.08.08,0,0,0,0-.09l-.38-1.81a.59.59,0,0,1,.16-.54l1.27-1.34a.08.08,0,0,0,0-.1s0,0-.07-.06l-1.84-.2a.61.61,0,0,1-.47-.32L1176,104A.08.08,0,0,0,1175.88,104Z"/><rect class="cls-3" x="1222.89" y="99.52" width="47.76" height="15.98" rx="3.64"/><g class="cls-11"><path class="cls-7" d="M1240.71,114.33c-.07,0-.13-3.13-.13-7s.06-7,.13-7,.14,3.13.14,7S1240.79,114.33,1240.71,114.33Z"/></g><path class="cls-7" d="M1243.52,103.44h.72a.89.89,0,1,1,0,1.77h-.72Zm.71,1.61a.73.73,0,1,0,0-1.45h-.52v1.45Z"/><path class="cls-7" d="M1245.44,104.55a.68.68,0,1,1,.68.67A.66.66,0,0,1,1245.44,104.55Zm1.17,0a.49.49,0,1,0-.49.51A.48.48,0,0,0,1246.61,104.55Z"/><path class="cls-7" d="M1249.08,103.88l-.5,1.33h-.17l-.42-1.09-.42,1.09h-.17l-.5-1.33h.17l.42,1.13.42-1.13h.16l.42,1.13.42-1.13Z"/><path class="cls-7" d="M1250.58,104.44v.77h-.18v-.75a.38.38,0,0,0-.4-.43.44.44,0,0,0-.47.48v.7h-.18v-1.33h.17v.25a.56.56,0,0,1,.51-.26A.52.52,0,0,1,1250.58,104.44Z"/><path class="cls-7" d="M1251.07,103.33h.18v1.88h-.18Z"/><path class="cls-7" d="M1251.61,104.55a.68.68,0,1,1,.68.67A.66.66,0,0,1,1251.61,104.55Zm1.17,0a.49.49,0,1,0-.49.51A.48.48,0,0,0,1252.78,104.55Z"/><path class="cls-7" d="M1254.33,104.39v.82h-.17V105a.5.5,0,0,1-.46.22c-.3,0-.48-.15-.48-.38s.13-.38.51-.38h.42v-.08c0-.23-.13-.35-.38-.35a.71.71,0,0,0-.44.15l-.08-.13a.88.88,0,0,1,.54-.18A.47.47,0,0,1,1254.33,104.39Zm-.18.42v-.22h-.42c-.25,0-.34.11-.34.24s.13.25.34.25A.42.42,0,0,0,1254.15,104.81Z"/><path class="cls-7" d="M1256,103.33v1.88h-.17V105a.58.58,0,0,1-.52.27.68.68,0,0,1,0-1.35.58.58,0,0,1,.51.26v-.8Zm-.18,1.22a.48.48,0,0,0-.49-.52.52.52,0,0,0,0,1A.48.48,0,0,0,1255.86,104.55Z"/><path class="cls-7" d="M1246.57,110.34a1.28,1.28,0,0,1-1.41,1.25c-1.06,0-1.68-.68-1.68-1.92a1.83,1.83,0,0,1,1.9-2.06,1.91,1.91,0,0,1,1,.25l-.27.54a1.3,1.3,0,0,0-.74-.19c-.73,0-1.19.45-1.19,1.33h0a1.35,1.35,0,0,1,1-.4A1.21,1.21,0,0,1,1246.57,110.34Zm-.69,0c0-.4-.31-.66-.78-.66a.71.71,0,0,0-.79.67c0,.36.29.65.81.65A.68.68,0,0,0,1245.88,110.37Z"/><path class="cls-7" d="M1247,111.12a.46.46,0,1,1,.91,0,.46.46,0,1,1-.91,0Z"/><path class="cls-7" d="M1251.17,110.35c0,.68-.49,1.24-1.53,1.24a2.39,2.39,0,0,1-1.46-.45l.31-.55a1.84,1.84,0,0,0,1.14.38c.51,0,.82-.23.82-.59s-.24-.61-1-.61h-.94l.2-2.11h2.27v.61h-1.66l-.09.89h.38C1250.71,109.16,1251.17,109.66,1251.17,110.35Z"/><path class="cls-7" d="M1251.58,109.6c0-1.27.7-2,1.62-2s1.62.72,1.62,2-.69,2-1.62,2S1251.58,110.87,1251.58,109.6Zm2.52,0c0-.94-.37-1.37-.9-1.37s-.89.43-.89,1.37.36,1.37.89,1.37S1254.1,110.54,1254.1,109.6Z"/><path class="cls-7" d="M1255.31,109.6c0-1.27.7-2,1.61-2s1.63.72,1.63,2-.7,2-1.63,2S1255.31,110.87,1255.31,109.6Zm2.51,0c0-.94-.36-1.37-.9-1.37s-.89.43-.89,1.37.37,1.37.89,1.37S1257.82,110.54,1257.82,109.6Z"/><path class="cls-7" d="M1232.42,111.79a3.66,3.66,0,1,1,3.66-3.65A3.66,3.66,0,0,1,1232.42,111.79Zm0-6.8a3.15,3.15,0,1,0,3.15,3.15A3.15,3.15,0,0,0,1232.42,105Z"/><path class="cls-7" d="M1232.4,110.37a.25.25,0,0,1-.19-.09l-1.55-1.88a.25.25,0,0,1,0-.36.25.25,0,0,1,.36,0l1.34,1.62,1.22-1.7a.26.26,0,0,1,.36-.06.26.26,0,0,1,.06.36l-1.42,2a.23.23,0,0,1-.2.11Z"/><path class="cls-7" d="M1232.38,110.3a.26.26,0,0,1-.26-.26v-3.61a.26.26,0,0,1,.52,0V110A.26.26,0,0,1,1232.38,110.3Z"/><circle class="cls-2" cx="1089.18" cy="77.5" r="1.38"/><circle class="cls-2" cx="1093.97" cy="77.5" r="1.38"/><circle class="cls-2" cx="1098.76" cy="77.5" r="1.38"/><polygon class="cls-2" points="1271.6 43.22 1271.57 43.22 1271.86 42.2 1271.88 42.21 1271.6 43.22"/><path class="cls-3" d="M1292,238.24c0,.07-45.35.13-101.27.13s-101.29-.06-101.29-.13,45.34-.14,101.29-.14S1292,238.16,1292,238.24Z"/><path class="cls-2" d="M1354.58,243.62c-.07,0-.16-12-.2-26.86s0-26.86,0-26.86.16,12,.21,26.86S1354.65,243.62,1354.58,243.62Z"/><path class="cls-2" d="M1362.72,213.52a.93.93,0,0,1-.09.28c-.09.21-.2.46-.33.78-.07.17-.15.36-.24.56s-.16.44-.24.68l-.28.79c-.1.28-.18.58-.27.89a37.22,37.22,0,0,0-1,4.48c-.26,1.71-.46,3.6-.56,5.59a75.34,75.34,0,0,0,.29,10.23c.11,1.3.23,2.36.32,3.09q.06.51.09.84a1.27,1.27,0,0,1,0,.29.92.92,0,0,1-.07-.29c0-.22-.08-.49-.14-.83-.12-.73-.27-1.78-.41-3.08a67.13,67.13,0,0,1-.36-10.26,50.83,50.83,0,0,1,.59-5.62,34.19,34.19,0,0,1,1.08-4.49c.1-.32.19-.62.29-.9s.21-.53.3-.78.18-.46.27-.68l.26-.55.37-.76Z"/><path class="cls-2" d="M1361.79,203.8a1.91,1.91,0,0,1-.12.39c-.09.28-.22.65-.38,1.12-.08.25-.17.51-.28.81s-.19.62-.29,1c-.21.69-.46,1.49-.68,2.37l-.37,1.4c-.11.48-.22,1-.34,1.52-.26,1-.44,2.18-.68,3.37-.4,2.39-.75,5-1,7.81s-.33,5.45-.37,7.88,0,4.6.13,6.43c0,.92.09,1.75.13,2.47s.09,1.36.14,1.87.07.88.09,1.18a1.84,1.84,0,0,1,0,.41,2.26,2.26,0,0,1-.06-.41c0-.29-.08-.68-.14-1.17s-.12-1.14-.18-1.87-.13-1.55-.18-2.47c-.12-1.83-.17-4-.18-6.45s.12-5.1.35-7.89.61-5.44,1-7.83c.24-1.19.43-2.33.7-3.38.12-.53.24-1,.36-1.52l.38-1.39c.23-.89.49-1.68.72-2.38l.32-1,.3-.8q.27-.69.42-1.11A1.55,1.55,0,0,1,1361.79,203.8Z"/><path class="cls-2" d="M1352.27,245.75s0-.05,0-.14l0-.42-.1-1.59c-.09-1.4-.22-3.4-.37-5.86-.32-4.94-.78-11.78-1.61-19.29-.42-3.76-.92-7.32-1.43-10.56-.27-1.61-.52-3.15-.8-4.58s-.53-2.76-.79-4-.51-2.3-.72-3.26-.42-1.79-.59-2.46l-.38-1.55-.09-.4,0-.14s0,0,0,.13l.12.4c.1.37.25.88.43,1.54s.4,1.48.63,2.44.51,2.05.76,3.26.56,2.54.82,4,.55,3,.83,4.58c.52,3.24,1,6.81,1.45,10.57.83,7.52,1.26,14.36,1.53,19.31.14,2.48.23,4.48.29,5.86,0,.68,0,1.22.06,1.6v.41A.85.85,0,0,1,1352.27,245.75Z"/><path class="cls-5" d="M1354.28,195.68a3.63,3.63,0,0,0-3.59-3,5.67,5.67,0,0,0-4.35,2.37,13.62,13.62,0,0,0-2.1,4.65,31.69,31.69,0,0,0-1.29,12.38,18.83,18.83,0,0,0,5.15,11.16,2.15,2.15,0,0,0,1.78.81,2.21,2.21,0,0,0,.94-.58,27.73,27.73,0,0,0,9-21.07,8.65,8.65,0,0,0-1.13-4.53c-.87-1.31-2.91-2.71-4.4-2.18"/><path class="cls-5" d="M1341.51,182l-2.41,4.37c-.06.1-.13.22-.25.22s-.22-.1-.29-.21l-6.37-9.78,1.47-.83Z"/><g class="cls-12"><path d="M1341.51,182l-2.41,4.37c-.06.1-.13.22-.25.22s-.22-.1-.29-.21l-6.37-9.78,1.47-.83Z"/></g><path class="cls-5" d="M1354.43,189.9l-21.73-12.83c-.23-.13-.47-.28-.53-.53s.15-.63.38-.87a15,15,0,0,1,11.62-4.56,13.28,13.28,0,0,1,10.5,6.53,12,12,0,0,1-.24,12.26"/><path class="cls-2" d="M1335.83,173l.28,0a7.92,7.92,0,0,1,.82,0,16.13,16.13,0,0,1,3,.24,17.45,17.45,0,0,1,4.3,1.3,17.67,17.67,0,0,1,9.77,11.42,17.54,17.54,0,0,1,.54,3,5.91,5.91,0,0,1,0,.63,1.12,1.12,0,0,1-.17.48,3.64,3.64,0,0,0,0-1.1,20.08,20.08,0,0,0-.62-2.94A18.09,18.09,0,0,0,1336.93,173C1336.22,173,1335.83,173,1335.83,173Z"/><path class="cls-2" d="M1351.49,181.05a6.2,6.2,0,0,1-1.1.5c-.69.27-1.66.62-2.74,1s-2.08.62-2.8.8a5,5,0,0,1-1.19.22,6.93,6.93,0,0,1,1.14-.4l2.77-.87,2.76-.89A5.7,5.7,0,0,1,1351.49,181.05Z"/><path class="cls-2" d="M1348.07,171.85a9.34,9.34,0,0,1,.25,2.43,9,9,0,0,1-.13,2.43,16.1,16.1,0,0,1-.13-2.42A14.35,14.35,0,0,1,1348.07,171.85Z"/><path class="cls-2" d="M1332.51,176.83a10,10,0,0,1,1.58-.55c1-.31,2.36-.69,3.89-1.06s2.93-.66,4-.83a10.65,10.65,0,0,1,1.66-.23,11.55,11.55,0,0,1-1.62.41c-1,.22-2.4.53-3.93.9s-2.91.72-3.9,1A10.91,10.91,0,0,1,1332.51,176.83Z"/><path class="cls-5" d="M1345.26,192a9,9,0,0,0-6.19-1.6,18.89,18.89,0,0,0-6.77,1.75,20.81,20.81,0,0,0-9.3,7.32c-2.19,3.35-3,7.78-1.31,11.43a1.62,1.62,0,0,0,.74.9,1.76,1.76,0,0,0,1.23-.09,68.74,68.74,0,0,0,12.19-4.87,22.89,22.89,0,0,0,9.38-9,7.57,7.57,0,0,0,1-3,3.71,3.71,0,0,0-1-2.91"/><path class="cls-2" d="M1345.3,191.54a1.13,1.13,0,0,1-.3.13l-.87.3-.64.21c-.23.08-.47.18-.74.29-.52.21-1.13.42-1.78.74l-1,.46c-.36.16-.71.37-1.08.56-.76.37-1.52.84-2.34,1.32a40.11,40.11,0,0,0-4.93,3.66,39.7,39.7,0,0,0-4.26,4.43c-.58.75-1.15,1.45-1.62,2.15-.23.35-.48.67-.69,1l-.59,1c-.39.6-.68,1.18-1,1.67-.13.25-.27.48-.38.7l-.29.6c-.16.34-.3.61-.41.83a1.39,1.39,0,0,1-.16.28s0-.11.12-.31.21-.5.36-.84l.27-.62.36-.71c.27-.5.55-1.09.93-1.7l.59-1c.2-.33.44-.66.68-1,.46-.72,1-1.42,1.6-2.18a39.2,39.2,0,0,1,4.27-4.47,37.76,37.76,0,0,1,5-3.67c.82-.48,1.59-.95,2.36-1.32.38-.18.73-.38,1.09-.54l1-.45c.65-.31,1.27-.51,1.8-.71l.75-.27.65-.19.88-.25Z"/><path class="cls-2" d="M1330.7,199.45a43.22,43.22,0,0,1-4.55,1.47,42.73,42.73,0,0,1-4.62,1.21,43.74,43.74,0,0,1,4.55-1.46A44.38,44.38,0,0,1,1330.7,199.45Z"/><path class="cls-2" d="M1330.51,209.49a6.52,6.52,0,0,1-.1-1.42c0-.88,0-2.09,0-3.42s.11-2.55.18-3.42a6.5,6.5,0,0,1,.18-1.41,7.55,7.55,0,0,1,0,1.42c0,1-.06,2.12-.1,3.41s-.06,2.46-.09,3.42A7.76,7.76,0,0,1,1330.51,209.49Z"/><path class="cls-2" d="M1339.1,205.11c-.07,0-.3-2.46-.51-5.5s-.32-5.51-.25-5.51a55,55,0,0,1,.51,5.49C1339.06,202.63,1339.18,205.1,1339.1,205.11Z"/><path class="cls-2" d="M1328.41,193.86a7.38,7.38,0,0,1,1.45,0c.9,0,2.14,0,3.51.07s2.61.11,3.51.16a7.29,7.29,0,0,1,1.45.14,8.68,8.68,0,0,1-1.46,0c-.89,0-2.14,0-3.51-.08s-2.61-.1-3.51-.15A7.11,7.11,0,0,1,1328.41,193.86Z"/><path class="cls-2" d="M1349,223.8a1.11,1.11,0,0,1,0-.29c0-.22,0-.5,0-.84,0-.73,0-1.78,0-3.08s.11-2.84.26-4.56.42-3.58.77-5.54.79-3.8,1.24-5.46.92-3.14,1.35-4.37.81-2.21,1.1-2.88l.33-.78a1.63,1.63,0,0,1,.13-.26,1.07,1.07,0,0,1-.08.28l-.29.79c-.25.68-.6,1.67-1,2.91s-.86,2.71-1.3,4.37-.86,3.5-1.21,5.45-.61,3.81-.79,5.52-.27,3.24-.32,4.54-.07,2.34-.07,3.07v.84A1.64,1.64,0,0,1,1349,223.8Z"/><path class="cls-2" d="M1350.18,209.57a5.74,5.74,0,0,1-.86,1c-.57.56-1.36,1.31-2.27,2.11s-1.77,1.49-2.4,2a6.08,6.08,0,0,1-1.05.73,6,6,0,0,1,.94-.88l2.33-2,2.32-2.06A6.64,6.64,0,0,1,1350.18,209.57Z"/><path class="cls-2" d="M1357.06,215.11a11.59,11.59,0,0,1-.92-1.28c-.59-.87-1.33-1.94-2.15-3.13l-2.19-3.11a10.85,10.85,0,0,1-.88-1.31,9.7,9.7,0,0,1,1,1.2c.6.77,1.41,1.85,2.26,3.07s1.58,2.35,2.08,3.18A8.55,8.55,0,0,1,1357.06,215.11Z"/><path class="cls-2" d="M1353.46,197.68c0,.06-2.25,1.6-5.1,3.44s-5.21,3.27-5.25,3.21,2.25-1.59,5.1-3.43S1353.42,197.62,1353.46,197.68Z"/><path class="cls-2" d="M1359.9,204.64a41.7,41.7,0,0,1-3.45-3.2,42.33,42.33,0,0,1-3.28-3.38,42.69,42.69,0,0,1,3.46,3.2A39.28,39.28,0,0,1,1359.9,204.64Z"/><path class="cls-5" d="M1361.52,204.5l2-.17a9.57,9.57,0,0,0,4-1.21,15.86,15.86,0,0,1,1.84-.93c2.43-1,5.13-.8,7.74-.93a32,32,0,0,0,12.32-3.15,1.2,1.2,0,0,0,.54-.48c.4-.74-.35-1.39-1-1.79-3.31-2-6.67-4.1-10.42-5.11s-8-.84-11.2,1.36c-3.75,2.59-5.12,7.89-5.76,12.41"/><path class="cls-2" d="M1389.93,197.39l-.33-.16-.93-.49c-.81-.42-2-1.05-3.44-1.75a32.47,32.47,0,0,0-5.31-2.05,17.68,17.68,0,0,0-6.89-.56,11.88,11.88,0,0,0-6.28,2.7,14,14,0,0,0-3.27,4.59c-.69,1.48-1.12,2.73-1.43,3.58-.14.41-.26.74-.35,1a2,2,0,0,1-.13.34,1.9,1.9,0,0,1,.08-.35l.31-1a32.82,32.82,0,0,1,1.35-3.62,13.89,13.89,0,0,1,3.28-4.7,11.85,11.85,0,0,1,6.4-2.77,17.57,17.57,0,0,1,7,.58,30.93,30.93,0,0,1,5.33,2.12c1.47.72,2.62,1.37,3.41,1.83l.9.53A1.64,1.64,0,0,1,1389.93,197.39Z"/><path class="cls-2" d="M1385.22,199.92c0,.06-2.61-1.6-5.73-3.71s-5.63-3.86-5.59-3.92,2.61,1.6,5.73,3.7S1385.26,199.86,1385.22,199.92Z"/><path class="cls-2" d="M1382.48,192.15a9.73,9.73,0,0,1-3.77.31,50.7,50.7,0,0,1,3.77-.31Z"/><path class="cls-2" d="M1371.25,190.69a4.77,4.77,0,0,1-.84,1.31,5.8,5.8,0,0,1-1.07,1.22,5.1,5.1,0,0,1,.85-1.32A5.41,5.41,0,0,1,1371.25,190.69Z"/><path class="cls-2" d="M1373.55,201.43a6.7,6.7,0,0,1-1.23-.67c-.75-.45-1.75-1.11-2.82-1.89s-2-1.51-2.69-2.05a8,8,0,0,1-1.07-.91,6.11,6.11,0,0,1,1.18.77l2.74,2c1.06.78,2,1.46,2.76,1.94A8.43,8.43,0,0,1,1373.55,201.43Z"/><path class="cls-5" d="M1364.41,212.83c-1.87-.49-4.1,1.33-4.49,3.22a9.17,9.17,0,0,0,1.16,5.59,28.62,28.62,0,0,0,7.74,10.12,19.15,19.15,0,0,0,11.83,4.36c-.79-3.68.21-7.52-.23-11.25a14.64,14.64,0,0,0-13-12.83c-1.19-.12-2.57-.31-3,.79"/><path class="cls-2" d="M1380.65,236.12l-.26-.13a4.23,4.23,0,0,1-.7-.47,7.07,7.07,0,0,1-1.85-2.47c-.3-.58-.63-1.21-1-1.9s-.65-1.45-1-2.23a21.59,21.59,0,0,0-1.23-2.38,19.1,19.1,0,0,0-1.71-2.31c-1.28-1.51-2.65-2.81-3.84-4a26.43,26.43,0,0,1-2.94-3.52,13.28,13.28,0,0,1-1.43-2.74,7.25,7.25,0,0,1-.25-.8,1.09,1.09,0,0,1-.06-.29s.13.38.41,1a13.11,13.11,0,0,0,1.49,2.67,27.19,27.19,0,0,0,3,3.46c1.2,1.23,2.58,2.53,3.87,4.05a17.85,17.85,0,0,1,1.72,2.35,19.72,19.72,0,0,1,1.24,2.41l1,2.24c.31.69.63,1.32.92,1.91a7.37,7.37,0,0,0,1.75,2.47C1380.3,235.92,1380.67,236.09,1380.65,236.12Z"/><path class="cls-2" d="M1371,233.06a5,5,0,0,1,.17-1.26c.14-.77.38-1.83.71-3s.67-2.18,1-2.91a5.39,5.39,0,0,1,.51-1.17A7.69,7.69,0,0,1,1373,226c-.23.74-.55,1.78-.87,2.92s-.59,2.19-.78,3A8.62,8.62,0,0,1,1371,233.06Z"/><path class="cls-2" d="M1380.3,224a7,7,0,0,1-1.32-.3c-.81-.21-1.92-.5-3.16-.78s-2.37-.49-3.19-.65a7,7,0,0,1-1.32-.29,6.64,6.64,0,0,1,1.35.11c.83.11,2,.3,3.22.58s2.35.6,3.15.85A6.79,6.79,0,0,1,1380.3,224Z"/><path class="cls-2" d="M1364,226.66a8.42,8.42,0,0,1,.2-1.45c.17-.9.43-2.12.78-3.47s.72-2.54,1-3.4a7.94,7.94,0,0,1,.53-1.37,8,8,0,0,1-.36,1.43c-.25.87-.59,2.07-.94,3.41s-.64,2.55-.85,3.43A8.26,8.26,0,0,1,1364,226.66Z"/><path class="cls-2" d="M1376,216.18a47.72,47.72,0,0,1-5.21-.42,51.34,51.34,0,0,1-5.19-.68c0-.07,2.34.12,5.21.42S1376,216.11,1376,216.18Z"/><rect class="cls-3" x="1337.68" y="239.51" width="36.56" height="5.02"/><path class="cls-3" d="M1374.29,244.59h-36.68v-5.14h36.68Zm-36.55-.12h36.43v-4.9h-36.43Z"/><polygon class="cls-3" points="1341.07 242.86 1346.33 268.82 1365.8 268.82 1370.88 244.53 1341.07 242.86"/><polygon class="cls-3" points="1341.07 266.36 1343.87 270.22 1367.54 270.22 1370.88 266.36 1341.07 266.36"/><path class="cls-2" d="M1374.29,244.51c0,.07-8.21.13-18.33.13s-18.34-.06-18.34-.13,8.2-.13,18.34-.13S1374.29,244.44,1374.29,244.51Z"/><path class="cls-4" d="M1368.58,255.08c0,.07-5.53.13-12.36.13s-12.35-.06-12.35-.13,5.53-.13,12.35-.13S1368.58,255,1368.58,255.08Z"/><path class="cls-4" d="M1368.37,256.59c0,.07-5.44.13-12.14.13s-12.15-.06-12.15-.13,5.44-.13,12.15-.13S1368.37,256.52,1368.37,256.59Z"/><path class="cls-4" d="M1368.8,253.83c0,.07-5.73.13-12.78.13s-12.79-.06-12.79-.13,5.73-.13,12.79-.13S1368.8,253.76,1368.8,253.83Z"/></svg>