<svg xmlns="http://www.w3.org/2000/svg" viewBox="0 0 79.71 69.74"><defs><style>.cls-1{fill:#0083eb;}</style></defs><title>data-management-icon</title><g id="Layer_2" data-name="Layer 2"><g id="OBJECTS"><path class="cls-1" d="M36.78,69.74a1,1,0,0,1-1-1V55.47H5.13A5.13,5.13,0,0,1,0,50.34V5.13A5.13,5.13,0,0,1,5.13,0H74.59a5.13,5.13,0,0,1,5.12,5.13V50.34a5.13,5.13,0,0,1-5.12,5.13H51.47l-14,14A1,1,0,0,1,36.78,69.74ZM5.13,2A3.13,3.13,0,0,0,2,5.13V50.34a3.13,3.13,0,0,0,3.13,3.13H36.78a1,1,0,0,1,1,1V66.33L50.34,53.76a1,1,0,0,1,.71-.29H74.59a3.13,3.13,0,0,0,3.12-3.13V5.13A3.13,3.13,0,0,0,74.59,2Z"/><path class="cls-1" d="M14.49,20.23a2.8,2.8,0,0,1-2.79-2.8V13.11a2.8,2.8,0,1,1,5.59,0v4.32A2.8,2.8,0,0,1,14.49,20.23Zm0-8.42a1.3,1.3,0,0,0-1.29,1.3v4.32a1.3,1.3,0,1,0,2.59,0V13.11A1.3,1.3,0,0,0,14.49,11.81Z"/><path class="cls-1" d="M21.54,19.81a.76.76,0,0,1-.75-.75V11.48a.75.75,0,1,1,1.5,0v7.58A.75.75,0,0,1,21.54,19.81Z"/><path class="cls-1" d="M27.73,20.23a2.81,2.81,0,0,1-2.8-2.8V13.11a2.8,2.8,0,0,1,5.6,0v4.32A2.81,2.81,0,0,1,27.73,20.23Zm0-8.42a1.3,1.3,0,0,0-1.3,1.3v4.32a1.3,1.3,0,0,0,2.6,0V13.11A1.3,1.3,0,0,0,27.73,11.81Z"/><path class="cls-1" d="M41,20.23a2.81,2.81,0,0,1-2.8-2.8V13.11a2.8,2.8,0,0,1,5.6,0v4.32A2.81,2.81,0,0,1,41,20.23Zm0-8.42a1.3,1.3,0,0,0-1.3,1.3v4.32a1.3,1.3,0,1,0,2.6,0V13.11A1.3,1.3,0,0,0,41,11.81Z"/><path class="cls-1" d="M50.06,20.23a2.8,2.8,0,0,1-2.79-2.8V13.11a2.8,2.8,0,1,1,5.59,0v4.32A2.81,2.81,0,0,1,50.06,20.23Zm0-8.42a1.3,1.3,0,0,0-1.29,1.3v4.32a1.3,1.3,0,1,0,2.59,0V13.11A1.3,1.3,0,0,0,50.06,11.81Z"/><path class="cls-1" d="M59.1,20.23a2.8,2.8,0,0,1-2.8-2.8V13.11a2.8,2.8,0,1,1,5.59,0v4.32A2.8,2.8,0,0,1,59.1,20.23Zm0-8.42a1.3,1.3,0,0,0-1.3,1.3v4.32a1.3,1.3,0,1,0,2.59,0V13.11A1.3,1.3,0,0,0,59.1,11.81Z"/><path class="cls-1" d="M33.94,19.81a.76.76,0,0,1-.75-.75V11.48a.75.75,0,0,1,1.5,0v7.58A.76.76,0,0,1,33.94,19.81Z"/><path class="cls-1" d="M67.27,19.81a.75.75,0,0,1-.75-.75V11.48a.75.75,0,0,1,1.5,0v7.58A.76.76,0,0,1,67.27,19.81Z"/><path class="cls-1" d="M65.22,33.17a2.8,2.8,0,0,1-2.8-2.79V26.05a2.8,2.8,0,0,1,5.6,0v4.33A2.8,2.8,0,0,1,65.22,33.17Zm0-8.42a1.3,1.3,0,0,0-1.3,1.3v4.33a1.3,1.3,0,0,0,2.6,0V26.05A1.31,1.31,0,0,0,65.22,24.75Z"/><path class="cls-1" d="M58.17,32.75a.75.75,0,0,1-.75-.75V24.43a.75.75,0,1,1,1.5,0V32A.75.75,0,0,1,58.17,32.75Z"/><path class="cls-1" d="M52,33.17a2.79,2.79,0,0,1-2.79-2.79V26.05a2.8,2.8,0,1,1,5.59,0v4.33A2.79,2.79,0,0,1,52,33.17Zm0-8.42a1.3,1.3,0,0,0-1.29,1.3v4.33a1.3,1.3,0,0,0,2.59,0V26.05A1.3,1.3,0,0,0,52,24.75Z"/><path class="cls-1" d="M38.68,33.17a2.79,2.79,0,0,1-2.79-2.79V26.05a2.8,2.8,0,1,1,5.59,0v4.33A2.79,2.79,0,0,1,38.68,33.17Zm0-8.42a1.3,1.3,0,0,0-1.29,1.3v4.33a1.3,1.3,0,0,0,2.59,0V26.05A1.3,1.3,0,0,0,38.68,24.75Z"/><path class="cls-1" d="M29.65,33.17a2.8,2.8,0,0,1-2.8-2.79V26.05a2.8,2.8,0,0,1,5.6,0v4.33A2.8,2.8,0,0,1,29.65,33.17Zm0-8.42a1.31,1.31,0,0,0-1.3,1.3v4.33a1.3,1.3,0,0,0,2.6,0V26.05A1.3,1.3,0,0,0,29.65,24.75Z"/><path class="cls-1" d="M20.62,33.17a2.8,2.8,0,0,1-2.8-2.79V26.05a2.8,2.8,0,1,1,5.59,0v4.33A2.79,2.79,0,0,1,20.62,33.17Zm0-8.42a1.3,1.3,0,0,0-1.3,1.3v4.33a1.3,1.3,0,0,0,2.59,0V26.05A1.3,1.3,0,0,0,20.62,24.75Z"/><path class="cls-1" d="M45.77,32.75A.75.75,0,0,1,45,32V24.43a.75.75,0,0,1,1.5,0V32A.74.74,0,0,1,45.77,32.75Z"/><path class="cls-1" d="M12.45,32.75A.74.74,0,0,1,11.7,32V24.43a.75.75,0,0,1,1.5,0V32A.75.75,0,0,1,12.45,32.75Z"/><path class="cls-1" d="M14.49,46.12a2.79,2.79,0,0,1-2.79-2.8V39a2.8,2.8,0,1,1,5.59,0v4.32A2.8,2.8,0,0,1,14.49,46.12Zm0-8.42A1.3,1.3,0,0,0,13.2,39v4.32a1.3,1.3,0,1,0,2.59,0V39A1.3,1.3,0,0,0,14.49,37.7Z"/><path class="cls-1" d="M21.54,45.7a.76.76,0,0,1-.75-.75V37.37a.75.75,0,0,1,1.5,0V45A.75.75,0,0,1,21.54,45.7Z"/><path class="cls-1" d="M27.73,46.12a2.8,2.8,0,0,1-2.8-2.8V39a2.8,2.8,0,0,1,5.6,0v4.32A2.8,2.8,0,0,1,27.73,46.12Zm0-8.42a1.3,1.3,0,0,0-1.3,1.3v4.32a1.3,1.3,0,1,0,2.6,0V39A1.3,1.3,0,0,0,27.73,37.7Z"/><path class="cls-1" d="M41,46.12a2.8,2.8,0,0,1-2.8-2.8V39a2.8,2.8,0,0,1,5.6,0v4.32A2.8,2.8,0,0,1,41,46.12Zm0-8.42a1.3,1.3,0,0,0-1.3,1.3v4.32a1.3,1.3,0,1,0,2.6,0V39A1.3,1.3,0,0,0,41,37.7Z"/><path class="cls-1" d="M50.06,46.12a2.79,2.79,0,0,1-2.79-2.8V39a2.8,2.8,0,1,1,5.59,0v4.32A2.8,2.8,0,0,1,50.06,46.12Zm0-8.42A1.3,1.3,0,0,0,48.77,39v4.32a1.3,1.3,0,1,0,2.59,0V39A1.3,1.3,0,0,0,50.06,37.7Z"/><path class="cls-1" d="M59.1,46.12a2.8,2.8,0,0,1-2.8-2.8V39a2.8,2.8,0,1,1,5.59,0v4.32A2.79,2.79,0,0,1,59.1,46.12Zm0-8.42A1.3,1.3,0,0,0,57.8,39v4.32a1.3,1.3,0,1,0,2.59,0V39A1.3,1.3,0,0,0,59.1,37.7Z"/><path class="cls-1" d="M33.94,45.7a.76.76,0,0,1-.75-.75V37.37a.75.75,0,0,1,1.5,0V45A.76.76,0,0,1,33.94,45.7Z"/><path class="cls-1" d="M67.27,45.7a.75.75,0,0,1-.75-.75V37.37a.75.75,0,1,1,1.5,0V45A.76.76,0,0,1,67.27,45.7Z"/></g></g></svg>