<svg xmlns="http://www.w3.org/2000/svg" viewBox="0 0 305.29 228.17"><defs><style>.cls-1{fill:#e1e1e1;}.cls-2{fill:#f5f5f5;}.cls-3{fill:#ff4f5b;}.cls-4{fill:#1a2e35;}.cls-5{fill:#375a64;}.cls-6{fill:#fafafa;}.cls-7{fill:#ffbf9d;}.cls-8{fill:#ff9a6c;}.cls-9{fill:#fff;}.cls-10{opacity:0.3;}.cls-11{fill:#d2e4ff;}.cls-12{fill:#f3f9ff;}.cls-13{fill:#ee9849;}.cls-14{fill:#dd7c2c;}.cls-15{fill:#a6c7f9;}</style></defs><title>Asset 10</title><g id="Layer_2" data-name="Layer 2"><g id="Layer_1-2" data-name="Layer 1"><rect class="cls-1" x="92.56" y="178.31" width="8.98" height="35.87"/><rect class="cls-1" x="105.77" y="186.14" width="8.98" height="28.05"/><rect class="cls-1" x="119.18" y="192.54" width="8.98" height="21.64"/><rect class="cls-1" x="131.59" y="201.33" width="8.98" height="12.85"/><path class="cls-2" d="M252.42,76l26.3,1.33A26.35,26.35,0,1,1,260.5,50.89Z"/><path class="cls-1" d="M265.93,52.09l-7.15,19.13,20.16.33S278.35,59.89,265.93,52.09Z"/><path class="cls-1" d="M24.19,150V130.53a19.45,19.45,0,1,1-19.44,19.9Z"/><path class="cls-2" d="M19.45,144.74,0,145.17a20.53,20.53,0,0,1,5.51-14,19.94,19.94,0,0,1,13.64-5.87Z"/><polygon class="cls-1" points="286.51 98.96 289.4 93.95 292.29 88.94 295.18 93.94 298.08 98.95 294.08 98.95 294.1 118.28 290.52 118.29 290.51 98.96 286.51 98.96"/><polygon class="cls-2" points="297.5 82.16 299.29 79.06 301.08 75.95 302.87 79.05 304.66 82.15 302.19 82.15 302.2 94.11 299.99 94.12 299.98 82.15 297.5 82.16"/><path class="cls-3" d="M256.83,171.8a18.2,18.2,0,0,0-7.75-2.66,5.13,5.13,0,0,0-3.66.67.74.74,0,0,0-.38.67.82.82,0,0,0,.36.46,11.07,11.07,0,0,0,11.43.86"/><path class="cls-3" d="M256.63,171.58a36.8,36.8,0,0,1-5-4.4,12.63,12.63,0,0,1-3.13-5.8,2.3,2.3,0,0,1,.25-1.94c4,3.12,7.12,7.14,7.89,12.14"/><path class="cls-3" d="M256.78,171.77a18.07,18.07,0,0,1,.1-6.56,8.82,8.82,0,0,1,3.5-5.42,7.76,7.76,0,0,1-.1,5.14,24.81,24.81,0,0,1-3.47,7.31"/><path class="cls-3" d="M260.69,178.78a11.48,11.48,0,0,0-6.21,3.14,11.78,11.78,0,0,0-3.55,6.1c2.33-.14,4.3-1.78,5.73-3.63s2.43-3.86,4-5.58"/><path class="cls-3" d="M261.54,179.9a15.31,15.31,0,0,1,1.77-14.49,18.43,18.43,0,0,1-1.77,14.49"/><path class="cls-3" d="M266.71,186.05a11,11,0,0,0-10.59,6.09.83.83,0,0,0-.08.84.8.8,0,0,0,.71.2,9.21,9.21,0,0,0,5.46-2.82,54.36,54.36,0,0,1,4.54-4.32"/><path class="cls-3" d="M266.54,185.71a19.67,19.67,0,0,1-.19-11,5.32,5.32,0,0,1,2.35-3.57.35.35,0,0,1,.58.2,6.56,6.56,0,0,1,.56,3.16,19.36,19.36,0,0,1-.5,3.2c-.41,1.95-.63,4.06-1.7,5.74a10.33,10.33,0,0,0-.68,1.27c-.21.42-.21.57-.39.92"/><path class="cls-3" d="M280.21,187.75a14.24,14.24,0,0,1,2.49-11.68.91.91,0,0,1,.71-.46c.45,0,.57.64.55,1.09a21.06,21.06,0,0,1-3.75,11.05"/><path class="cls-3" d="M281.45,188.59a17,17,0,0,0,13.94-2.83,11.27,11.27,0,0,0-7.55-.93,10.81,10.81,0,0,0-6.39,3.76"/><path class="cls-3" d="M282.49,186a16.08,16.08,0,0,1,12.65-7.32,7.78,7.78,0,0,1-4.14,4.58,23,23,0,0,1-6.07,1.77,4.26,4.26,0,0,0-2.44,1"/><path class="cls-3" d="M280.47,173.58a36.47,36.47,0,0,0,1.62-7.41,12.28,12.28,0,0,0-1.47-7.33,16.12,16.12,0,0,0-.22,15"/><path class="cls-3" d="M288.72,169.41c2.86-5.2,8.71-9.36,14.62-9.94-2.28,5.67-8.5,10.06-14.62,9.94"/><path class="cls-3" d="M286.92,170.43c4.27.65,7.91,3.38,11.9,5a5.25,5.25,0,0,0,2.69.52,2.11,2.11,0,0,0,1.32-3.73,5.68,5.68,0,0,0-2-1.18,21.68,21.68,0,0,0-13.58-.76"/><path class="cls-3" d="M284.45,173.43a5,5,0,0,1,2.06,1.43,22.25,22.25,0,0,0,9,4.63c.35.09.8.12,1-.19s0-.6-.23-.84a12.38,12.38,0,0,0-5.45-3.7c-2.08-.78-3.89-1.71-6.37-1.51"/><path class="cls-3" d="M281.66,155.33a17,17,0,0,0,13.09,4.46,1,1,0,0,0,.6-.21c.33-.36-.07-.92-.45-1.22a15.11,15.11,0,0,0-13.24-3"/><path class="cls-3" d="M285,154.12a18.24,18.24,0,0,1,16.34-2.69,12.94,12.94,0,0,1-7.78,3.42,24.49,24.49,0,0,1-8.56-.73"/><path class="cls-3" d="M283.65,145.81c-.38-3.84-.13-6.87-.4-10.74,0-.3-.09-.68-.38-.79s-.73.34-.86.75a12.33,12.33,0,0,0,1.63,10.7"/><path class="cls-3" d="M283.37,146.24a22.75,22.75,0,0,0,6.37-6.19c1.26-1.72,2.32-3.78,2-5.89a6.07,6.07,0,0,0-4.59,2.28,12.79,12.79,0,0,0-2.34,4.71c-.51,1.69-.87,3.42-1.47,5.09"/><path class="cls-3" d="M289.63,144.5a51.4,51.4,0,0,0,15.66-9.24,8,8,0,0,0-5.88.45,18.52,18.52,0,0,0-9.86,8.75"/><path class="cls-3" d="M285.13,148.34a32.09,32.09,0,0,0,8.7,0,36.88,36.88,0,0,0,8.12-2.7.91.91,0,0,0,.55-.42.62.62,0,0,0-.2-.69,1.7,1.7,0,0,0-.69-.33,15,15,0,0,0-8.77.53,40.84,40.84,0,0,0-7.71,3.57"/><path class="cls-3" d="M268.62,155.47a15.43,15.43,0,0,1-.14-12.74,9.73,9.73,0,0,1,1.13,6.33c-.22,2.18-.89,4.42-.93,6.6"/><path class="cls-3" d="M260.74,151.49a17.81,17.81,0,0,0-13.2,5.62,12.26,12.26,0,0,0,7.23-1.34,36.92,36.92,0,0,0,6.19-4.14"/><path class="cls-3" d="M255.44,149.72c-2.41-.2-4.73-.49-7.05.22a8.48,8.48,0,0,0-5.37,4.55,12.75,12.75,0,0,0,6.61-1.25,38.25,38.25,0,0,0,5.81-3.52"/><path class="cls-3" d="M263.29,149.8a22.36,22.36,0,0,0-6.92-3.46c-2.53-.58-5.45-.15-7.21,1.75,2,1.2,4.52,1.34,6.89,1.34s5.27,0,7.51.76"/><path class="cls-3" d="M263.3,149.91c-3.71-3.63-5.11-10.17-3.62-15.15a23.1,23.1,0,0,1,3.62,15.15"/><path class="cls-3" d="M273.49,139.6c.7-1.62,1.19-3.33,1.82-5a14.23,14.23,0,0,1,2.59-4.6,6.78,6.78,0,0,1,4.59-2.37,18.49,18.49,0,0,1-8.91,12"/><path class="cls-3" d="M271.64,141.75c-1.15-1.59-2.49-3.75-4.06-4.94a6.77,6.77,0,0,0-5.52-1.45,12.86,12.86,0,0,0,9.58,6.39"/><path class="cls-3" d="M272,139.74a27.74,27.74,0,0,1-1.82-5.92,9.29,9.29,0,0,1,.92-6c2,3.85,2.69,8,1,12"/><path class="cls-3" d="M273.51,127.79c1.15-3.81,4.64-6.61,8.41-7.9a3.11,3.11,0,0,1,1.47-.22,1.26,1.26,0,0,1,1.09.9c.14.65-.4,1.23-.9,1.66a28.62,28.62,0,0,1-10.07,5.56"/><path class="cls-3" d="M273.55,124.68a27.41,27.41,0,0,1,1.1-7.28,9.22,9.22,0,0,1,4.58-5.54c.38,2.49-.71,5-2,7.09s-2.92,4.16-3.71,6.54"/><path class="cls-3" d="M273.49,126.37c-.95-2.78-1.05-6.31-2.72-8.73-1.16-1.69-3-2.84-4-4.63a7.05,7.05,0,0,0,.23,5.26,15.26,15.26,0,0,0,3.08,4.4c1.23,1.32,2.28,2.31,3.43,3.7"/><path class="cls-4" d="M273.51,208.19c-.08,0-.14-18.54-.15-41.39s.06-41.4.13-41.4.14,18.53.14,41.4S273.58,208.19,273.51,208.19Z"/><path class="cls-4" d="M289.7,152.67a3.43,3.43,0,0,1-.69.26l-1.92.65c-1.62.55-3.84,1.35-6.25,2.33s-4.64,1.86-5.92,3a4.37,4.37,0,0,0-1.19,1.57c-.18.44-.22.71-.24.7s0-.07,0-.19a2.88,2.88,0,0,1,.13-.54,4.3,4.3,0,0,1,1.16-1.68,10.59,10.59,0,0,1,2.57-1.6c1-.48,2.17-1,3.38-1.47,2.42-1,4.66-1.77,6.29-2.27.82-.26,1.48-.44,2-.57A3.76,3.76,0,0,1,289.7,152.67Z"/><path class="cls-4" d="M295,139.63s-.06.08-.19.21l-.6.56-2.22,2c-1.91,1.71-4.51,4-7.39,6.58s-5.37,5-7.1,6.87c-.87.92-1.55,1.69-2,2.22l-.54.61a1.32,1.32,0,0,1-.2.21s.05-.09.16-.24.27-.37.5-.65c.44-.55,1.1-1.34,1.95-2.28a94.59,94.59,0,0,1,7.06-6.94c2.9-2.56,5.53-4.86,7.45-6.52l2.27-2,.63-.52Z"/><path class="cls-4" d="M281.5,151.6c-.08,0,.53-1.42,1.13-3.18s.89-3.25,1-3.23a11,11,0,0,1-.71,3.32,21.8,21.8,0,0,1-.9,2.22A3.29,3.29,0,0,1,281.5,151.6Z"/><path class="cls-4" d="M273.52,162.82a3.65,3.65,0,0,1-.44-.51l-1.14-1.46c-1-1.24-2.28-2.95-3.76-4.82s-2.84-3.54-3.83-4.75l-1.17-1.44a3.7,3.7,0,0,1-.4-.55,2.84,2.84,0,0,1,.48.48c.3.32.72.8,1.23,1.39,1,1.18,2.42,2.84,3.9,4.71s2.78,3.6,3.7,4.86c.46.63.83,1.15,1.07,1.51A3,3,0,0,1,273.52,162.82Z"/><path class="cls-4" d="M270,158.26a6.45,6.45,0,0,1-1.48-2.78,7.8,7.8,0,0,1-.34-2.81h.12c-.06.21-.1.33-.12.32s0-.12,0-.34h.12a12.88,12.88,0,0,0,.47,2.73A21.4,21.4,0,0,0,270,158.26Z"/><path class="cls-4" d="M265.39,152.5a4.66,4.66,0,0,0-1-.61,6.87,6.87,0,0,0-2.88-.23,18.43,18.43,0,0,0-2.91.47,9.12,9.12,0,0,1-1.19.29,4,4,0,0,1,1.14-.47,13,13,0,0,1,2.94-.55,6.19,6.19,0,0,1,3,.32A1.83,1.83,0,0,1,265.39,152.5Z"/><path class="cls-4" d="M264.3,151.1s-.6-.24-1.59-.58a15.91,15.91,0,0,0-8-.61c-1,.18-1.65.37-1.66.33s.14-.08.42-.18a11.72,11.72,0,0,1,1.2-.34,14.11,14.11,0,0,1,8.13.62,8.48,8.48,0,0,1,1.13.52C264.17,151,264.31,151.08,264.3,151.1Z"/><path class="cls-4" d="M273.49,145.19a33.65,33.65,0,0,1-1.16-4,33.16,33.16,0,0,1-.9-4.1,33.65,33.65,0,0,1,1.16,4A32.74,32.74,0,0,1,273.49,145.19Z"/><path class="cls-4" d="M273.56,145.19a19.13,19.13,0,0,0-1.28-2.42,10.35,10.35,0,0,0-1.9-2,1.62,1.62,0,0,1,.73.38,5.87,5.87,0,0,1,1.39,1.42A5.27,5.27,0,0,1,273.56,145.19Z"/><path class="cls-4" d="M273.51,198.31s-.09-.45-.29-1.24a18.45,18.45,0,0,0-1.24-3.21,44.48,44.48,0,0,0-6.57-9.25c-1.47-1.68-2.89-3.26-4.1-4.77a33.77,33.77,0,0,1-2.93-4.23,19.45,19.45,0,0,1-1.48-3.14c-.14-.38-.24-.69-.29-.89a1.6,1.6,0,0,1-.08-.32s.16.42.46,1.17a23.77,23.77,0,0,0,1.55,3.08,33.64,33.64,0,0,0,3,4.17c1.21,1.5,2.64,3.07,4.11,4.75a42.09,42.09,0,0,1,6.54,9.35,16.77,16.77,0,0,1,1.17,3.27c.08.4.14.71.16.93A1.34,1.34,0,0,1,273.51,198.31Z"/><path class="cls-4" d="M288.14,181.78a6.85,6.85,0,0,1-.76.43,15.62,15.62,0,0,0-2,1.31,23.34,23.34,0,0,0-2.62,2.38c-.91,1-1.86,2.1-2.82,3.3-1.93,2.42-3.73,4.56-4.81,6.27-.55.85-.95,1.56-1.21,2.06a7.94,7.94,0,0,1-.42.78s0-.08.07-.22.13-.35.26-.6a19.25,19.25,0,0,1,1.14-2.12,67.56,67.56,0,0,1,4.76-6.33c1-1.21,1.92-2.34,2.86-3.31a21.44,21.44,0,0,1,2.67-2.36,14.5,14.5,0,0,1,2.06-1.26c.25-.12.46-.2.6-.26S288.14,181.77,288.14,181.78Z"/><path class="cls-4" d="M288.43,187.14a11.5,11.5,0,0,1-1.62.23,21.71,21.71,0,0,0-3.85.76,11.42,11.42,0,0,0-3.44,1.81c-.79.61-1.17,1.12-1.2,1.09s.06-.15.24-.37a5.4,5.4,0,0,1,.84-.87,10.23,10.23,0,0,1,3.48-1.91,16.81,16.81,0,0,1,3.91-.69A7.93,7.93,0,0,1,288.43,187.14Z"/><path class="cls-4" d="M278.79,190.44c-.09-.05.65-1.16,1.21-2.67s.66-2.84.75-2.82a2.28,2.28,0,0,1,0,.87,9.33,9.33,0,0,1-.48,2.05,9.91,9.91,0,0,1-.94,1.88A2.62,2.62,0,0,1,278.79,190.44Z"/><path class="cls-4" d="M292.88,167.38s-.08.05-.26.14l-.76.34c-.33.15-.74.33-1.19.57s-1,.48-1.55.81l-.89.5c-.3.18-.61.39-.93.59-.65.4-1.31.89-2,1.38a37.11,37.11,0,0,0-4.18,3.68,36.54,36.54,0,0,0-3.53,4.3c-.48.72-.94,1.39-1.31,2.05-.2.33-.39.64-.56.95s-.32.62-.47.9c-.32.57-.54,1.11-.76,1.58s-.4.88-.53,1.21l-.32.78a1,1,0,0,1-.13.26,1.2,1.2,0,0,1,.08-.28c.07-.21.16-.47.28-.79a11.73,11.73,0,0,1,.48-1.24c.21-.47.42-1,.73-1.6l.46-.92c.16-.31.36-.63.54-1,.37-.68.83-1.35,1.3-2.08a37.11,37.11,0,0,1,3.55-4.35,37.49,37.49,0,0,1,4.22-3.69c.71-.49,1.37-1,2-1.37.33-.19.64-.4.95-.57l.9-.49c.56-.33,1.11-.56,1.57-.79s.88-.39,1.22-.52l.78-.3A1,1,0,0,1,292.88,167.38Z"/><path class="cls-4" d="M281.3,175.14a2,2,0,0,1,.64-.95,4,4,0,0,1,2.56-1,7,7,0,0,1,2.7.52,3.64,3.64,0,0,1,1,.5,6.06,6.06,0,0,1-1.08-.32,8.45,8.45,0,0,0-2.63-.44,4.22,4.22,0,0,0-2.45.86A6.66,6.66,0,0,0,281.3,175.14Z"/><path class="cls-4" d="M279.57,176.93a9.68,9.68,0,0,0,.73-2.38,9.4,9.4,0,0,0-.17-2.47,1.51,1.51,0,0,1,.3.69,4.64,4.64,0,0,1,.13,1.82,4.7,4.7,0,0,1-.54,1.73A1.91,1.91,0,0,1,279.57,176.93Z"/><path class="cls-5" d="M260.71,201c.4,7.08,2.53,14.29,5.81,21.57H280.8A62,62,0,0,0,286.27,201Z"/><path class="cls-6" d="M284,212.42c0,.08-4.7.14-10.5.14s-10.5-.06-10.5-.14,4.7-.13,10.5-.13S284,212.35,284,212.42Z"/><path class="cls-6" d="M283.64,215c0,.07-4.41.13-9.84.13S264,215.06,264,215s4.4-.14,9.84-.14S283.64,214.91,283.64,215Z"/><rect class="cls-4" x="175.64" y="178.42" width="71.87" height="33.23" rx="1.78"/><path class="cls-5" d="M180.7,201.38v1h-.11v-.95h-.24v-.09Z"/><path class="cls-5" d="M181,201.9c0-.33.18-.53.42-.53s.42.2.42.53-.18.53-.42.53S181,202.23,181,201.9Zm.73,0c0-.28-.13-.43-.31-.43s-.31.15-.31.43.13.43.31.43S181.68,202.18,181.68,201.9Z"/><path class="cls-5" d="M181.13,195.81v.09h-.74v-.07l.44-.43c.12-.12.14-.19.14-.26s-.09-.2-.25-.2a.34.34,0,0,0-.28.12l-.08-.07a.49.49,0,0,1,.37-.15c.21,0,.35.11.35.29a.44.44,0,0,1-.17.33l-.36.35Z"/><path class="cls-5" d="M181.26,195.38c0-.34.17-.54.42-.54s.41.2.41.54-.17.53-.41.53S181.26,195.71,181.26,195.38Zm.72,0c0-.28-.12-.44-.3-.44s-.31.16-.31.44.12.43.31.43S182,195.66,182,195.38Z"/><path class="cls-5" d="M181.1,189.08c0,.17-.12.31-.38.31a.5.5,0,0,1-.37-.14l.05-.08a.46.46,0,0,0,.32.12c.18,0,.27-.08.27-.21s-.09-.21-.28-.21h-.08v-.08l.3-.36h-.54v-.1h.67v.08l-.29.37C181,188.79,181.1,188.91,181.1,189.08Z"/><path class="cls-5" d="M181.26,188.85c0-.33.17-.53.42-.53s.41.2.41.53-.17.54-.41.54S181.26,189.19,181.26,188.85Zm.72,0c0-.28-.12-.43-.3-.43s-.31.15-.31.43.12.44.31.44S182,189.13,182,188.85Z"/><path class="cls-5" d="M185.33,205.34c0-.33.18-.53.42-.53s.42.2.42.53-.18.54-.42.54S185.33,205.68,185.33,205.34Zm.73,0c0-.28-.13-.43-.31-.43s-.31.15-.31.43.13.44.31.44S186.06,205.62,186.06,205.34Z"/><path class="cls-5" d="M193.1,204.82v1.05H193v-1h-.25v-.09Z"/><path class="cls-5" d="M201.28,205.77v.1h-.74v-.08l.44-.43a.32.32,0,0,0,.14-.26c0-.12-.08-.19-.24-.19a.35.35,0,0,0-.29.11l-.08-.06a.46.46,0,0,1,.38-.15c.21,0,.34.11.34.28a.44.44,0,0,1-.17.33l-.36.35Z"/><path class="cls-5" d="M209,205.56c0,.18-.13.32-.38.32a.55.55,0,0,1-.38-.14l.05-.09a.44.44,0,0,0,.33.13c.17,0,.27-.08.27-.22s-.09-.2-.29-.2h-.07v-.08l.29-.37h-.54v-.09H209v.07l-.3.38C208.9,205.28,209,205.4,209,205.56Z"/><path class="cls-5" d="M217,205.59h-.21v.28h-.1v-.28h-.6v-.08l.56-.69h.12l-.54.67h.46v-.24h.1v.24H217Z"/><path class="cls-5" d="M224.55,205.56c0,.18-.12.32-.38.32a.54.54,0,0,1-.37-.14l0-.09a.43.43,0,0,0,.32.13c.18,0,.27-.09.27-.22s-.08-.22-.35-.22h-.22l0-.52h.58v.09H224l0,.34h.14C224.43,205.25,224.55,205.37,224.55,205.56Z"/><path class="cls-5" d="M232.39,205.55a.33.33,0,0,1-.36.33c-.28,0-.43-.2-.43-.53s.19-.54.48-.54a.42.42,0,0,1,.25.06l-.05.08a.39.39,0,0,0-.2,0c-.23,0-.37.15-.37.43v.09a.33.33,0,0,1,.32-.18A.32.32,0,0,1,232.39,205.55Zm-.11,0a.23.23,0,0,0-.26-.23.24.24,0,0,0-.27.23c0,.11.09.22.27.22S232.28,205.7,232.28,205.56Z"/><path class="cls-5" d="M240.1,204.82v.07l-.44,1h-.12l.43-1h-.54v.2h-.1v-.29Z"/><path class="cls-5" d="M240.15,202c0,.06-12.14.1-27.11.1s-27.12,0-27.12-.1,12.14-.1,27.12-.1S240.15,201.89,240.15,202Z"/><path class="cls-5" d="M240.15,195.39c0,.06-12.14.11-27.11.11s-27.12-.05-27.12-.11,12.14-.1,27.12-.1S240.15,195.34,240.15,195.39Z"/><path class="cls-5" d="M240.15,188.84s-12.14.1-27.11.1-27.12-.05-27.12-.1,12.14-.1,27.12-.1S240.15,188.78,240.15,188.84Z"/><path class="cls-5" d="M185.92,201.85a.35.35,0,1,1-.35-.34A.35.35,0,0,1,185.92,201.85Z"/><path class="cls-5" d="M193.72,201.85a.35.35,0,0,1-.35.35.35.35,0,1,1,0-.69A.35.35,0,0,1,193.72,201.85Z"/><path class="cls-5" d="M201.51,201.85a.35.35,0,1,1-.69,0,.35.35,0,0,1,.69,0Z"/><path class="cls-5" d="M209.31,201.85a.35.35,0,1,1-.35-.34A.35.35,0,0,1,209.31,201.85Z"/><path class="cls-5" d="M217.11,201.85a.35.35,0,1,1-.35-.34A.35.35,0,0,1,217.11,201.85Z"/><path class="cls-5" d="M232.7,201.85a.35.35,0,1,1-.34-.34A.34.34,0,0,1,232.7,201.85Z"/><path class="cls-5" d="M224.91,201.85a.35.35,0,1,1-.35-.34A.35.35,0,0,1,224.91,201.85Z"/><path class="cls-5" d="M240.5,201.85a.35.35,0,1,1-.69,0,.35.35,0,0,1,.69,0Z"/><path class="cls-5" d="M189.47,202a.23.23,0,0,1-.23.23.23.23,0,1,1,0-.46A.23.23,0,0,1,189.47,202Z"/><path class="cls-5" d="M197.3,202a.23.23,0,1,1-.23-.23A.23.23,0,0,1,197.3,202Z"/><path class="cls-5" d="M205.13,202a.23.23,0,0,1-.23.23.23.23,0,0,1,0-.46A.23.23,0,0,1,205.13,202Z"/><path class="cls-5" d="M213,202a.23.23,0,0,1-.23.23.23.23,0,1,1,0-.46A.23.23,0,0,1,213,202Z"/><path class="cls-5" d="M220.78,202a.23.23,0,1,1-.23-.23A.23.23,0,0,1,220.78,202Z"/><path class="cls-5" d="M228.61,202a.23.23,0,0,1-.23.23.23.23,0,1,1,0-.46A.23.23,0,0,1,228.61,202Z"/><path class="cls-5" d="M236.43,202a.23.23,0,1,1-.22-.23A.22.22,0,0,1,236.43,202Z"/><path class="cls-3" d="M194.22,199.05a.86.86,0,1,1-.85-.85A.85.85,0,0,1,194.22,199.05Z"/><path class="cls-3" d="M201,195a.85.85,0,0,1-1.7,0,.85.85,0,1,1,1.7,0Z"/><path class="cls-3" d="M209.47,195.39a.86.86,0,1,1-.86-.85A.85.85,0,0,1,209.47,195.39Z"/><path class="cls-3" d="M217.71,188.1a.85.85,0,0,1-.85.85.86.86,0,1,1,.85-.85Z"/><path class="cls-3" d="M225.41,192.74a.85.85,0,0,1-.85.85.86.86,0,1,1,.85-.85Z"/><path class="cls-3" d="M233.21,194a.86.86,0,1,1-.85-.85A.85.85,0,0,1,233.21,194Z"/><path class="cls-3" d="M240.5,199.05h-.2a3.37,3.37,0,0,1-.58-.08,4.32,4.32,0,0,1-2-1,4.23,4.23,0,0,1-1-1.3,8.93,8.93,0,0,0-1-1.61,3.45,3.45,0,0,0-1.76-1.23,2.22,2.22,0,0,0-1.17,0,3.23,3.23,0,0,0-1.08.61,23.48,23.48,0,0,0-1.8,2.06,3.39,3.39,0,0,1-1.17.91,2.32,2.32,0,0,1-1.54.13,1.92,1.92,0,0,1-1.17-1.08,7.61,7.61,0,0,1-.51-1.55,8.67,8.67,0,0,0-.46-1.58,1.19,1.19,0,0,0-.5-.6,1.49,1.49,0,0,0-.79-.15,13.35,13.35,0,0,0-1.71.3,5.51,5.51,0,0,1-.91.1,2,2,0,0,1-.92-.18,1.87,1.87,0,0,1-.73-.61,4.4,4.4,0,0,1-.44-.83c-.25-.57-.42-1.18-.64-1.76a4.58,4.58,0,0,0-.41-.83,1.54,1.54,0,0,0-.68-.56l-.21-.07-.23,0a.85.85,0,0,0-.41.09,1.79,1.79,0,0,0-.63.65,8.48,8.48,0,0,0-.72,1.79c-.19.63-.34,1.28-.5,1.93-.24,1.07-.47,2.14-.74,3.19a15.51,15.51,0,0,1-.48,1.55,4.15,4.15,0,0,1-.81,1.41,1.16,1.16,0,0,1-.77.34,1.53,1.53,0,0,1-.79-.24,3.82,3.82,0,0,1-1.11-1.12,13.65,13.65,0,0,1-1.34-2.71,6.26,6.26,0,0,0-1.49-2.41,2.82,2.82,0,0,0-2.51-.61,4.38,4.38,0,0,0-1.19.53,7.86,7.86,0,0,0-1,.75,13.68,13.68,0,0,0-1.74,1.75h0a18.39,18.39,0,0,1-2.58,2.14,12,12,0,0,1-2.64,1.43,5.71,5.71,0,0,1-2.58.43,9.16,9.16,0,0,1-2.15-.52,19.87,19.87,0,0,1-2.8-1.27l-.69-.4-.23-.15.24.12.71.38a21,21,0,0,0,2.8,1.24,9,9,0,0,0,2.13.49,5.7,5.7,0,0,0,2.53-.44,12.69,12.69,0,0,0,2.6-1.43,18.88,18.88,0,0,0,2.54-2.13h0a13.43,13.43,0,0,1,1.76-1.78,8.21,8.21,0,0,1,1.06-.77,4.19,4.19,0,0,1,1.24-.55,3,3,0,0,1,2.67.64A6.56,6.56,0,0,1,208.7,195a13.61,13.61,0,0,0,1.32,2.68,3.54,3.54,0,0,0,1,1.06,1.33,1.33,0,0,0,.69.21,1,1,0,0,0,.63-.28,3.93,3.93,0,0,0,.76-1.34c.18-.49.33-1,.47-1.53.27-1,.5-2.11.75-3.19.15-.65.3-1.3.49-1.93a8,8,0,0,1,.75-1.84,1.91,1.91,0,0,1,.71-.73,1,1,0,0,1,.51-.11l.26,0,.24.07a1.62,1.62,0,0,1,.77.64,4.18,4.18,0,0,1,.44.87c.22.59.39,1.19.63,1.76a2.31,2.31,0,0,0,1.08,1.34,2.81,2.81,0,0,0,1.7.06,12.79,12.79,0,0,1,1.75-.3,1.83,1.83,0,0,1,.88.18,1.41,1.41,0,0,1,.58.68,9,9,0,0,1,.47,1.62,7.5,7.5,0,0,0,.49,1.52,1.75,1.75,0,0,0,1.06,1,2.16,2.16,0,0,0,1.42-.12,3.43,3.43,0,0,0,1.13-.86,20.39,20.39,0,0,1,1.82-2.07,3.24,3.24,0,0,1,1.13-.63,2.38,2.38,0,0,1,1.24,0,3.6,3.6,0,0,1,1.82,1.29,9.11,9.11,0,0,1,1,1.64,4.33,4.33,0,0,0,1,1.28,4.41,4.41,0,0,0,2,1,3.82,3.82,0,0,0,.57.1Z"/><path class="cls-4" d="M194.3,184.35c0,.05-3,.1-6.76.1s-6.76,0-6.76-.1,3-.11,6.76-.11S194.3,184.29,194.3,184.35Z"/><path class="cls-4" d="M296.25,222.53c0,.06-63,.12-140.7.12s-140.72-.06-140.72-.12,63-.11,140.72-.11S296.25,222.47,296.25,222.53Z"/><path class="cls-5" d="M30.1,206.51,27.21,218l-4.89,8.4a1.21,1.21,0,0,0,.51,1.69h0a1.21,1.21,0,0,0,1.11,0L35,221.15l3.21-11.43Z"/><path class="cls-4" d="M23.94,228,35,221.15l.48-1.69L22.74,228A1.24,1.24,0,0,0,23.94,228Z"/><path class="cls-5" d="M65.87,209,65.28,218s8.9,3,9,4.62l-17.39.12.35-14Z"/><path class="cls-4" d="M56.84,222.71l0-1.4,16.79.46a1.2,1.2,0,0,1,.65.94Z"/><polygon class="cls-4" points="65.11 132.1 37.82 130.7 26.55 216.39 37.35 217.76 51.56 146.9 55.7 215.03 55.84 217.5 67.11 217.76 65.11 132.1"/><path class="cls-5" d="M62.83,215.73c-.07,0-1.08-15.54-2.27-34.72s-2.1-34.73-2-34.73S59.6,161.82,60.79,181,62.89,215.72,62.83,215.73Z"/><path class="cls-5" d="M44.11,145.67c.07,0-2.59,15.66-5.93,34.94S32.07,215.53,32,215.52s2.6-15.66,5.94-35S44.05,145.66,44.11,145.67Z"/><path class="cls-7" d="M15.2,100.45l-5-7.24c-1-1.64-1.28-2.39-1-2.55s.25-.16,2.47,2.56c0,0-3.14-3.91-1.79-3.59a5.33,5.33,0,0,1,1.39,1.23c-.76-1-.89-1.66-.64-1.88.42-.37,2.38,1.85,3.27,2.91a27.43,27.43,0,0,1-2.3-3.07c-.27-.65.55-.4,1.16,0s4.35,3.62,5.46,4.48a.83.83,0,0,0,1.25-.11,5.21,5.21,0,0,1,3.19-2.74.62.62,0,0,1,.31,1.14,7.61,7.61,0,0,0-1.27,1.62,5.06,5.06,0,0,0-.64,1.51c-.08.36-.14.68-.2,1l2,3.59-6.6,4.2Z"/><path class="cls-8" d="M12.79,94.81a9.49,9.49,0,0,1-1.6-1.8,9.63,9.63,0,0,1-1.35-2,9,9,0,0,1,1.61,1.8A9.06,9.06,0,0,1,12.79,94.81Z"/><path class="cls-8" d="M14.34,94.17a10.44,10.44,0,0,1-1.82-1.82,10.93,10.93,0,0,1-1.57-2,9.8,9.8,0,0,1,1.81,1.82A10.54,10.54,0,0,1,14.34,94.17Z"/><path class="cls-8" d="M15.6,93.57a9.73,9.73,0,0,1-1.74-1.69A9.7,9.7,0,0,1,12.35,90a9.24,9.24,0,0,1,1.75,1.69A9,9,0,0,1,15.6,93.57Z"/><path class="cls-8" d="M15.61,97.44s.17-.19.57-.27a1.76,1.76,0,0,1,1.51.43l-.18.11a3.76,3.76,0,0,1-.11-.77,3.91,3.91,0,0,1,.47-2,1.77,1.77,0,0,1,.53-.68s-.18.28-.39.75a4.35,4.35,0,0,0-.38,2,4.17,4.17,0,0,0,.09.72l.08.36-.26-.26a1.75,1.75,0,0,0-1.34-.45C15.83,97.35,15.62,97.47,15.61,97.44Z"/><path class="cls-7" d="M43.28,67,45,87.27l4.77,2.82,5.32-2.58c.06-1.19.07-6.84.07-6.84s4.23-.65,4.28-4.89c0-2-.27-6.3-.57-10.13a7.84,7.84,0,0,0-8.27-7.19h0A7.84,7.84,0,0,0,43.28,67Z"/><path class="cls-8" d="M55.19,80.61A9.79,9.79,0,0,1,49.68,79s1.3,3,5.52,2.67Z"/><path class="cls-4" d="M57.4,68.7a.6.6,0,0,1-.58.61.57.57,0,0,1-.62-.54.61.61,0,0,1,.58-.61A.57.57,0,0,1,57.4,68.7Z"/><path class="cls-4" d="M58,67.78c-.07.08-.53-.26-1.18-.25s-1.13.32-1.2.24,0-.17.25-.33a1.66,1.66,0,0,1,1-.29,1.61,1.61,0,0,1,.94.3C58,67.61,58,67.75,58,67.78Z"/><path class="cls-4" d="M51,68.7a.6.6,0,0,1-.58.61.57.57,0,0,1-.62-.54.59.59,0,0,1,.58-.61A.57.57,0,0,1,51,68.7Z"/><path class="cls-4" d="M51.6,67.91c-.08.07-.54-.26-1.19-.26s-1.12.32-1.2.24,0-.17.25-.32a1.71,1.71,0,0,1,1-.3,1.62,1.62,0,0,1,.95.3C51.56,67.73,51.63,67.87,51.6,67.91Z"/><path class="cls-4" d="M54,72.73a3.84,3.84,0,0,1,1-.19c.17,0,.33-.05.35-.16a.87.87,0,0,0-.11-.5c-.15-.4-.32-.82-.49-1.26a22,22,0,0,1-1.1-3.31A22.76,22.76,0,0,1,55,70.52c.16.45.32.87.47,1.27a1,1,0,0,1,.08.66.4.4,0,0,1-.27.24,1.7,1.7,0,0,1-.28,0A4.31,4.31,0,0,1,54,72.73Z"/><path class="cls-4" d="M52,73.18c.11,0,.11.7.71,1.2s1.36.42,1.37.52-.17.14-.49.15a1.76,1.76,0,0,1-1.14-.4,1.56,1.56,0,0,1-.55-1C51.92,73.35,52,73.18,52,73.18Z"/><path class="cls-4" d="M51.76,65.36c-.06.17-.71.09-1.47.18s-1.38.3-1.48.14.06-.24.31-.41a2.57,2.57,0,0,1,1.09-.39,2.53,2.53,0,0,1,1.16.14C51.65,65.13,51.79,65.27,51.76,65.36Z"/><path class="cls-4" d="M57.75,65.9c-.11.15-.56,0-1.1,0s-1,.1-1.1-.06,0-.22.22-.36a1.55,1.55,0,0,1,.9-.24,1.46,1.46,0,0,1,.88.3C57.74,65.68,57.8,65.83,57.75,65.9Z"/><path class="cls-4" d="M40.29,61.53a1.6,1.6,0,0,1,1.33-1.68,2,2,0,0,1,.5-2.25,2,2,0,0,1,2.3-.21,2.53,2.53,0,0,1,4.46-.91,2.71,2.71,0,0,1,4.55.72,3,3,0,0,1,4.36.62,4,4,0,0,1,1.45-.23,1.75,1.75,0,0,1,1.52,1,1.16,1.16,0,0,1-.44,1.37A1.4,1.4,0,1,1,61,62.65a.81.81,0,0,1,.44.74,1.49,1.49,0,0,1-1,1.09,5.41,5.41,0,0,1-3.86-.06C55.3,64,54.14,63.35,52.9,62.9s-3.31-1.26-4.56-.83a2.34,2.34,0,0,0-.49.27,3.29,3.29,0,0,0-1.23,2.14l0,.09c-.16,1.21-.13,2.43-.31,3.64a5.42,5.42,0,0,1-1.49,3.26c-.36.35-1,.58-1.31.18a1,1,0,0,1-.15-.55c-.17-2.11-.62-4-.86-6.1a6.26,6.26,0,0,0-1.15-1.39A3.33,3.33,0,0,1,40.29,61.53Z"/><path class="cls-5" d="M52.91,59.41a1.1,1.1,0,0,0,.06-.57,2.16,2.16,0,0,0-.68-1.39A2.23,2.23,0,0,0,50.07,57,1.73,1.73,0,0,0,49,58a1.22,1.22,0,0,0,0,.78.93.93,0,0,0,.55.61.89.89,0,0,0,.82-.09.8.8,0,0,0,.3-.75,1.06,1.06,0,0,0-.34-.68,1.58,1.58,0,0,0-.62-.34,2.61,2.61,0,0,0-2.25.37,1.55,1.55,0,0,0-.55.72,1.25,1.25,0,0,0,0,.68c.1.38.31.49.31.48a1.24,1.24,0,0,1-.2-.5,1.13,1.13,0,0,1,.07-.61,1.41,1.41,0,0,1,.52-.61,2.41,2.41,0,0,1,2.07-.29,1,1,0,0,1,.77.8.54.54,0,0,1-.2.51.61.61,0,0,1-.56.06.8.8,0,0,1-.37-1,1.45,1.45,0,0,1,.88-.8,2,2,0,0,1,2,.34,2.24,2.24,0,0,1,.7,1.27C52.92,59.2,52.89,59.4,52.91,59.41Z"/><path class="cls-5" d="M47.77,56.71a1,1,0,0,0-.39-.08,4.38,4.38,0,0,0-1.06,0,2.47,2.47,0,0,0-1.42.73,1.58,1.58,0,0,0-.23,1.91,2,2,0,0,0,.23.27l.14-.23a1.12,1.12,0,0,0-1,.13,1.28,1.28,0,0,0-.54.76,1.8,1.8,0,0,0,.33,1.47,2.88,2.88,0,0,0,.72.68,1,1,0,0,0,.33.17s-.09-.1-.26-.25a3.34,3.34,0,0,1-.64-.71,1.63,1.63,0,0,1-.24-1.29,1,1,0,0,1,.44-.61.88.88,0,0,1,.77-.1l.7.28-.56-.51a.91.91,0,0,1-.18-.21,1.22,1.22,0,0,1-.18-.85,1.46,1.46,0,0,1,.36-.75,2.38,2.38,0,0,1,1.28-.7C47.21,56.68,47.77,56.76,47.77,56.71Z"/><path class="cls-5" d="M41.64,61.19s-.11.14-.11.4a1.43,1.43,0,0,0,.37.94,1.47,1.47,0,0,0,.9.47c.26,0,.41,0,.41-.07a1.79,1.79,0,0,1-1.57-1.74Z"/><path class="cls-5" d="M59.72,59a1.17,1.17,0,0,0-.39-.33A2.79,2.79,0,0,0,58,58.31a2.72,2.72,0,0,0-1.92.77,1.57,1.57,0,0,0-.5,1.17,1,1,0,0,0,1,.92.72.72,0,0,0,.6-.46,1.09,1.09,0,0,0,0-.71,1.34,1.34,0,0,0-.91-.88,1.71,1.71,0,0,0-1.14,0,2.48,2.48,0,0,0-.84.51,3.94,3.94,0,0,0-.83,1.11c-.16.29-.23.45-.21.46s.12-.14.29-.41a5,5,0,0,1,.87-1,1.87,1.87,0,0,1,1.78-.44,1.11,1.11,0,0,1,.74.72c.1.34-.06.81-.42.83a.71.71,0,0,1-.71-.67,1.39,1.39,0,0,1,.42-1A2.55,2.55,0,0,1,58,58.5a2.8,2.8,0,0,1,1.3.25C59.56,58.88,59.71,59,59.72,59Z"/><path class="cls-7" d="M44.71,68.87c-.07,0-2.91-.86-2.82,2a2.17,2.17,0,0,0,3,2.12C44.88,72.94,44.71,68.87,44.71,68.87Z"/><path class="cls-8" d="M44,72s-.05,0-.13.07a.44.44,0,0,1-.38,0,1.26,1.26,0,0,1-.61-1.1,1.68,1.68,0,0,1,.12-.72.56.56,0,0,1,.37-.4.26.26,0,0,1,.3.13c0,.08,0,.13,0,.14s.06,0,0-.17a.32.32,0,0,0-.12-.18.37.37,0,0,0-.28-.06.69.69,0,0,0-.51.46,1.69,1.69,0,0,0-.15.82,1.3,1.3,0,0,0,.78,1.22.51.51,0,0,0,.45-.09C44,72,44,72,44,72Z"/><path class="cls-3" d="M36.11,106c0,.7,2.09,14.71,2.09,14.71L34,143.43l16.14.86,1.92-14,2.11,14,14-1.36L65,125.22,65,105l-.18-16.3-6-2L55.81,83l-5,3.1-6.16-3.68-1.94,2.66L34,89.61C33.25,91.06,36.11,106,36.11,106Z"/><path class="cls-9" d="M44.67,82.43l-.2,4.41L53,109.43,56.4,87.24,55.28,83h0l-4.45,3.13Z"/><path class="cls-4" d="M52.77,110.29a1.43,1.43,0,0,1-.2-.24l-.55-.73-2-2.71-6.44-9-1.06-1.49,0-.07,0-.07,1.69-2.44,0,.16-3.74-2.79-.06-.05,0-.06,1.61-4.19c.19-.48.35-.86.46-1.15a2.07,2.07,0,0,1,.18-.39,3.37,3.37,0,0,1-.13.41l-.4,1.17c-.38,1-.9,2.47-1.53,4.21l0-.11,3.77,2.76.09.07-.06.1-1.68,2.44V96l1.06,1.49c2.49,3.51,4.73,6.69,6.38,9l1.91,2.75.51.76A1.18,1.18,0,0,1,52.77,110.29Z"/><path class="cls-4" d="M52,133.84a.64.64,0,0,1,0-.24v-.7c0-.65,0-1.53.07-2.59.08-2.21.18-5.21.29-8.52s.19-6.31.26-8.52c0-1.06.05-1.94.07-2.58,0-.28,0-.52,0-.71a1.1,1.1,0,0,1,0-.24.75.75,0,0,1,0,.24c0,.19,0,.43,0,.71,0,.61,0,1.49,0,2.58,0,2.19-.08,5.2-.19,8.53s-.25,6.34-.36,8.52c-.06,1.06-.12,1.93-.15,2.58l-.06.7A.75.75,0,0,1,52,133.84Z"/><path class="cls-4" d="M53.12,109.63l.09-.26.28-.72c.26-.65.63-1.54,1.07-2.63l3.63-8.65c.3-.69.59-1.38.87-2l0,.12-2-2.36L57,93l.07-.07L60,90l0,.09L59,87.41c-.09-.3-.17-.54-.23-.73a1.32,1.32,0,0,1-.07-.26.86.86,0,0,1,.11.24l.28.71,1,2.64,0,0,0,0-2.82,3V93l2,2.35.05,0,0,.07-.86,2-3.7,8.62c-.47,1.07-.86,2-1.14,2.6l-.33.7A.84.84,0,0,1,53.12,109.63Z"/><g class="cls-10"><polygon points="40.58 90.85 43.08 93.64 41.35 96.75 52.04 109.43 42.65 96.07 44.33 93.63 40.58 90.85"/></g><g class="cls-10"><polygon points="53.38 109.03 59.33 97.36 59.17 95.38 53.38 109.03"/></g><path class="cls-4" d="M34.65,91.11a1.28,1.28,0,0,1,.32.21,5.8,5.8,0,0,1,.79.69,9.48,9.48,0,0,1,2,2.87,9.71,9.71,0,0,1,.8,3.38,8,8,0,0,1,0,1,1.31,1.31,0,0,1-.06.38c-.05,0,0-.55-.09-1.42A10.44,10.44,0,0,0,37.48,95a10.88,10.88,0,0,0-1.84-2.85C35.05,91.48,34.62,91.14,34.65,91.11Z"/><path class="cls-4" d="M65.84,102.51c-.07,0-.3-2.57-.51-5.75S65,91,65.06,91s.3,2.57.51,5.75S65.91,102.5,65.84,102.51Z"/><path class="cls-4" d="M56.37,87.32a1.7,1.7,0,0,1-.25.28c-.18.18-.43.43-.77.75a20.81,20.81,0,0,1-3,2.42l-.16.1v-.19a8.08,8.08,0,0,0-.39-2.51,6.63,6.63,0,0,0-.61-1.26,7.11,7.11,0,0,0-.41-.6l0-.07,0,0h0l.15,0h0a.57.57,0,0,0-.11.11,1.49,1.49,0,0,0-.18.3A8.68,8.68,0,0,0,50,88.8c-.13.71-.24,1.41-.34,2.06l0,.2-.15-.12-3.6-2.87-1-.84a1.89,1.89,0,0,1-.34-.31,2.24,2.24,0,0,1,.39.26L46,88l3.66,2.8-.18.07c.09-.66.2-1.35.33-2.08a8.58,8.58,0,0,1,.61-2.22,1.68,1.68,0,0,1,.2-.34,1.21,1.21,0,0,1,.16-.16l0,0h0l.15,0h0l0,0,.06.07c.15.21.29.41.42.62a6.85,6.85,0,0,1,.63,1.31,7.81,7.81,0,0,1,.37,2.58l-.17-.08a24.27,24.27,0,0,0,3-2.33l.8-.71A1.44,1.44,0,0,1,56.37,87.32Z"/><path class="cls-4" d="M52.76,109.23c-.07,0-.56-5.14-1.09-11.48s-.91-11.48-.85-11.49.56,5.13,1.09,11.47S52.83,109.22,52.76,109.23Z"/><g class="cls-10"><path d="M37.82,104.17s-.41,11.12-.41,11.15-1-6.57-1-6.57Z"/></g><path class="cls-7" d="M83.76,105.19l-5.09-3.8L80,98.92l3-4.3A1.56,1.56,0,0,1,84,94l2.62-.42.13.81s1-.65,1.33.18-.83,1.64-.83,1.64a1,1,0,0,1,1.2.78.93.93,0,0,1-.76,1.17c.76,1,0,1.62,0,1.62.9,1-.33,2-.33,2L84,105.16Z"/><polygon class="cls-3" points="95.77 67.65 96.1 67.96 84.05 103.4 82.82 102.84 95.77 67.65"/><path class="cls-7" d="M87.87,101a5.09,5.09,0,0,1-1.68,1.68,1.66,1.66,0,0,1-.61.3.66.66,0,0,1-.63-.2.7.7,0,0,1-.12-.47,1.58,1.58,0,0,1,.43-.92,4.5,4.5,0,0,1,.8-.64"/><path class="cls-8" d="M86.06,100.76s-.28.23-.67.63a1.71,1.71,0,0,0-.44.82.68.68,0,0,0,.08.49.49.49,0,0,0,.46.18,2.45,2.45,0,0,0,1-.55,6.68,6.68,0,0,0,.76-.64c.4-.39.58-.7.61-.68a1.94,1.94,0,0,1-.49.8,5.78,5.78,0,0,1-.75.69l-.48.36a1.46,1.46,0,0,1-.64.25.72.72,0,0,1-.67-.28.93.93,0,0,1-.1-.66,1.74,1.74,0,0,1,.54-.9A2.12,2.12,0,0,1,86.06,100.76Z"/><path class="cls-3" d="M64.86,88.65c1.33.44,3.39,4.32,3.39,4.32L73.71,109s4.85-7.89,4.85-8,6.27,4.6,6.27,4.6l-4.13,8.07-.22,2.09-4,6.48c-1,1.09-2.8,1.33-4.28,1.24h0a4.93,4.93,0,0,1-4.26-3L65,112.33Z"/><path class="cls-3" d="M31.76,92.83l-4.5,14.44-4.8-9.49-7.17,4.58L22,117.21c1,2.25,3.8,4.55,5.83,4.55h0a7.14,7.14,0,0,0,6.71-4.68l4.8-11.66L34,89.61h0A6.39,6.39,0,0,0,31.76,92.83Z"/><path class="cls-4" d="M27.24,115.67c-.06,0-.09-1.94-.07-4.32a41.9,41.9,0,0,1,.15-4.31,38.3,38.3,0,0,1,.08,4.31A37.32,37.32,0,0,1,27.24,115.67Z"/><path class="cls-4" d="M29.41,113.14a5.8,5.8,0,0,1-.29-1c-.16-.59-.38-1.41-.64-2.31s-.5-1.73-.69-2.3a.51.51,0,0,0-.47-.38c-.16,0-.22.1-.23.08s0-.13.22-.17a.55.55,0,0,1,.34.06.84.84,0,0,1,.29.35,22.63,22.63,0,0,1,.76,2.29c.26.91.45,1.74.57,2.34A4.13,4.13,0,0,1,29.41,113.14Z"/><path class="cls-4" d="M21.82,116.64l.13.25c.09.16.21.4.39.7a11,11,0,0,0,1.81,2.32,7.35,7.35,0,0,0,1.63,1.18,5.51,5.51,0,0,0,2.22.56,5.83,5.83,0,0,0,2.5-.44,7.25,7.25,0,0,0,2.25-1.53,8.06,8.06,0,0,0,1-1.33h0c1.28-3.17,2.5-6,3.39-7.93.45-1,.81-1.79,1.07-2.33l.3-.62c.07-.14.11-.22.12-.21a.88.88,0,0,1-.08.23l-.27.63-1,2.36c-.85,2-2,4.78-3.32,8h0a7.87,7.87,0,0,1-1.09,1.38,7.08,7.08,0,0,1-2.33,1.58,5.93,5.93,0,0,1-2.59.44,5.47,5.47,0,0,1-2.29-.6A7.31,7.31,0,0,1,24,120a10.17,10.17,0,0,1-1.77-2.39c-.17-.31-.28-.56-.36-.73A.84.84,0,0,1,21.82,116.64Z"/><path class="cls-7" d="M84,94l2.62-.42s.48.76-1.46,1.81l-1.22.74a4.56,4.56,0,0,1-.47,4.16"/><path class="cls-8" d="M83.42,100.28s.19-.43.42-1.16a4.81,4.81,0,0,0,.23-1.32,3.65,3.65,0,0,0-.28-1.63l0-.1.08,0,1-.58A7.6,7.6,0,0,0,86,94.63a1.7,1.7,0,0,0,.41-.49.66.66,0,0,0,.06-.52l.1,0c-.79.12-1.45.21-1.91.26A3.28,3.28,0,0,1,84,94a3.8,3.8,0,0,1,.71-.17l1.9-.35h.07l0,.06a.8.8,0,0,1,0,.71,2.06,2.06,0,0,1-.45.57,8,8,0,0,1-1.25.84l-1,.58,0-.15a3.79,3.79,0,0,1,.28,1.74A4.91,4.91,0,0,1,84,99.17a3.16,3.16,0,0,1-.2.48,1.87,1.87,0,0,1-.18.35C83.49,100.19,83.43,100.29,83.42,100.28Z"/><path class="cls-4" d="M84.42,105.38a2.93,2.93,0,0,1-.45-.29l-1.21-.87-4.26-3.13.15,0-2.84,4.72L74.47,108a19.18,19.18,0,0,0-1.18,2.08,11.81,11.81,0,0,0-1,6.6c.08.64.17,1,.15,1a.9.9,0,0,1-.08-.25c-.05-.17-.1-.41-.16-.74a11.22,11.22,0,0,1,.89-6.7,18.61,18.61,0,0,1,1.18-2.11c.43-.71.88-1.45,1.33-2.21L78.47,101l.06-.1.09.07,4.21,3.2c.49.38.89.68,1.18.92A2.93,2.93,0,0,1,84.42,105.38Z"/><path class="cls-4" d="M73.73,109.1a10.31,10.31,0,0,0-2.18,2.23,10,10,0,0,0-1.19,2.88,2.35,2.35,0,0,1,.1-.93,6.37,6.37,0,0,1,.9-2.08,6.51,6.51,0,0,1,1.55-1.64A2.77,2.77,0,0,1,73.73,109.1Z"/><path class="cls-4" d="M65,95.41a1.25,1.25,0,0,1,0,.3l0,.87c0,.76,0,1.85.07,3.2,0,2.69,0,6.42,0,10.53s-.06,7.85-.1,10.54c0,1.33,0,2.42-.06,3.2l0,.86a1.92,1.92,0,0,1,0,.31,1.09,1.09,0,0,1,0-.31c0-.22,0-.51,0-.86,0-.79,0-1.87,0-3.2,0-2.72,0-6.43,0-10.54s0-7.81,0-10.53V95.72A1.09,1.09,0,0,1,65,95.41Z"/><path class="cls-7" d="M87.28,94.17a12.54,12.54,0,0,0-3,2.2,1.11,1.11,0,0,0-.12.5.52.52,0,0,0,.23.45.81.81,0,0,0,.74,0,9.21,9.21,0,0,0,2.65-1.64,1.23,1.23,0,0,0,.36-.79.67.67,0,0,0-.42-.7"/><path class="cls-8" d="M87.71,94.17s.18,0,.35.23A1,1,0,0,1,88,95.52a3.36,3.36,0,0,1-.57.56,7.24,7.24,0,0,1-.73.53,8.94,8.94,0,0,1-.87.48l-.47.23a2.07,2.07,0,0,1-.53.19.71.71,0,0,1-.6-.17.73.73,0,0,1-.18-.57,1.15,1.15,0,0,1,.18-.52,2.49,2.49,0,0,1,.35-.37,13.5,13.5,0,0,1,1.36-1,5.09,5.09,0,0,1,1.35-.73,3.3,3.3,0,0,1-.34.23L86,95c-.38.28-.85.6-1.31,1a1.83,1.83,0,0,0-.3.33,1,1,0,0,0-.15.42.54.54,0,0,0,.12.39.5.5,0,0,0,.4.1,8.4,8.4,0,0,0,3.08-1.85,1,1,0,0,0,.13-1A.74.74,0,0,0,87.71,94.17Z"/><path class="cls-7" d="M85.94,98.88a6,6,0,0,0-1,.54,2.09,2.09,0,0,0-.69.84.7.7,0,0,0,0,.7.63.63,0,0,0,.45.2,1.63,1.63,0,0,0,.49-.09,7.22,7.22,0,0,0,1.78-.83,3,3,0,0,0,.63-.55,1.11,1.11,0,0,0,.25-.78c0-.28,0-.58-.31-.68"/><path class="cls-8" d="M87.63,98.23s.16,0,.27.21a1.23,1.23,0,0,1,.1.39,1,1,0,0,1,0,.53,2,2,0,0,1-.92,1,7.13,7.13,0,0,1-1.49.73,2.08,2.08,0,0,1-.87.16.64.64,0,0,1-.42-.22.64.64,0,0,1-.14-.43,1.63,1.63,0,0,1,.71-1.17,3.4,3.4,0,0,1,.79-.45.92.92,0,0,1,.32-.11s-.1.08-.28.19a4.86,4.86,0,0,0-.73.49,1.92,1.92,0,0,0-.39.45,1.06,1.06,0,0,0-.21.6.41.41,0,0,0,.38.43,1.9,1.9,0,0,0,.77-.16,7,7,0,0,0,1.45-.69,2,2,0,0,0,.88-.88,1,1,0,0,0,.06-.47,1.27,1.27,0,0,0-.05-.37C87.75,98.28,87.62,98.25,87.63,98.23Z"/><path class="cls-7" d="M88.38,96.93a1,1,0,0,0-1.3-.63,13.3,13.3,0,0,0-2,1.16,1.23,1.23,0,0,0-.43.62.74.74,0,0,0,.08.72.8.8,0,0,0,.69.25,2.19,2.19,0,0,0,.73-.22l1.6-.68A1.1,1.1,0,0,0,88.41,97v0"/><path class="cls-8" d="M88.4,97s.08.13,0,.4a1.19,1.19,0,0,1-.71.86l-1.48.66a2.24,2.24,0,0,1-1,.27,1,1,0,0,1-.54-.18.76.76,0,0,1-.28-.53,1,1,0,0,1,.11-.54,1.42,1.42,0,0,1,.29-.43,4.94,4.94,0,0,1,.77-.54c.52-.3,1-.52,1.4-.72h0a1.48,1.48,0,0,1,.72,0,.81.81,0,0,1,.45.3.86.86,0,0,1,.15.31c0,.07,0,.11,0,.12a2.51,2.51,0,0,0-.23-.37.85.85,0,0,0-.41-.23,1.39,1.39,0,0,0-.63,0h0c-.4.22-.87.45-1.37.75a5.27,5.27,0,0,0-.72.52,1.11,1.11,0,0,0-.33.79.57.57,0,0,0,.6.5,2.13,2.13,0,0,0,.87-.23l1.5-.62a1.09,1.09,0,0,0,.68-.73C88.41,97.12,88.38,97,88.4,97Z"/><rect class="cls-11" x="103.54" width="102.54" height="154.64"/><rect class="cls-12" x="113.45" y="8.65" width="82.56" height="92.02"/><circle class="cls-12" cx="130.05" cy="130.07" r="14.85" transform="translate(-39.19 202.09) rotate(-68.06)"/><path class="cls-13" d="M142.6,130.07a12.55,12.55,0,1,0-4.94,10l-7.61-10,11.73,4.47A12.53,12.53,0,0,0,142.6,130.07Z"/><circle class="cls-12" cx="180.64" cy="130.07" r="14.85" transform="translate(12.55 275.99) rotate(-76.72)"/><path class="cls-13" d="M180.64,117.52a12.54,12.54,0,0,0-8.95,21.35l8.95-8.8,11.72,4.47a12.56,12.56,0,0,0-11.72-17Z"/><path class="cls-14" d="M178.8,123.7h-5.34a.38.38,0,0,0-.38.38h0a.38.38,0,0,0,.38.38h5.34a.38.38,0,0,0,.38-.38h0A.38.38,0,0,0,178.8,123.7Z"/><path class="cls-14" d="M178.8,124.9h-5.34a.39.39,0,0,0-.38.39.38.38,0,0,0,.38.38h5.34a.38.38,0,0,0,.38-.38A.39.39,0,0,0,178.8,124.9Z"/><path class="cls-14" d="M175.66,126.11h-2.2a.38.38,0,0,0-.38.38.39.39,0,0,0,.38.39h2.2a.4.4,0,0,0,.39-.39A.39.39,0,0,0,175.66,126.11Z"/><path class="cls-14" d="M128.11,123.7h-5.34a.38.38,0,0,0-.38.38h0a.38.38,0,0,0,.38.38h5.34a.38.38,0,0,0,.38-.38h0A.38.38,0,0,0,128.11,123.7Z"/><path class="cls-14" d="M128.11,124.9h-5.34a.39.39,0,0,0-.38.39.38.38,0,0,0,.38.38h5.34a.38.38,0,0,0,.38-.38A.39.39,0,0,0,128.11,124.9Z"/><path class="cls-14" d="M125,126.11h-2.21a.38.38,0,0,0-.38.38.39.39,0,0,0,.38.39H125a.39.39,0,0,0,.38-.39A.38.38,0,0,0,125,126.11Z"/><rect class="cls-15" x="120.8" y="41.54" width="8.71" height="54.27"/><rect class="cls-15" x="135.07" y="26.41" width="8.71" height="69.39"/><rect class="cls-15" x="150.64" y="54.66" width="8.71" height="41.14"/><rect class="cls-15" x="165.8" y="35.67" width="8.71" height="60.13"/><rect class="cls-15" x="181.03" y="62.71" width="8.71" height="33.09"/><path class="cls-15" d="M174.09,27.85h-7.37a.77.77,0,0,0-.77.76.78.78,0,0,0,.77.77h7.37a.78.78,0,0,0,.77-.77A.77.77,0,0,0,174.09,27.85Z"/><path class="cls-15" d="M168.4,30.63h-1.68a.76.76,0,1,0,0,1.52h1.68a.76.76,0,0,0,0-1.52Z"/><path class="cls-15" d="M143.69,16h-7.37a.77.77,0,0,0-.77.76.78.78,0,0,0,.77.77h7.37a.78.78,0,0,0,.77-.77A.77.77,0,0,0,143.69,16Z"/><path class="cls-15" d="M138,18.81h-1.68a.77.77,0,0,0-.77.76h0a.77.77,0,0,0,.77.76H138a.76.76,0,0,0,.76-.76h0A.76.76,0,0,0,138,18.81Z"/><path class="cls-15" d="M158.69,46.56h-7.38a.76.76,0,0,0-.76.76.77.77,0,0,0,.76.77h7.38a.77.77,0,0,0,.76-.77A.76.76,0,0,0,158.69,46.56Z"/><path class="cls-15" d="M153,49.34h-1.68a.76.76,0,0,0-.76.76h0a.76.76,0,0,0,.76.76H153a.76.76,0,0,0,.76-.76h0A.76.76,0,0,0,153,49.34Z"/><path class="cls-15" d="M189.07,54.66H181.7a.77.77,0,0,0-.77.76.78.78,0,0,0,.77.77h7.37a.78.78,0,0,0,.77-.77A.77.77,0,0,0,189.07,54.66Z"/><path class="cls-15" d="M183.38,57.44H181.7a.76.76,0,1,0,0,1.52h1.68a.76.76,0,1,0,0-1.52Z"/><path class="cls-9" d="M29.27,69.89a11.89,11.89,0,1,0-9,4.81,11.93,11.93,0,0,0,6-2l4.23,1.64Z"/><path class="cls-4" d="M22.9,62.88a1,1,0,1,0,1-1A1,1,0,0,0,22.9,62.88Z"/><path class="cls-4" d="M18.82,62.88a1,1,0,1,0,1-1A1,1,0,0,0,18.82,62.88Z"/><path class="cls-4" d="M14.76,62.37A1,1,0,1,0,16.15,62,1,1,0,0,0,14.76,62.37Z"/><path class="cls-4" d="M19.78,51h-.21L19,51a3.54,3.54,0,0,0-.45,0l-.53.07-.63.09-.69.17a11.43,11.43,0,0,0-3.37,1.47,11.92,11.92,0,0,0-5.47,9,11,11,0,0,0,0,1.63c0,.28,0,.56,0,.83s.08.56.13.84a11.76,11.76,0,0,0,1.13,3.32,12.67,12.67,0,0,0,2.17,3,12.58,12.58,0,0,0,3.12,2.24,11.27,11.27,0,0,0,3.81,1.17,8.42,8.42,0,0,0,1,.08,7.09,7.09,0,0,0,1,0,12.07,12.07,0,0,0,6.15-2h-.13l4.17,1.68.25.1-.07-.26c-.42-1.53-.83-3-1.23-4.46l0,.11A12,12,0,0,0,31.6,65a11,11,0,0,0,.16-2.61,8.67,8.67,0,0,0-.12-1.25l-.09-.61c0-.2-.1-.4-.15-.59a11.93,11.93,0,0,0-4.65-6.78A11.12,11.12,0,0,0,24,51.7l-.62-.23-.59-.15-.55-.13-.49-.08c-.32,0-.6-.09-.84-.1l-.61,0h-.5s0,0,.12,0l.38,0,.6,0c.25,0,.52.08.83.13A11.81,11.81,0,0,1,31.19,60a5.45,5.45,0,0,1,.14.58l.09.6a7.12,7.12,0,0,1,.11,1.23A10.13,10.13,0,0,1,31.36,65a11.77,11.77,0,0,1-2.19,5l0,0,0,.06c.39,1.44.8,2.93,1.21,4.46l.18-.16-4.17-1.68-.06,0-.06,0a12,12,0,0,1-4,1.68,11.51,11.51,0,0,1-2,.25,6.81,6.81,0,0,1-1,0,6.61,6.61,0,0,1-1-.08,11,11,0,0,1-3.72-1.14,11.84,11.84,0,0,1-3.06-2.19,12.35,12.35,0,0,1-2.13-2.91A12.06,12.06,0,0,1,8.21,65c0-.27-.08-.55-.13-.82s0-.55-.05-.82a12.16,12.16,0,0,1,0-1.6A11.82,11.82,0,0,1,13.38,53a11.21,11.21,0,0,1,3.32-1.49l.68-.19.62-.1.53-.09.44,0,.6,0A.58.58,0,0,0,19.78,51Z"/></g></g></svg>