<svg xmlns="http://www.w3.org/2000/svg" viewBox="0 0 35.3 35.3"><defs><style>.cls-1{fill:#6d73ef;}</style></defs><title>mission</title><g id="Layer_2" data-name="Layer 2"><g id="ICONS"><path class="cls-1" d="M35.08.22A.75.75,0,0,0,34,.22L31.76,2.48,24,5.07a.7.7,0,0,0-.29.19l-9.91,9.9-6.49-1.5a.76.76,0,0,0-.7.2L.22,20.23a.75.75,0,0,0,.36,1.26l6.9,1.59.16,0h0L9.4,24.84,7.11,27.12a.75.75,0,0,0,0,1.06.74.74,0,0,0,.53.22.71.71,0,0,0,.53-.22l2.29-2.28,1.74,1.74a.55.55,0,0,0,0,.18l1.59,6.9a.76.76,0,0,0,.52.55l.21,0a.77.77,0,0,0,.53-.22l6.36-6.37a.75.75,0,0,0,.2-.7l-1.49-6.49,9.9-9.9a.68.68,0,0,0,.18-.29l2.6-7.79,2.26-2.26A.75.75,0,0,0,35.08.22Zm-27.73,15,5.17,1.19L7.41,21.52,2.24,20.33ZM20.08,28,15,33.06l-1.19-5.17,5.11-5.11Zm-7-1.52-1.59-1.59,5.67-5.67a.75.75,0,0,0,0-1.06.74.74,0,0,0-1.06,0l-5.67,5.67-1.6-1.59L24.61,6.44,31,4.32l-2.12,6.36Z"/><path class="cls-1" d="M19.75,14a1.12,1.12,0,1,0,1.59,0A1.12,1.12,0,0,0,19.75,14Z"/><path class="cls-1" d="M22.4,11.3a1.12,1.12,0,1,0,1.59,0A1.12,1.12,0,0,0,22.4,11.3Z"/><circle class="cls-1" cx="25.85" cy="9.45" r="1.13"/></g></g></svg>