<svg id="Layer_1" data-name="Layer 1" xmlns="http://www.w3.org/2000/svg" viewBox="0 0 1902 280"><defs><style>.cls-1{fill:#f9faff;}.cls-2{fill:#ebf2f9;}.cls-3{fill:#aed3ff;}.cls-4{fill:#d2e4ff;}.cls-5{fill:#f3f9ff;}.cls-6{fill:#ee9849;}.cls-7{fill:#a6c7f9;}.cls-8{fill:#c65447;}.cls-9{fill:#e57970;}.cls-10{fill:#dd7c2c;}.cls-11{fill:#a8d29f;}.cls-12{fill:#f1a34f;}.cls-13{fill:#82b378;}.cls-14{fill:#dd8936;}.cls-15{fill:#e58638;}.cls-16{fill:#163560;}.cls-17{fill:#1c468a;}.cls-18{fill:#ffb27d;}.cls-19{fill:#fca56b;}.cls-20{fill:#e37970;}.cls-21{fill:#d68d5d;}.cls-22{fill:#80bdcc;}.cls-23{fill:#e7f1fd;}.cls-24{fill:#5f9aa8;}.cls-25{fill:#c45446;}.cls-26{fill:#e49963;}.cls-27{fill:#4a75cb;}.cls-28{fill:#2b478b;}.cls-29{fill:#739af0;}.cls-30{fill:#202f4e;}</style></defs><title>products_bg</title><rect class="cls-1" x="-0.5" width="1903" height="280"/><path class="cls-2" d="M1390.28,137.22c-15.46-13.19-34.1-92.72-98-51.3-33,21.4-88.61-18.37-134.65-4.64-42.29,12.62-46.36,54.19-42.27,67.73,8.26,27.36-17.45,31.44-41.31,43.19-37.42,18.44-9.91,83.25,25.45,83.56s249.53-.62,249.53-.62,51.36.13,72.72-28.22C1444.78,216.42,1430.21,171.28,1390.28,137.22Z"/><rect class="cls-3" x="1325.13" y="88.28" width="88.02" height="147.88" transform="translate(2738.28 324.45) rotate(180)"/><rect class="cls-4" x="1322.37" y="88.28" width="88.02" height="147.88"/><rect class="cls-5" x="1328.36" y="96.55" width="76.24" height="51.51"/><rect class="cls-5" x="1362.37" y="196.39" width="40.92" height="27.5"/><path class="cls-6" d="M1331.51,122.84s13-1.63,21,5.7,22.77.65,28.74,0c10.37-1.13,18.5,2.27,20.91,6v11.19h-70.62Z"/><rect class="cls-7" x="1341.6" y="104.83" width="0.55" height="17.48"/><rect class="cls-7" x="1363" y="112.32" width="0.55" height="17.48"/><rect class="cls-7" x="1385.09" y="108.37" width="0.55" height="17.48"/><path class="cls-7" d="M1348.23,107.51h-4.18a.46.46,0,0,1-.45-.46h0a.45.45,0,0,1,.45-.45h4.18a.46.46,0,0,1,.46.45h0A.47.47,0,0,1,1348.23,107.51Z"/><path class="cls-7" d="M1348.23,109.14h-4.18a.45.45,0,0,1-.45-.45h0a.46.46,0,0,1,.45-.46h4.18a.47.47,0,0,1,.46.46h0A.46.46,0,0,1,1348.23,109.14Z"/><path class="cls-7" d="M1369.32,116.41h-4.18a.46.46,0,0,1-.46-.45h0a.46.46,0,0,1,.46-.45h4.18a.46.46,0,0,1,.46.45h0A.46.46,0,0,1,1369.32,116.41Z"/><path class="cls-7" d="M1369.32,118h-4.18a.47.47,0,0,1-.46-.46h0a.46.46,0,0,1,.46-.45h4.18a.46.46,0,0,1,.46.45h0A.47.47,0,0,1,1369.32,118Z"/><path class="cls-7" d="M1391.77,109.82h-4.18a.45.45,0,0,1-.45-.45h0a.45.45,0,0,1,.45-.45h4.18a.46.46,0,0,1,.46.45h0A.46.46,0,0,1,1391.77,109.82Z"/><path class="cls-7" d="M1391.77,111.43h-4.18a.46.46,0,0,1-.45-.46h0a.45.45,0,0,1,.45-.45h4.18a.46.46,0,0,1,.46.45h0A.47.47,0,0,1,1391.77,111.43Z"/><path class="cls-5" d="M1389.55,161.23a7.53,7.53,0,1,1,7.53,7.53A7.53,7.53,0,0,1,1389.55,161.23Z"/><path class="cls-8" d="M1404,161.23a6.89,6.89,0,0,1-11.54,5.08l4.66-5.08v-6.89A6.89,6.89,0,0,1,1404,161.23Z"/><path class="cls-7" d="M1394.45,160H1392a.21.21,0,0,1-.21-.21h0a.21.21,0,0,1,.21-.21h2.47a.21.21,0,0,1,.21.21h0A.21.21,0,0,1,1394.45,160Z"/><circle class="cls-5" cx="1378.39" cy="161.23" r="7.53"/><path class="cls-9" d="M1378.39,161.23l4.23,5.44a6.89,6.89,0,1,1,2.63-6.07Z"/><path class="cls-7" d="M1383.69,162.94H1382a.22.22,0,0,1-.21-.21h0a.22.22,0,0,1,.21-.21h1.72a.22.22,0,0,1,.21.21h0A.22.22,0,0,1,1383.69,162.94Z"/><path class="cls-5" d="M1389.55,182a7.53,7.53,0,1,1,7.53,7.52A7.53,7.53,0,0,1,1389.55,182Z"/><path class="cls-6" d="M1404,182a6.88,6.88,0,0,1-11.54,5.07l4.66-5.07v-6.89A6.88,6.88,0,0,1,1404,182Z"/><path class="cls-7" d="M1394.45,180.75H1392a.21.21,0,0,1-.21-.21h0a.2.2,0,0,1,.21-.2h2.47a.2.2,0,0,1,.21.2h0A.21.21,0,0,1,1394.45,180.75Z"/><path class="cls-5" d="M1370.86,182a7.53,7.53,0,1,1,7.53,7.52A7.53,7.53,0,0,1,1370.86,182Z"/><path class="cls-8" d="M1385.25,181.34a6.9,6.9,0,1,0-2.63,6.06l-4.23-5.43Z"/><path class="cls-7" d="M1383.69,183.67H1382a.21.21,0,0,1-.21-.21h0a.21.21,0,0,1,.21-.2h1.72a.21.21,0,0,1,.21.2h0A.21.21,0,0,1,1383.69,183.67Z"/><polygon class="cls-7" points="1401.53 221.98 1363.97 221.98 1363.97 199.78 1364.43 199.78 1364.43 221.51 1401.53 221.51 1401.53 221.98"/><path class="cls-7" d="M1375.71,214c-4.6-3.66-9.49,0-9.49,0v6.26h34.37V204C1391.25,204.27,1380.31,217.61,1375.71,214Z"/><path class="cls-7" d="M1366.61,201.48h16a.4.4,0,0,0,0-.79h-16a.4.4,0,0,0,0,.79Z"/><path class="cls-7" d="M1366.61,203.4h16a.4.4,0,0,0,0-.79h-16a.4.4,0,0,0,0,.79Z"/><rect class="cls-7" x="1366.22" y="204.43" width="11.25" height="0.79" rx="0.32"/><rect class="cls-4" x="1187.37" y="65.3" width="120.43" height="181.62"/><rect class="cls-5" x="1199.01" y="75.46" width="96.96" height="108.08"/><circle class="cls-5" cx="1218.51" cy="218.06" r="17.44" transform="translate(560.88 1266.8) rotate(-68.06)"/><path class="cls-6" d="M1233.25,218.06a14.74,14.74,0,1,0-5.8,11.72l-8.94-11.72,13.77,5.26A14.58,14.58,0,0,0,1233.25,218.06Z"/><circle class="cls-5" cx="1277.92" cy="218.06" r="17.44" transform="translate(772.09 1411.7) rotate(-76.72)"/><path class="cls-6" d="M1277.92,203.32a14.74,14.74,0,0,0-10.5,25.08l10.5-10.34,13.78,5.26a14.76,14.76,0,0,0-13.78-20Z"/><path class="cls-10" d="M1275.77,210.58h-6.27a.45.45,0,0,0-.45.45h0a.45.45,0,0,0,.45.44h6.27a.45.45,0,0,0,.45-.44h0A.45.45,0,0,0,1275.77,210.58Z"/><path class="cls-10" d="M1275.77,212h-6.27a.45.45,0,1,0,0,.89h6.27a.45.45,0,1,0,0-.89Z"/><path class="cls-10" d="M1272.09,213.42h-2.59a.45.45,0,1,0,0,.89h2.59a.45.45,0,0,0,0-.89Z"/><path class="cls-10" d="M1216.24,210.58H1210a.45.45,0,0,0-.45.45h0a.45.45,0,0,0,.45.44h6.28a.44.44,0,0,0,.44-.44h0A.45.45,0,0,0,1216.24,210.58Z"/><path class="cls-10" d="M1216.24,212H1210a.45.45,0,1,0,0,.89h6.28a.45.45,0,0,0,0-.89Z"/><path class="cls-10" d="M1212.55,213.42H1210a.45.45,0,1,0,0,.89h2.59a.45.45,0,1,0,0-.89Z"/><rect class="cls-7" x="1207.64" y="114.08" width="10.23" height="63.74"/><rect class="cls-7" x="1224.41" y="96.31" width="10.23" height="81.5"/><rect class="cls-7" x="1242.7" y="129.49" width="10.23" height="48.32"/><rect class="cls-7" x="1260.5" y="107.2" width="10.23" height="70.62"/><rect class="cls-7" x="1278.39" y="138.95" width="10.23" height="38.87"/><path class="cls-7" d="M1270.24,98h-8.66a.9.9,0,1,0,0,1.79h8.66a.9.9,0,1,0,0-1.79Z"/><path class="cls-7" d="M1263.55,101.27h-2a.9.9,0,1,0,0,1.79h2a.9.9,0,1,0,0-1.79Z"/><path class="cls-7" d="M1234.54,84.13h-8.67a.9.9,0,1,0,0,1.79h8.67a.9.9,0,0,0,0-1.79Z"/><path class="cls-7" d="M1227.84,87.39h-2a.9.9,0,0,0-.9.89h0a.9.9,0,0,0,.9.9h2a.9.9,0,0,0,.9-.9h0A.89.89,0,0,0,1227.84,87.39Z"/><path class="cls-7" d="M1252.15,120h-8.67a.9.9,0,1,0,0,1.79h8.67a.9.9,0,0,0,0-1.79Z"/><path class="cls-7" d="M1245.45,123.24h-2a.91.91,0,0,0-.9.9h0a.91.91,0,0,0,.9.9h2a.9.9,0,0,0,.9-.9h0A.9.9,0,0,0,1245.45,123.24Z"/><path class="cls-7" d="M1287.83,129.49h-8.66a.9.9,0,1,0,0,1.8h8.66a.9.9,0,0,0,0-1.8Z"/><path class="cls-7" d="M1281.14,132.76h-2a.9.9,0,1,0,0,1.79h2a.9.9,0,1,0,0-1.79Z"/><rect class="cls-3" x="1083.1" y="134.14" width="88.02" height="49.55"/><rect class="cls-4" x="1085.97" y="134.14" width="88.02" height="49.55"/><circle class="cls-5" cx="1110.04" cy="157.8" r="15.91" transform="translate(593.26 1152.8) rotate(-70.64)"/><path class="cls-5" d="M1164.09,148.91h-26.36a1.74,1.74,0,0,0-1.74,1.74h0a1.74,1.74,0,0,0,1.74,1.73h26.36a1.74,1.74,0,0,0,1.74-1.73h0A1.74,1.74,0,0,0,1164.09,148.91Z"/><path class="cls-5" d="M1164.09,156.06h-26.36a1.74,1.74,0,0,0-1.74,1.74h0a1.74,1.74,0,0,0,1.74,1.74h26.36a1.74,1.74,0,0,0,1.74-1.74h0A1.74,1.74,0,0,0,1164.09,156.06Z"/><path class="cls-5" d="M1164.09,163.22h-26.36a1.74,1.74,0,1,0,0,3.47h26.36a1.74,1.74,0,1,0,0-3.47Z"/><path class="cls-11" d="M1095.47,157.57H1110V143A14.57,14.57,0,0,0,1095.47,157.57Z"/><path class="cls-12" d="M1124.61,158h-29.14A14.57,14.57,0,0,0,1110,172.61h0A14.57,14.57,0,0,0,1124.61,158Z"/><path class="cls-13" d="M1107.52,150.08h-7.91a.82.82,0,0,0-.81.82.81.81,0,0,0,.81.81h7.91a.82.82,0,0,0,.82-.81A.82.82,0,0,0,1107.52,150.08Z"/><path class="cls-13" d="M1101.41,153.05h-1.8a.82.82,0,0,0,0,1.64h1.8a.82.82,0,0,0,0-1.64Z"/><path class="cls-14" d="M1119.26,161.6h-7.91a.82.82,0,0,0,0,1.64h7.91a.82.82,0,0,0,0-1.64Z"/><path class="cls-14" d="M1113.16,164.58h-1.81a.82.82,0,0,0-.81.82h0a.81.81,0,0,0,.81.81h1.81a.81.81,0,0,0,.81-.81h0A.82.82,0,0,0,1113.16,164.58Z"/><path class="cls-3" d="M1076.9,192.57v50.68h88V192.57Z"/><path class="cls-4" d="M1079.77,192.57v50.68h88V192.57Z"/><circle class="cls-5" cx="1103.84" cy="216.34" r="15.91"/><path class="cls-5" d="M1131.53,210.93h26.36a1.74,1.74,0,1,0,0-3.48h-26.36a1.74,1.74,0,1,0,0,3.48Z"/><path class="cls-5" d="M1157.89,214.61h-26.36a1.74,1.74,0,1,0,0,3.47h26.36a1.74,1.74,0,1,0,0-3.47Z"/><path class="cls-5" d="M1157.89,221.76h-26.36a1.74,1.74,0,0,0-1.74,1.74h0a1.74,1.74,0,0,0,1.74,1.73h26.36a1.74,1.74,0,0,0,1.74-1.73h0A1.74,1.74,0,0,0,1157.89,221.76Z"/><path class="cls-12" d="M1103.84,216.6l-14.57-.18v.18a14.58,14.58,0,0,0,22.39,12.3Z"/><rect class="cls-14" x="1095.65" y="221.19" width="9.54" height="1.64" rx="0.82"/><path class="cls-14" d="M1098.27,224.17h-1.8a.82.82,0,0,0-.82.81.82.82,0,0,0,.82.82h1.8a.82.82,0,0,0,.82-.82A.82.82,0,0,0,1098.27,224.17Z"/><rect class="cls-3" x="1076.9" y="80.1" width="88.02" height="45.92"/><rect class="cls-4" x="1079.77" y="80.1" width="88.02" height="45.92"/><circle class="cls-5" cx="1103.84" cy="103.74" r="15.91"/><path class="cls-11" d="M1103.84,89.17a14.57,14.57,0,0,0-7,27.35c2.33-4.32,7-12.78,7-12.78l6.9,12.83a14.57,14.57,0,0,0-6.9-27.4Z"/><rect class="cls-5" x="1129.79" y="94.85" width="29.84" height="3.47" rx="1.74"/><path class="cls-5" d="M1157.89,102h-26.36a1.74,1.74,0,1,0,0,3.47h26.36a1.74,1.74,0,1,0,0-3.47Z"/><path class="cls-5" d="M1157.89,109.15h-26.36a1.74,1.74,0,0,0,0,3.48h26.36a1.74,1.74,0,1,0,0-3.48Z"/><path class="cls-13" d="M1104.38,96.78h-7.91a.82.82,0,0,0-.82.82.82.82,0,0,0,.82.81h7.91a.81.81,0,0,0,.81-.81A.82.82,0,0,0,1104.38,96.78Z"/><path class="cls-13" d="M1098.27,99.76h-1.8a.82.82,0,0,0-.82.81h0a.82.82,0,0,0,.82.82h1.8a.82.82,0,0,0,.82-.82h0A.82.82,0,0,0,1098.27,99.76Z"/><rect class="cls-3" x="1559.12" y="155.3" width="88.02" height="49.55"/><rect class="cls-4" x="1561.98" y="155.3" width="88.02" height="49.55"/><circle class="cls-5" cx="1586.05" cy="178.96" r="15.91" transform="translate(891.55 1616.06) rotate(-70.64)"/><path class="cls-5" d="M1640.11,170.07h-26.37a1.75,1.75,0,0,0-1.74,1.73h0a1.75,1.75,0,0,0,1.74,1.74h26.37a1.74,1.74,0,0,0,1.73-1.74h0A1.74,1.74,0,0,0,1640.11,170.07Z"/><path class="cls-5" d="M1640.11,177.22h-26.37A1.75,1.75,0,0,0,1612,179h0a1.75,1.75,0,0,0,1.74,1.73h26.37a1.74,1.74,0,0,0,1.73-1.73h0A1.74,1.74,0,0,0,1640.11,177.22Z"/><path class="cls-5" d="M1640.11,184.37h-26.37a1.74,1.74,0,0,0,0,3.48h26.37a1.74,1.74,0,0,0,0-3.48Z"/><path class="cls-11" d="M1571.48,178.73h14.57V164.15A14.58,14.58,0,0,0,1571.48,178.73Z"/><path class="cls-12" d="M1600.63,179.19h-29.15a14.58,14.58,0,0,0,14.57,14.58h0A14.58,14.58,0,0,0,1600.63,179.19Z"/><path class="cls-13" d="M1583.54,171.23h-7.91a.82.82,0,1,0,0,1.64h7.91a.82.82,0,0,0,0-1.64Z"/><path class="cls-13" d="M1577.43,174.21h-1.8a.82.82,0,1,0,0,1.64h1.8a.82.82,0,0,0,0-1.64Z"/><path class="cls-14" d="M1595.28,182.76h-7.91a.82.82,0,0,0-.82.81.82.82,0,0,0,.82.82h7.91a.82.82,0,0,0,.82-.82A.82.82,0,0,0,1595.28,182.76Z"/><path class="cls-14" d="M1589.17,185.73h-1.8a.82.82,0,0,0-.82.82h0a.82.82,0,0,0,.82.82h1.8a.82.82,0,0,0,.82-.82h0A.82.82,0,0,0,1589.17,185.73Z"/><path class="cls-3" d="M1552.92,213.73V264.4h88V213.73Z"/><path class="cls-4" d="M1555.78,213.73V264.4h88V213.73Z"/><circle class="cls-5" cx="1579.85" cy="237.5" r="15.91"/><path class="cls-5" d="M1607.54,232.08h26.37a1.74,1.74,0,0,0,0-3.47h-26.37a1.74,1.74,0,1,0,0,3.47Z"/><path class="cls-5" d="M1633.91,235.76h-26.37a1.74,1.74,0,0,0,0,3.48h26.37a1.74,1.74,0,0,0,0-3.48Z"/><path class="cls-5" d="M1633.91,242.91h-26.37a1.75,1.75,0,0,0-1.74,1.74h0a1.75,1.75,0,0,0,1.74,1.74h26.37a1.74,1.74,0,0,0,1.73-1.74h0A1.75,1.75,0,0,0,1633.91,242.91Z"/><path class="cls-12" d="M1579.85,237.76l-14.57-.19v.19a14.57,14.57,0,0,0,22.39,12.29Z"/><rect class="cls-14" x="1571.66" y="242.35" width="9.54" height="1.64" rx="0.82"/><path class="cls-14" d="M1574.28,245.32h-1.8a.82.82,0,1,0,0,1.64h1.8a.82.82,0,0,0,0-1.64Z"/><rect class="cls-3" x="1552.92" y="101.26" width="88.02" height="45.92"/><rect class="cls-4" x="1555.78" y="101.26" width="88.02" height="45.92"/><circle class="cls-5" cx="1579.85" cy="124.89" r="15.91"/><path class="cls-11" d="M1579.85,110.32a14.57,14.57,0,0,0-7,27.36c2.34-4.32,7-12.79,7-12.79l6.9,12.84a14.57,14.57,0,0,0-6.9-27.41Z"/><rect class="cls-5" x="1605.8" y="116" width="29.84" height="3.47" rx="1.74"/><path class="cls-5" d="M1633.91,123.16h-26.37a1.74,1.74,0,1,0,0,3.47h26.37a1.74,1.74,0,0,0,0-3.47Z"/><path class="cls-5" d="M1633.91,130.31h-26.37a1.74,1.74,0,1,0,0,3.47h26.37a1.74,1.74,0,0,0,0-3.47Z"/><path class="cls-13" d="M1580.39,117.93h-7.91a.82.82,0,1,0,0,1.64h7.91a.82.82,0,0,0,0-1.64Z"/><path class="cls-13" d="M1574.28,120.91h-1.8a.82.82,0,0,0-.82.82h0a.82.82,0,0,0,.82.82h1.8a.82.82,0,0,0,.82-.82h0A.82.82,0,0,0,1574.28,120.91Z"/><path class="cls-15" d="M1188.2,159.41S1198.47,170,1199,174s-4.88,10.25-4.88,10.25Z"/><path class="cls-16" d="M1183.81,269.36s-.35,5.64-1.44,5.72h-5.53l-6.87,0a2.24,2.24,0,0,1,2-2c2-.35,5.38-1.76,6.59-4.42S1183.81,269.36,1183.81,269.36Z"/><path class="cls-16" d="M1199.12,269.36s-.35,5.64-1.44,5.72h-5.53l-6.89,0a2.26,2.26,0,0,1,2.07-2c2-.35,5.37-1.76,6.59-4.42S1199.12,269.36,1199.12,269.36Z"/><path class="cls-16" d="M1176.2,208.94s1.8,11.49,8.5,31.9,7.62,29.25,7.62,29.25a30,30,0,0,0,3.73.26,24,24,0,0,0,3.47-.46s.06-22.31-3-32.57-.67-37-.67-37Z"/><path class="cls-17" d="M1172.7,201a278.28,278.28,0,0,0,2.74,38.6c3,21.27,2,30.3,2,30.3s2.47.44,3.34.47,3.84-.23,3.84-.23,4.29-21.28,3.06-31.93,5.88-36.53,5.88-36.53Z"/><path class="cls-18" d="M1186.6,160.41l-3.39,2.51-4.89-1c.07-.45.39-2.3.68-4,0-.1,0-.2,0-.3.26-1.42.47-2.65.47-2.65l4.57-2.28,1.71-.85s-.13,1.59-.15,1.81A14.61,14.61,0,0,0,1186.6,160.41Z"/><path class="cls-15" d="M1178.66,159.14c.11,0,6.66-2,7.37-1.74s1.13,1.61,1.13,1.61l-10.71,2.42A5.32,5.32,0,0,1,1178.66,159.14Z"/><path class="cls-6" d="M1196.3,203.09c-1.11,5.06-19.59,5.67-24.35,1.07-.54-.53-.57-3-.37-6.25.4-6.42,1.69-16.08,1.74-21a39.41,39.41,0,0,1,.78-7,57.27,57.27,0,0,1,2.35-8.42s9-2.91,10.71-2.42C1195.3,161.4,1197.41,198,1196.3,203.09Z"/><path class="cls-15" d="M1171.58,197.91c.4-6.42,1.69-16.08,1.74-21a39.41,39.41,0,0,1,.78-7l5.43-.95S1184.84,190.58,1171.58,197.91Z"/><path class="cls-18" d="M1174.52,189a1.28,1.28,0,0,1-.4,1.48,2.46,2.46,0,0,0-1.11,2.25c.18.71,1.89,1.85,2.48,1.67s1.79-1.11,1.66-1.48.81-3.26-.63-4.37A1.17,1.17,0,0,0,1174.52,189Z"/><path class="cls-6" d="M1180.59,160.13s-5.29,1-9.51,7.21-7,10.84-6.22,13.08,7.86,10,9.09,10a3.26,3.26,0,0,0,3.3-2.88s-5-7.48-4-8.6c.42-.47,6.48-5.39,7.34-3.17C1182,179.45,1180.59,160.13,1180.59,160.13Z"/><path class="cls-19" d="M1185.31,153.72c-1,1.92-4.75,3.59-6.31,4.2,0-.1,0-.2,0-.3.26-1.42.47-2.65.47-2.65l4.57-2.28C1185.11,152.68,1185.72,152.93,1185.31,153.72Z"/><path class="cls-18" d="M1178.05,155.08s6.77,2.11,8-2.13,3-6.81-1.31-8.34-5.58-.16-6.34,1.16S1176.32,154.42,1178.05,155.08Z"/><path class="cls-16" d="M1178.68,145.36s.43,4.92,1.45,4.71,1.95-.37,1.8,1.11-1.57,3.2,1.57,3.47,7.66-7.84,6.8-9.37C1187.81,140.85,1175.08,140,1178.68,145.36Z"/><polygon class="cls-18" points="1056.87 259.84 1058.92 268.52 1062.01 268.5 1062.12 259.84 1056.87 259.84"/><polygon class="cls-18" points="1082.82 260.21 1088.68 268.52 1090.96 265.58 1087.44 259.07 1082.82 260.21"/><path class="cls-16" d="M1067.58,145.84a5.94,5.94,0,0,0-3.23-.62,1.45,1.45,0,0,1,.68-.32,5.12,5.12,0,0,0-1.79.46c-7.7-3-8.91,8.38-8.75,11s-2.59,3.49-6.59,5.57c-7.65,4-8.32,9.26-8.32,9.26l.19.12c.38-.64,1.16-1.84,1.82-2a25.6,25.6,0,0,0-1.06,2.58c2.25,1.72,6.47,5.52,9.41,8.22a4.41,4.41,0,0,1,.2-1.67l.36,2.18c1.58,1.45,2.66,2.47,2.66,2.47-.19-2.13,9.63-13.37,14.76-16.73a14.88,14.88,0,0,0,1.72-5.34,14.15,14.15,0,0,1-1.05,4.83C1072.93,161.84,1070.4,147.44,1067.58,145.84Z"/><path class="cls-18" d="M1067.61,166.51s-2.47,1.31-4.35.79-2.93-2.77-2.9-2.78c.75-.15,1-1.18,1-5.6l.34.07,5.69,1.12s-.13,1.8-.13,3.48C1067.2,165,1067.29,166.36,1067.61,166.51Z"/><path class="cls-20" d="M1061.17,147.7a4.56,4.56,0,0,1,6.34-.16A24.87,24.87,0,0,0,1061.17,147.7Z"/><path class="cls-21" d="M1067.34,160.11s-.13,1.8-.13,3.48c-3.19-.09-4.87-3-5.56-4.6Z"/><path class="cls-16" d="M1061.06,158.37a16.74,16.74,0,0,1-2.07-4.9c-.29-1.61.53-7.58,6.53-6.72a8.12,8.12,0,0,1,3.38,1.28c1.3.88,3.18,2.78,1.08,8l-.54,1.76Z"/><path class="cls-22" d="M1090,263.31l-3,.09-3.27.1A64.4,64.4,0,0,1,1072,241.63c-.1-.31-.2-.63-.31-.95-2.32-6.75-7.12-15.23-9.65-22.91-.41-1.22-.77-2.37-1.09-3.46-.11-.35-.21-.69-.3-1a81.21,81.21,0,0,1-2.91-15.28l18.28.15A340.86,340.86,0,0,0,1090,263.31Z"/><path class="cls-23" d="M1073.43,187.65c0,8.69,1.28,12.42,1.28,12.42a24.55,24.55,0,0,1-17.13,1.05l-7.7-1.76c.16-.36,1.54-6.22,1.69-6.54,2-4.22,3.46-6.06,3.69-7.36a27.92,27.92,0,0,0,.23-7.29,58.48,58.48,0,0,0-2.26-11.44,59.14,59.14,0,0,0,7.61-2.55,5.68,5.68,0,0,0,4,1.48c1.86,0,2.44-.82,2.37-1.7,2,1.09,3.54,2.14,3.54,2.14,1.68,2.91,5.08,5.74,5.33,10.21C1076.14,177.41,1073.43,187.4,1073.43,187.65Z"/><path class="cls-24" d="M1057.71,188.62c-.8,1.13-2.33,8-6.14,8.86,2-4.9,3.46-7,3.69-8.55a37.55,37.55,0,0,0,.23-8.46c1.27-2.24,2.22-3.77,2.22-3.77.1-.36,2-6.32,2.65-1A24.61,24.61,0,0,1,1057.71,188.62Z"/><path class="cls-18" d="M1068.4,161.71s-7.54.13-7.54-4.57-1-7.84,3.83-8.12,5.75,1.51,6.13,3.08S1070.36,161.56,1068.4,161.71Z"/><path class="cls-16" d="M1070.6,149.49c-1.16-1.41-2-1.1-2.54-.68-1.63-2.43-6.78,1.09-6.78,1.09a9,9,0,0,1-2.93,5.3s1.38.84,4.54,0c2.5-.64,4.3-4.19,5-5.67a6,6,0,0,1,1.68,2.22c.38,1.19.54,3.66,1.26,3.57C1070.79,155.35,1072.35,151.61,1070.6,149.49Z"/><path class="cls-18" d="M1058.82,268a8.37,8.37,0,0,1-.39,3.56s-.51,2.3,1.76,2.34,2.82-.17,2.57-1.58-.75-3.85-.75-3.85Z"/><path class="cls-25" d="M1063,275.06h-4.7a12,12,0,0,1,.16-3.47c2.56,2.46,4.17-.06,4.17-.06A13,13,0,0,1,1063,275.06Z"/><path class="cls-18" d="M1096.42,272.69a62.1,62.1,0,0,1-5.46-7.1l-3.1,1.59,6.94,6.52,1.63-.22Z"/><path class="cls-25" d="M1099,275.05h-5.8a9.22,9.22,0,0,1-1.59-2.6,2.82,2.82,0,0,0-1.9-1.29v3.89h-1.19l-1.12-4.13c-.73-1.39-.18-2.66.34-3.76.61,0,2.36.44,5.45,4a4,4,0,0,0,3.24,1.55l0,0A4.34,4.34,0,0,1,1099,275.05Z"/><path class="cls-20" d="M1098.71,169.51s-5,2.76-6.72,3.56c-.63.28-1.77.81-2.93,1.36l-2,.95a2.55,2.55,0,0,1-3-.65c-2.68-3.13-9.62-9.91-16.78-10.76h0l0,.08c.4,1,4.33,10.81,4.45,12.88s.51,35.66.51,35.66-.25,1.54,2.7.9,3.72-1.29,3.72-1.29-2.82-20.65-2-27.83a16.19,16.19,0,0,0-.3-4.63,36.91,36.91,0,0,0,9.5,3.82,43.31,43.31,0,0,0,4.9-2.69,30.3,30.3,0,0,0,4.13-3.32,61.16,61.16,0,0,0,4.69-5.4Z"/><path class="cls-24" d="M1087,263.4l-3.27.1A64.4,64.4,0,0,1,1072,241.63c-.1-.31-.2-.63-.31-.95-2.32-6.75-7.12-15.23-9.65-22.91-.41-1.22-.77-2.37-1.09-3.46-.11-.35-.21-.69-.3-1l2.69-2s8.08,13.08,10.58,25.4C1076.06,247.33,1084.76,260.2,1087,263.4Z"/><path class="cls-22" d="M1063.59,237.78c0,6-.26,19.76-1,25.46h-2.89c-1.6,0-2.4,0-2.4,0-2-9.91-3.35-18.11-4.36-25.17-.83-5.8-1.57-10.77-2.14-15s-1-7.91-1.11-11c0-.48,0-.94-.05-1.4s0-.89,0-1.32l15.79-1.54C1065.19,218.26,1063.56,234.3,1063.59,237.78Z"/><path class="cls-24" d="M1059.66,263.24c-1.6,0-2.4,0-2.4,0-2-9.91-3.35-18.11-4.36-25.17-.83-5.8-1.57-10.77-2.14-15s-1-7.91-1.11-11l5.79,3.41s-3.69,1.31-2.28,11.18S1057.69,261.84,1059.66,263.24Z"/><path class="cls-20" d="M1060.4,211.94s-1.11,4-5,3.5a46.4,46.4,0,0,1-9.32-2.82s1.65-5.2,3.69-12c2.48-8.27,5.54-18.92,7-25.64a42.11,42.11,0,0,0,.78-4.58l3.26-6.2s4.69,10.69,5,13.38S1060.4,211.94,1060.4,211.94Z"/><path class="cls-18" d="M1074.15,180.57a2.83,2.83,0,0,0-2.79,2.55,5.85,5.85,0,0,1-.81,1.93c-1.85.1-6.24.34-9.93.57l-.3,4.84a56,56,0,0,0,11-2.61,3,3,0,0,0,1.26-.69,13.73,13.73,0,0,0,4.17-6.34C1076.79,180.3,1076,180.32,1074.15,180.57Z"/><path class="cls-25" d="M1060.23,183.2c-.17,4.37-1.19,12.83-10.34,17.36l-.08,0c2.48-8.27,5.54-18.92,7-25.64C1058.48,177.47,1060.33,180.8,1060.23,183.2Z"/><path class="cls-20" d="M1060.84,164.18s-7.83.55-9.71,4.75-2.48,18.12-.08,22.23c0,0,3.29.94,9.12-.15l.22,0s1.86-4.56.19-5.46c0,0-4.91.26-4.4-1.36S1060.84,164.18,1060.84,164.18Z"/><path class="cls-18" d="M1104,166.22a4.7,4.7,0,0,0-5.27,3.29l.78,2.63a3.33,3.33,0,0,0,3.48-1.66c1-1.5,1.34-.92,2-2C1105.91,166.93,1104.49,166.37,1104,166.22Z"/><path class="cls-18" d="M1092,173.07c-.63.28-1.77.81-2.93,1.36a15,15,0,0,1,1.61,6.43,26.74,26.74,0,0,0,4.25-3.42,56.41,56.41,0,0,0,4.57-5.3l-.78-2.63S1093.76,172.27,1092,173.07Z"/><path class="cls-26" d="M1315.36,203.58a11.51,11.51,0,0,1-4.9.2c-1.9-.58-5.18.36-5.71,1.06s-.33,1,.61,1.21,4.28,1.66,6.47.84a17.32,17.32,0,0,1,5.05-.86Z"/><path class="cls-27" d="M1341.24,177.57s-3.37,23.91-8.94,26.05c-2.75,1-14.89,3.45-18.48,3.69,0,0-.88-.71-.67-3.62,0,0,12.73-4.67,14.53-7.21,2.69-3.78-1.67-15.45,1.71-19S1338.45,172.4,1341.24,177.57Z"/><path class="cls-28" d="M1340.81,269.68v-5.21h8.2a.4.4,0,0,0,.4-.4v-.84a.4.4,0,0,0-.4-.4h-8.2V233.16a1.52,1.52,0,0,0-1.52-1.51h-1.62a1.52,1.52,0,0,0-1.52,1.51v29.67H1328a.4.4,0,0,0-.4.4v.84a.4.4,0,0,0,.4.4h8.2v5.21c-5.93.45-10.69,2.59-12,5.35h28.7C1351.5,272.27,1346.74,270.13,1340.81,269.68Z"/><path class="cls-16" d="M1340.1,227.94a42.35,42.35,0,0,1-3.28,4.7c-3.62,4.56-7.55,8.32-8.24,11.88a15.92,15.92,0,0,1-.64,2.28c-.28.81-.64,1.67-1,2.55a78.76,78.76,0,0,1-6.12,10.46c-4,5.87-7.69,10.77-7.69,10.77l-6.82-.29c.27-.69,3.25-8.79,7.23-18.69l5-12.42.66-1.64,1.5-3.71,6.72-16.7s14.95-5.66,16.5-2C1345.16,218.16,1344.12,221.13,1340.1,227.94Z"/><path class="cls-16" d="M1312.88,269.34s-.35,5.63-1.44,5.71h-5.53l-6.87,0a2.22,2.22,0,0,1,2-2c2-.35,5.38-1.77,6.59-4.42S1312.88,269.34,1312.88,269.34Z"/><path class="cls-16" d="M1328.69,253.24s4.75,3.05,4.29,4c-.06.13-2.68,4.83-2.68,4.83l-3.39,6a2.25,2.25,0,0,1-.75-2.78c.67-1.92,1.08-5.54-.65-7.9S1328.69,253.24,1328.69,253.24Z"/><path class="cls-17" d="M1322.27,214.44S1303.5,226.13,1301.4,234s25,24.61,25,24.61,3-2.62,3.49-4.54c0,0-12.23-14.65-14.88-17.93-1.63-2,24.09-7,27.23-11.88s2-9,2-9Z"/><rect class="cls-6" x="1317.88" y="229.45" width="41.2" height="10.48" rx="1.4"/><path class="cls-26" d="M1330.94,173.47a10.5,10.5,0,0,0-2.85,2.59c4.49,1.17,12-3,12-3a11,11,0,0,1-4-6.22c-.06-.21-.1-.43-.15-.66a13,13,0,0,1-.24-2.34l-2.07,1.85-3.43,3.08a30,30,0,0,0,.51,3.47C1330.76,172.62,1330.85,173,1330.94,173.47Z"/><path class="cls-29" d="M1344.77,194.68c-.64,8.66.44,21.83-.29,24.11-.63,2-8,.81-10.91.15-1.07-.24-2.35-.59-3.68-1-3.7-1.15-7.74-2.79-8.17-4a1,1,0,0,1,0-.14,1.1,1.1,0,0,1,0-.51,8.68,8.68,0,0,0,.76-2.83c.08-1.71.06-3.73.13-5.89,0-.25,0-.52,0-.76v-.23c.06-2.42.19-5,.33-7.48.1-1.59.2-3.15.33-4.66a62.67,62.67,0,0,1,1.33-9.51,15.28,15.28,0,0,1,4.91-7.57l1.37-1.18a7.78,7.78,0,0,0,4.95-.66c1.77-.83,2.38-1.44,2.69-1.21C1342.6,174.46,1345.54,184.09,1344.77,194.68Z"/><path class="cls-27" d="M1329.91,218c-3.7-1.15-7.74-2.79-8.17-4a1,1,0,0,1,0-.14c0-.17,0-.34,0-.51a8.68,8.68,0,0,0,.76-2.83c.08-1.71.07-3.73.13-5.9,0-.24,0-.51,0-.75v-.23l14-6.34A32.66,32.66,0,0,1,1329.91,218Z"/><path class="cls-21" d="M1330.18,168.77a30,30,0,0,0,.51,3.47,9.1,9.1,0,0,0,5.38-5.4c.14-.36.21-.58.21-.58l-.36-.08-2.31-.49Z"/><path class="cls-26" d="M1328.82,168.73s7.37.83,7.82-3.76,1.69-7.59-3-8.31-5.77.94-6.29,2.44S1326.92,168.4,1328.82,168.73Z"/><path class="cls-28" d="M1336.6,165.29a7.56,7.56,0,0,0-7.17-6.74c-4.59-.43-2-4.38-1.54-5,0,0,3.52.48,7.12,1.07C1342.59,155.87,1337.35,164.34,1336.6,165.29Z"/><rect class="cls-27" x="1297.54" y="192.35" width="0.68" height="17.76" transform="translate(1.34 410.93) rotate(-18)"/><rect class="cls-27" x="1300.28" y="208.47" width="18.63" height="1.11" transform="translate(-4.17 28.02) rotate(-1.22)"/><path class="cls-26" d="M1316.9,207.25a11.44,11.44,0,0,1-4.85.74c-2-.36-5.1.94-5.55,1.68s-.23,1,.74,1.14,4.43,1.18,6.52.12a17.48,17.48,0,0,1,4.92-1.41Z"/><path class="cls-29" d="M1339.75,178.55s-.71,24.13-6,26.87c-2.61,1.36-14.42,5.08-18,5.71,0,0-1-.61-1.06-3.52,0,0,12.13-6.05,13.65-8.77,2.25-4.06-3.37-15.17-.4-19.07S1336.41,173.72,1339.75,178.55Z"/><path class="cls-30" d="M1421.28,275.8H1043.55a.38.38,0,0,1-.37-.37h0a.38.38,0,0,1,.37-.37h377.73a.38.38,0,0,1,.37.37h0A.38.38,0,0,1,1421.28,275.8Z"/></svg>