<svg id="Layer_1" data-name="Layer 1" xmlns="http://www.w3.org/2000/svg" xmlns:xlink="http://www.w3.org/1999/xlink" viewBox="0 0 1902 280"><defs><style>.cls-1,.cls-22,.cls-5{fill:none;}.cls-2{fill:#f9faff;}.cls-3{fill:#eee3ff;}.cls-4{fill:#fff;}.cls-5{stroke:#fff;}.cls-22,.cls-5{stroke-miterlimit:10;}.cls-6{fill:#ffbadb;}.cls-7{fill:#ffd2e9;}.cls-8{fill:#d8cbf5;}.cls-9{fill:#90b1b6;}.cls-10{fill:#b0dded;}.cls-11{fill:#60889a;}.cls-12{fill:#e2f8ff;}.cls-13{fill:#c8e6ed;}.cls-14{clip-path:url(#clip-path);}.cls-15{fill:#15466f;}.cls-16{fill:#ffc6bb;}.cls-17{fill:#f77;}.cls-18{fill:#ea7466;}.cls-19{fill:#ffaca4;}.cls-20{fill:#a85e59;}.cls-21{fill:#424242;}.cls-22{stroke:#424242;stroke-linecap:round;stroke-width:0.75px;}.cls-23{fill:#94a7cb;}.cls-24{fill:#0d3856;}.cls-25{fill:#3e7cf2;}.cls-26{fill:#e2ffff;}.cls-27{fill:#87aff3;}.cls-28{fill:#99b7b8;}.cls-29{fill:#9e6aad;}.cls-30{fill:#ffe4ac;}.cls-31{fill:#d0ced6;}.cls-32{fill:#08283d;}.cls-33{fill:#e9a29a;}.cls-34{fill:#faf7ff;}.cls-35{fill:#457ca5;}.cls-36{fill:#f6ae16;}.cls-37{fill:#ffd267;}.cls-38{fill:#9ec2c4;}</style><clipPath id="clip-path"><polygon class="cls-1" points="1295.71 163.31 1148.61 163.31 1148.61 84.54 1235.26 84.54 1235.12 60.84 1261.72 60.84 1262.02 84.54 1295.71 84.54 1295.71 163.31"/></clipPath></defs><title>program_bg</title><rect class="cls-2" x="-0.5" width="1903" height="280"/><path class="cls-3" d="M1118.73,254c-20.58-11.26-36.64-31.25-41.12-54.22s3.53-48.44,21.68-63.28c11.81-9.64,26.75-14.4,40.67-20.64s27.92-15,34-29c4.2-9.61,4.18-20.69,8.72-30.14,7.4-15.43,26.63-19.74,43.55-16.9,24.3,4.08,31.56,24.22,52.48,31.55s44.11.47,57.28,14.82c16,17.5,1.79,30.3-.38,55.82a27.39,27.39,0,0,0,1.37,12.26c2.55,6.61,8.81,10.9,14.23,15.49,11.62,9.87,20.68,23.2,23.53,38.15s-7.34,37.41-17.89,46Z"/><polygon class="cls-4" points="1314.79 87.14 1315.78 84.83 1316.77 87.14 1319.08 88.13 1316.77 89.12 1315.78 91.42 1314.79 89.12 1312.49 88.13 1314.79 87.14"/><polygon class="cls-4" points="1179.58 239.67 1180.57 237.37 1181.56 239.67 1183.86 240.66 1181.56 241.65 1180.57 243.96 1179.58 241.65 1177.28 240.66 1179.58 239.67"/><polygon class="cls-4" points="1228.05 54.29 1229.04 51.98 1230.03 54.29 1232.33 55.28 1230.03 56.27 1229.04 58.57 1228.05 56.27 1225.74 55.28 1228.05 54.29"/><polygon class="cls-4" points="1326.38 132.23 1326.97 130.84 1327.57 132.23 1328.95 132.82 1327.57 133.42 1326.97 134.8 1326.38 133.42 1325 132.82 1326.38 132.23"/><polygon class="cls-4" points="1257.23 201.17 1257.83 199.78 1258.42 201.17 1259.81 201.76 1258.42 202.36 1257.83 203.74 1257.23 202.36 1255.85 201.76 1257.23 201.17"/><polygon class="cls-4" points="1222.81 234.69 1223.4 233.3 1224 234.69 1225.38 235.28 1224 235.88 1223.4 237.26 1222.81 235.88 1221.42 235.28 1222.81 234.69"/><polygon class="cls-4" points="1105.33 152.66 1105.92 151.27 1106.52 152.66 1107.9 153.25 1106.52 153.85 1105.92 155.23 1105.33 153.85 1103.94 153.25 1105.33 152.66"/><path class="cls-5" d="M1206.55,50.08a1.43,1.43,0,1,1-1.42-1.42A1.43,1.43,0,0,1,1206.55,50.08Z"/><path class="cls-5" d="M1185.28,194.77a1.42,1.42,0,1,1-1.42-1.42A1.41,1.41,0,0,1,1185.28,194.77Z"/><path class="cls-5" d="M1135.17,134.8a1.43,1.43,0,1,1-1.43-1.42A1.42,1.42,0,0,1,1135.17,134.8Z"/><path class="cls-5" d="M1312.06,117.73a1.42,1.42,0,1,1-1.42-1.42A1.43,1.43,0,0,1,1312.06,117.73Z"/><path class="cls-5" d="M1355.1,186.54a2.24,2.24,0,1,1-2.24-2.24A2.24,2.24,0,0,1,1355.1,186.54Z"/><path class="cls-5" d="M1254.8,242.9a2.24,2.24,0,1,1-2.24-2.24A2.24,2.24,0,0,1,1254.8,242.9Z"/><path class="cls-5" d="M1093.62,177.51a2.24,2.24,0,1,1-2.24-2.24A2.24,2.24,0,0,1,1093.62,177.51Z"/><path class="cls-6" d="M1366.85,202a.39.39,0,0,1,.14.54l-30.33,50.75c10.07-2.7,21.21-11.85,29.17-25.19,8.12-13.58,10.87-28,8.25-38.19-10.22,2.51-21.62,11.77-29.73,25.35-8,13.33-10.76,27.48-8.37,37.63l30.33-50.75A.39.39,0,0,1,1366.85,202Z"/><path class="cls-7" d="M1361.35,224.65a.4.4,0,0,0-.2-.77l-8.16,2.05,6.42-10.73,8.93-2.25a.4.4,0,0,0-.19-.77l-8.17,2.06,7-11.73a.39.39,0,1,0-.68-.4l-7,11.73-2.06-8.18a.39.39,0,0,0-.48-.28.4.4,0,0,0-.29.48l2.26,8.94-6.42,10.74-2.06-8.18a.4.4,0,1,0-.77.19l2.25,8.95-6.41,10.74-2.06-8.18a.4.4,0,0,0-.77.19l2.25,8.95L1336,252.86l.12.56c.19,0,.38-.11.56-.16l8.77-14.67,8.93-2.25a.38.38,0,0,0,.28-.48.39.39,0,0,0-.48-.28l-8.16,2,6.42-10.74Z"/><path class="cls-6" d="M1305.61,201.82a.39.39,0,0,0-.14.54l30.08,50.9c-10.06-2.75-21.15-12-29-25.33-8-13.62-10.73-28.07-8-38.23,10.2,2.55,21.56,11.87,29.6,25.49,7.9,13.37,10.62,27.53,8.18,37.67L1306.15,202A.39.39,0,0,0,1305.61,201.82Z"/><path class="cls-7" d="M1311,224.52a.39.39,0,1,1,.19-.76l8.15,2.09L1313,215.08l-8.92-2.29a.39.39,0,0,1-.28-.48.4.4,0,0,1,.48-.29l8.15,2.1-7-11.76a.39.39,0,1,1,.68-.4l7,11.76,2.1-8.16a.39.39,0,1,1,.76.2l-2.29,8.93,6.36,10.77,2.1-8.17a.39.39,0,0,1,.48-.28.4.4,0,0,1,.29.48l-2.3,8.93,6.36,10.77,2.1-8.17a.4.4,0,0,1,.48-.28.39.39,0,0,1,.29.48l-2.3,8.93,8.69,14.71c0,.18-.08.38-.13.56l-.55-.16-8.69-14.71-8.92-2.3a.39.39,0,1,1,.2-.76l8.15,2.09-6.37-10.77Z"/><path class="cls-6" d="M1336.27,187.86a.43.43,0,0,1,.43.43l-.16,64.67c8-8.16,13.31-23,13.36-40,0-17.3-5.43-32.41-13.59-40.51-8.21,8.06-13.75,23.14-13.8,40.44,0,17,5.24,31.85,13.16,40.06l.16-64.67A.44.44,0,0,1,1336.27,187.86Z"/><path class="cls-7" d="M1343.76,212.26a.43.43,0,0,0,0-.61.44.44,0,0,0-.61,0l-6.53,6.5,0-13.69,7.14-7.1a.43.43,0,0,0-.61-.61l-6.53,6.49,0-14.94a.43.43,0,0,0-.43-.43.44.44,0,0,0-.44.43l0,15-6.51-6.54a.43.43,0,0,0-.61.61l7.11,7.15,0,13.69-6.51-6.54a.43.43,0,0,0-.61.61l7.12,7.15,0,13.68-6.5-6.53a.43.43,0,0,0-.61,0,.44.44,0,0,0,0,.61l7.12,7.15,0,18.68c.15.15.29.31.43.46.15-.14.29-.31.44-.46l0-18.69,7.14-7.11a.43.43,0,1,0-.61-.61l-6.52,6.5,0-13.69Z"/><path class="cls-6" d="M1377.39,226.9a.33.33,0,0,1-.1.45l-40.72,26.16c8.37,1.69,19.87-1,30.57-7.84,10.89-7,18.17-16.58,19.95-25-8.4-1.88-20.14.75-31,7.75-10.7,6.88-17.9,16.23-19.84,24.54l40.72-26.16A.33.33,0,0,1,1377.39,226.9Z"/><path class="cls-7" d="M1365.09,241.52a.32.32,0,0,0,.39-.25.31.31,0,0,0-.25-.38l-6.73-1.47,8.62-5.54,7.36,1.61a.32.32,0,0,0,.39-.25.33.33,0,0,0-.25-.38l-6.73-1.47,9.4-6a.33.33,0,0,0,.1-.45.33.33,0,0,0-.45-.1l-9.41,6,1.47-6.74a.33.33,0,1,0-.64-.14l-1.6,7.37-8.62,5.54,1.47-6.74a.32.32,0,0,0-.25-.39.32.32,0,0,0-.38.25l-1.61,7.37-8.62,5.54,1.47-6.74a.32.32,0,0,0-.25-.39.32.32,0,0,0-.38.25L1348,245.4,1336.22,253l-.12.46.47.09,11.77-7.57,7.37,1.61a.32.32,0,0,0,.13-.63l-6.73-1.47,8.62-5.54Z"/><path class="cls-6" d="M1295,226.7a.31.31,0,0,0,.1.44l40.59,26.36c-8.38,1.65-19.86-1.06-30.53-8-10.86-7-18.09-16.66-19.83-25.09,8.41-1.84,20.13.85,31,7.9,10.67,6.93,17.82,16.32,19.72,24.64L1295.4,226.6A.33.33,0,0,0,1295,226.7Z"/><path class="cls-7" d="M1307.17,241.38a.33.33,0,0,1-.13-.64l6.74-1.43-8.59-5.58-7.37,1.57a.33.33,0,0,1-.39-.25.32.32,0,0,1,.25-.38l6.74-1.44-9.37-6.09a.31.31,0,0,1-.1-.44.33.33,0,0,1,.45-.1l9.38,6.09-1.43-6.75a.32.32,0,1,1,.63-.13l1.57,7.38,8.59,5.58-1.43-6.75a.31.31,0,0,1,.24-.38.32.32,0,0,1,.39.24l1.57,7.39,8.59,5.58-1.44-6.75a.34.34,0,0,1,.25-.39.33.33,0,0,1,.39.25l1.56,7.39L1336,253c0,.15.08.31.11.46l-.46.08-11.73-7.62-7.38,1.57a.32.32,0,0,1-.13-.63l6.74-1.43-8.59-5.58Z"/><path class="cls-6" d="M1142.74,202a.4.4,0,0,1,.13.54l-30.33,50.75c10.07-2.7,21.21-11.85,29.18-25.19,8.11-13.58,10.87-28,8.24-38.19-10.21,2.51-21.62,11.77-29.73,25.35-8,13.33-10.76,27.48-8.37,37.63l30.33-50.75A.41.41,0,0,1,1142.74,202Z"/><path class="cls-7" d="M1137.23,224.65a.41.41,0,0,0,.29-.48.4.4,0,0,0-.48-.29l-8.17,2.05,6.42-10.73,8.93-2.25a.4.4,0,1,0-.19-.77l-8.16,2.06,7-11.73a.4.4,0,0,0-.13-.54.41.41,0,0,0-.55.14l-7,11.73-2.06-8.18a.39.39,0,0,0-.48-.28.38.38,0,0,0-.28.48l2.25,8.94-6.42,10.74-2.06-8.18a.4.4,0,0,0-.48-.29.41.41,0,0,0-.29.48l2.26,8.95-6.42,10.74-2.06-8.18a.4.4,0,0,0-.48-.29.41.41,0,0,0-.29.48l2.26,8.95-8.77,14.66c.05.18.08.38.13.56.18,0,.37-.11.55-.16l8.77-14.67,8.93-2.25a.4.4,0,0,0,.29-.48.39.39,0,0,0-.48-.28l-8.17,2,6.42-10.74Z"/><path class="cls-6" d="M1081.5,201.82a.39.39,0,0,0-.14.54l30.07,50.9c-10-2.75-21.14-12-29-25.33-8-13.62-10.73-28.07-8.05-38.23,10.2,2.55,21.56,11.87,29.61,25.49,7.9,13.37,10.62,27.53,8.17,37.67L1082,202A.39.39,0,0,0,1081.5,201.82Z"/><path class="cls-7" d="M1086.89,224.52a.39.39,0,1,1,.2-.76l8.15,2.09-6.37-10.77-8.91-2.29a.4.4,0,0,1-.29-.48.41.41,0,0,1,.48-.29l8.15,2.1-6.94-11.76a.39.39,0,1,1,.68-.4l7,11.76,2.1-8.16a.4.4,0,0,1,.48-.29.41.41,0,0,1,.29.49l-2.3,8.93,6.36,10.77,2.1-8.17a.4.4,0,0,1,.77.2l-2.3,8.93,6.37,10.77L1105,229a.39.39,0,0,1,.48-.28.39.39,0,0,1,.28.48l-2.3,8.93,8.69,14.71c0,.18-.07.38-.12.56l-.56-.16-8.69-14.71-8.92-2.3a.39.39,0,0,1,.2-.76l8.15,2.09-6.36-10.77Z"/><path class="cls-6" d="M1112.15,187.86a.43.43,0,0,1,.43.43l-.16,64.67c8-8.16,13.32-23,13.36-40,0-17.3-5.43-32.41-13.59-40.51-8.2,8.06-13.75,23.14-13.79,40.44,0,17,5.24,31.85,13.16,40.06l.16-64.67A.43.43,0,0,1,1112.15,187.86Z"/><path class="cls-7" d="M1119.64,212.26a.44.44,0,0,0,0-.61.45.45,0,0,0-.62,0l-6.52,6.5,0-13.69,7.14-7.1a.43.43,0,0,0-.61-.61l-6.53,6.49,0-14.94a.43.43,0,1,0-.86,0l0,15-6.51-6.54a.43.43,0,0,0-.61.61l7.12,7.15,0,13.69-6.5-6.54a.43.43,0,0,0-.61,0,.44.44,0,0,0,0,.61l7.12,7.15,0,13.68-6.51-6.53a.43.43,0,0,0-.61.61l7.11,7.15,0,18.68c.14.15.28.31.43.46.15-.14.29-.31.43-.46l0-18.69,7.14-7.11a.43.43,0,0,0-.61-.61l-6.53,6.5,0-13.69Z"/><path class="cls-6" d="M1153.27,226.9a.32.32,0,0,1-.09.45l-40.73,26.16c8.37,1.69,19.87-1,30.57-7.84,10.89-7,18.17-16.58,20-25-8.4-1.88-20.13.75-31,7.75-10.7,6.88-17.89,16.23-19.84,24.54l40.73-26.16A.32.32,0,0,1,1153.27,226.9Z"/><path class="cls-7" d="M1141,241.52a.32.32,0,0,0,.38-.25.31.31,0,0,0-.25-.38l-6.73-1.47,8.62-5.54,7.36,1.61a.32.32,0,0,0,.39-.25.31.31,0,0,0-.25-.38l-6.73-1.47,9.41-6a.33.33,0,0,0-.35-.55l-9.42,6,1.47-6.74a.32.32,0,0,0-.25-.39.32.32,0,0,0-.38.25l-1.61,7.37-8.62,5.54,1.47-6.74a.32.32,0,1,0-.63-.14l-1.61,7.37-8.61,5.54,1.47-6.74a.34.34,0,0,0-.25-.39.32.32,0,0,0-.39.25l-1.6,7.37L1112.1,253c0,.15-.08.31-.11.46l.46.09,11.77-7.57,7.37,1.61a.31.31,0,0,0,.38-.25.32.32,0,0,0-.24-.38l-6.74-1.47,8.62-5.54Z"/><path class="cls-6" d="M1070.83,226.7a.32.32,0,0,0,.1.44l40.59,26.36c-8.37,1.65-19.86-1.06-30.52-8-10.86-7-18.09-16.66-19.83-25.09,8.41-1.84,20.13.85,31,7.9,10.66,6.93,17.81,16.32,19.72,24.64l-40.6-26.36A.33.33,0,0,0,1070.83,226.7Z"/><path class="cls-7" d="M1083.06,241.38a.33.33,0,0,1-.14-.64l6.74-1.43-8.59-5.58-7.37,1.57a.32.32,0,0,1-.38-.25.31.31,0,0,1,.25-.38l6.74-1.44-9.38-6.09a.32.32,0,0,1-.1-.44.33.33,0,0,1,.45-.1l9.39,6.09-1.44-6.75a.33.33,0,0,1,.25-.38.31.31,0,0,1,.38.25l1.57,7.38,8.59,5.58-1.43-6.75a.31.31,0,0,1,.25-.38.32.32,0,0,1,.38.24l1.57,7.39,8.59,5.58L1098,238.1a.32.32,0,0,1,.24-.39.33.33,0,0,1,.39.25l1.57,7.39,11.73,7.61c0,.15.08.31.11.46l-.47.08-11.73-7.62-7.37,1.57a.32.32,0,1,1-.14-.63l6.74-1.43-8.59-5.58Z"/><ellipse class="cls-8" cx="1221.04" cy="219.27" rx="70.41" ry="6.99"/><polygon class="cls-9" points="1248.34 221.13 1195.98 221.13 1203.85 155.37 1240.48 155.37 1248.34 221.13"/><path class="cls-10" d="M1196.11,218.33h52.1a2.8,2.8,0,0,1,2.8,2.8v0a0,0,0,0,1,0,0h-57.7a0,0,0,0,1,0,0v0A2.8,2.8,0,0,1,1196.11,218.33Z"/><rect class="cls-11" x="1141.25" y="77.17" width="161.83" height="107.13" rx="8.83"/><rect class="cls-4" x="1148.61" y="84.54" width="147.09" height="78.77"/><path class="cls-10" d="M1141.25,170.68v4.79a8.82,8.82,0,0,0,8.82,8.83h144.18a8.83,8.83,0,0,0,8.83-8.83v-4.79Z"/><rect class="cls-12" x="1158.47" y="58.78" width="62.12" height="65.15"/><rect class="cls-12" x="1158.47" y="127.22" width="62.12" height="36.09"/><rect class="cls-13" x="1164.67" y="63.9" width="49.74" height="3.77"/><rect class="cls-13" x="1166.96" y="69.15" width="45.16" height="2.01"/><rect class="cls-13" x="1181.52" y="77.58" width="32.88" height="1.23"/><rect class="cls-13" x="1181.52" y="90.55" width="32.88" height="1.23"/><rect class="cls-13" x="1181.52" y="81.9" width="32.88" height="1.23"/><rect class="cls-13" x="1181.52" y="86.23" width="32.88" height="1.23"/><rect class="cls-13" x="1164.67" y="103.53" width="49.74" height="1.23"/><rect class="cls-13" x="1164.67" y="94.88" width="49.74" height="1.23"/><rect class="cls-13" x="1164.67" y="99.2" width="49.74" height="1.23"/><rect class="cls-13" x="1164.67" y="112.17" width="49.74" height="1.23"/><rect class="cls-13" x="1164.67" y="107.85" width="49.74" height="1.23"/><rect class="cls-13" x="1164.67" y="116.5" width="49.74" height="1.23"/><rect class="cls-13" x="1164.67" y="140.59" width="30.36" height="1.23"/><rect class="cls-13" x="1164.67" y="136.26" width="30.36" height="1.23"/><rect class="cls-13" x="1164.67" y="144.91" width="30.36" height="1.23"/><rect class="cls-13" x="1164.67" y="152.48" width="50.3" height="5.35"/><rect class="cls-13" x="1164.67" y="77.64" width="14.15" height="14.15"/><circle class="cls-13" cx="1206.46" cy="141.2" r="8.5" transform="translate(872.87 1309.19) rotate(-80.74)"/><g class="cls-14"><path class="cls-15" d="M1238.08,78.44s-8.17-19.13,11.76-12.81c16.57,5.26,8.9,19.48,6,20.19l-17.77-7.38"/><path class="cls-16" d="M1278.38,179.78s-.75,2.82-1.45,7.07c-.16.77,4.7,1.71,6.92.25,1-.91,1.4-4.35,1.44-5.45a57.22,57.22,0,0,0-.42-5.77,3.47,3.47,0,0,0-4.44-1.1s-4.64,3-4.81,4.35c-.2,1.5-1.51,3.34-1,3.61C1275.47,183.18,1277.54,182,1278.38,179.78Z"/><path class="cls-16" d="M1188.73,104.68s-2.68-4.47-3.66-5.24c-1.46-1.14-6.9-4.2-7.49-3.79a1,1,0,0,0-.18,1c.16.29,3.8,3.34,3.8,3.34s-1.7.37-2.11,1.2c-.3.61.37,4.19.82,4.89s4.86,1.53,4.86,1.53l1,.27S1187.26,107.64,1188.73,104.68Z"/><path class="cls-16" d="M1288.77,137.16c-1-6.62-9.64-32.91-14.2-35.71s-15-2.94-22.62-3.66-19.34.84-22.91,2.44c-4.81,2.17-19.22,18.91-21.68,19.14-2.85.2-10.57-8.33-18.63-14.69l-4,3s18.4,25.5,23.09,25.25c2.54-.14,13.62-7.25,19-10.65-1,15.49-3.32,45.66-3.32,45.66,27.19,6.5,51.87,0,51.87,0-.85-22.39-1.12-39.93-1.12-39.93s2.46,8.8,3.1,12.25c1,5.19,2.08,35.2,2.08,35.2l5.38.46C1287,167.42,1289.33,140.71,1288.77,137.16Z"/><path class="cls-17" d="M1288.77,137.16c-1-6.62-9.64-32.91-14.2-35.71s-15-2.94-22.62-3.66-19.34.84-22.91,2.44c-4.81,2.17-19.22,18.91-21.68,19.14-1.29.09-3.58-1.61-6.44-4.08l-5.44,6.19c4.93,6,10.17,11.53,12.38,11.41,2.54-.14,13.62-7.25,19-10.65-1,15.49-3.32,45.66-3.32,45.66,27.19,6.5,51.87,0,51.87,0-.85-22.39-1.12-39.93-1.12-39.93s2.46,8.8,3.1,12.25c.43,2.29.88,9.4,1.26,16.64l8.89.63C1288.51,148.3,1289.08,139.14,1288.77,137.16Z"/><polygon class="cls-18" points="1194.17 122.11 1196.66 124.33 1203.06 116.07 1201.3 114.13 1194.17 122.11"/><polygon class="cls-18" points="1277.96 155.75 1277.69 159.07 1288.14 159.16 1288.63 156.59 1277.96 155.75"/><path class="cls-19" d="M1254,98l-.42-11.46h-8.85l-.09,11.26,1.79,5a2.64,2.64,0,0,0,4.81.35Z"/><path class="cls-16" d="M1238.08,78.44s2.14,14.4,4.84,14.7c7.89.89,13.15-9.21,13.15-9.21s1.56-.36,2.34-3c.62-2.09-.78-3.49-1.89-1.47a1.26,1.26,0,0,1-1-.37,14.92,14.92,0,0,0-.12-4.74c-.52-1.8-12.89,5.47-16.8-.38A9.19,9.19,0,0,0,1238.08,78.44Z"/><path class="cls-20" d="M1246.45,84.08a4.53,4.53,0,0,0-1-.52c-.2-.08-.54-.19-.45-.19s0,.1.14-.27a8.66,8.66,0,0,0,.79-2.59,8.53,8.53,0,0,0-1.43,2.31c-.07.18-.15.35-.22.52s-.35.56.06.54a8.3,8.3,0,0,0,1,.17A5.6,5.6,0,0,0,1246.45,84.08Z"/><path class="cls-4" d="M1249.17,81.12a1.29,1.29,0,1,0,1.28-1.29A1.28,1.28,0,0,0,1249.17,81.12Z"/><path class="cls-21" d="M1250.56,81.81a.73.73,0,1,0-.72-.73A.73.73,0,0,0,1250.56,81.81Z"/><path class="cls-4" d="M1240.34,81.12a1.29,1.29,0,1,0,1.29-1.29A1.29,1.29,0,0,0,1240.34,81.12Z"/><circle class="cls-21" cx="1241.73" cy="81.16" r="0.72"/><path class="cls-22" d="M1251.93,79.47a2.68,2.68,0,0,0-2.48-.13"/><path class="cls-22" d="M1240.22,79.47a2.67,2.67,0,0,1,2.48-.13"/><path class="cls-15" d="M1239.34,85.07a141.84,141.84,0,0,0,14.66-.34,29.91,29.91,0,0,0,1.19-3.21c.2-.33,1-.16,1.17,0a48.77,48.77,0,0,1-1.44,8.86c-.92,3.62-13.08,5.25-13.7,2.84C1240.22,89.38,1239.34,85.07,1239.34,85.07Z"/><path class="cls-4" d="M1243.67,85.84l3.5,0a1.8,1.8,0,0,1-3.5,0Z"/></g><path class="cls-23" d="M1200.42,247.21A16.32,16.32,0,0,0,1196,250c.32,2.89,1.65,4,1.65,4s17-8.48,16.55-8.62Z"/><path class="cls-16" d="M1132.81,159.05l1-11,6.73,1.46.08,9.39-.42,1.16a3.62,3.62,0,0,1-6.6.49Z"/><path class="cls-24" d="M1150.59,189.77s19.16,4.27,26.24,10.15c5.93,4.91,20.27,38.21,23.59,47.29L1196,250s-16.11-30.93-26.33-39.32c-11.44-9.39-31-13.66-46.68-16.18Z"/><path class="cls-23" d="M1166,249.19a16.46,16.46,0,0,0-5.17.43,6.1,6.1,0,0,0-.35,4.29s19,.22,18.66-.09Z"/><path class="cls-15" d="M1123,194.45s.36,5.52,4.11,8.18c8.5,6,33,.93,36.88,6.28,2.86,3.89-3.18,40.71-3.18,40.71l5.47-.32s13.73-40.37,9.85-48.79c-3.25-7.07-25.55-10.74-25.55-10.74Z"/><path class="cls-25" d="M1146.92,164.17l3.67,25.6a216.19,216.19,0,0,1-27.58,4.68c-1-12.09,1.23-23.56,2.46-30.9,1.16-7,7-11.53,13.89-10l.55.14C1144.25,154.91,1146.64,159.69,1146.92,164.17Z"/><path class="cls-16" d="M1145.74,139.34c.11,2.22.34,5.55-.64,8.35-.62,1.79-4.27,3.25-5,3.42-1.41.36-2.6-4.82-2.36-8.35S1145.74,139.34,1145.74,139.34Z"/><polygon class="cls-25" points="1140.62 179.08 1165.76 182.33 1167.34 180 1143.81 171.62 1140.62 179.08"/><polygon class="cls-25" points="1144.98 180.66 1164.1 163.12 1161.68 161.08 1141.11 173.54 1144.98 180.66"/><path class="cls-17" d="M1146.59,132.42c-3.59-4.64-7,1.41-7.6,1.46-3.36.31-7.34,1.19-7.9,3.61-1.56,6.77.85,12.86,6.22,12.93,3.57,0,4-1.47,4.26-3.61,0,0-.89.55-1.54-1.65-.52-1.74.86-2.33,1.39-1.22a1.07,1.07,0,0,0,.88-.31,2.43,2.43,0,0,1,1.2-2.33C1147.11,139.33,1148.27,134.58,1146.59,132.42Z"/><path class="cls-26" d="M1115.55,253.54h-1.1l8.45-39a7.31,7.31,0,0,1,2-3.68l3-3,.75.76-3,3a6.28,6.28,0,0,0-1.72,3.15Z"/><path class="cls-26" d="M1167.65,253.54l-8.39-38.81a6.36,6.36,0,0,0-1.72-3.15l-3-3,.75-.76,3,3a7.43,7.43,0,0,1,2,3.68l8.45,39Z"/><path class="cls-27" d="M1139.9,157.31a72.73,72.73,0,0,0,2.07,9.55c.25.89.49,1.74.73,2.56l.77,2.51c.5.17.66.21.89.28l.67.19,1.21.34q1.15.3,2,.45c-.49-.27-1.1-.57-1.82-.9l-2.25-1v-.07l-.06-.28c0-.19-.09-.38-.14-.58-.09-.39-.19-.79-.29-1.21-.22-.82-.44-1.68-.67-2.58A71.25,71.25,0,0,0,1139.9,157.31Z"/><path class="cls-27" d="M1129.74,158.47c.73,3.34,2.45,9.46,4.65,16.42.42,1.32.84,2.62,1.22,3.82l4.4.58,3.64.42c2.26.24,4.16.4,5.57.48-1.37-.33-3.24-.72-5.48-1.13l-3.61-.64-3.74-.61-1-3.24C1133.19,167.62,1131.07,161.62,1129.74,158.47Z"/><path class="cls-16" d="M1163.68,158.27a11.2,11.2,0,0,0,3-3.36c.37-.34,2.58,1.83,2.54,3.53a7.16,7.16,0,0,1-2.12,3c-.84.58-3,1.68-3,1.68s-2.29-.12-2.42-2c0,0,.06-3.53.72-4.08s1.28-1.94,1.6-1.76C1164.53,155.55,1164.59,157.07,1163.68,158.27Z"/><path class="cls-16" d="M1167.34,180s3.54-.68,5.23.66a5.93,5.93,0,0,1,2,2.76h-7.28l-1.58-1.09S1165.19,181,1167.34,180Z"/><path class="cls-11" d="M1125.2,205.23l-7.33-47.53a3.7,3.7,0,0,0-4.22-3.1h0l8.37,54.29v0h39.16a3.7,3.7,0,0,0-3.7-3.7Z"/><path class="cls-16" d="M1311.8,159.05l-1-11-6.72,1.46-.08,9.39.42,1.16a3.62,3.62,0,0,0,6.6.49Z"/><path class="cls-28" d="M1304.7,157.31a55.22,55.22,0,0,0-3.24,9.23q-.36,1.34-.66,2.58c-.1.42-.19.82-.28,1.21a5.6,5.6,0,0,0-.17.87l-.07.05-.33.14-.63.28-1.14.55c-.71.35-1.31.68-1.79,1,.56-.08,1.23-.2,2-.38l1.23-.3.67-.18.34-.1.62-.19c.26-.8.53-1.67.82-2.57s.5-1.68.74-2.56A53.66,53.66,0,0,0,1304.7,157.31Z"/><path class="cls-28" d="M1314.87,158.47a162.84,162.84,0,0,0-5.81,16.05c-.19.61-.38,1.22-.57,1.81-.09.29-.18.59-.26.88l-.13.42v0l-3.63.63-3.61.67c-2.23.44-4.09.87-5.46,1.24,1.42,0,3.32-.16,5.59-.38l3.64-.38,2-.24,2.5-.33,1.27-3.92A164,164,0,0,0,1314.87,158.47Z"/><rect class="cls-17" x="1180.57" y="181.25" width="19.3" height="2.17"/><rect class="cls-16" x="1238.53" y="181.25" width="19.3" height="2.17"/><rect class="cls-29" x="1234.62" y="179.13" width="19.3" height="2.17"/><rect class="cls-25" x="1203.35" y="178.11" width="3.71" height="5.31"/><rect class="cls-30" x="1215.56" y="174.84" width="7.09" height="8.58"/><path class="cls-30" d="M1221.51,182l-.2-.49,2.1-.87a3.23,3.23,0,0,0,1.82-3v-.69a.67.67,0,0,0-.58-.73H1221v-.53h3.61a1.21,1.21,0,0,1,1.12,1.26v.69a3.78,3.78,0,0,1-2.16,3.54Z"/><path class="cls-23" d="M1283.09,249.62a16.46,16.46,0,0,0-5.17-.43l-11.21,3.95a.35.35,0,0,0,.11.69l13.89.06,1.07-1.76.53,1.77h1.13Z"/><path class="cls-16" d="M1321.6,194.45s-.36,5.52-4.11,8.18c-8.5,6-29.85-.55-34.51,4.18-3.4,3.45.11,42.81.11,42.81l-5.47-.32s-11.15-42-7.89-48.69,27.3-9.54,27.3-9.54Z"/><path class="cls-31" d="M1297,191.07s-24.1,3-27.3,9.54c-2,4.12,1.49,21.8,4.45,34.67l7.84-.6c-.65-11.53-1-25.85,1-27.87,4.66-4.73,26,1.82,34.51-4.18,3.75-2.66,4.11-8.18,4.11-8.18Z"/><path class="cls-23" d="M1269.18,249.62a16.46,16.46,0,0,0-5.17-.43l-11.21,3.95a.35.35,0,0,0,.11.69l13.89.06,1.06-1.76.54,1.77h1.13Z"/><path class="cls-16" d="M1321.6,194.45s-.36,5.52-4.11,8.18c-8.5,6-32.34.49-36.27,5.84-2.86,3.89-12,41.15-12,41.15l-5.47-.32s2.77-39.12,7-48.93c3-7.16,26.36-9.3,26.36-9.3Z"/><polygon class="cls-32" points="1307.9 176.08 1289.72 180.53 1288.14 178.2 1304.81 170 1307.9 176.08"/><path class="cls-33" d="M1288.14,178.2s-3.54-.68-5.23.67a5.81,5.81,0,0,0-2,2.75h7.27l1.58-1.09S1290.3,179.25,1288.14,178.2Z"/><path class="cls-15" d="M1298.77,169.33,1297,191.07c15.69,3.66,24.57,3.38,24.57,3.38,1-12.09-1.23-23.56-2.46-30.9-1.16-7-4.79-11.39-11.67-9.81a1.4,1.4,0,0,0-.55.14C1304,156.06,1293.71,165,1298.77,169.33Z"/><path class="cls-16" d="M1298.87,139.34a18.46,18.46,0,0,0,1,8c1.38,3.22,4.16,2.89,4.84,3.06,1.42.36,2.37-4.16,2.13-7.69S1298.87,139.34,1298.87,139.34Z"/><path class="cls-26" d="M1329.06,253.54h1.1l-8.45-39a7.39,7.39,0,0,0-2-3.68l-3-3-.75.76,3,3a6.36,6.36,0,0,1,1.72,3.15Z"/><path class="cls-26" d="M1277,253.54l8.39-38.81a6.36,6.36,0,0,1,1.72-3.15l3-3-.75-.76-3,3a7.35,7.35,0,0,0-2,3.68l-8.45,39Z"/><path class="cls-34" d="M1269.62,181.62H1288a1.8,1.8,0,0,1,1.8,1.8v0a0,0,0,0,1,0,0h-20.17a0,0,0,0,1,0,0v-1.8A0,0,0,0,1,1269.62,181.62Z"/><path class="cls-34" d="M1269.62,183.42l-8.74-15.59a1.05,1.05,0,0,1,.91-1.57h0l9.63,17.16Z"/><path class="cls-29" d="M1298.87,139.34c-1.29-3.15,1.85-9.35,9.52-8.44s4.51,6.2,7.14,8.44,4.42,1.64,6,4.4c2.53,4.49-2.69,6.22,2.68,9.68,3.28,2.11.85,6,3.2,9,3.57,4.57-3.07,11.14-9.38,7.57-3.47-2-2.49-5.1-4-9.63s-6.08-.67-6.08-8.16c0-4.18-4-2-4.5-5.71,0,0,.82.11,1.18-1.34.44-1.76-.86-2.33-1.39-1.22A9,9,0,0,1,1298.87,139.34Z"/><polygon class="cls-15" points="1304.56 179.03 1285.02 180.53 1283.44 178.2 1302.31 171.02 1304.56 179.03"/><path class="cls-16" d="M1283.44,178.2s-3.54-.68-5.23.67a5.81,5.81,0,0,0-2,2.75h7.27l1.58-1.09S1285.59,179.25,1283.44,178.2Z"/><path class="cls-35" d="M1314.87,161.6c-1.52,2.34-4,6.86-6.66,12.15l-1.29,2.61-.59,1.24c-.1.21-.19.41-.29.6l-.14.3,0,.06-2.24.25-2.23.27c-1.38.19-2.55.37-3.46.54.92,0,2.11,0,3.5,0l2.24-.07,1.23-.05,1.55-.08c.43-.83.88-1.71,1.36-2.62l1.31-2.59C1311.79,168.93,1313.91,164.22,1314.87,161.6Z"/><path class="cls-35" d="M1305.87,157.83a59.73,59.73,0,0,0-2.81,8.38c-.23.85-.44,1.68-.63,2.47-.09.4-.18.78-.27,1.15l-.12.56-.06.27v.07l-1.87.9c-.6.3-1.11.58-1.52.83.47-.09,1-.23,1.68-.41l1-.3.56-.17.29-.09.48-.17.74-2.38c.23-.78.47-1.6.69-2.45A58.71,58.71,0,0,0,1305.87,157.83Z"/><path class="cls-34" d="M1297,191.07s-23.31,2.14-26.36,9.3c-2.53,5.92-4.54,22.53-5.74,34.77l7.64,1.23c2.92-11.12,6.93-25.56,8.65-27.9,3.93-5.35,27.77.16,36.27-5.84,3.75-2.66,4.11-8.18,4.11-8.18Z"/><path class="cls-11" d="M1319.41,205.23l7.33-47.53a3.7,3.7,0,0,1,4.22-3.1h0l-8.37,54.29v0h-39.16a3.7,3.7,0,0,1,3.7-3.7Z"/><path class="cls-36" d="M1124.77,81a3.34,3.34,0,1,1,2.37-1A3.34,3.34,0,0,1,1124.77,81Z"/><path class="cls-37" d="M1130.77,73.35a8.45,8.45,0,0,0-12,0l-3-3a12.66,12.66,0,0,1,17.93,0Z"/><path class="cls-37" d="M1135.71,68.4a15.49,15.49,0,0,0-21.87,0l-3-3a19.69,19.69,0,0,1,27.83,0Z"/><path class="cls-37" d="M1140.65,63.46a22.46,22.46,0,0,0-31.75,0l-3-3a26.66,26.66,0,0,1,37.71,0Z"/><path class="cls-25" d="M1293.8,45.33a15.09,15.09,0,0,0-24,17.83l-.93,2.63-2.41,6.83,6.83-2.41,2.63-.92a15.1,15.1,0,0,0,17.84-24Z"/><path class="cls-4" d="M1277.39,55.67a2.06,2.06,0,1,1-2.06-2.06A2.06,2.06,0,0,1,1277.39,55.67Z"/><path class="cls-4" d="M1285.39,55.67a2.06,2.06,0,1,1-2.06-2.06A2.06,2.06,0,0,1,1285.39,55.67Z"/><path class="cls-4" d="M1293.39,55.67a2.06,2.06,0,1,1-2.06-2.06A2.06,2.06,0,0,1,1293.39,55.67Z"/><path class="cls-37" d="M1354.51,100.84l-7.33,1.68V99.6a3.45,3.45,0,0,0-3.45-3.45h-24.41a3.45,3.45,0,0,0-3.44,3.45v17.24a3.44,3.44,0,0,0,3.44,3.44h24.41a3.44,3.44,0,0,0,3.45-3.44v-2.93l7.33,1.69a1.63,1.63,0,0,0,2-1.58v-11.6A1.62,1.62,0,0,0,1354.51,100.84Z"/><rect class="cls-4" x="1323.68" y="104.05" width="15.69" height="8.32" rx="2.93"/><path class="cls-38" d="M1112.07,124.29h0a6.21,6.21,0,0,1-6.22-6.22V106.46a6.21,6.21,0,0,1,6.22-6.22h0a6.21,6.21,0,0,1,6.22,6.22v11.61A6.21,6.21,0,0,1,1112.07,124.29Z"/><path class="cls-29" d="M1112.07,124.29h0a6.21,6.21,0,0,1-6.22-6.22V106.46a6.21,6.21,0,0,1,6.22-6.22h0a6.21,6.21,0,0,1,6.22,6.22v11.61A6.21,6.21,0,0,1,1112.07,124.29Z"/><path class="cls-11" d="M1123,118.07a1.18,1.18,0,1,0-2.35,0,8.57,8.57,0,0,1-17.14,0,1.18,1.18,0,1,0-2.35,0,10.92,10.92,0,0,0,9.75,10.85v7.57h-3.31a2.88,2.88,0,0,0-2.89,2.88h14.74a2.89,2.89,0,0,0-2.89-2.88h-3.31v-7.57A10.93,10.93,0,0,0,1123,118.07Z"/><path class="cls-10" d="M1295.31,253.32h-1.69V204.71a13.31,13.31,0,0,0-3.93-9.47l-10.61-10.62,1.19-1.2L1290.89,194a15,15,0,0,1,4.42,10.67Z"/><path class="cls-10" d="M1156.17,253.32h1.7V204.71a13.3,13.3,0,0,1,3.92-9.47l10.62-10.62-1.2-1.2L1160.59,194a15,15,0,0,0-4.42,10.67Z"/><path class="cls-11" d="M1293.7,186.65H1157.79a1.63,1.63,0,0,1-1.62-1.62h0a1.62,1.62,0,0,1,1.62-1.61H1293.7a1.61,1.61,0,0,1,1.61,1.61h0A1.62,1.62,0,0,1,1293.7,186.65Z"/></svg>