<svg xmlns="http://www.w3.org/2000/svg" viewBox="0 0 27.79 27.48"><defs><style>.cls-1{fill:#0083eb;}</style></defs><title>strenght</title><g id="Layer_2" data-name="Layer 2"><g id="ICONS"><path class="cls-1" d="M24.14,27.48a.75.75,0,0,0,0-1.5H21.21a5.59,5.59,0,0,1-3.88-2.86c-.84-1.85-.41-4.33,1.26-7.38l.21,0h.05a8.79,8.79,0,0,0,7.78-5.49,14.09,14.09,0,0,0,1.16-5.21,1.55,1.55,0,0,0-1.57-1.52H22.68A21.05,21.05,0,0,0,22.87.73.75.75,0,0,0,22.12,0H5.76A.76.76,0,0,0,5,.73a20.21,20.21,0,0,0,.2,2.82H1.57A1.55,1.55,0,0,0,0,5.07a14.09,14.09,0,0,0,1.16,5.21,8.79,8.79,0,0,0,7.78,5.49H9a.72.72,0,0,0,.29-.06c1.68,3.06,2.11,5.55,1.28,7.41A5.6,5.6,0,0,1,6.68,26h-3a.75.75,0,0,0,0,1.5ZM26.22,5.05a.09.09,0,0,1,.07,0,12.34,12.34,0,0,1-1,4.58A7.21,7.21,0,0,1,19.4,14.2a34.41,34.41,0,0,0,3-9.15ZM2.53,9.66a12.38,12.38,0,0,1-1-4.58.09.09,0,0,1,.07,0H5.44A34.79,34.79,0,0,0,8.5,14.22,7.23,7.23,0,0,1,2.53,9.66ZM21.35,1.5a32.27,32.27,0,0,1-4,13.46c-1.94,3.51-2.4,6.46-1.35,8.78A6,6,0,0,0,17.74,26H10.15a6,6,0,0,0,1.77-2.24c1.05-2.32.6-5.27-1.34-8.78a32.26,32.26,0,0,1-4-13.46Z"/></g></g></svg>