<svg xmlns="http://www.w3.org/2000/svg" viewBox="0 0 1903 280"><defs><style>.cls-1{fill:#fafbff;}.cls-2{fill:#1a2e35;}.cls-3{fill:#375a64;}.cls-4{fill:#ff4f5b;}.cls-5{fill:#e1e1e1;}.cls-6{fill:#f5f5f5;}.cls-7{fill:#fafafa;}</style></defs><title>trainingAsset 8</title><g id="Layer_2" data-name="Layer 2"><g id="Layer_1-2" data-name="Layer 1"><rect class="cls-1" width="1903" height="280"/><rect class="cls-2" x="1197.18" y="62" width="199.25" height="173.23" rx="5.36"/><path class="cls-3" d="M1396.42,73.3c0,.07-44.6.12-99.62.12s-99.62,0-99.62-.12,44.59-.12,99.62-.12S1396.42,73.24,1396.42,73.3Z"/><ellipse class="cls-3" cx="1208.14" cy="67.48" rx="1.2" ry="1.23"/><ellipse class="cls-3" cx="1212.33" cy="67.48" rx="1.2" ry="1.23"/><path class="cls-3" d="M1217.73,67.48a1.21,1.21,0,1,1-1.21-1.23A1.22,1.22,0,0,1,1217.73,67.48Z"/><path class="cls-3" d="M1347,148.35c-2.75-.36-5.56.61-8.26,0-6-1.44-9.28-10.21-15.35-11.29-4.3-.77-8.25,2.63-11.6,5.86s-7.23,6.69-11.55,6.05c-6.93-1-10.49-11.91-17.45-12.63-1.83-.19-3.66.38-5.49.3-5.86-.24-10-6.78-12.43-13-1.2-3-2.25-6.23-4-8.9s-4.33-4.84-7.21-4.88c-2.49,0-4.85,1.53-6.55,3.66a28.47,28.47,0,0,0-3.9,7.39,374.72,374.72,0,0,0-12.52,37.78l122.92-.09C1352.88,154.54,1349.78,148.72,1347,148.35Z"/><path class="cls-4" d="M1222.22,218.75a.79.79,0,1,1-.79-.79A.79.79,0,0,1,1222.22,218.75Z"/><path class="cls-4" d="M1229.81,218.86a31,31,0,0,1-6.09,0,31,31,0,0,1,6.09,0Z"/><path class="cls-3" d="M1240.68,218.75a.79.79,0,1,1-.79-.79A.79.79,0,0,1,1240.68,218.75Z"/><path class="cls-3" d="M1248.27,218.86a31,31,0,0,1-6.09,0,31,31,0,0,1,6.09,0Z"/><circle class="cls-4" cx="1220.91" cy="103.2" r="1.02"/><path class="cls-4" d="M1231.75,103.34a51.82,51.82,0,0,1-7.88,0,51.82,51.82,0,0,1,7.88,0Z"/><circle class="cls-3" cx="1241.69" cy="103.2" r="1.02"/><path class="cls-3" d="M1252.53,103.34a51.82,51.82,0,0,1-7.88,0,51.82,51.82,0,0,1,7.88,0Z"/><path class="cls-5" d="M1222.36,94.54h-1.65l-.32.76h-.84l1.59-3.56h.81l1.6,3.56h-.87Zm-.25-.63-.57-1.36-.57,1.36Z"/><path class="cls-5" d="M1226.66,93.73V95.3h-.79V93.85c0-.44-.21-.64-.56-.64s-.66.23-.66.74V95.3h-.79V92.56h.76v.32a1.2,1.2,0,0,1,.91-.36A1.07,1.07,0,0,1,1226.66,93.73Z"/><path class="cls-5" d="M1229.8,93.74V95.3h-.74V95a.91.91,0,0,1-.84.38c-.64,0-1-.36-1-.83s.34-.82,1.18-.82h.63c0-.34-.21-.54-.63-.54a1.27,1.27,0,0,0-.79.26l-.29-.56a2.13,2.13,0,0,1,1.18-.33C1229.32,92.52,1229.8,92.91,1229.8,93.74Zm-.79.69v-.28h-.55c-.37,0-.49.14-.49.32s.17.34.45.34A.6.6,0,0,0,1229,94.43Z"/><path class="cls-5" d="M1230.52,91.52h.79V95.3h-.79Z"/><path class="cls-5" d="M1234.77,92.56l-1.24,2.91a1.13,1.13,0,0,1-1.13.86,1.23,1.23,0,0,1-.77-.25l.29-.57a.69.69,0,0,0,.45.18c.22,0,.34-.1.45-.34v0l-1.19-2.76h.82l.77,1.86.77-1.86Z"/><path class="cls-5" d="M1236.94,95.17a1.23,1.23,0,0,1-.65.17.9.9,0,0,1-1-1V93.23h-.43v-.61h.43V92h.79v.67h.68v.61h-.68v1.12a.32.32,0,0,0,.34.36.55.55,0,0,0,.32-.1Z"/><path class="cls-5" d="M1237.29,91.74a.46.46,0,0,1,.49-.45.44.44,0,0,1,.49.43.49.49,0,0,1-1,0Zm.09.82h.8V95.3h-.8Z"/><path class="cls-5" d="M1238.71,93.93a1.42,1.42,0,0,1,1.53-1.41,1.27,1.27,0,0,1,1.23.7l-.62.33a.73.73,0,1,0-.62,1.14.68.68,0,0,0,.62-.38l.62.34a1.28,1.28,0,0,1-1.23.69A1.42,1.42,0,0,1,1238.71,93.93Z"/><path class="cls-5" d="M1241.66,95.05l.26-.58a1.89,1.89,0,0,0,1,.27c.36,0,.5-.1.5-.25,0-.45-1.66,0-1.66-1.08,0-.52.47-.89,1.27-.89a2.3,2.3,0,0,1,1.06.24l-.27.56a1.6,1.6,0,0,0-.79-.2c-.35,0-.51.11-.51.26,0,.46,1.66,0,1.66,1.09,0,.51-.48.87-1.3.87A2.41,2.41,0,0,1,1241.66,95.05Z"/><path class="cls-3" d="M1221.38,115.52v.42h-1.68v-.33l.86-.81c.19-.19.23-.3.23-.41s-.12-.28-.36-.28a.54.54,0,0,0-.46.22l-.37-.24a1,1,0,0,1,.88-.41c.5,0,.83.25.83.66a.88.88,0,0,1-.38.7l-.51.48Z"/><path class="cls-3" d="M1221.58,114.83c0-.73.41-1.15,1-1.15s1,.42,1,1.15-.4,1.15-1,1.15S1221.58,115.56,1221.58,114.83Zm1.39,0c0-.51-.18-.72-.43-.72s-.43.21-.43.72.17.71.43.71S1223,115.33,1223,114.83Z"/><path class="cls-3" d="M1224.58,115.27l-.24.23v.44h-.5v-2.36h.5v1.34l.72-.69h.59l-.71.73.78,1h-.6Z"/><path class="cls-3" d="M1220.58,124.36v2.22h-.52v-1.81h-.44v-.41Z"/><path class="cls-3" d="M1222.64,125.88c0,.39-.29.74-.92.74a1.57,1.57,0,0,1-.85-.24l.2-.4a1.07,1.07,0,0,0,.64.21c.25,0,.41-.11.41-.29s-.11-.29-.52-.29H1221l.11-1.25h1.36v.41h-.93l0,.42h.18C1222.38,125.19,1222.64,125.49,1222.64,125.88Z"/><path class="cls-3" d="M1223.69,125.91l-.24.23v.44H1223v-2.36h.49v1.34l.72-.69h.59l-.71.72.78,1h-.6Z"/><path class="cls-3" d="M1220.58,135v2.22h-.52v-1.81h-.44V135Z"/><path class="cls-3" d="M1221,136.11c0-.74.41-1.15,1-1.15s1,.41,1,1.15-.41,1.15-1,1.15S1221,136.84,1221,136.11Zm1.39,0c0-.51-.18-.72-.44-.72s-.43.21-.43.72.18.71.43.71S1222.35,136.61,1222.35,136.11Z"/><path class="cls-3" d="M1224,136.55l-.24.23v.44h-.5v-2.36h.5v1.34l.72-.69h.59l-.71.72.77,1h-.6Z"/><path class="cls-3" d="M1221.4,147.16c0,.39-.29.73-.93.73a1.53,1.53,0,0,1-.84-.23l.2-.4a1.05,1.05,0,0,0,.63.2c.26,0,.42-.1.42-.29s-.12-.28-.52-.28h-.57l.12-1.25h1.35v.41h-.93l0,.42h.18C1221.14,146.47,1221.4,146.76,1221.4,147.16Z"/><path class="cls-3" d="M1222.44,147.19l-.23.23v.44h-.5V145.5h.5v1.33l.72-.68h.59l-.71.72.77,1h-.6Z"/><path class="cls-3" d="M1219.72,157.39c0-.74.41-1.15,1-1.15s.95.41.95,1.15-.4,1.14-.95,1.14S1219.72,158.12,1219.72,157.39Zm1.39,0c0-.51-.18-.72-.44-.72s-.43.21-.43.72.18.71.43.71S1221.11,157.89,1221.11,157.39Z"/><path class="cls-3" d="M1222.71,157.83l-.24.23v.44H1222v-2.36h.49v1.33l.73-.68h.59l-.71.72.77,1h-.6Z"/><path class="cls-3" d="M1377.75,115.25c0,.09-34,.15-76,.15s-76-.06-76-.15,34-.14,76-.14S1377.75,115.17,1377.75,115.25Z"/><path class="cls-3" d="M1377.75,126.11c0,.08-34,.14-76,.14s-76-.06-76-.14,34-.15,76-.15S1377.75,126,1377.75,126.11Z"/><path class="cls-3" d="M1377.75,137c0,.08-34,.15-76,.15s-76-.07-76-.15,34-.15,76-.15S1377.75,136.87,1377.75,137Z"/><path class="cls-3" d="M1377.75,147.81c0,.08-34,.15-76,.15s-76-.07-76-.15,34-.15,76-.15S1377.75,147.73,1377.75,147.81Z"/><path class="cls-3" d="M1377.75,158.66c0,.08-34,.15-76,.15s-76-.07-76-.15,34-.15,76-.15S1377.75,158.58,1377.75,158.66Z"/><path class="cls-4" d="M1226.58,158.66c7.77-1,14.51-4.16,20.36-7.47s10.86-7.11,16.36-10.63c2.15-1.38,4.74-2.8,7.85-2.75a10.15,10.15,0,0,1,7.23,3.31c1.54,1.68,2.48,3.58,4.4,5.11a7.17,7.17,0,0,0,4.48,1.63c2.64,0,4.68-1.69,7.32-1.67,3.41,0,5.05,2.72,8.21,3.5a11.89,11.89,0,0,0,7.68-1.2c2.17-1.06,4-2.41,6.46-3.19,3.89-1.23,8.72-.79,12.63.42s6.22,4.06,9.28,6c4,2.54,8.94,6.28,13.17,7Z"/><path class="cls-3" d="M1233,209.12A14.06,14.06,0,1,1,1247,195.06,14.08,14.08,0,0,1,1233,209.12Zm0-25.27a11.21,11.21,0,1,0,11.2,11.21A11.22,11.22,0,0,0,1233,183.85Z"/><path class="cls-4" d="M1232.93,209.69a15.1,15.1,0,0,1-4.42-.67,2.29,2.29,0,0,1,1.36-4.37A10.35,10.35,0,0,0,1242.1,190a10.24,10.24,0,0,0-6.08-5.07,2.28,2.28,0,1,1,1.35-4.36,14.91,14.91,0,0,1,9.82,18.67A15,15,0,0,1,1232.93,209.69Z"/><path class="cls-5" d="M1230.2,196.53h-.76v1h-1.06v-1h-2.52v-.73l2.21-3h1.13l-2,2.82h1.26v-.88h1v.88h.76Z"/><path class="cls-5" d="M1234.05,196c0,.83-.61,1.56-2,1.56a3.27,3.27,0,0,1-1.79-.5l.43-.84a2.27,2.27,0,0,0,1.33.43c.55,0,.88-.23.88-.61s-.24-.61-1.09-.61h-1.2l.24-2.64h2.86v.87h-2l-.08.89h.38C1233.5,194.59,1234.05,195.21,1234.05,196Z"/><path class="cls-5" d="M1234.34,194.07a1.17,1.17,0,1,1,1.17,1.29A1.16,1.16,0,0,1,1234.34,194.07Zm1.66,0c0-.5-.2-.74-.49-.74s-.49.24-.49.74.2.74.49.74S1236,194.57,1236,194.07Zm2.3-1.24h.8l-3.2,4.69h-.8Zm-.77,3.45a1.17,1.17,0,1,1,1.16,1.29A1.16,1.16,0,0,1,1237.53,196.28Zm1.65,0c0-.5-.2-.75-.49-.75s-.49.25-.49.75.2.74.49.74S1239.18,196.77,1239.18,196.28Z"/><path class="cls-3" d="M1275.82,182.73v.32h-1.3v-.26l.67-.62c.15-.14.18-.23.18-.32s-.1-.21-.28-.21a.41.41,0,0,0-.35.17l-.29-.18a.78.78,0,0,1,.68-.32c.38,0,.63.19.63.5a.69.69,0,0,1-.28.55l-.4.37Z"/><path class="cls-3" d="M1276,182.19c0-.56.31-.88.74-.88s.73.32.73.88-.31.89-.73.89S1276,182.76,1276,182.19Zm1.07,0c0-.39-.14-.55-.33-.55s-.34.16-.34.55.14.56.34.56S1277.05,182.58,1277.05,182.19Z"/><path class="cls-3" d="M1278.29,182.54l-.18.18v.33h-.38v-1.82h.38v1l.56-.53h.45l-.55.56.6.76h-.46Z"/><path class="cls-3" d="M1275.2,189.56v1.71h-.4v-1.39h-.34v-.32Z"/><path class="cls-3" d="M1276.8,190.73c0,.31-.23.57-.72.57a1.18,1.18,0,0,1-.65-.18l.16-.31a.81.81,0,0,0,.48.16c.2,0,.33-.08.33-.22s-.09-.23-.4-.23h-.44l.09-1h1v.32H1276l0,.32h.14C1276.6,190.2,1276.8,190.43,1276.8,190.73Z"/><path class="cls-3" d="M1277.61,190.76l-.19.18v.33H1277v-1.82h.38v1l.56-.53h.46l-.55.56.6.76H1278Z"/><path class="cls-3" d="M1275.2,197.78v1.71h-.4V198.1h-.34v-.32Z"/><path class="cls-3" d="M1275.5,198.63c0-.56.31-.88.74-.88s.73.32.73.88-.31.89-.73.89S1275.5,199.2,1275.5,198.63Zm1.07,0c0-.38-.14-.55-.33-.55s-.34.17-.34.55.14.56.34.56S1276.57,199,1276.57,198.63Z"/><path class="cls-3" d="M1277.81,199l-.18.18v.33h-.38v-1.82h.38v1l.56-.53h.45l-.55.56.6.76h-.46Z"/><path class="cls-3" d="M1275.84,207.17c0,.31-.23.57-.72.57a1.26,1.26,0,0,1-.65-.18l.16-.31a.79.79,0,0,0,.48.16c.2,0,.32-.09.32-.23s-.08-.22-.4-.22h-.43l.08-1h1v.31H1275l0,.33h.14C1275.63,206.64,1275.84,206.87,1275.84,207.17Z"/><path class="cls-3" d="M1276.64,207.19l-.18.19v.33h-.38v-1.82h.38v1l.56-.53h.46l-.55.56.59.76h-.46Z"/><path class="cls-3" d="M1274.54,215.07c0-.56.31-.88.73-.88s.74.32.74.88-.31.89-.74.89S1274.54,215.64,1274.54,215.07Zm1.07,0c0-.38-.14-.55-.34-.55s-.33.17-.33.55.14.56.33.56S1275.61,215.46,1275.61,215.07Z"/><path class="cls-3" d="M1276.85,215.42l-.18.18v.33h-.39v-1.82h.39v1l.56-.53h.45l-.55.56.6.76h-.46Z"/><path class="cls-3" d="M1378.57,182.52c0,.08-22.24.15-49.66.15s-49.66-.07-49.66-.15,22.23-.15,49.66-.15S1378.57,182.44,1378.57,182.52Z"/><path class="cls-3" d="M1378.57,190.91c0,.08-22.24.15-49.66.15s-49.66-.07-49.66-.15,22.23-.15,49.66-.15S1378.57,190.82,1378.57,190.91Z"/><path class="cls-3" d="M1378.57,199.29c0,.08-22.24.15-49.66.15s-49.66-.07-49.66-.15,22.23-.15,49.66-.15S1378.57,199.21,1378.57,199.29Z"/><path class="cls-3" d="M1378.57,207.67c0,.09-22.24.15-49.66.15s-49.66-.06-49.66-.15,22.23-.14,49.66-.14S1378.57,207.59,1378.57,207.67Z"/><path class="cls-3" d="M1378.57,216.06c0,.08-22.24.15-49.66.15s-49.66-.07-49.66-.15,22.23-.15,49.66-.15S1378.57,216,1378.57,216.06Z"/><path class="cls-4" d="M1283.55,211.89h0a.75.75,0,0,1-.75-.75V188a.74.74,0,0,1,.75-.75h0a.75.75,0,0,1,.75.75v23.13A.76.76,0,0,1,1283.55,211.89Z"/><path class="cls-5" d="M1288.16,208.61h0a.76.76,0,0,1-.76-.75V195.8a.76.76,0,0,1,.76-.75h0a.76.76,0,0,1,.75.75v12.06A.76.76,0,0,1,1288.16,208.61Z"/><path class="cls-5" d="M1297.92,208.61h0a.76.76,0,0,1-.76-.75V190.22a.75.75,0,0,1,.76-.75h0a.75.75,0,0,1,.75.75v17.64A.76.76,0,0,1,1297.92,208.61Z"/><path class="cls-5" d="M1307.81,211h0a.75.75,0,0,1-.76-.75V192.57a.76.76,0,0,1,.76-.75h0a.76.76,0,0,1,.75.75v17.64A.75.75,0,0,1,1307.81,211Z"/><path class="cls-5" d="M1317.83,211h0a.75.75,0,0,1-.76-.75V192.57a.76.76,0,0,1,.76-.75h0a.76.76,0,0,1,.75.75v17.64A.75.75,0,0,1,1317.83,211Z"/><path class="cls-5" d="M1327.19,213.92h0a.76.76,0,0,1-.76-.76V190.51a.76.76,0,0,1,.76-.76h0a.76.76,0,0,1,.75.76v22.65A.76.76,0,0,1,1327.19,213.92Z"/><path class="cls-4" d="M1351.33,210.21h0a.75.75,0,0,1-.76-.75V186.8a.76.76,0,0,1,.76-.75h0a.76.76,0,0,1,.75.75v22.66A.75.75,0,0,1,1351.33,210.21Z"/><path class="cls-5" d="M1356.8,212.17h0a.76.76,0,0,1-.76-.75V188.76a.76.76,0,0,1,.76-.76h0a.76.76,0,0,1,.75.76v22.66A.76.76,0,0,1,1356.8,212.17Z"/><path class="cls-4" d="M1341.52,210.21h0a.74.74,0,0,1-.75-.75V186.8a.75.75,0,0,1,.75-.75h0a.75.75,0,0,1,.75.75v22.66A.74.74,0,0,1,1341.52,210.21Z"/><path class="cls-4" d="M1302.82,206.72h0a.75.75,0,0,1-.75-.76V183.45a.75.75,0,0,1,.75-.76h0a.75.75,0,0,1,.75.76V206A.75.75,0,0,1,1302.82,206.72Z"/><path class="cls-4" d="M1293.22,211.12h0a.75.75,0,0,1-.75-.75V198.32a.76.76,0,0,1,.75-.76h0a.76.76,0,0,1,.76.76v12.05A.75.75,0,0,1,1293.22,211.12Z"/><path class="cls-4" d="M1312.71,208.3h0a.76.76,0,0,1-.76-.76v-9.38a.76.76,0,0,1,.76-.75h0a.76.76,0,0,1,.75.75v9.38A.76.76,0,0,1,1312.71,208.3Z"/><path class="cls-5" d="M1346,205.51h0a.75.75,0,0,1-.75-.76v-9.38a.75.75,0,0,1,.75-.75h0a.75.75,0,0,1,.75.75v9.38A.75.75,0,0,1,1346,205.51Z"/><path class="cls-4" d="M1361.79,208.18h0a.76.76,0,0,1-.75-.76V198a.76.76,0,0,1,.75-.75h0a.76.76,0,0,1,.76.75v9.38A.76.76,0,0,1,1361.79,208.18Z"/><path class="cls-5" d="M1366.32,211h0a.76.76,0,0,1-.75-.75v-9.38a.76.76,0,0,1,.75-.76h0a.75.75,0,0,1,.75.76v9.38A.75.75,0,0,1,1366.32,211Z"/><path class="cls-4" d="M1371.51,201.24h0a.75.75,0,0,1-.75-.76V191.1a.75.75,0,0,1,.75-.75h0a.75.75,0,0,1,.75.75v9.38A.75.75,0,0,1,1371.51,201.24Z"/><path class="cls-5" d="M1337.08,208.29h0a.75.75,0,0,1-.75-.75v-9.38a.75.75,0,0,1,.75-.75h0a.75.75,0,0,1,.76.75v9.38A.75.75,0,0,1,1337.08,208.29Z"/><path class="cls-4" d="M1322,206.13h0a.76.76,0,0,1-.76-.76V196a.76.76,0,0,1,.76-.75h0a.76.76,0,0,1,.75.75v9.38A.76.76,0,0,1,1322,206.13Z"/><path class="cls-4" d="M1332,208.43h0a.76.76,0,0,1-.76-.75V192.45a.76.76,0,0,1,.76-.75h0a.76.76,0,0,1,.75.75v15.23A.76.76,0,0,1,1332,208.43Z"/><path class="cls-3" d="M1384.38,226.52l.22,0a4.38,4.38,0,0,0,.66-.08,5.09,5.09,0,0,0,3.55-2.58,5.13,5.13,0,0,0,.59-2.21v-5.82c0-8.77,0-21.44-.05-37.1v-1.48a8,8,0,0,0-.08-1.47,5,5,0,0,0-4-4,8,8,0,0,0-1.56-.09H1368.8l-29.41,0H1272a4.9,4.9,0,0,0-4.77,3.69,8.13,8.13,0,0,0-.17,2.16v42.58a19,19,0,0,0,0,2,5,5,0,0,0,3.7,4.08,7.83,7.83,0,0,0,1.94.15h5.88l55,0,37.1.05,10.09,0h2.62l.9,0h-.9l-2.62,0-10.09,0-37.1,0-55,0h-5.88a8,8,0,0,1-2-.16,5.24,5.24,0,0,1-3.92-4.31,17.68,17.68,0,0,1-.06-2.05V177.56a8.16,8.16,0,0,1,.17-2.24,5.21,5.21,0,0,1,5.06-3.91h111.71a8.59,8.59,0,0,1,1.6.09,5.18,5.18,0,0,1,4.16,4.19,7.69,7.69,0,0,1,.08,1.51v1.48c0,15.66,0,28.33,0,37.1,0,2.19,0,4.13,0,5.82a5.07,5.07,0,0,1-4.22,4.82,4,4,0,0,1-.67.06Z"/><path class="cls-3" d="M1257.84,226.52s.19,0,.55-.06a4,4,0,0,0,3.11-2.52,4.21,4.21,0,0,0,.26-1.62c0-.6,0-1.24,0-1.91,0-5.4,0-13.19,0-22.83,0-4.82,0-10.09,0-15.76V177.5c0-.73,0-1.48,0-2.21a3.76,3.76,0,0,0-.73-2,3.71,3.71,0,0,0-1.72-1.33,3.6,3.6,0,0,0-1.08-.24c-.37,0-.77,0-1.15,0h-46.17a3.81,3.81,0,0,0-3.75,3.1,5.76,5.76,0,0,0-.07,1.32v4.05q0,5.37,0,10.58c0,6.93,0,13.62,0,20v11.55a4,4,0,0,0,.46,2.08,3.86,3.86,0,0,0,3.44,2l15.77,0,22.82.05,6.21,0h1.61l.55,0h-.55l-1.61,0-6.21,0-22.82,0-15.77,0a4.11,4.11,0,0,1-3.66-2.13,4.29,4.29,0,0,1-.5-2.2v-2.24c0-3,0-6.13,0-9.31,0-6.38,0-13.07,0-20V176.13a7.22,7.22,0,0,1,.07-1.38,4.13,4.13,0,0,1,4-3.34H1257c.39,0,.77,0,1.17,0a4,4,0,0,1,3,1.68,4,4,0,0,1,.77,2.16c0,.76,0,1.48,0,2.22v4.32c0,5.67,0,10.94,0,15.76,0,9.64,0,17.43-.05,22.83v1.91a4.37,4.37,0,0,1-.27,1.65,3.92,3.92,0,0,1-1.68,2,3.72,3.72,0,0,1-1.52.53A3.77,3.77,0,0,1,1257.84,226.52Z"/><path class="cls-3" d="M1381.17,81.42h.34a6.84,6.84,0,0,1,1,.1,7.92,7.92,0,0,1,3.61,1.57,8.36,8.36,0,0,1,1.95,2.18,8.26,8.26,0,0,1,1.14,3.33c0,.64,0,1.3,0,2v2.13c0,1.47,0,3,0,4.69,0,13.26,0,32.44,0,56.14v4.5c0,.76,0,1.52,0,2.3a8.24,8.24,0,0,1-3.44,6,8.08,8.08,0,0,1-4.56,1.48h-20.17l-44.5,0h-102a8.21,8.21,0,0,1-6.11-2.73,8.1,8.1,0,0,1-1.7-2.94c-.09-.27-.15-.55-.23-.82s-.08-.57-.13-.85l0-.85V145.52q0-13.22,0-26V91.32a24.19,24.19,0,0,1,.1-3.06,8.17,8.17,0,0,1,3-5.2,8,8,0,0,1,2.68-1.42,9.25,9.25,0,0,1,3-.35h5.91l83.28,0,56.14.05,15.26,0,4,0h1.35l-1.35,0h-4l-15.26,0-56.14,0-83.28,0h-5.91a8.91,8.91,0,0,0-2.91.35,8,8,0,0,0-2.59,1.36,7.93,7.93,0,0,0-2.91,5,25.12,25.12,0,0,0-.1,3v68.34l0,.82c0,.27.07.54.13.81s.12.54.21.8a7.91,7.91,0,0,0,7.53,5.46h102l44.5,0h20.17a8.3,8.3,0,0,0,2.33-.39,8,8,0,0,0,4.93-4.64,8.08,8.08,0,0,0,.52-2.21c.06-.75,0-1.52,0-2.28v-4.5c0-23.7,0-42.88,0-56.14,0-1.66,0-3.22,0-4.69,0-.74,0-1.45,0-2.13s0-1.35,0-2a8,8,0,0,0-6.61-7.06,7.17,7.17,0,0,0-1-.11Z"/><rect class="cls-5" x="561.68" y="202.3" width="11.69" height="46.69"/><rect class="cls-5" x="578.87" y="212.48" width="11.69" height="36.51"/><rect class="cls-5" x="596.33" y="220.82" width="11.69" height="28.17"/><rect class="cls-5" x="612.48" y="232.26" width="11.69" height="16.73"/><path class="cls-6" d="M769.75,69.08,804,70.8a34.27,34.27,0,1,1-23.71-34.34Z"/><path class="cls-5" d="M787.33,38,778,62.92l26.23.43S803.5,48.17,787.33,38Z"/><path class="cls-4" d="M728.48,189.83a23.43,23.43,0,0,0-10.08-3.47,6.75,6.75,0,0,0-4.77.87,1,1,0,0,0-.49.87,1.07,1.07,0,0,0,.47.6,14.42,14.42,0,0,0,14.87,1.13"/><path class="cls-4" d="M728.22,189.54a48.64,48.64,0,0,1-6.51-5.73,16.48,16.48,0,0,1-4.08-7.55,3,3,0,0,1,.32-2.52c5.19,4,9.27,9.29,10.27,15.8"/><path class="cls-4" d="M728.43,189.79a23.4,23.4,0,0,1,.12-8.55,11.6,11.6,0,0,1,4.55-7.06c.9,2.1.51,4.52-.12,6.71a32.56,32.56,0,0,1-4.52,9.5"/><path class="cls-4" d="M733.51,198.9a15,15,0,0,0-8.08,4.1,15.17,15.17,0,0,0-4.62,7.93c3-.18,5.59-2.32,7.46-4.72s3.15-5,5.2-7.26"/><path class="cls-4" d="M734.62,200.36a19.93,19.93,0,0,1,2.3-18.86,24,24,0,0,1-2.3,18.86"/><path class="cls-4" d="M741.34,208.37a14.38,14.38,0,0,0-13.78,7.93c-.18.34-.33.78-.1,1.08a1,1,0,0,0,.92.27c2.71-.17,5.12-1.81,7.11-3.67s3.72-4,5.91-5.62"/><path class="cls-4" d="M741.13,207.93a25.63,25.63,0,0,1-.26-14.34c.51-1.85,1.35-3.79,3.06-4.66a.61.61,0,0,1,.47-.08.63.63,0,0,1,.3.34,8.77,8.77,0,0,1,.72,4.12,26.66,26.66,0,0,1-.65,4.16c-.54,2.55-.82,5.29-2.22,7.48a16.17,16.17,0,0,0-.89,1.64c-.26.56-.26.76-.5,1.2"/><path class="cls-4" d="M758.92,210.58a18.48,18.48,0,0,1,3.24-15.2c.23-.31.54-.63.92-.6.59.06.74.83.71,1.42a27.5,27.5,0,0,1-4.87,14.38"/><path class="cls-4" d="M760.53,211.68A22.13,22.13,0,0,0,778.67,208a14.64,14.64,0,0,0-9.82-1.21,14,14,0,0,0-8.32,4.9"/><path class="cls-4" d="M761.88,208.34a21,21,0,0,1,16.47-9.53,10.11,10.11,0,0,1-5.39,6,29.55,29.55,0,0,1-7.9,2.31c-1.06.21-2.5.43-3.18,1.26"/><path class="cls-4" d="M759.26,192.14a48.64,48.64,0,0,0,2.11-9.65,16.12,16.12,0,0,0-1.92-9.54,21,21,0,0,0-.29,19.52"/><path class="cls-4" d="M770,186.71c3.73-6.77,11.33-12.18,19-12.94-3,7.39-11.07,13.1-19,12.94"/><path class="cls-4" d="M767.65,188c5.55.85,10.29,4.4,15.49,6.55a6.9,6.9,0,0,0,3.5.67,2.74,2.74,0,0,0,1.71-4.85,7.4,7.4,0,0,0-2.54-1.54,28.24,28.24,0,0,0-17.69-1"/><path class="cls-4" d="M764.43,191.94c1.26.36,1.69,1,2.68,1.86a29,29,0,0,0,11.75,6c.45.12,1,.16,1.26-.25s0-.78-.3-1.09a16.23,16.23,0,0,0-7.1-4.82c-2.71-1-5.06-2.22-8.29-2"/><path class="cls-4" d="M760.8,168.39a22.22,22.22,0,0,0,17,5.8,1.18,1.18,0,0,0,.78-.28c.43-.46-.09-1.19-.59-1.57a19.63,19.63,0,0,0-17.23-4"/><path class="cls-4" d="M765.1,166.82a23.77,23.77,0,0,1,21.27-3.51,16.88,16.88,0,0,1-10.13,4.45,32.22,32.22,0,0,1-11.14-.94"/><path class="cls-4" d="M763.39,156c-.49-5-.17-8.95-.52-14,0-.4-.11-.88-.49-1s-1,.44-1.13,1a16,16,0,0,0,2.14,13.92"/><path class="cls-4" d="M763,156.55a29.55,29.55,0,0,0,8.29-8.05c1.63-2.24,3-4.92,2.64-7.67a7.88,7.88,0,0,0-6,3,16.47,16.47,0,0,0-3,6.12c-.66,2.21-1.13,4.47-1.91,6.63"/><path class="cls-4" d="M771.17,154.29a67,67,0,0,0,20.39-12c-2.44-1-5.22-.4-7.66.58a24.15,24.15,0,0,0-12.83,11.38"/><path class="cls-4" d="M765.32,159.28a41.27,41.27,0,0,0,11.32.06,48.06,48.06,0,0,0,10.57-3.51,1.25,1.25,0,0,0,.72-.55.83.83,0,0,0-.26-.9,2.13,2.13,0,0,0-.9-.42,19.48,19.48,0,0,0-11.42.68,53.67,53.67,0,0,0-10,4.64"/><path class="cls-4" d="M743.83,168.56a20,20,0,0,1-.18-16.57c1.56,2.38,1.75,5.41,1.46,8.24s-1.14,5.75-1.2,8.59"/><path class="cls-4" d="M733.57,163.39a23.1,23.1,0,0,0-17.17,7.32,16.07,16.07,0,0,0,9.4-1.75,47.6,47.6,0,0,0,8.06-5.39"/><path class="cls-4" d="M726.68,161.08c-3.14-.25-6.16-.64-9.17.28a11,11,0,0,0-7,5.93,16.52,16.52,0,0,0,8.59-1.62,49.56,49.56,0,0,0,7.57-4.59"/><path class="cls-4" d="M736.89,161.19c-2.82-1.85-5.72-3.73-9-4.5s-7.09-.2-9.38,2.28c2.66,1.56,5.89,1.74,9,1.74s6.86,0,9.77,1"/><path class="cls-4" d="M736.9,161.34c-4.82-4.74-6.65-13.25-4.71-19.72a30,30,0,0,1,4.71,19.72"/><path class="cls-4" d="M750.17,147.92c.91-2.12,1.55-4.34,2.36-6.49a18.62,18.62,0,0,1,3.38-6,8.89,8.89,0,0,1,6-3.1A24.08,24.08,0,0,1,750.29,148"/><path class="cls-4" d="M747.77,150.71c-1.51-2.07-3.25-4.88-5.29-6.43a8.88,8.88,0,0,0-7.19-1.89,16.72,16.72,0,0,0,12.48,8.32"/><path class="cls-4" d="M748.25,148.09a35.64,35.64,0,0,1-2.38-7.71,12,12,0,0,1,1.2-7.83c2.65,5,3.5,10.38,1.31,15.6"/><path class="cls-4" d="M750.19,132.55c1.5-5,6-8.62,10.95-10.29a4.1,4.1,0,0,1,1.92-.29,1.65,1.65,0,0,1,1.41,1.18c.18.84-.51,1.6-1.17,2.16a37.17,37.17,0,0,1-13.11,7.24"/><path class="cls-4" d="M750.25,128.49a35.61,35.61,0,0,1,1.43-9.48,12,12,0,0,1,6-7.2c.5,3.23-.93,6.45-2.65,9.23s-3.79,5.4-4.82,8.51"/><path class="cls-4" d="M750.17,130.69c-1.24-3.61-1.37-8.21-3.54-11.36-1.51-2.2-3.93-3.7-5.24-6a9.19,9.19,0,0,0,.31,6.85,19.73,19.73,0,0,0,4,5.73c1.61,1.71,3,3,4.47,4.81"/><path class="cls-2" d="M750.19,237.18c-.09,0-.18-24.12-.18-53.87s.06-53.88.16-53.88.18,24.12.18,53.88S750.29,237.18,750.19,237.18Z"/><path class="cls-2" d="M771.27,164.92a3.8,3.8,0,0,1-.91.34l-2.49.85c-2.11.71-5,1.75-8.13,3s-6,2.41-7.71,3.86a5.67,5.67,0,0,0-1.55,2.05c-.24.56-.28.91-.31.9a.69.69,0,0,1,0-.25,4.54,4.54,0,0,1,.17-.7,5.5,5.5,0,0,1,1.52-2.19,13.29,13.29,0,0,1,3.34-2.07c1.34-.63,2.82-1.28,4.39-1.93,3.15-1.29,6.06-2.29,8.19-2.95,1.07-.33,1.93-.58,2.54-.74A6.42,6.42,0,0,1,771.27,164.92Z"/><path class="cls-2" d="M778.18,148s-.08.1-.25.27l-.78.73-2.89,2.62-9.61,8.57c-3.76,3.34-7,6.53-9.25,8.94-1.13,1.2-2,2.19-2.62,2.89l-.7.8c-.16.18-.25.27-.26.26a1.37,1.37,0,0,1,.21-.31c.14-.19.36-.48.65-.84.57-.72,1.43-1.74,2.54-3a121.4,121.4,0,0,1,9.19-9c3.77-3.34,7.2-6.33,9.69-8.49l3-2.54.82-.68A1.57,1.57,0,0,1,778.18,148Z"/><path class="cls-2" d="M760.59,163.54c-.1,0,.69-1.86,1.47-4.15s1.16-4.22,1.26-4.21a14.14,14.14,0,0,1-.93,4.32,27.3,27.3,0,0,1-1.17,2.9A4.34,4.34,0,0,1,760.59,163.54Z"/><path class="cls-2" d="M750.21,178.14a4.77,4.77,0,0,1-.57-.68c-.4-.5-.89-1.14-1.49-1.9-1.24-1.6-3-3.83-4.89-6.26s-3.71-4.61-5-6.19l-1.51-1.87a4,4,0,0,1-.53-.72,4.84,4.84,0,0,1,.63.63c.39.42.93,1,1.6,1.8,1.33,1.54,3.14,3.7,5.07,6.14s3.62,4.68,4.82,6.33c.6.82,1.07,1.49,1.39,2A3.68,3.68,0,0,1,750.21,178.14Z"/><path class="cls-2" d="M745.59,172.2a8.41,8.41,0,0,1-1.93-3.62,10.27,10.27,0,0,1-.44-3.66l.15,0c-.07.27-.12.42-.15.42a1.07,1.07,0,0,1,0-.45h.15a17.17,17.17,0,0,0,.62,3.56A27.76,27.76,0,0,0,745.59,172.2Z"/><path class="cls-2" d="M739.62,164.7a5.45,5.45,0,0,0-1.35-.79,9.14,9.14,0,0,0-3.75-.3,23.69,23.69,0,0,0-3.78.61,13.16,13.16,0,0,1-1.56.38,5.2,5.2,0,0,1,1.49-.61,17.11,17.11,0,0,1,3.82-.72,8.14,8.14,0,0,1,3.88.41A2.32,2.32,0,0,1,739.62,164.7Z"/><path class="cls-2" d="M738.21,162.88c0,.05-.79-.32-2.07-.76a20.88,20.88,0,0,0-10.44-.79c-1.33.24-2.14.49-2.16.43a1.83,1.83,0,0,1,.55-.23,11.54,11.54,0,0,1,1.56-.44,18.61,18.61,0,0,1,5.35-.38,18.8,18.8,0,0,1,5.22,1.18,13.46,13.46,0,0,1,1.48.67A2.22,2.22,0,0,1,738.21,162.88Z"/><path class="cls-2" d="M750.17,155.18a40.73,40.73,0,0,1-1.51-5.24,44.91,44.91,0,0,1-1.18-5.33,41.65,41.65,0,0,1,1.52,5.24A43.6,43.6,0,0,1,750.17,155.18Z"/><path class="cls-2" d="M750.26,155.18a26.11,26.11,0,0,0-1.67-3.14,14.22,14.22,0,0,0-2.46-2.54,2.39,2.39,0,0,1,1,.49,7.75,7.75,0,0,1,1.79,1.85A6.9,6.9,0,0,1,750.26,155.18Z"/><path class="cls-2" d="M750.19,224.32s-.11-.58-.38-1.6a22.59,22.59,0,0,0-1.61-4.18,58.05,58.05,0,0,0-8.55-12c-1.91-2.18-3.77-4.24-5.34-6.21a43.57,43.57,0,0,1-3.81-5.5,26.55,26.55,0,0,1-1.93-4.08c-.17-.51-.3-.9-.38-1.17a1.43,1.43,0,0,1-.09-.42s.2.56.6,1.54a30.16,30.16,0,0,0,2,4,47.05,47.05,0,0,0,3.85,5.42c1.58,1.95,3.44,4,5.35,6.18a54.9,54.9,0,0,1,8.51,12.17,20.66,20.66,0,0,1,1.52,4.25c.11.53.19.93.22,1.21A2.31,2.31,0,0,1,750.19,224.32Z"/><path class="cls-2" d="M769.24,202.81a9.73,9.73,0,0,1-1,.56,21.48,21.48,0,0,0-2.59,1.71,29.36,29.36,0,0,0-3.4,3.1c-1.19,1.26-2.42,2.72-3.68,4.29-2.51,3.15-4.85,5.94-6.26,8.16-.71,1.1-1.23,2-1.57,2.69a7.22,7.22,0,0,1-.55,1,1,1,0,0,1,.09-.28c.08-.18.18-.45.34-.78a24.49,24.49,0,0,1,1.48-2.76,91,91,0,0,1,6.2-8.24c1.26-1.58,2.5-3,3.72-4.3a27.6,27.6,0,0,1,3.48-3.08,17.9,17.9,0,0,1,2.68-1.63c.33-.17.6-.27.78-.35S769.24,202.79,769.24,202.81Z"/><path class="cls-2" d="M769.61,209.79a15.45,15.45,0,0,1-2.11.3,28,28,0,0,0-5,1,14.86,14.86,0,0,0-4.48,2.35c-1,.8-1.52,1.46-1.57,1.42s.08-.19.31-.49a8.54,8.54,0,0,1,1.1-1.12,13.52,13.52,0,0,1,4.53-2.49,22,22,0,0,1,5.09-.9A10.56,10.56,0,0,1,769.61,209.79Z"/><path class="cls-2" d="M757.07,214.08c-.11-.06.84-1.51,1.57-3.47s.86-3.7,1-3.68a3.1,3.1,0,0,1,0,1.14,12.34,12.34,0,0,1-.62,2.66,13.23,13.23,0,0,1-1.22,2.45A3.53,3.53,0,0,1,757.07,214.08Z"/><path class="cls-2" d="M775.41,184.07a2,2,0,0,1-.34.18l-1,.45c-.43.18-1,.42-1.56.73s-1.29.63-2,1.06l-1.15.66c-.4.23-.8.5-1.22.76-.85.52-1.7,1.15-2.6,1.8a48.37,48.37,0,0,0-5.44,4.78,49.56,49.56,0,0,0-4.6,5.6c-.62.93-1.22,1.8-1.71,2.67-.24.43-.5.83-.72,1.24l-.61,1.17c-.41.74-.71,1.45-1,2.05s-.51,1.14-.69,1.58-.3.74-.41,1a1.35,1.35,0,0,1-.17.34,1.41,1.41,0,0,1,.1-.36c.1-.28.21-.62.36-1a15.77,15.77,0,0,1,.63-1.61c.27-.62.55-1.34,1-2.09l.59-1.19c.21-.41.47-.82.71-1.26.48-.87,1.08-1.76,1.7-2.7a43.06,43.06,0,0,1,10.11-10.46c.92-.64,1.78-1.27,2.64-1.78.42-.26.83-.53,1.23-.75l1.17-.64c.74-.43,1.44-.73,2.05-1s1.14-.52,1.59-.69l1-.39Z"/><path class="cls-2" d="M760.33,194.17a2.46,2.46,0,0,1,.83-1.24,5.31,5.31,0,0,1,3.34-1.28,9,9,0,0,1,3.52.69,5.18,5.18,0,0,1,1.33.64,7.83,7.83,0,0,1-1.41-.41,10.64,10.64,0,0,0-3.43-.57,5.43,5.43,0,0,0-3.19,1.12A10.36,10.36,0,0,0,760.33,194.17Z"/><path class="cls-2" d="M758.08,196.49a12.5,12.5,0,0,0,.95-3.08,13,13,0,0,0-.21-3.22,2.22,2.22,0,0,1,.39.89,6.62,6.62,0,0,1,.17,2.37,6.4,6.4,0,0,1-.71,2.26C758.37,196.24,758.11,196.52,758.08,196.49Z"/><path class="cls-3" d="M733.53,227.78c.52,9.22,3.3,18.59,7.57,28.07h18.58c4.08-9.38,6.66-18.75,7.12-28.07Z"/><path class="cls-7" d="M763.79,242.69c0,.1-6.12.18-13.66.18s-13.66-.08-13.66-.18,6.11-.17,13.66-.17S763.79,242.6,763.79,242.69Z"/><path class="cls-7" d="M763.38,246c0,.1-5.74.18-12.81.18s-12.81-.08-12.81-.18,5.73-.17,12.81-.17S763.38,245.94,763.38,246Z"/><path class="cls-2" d="M826.8,259.85c0,.08-82,.15-183.14.15s-183.15-.07-183.15-.15,82-.15,183.15-.15S826.8,259.77,826.8,259.85Z"/></g></g></svg>