<svg xmlns="http://www.w3.org/2000/svg" viewBox="0 0 66.57 77.88"><defs><style>.cls-1{fill:#0083eb;}</style></defs><title>training-icon</title><g id="Layer_2" data-name="Layer 2"><g id="OBJECTS"><path class="cls-1" d="M16.7,10.6a.84.84,0,0,1-.35-.07,1,1,0,0,1-.59-1.28C17.76,3.89,25.13,0,33.28,0a1,1,0,0,1,0,2c-7.23,0-14,3.42-15.64,8A1,1,0,0,1,16.7,10.6Z"/><path class="cls-1" d="M4.83,43.65A1,1,0,0,1,4,43.22,24.46,24.46,0,0,1,0,29.37C0,18.43,6.34,9.53,14.13,9.53c4.12,0,8,2.49,10.69,6.83a1,1,0,1,1-1.7,1.05c-2.3-3.73-5.58-5.88-9-5.88C7.44,11.53,2,19.53,2,29.37A22.35,22.35,0,0,0,5.65,42.08a1,1,0,0,1-.26,1.39A.91.91,0,0,1,4.83,43.65Z"/><path class="cls-1" d="M19.08,67.38H19c-8.65-.61-15.7-9.3-15.7-19.36,0-7.07,3.56-13.35,9.07-16a1,1,0,0,1,1.34.47,1,1,0,0,1-.47,1.33C8.43,36.14,5.31,41.71,5.31,48c0,9,6.21,16.83,13.84,17.36a1,1,0,0,1-.07,2Z"/><path class="cls-1" d="M17.64,39.76a1.05,1.05,0,0,1-.65-.23,12.17,12.17,0,0,1-3.55-5.07,11.26,11.26,0,0,1,.1-8.3,1,1,0,0,1,1.84.79,9.2,9.2,0,0,0-.06,6.81,10,10,0,0,0,3,4.23,1,1,0,0,1,.12,1.41A1,1,0,0,1,17.64,39.76Z"/><path class="cls-1" d="M24,59.89a9.62,9.62,0,0,1-2.85-.44,8.43,8.43,0,0,1-4.76-3.59,1,1,0,0,1,1.71-1,6.58,6.58,0,0,0,3.65,2.71,7.32,7.32,0,0,0,3.46.24,1,1,0,1,1,.36,2A9.08,9.08,0,0,1,24,59.89Z"/><path class="cls-1" d="M8.25,52.73A9.08,9.08,0,0,1,4.61,52a1,1,0,0,1-.51-1.32,1,1,0,0,1,1.31-.52,7.44,7.44,0,0,0,6.42-.29,9.39,9.39,0,0,0,3.79-3.51A1,1,0,0,1,17,46a1,1,0,0,1,.32,1.38,11.54,11.54,0,0,1-4.59,4.24A10,10,0,0,1,8.25,52.73Z"/><path class="cls-1" d="M23,73.57a1,1,0,0,1-1-.82,5.65,5.65,0,0,1,1.59-5.53,5.45,5.45,0,0,1,4-1.19,1,1,0,1,1-.15,2,3.56,3.56,0,0,0-2.58.72A3.81,3.81,0,0,0,24,72.38a1,1,0,0,1-.8,1.17Z"/><path class="cls-1" d="M13.31,29.21h-.1a7.68,7.68,0,0,1-5.85-3.44,7.87,7.87,0,0,1-1.2-4.87,1,1,0,0,1,2,.15A5.87,5.87,0,0,0,9,24.67a5.63,5.63,0,0,0,4.35,2.54,1,1,0,0,1-.08,2Z"/><path class="cls-1" d="M22.23,24.57l-.8,0a1,1,0,0,1-.93-1.06,1,1,0,0,1,1.06-.93,9.13,9.13,0,0,0,5.16-1.14,5,5,0,0,0,2.07-2.13,1,1,0,1,1,1.82.83,6.93,6.93,0,0,1-2.88,3A10.87,10.87,0,0,1,22.23,24.57Z"/><path class="cls-1" d="M31.81,12.21a7.28,7.28,0,0,1-3.38-.88A9,9,0,0,1,24.5,7.17a1,1,0,0,1,1.82-.83,7,7,0,0,0,3,3.22,5.17,5.17,0,0,0,2.76.64,1,1,0,1,1,.15,2Z"/><path class="cls-1" d="M22.4,52.05a.91.91,0,0,1-.45-.11,1,1,0,0,1-.44-1.34,12.61,12.61,0,0,1,5.55-5.45A10.71,10.71,0,0,1,32.32,44a1,1,0,0,1-.1,2,8.59,8.59,0,0,0-4.26,1,10.74,10.74,0,0,0-4.67,4.57A1,1,0,0,1,22.4,52.05Z"/><path class="cls-1" d="M27.36,46.88a1,1,0,0,1-.47-.11,1,1,0,0,1-.42-1.35,6.41,6.41,0,0,0,.44-4.58,11.71,11.71,0,0,0-4.79-6.51,1,1,0,0,1-.24-1.4,1,1,0,0,1,1.39-.24,13.6,13.6,0,0,1,5.59,7.67,8.38,8.38,0,0,1-.62,6A1,1,0,0,1,27.36,46.88Z"/><path class="cls-1" d="M33.28,77.88c-8.24,0-15.2-6.11-15.2-13.34a12.52,12.52,0,0,1,1.77-6.4,1,1,0,0,1,1.72,1,10.59,10.59,0,0,0-1.49,5.38c0,6,6.17,11.34,13.2,11.34a1,1,0,0,1,0,2Z"/><path class="cls-1" d="M49.87,10.6a1,1,0,0,1-.94-.65C47.24,5.42,40.51,2,33.28,2a1,1,0,0,1,0-2C41.44,0,48.81,3.89,50.8,9.25a1,1,0,0,1-.58,1.28A.91.91,0,0,1,49.87,10.6Z"/><path class="cls-1" d="M61.74,43.65a.94.94,0,0,1-.57-.18,1,1,0,0,1-.25-1.39,22.43,22.43,0,0,0,3.65-12.71c0-9.84-5.45-17.84-12.14-17.84a9.2,9.2,0,0,0-5.72,2.12,1,1,0,0,1-1.24-1.57,11.2,11.2,0,0,1,7-2.55c7.8,0,14.14,8.9,14.14,19.84a24.39,24.39,0,0,1-4,13.85A1,1,0,0,1,61.74,43.65Z"/><path class="cls-1" d="M47.48,67.38a1,1,0,0,1-1-.93,1,1,0,0,1,.93-1.07c7.63-.53,13.83-8.32,13.83-17.36a17,17,0,0,0-3.42-10.51,1,1,0,0,1,1.58-1.23A19,19,0,0,1,63.25,48c0,10.06-7,18.75-15.69,19.36Z"/><path class="cls-1" d="M33.28,77.88a1,1,0,0,1,0-2c7,0,13.21-5.3,13.21-11.34A10.5,10.5,0,0,0,45,59.16a1,1,0,1,1,1.72-1,12.53,12.53,0,0,1,1.78,6.4C48.49,71.77,41.52,77.88,33.28,77.88Z"/><path class="cls-1" d="M33.28,77.45a1,1,0,0,1-1-1v-75a1,1,0,0,1,2,0v75A1,1,0,0,1,33.28,77.45Z"/><path class="cls-1" d="M49.08,37.94H34a.75.75,0,1,1,0-1.5h15a.75.75,0,0,1,0,1.5Z"/><path class="cls-1" d="M52.83,47.26h-6.9a.75.75,0,0,1-.68-.45l-3.9-9a.75.75,0,0,1,.39-1,.74.74,0,0,1,1,.39l3.7,8.5h6.41a.75.75,0,0,1,0,1.5Z"/><path class="cls-1" d="M53.41,37.19A2.17,2.17,0,1,1,51.25,35,2.16,2.16,0,0,1,53.41,37.19Z"/><path class="cls-1" d="M54.58,46.6a2.17,2.17,0,1,1-2.17-2.17A2.16,2.16,0,0,1,54.58,46.6Z"/><path class="cls-1" d="M42.33,53.22a2.17,2.17,0,1,1-2.16-2.17A2.16,2.16,0,0,1,42.33,53.22Z"/><path class="cls-1" d="M46.58,33.6H34a.75.75,0,0,1,0-1.5H46.26l5.55-6a.75.75,0,0,1,1.1,1l-5.78,6.26A.76.76,0,0,1,46.58,33.6Z"/><circle class="cls-1" cx="53.17" cy="25.64" r="2.17"/><path class="cls-1" d="M42.36,29.74H34.21a.75.75,0,0,1,0-1.5H42l4.14-4.82a.75.75,0,0,1,1.14,1l-4.36,5.08A.74.74,0,0,1,42.36,29.74Z"/><circle class="cls-1" cx="47.18" cy="23.02" r="2.17"/><path class="cls-1" d="M40.32,54a.75.75,0,0,1-.75-.75V43.35a.75.75,0,0,1,.75-.75h4.24a.75.75,0,0,1,0,1.5H41.07v9.12A.76.76,0,0,1,40.32,54Z"/></g></g></svg>