<svg xmlns="http://www.w3.org/2000/svg" viewBox="0 0 29.52 29.52"><defs><style>.cls-1{fill:#ff6a5c;}</style></defs><title>vission</title><g id="Layer_2" data-name="Layer 2"><g id="ICONS"><path class="cls-1" d="M28.77,14H26.36A11.64,11.64,0,0,0,15.51,3.16V.75a.75.75,0,0,0-1.5,0V3.16A11.64,11.64,0,0,0,3.16,14H.75a.75.75,0,0,0,0,1.5H3.16A11.65,11.65,0,0,0,14,26.37v2.4a.75.75,0,0,0,1.5,0v-2.4A11.65,11.65,0,0,0,26.36,15.51h2.41a.75.75,0,0,0,0-1.5Zm-6.46,1.5h2.55a10.15,10.15,0,0,1-9.35,9.35V22.31a.75.75,0,0,0-1.5,0v2.55a10.15,10.15,0,0,1-9.35-9.35H7.21a.75.75,0,0,0,0-1.5H4.66A10.15,10.15,0,0,1,14,4.66V7.21a.75.75,0,0,0,1.5,0V4.66A10.15,10.15,0,0,1,24.86,14H22.31a.75.75,0,0,0,0,1.5Zm-8.26-1.72a1.12,1.12,0,1,0,1.53.41A1.12,1.12,0,0,0,14.05,13.79Z"/></g></g></svg>